<?xml version="1.0" encoding="utf-8"?>
<!-- Generator: Adobe Illustrator 23.0.0, SVG Export Plug-In . SVG Version: 6.00 Build 0)  -->
<svg version="1.1" id="Layer_1" xmlns="http://www.w3.org/2000/svg" xmlns:xlink="http://www.w3.org/1999/xlink" x="0px" y="0px"
	 viewBox="0 0 1920 1080" style="enable-background:new 0 0 1920 1080;" xml:space="preserve">
<style type="text/css">
	.st0{fill:#FFFFFF;}
	.st1{fill:#231F20;}
</style>
<title>socialmediastar-layers</title>
<g id="Layer_4">
	<rect class="st0" width="1920" height="1080"/>
</g>
<g id="instafeed_Image">
	
		<image style="overflow:visible;enable-background:new    ;" width="404" height="600" id="instafeed_Image-2" xlink:href="8D37B6F64F60B835.png"  transform="matrix(1 0 0 1 135 366.8254)">
	</image>
</g>
<g id="pangolin_Image">
	
		<image style="overflow:visible;enable-background:new    ;" width="163" height="105" id="pangolin_Image-2" xlink:href="8D37B6F64F60B837.png"  transform="matrix(1 0 0 1 428 554.8254)">
	</image>
</g>
<g id="title">
	<path class="st1" d="M226.7,129c0,3.1,0.8,6.2,2.4,8.8c1.7,2.8,3.7,5.5,5.9,7.9c2.4,2.6,4.9,5.1,7.7,7.6c2.7,2.4,5.3,5.1,7.7,7.8
		c2.4,2.7,4.4,5.7,6,8.8c1.6,3.3,2.4,6.9,2.4,10.5c0,7.5-1.9,13.4-5.6,17.7c-3.7,4.2-9.3,6.4-16.8,6.4c-2.7,0-5.5-0.4-8.1-1.1
		c-2.5-0.7-4.8-1.9-6.9-3.5c-2-1.6-3.6-3.5-4.8-5.8c-1.2-2.5-1.9-5.2-1.8-8c-0.1-2.5,0.4-4.9,1.4-7.1c0.8-1.9,2-3.6,3.4-5.1
		c1.3-1.3,2.8-2.3,4.5-3c1.4-0.6,3-1,4.5-1c4.3,0,7.5,0.9,9.4,2.7c1.8,1.6,2.9,3.8,2.9,6.2c-1.5-0.5-3-0.7-4.5-0.5
		c-1.5,0.1-3,0.5-4.4,1.1c-1.3,0.6-2.6,1.4-3.6,2.5c-1,1-1.8,2.3-2.4,3.6c-0.7,1.7-1,3.6-0.8,5.5c0.2,1.8,0.7,3.6,1.7,5.1
		c0.9,1.5,2.2,2.8,3.7,3.7c1.7,1,3.5,1.5,5.5,1.4c2,0,4-0.3,5.8-1.1c1.6-0.7,2.9-1.7,4.1-2.9c1.1-1.2,1.9-2.6,2.3-4.1
		c0.5-1.4,0.7-2.9,0.7-4.4c0-3.5-0.8-6.9-2.4-10c-1.6-3.1-3.7-5.9-6-8.5c-2.5-2.8-5.1-5.4-7.9-7.9c-2.8-2.5-5.4-5.2-7.9-8
		c-2.4-2.7-4.4-5.7-6-8.8c-2.9-6-3.2-12.9-0.8-19.1c1-2.6,2.6-4.9,4.6-6.9c2-2,4.4-3.5,7.1-4.5c2.9-1.1,6-1.7,9.1-1.6
		c3.1-0.1,6.2,0.5,9.1,1.8c2.3,1,4.3,2.5,6,4.3c2.7,2.9,4.2,6.7,4.3,10.7c0.1,2.3-0.4,4.6-1.3,6.7c-0.7,1.7-1.8,3.3-3.2,4.6
		c-1.2,1.1-2.6,2.1-4.1,2.7c-1.3,0.6-2.7,0.9-4.1,0.9c-1.5,0-3-0.2-4.4-0.7c-1.3-0.4-2.6-1-3.7-1.7c-1-0.7-1.9-1.5-2.6-2.5
		c-0.6-0.9-1-2-1-3.1c1.3,0.5,2.8,0.7,4.2,0.5c1.4-0.1,2.7-0.4,4-1c1.2-0.6,2.4-1.3,3.4-2.3c1-0.9,1.7-2.1,2.2-3.4
		c0.5-1.3,0.7-2.6,0.7-4c0-1.6-0.4-3.2-1.1-4.7c-0.7-1.6-1.8-2.9-3.1-4c-1.7-1.2-3.7-1.8-5.7-1.7c-1.8,0-3.5,0.4-5.1,1.1
		c-1.4,0.7-2.7,1.7-3.7,2.9c-1,1.2-1.8,2.6-2.3,4.1C227,125.9,226.7,127.4,226.7,129z"/>
	<path class="st1" d="M287.3,114.3c2.8,0,5.6,0.5,8.2,1.4c2.4,0.9,4.5,2.2,6.4,3.9c1.8,1.6,3.2,3.6,4.1,5.8c1,2.2,1.4,4.6,1.4,7
		v51.2c0,2.5-0.5,4.9-1.6,7.1c-1,2.2-2.5,4.1-4.3,5.7c-1.9,1.7-4.1,3-6.4,3.9c-2.6,1-5.3,1.5-8.1,1.4c-2.8,0-5.6-0.5-8.2-1.4
		c-2.4-0.9-4.6-2.2-6.5-3.9c-1.8-1.6-3.3-3.5-4.3-5.7c-1.1-2.2-1.6-4.7-1.6-7.1v-51.2c0-2.4,0.6-4.8,1.6-7c1.1-2.2,2.6-4.2,4.4-5.8
		c2-1.7,4.2-3,6.6-3.9C281.7,114.8,284.5,114.3,287.3,114.3z M294.7,132.1c-1.2,0.9-2.6,1.4-4.1,1.4c-1.4-0.1-2.8-0.4-4.1-1
		c-1.3-0.6-2.1-1.9-2.1-3.3c1.2,0.5,2.5,0.8,3.9,0.6c1.2-0.1,2.3-0.6,3.3-1.3c0.9-0.7,1.6-1.7,2-2.9c0.4-1.3,0.5-2.6,0.2-3.9v-0.2
		c-0.6-1.1-1.3-2.1-2.3-2.9c-1.2-0.9-2.7-1.4-4.2-1.2c-1.4,0-2.7,0.3-3.9,1c-1,0.6-1.8,1.4-2.5,2.4c-0.6,0.9-1.1,2-1.3,3.1
		c-0.2,1-0.3,2.1-0.4,3.1v62.5c0,1,0.1,2,0.4,3c0.2,1.1,0.7,2.2,1.3,3.1c0.6,1,1.4,1.8,2.4,2.5c2.4,1.3,5.3,1.3,7.7,0
		c1-0.6,1.8-1.4,2.4-2.4c0.6-1,0.9-2,1.1-3.1c0.2-1,0.3-2.1,0.3-3.1L294.7,132.1z"/>
	<path class="st1" d="M344,178.9c0.9-0.7,1.9-1.1,3.1-1.1c1.4-0.1,2.9,0.1,4.2,0.7c1.5,0.6,2.8,1.6,3.7,2.9c1.2,1.7,1.7,3.7,1.6,5.7
		c0,1.6-0.3,3.2-0.7,4.7c-0.5,1.8-1.4,3.4-2.6,4.8c-1.4,1.7-3.2,3-5.2,3.8c-2.7,1.1-5.7,1.6-8.6,1.5c-3.2,0.1-6.4-0.4-9.4-1.4
		c-2.5-0.9-4.8-2.2-6.8-3.9c-1.8-1.6-3.2-3.6-4.1-5.8c-0.9-2.2-1.4-4.6-1.4-7v-51.4c0-2.4,0.5-4.8,1.4-7c0.9-2.2,2.3-4.2,4.1-5.8
		c2-1.7,4.3-3.1,6.8-3.9c3-1,6.2-1.5,9.4-1.4c3.4-0.1,6.8,0.5,9.9,1.7c2.2,0.9,4.3,2.3,5.9,4.1c1.3,1.5,2.3,3.3,2.9,5.3
		c0.5,1.7,0.8,3.5,0.8,5.2c0.1,2.2-0.4,4.4-1.2,6.4c-0.7,1.7-1.8,3.2-3.1,4.4c-1.2,1.1-2.5,2-4,2.6c-1.3,0.5-2.6,0.8-4,0.9
		c-1.4,0-2.9-0.2-4.3-0.6c-1.3-0.4-2.5-0.9-3.7-1.7c-1-0.7-1.8-1.5-2.5-2.5c-0.6-0.9-0.9-1.9-0.9-3c2.6,0.9,5.4,0.7,7.9-0.4
		c2.5-1,4.4-3,5.4-5.5c0.5-1.3,0.8-2.6,0.7-4c0-1.6-0.3-3.2-1-4.6c-0.7-1.5-1.8-2.8-3.1-3.8c-1.6-1.1-3.6-1.7-5.6-1.6
		c-1.5,0-3.1,0.3-4.5,1c-2.2,1.1-3.8,3.1-4.4,5.5c-0.3,1-0.4,2-0.4,3v62.6c0,1,0.2,2,0.4,3c0.6,2.4,2.2,4.4,4.4,5.5
		c1.4,0.7,2.9,1,4.5,1c2.6,0.1,5.1-0.9,6.9-2.8c3.3-3.6,4.2-8.8,2.2-13.3C347.7,181,346,179.6,344,178.9z"/>
	<path class="st1" d="M379.5,186.1c0,2.3,0.1,4.7,0.4,7c0.2,1.5,0.5,3,1,4.5c0.2,1.1,0.7,2.2,1.3,3.1h-18c0.6-1,1-2,1.3-3.1
		c0.4-1.5,0.7-3,0.9-4.5c0.3-2.3,0.4-4.7,0.4-7v-56c0-2.3-0.1-4.7-0.4-7c-0.2-1.5-0.5-3-0.9-4.5c-0.3-1.1-0.7-2.1-1.3-3.1h18
		c-0.7,0.9-1.1,2-1.3,3.1c-0.5,1.5-0.8,3-1,4.5c-0.3,2.3-0.4,4.7-0.4,7V186.1z"/>
	<path class="st1" d="M417.2,200.8c0.5-0.9,0.8-1.8,1.1-2.8c0.3-1.2,0.5-2.3,0.5-3.5c0.1-1.7,0-3.4-0.4-5.1l-5.6-29.3h-12.5
		l-7.9,34.4c-0.2,0.8-0.2,1.5-0.2,2.3v2.1c0,0.7,0,1.3,0.1,2h-6.5c0.4-0.6,0.8-1.2,1.1-1.9c0.4-0.7,0.7-1.5,0.9-2.2
		c0.3-0.8,0.6-1.8,0.9-2.8l16.7-72.4c-0.4-1.6-0.9-3.1-1.6-4.6l-0.7-1.4h13.8l7.5,38.2l7.5,38.2c0.2,1.3,0.6,2.5,1,3.7
		c0.3,1,0.7,1.9,1.2,2.8c0.4,0.8,0.8,1.6,1.3,2.4L417.2,200.8z M412,156.2l-5-25.8l-5.9,25.8H412z"/>
	<path class="st1" d="M480.1,200.8h-40.6c0.6-1,1-2,1.3-3.1c0.4-1.5,0.7-3,0.9-4.5c0.3-2.3,0.4-4.7,0.4-7v-56c0-2.3-0.1-4.7-0.4-7
		c-0.2-1.5-0.5-3-0.9-4.5c-0.3-1.1-0.7-2.1-1.3-3.1h18c-0.7,0.9-1.1,2-1.3,3.1c-0.5,1.5-0.8,3-1,4.5c-0.3,2.3-0.4,4.7-0.4,7v62.5
		c0,0.5,0.1,1,0.3,1.5c0.3,0.6,0.7,1.2,1.2,1.7c0.6,0.6,1.4,1.1,2.2,1.4c1.2,0.4,2.5,0.6,3.7,0.5h4.2c1.5,0.1,3.1-0.3,4.4-1
		c1.1-0.7,2-1.6,2.7-2.7c0.7-1.2,1.3-2.5,1.6-3.8c0.4-1.4,0.8-2.8,1.2-4.3h2.8L480.1,200.8z"/>
	<path class="st1" d="M190.4,288c0,2.3,0.1,4.7,0.4,7c0.2,1.5,0.5,3,1,4.5c0.2,1.1,0.7,2.2,1.3,3.1h-18c0.7-0.8,1.2-1.7,1.4-2.7
		c0.4-1.3,0.7-2.6,0.8-4c0.2-1.4,0.3-2.9,0.4-4.3c0-1.4,0.1-2.6,0.1-3.6v-54l-13.9,60.6h-3.7l-14.8-60.5v61.2c0,1,0.1,1.9,0.3,2.9
		c0.2,0.8,0.4,1.6,0.8,2.3c0.3,0.8,0.7,1.5,1.1,2.2h-8.2c0.4-0.7,0.8-1.4,1.1-2.2c0.2-0.6,0.5-1.4,0.7-2.3c0.3-1,0.4-2,0.4-3v-64.5
		c0-2.1-0.2-4.3-0.5-6.4c-0.2-1.4-0.5-2.7-0.8-4.1c-0.2-1-0.7-2-1.2-2.9h15.1l12.3,49.8l11.3-49.8h15.4c-0.7,0.9-1.1,2-1.3,3.1
		c-0.5,1.5-0.8,3-1,4.5c-0.3,2.3-0.4,4.7-0.4,7L190.4,288L190.4,288z"/>
	<path class="st1" d="M239.8,302.6h-40.6c0.6-1,1-2,1.3-3.1c0.4-1.5,0.7-3,0.9-4.5c0.3-2.3,0.4-4.7,0.4-7v-56c0-2.3-0.1-4.7-0.4-7
		c-0.2-1.5-0.5-3-0.9-4.5c-0.3-1.1-0.7-2.1-1.3-3.1h39.4l-1.1,11.9h-2.8c-0.4-1.6-0.8-3-1.2-4.1c-0.4-1.1-1-2-1.8-2.8
		c-1-0.8-2.2-1.4-3.5-1.6c-2.1-0.4-4.2-0.5-6.4-0.5h-7.3v26.1c2.2,0.2,4.4,0.2,6.6,0c2-0.2,3.7-0.3,5.2-0.5c1.5-0.2,3-0.5,4.4-0.9
		c0.1,0.5,0.1,1,0.1,1.6c0,1.1-0.2,2.3-0.6,3.4c-0.4,1.2-1.4,2.1-2.6,2.4c-1.3,0.4-2.8,0.3-4.1-0.1l-9-2.5v44.7c0,0.5,0.1,1,0.3,1.5
		c0.2,0.7,0.6,1.2,1.1,1.7c0.6,0.6,1.4,1.1,2.2,1.4c1.2,0.4,2.5,0.6,3.7,0.5h4.2c1.5,0.1,3.1-0.3,4.4-1c1.1-0.7,2-1.6,2.7-2.8
		c0.7-1.2,1.2-2.5,1.6-3.9c0.4-1.4,0.7-2.8,1.1-4.3h2.8L239.8,302.6z"/>
	<path class="st1" d="M270.7,217.3c5.6-0.1,11,2.2,14.8,6.3c1.9,2,3.3,4.3,4.3,6.9c1.1,2.7,1.6,5.5,1.6,8.4v42.3
		c0,2.9-0.5,5.7-1.6,8.4c-1,2.5-2.5,4.9-4.3,6.9c-3.8,4.1-9.2,6.4-14.8,6.3h-25.1c0.6-1,1-2,1.3-3.1c0.4-1.5,0.7-3,0.9-4.5
		c0.3-2.3,0.4-4.7,0.4-7v-56c0-2.3-0.1-4.7-0.4-7c-0.2-1.5-0.5-3-0.9-4.5c-0.3-1.1-0.7-2.1-1.3-3.1L270.7,217.3z M278.7,238.8
		c0-1.8-0.2-3.6-0.5-5.3c-0.4-2.2-1.1-4.2-2.1-6.2c-1.1-2-2.6-3.7-4.5-5c-2.1-1.4-4.7-2.2-7.3-2.1H261v66c0.7-0.5,1.6-0.9,2.4-1.2
		c1.3-0.3,2.6-0.3,3.9,0c1.3,0.3,2.3,1.3,2.6,2.5c-1.2-0.2-2.5-0.1-3.7,0.4c-1.1,0.4-2.1,1.2-2.8,2.1c-0.7,0.9-1.2,2-1.4,3.2
		c-0.2,1.3-0.1,2.6,0.5,3.7c0.4,0.8,1,1.4,1.7,1.8c1,0.6,2.1,0.9,3.3,0.9h1c1.7,0,3.4-0.7,4.6-2c1.3-1.5,2.4-3.2,3.2-5
		c0.8-2,1.5-4,1.9-6.1c0.4-1.8,0.6-3.6,0.6-5.4L278.7,238.8z"/>
	<path class="st1" d="M314,288c0,2.3,0.1,4.7,0.4,7c0.2,1.5,0.5,3,1,4.5c0.2,1.1,0.7,2.2,1.3,3.1h-18c0.6-1,1-2,1.3-3.1
		c0.4-1.5,0.7-3,0.9-4.5c0.3-2.3,0.4-4.7,0.4-7v-56c0-2.3-0.1-4.7-0.4-7c-0.2-1.5-0.5-3-0.9-4.5c-0.3-1.1-0.7-2.1-1.3-3.1h18
		c-0.7,0.9-1.1,2-1.3,3.1c-0.5,1.5-0.8,3-1,4.5c-0.3,2.3-0.4,4.7-0.4,7V288z"/>
	<path class="st1" d="M351.8,302.6c0.5-0.9,0.8-1.8,1.1-2.8c0.3-1.2,0.5-2.4,0.5-3.5c0.1-1.7,0-3.4-0.4-5.1l-5.6-29.3h-12.5
		l-7.9,34.4c-0.2,0.8-0.2,1.5-0.2,2.3v2c0,0.7,0,1.3,0.1,2h-6.5c0.4-0.6,0.8-1.2,1.1-1.9c0.3-0.7,0.6-1.5,0.9-2.2
		c0.3-0.8,0.6-1.8,0.9-2.8l16.7-72.4c-0.4-1.6-1-3.1-1.6-4.6l-0.7-1.4h13.8l7.5,38.2l7.5,38.2c0.2,1.2,0.6,2.5,1,3.7
		c0.3,1,0.7,1.9,1.2,2.8c0.4,0.8,0.8,1.6,1.3,2.4L351.8,302.6z M346.6,258l-5-25.9l-5.9,25.9H346.6z"/>
	<path class="st1" d="M400.7,230.9c0,3.1,0.8,6.2,2.4,8.8c1.7,2.8,3.7,5.5,6,7.9c2.4,2.6,4.9,5.1,7.7,7.6c2.7,2.4,5.3,5.1,7.7,7.8
		c2.3,2.7,4.3,5.7,6,8.8c1.6,3.3,2.4,6.9,2.4,10.5c0,7.5-1.9,13.4-5.6,17.7c-3.7,4.3-9.3,6.4-16.8,6.4c-2.7,0-5.5-0.4-8.1-1.1
		c-2.5-0.7-4.8-1.9-6.9-3.5c-2-1.6-3.6-3.5-4.8-5.8c-1.2-2.5-1.9-5.2-1.8-8c-0.1-2.5,0.4-4.9,1.4-7.2c0.8-1.9,2-3.6,3.4-5
		c1.3-1.3,2.8-2.3,4.5-3c1.4-0.6,3-1,4.5-1c4.3,0,7.5,0.9,9.4,2.7c1.8,1.6,2.9,3.8,2.9,6.2c-1.5-0.5-3-0.7-4.5-0.5
		c-1.5,0.1-3,0.5-4.4,1.1c-1.3,0.6-2.6,1.4-3.6,2.5c-1,1-1.9,2.3-2.4,3.6c-0.7,1.7-1,3.6-0.8,5.5c0.2,1.8,0.7,3.6,1.7,5.1
		c0.9,1.5,2.2,2.8,3.7,3.7c1.7,1,3.5,1.5,5.5,1.4c2,0,4-0.3,5.8-1.1c1.6-0.7,2.9-1.7,4.1-3c1.1-1.2,1.9-2.6,2.3-4.1
		c0.5-1.4,0.7-2.9,0.7-4.5c0-3.5-0.8-6.9-2.4-10c-1.7-3.1-3.7-5.9-6-8.5c-2.5-2.8-5.1-5.4-7.9-7.9c-2.8-2.5-5.4-5.2-7.9-8
		c-2.3-2.7-4.4-5.7-6-8.8c-2.9-6-3.2-12.9-0.8-19.1c1-2.6,2.6-4.9,4.6-6.9c2-2,4.4-3.5,7.1-4.5c2.9-1.1,6-1.7,9.1-1.6
		c3.1-0.1,6.2,0.5,9.1,1.8c2.2,1,4.3,2.5,6,4.3c4.3,4.7,5.5,11.5,3.1,17.4c-0.7,1.7-1.8,3.3-3.2,4.6c-1.2,1.1-2.6,2.1-4.1,2.7
		c-1.3,0.6-2.7,0.9-4.1,0.9c-1.5,0-3-0.2-4.4-0.7c-1.3-0.4-2.6-1-3.7-1.8c-1-0.7-1.9-1.5-2.6-2.5c-0.6-0.9-1-2-1-3.1
		c1.3,0.5,2.8,0.7,4.2,0.5c1.4-0.1,2.7-0.4,4-1c1.2-0.6,2.4-1.3,3.4-2.3c1-0.9,1.7-2.1,2.2-3.4c0.5-1.3,0.7-2.6,0.7-4
		c0-1.6-0.4-3.3-1.1-4.8c-0.7-1.6-1.8-2.9-3.1-4c-1.7-1.2-3.7-1.8-5.7-1.7c-1.8,0-3.5,0.4-5,1.1c-1.4,0.7-2.7,1.7-3.7,2.9
		c-1,1.2-1.8,2.6-2.3,4.1C400.9,227.7,400.7,229.3,400.7,230.9z"/>
	<path class="st1" d="M483.6,217.3l-1.1,11.9h-2.8c-0.4-1.5-0.8-2.9-1.1-4c-0.3-1.1-0.9-2-1.8-2.8c-1-0.8-2.1-1.4-3.4-1.6
		c-2-0.4-4-0.6-6-0.5v67.7c0,2.3,0.1,4.7,0.4,7c0.2,1.5,0.5,3,1,4.5c0.2,1.1,0.7,2.2,1.3,3.1h-18c0.6-1,1-2,1.3-3.1
		c0.4-1.5,0.7-3,0.9-4.5c0.3-2.3,0.4-4.7,0.4-7v-67.6c-2-0.1-4,0.1-6,0.5c-1.2,0.3-2.4,0.8-3.4,1.6c-0.8,0.7-1.4,1.7-1.7,2.8
		c-0.4,1.1-0.7,2.4-1.1,4h-2.8l-1.1-11.9L483.6,217.3z"/>
	<path class="st1" d="M515.8,302.6c0.5-0.9,0.8-1.8,1.1-2.8c0.3-1.2,0.5-2.4,0.5-3.5c0.1-1.7,0-3.4-0.4-5.1l-5.7-29.3h-12.5
		l-7.9,34.4c-0.2,0.8-0.2,1.5-0.2,2.3v2c0,0.7,0,1.3,0.1,2h-6.5c0.4-0.6,0.8-1.2,1.1-1.9c0.4-0.7,0.7-1.5,0.9-2.2
		c0.3-0.8,0.6-1.8,0.9-2.8l16.7-72.4c-0.4-1.6-0.9-3.1-1.6-4.6l-0.7-1.4h13.8l7.5,38.2l7.5,38.2c0.2,1.2,0.6,2.5,1,3.7
		c0.3,1,0.8,1.9,1.2,2.8c0.4,0.8,0.8,1.6,1.3,2.4L515.8,302.6z M510.6,258l-5-25.9l-5.9,25.9H510.6z"/>
	<path class="st1" d="M579.3,289.2c0.8,2.8,1.8,5.6,3,8.2c0.9,1.9,2.4,3.4,4.2,4.5c-1.2,0.8-2.6,1.2-4,1.4c-1.2,0.2-2.4,0.3-3.7,0.4
		c-2.7-0.1-5.3-1-7.5-2.6c-2.3-1.9-3.9-4.5-4.4-7.4l-7.3-35.8c-2.2-0.1-4.4-0.9-6.1-2.3V288c0,2.3,0.1,4.7,0.4,7
		c0.2,1.5,0.5,3,1,4.5c0.2,1.1,0.7,2.2,1.3,3.1h-18c0.6-1,1-2,1.3-3.1c0.4-1.5,0.7-3,0.9-4.5c0.3-2.3,0.4-4.7,0.4-7v-56
		c0-2.3-0.1-4.7-0.4-7c-0.2-1.5-0.5-3-0.9-4.5c-0.3-1.1-0.7-2.1-1.3-3.1h21.3c2.9,0,5.9,0.3,8.7,1.1c2.5,0.6,4.8,1.8,6.7,3.4
		c1.9,1.6,3.4,3.7,4.4,6.1c1.1,2.9,1.7,6,1.6,9.1c0,5.7-1.4,10.3-4.2,13.9c-3,3.7-7.2,6.1-11.9,6.7c1,0.5,2,1,2.9,1.7
		c1.1,0.8,2.2,1.7,3.1,2.8c1.1,1.2,2,2.6,2.8,4c0.9,1.7,1.6,3.6,2,5.5L579.3,289.2z M554.8,252.3c0.4,0.8,1.1,1.5,1.9,1.9
		c1,0.6,2.2,0.9,3.4,0.9c1.5,0.1,2.9-0.5,4-1.4c1.1-1.1,2-2.4,2.5-3.9c0.7-1.8,1.1-3.8,1.2-5.7c0.2-2.2,0.3-4.5,0.3-6.9
		c0.1-2.7-0.3-5.3-1-7.9c-0.6-1.9-1.5-3.6-2.7-5.2c-2-2.4-4.9-3.8-7.9-3.8h-2.9v21.4c0.6-0.6,1.4-1,2.2-1.3c0.8-0.3,1.8-0.4,2.6-0.4
		c0.8,0.1,1.7,0.3,2.4,0.8c0.8,0.5,1.4,1.2,1.7,2.1c-1.2-0.2-2.5-0.1-3.7,0.4c-1.1,0.4-2.1,1.2-2.8,2.1c-0.7,0.9-1.2,2-1.5,3.2
		C554.2,249.8,554.3,251.1,554.8,252.3L554.8,252.3z"/>
	<path class="st1" d="M155.6,146l-0.4,4.6h-1.1c-0.2-0.6-0.3-1.1-0.4-1.5c-0.1-0.4-0.4-0.8-0.7-1.1c-0.4-0.3-0.8-0.5-1.3-0.6
		c-0.8-0.2-1.6-0.2-2.3-0.2v26.4c0,0.9,0,1.8,0.1,2.7c0.1,0.6,0.2,1.2,0.4,1.8c0.1,0.4,0.3,0.9,0.5,1.2h-7c0.2-0.4,0.4-0.8,0.5-1.2
		c0.2-0.6,0.3-1.2,0.4-1.8c0.1-0.9,0.2-1.8,0.2-2.7v-26.4c-0.8,0-1.6,0-2.3,0.2c-0.5,0.1-0.9,0.3-1.3,0.6c-0.3,0.3-0.6,0.7-0.7,1.1
		c-0.1,0.4-0.3,1-0.4,1.5h-1.1l-0.4-4.6H155.6z"/>
	<path class="st1" d="M176,173.6c0,0.9,0,1.8,0.1,2.7c0.1,0.6,0.2,1.2,0.4,1.8c0.1,0.4,0.3,0.9,0.5,1.2h-7c0.2-0.4,0.4-0.8,0.5-1.2
		c0.2-0.6,0.3-1.2,0.4-1.8c0.1-0.9,0.2-1.8,0.2-2.7v-14.9h-6.9v14.9c0,0.9,0,1.8,0.1,2.7c0.1,0.6,0.2,1.2,0.4,1.8
		c0.1,0.4,0.3,0.9,0.5,1.2h-7c0.2-0.4,0.4-0.8,0.5-1.2c0.1-0.6,0.2-1.2,0.3-1.8c0.1-0.9,0.2-1.8,0.2-2.7v-21.8c0-0.9,0-1.8-0.2-2.7
		c-0.1-0.6-0.2-1.2-0.4-1.8c-0.1-0.4-0.3-0.8-0.5-1.2h7c-0.2,0.4-0.4,0.8-0.5,1.3c-0.2,0.6-0.3,1.2-0.4,1.8
		c-0.1,0.9-0.1,1.8-0.1,2.7v5.4h6.9v-5.4c0-0.9,0-1.8-0.2-2.7c-0.1-0.6-0.2-1.2-0.4-1.8c-0.1-0.4-0.3-0.8-0.5-1.2h7
		c-0.2,0.4-0.4,0.8-0.5,1.2c-0.2,0.6-0.3,1.2-0.3,1.8c-0.1,0.9-0.2,1.8-0.2,2.7L176,173.6L176,173.6z"/>
	<path class="st1" d="M195.3,179.3h-15.8c0.2-0.4,0.4-0.8,0.5-1.2c0.2-0.6,0.3-1.2,0.4-1.8c0.1-0.9,0.2-1.8,0.2-2.7v-21.8
		c0-0.9,0-1.8-0.2-2.7c-0.1-0.6-0.2-1.2-0.4-1.8c-0.1-0.4-0.3-0.8-0.5-1.2h15.4l-0.4,4.6h-1.1c-0.1-0.6-0.3-1.1-0.5-1.6
		c-0.1-0.4-0.4-0.8-0.7-1.1c-0.4-0.3-0.9-0.5-1.4-0.6c-0.8-0.1-1.6-0.2-2.5-0.2h-2.9v10.2c0.9,0.1,1.7,0.1,2.6,0
		c0.8-0.1,1.5-0.1,2-0.2c0.6-0.1,1.2-0.2,1.7-0.3c0,0.2,0,0.4,0,0.6c0,0.4-0.1,0.9-0.2,1.3c-0.1,0.5-0.5,0.8-1,0.9
		c-0.5,0.1-1.1,0.1-1.6,0l-3.5-1v17.4c0,0.2,0,0.4,0.1,0.6c0.1,0.3,0.2,0.5,0.4,0.7c0.2,0.2,0.5,0.4,0.9,0.5c0.5,0.2,1,0.2,1.5,0.2
		h1.6c0.6,0,1.2-0.1,1.7-0.4c0.4-0.3,0.8-0.6,1.1-1.1c0.3-0.5,0.5-1,0.6-1.5c0.1-0.6,0.3-1.1,0.4-1.7h1.1L195.3,179.3z"/>
	<rect x="136.5" y="136.3" class="st1" width="60.7" height="2"/>
	<rect x="136.5" y="185.7" class="st1" width="60.7" height="2"/>
</g>
</svg>
