<svg xmlns="http://www.w3.org/2000/svg" id="main-title" width="437.04" height="194.709" viewBox="0 0 437.04 194.709">
    <defs>
        <style>
            .cls-1{fill:#462a12}.cls-2{clip-path:url(#clip-path)}
        </style>
        <clipPath id="clip-path">
            <path id="Rectangle_72" d="M0 0h437.04v194.709H0z" class="cls-1" data-name="Rectangle 72"/>
        </clipPath>
    </defs>
    <g id="Group_99" class="cls-2" data-name="Group 99">
        <path id="Path_538" d="M20.434 103.189a31.359 31.359 0 0 1 8.37 1.039 17.149 17.149 0 0 1 6.465 3.29 14.848 14.848 0 0 1 4.214 5.888 22.815 22.815 0 0 1 1.5 8.716q0 9.351-5.137 14.777t-14.489 5.426a10.146 10.146 0 0 1-3.636-.635 10.425 10.425 0 0 1-2.944-1.674v31.056a54.734 54.734 0 0 0 .346 6.754 21.247 21.247 0 0 0 .924 4.329 7.778 7.778 0 0 0 1.27 3H0a11.3 11.3 0 0 0 1.269-3 35.6 35.6 0 0 0 .866-4.329 47.047 47.047 0 0 0 .4-6.754v-53.8a47.07 47.07 0 0 0-.4-6.754 35.75 35.75 0 0 0-.866-4.33 11.331 11.331 0 0 0-1.269-3zm.808 36.251a5.4 5.4 0 0 0 3.81-1.385 8.936 8.936 0 0 0 2.309-3.695 23.073 23.073 0 0 0 1.1-5.484q.288-3.174.289-6.638a25.208 25.208 0 0 0-.981-7.5 14.35 14.35 0 0 0-2.6-5.022 9.9 9.9 0 0 0-3.637-2.771 10.06 10.06 0 0 0-3.983-.866h-2.772v20.55a5.6 5.6 0 0 1 2.078-1.27 5.84 5.84 0 0 1 2.539-.346 5.277 5.277 0 0 1 2.367.808 3.779 3.779 0 0 1 1.559 1.962 6.085 6.085 0 0 0-3.521.347 6.54 6.54 0 0 0-2.713 2.02 7.171 7.171 0 0 0-1.386 3.059 6.447 6.447 0 0 0 .346 3.579 3.932 3.932 0 0 0 1.79 1.789 6.486 6.486 0 0 0 3.405.866" class="cls-1" data-name="Path 538" transform="translate(0 -42.521)"/>
        <path id="Path_539" d="M119.319 172.227a46.725 46.725 0 0 0 2.886 7.908 10.651 10.651 0 0 0 4.041 4.329 9.836 9.836 0 0 1-3.867 1.385 24.68 24.68 0 0 1-3.522.346 13.122 13.122 0 0 1-7.215-2.482 11.8 11.8 0 0 1-4.214-7.1l-7.043-34.4a10.169 10.169 0 0 1-5.888-2.194v31.056a54.734 54.734 0 0 0 .346 6.754 21.248 21.248 0 0 0 .924 4.329 7.769 7.769 0 0 0 1.27 3H79.721a11.3 11.3 0 0 0 1.269-3 35.592 35.592 0 0 0 .866-4.329 47.046 47.046 0 0 0 .4-6.754v-53.8a47.069 47.069 0 0 0-.4-6.754 35.747 35.747 0 0 0-.866-4.33 11.331 11.331 0 0 0-1.269-3h20.434a31.359 31.359 0 0 1 8.37 1.039 17.149 17.149 0 0 1 6.465 3.29 14.933 14.933 0 0 1 4.214 5.83 22.722 22.722 0 0 1 1.5 8.774q0 8.2-4.04 13.392a17.636 17.636 0 0 1-11.429 6.465 18.353 18.353 0 0 1 2.77 1.616 16.914 16.914 0 0 1 2.944 2.656 20.082 20.082 0 0 1 2.656 3.867 21.007 21.007 0 0 1 1.9 5.253zm-23.551-35.443a3.932 3.932 0 0 0 1.79 1.789 6.264 6.264 0 0 0 3.29.866 5.4 5.4 0 0 0 3.81-1.385 9.441 9.441 0 0 0 2.367-3.695 21.175 21.175 0 0 0 1.154-5.484q.288-3.174.289-6.638a25.09 25.09 0 0 0-.981-7.562 14.409 14.409 0 0 0-2.6-4.964 9.9 9.9 0 0 0-3.637-2.771 10.059 10.059 0 0 0-3.983-.865H94.5v20.549a5.6 5.6 0 0 1 2.078-1.27 5.848 5.848 0 0 1 2.539-.346 5.3 5.3 0 0 1 2.309.751 4.134 4.134 0 0 1 1.616 2.02 6.08 6.08 0 0 0-3.521.346 6.545 6.545 0 0 0-2.713 2.02 7.17 7.17 0 0 0-1.386 3.06 6.446 6.446 0 0 0 .346 3.579" class="cls-1" data-name="Path 539" transform="translate(-32.851 -42.521)"/>
        <path id="Path_540" d="M187.072 101.422a21.576 21.576 0 0 1 7.851 1.386 19.566 19.566 0 0 1 6.177 3.752 16.185 16.185 0 0 1 3.983 5.541 16.708 16.708 0 0 1 1.385 6.754v49.181a15.884 15.884 0 0 1-1.5 6.869 16.944 16.944 0 0 1-4.1 5.484 20.1 20.1 0 0 1-6.177 3.695 21.24 21.24 0 0 1-7.735 1.385 22.026 22.026 0 0 1-7.908-1.385 20.682 20.682 0 0 1-6.292-3.695 16.536 16.536 0 0 1-4.156-5.489 15.859 15.859 0 0 1-1.5-6.869v-49.176a15.127 15.127 0 0 1 1.559-6.754 17.545 17.545 0 0 1 4.271-5.541 20.852 20.852 0 0 1 6.35-3.752 21.7 21.7 0 0 1 7.792-1.386m7.158 17.086a6.78 6.78 0 0 1-3.926 1.385 10.985 10.985 0 0 1-3.983-.981 3.378 3.378 0 0 1-2.021-3.175 6.913 6.913 0 0 0 3.695.577 6.356 6.356 0 0 0 3.175-1.261 6.045 6.045 0 0 0 1.963-2.744 6.574 6.574 0 0 0 .173-3.774v-.227a9.125 9.125 0 0 0-2.194-2.8 6 6 0 0 0-4.041-1.2 6.879 6.879 0 0 0-3.752.921 7.97 7.97 0 0 0-2.366 2.305 8.609 8.609 0 0 0-1.27 3 14.346 14.346 0 0 0-.346 3v60.061a13.877 13.877 0 0 0 .346 2.881 9.257 9.257 0 0 0 1.212 3 7.905 7.905 0 0 0 2.309 2.363 7.649 7.649 0 0 0 7.389.056 6.787 6.787 0 0 0 2.252-2.309 9.107 9.107 0 0 0 1.1-3 17.28 17.28 0 0 0 .289-3z" class="cls-1" data-name="Path 540" transform="translate(-68.857 -41.793)"/>
        <path id="Path_541" d="M293.339 103.189l-1.039 11.429h-2.655q-.578-2.192-1.1-3.81a5.944 5.944 0 0 0-1.674-2.655 7.477 7.477 0 0 0-3.233-1.559 24.983 24.983 0 0 0-5.772-.52v65a54.851 54.851 0 0 0 .346 6.754 21.168 21.168 0 0 0 .924 4.33 7.775 7.775 0 0 0 1.269 3h-17.313a13.1 13.1 0 0 0 1.27-3 35.837 35.837 0 0 0 .866-4.33 47.122 47.122 0 0 0 .4-6.754v-65a24.975 24.975 0 0 0-5.772.52 7.454 7.454 0 0 0-3.232 1.559 5.924 5.924 0 0 0-1.674 2.655q-.519 1.618-1.1 3.81h-2.65l-1.038-11.429z" class="cls-1" data-name="Path 541" transform="translate(-103.084 -42.521)"/>
        <path id="Path_542" d="M373.223 185.157H334.2a11.3 11.3 0 0 0 1.269-3 35.631 35.631 0 0 0 .866-4.33 47.043 47.043 0 0 0 .4-6.754v-53.8a47.072 47.072 0 0 0-.4-6.754 35.773 35.773 0 0 0-.866-4.33 11.319 11.319 0 0 0-1.269-3h37.866l-1.038 11.429h-2.656q-.579-2.308-1.155-3.925a6.417 6.417 0 0 0-1.731-2.655 7.146 7.146 0 0 0-3.348-1.5 31.429 31.429 0 0 0-6.119-.462h-7.042v25.052a43.42 43.42 0 0 0 6.349 0q2.886-.231 4.965-.462a42.443 42.443 0 0 0 4.271-.808 9.289 9.289 0 0 1 .116 1.5 11.96 11.96 0 0 1-.577 3.232 3.38 3.38 0 0 1-2.54 2.251 7.149 7.149 0 0 1-3.925-.058l-8.658-2.424v42.961a4.707 4.707 0 0 0 .289 1.439 4.572 4.572 0 0 0 1.039 1.67 5.493 5.493 0 0 0 2.135 1.324 10.36 10.36 0 0 0 3.579.518h4.04a8.16 8.16 0 0 0 4.272-.981 7.458 7.458 0 0 0 2.6-2.656 14.312 14.312 0 0 0 1.5-3.694q.519-2.019 1.1-4.1h2.655z" class="cls-1" data-name="Path 542" transform="translate(-137.715 -42.522)"/>
        <path id="Path_543" d="M438.616 163.337a4.621 4.621 0 0 1 2.944-1.1 8.77 8.77 0 0 1 4.04.635 8.576 8.576 0 0 1 3.579 2.829 8.767 8.767 0 0 1 1.558 5.484 16.445 16.445 0 0 1-.693 4.5 12.914 12.914 0 0 1-2.482 4.618 13.357 13.357 0 0 1-5.022 3.636 20.531 20.531 0 0 1-8.313 1.443 26.863 26.863 0 0 1-9.061-1.382 19.582 19.582 0 0 1-6.523-3.752 15.184 15.184 0 0 1-3.983-5.542 17.313 17.313 0 0 1-1.328-6.754v-49.3a17.327 17.327 0 0 1 1.328-6.753 15.208 15.208 0 0 1 3.983-5.542 19.622 19.622 0 0 1 6.523-3.752 26.863 26.863 0 0 1 9.062-1.385 23.7 23.7 0 0 1 9.524 1.616 15.662 15.662 0 0 1 5.657 3.983 13.268 13.268 0 0 1 2.771 5.08 18.955 18.955 0 0 1 .751 5.022 15.148 15.148 0 0 1-1.155 6.176 12.977 12.977 0 0 1-2.944 4.272 12.026 12.026 0 0 1-3.867 2.482 10.587 10.587 0 0 1-3.81.808 14.786 14.786 0 0 1-4.1-.577 11.828 11.828 0 0 1-3.522-1.616 8.3 8.3 0 0 1-2.366-2.424 5.371 5.371 0 0 1-.866-2.886 10.263 10.263 0 0 0 7.62-.4 9.281 9.281 0 0 0 5.195-5.253 9.1 9.1 0 0 0 .693-3.81 10.56 10.56 0 0 0-.981-4.445 9.4 9.4 0 0 0-3-3.637 8.806 8.806 0 0 0-5.368-1.5 9 9 0 0 0-4.272.924 8.165 8.165 0 0 0-4.214 5.311 11.968 11.968 0 0 0-.4 2.886v60.148a11.949 11.949 0 0 0 .4 2.886 8.313 8.313 0 0 0 1.443 3 8.228 8.228 0 0 0 2.771 2.309 8.977 8.977 0 0 0 4.272.924 8.65 8.65 0 0 0 6.638-2.655 11.821 11.821 0 0 0 2.135-12.7 8.574 8.574 0 0 0-4.618-3.81" class="cls-1" data-name="Path 543" transform="translate(-170.322 -41.712)"/>
        <path id="Path_544" d="M534.661 103.189l-1.039 11.429h-2.655q-.579-2.192-1.1-3.81a5.945 5.945 0 0 0-1.674-2.655 7.477 7.477 0 0 0-3.233-1.559 24.984 24.984 0 0 0-5.772-.52v65a54.852 54.852 0 0 0 .346 6.754 21.168 21.168 0 0 0 .924 4.33 7.775 7.775 0 0 0 1.269 3h-17.313a13.094 13.094 0 0 0 1.27-3 35.836 35.836 0 0 0 .866-4.33 47.122 47.122 0 0 0 .4-6.754v-65a24.975 24.975 0 0 0-5.772.52 7.454 7.454 0 0 0-3.232 1.559 5.925 5.925 0 0 0-1.674 2.655q-.519 1.618-1.1 3.81h-2.656l-1.038-11.429z" class="cls-1" data-name="Path 544" transform="translate(-202.526 -42.521)"/>
        <path id="Path_545" d="M599.815 101.422a21.577 21.577 0 0 1 7.851 1.386 19.568 19.568 0 0 1 6.177 3.752 16.185 16.185 0 0 1 3.983 5.541 16.709 16.709 0 0 1 1.385 6.754v49.181a15.884 15.884 0 0 1-1.5 6.869 16.946 16.946 0 0 1-4.1 5.484 20.1 20.1 0 0 1-6.177 3.695 21.239 21.239 0 0 1-7.735 1.385 22.026 22.026 0 0 1-7.908-1.385 20.681 20.681 0 0 1-6.292-3.695 16.536 16.536 0 0 1-4.157-5.484 15.859 15.859 0 0 1-1.5-6.869v-49.181a15.127 15.127 0 0 1 1.558-6.755 17.547 17.547 0 0 1 4.271-5.541 20.853 20.853 0 0 1 6.35-3.752 21.7 21.7 0 0 1 7.792-1.386m7.158 17.086a6.78 6.78 0 0 1-3.926 1.385 10.985 10.985 0 0 1-3.983-.981 3.379 3.379 0 0 1-2.021-3.175 6.913 6.913 0 0 0 3.695.577 6.356 6.356 0 0 0 3.175-1.261 6.044 6.044 0 0 0 1.963-2.744 6.574 6.574 0 0 0 .173-3.774v-.227a9.125 9.125 0 0 0-2.194-2.8 6 6 0 0 0-4.041-1.2 6.879 6.879 0 0 0-3.752.921 7.969 7.969 0 0 0-2.366 2.305 8.608 8.608 0 0 0-1.27 3 14.349 14.349 0 0 0-.346 3v60.061a13.879 13.879 0 0 0 .346 2.881 9.258 9.258 0 0 0 1.212 3 7.9 7.9 0 0 0 2.309 2.363 7.648 7.648 0 0 0 7.388.056 6.787 6.787 0 0 0 2.252-2.309 9.108 9.108 0 0 0 1.1-3 17.284 17.284 0 0 0 .289-3z" class="cls-1" data-name="Path 545" transform="translate(-238.936 -41.793)"/>
        <path id="Path_546" d="M699.753 172.227a46.712 46.712 0 0 0 2.886 7.908 10.651 10.651 0 0 0 4.041 4.329 9.836 9.836 0 0 1-3.868 1.385 24.679 24.679 0 0 1-3.522.346 13.121 13.121 0 0 1-7.215-2.482 11.8 11.8 0 0 1-4.214-7.1l-7.043-34.4a10.17 10.17 0 0 1-5.888-2.194v31.056a54.729 54.729 0 0 0 .346 6.754 21.244 21.244 0 0 0 .924 4.329 7.766 7.766 0 0 0 1.27 3h-17.315a11.3 11.3 0 0 0 1.269-3 35.6 35.6 0 0 0 .866-4.329 47.045 47.045 0 0 0 .4-6.754v-53.8a47.067 47.067 0 0 0-.4-6.754 35.758 35.758 0 0 0-.866-4.33 11.329 11.329 0 0 0-1.269-3h20.434a31.359 31.359 0 0 1 8.37 1.039 17.149 17.149 0 0 1 6.465 3.29 14.934 14.934 0 0 1 4.214 5.83 22.723 22.723 0 0 1 1.5 8.774q0 8.2-4.04 13.392a17.636 17.636 0 0 1-11.429 6.465 18.355 18.355 0 0 1 2.77 1.616 16.916 16.916 0 0 1 2.944 2.656 20.082 20.082 0 0 1 2.656 3.867 21.01 21.01 0 0 1 1.9 5.253zM676.2 136.784a3.932 3.932 0 0 0 1.79 1.789 6.264 6.264 0 0 0 3.29.866 5.4 5.4 0 0 0 3.81-1.385 9.44 9.44 0 0 0 2.367-3.695 21.177 21.177 0 0 0 1.154-5.484q.287-3.174.289-6.638a25.085 25.085 0 0 0-.981-7.562 14.41 14.41 0 0 0-2.6-4.964 9.9 9.9 0 0 0-3.637-2.771 10.059 10.059 0 0 0-3.983-.865h-2.771v20.549a5.6 5.6 0 0 1 2.078-1.27 5.848 5.848 0 0 1 2.539-.346 5.3 5.3 0 0 1 2.309.751 4.134 4.134 0 0 1 1.616 2.02 6.08 6.08 0 0 0-3.521.346 6.544 6.544 0 0 0-2.713 2.02 7.171 7.171 0 0 0-1.386 3.06 6.447 6.447 0 0 0 .346 3.579" class="cls-1" data-name="Path 546" transform="translate(-272.031 -42.521)"/>
        <path id="Path_547" d="M142.453 13.878q-.175.474-.362 1.059a4.784 4.784 0 0 0-.2 1.375q-1.353 17.365-2.432 34.723a6.009 6.009 0 0 0 .425 1.009q.228.418.377.678a5 5 0 0 0 .347.457q-4.163.581-8.323 1.2.078-.235.2-.537a10.662 10.662 0 0 0 .253-1.727q-.491-1.39-1.205-3.508t-1.558-4.665q-.843-2.547-1.8-5.274t-1.894-5.4q-.546 9.941-1 19.877a6.1 6.1 0 0 0 .442 1q.236.414.389.671a4.841 4.841 0 0 0 .356.452q-4.156.65-8.307 1.34.074-.237.195-.54a10.643 10.643 0 0 0 .226-1.73q-.645-1.811-1.758-4.9t-2.376-6.631q-1.26-3.542-2.6-7.128t-2.4-6.51q-1.057-2.924-2.469-6.637a16.843 16.843 0 0 0-.774-1.562 10.671 10.671 0 0 0-.768-1.166 11.624 11.624 0 0 0-.836-1.041q4.336-.758 8.678-1.472a4.461 4.461 0 0 0-.37 1.359 8.464 8.464 0 0 0 .653 3.955q1.978 5.543 3.889 10.816.774 2.244 1.626 4.643t1.654 4.7q.8 2.3 1.545 4.432t1.348 3.789q.495-11.072 1.1-22.151-1.278-3.745-2.161-6.2t-.891-2.51a16.81 16.81 0 0 0-.748-1.574 10.176 10.176 0 0 0-.748-1.179 7.867 7.867 0 0 0-.809-1q4.344-.685 8.694-1.327a5.724 5.724 0 0 0-.392 1.353 7.6 7.6 0 0 0 .006 1.632 8.73 8.73 0 0 0 .574 2.279q1.887 5.574 3.707 10.879.735 2.256 1.55 4.669t1.576 4.723q.763 2.309 1.471 4.458t1.285 3.81q1.021-16.455 2.289-32.917a4.659 4.659 0 0 0-.089-.887 12.31 12.31 0 0 1-.141-.824 6.219 6.219 0 0 1-.169-.82q1.568-.211 3.137-.416a3.514 3.514 0 0 0-.414.9" class="cls-1" data-name="Path 547" transform="translate(-43.103 -5.349)"/>
        <path id="Path_548" d="M198.628 40.641a26.426 26.426 0 0 0 .5 3.222 10.158 10.158 0 0 0 .661 2.031 3.743 3.743 0 0 0 .761 1.377q-4.177.428-8.352.895a5.464 5.464 0 0 0 .452-1.507 17.328 17.328 0 0 0 .189-2.121 22.616 22.616 0 0 0-.162-3.259c0-.018 0-.036-.006-.055l-1.94-17.543q-4.178.462-8.353.964l2.112 17.579a26.627 26.627 0 0 0 .556 3.214 10.191 10.191 0 0 0 .694 2.02 3.766 3.766 0 0 0 .784 1.365q-4.171.495-8.34 1.031a5.446 5.446 0 0 0 .428-1.515 16.961 16.961 0 0 0 .154-2.124 22.562 22.562 0 0 0-.215-3.257l-3.271-25.739a21.468 21.468 0 0 0-.613-3.206 16.324 16.324 0 0 0-.7-2.015 5.376 5.376 0 0 0-.823-1.354q4.359-.561 8.721-1.078a4.244 4.244 0 0 0-.462 1.569 9.8 9.8 0 0 0-.216 2.129 24.613 24.613 0 0 0 .209 3.2l.77 6.413q4.183-.5 8.37-.965l-.71-6.42a21.716 21.716 0 0 0-.561-3.215 16.69 16.69 0 0 0-.666-2.027 5.276 5.276 0 0 0-.8-1.368q4.365-.489 8.733-.935a5.95 5.95 0 0 0-.49 1.534 17.678 17.678 0 0 0-.221 2.122 21.358 21.358 0 0 0 .13 3.233l2.669 25.753c0 .018 0 .036.006.055" class="cls-1" data-name="Path 548" transform="translate(-71.348 -3.273)"/>
        <path id="Path_549" d="M228.583 38.743a26.163 26.163 0 0 0 .461 3.229 10.231 10.231 0 0 0 .634 2.039 3.755 3.755 0 0 0 .743 1.388q-4.182.372-8.361.784a5.43 5.43 0 0 0 .472-1.5 17.4 17.4 0 0 0 .216-2.119 22.586 22.586 0 0 0-.119-3.261c0-.019 0-.037-.006-.056l-2.507-25.769a21.7 21.7 0 0 0-.519-3.222 16.7 16.7 0 0 0-.639-2.035 5.36 5.36 0 0 0-.783-1.378q4.37-.431 8.742-.82a3.679 3.679 0 0 0-.512 1.5 9.793 9.793 0 0 0-.278 2.121 25.125 25.125 0 0 0 .119 3.26l2.331 25.785.005.055" class="cls-1" data-name="Path 549" transform="translate(-89.904 -2.481)"/>
        <path id="Path_550" d="M255.067 32.765a2.285 2.285 0 0 1 1.4-.628 4.335 4.335 0 0 1 2 .172 4.012 4.012 0 0 1 2.769 3.837 7.885 7.885 0 0 1-.2 2.189 6.26 6.26 0 0 1-1.061 2.3 6.552 6.552 0 0 1-2.315 1.912 10.117 10.117 0 0 1-3.969.978 13.272 13.272 0 0 1-4.43-.337 9.6 9.6 0 0 1-3.3-1.552 7.377 7.377 0 0 1-2.152-2.5 8.269 8.269 0 0 1-.919-3.192l-2-23.69a8.015 8.015 0 0 1 .393-3.3 7.3 7.3 0 0 1 1.785-2.829 9.925 9.925 0 0 1 3.148-2.067 14.032 14.032 0 0 1 4.531-1.011 12.4 12.4 0 0 1 4.87.44 7.853 7.853 0 0 1 2.983 1.724 6.294 6.294 0 0 1 1.552 2.356 8.785 8.785 0 0 1 .528 2.393 7.058 7.058 0 0 1-.392 3.01 6.278 6.278 0 0 1-1.339 2.149 6.061 6.061 0 0 1-1.85 1.321 5.477 5.477 0 0 1-1.871.518 7.689 7.689 0 0 1-2.06-.135 6.052 6.052 0 0 1-1.81-.651 4.1 4.1 0 0 1-1.267-1.079 2.519 2.519 0 0 1-.536-1.356 5.36 5.36 0 0 0 3.795-.472 4.593 4.593 0 0 0 2.427-2.708A4.231 4.231 0 0 0 256 8.7a4.881 4.881 0 0 0-.64-2.1 4.548 4.548 0 0 0-1.634-1.646 4.59 4.59 0 0 0-2.761-.529 4.714 4.714 0 0 0-2.124.6 4.107 4.107 0 0 0-1.313 1.216 3.91 3.91 0 0 0-.616 1.5 5.543 5.543 0 0 0-.1 1.4l2.245 28.921a5.7 5.7 0 0 0 .3 1.373 3.961 3.961 0 0 0 2.238 2.4 4.4 4.4 0 0 0 2.1.292 4.232 4.232 0 0 0 3.124-1.5 5.227 5.227 0 0 0 1.233-2.986 5.132 5.132 0 0 0-.611-3.2 4.167 4.167 0 0 0-2.383-1.677" class="cls-1" data-name="Path 550" transform="translate(-99.251 -1.232)"/>
        <path id="Path_551" d="M301.247 33.591a26.142 26.142 0 0 0 .282 3.249 10.228 10.228 0 0 0 .52 2.071 3.742 3.742 0 0 0 .665 1.426q-4.193.141-8.383.322a5.5 5.5 0 0 0 .553-1.472 17.793 17.793 0 0 0 .332-2.1 22.59 22.59 0 0 0 .06-3.262v-.056l-.739-17.635q-4.194.176-8.388.392l.908 17.682a26.371 26.371 0 0 0 .335 3.245 10.18 10.18 0 0 0 .554 2.062 3.777 3.777 0 0 0 .688 1.415q-4.19.208-8.379.459a5.406 5.406 0 0 0 .529-1.482 17.245 17.245 0 0 0 .3-2.109 22.461 22.461 0 0 0 .007-3.262l-1.508-25.9a21.711 21.711 0 0 0-.392-3.241 16.5 16.5 0 0 0-.56-2.058 5.215 5.215 0 0 0-.727-1.408q4.38-.261 8.761-.48a4.251 4.251 0 0 0-.567 1.534 9.769 9.769 0 0 0-.36 2.109 24.747 24.747 0 0 0-.009 3.207l.331 6.45q4.2-.216 8.405-.392l-.27-6.453a22.006 22.006 0 0 0-.34-3.247 17.028 17.028 0 0 0-.526-2.067 5.306 5.306 0 0 0-.7-1.419Q297 .974 301.385.827a5.964 5.964 0 0 0-.592 1.5 17.672 17.672 0 0 0-.365 2.1 21.108 21.108 0 0 0-.091 3.235l.907 25.874v.056" class="cls-1" data-name="Path 551" transform="translate(-114.514 -.341)"/>
        <path id="Path_552" d="M344.9.055a16.319 16.319 0 0 1 4.242.463 8.757 8.757 0 0 1 3.278 1.571 7.127 7.127 0 0 1 2.131 2.836 10.552 10.552 0 0 1 .755 4.2 9.811 9.811 0 0 1-2.556 7.13 9.686 9.686 0 0 1-7.178 2.665 5.241 5.241 0 0 1-3.279-1.072l.218 14.977a26.359 26.359 0 0 0 .215 3.254 10.24 10.24 0 0 0 .478 2.081 3.767 3.767 0 0 0 .635 1.439q-4.193.056-8.387.151a5.5 5.5 0 0 0 .583-1.461 17.266 17.266 0 0 0 .376-2.1 22.8 22.8 0 0 0 .126-3.261l-.554-25.941a21.927 21.927 0 0 0-.273-3.252 16.411 16.411 0 0 0-.484-2.078 5.3 5.3 0 0 0-.674-1.433q5.169-.11 10.348-.169m.6 17.478a2.735 2.735 0 0 0 1.887-.687 4.306 4.306 0 0 0 1.135-1.791 10.832 10.832 0 0 0 .528-2.649q.131-1.533.123-3.2a11.675 11.675 0 0 0-.519-3.615 6.761 6.761 0 0 0-1.329-2.412 4.957 4.957 0 0 0-1.849-1.318 5.263 5.263 0 0 0-2.019-.394l-1.4.019.144 9.91a2.807 2.807 0 0 1 1.031-.627 3.021 3.021 0 0 1 1.269-.183 2.719 2.719 0 0 1 1.188.377 1.834 1.834 0 0 1 .79.938 3.135 3.135 0 0 0-1.758.186 3.268 3.268 0 0 0-1.343.991 3.407 3.407 0 0 0-.671 1.485 3.018 3.018 0 0 0 .2 1.724 1.932 1.932 0 0 0 .9.851 3.314 3.314 0 0 0 1.7.4" class="cls-1" data-name="Path 552" transform="translate(-137.857 -.022)"/>
        <path id="Path_553" d="M381.639 39.605a6.163 6.163 0 0 0 .523-1.272 10.709 10.709 0 0 0 .279-1.639 8.542 8.542 0 0 0-.159-2.369q-1.215-6.813-2.472-13.622-2.97-.038-5.943-.056-1.932 7.95-3.8 15.909a5.3 5.3 0 0 0-.115 1.058v.947a7.759 7.759 0 0 0 .055.946h-3.02a5.206 5.206 0 0 0 .5-.892 7.842 7.842 0 0 0 .419-1.03c.129-.39.27-.826.42-1.309q3.9-16.76 8.093-33.485a17.682 17.682 0 0 0-.741-2.122L375.337 0q3.361.026 6.724.075 1.68 8.879 3.289 17.764t3.15 17.776a9.5 9.5 0 0 0 .409 1.708 12.73 12.73 0 0 0 .53 1.322 7.7 7.7 0 0 0 .588 1.128q-4.193-.1-8.387-.168m-2.15-20.688q-1.128-6-2.289-12-1.479 5.971-2.92 11.948 2.605.017 5.21.049" class="cls-1" data-name="Path 553" transform="translate(-151.225)"/>
        <path id="Path_554" d="M433.125 1.439a6.027 6.027 0 0 0-.576.974 4.465 4.465 0 0 0-.434 1.038 5.677 5.677 0 0 0-.213 1.327l-1.826 36.09q-.892-.046-1.787-.089-6.92-16.669-14.425-33.223l-.895 29.218a6.016 6.016 0 0 0 .1 1.34 7.948 7.948 0 0 0 .275 1.067 6.428 6.428 0 0 0 .471 1.018q-1.872-.059-3.745-.111a6.538 6.538 0 0 0 .531-.988 10.986 10.986 0 0 0 .367-1.076 5.588 5.588 0 0 0 .209-1.415l.854-29.887a21.259 21.259 0 0 0-.178-2.93 15.291 15.291 0 0 0-.385-1.877 3.7 3.7 0 0 0-.549-1.3q3.215.087 6.429.2 5.988 13.075 11.609 26.226l1.079-22.246a5.353 5.353 0 0 0-.106-1.426 10.664 10.664 0 0 0-.3-1.1q-.206-.567-.419-1.024 1.957.093 3.914.194" class="cls-1" data-name="Path 554" transform="translate(-168.977 -.255)"/>
        <path id="Path_555" d="M472.086 43.241a7.5 7.5 0 0 1-2.543-.5 5.43 5.43 0 0 1-1.228-.845 10.952 10.952 0 0 1-2.652.952 10.622 10.622 0 0 1-3.043.208 11.01 11.01 0 0 1-3.835-.92 9.536 9.536 0 0 1-2.909-1.991 8.556 8.556 0 0 1-1.834-2.784 7.465 7.465 0 0 1-.546-3.294l1.336-23.681a8.235 8.235 0 0 1 .853-3.242 7.16 7.16 0 0 1 2.134-2.552 9.83 9.83 0 0 1 3.4-1.577 14.308 14.308 0 0 1 4.657-.364 12.267 12.267 0 0 1 4.758 1.146 8.269 8.269 0 0 1 2.821 2.222 6.629 6.629 0 0 1 1.283 2.669 8.724 8.724 0 0 1 .211 2.5 7.08 7.08 0 0 1-.811 2.924 6.538 6.538 0 0 1-1.6 1.943 5.759 5.759 0 0 1-1.988 1.05 5.6 5.6 0 0 1-1.983.245 6.534 6.534 0 0 1-4.083-1.513 3.461 3.461 0 0 1-1.349-2.769 4.863 4.863 0 0 0 1.914.407 6.008 6.008 0 0 0 1.934-.283 5.211 5.211 0 0 0 1.658-.881 4.181 4.181 0 0 0 1.148-1.388 5.4 5.4 0 0 0 .453-1.826 4.993 4.993 0 0 0-.276-2.211 4.446 4.446 0 0 0-1.354-1.9 4.591 4.591 0 0 0-2.717-.938 4.7 4.7 0 0 0-2.215.3 4.158 4.158 0 0 0-1.441 1.019 3.875 3.875 0 0 0-.82 1.394 5.58 5.58 0 0 0-.291 1.372l-1.827 28.866a6.585 6.585 0 0 0 .08 1.4 4.379 4.379 0 0 0 .5 1.477 3.879 3.879 0 0 0 1.045 1.208 3.213 3.213 0 0 0 1.786.591 3.254 3.254 0 0 0 1.791-.322 3.291 3.291 0 0 0 1.169-1.032 4.366 4.366 0 0 0 .634-1.4 8.393 8.393 0 0 0 .244-1.43l.639-8.917c.054-1.294.057-2.38 0-3.256a14.45 14.45 0 0 0-.252-2.106 3.709 3.709 0 0 0-.527-1.484q3.66.258 7.317.544l-1.649 20.982" class="cls-1" data-name="Path 555" transform="translate(-186.867 -1.072)"/>
        <path id="Path_556" d="M506.587 5.982a11.311 11.311 0 0 1 3.9 1.05 9.873 9.873 0 0 1 2.931 2.115 7.721 7.721 0 0 1 2.077 6.179l-2.5 23.587a7.607 7.607 0 0 1-1.077 3.217 8.273 8.273 0 0 1-2.258 2.425 9.9 9.9 0 0 1-3.164 1.471 10.483 10.483 0 0 1-3.8.3 10.85 10.85 0 0 1-3.756-1.019 10.2 10.2 0 0 1-2.885-2.045 8.068 8.068 0 0 1-1.789-2.808 7.6 7.6 0 0 1-.452-3.362l1.98-23.637a7.038 7.038 0 0 1 1.055-3.18 8.411 8.411 0 0 1 2.379-2.475 10.592 10.592 0 0 1 3.362-1.519 11.37 11.37 0 0 1 4-.3m2.8 8.551a3.516 3.516 0 0 1-2.028.473 5.761 5.761 0 0 1-1.947-.662 1.633 1.633 0 0 1-.868-1.62 3.628 3.628 0 0 0 1.826.452 3.284 3.284 0 0 0 1.65-.452 2.925 2.925 0 0 0 1.112-1.22 3.028 3.028 0 0 0 .266-1.8c0-.036.007-.072.011-.109a4.452 4.452 0 0 0-.973-1.452 3.141 3.141 0 0 0-1.981-.773 3.606 3.606 0 0 0-1.933.265 3.925 3.925 0 0 0-1.3 1 4.051 4.051 0 0 0-.77 1.382 6.657 6.657 0 0 0-.3 1.423l-2.615 28.849a6.644 6.644 0 0 0 .042 1.4 4.483 4.483 0 0 0 .457 1.494 3.82 3.82 0 0 0 1.012 1.238 3.209 3.209 0 0 0 1.77.641 3.137 3.137 0 0 0 3-1.277 4.416 4.416 0 0 0 .673-1.388 8.083 8.083 0 0 0 .283-1.427z" class="cls-1" data-name="Path 556" transform="translate(-203.474 -2.441)"/>
        <path id="Path_557" d="M550.275 50.848q-9.389-1.245-18.8-2.284a5.48 5.48 0 0 0 .772-1.371 17.49 17.49 0 0 0 .65-2.029 22.608 22.608 0 0 0 .558-3.215l2.884-25.785a21.9 21.9 0 0 0 .159-3.26 16.211 16.211 0 0 0-.2-2.124 5.415 5.415 0 0 0-.48-1.51q4.365.482 8.727 1.007a3.647 3.647 0 0 0-.812 1.361 9.928 9.928 0 0 0-.711 2.018 25.614 25.614 0 0 0-.557 3.214l-3.416 28.75a2.328 2.328 0 0 0 .464 1.57 2.69 2.69 0 0 0 .955.759 5.113 5.113 0 0 0 1.7.46q.975.119 1.949.241a4.012 4.012 0 0 0 2.12-.209 3.729 3.729 0 0 0 1.413-1.082 7.159 7.159 0 0 0 .979-1.642q.4-.93.815-1.887l1.288.169q-.223 3.424-.452 6.848" class="cls-1" data-name="Path 557" transform="translate(-219.007 -3.82)"/>
        <path id="Path_558" d="M576.247 47.44a26.3 26.3 0 0 0-.3 3.248 10.275 10.275 0 0 0 .146 2.131 3.759 3.759 0 0 0 .4 1.522q-4.162-.607-8.327-1.172a5.445 5.445 0 0 0 .807-1.352 17.439 17.439 0 0 0 .7-2.011 22.065 22.065 0 0 0 .638-3.2c0-.018.005-.036.008-.055l3.523-25.65a21.678 21.678 0 0 0 .241-3.255 16.272 16.272 0 0 0-.152-2.128 5.272 5.272 0 0 0-.437-1.518q4.356.592 8.706 1.226a3.647 3.647 0 0 0-.845 1.34 9.83 9.83 0 0 0-.763 2 25.038 25.038 0 0 0-.638 3.2l-3.7 25.625c0 .018-.005.036-.008.055" class="cls-1" data-name="Path 558" transform="translate(-234.127 -5.767)"/>
        <path id="Path_559" d="M615.328 20.453a6.052 6.052 0 0 0-.693.9 4.5 4.5 0 0 0-.556.977 5.7 5.7 0 0 0-.372 1.292l-6.171 35.605-1.77-.305q-4.88-17.387-10.354-34.73l-4.417 28.9a5.958 5.958 0 0 0-.062 1.342 8.224 8.224 0 0 0 .145 1.092 6.226 6.226 0 0 0 .348 1.067q-1.858-.286-3.716-.564a6.274 6.274 0 0 0 .649-.916 11.26 11.26 0 0 0 .495-1.024 5.555 5.555 0 0 0 .378-1.379l4.457-29.565a20.945 20.945 0 0 0 .176-2.93 15.139 15.139 0 0 0-.156-1.91 3.706 3.706 0 0 0-.39-1.353q3.189.476 6.376.975 4.384 13.706 8.4 27.442l3.757-21.953a5.353 5.353 0 0 0 .066-1.429 10.552 10.552 0 0 0-.163-1.129q-.138-.587-.295-1.067 1.938.33 3.875.668" class="cls-1" data-name="Path 559" transform="translate(-242.178 -6.983)"/>
        <path id="Path_560" d="M241.8 302.429a6.126 6.126 0 0 0 .5-1.28 10.7 10.7 0 0 0 .25-1.643 8.659 8.659 0 0 0-.195-2.366l-2.617-13.585h-5.791l-3.675 15.924a5.328 5.328 0 0 0-.112 1.058v.946a7.64 7.64 0 0 0 .056.947h-3.007a5.1 5.1 0 0 0 .5-.891 8.022 8.022 0 0 0 .417-1.03q.195-.585.417-1.308l7.74-33.519a18.685 18.685 0 0 0-.724-2.116l-.334-.668h6.4l3.452 17.705 3.452 17.706a9.809 9.809 0 0 0 .446 1.7 12.871 12.871 0 0 0 .557 1.308 7.786 7.786 0 0 0 .612 1.114zm-2.394-20.657l-2.337-11.972-2.728 11.971z" class="cls-1" data-name="Path 560" transform="translate(-93.628 -108.332)"/>
        <path id="Path_561" d="M288.644 296.193a22.63 22.63 0 0 0 1.392 3.814 5.138 5.138 0 0 0 1.949 2.088 4.733 4.733 0 0 1-1.866.668 11.932 11.932 0 0 1-1.7.167 6.328 6.328 0 0 1-3.48-1.2 5.692 5.692 0 0 1-2.032-3.425l-3.4-16.592a4.9 4.9 0 0 1-2.839-1.058v14.978a26.478 26.478 0 0 0 .166 3.257 10.281 10.281 0 0 0 .446 2.088 3.767 3.767 0 0 0 .613 1.448h-8.352a5.468 5.468 0 0 0 .612-1.448 17.311 17.311 0 0 0 .418-2.088 22.772 22.772 0 0 0 .195-3.257V269.69a22.784 22.784 0 0 0-.195-3.257 17.4 17.4 0 0 0-.418-2.088 5.472 5.472 0 0 0-.612-1.447h9.859a15.131 15.131 0 0 1 4.037.5 8.278 8.278 0 0 1 3.118 1.587 7.2 7.2 0 0 1 2.032 2.811 10.962 10.962 0 0 1 .724 4.232 10.216 10.216 0 0 1-1.948 6.458 8.509 8.509 0 0 1-5.512 3.118 8.8 8.8 0 0 1 1.336.779 8.2 8.2 0 0 1 1.42 1.281 9.707 9.707 0 0 1 1.281 1.865 10.145 10.145 0 0 1 .918 2.533zM277.286 279.1a1.9 1.9 0 0 0 .863.863 3.025 3.025 0 0 0 1.587.417 2.6 2.6 0 0 0 1.837-.668 4.537 4.537 0 0 0 1.141-1.782 10.2 10.2 0 0 0 .557-2.645q.138-1.531.139-3.2a12.1 12.1 0 0 0-.474-3.647 6.936 6.936 0 0 0-1.253-2.394 4.768 4.768 0 0 0-1.753-1.336 4.846 4.846 0 0 0-1.921-.417h-1.336v9.909a2.691 2.691 0 0 1 1-.613 2.827 2.827 0 0 1 1.225-.167 2.562 2.562 0 0 1 1.114.362 1.993 1.993 0 0 1 .78.974 2.931 2.931 0 0 0-1.7.167 3.16 3.16 0 0 0-1.308.974 3.453 3.453 0 0 0-.668 1.476 3.1 3.1 0 0 0 .167 1.726" class="cls-1" data-name="Path 561" transform="translate(-111.072 -108.332)"/>
        <path id="Path_562" d="M328.425 302.429h-18.82a5.454 5.454 0 0 0 .612-1.447 17.212 17.212 0 0 0 .418-2.088 22.767 22.767 0 0 0 .195-3.257V269.69a22.784 22.784 0 0 0-.195-3.257 17.268 17.268 0 0 0-.418-2.088 5.477 5.477 0 0 0-.612-1.448h18.263l-.5 5.512h-1.281q-.28-1.113-.557-1.893a3.087 3.087 0 0 0-.835-1.281 3.446 3.446 0 0 0-1.614-.724 15.143 15.143 0 0 0-2.951-.223h-3.4v12.083a20.91 20.91 0 0 0 3.062 0q1.391-.111 2.395-.223a20.572 20.572 0 0 0 2.06-.39 4.422 4.422 0 0 1 .056.724 5.781 5.781 0 0 1-.278 1.559 1.631 1.631 0 0 1-1.225 1.086 3.453 3.453 0 0 1-1.893-.028l-4.176-1.169v20.718a2.256 2.256 0 0 0 .139.694 2.2 2.2 0 0 0 .5.806 2.65 2.65 0 0 0 1.03.638 5 5 0 0 0 1.726.249h1.948a3.936 3.936 0 0 0 2.06-.473 3.6 3.6 0 0 0 1.253-1.281 6.9 6.9 0 0 0 .724-1.781q.251-.974.529-1.977h1.28z" class="cls-1" data-name="Path 562" transform="translate(-127.579 -108.332)"/>
        <path id="Path_563" d="M371.6 295.692a25.773 25.773 0 0 0 .167 3.229 10.246 10.246 0 0 0 .446 2.06 3.759 3.759 0 0 0 .613 1.447h-8.352a5.433 5.433 0 0 0 .613-1.447 17.482 17.482 0 0 0 .418-2.06 22.176 22.176 0 0 0 .195-3.229v-11.136l-5.623-16.256a28.384 28.384 0 0 0-1.948-4.065q-.5-.779-.891-1.336h8.352a2.113 2.113 0 0 0-.529 1.336 3.79 3.79 0 0 0 .139 1.559l5.178 14.755 5.791-15.2a7.5 7.5 0 0 0 .166-.918 7.239 7.239 0 0 0 .056-.807 4.5 4.5 0 0 0-.056-.724h3.174a4.406 4.406 0 0 0-.613.78q-.279.391-.556.863a5.081 5.081 0 0 0-.446.974l-6.294 16.812v13.363z" class="cls-1" data-name="Path 563" transform="translate(-147.207 -108.332)"/>
        <path id="Path_564" d="M407.593 262.045a10.41 10.41 0 0 1 3.786.668 9.445 9.445 0 0 1 2.98 1.81 7.8 7.8 0 0 1 1.92 2.673 8.055 8.055 0 0 1 .668 3.257v23.719a7.658 7.658 0 0 1-.724 3.313 8.18 8.18 0 0 1-1.977 2.645 9.7 9.7 0 0 1-2.979 1.782 10.252 10.252 0 0 1-3.73.668 10.633 10.633 0 0 1-3.814-.668 9.984 9.984 0 0 1-3.034-1.782 7.968 7.968 0 0 1-2-2.645 7.641 7.641 0 0 1-.724-3.313v-23.72a7.3 7.3 0 0 1 .751-3.257 8.489 8.489 0 0 1 2.06-2.673 10.081 10.081 0 0 1 3.063-1.81 10.478 10.478 0 0 1 3.759-.668m3.452 8.24a3.27 3.27 0 0 1-1.893.668 5.306 5.306 0 0 1-1.92-.473 1.632 1.632 0 0 1-.975-1.532 3.343 3.343 0 0 0 1.783.279 3.062 3.062 0 0 0 1.531-.609 2.912 2.912 0 0 0 .947-1.323 3.174 3.174 0 0 0 .083-1.82v-.11a4.4 4.4 0 0 0-1.058-1.35 2.893 2.893 0 0 0-1.948-.579 3.317 3.317 0 0 0-1.81.444 3.846 3.846 0 0 0-1.142 1.112 4.163 4.163 0 0 0-.613 1.446 6.935 6.935 0 0 0-.166 1.445v28.967a6.7 6.7 0 0 0 .166 1.389 4.48 4.48 0 0 0 .585 1.446 3.81 3.81 0 0 0 1.114 1.139 3.16 3.16 0 0 0 1.81.473 3.2 3.2 0 0 0 1.754-.446 3.272 3.272 0 0 0 1.085-1.114 4.4 4.4 0 0 0 .529-1.447 8.319 8.319 0 0 0 .139-1.448z" class="cls-1" data-name="Path 564" transform="translate(-163.988 -107.981)"/>
        <path id="Path_565" d="M457.8 263.955a4.628 4.628 0 0 0-.362 1.086 6.134 6.134 0 0 0-.139 1.308q0 2.452-.028 4.427t-.028 4.509v19.182a9.832 9.832 0 0 1-.559 3.341 8.57 8.57 0 0 1-1.564 2.729 7.129 7.129 0 0 1-2.456 1.837 7.658 7.658 0 0 1-3.239.668h-.559q-5.139 0-8.042-2.2a7.691 7.691 0 0 1-2.9-6.542v-24.61a22.186 22.186 0 0 0-.195-3.229 17.406 17.406 0 0 0-.418-2.06 6.629 6.629 0 0 0-.612-1.5h8.373a4.329 4.329 0 0 0-.623 1.5 10.126 10.126 0 0 0-.453 2.06 25.266 25.266 0 0 0-.17 3.229v24.387a15.735 15.735 0 0 0 .25 2.9 6.629 6.629 0 0 0 .835 2.282 4.3 4.3 0 0 0 1.559 1.5 4.691 4.691 0 0 0 2.366.557h.557a5.625 5.625 0 0 0 4.427-2 6.6 6.6 0 0 0 1.225-2.172 8.231 8.231 0 0 0 .417-2.672V266.4a5.879 5.879 0 0 0-.159-1.42q-.16-.639-.318-1.086a6.5 6.5 0 0 0-.478-1h3.793a9.022 9.022 0 0 0-.5 1.058" class="cls-1" data-name="Path 565" transform="translate(-179.949 -108.332)"/>
        <path id="Path_566" d="M499.081 271.811a10.515 10.515 0 0 1-1.5 5.512 11.809 11.809 0 0 1-1.5 2.032q-.723.751-4.12 3.647-4.065 3.508-4.064 6.069a12.348 12.348 0 0 0 .668 3.063 1.727 1.727 0 0 1 .056.5q0 .5-.446.5-.614 0-1.2-1.614a9.582 9.582 0 0 1-.585-3.285 10.109 10.109 0 0 1 .891-4.2 26.654 26.654 0 0 1 3.285-5.039q3.562-4.566 3.563-7.907a6.839 6.839 0 0 0-1.615-4.816 6.182 6.182 0 0 0-8.685.056 6.313 6.313 0 0 0-1.727 4.538c0 .409.056.612.168.612q.055-.11.334-.556a2.115 2.115 0 0 1 2.06-1.058 2.24 2.24 0 0 1 2.506 2.561q0 2.673-2.9 2.673a3.442 3.442 0 0 1-2.728-1.141 4.431 4.431 0 0 1-1-3.034 7.068 7.068 0 0 1 2.478-5.568 9.4 9.4 0 0 1 6.431-2.171 10.089 10.089 0 0 1 6.988 2.366 8 8 0 0 1 2.645 6.264m-7.906 28.118a2.935 2.935 0 0 1-.864 2.116 3.012 3.012 0 1 1-4.259-4.26 3 3 0 0 1 2.171-.863 2.8 2.8 0 0 1 2.088.891 2.939 2.939 0 0 1 .864 2.116" class="cls-1" data-name="Path 566" transform="translate(-198.016 -108.449)"/>
        <path id="Path_567" d="M655.172 291.4c0 2.913-117.631 5.274-120.543 5.274a5.274 5.274 0 1 1 0-10.547c2.913 0 120.543 2.361 120.543 5.274" class="cls-1" data-name="Path 567" transform="translate(-218.132 -117.903)"/>
        <path id="Path_568" d="M3.355 292.166c0-2.736 110.485-4.953 113.22-4.953a4.953 4.953 0 1 1 0 9.907c-2.736 0-113.22-2.218-113.22-4.953" class="cls-1" data-name="Path 568" transform="translate(-1.382 -118.352)"/>
    </g>
</svg>
