<svg xmlns="http://www.w3.org/2000/svg" id="advocate-title" width="258.189" height="99.986" viewBox="0 0 258.189 99.986">
    <defs>
        <style>
            .cls-1{fill:none}.cls-2{clip-path:url(#clip-path)}.cls-3{fill:#9e0b0f}.cls-4{fill:#f26c4f}
        </style>
        <clipPath id="clip-path">
            <path id="Rectangle_53" d="M0 0h258.189v99.986H0z" class="cls-1" data-name="Rectangle 53"/>
        </clipPath>
    </defs>
    <g id="Group_67" class="cls-2" data-name="Group 67">
        <path id="Path_222" d="M77.946.621a14.525 14.525 0 0 1 3.876.481 7.944 7.944 0 0 1 2.994 1.524 6.879 6.879 0 0 1 1.951 2.727 10.574 10.574 0 0 1 .7 4.036 9.55 9.55 0 0 1-2.379 6.843 8.794 8.794 0 0 1-6.71 2.513 4.7 4.7 0 0 1-1.684-.294 4.852 4.852 0 0 1-1.364-.776v14.382a25.366 25.366 0 0 0 .16 3.128 9.747 9.747 0 0 0 .428 2 3.591 3.591 0 0 0 .587 1.39h-8.022a5.265 5.265 0 0 0 .587-1.39 16.636 16.636 0 0 0 .4-2 21.906 21.906 0 0 0 .187-3.128V7.143a21.91 21.91 0 0 0-.187-3.127 16.717 16.717 0 0 0-.4-2.005 5.288 5.288 0 0 0-.587-1.39zm.373 16.787a2.5 2.5 0 0 0 1.764-.642 4.137 4.137 0 0 0 1.069-1.711 10.643 10.643 0 0 0 .508-2.539q.134-1.47.134-3.075a11.661 11.661 0 0 0-.455-3.475 6.634 6.634 0 0 0-1.2-2.325 4.594 4.594 0 0 0-1.684-1.283 4.663 4.663 0 0 0-1.845-.4h-1.285v9.516a2.594 2.594 0 0 1 .962-.588 2.716 2.716 0 0 1 1.176-.16 2.444 2.444 0 0 1 1.1.374 1.751 1.751 0 0 1 .721.909 2.817 2.817 0 0 0-1.63.16 3.032 3.032 0 0 0-1.254.931 3.319 3.319 0 0 0-.642 1.416 2.976 2.976 0 0 0 .161 1.657 1.815 1.815 0 0 0 .828.829 3 3 0 0 0 1.577.4" class="cls-3" data-name="Path 222" transform="translate(-15.421 -.14)"/>
        <path id="Path_223" d="M104.914 38.58a5.966 5.966 0 0 0 .481-1.23 10.232 10.232 0 0 0 .24-1.577 8.229 8.229 0 0 0-.187-2.273l-2.513-13.045h-5.56l-3.529 15.29a5.126 5.126 0 0 0-.107 1.016v.909a7.187 7.187 0 0 0 .053.909h-2.885a4.942 4.942 0 0 0 .481-.855 7.8 7.8 0 0 0 .4-.989q.187-.561.4-1.257l7.433-32.184a17.754 17.754 0 0 0-.7-2.032l-.315-.641h6.148l3.315 17 3.314 17a9.4 9.4 0 0 0 .428 1.631 12.413 12.413 0 0 0 .535 1.256 7.456 7.456 0 0 0 .588 1.069zm-2.3-19.835L100.37 7.25l-2.62 11.495z" class="cls-3" data-name="Path 223" transform="translate(-20.47 -.14)"/>
        <path id="Path_224" d="M142.2.621a6.125 6.125 0 0 0-.481.962 4.448 4.448 0 0 0-.346 1.016 5.753 5.753 0 0 0-.133 1.283v34.7h-1.71L124.774 7.25v28.068a5.738 5.738 0 0 0 .133 1.283 7.762 7.762 0 0 0 .294 1.016 5.9 5.9 0 0 0 .481.962H122.1a6.157 6.157 0 0 0 .481-.962q.159-.428.321-1.042a5.429 5.429 0 0 0 .16-1.364V6.5a21.416 21.416 0 0 0-.241-2.806 14.982 14.982 0 0 0-.4-1.791 3.628 3.628 0 0 0-.535-1.23h5.881l11.763 24.7V3.989a5.4 5.4 0 0 0-.16-1.363 11.202 11.202 0 0 0-.321-1.043q-.214-.533-.428-.962z" class="cls-3" data-name="Path 224" transform="translate(-27.446 -.14)"/>
        <path id="Path_225" d="M171.375 38.44a7.067 7.067 0 0 1-2.459-.294 5.155 5.155 0 0 1-1.23-.722 10.236 10.236 0 0 1-2.459 1.1 10 10 0 0 1-2.887.4 10.358 10.358 0 0 1-3.715-.642 8.978 8.978 0 0 1-2.888-1.738 8.146 8.146 0 0 1-1.9-2.566 7.222 7.222 0 0 1-.694-3.127V8.073a8.21 8.21 0 0 1 .614-3.154 6.9 6.9 0 0 1 1.817-2.566A9 9 0 0 1 158.6.642 12.678 12.678 0 0 1 162.821 0a10.866 10.866 0 0 1 4.41.776 7.629 7.629 0 0 1 2.728 1.924 6.52 6.52 0 0 1 1.364 2.459 8.77 8.77 0 0 1 .373 2.379 7.021 7.021 0 0 1-.534 2.861 6.23 6.23 0 0 1-1.337 1.977 5.26 5.26 0 0 1-1.764 1.15 5.03 5.03 0 0 1-1.819.374 5.884 5.884 0 0 1-3.876-1.176 3.341 3.341 0 0 1-1.417-2.566 4.338 4.338 0 0 0 1.791.267 5.337 5.337 0 0 0 1.765-.4 4.788 4.788 0 0 0 1.47-.958 3.982 3.982 0 0 0 .962-1.409 5.365 5.365 0 0 0 .294-1.78 5 5 0 0 0-.4-2.1 4.265 4.265 0 0 0-1.364-1.728 4.076 4.076 0 0 0-2.539-.717 4.136 4.136 0 0 0-2.005.427 3.882 3.882 0 0 0-1.256 1.066A3.835 3.835 0 0 0 159 4.215a5.547 5.547 0 0 0-.187 1.333V33.32a6.427 6.427 0 0 0 .16 1.333 4.273 4.273 0 0 0 .562 1.385 3.68 3.68 0 0 0 1.069 1.093 3.036 3.036 0 0 0 1.737.452 3.078 3.078 0 0 0 1.684-.426 3.128 3.128 0 0 0 1.042-1.067 4.194 4.194 0 0 0 .508-1.385 7.986 7.986 0 0 0 .134-1.387v-8.583q-.055-1.865-.215-3.119a14.226 14.226 0 0 0-.373-2 3.628 3.628 0 0 0-.589-1.386h6.843z" class="cls-3" data-name="Path 225" transform="translate(-34.484)"/>
        <path id="Path_226" d="M191.442 0a9.988 9.988 0 0 1 3.635.642 9.046 9.046 0 0 1 2.86 1.737 7.486 7.486 0 0 1 1.845 2.566 7.742 7.742 0 0 1 .642 3.128v22.775a7.347 7.347 0 0 1-.7 3.181 7.847 7.847 0 0 1-1.9 2.539 9.317 9.317 0 0 1-2.861 1.711 9.834 9.834 0 0 1-3.582.642 10.2 10.2 0 0 1-3.662-.642 9.586 9.586 0 0 1-2.914-1.711 7.646 7.646 0 0 1-1.924-2.539 7.337 7.337 0 0 1-.7-3.181V8.073a7.011 7.011 0 0 1 .722-3.128 8.14 8.14 0 0 1 1.978-2.566 9.673 9.673 0 0 1 2.94-1.737A10.058 10.058 0 0 1 191.442 0m3.314 7.913a3.138 3.138 0 0 1-1.818.642 5.1 5.1 0 0 1-1.845-.455 1.565 1.565 0 0 1-.935-1.47 3.2 3.2 0 0 0 1.711.267 2.947 2.947 0 0 0 1.471-.583 2.8 2.8 0 0 0 .909-1.271 3.039 3.039 0 0 0 .08-1.747v-.107a4.23 4.23 0 0 0-1.015-1.3 2.78 2.78 0 0 0-1.871-.556 3.188 3.188 0 0 0-1.739.427 3.694 3.694 0 0 0-1.1 1.068 3.963 3.963 0 0 0-.587 1.388 6.605 6.605 0 0 0-.16 1.388v27.817a6.388 6.388 0 0 0 .16 1.335 4.273 4.273 0 0 0 .561 1.388 3.667 3.667 0 0 0 1.069 1.095 3.033 3.033 0 0 0 1.737.453 3.067 3.067 0 0 0 1.684-.428 3.149 3.149 0 0 0 1.042-1.069 4.214 4.214 0 0 0 .508-1.39 8.014 8.014 0 0 0 .133-1.39z" class="cls-3" data-name="Path 226" transform="translate(-41.025)"/>
        <path id="Path_227" d="M228.484 38.58h-18.07a5.263 5.263 0 0 0 .586-1.39 16.688 16.688 0 0 0 .4-2 21.9 21.9 0 0 0 .187-3.128V7.143a21.9 21.9 0 0 0-.187-3.127 16.738 16.738 0 0 0-.4-2.005 5.275 5.275 0 0 0-.588-1.39h8.019a3.608 3.608 0 0 0-.587 1.39 9.784 9.784 0 0 0-.428 2.005 25.208 25.208 0 0 0-.16 3.127v27.8a2.163 2.163 0 0 0 .133.668 2.113 2.113 0 0 0 .481.776 2.54 2.54 0 0 0 .989.614 4.8 4.8 0 0 0 1.658.241h1.871a3.776 3.776 0 0 0 1.978-.455 3.523 3.523 0 0 0 1.2-1.2 6.938 6.938 0 0 0 .722-1.684q.266-.934.534-1.9h1.23z" class="cls-3" data-name="Path 227" transform="translate(-47.38 -.14)"/>
        <path id="Path_228" d="M244.028 32.057a25.369 25.369 0 0 0 .16 3.128 9.817 9.817 0 0 0 .428 2 3.591 3.591 0 0 0 .588 1.39h-8.019a5.238 5.238 0 0 0 .588-1.39 16.536 16.536 0 0 0 .4-2 21.765 21.765 0 0 0 .188-3.128V7.143a21.761 21.761 0 0 0-.188-3.127 16.584 16.584 0 0 0-.4-2.005 5.249 5.249 0 0 0-.588-1.39h8.015a3.6 3.6 0 0 0-.588 1.39 9.838 9.838 0 0 0-.428 2.005 25.365 25.365 0 0 0-.16 3.127v24.914z" class="cls-3" data-name="Path 228" transform="translate(-53.408 -.14)"/>
        <path id="Path_229" d="M271.506.621a6.126 6.126 0 0 0-.481.962 4.486 4.486 0 0 0-.347 1.016 5.754 5.754 0 0 0-.133 1.283v34.7h-1.711L254.078 7.25v28.068a5.738 5.738 0 0 0 .133 1.283 7.645 7.645 0 0 0 .294 1.016 5.776 5.776 0 0 0 .481.962H251.4a6.156 6.156 0 0 0 .481-.962q.159-.428.321-1.042a5.429 5.429 0 0 0 .16-1.364V6.5a21.414 21.414 0 0 0-.241-2.806 15.134 15.134 0 0 0-.4-1.791 3.628 3.628 0 0 0-.535-1.23h5.881l11.763 24.7V3.989a5.437 5.437 0 0 0-.16-1.363q-.162-.614-.321-1.043-.215-.533-.428-.962z" class="cls-3" data-name="Path 229" transform="translate(-56.562 -.14)"/>
        <path id="Path_230" d="M20.379 112.09a8.612 8.612 0 0 0 .7-1.789 14.929 14.929 0 0 0 .35-2.3 12.056 12.056 0 0 0-.273-3.306L17.5 85.719H9.412l-5.134 22.248a7.478 7.478 0 0 0-.155 1.478v1.323a10.52 10.52 0 0 0 .077 1.322H0a7.106 7.106 0 0 0 .7-1.245 11.159 11.159 0 0 0 .583-1.439q.272-.817.583-1.828L12.679 60.75a26.17 26.17 0 0 0-1.012-2.956l-.466-.933h8.945L24.969 81.6l4.823 24.736a13.568 13.568 0 0 0 .623 2.373 18.234 18.234 0 0 0 .777 1.829 10.935 10.935 0 0 0 .856 1.556zm-3.344-28.859l-3.267-16.724-3.812 16.724z" class="cls-3" data-name="Path 230" transform="translate(0 -12.804)"/>
        <path id="Path_231" d="M61.132 56.861a12.947 12.947 0 0 1 9.568 4.083 14.044 14.044 0 0 1 2.8 4.434 14.446 14.446 0 0 1 1.012 5.407v27.38a14.428 14.428 0 0 1-1.012 5.406 14 14 0 0 1-2.8 4.434 12.952 12.952 0 0 1-9.568 4.084H44.875a7.649 7.649 0 0 0 .855-2.023 24.011 24.011 0 0 0 .583-2.916 31.835 31.835 0 0 0 .272-4.551V66.35a31.846 31.846 0 0 0-.272-4.55 24.122 24.122 0 0 0-.583-2.917 7.642 7.642 0 0 0-.855-2.022zm5.133 13.924a21.307 21.307 0 0 0-.349-3.461 12.512 12.512 0 0 0-1.4-3.967 9.783 9.783 0 0 0-2.878-3.229 7.841 7.841 0 0 0-4.706-1.322h-2.1v42.7a7.275 7.275 0 0 1 1.556-.778 5.246 5.246 0 0 1 2.528 0 2.2 2.2 0 0 1 1.672 1.633 4.106 4.106 0 0 0-2.373.234 4.415 4.415 0 0 0-1.827 1.361 4.833 4.833 0 0 0-.934 2.062 3.971 3.971 0 0 0 .311 2.411 2.513 2.513 0 0 0 1.128 1.167 4.032 4.032 0 0 0 2.139.545h.622a3.924 3.924 0 0 0 2.956-1.323 10.95 10.95 0 0 0 2.061-3.228 18.909 18.909 0 0 0 1.206-3.967 19.218 19.218 0 0 0 .389-3.462z" class="cls-3" data-name="Path 231" transform="translate(-10.105 -12.804)"/>
        <path id="Path_232" d="M120.451 56.861a4.866 4.866 0 0 0-.7 1.167q-.313.623-.662 1.4a6.913 6.913 0 0 0-.505 1.867l-9.646 47.605a8.478 8.478 0 0 0 .389 1.478c.156.415.284.752.389 1.011a6.951 6.951 0 0 0 .388.7H98.437q.155-.31.389-.7a15.06 15.06 0 0 0 .7-2.334q-.466-2.643-1.283-7.156t-1.712-9.685q-.9-5.172-1.867-10.423t-1.712-9.53q-.74-4.276-1.75-9.722a24.073 24.073 0 0 0-.662-2.334 14.988 14.988 0 0 0-.738-1.789 11.169 11.169 0 0 0-.855-1.556h11.667a8.06 8.06 0 0 0-.777 1.789 11.171 11.171 0 0 0-.311 2.256 12.74 12.74 0 0 0 .311 3.267q1.4 8.09 2.8 15.79.544 3.267 1.167 6.768t1.206 6.845l1.127 6.457q.544 3.111 1.012 5.523l9.179-45.116a6.752 6.752 0 0 0 .039-1.244c-.027-.415-.039-.8-.039-1.167a9.274 9.274 0 0 1-.078-1.167z" class="cls-3" data-name="Path 232" transform="translate(-20.029 -12.804)"/>
        <path id="Path_233" d="M148.984 55.958a14.547 14.547 0 0 1 5.291.933 13.2 13.2 0 0 1 4.162 2.527 10.931 10.931 0 0 1 2.683 3.734 11.265 11.265 0 0 1 .934 4.551v33.137a10.7 10.7 0 0 1-1.011 4.629 11.425 11.425 0 0 1-2.762 3.7 13.542 13.542 0 0 1-4.162 2.489 14.313 14.313 0 0 1-5.211.934 14.839 14.839 0 0 1-5.328-.934 13.949 13.949 0 0 1-4.24-2.489 11.139 11.139 0 0 1-2.8-3.7 10.679 10.679 0 0 1-1.012-4.629V67.7a10.2 10.2 0 0 1 1.051-4.551 11.858 11.858 0 0 1 2.878-3.734 14.065 14.065 0 0 1 4.278-2.527 14.625 14.625 0 0 1 5.25-.933m4.823 11.512a4.57 4.57 0 0 1-2.644.934 7.431 7.431 0 0 1-2.684-.662 2.28 2.28 0 0 1-1.361-2.14 4.655 4.655 0 0 0 2.49.39 4.28 4.28 0 0 0 2.139-.849 4.076 4.076 0 0 0 1.322-1.85 4.421 4.421 0 0 0 .117-2.541V60.6a6.153 6.153 0 0 0-1.478-1.887 4.042 4.042 0 0 0-2.723-.81 4.636 4.636 0 0 0-2.527.622 5.36 5.36 0 0 0-1.595 1.553 5.793 5.793 0 0 0-.855 2.021 9.611 9.611 0 0 0-.233 2.018v40.468a9.3 9.3 0 0 0 .233 1.941 6.249 6.249 0 0 0 .816 2.02 5.337 5.337 0 0 0 1.556 1.592 4.417 4.417 0 0 0 2.528.66 4.466 4.466 0 0 0 2.451-.622 4.582 4.582 0 0 0 1.516-1.555 6.136 6.136 0 0 0 .739-2.023 11.659 11.659 0 0 0 .194-2.023z" class="cls-3" data-name="Path 233" transform="translate(-30.517 -12.6)"/>
        <path id="Path_234" d="M195.33 97.706a3.11 3.11 0 0 1 1.984-.739 5.906 5.906 0 0 1 2.722.428 5.778 5.778 0 0 1 2.412 1.905 5.907 5.907 0 0 1 1.052 3.7 11.08 11.08 0 0 1-.466 3.033 8.705 8.705 0 0 1-1.673 3.112 9 9 0 0 1-3.384 2.45 13.832 13.832 0 0 1-5.6.972 18.1 18.1 0 0 1-6.106-.934 13.206 13.206 0 0 1-4.4-2.527 10.238 10.238 0 0 1-2.683-3.734 11.655 11.655 0 0 1-.895-4.551V67.6a11.663 11.663 0 0 1 .895-4.551 10.251 10.251 0 0 1 2.683-3.734 13.234 13.234 0 0 1 4.4-2.528 18.1 18.1 0 0 1 6.106-.933 15.981 15.981 0 0 1 6.417 1.089 10.557 10.557 0 0 1 3.806 2.687 8.935 8.935 0 0 1 1.867 3.422 12.791 12.791 0 0 1 .506 3.384 10.205 10.205 0 0 1-.773 4.164 8.746 8.746 0 0 1-1.984 2.878 8.1 8.1 0 0 1-2.607 1.672 7.127 7.127 0 0 1-2.566.545 9.989 9.989 0 0 1-2.761-.389 7.949 7.949 0 0 1-2.372-1.089 5.6 5.6 0 0 1-1.6-1.633 3.615 3.615 0 0 1-.583-1.945 6.914 6.914 0 0 0 5.134-.272 6.254 6.254 0 0 0 3.5-3.539 6.128 6.128 0 0 0 .467-2.567 7.109 7.109 0 0 0-.662-2.995 6.32 6.32 0 0 0-2.022-2.45 5.934 5.934 0 0 0-3.614-1.016 6.059 6.059 0 0 0-2.878.622 5.548 5.548 0 0 0-1.867 1.556 5.617 5.617 0 0 0-.972 2.022 8.066 8.066 0 0 0-.272 1.946v40.526a8.04 8.04 0 0 0 .272 1.945 5.608 5.608 0 0 0 .972 2.022 5.548 5.548 0 0 0 1.867 1.561 6.049 6.049 0 0 0 2.878.622 5.827 5.827 0 0 0 4.47-1.793 7.962 7.962 0 0 0 1.44-8.556 5.78 5.78 0 0 0-3.112-2.567" class="cls-3" data-name="Path 234" transform="translate(-40.148 -12.578)"/>
        <path id="Path_235" d="M233.109 112.09a8.611 8.611 0 0 0 .7-1.789 14.93 14.93 0 0 0 .35-2.3 12.056 12.056 0 0 0-.273-3.306l-3.655-18.98h-8.091l-5.134 22.248a7.477 7.477 0 0 0-.155 1.478v1.323a10.52 10.52 0 0 0 .077 1.323h-4.2a7.105 7.105 0 0 0 .7-1.245 11.159 11.159 0 0 0 .583-1.439q.272-.817.583-1.828l10.815-46.825a26.169 26.169 0 0 0-1.012-2.956l-.466-.933h8.945L237.7 81.6l4.823 24.736a13.569 13.569 0 0 0 .623 2.373 18.233 18.233 0 0 0 .777 1.829 10.936 10.936 0 0 0 .856 1.556zm-3.344-28.859L226.5 66.507l-3.811 16.724z" class="cls-3" data-name="Path 235" transform="translate(-47.902 -12.804)"/>
        <path id="Path_236" d="M280.875 56.861l-.7 7.7h-1.79q-.389-1.477-.738-2.567a4.01 4.01 0 0 0-1.128-1.789 5.039 5.039 0 0 0-2.178-1.051 16.851 16.851 0 0 0-3.889-.349V102.6a36.714 36.714 0 0 0 .233 4.551 14.347 14.347 0 0 0 .621 2.916 5.259 5.259 0 0 0 .856 2.023H260.5a8.834 8.834 0 0 0 .856-2.023 24.306 24.306 0 0 0 .583-2.916 31.826 31.826 0 0 0 .272-4.551V58.806a16.845 16.845 0 0 0-3.89.349 5.031 5.031 0 0 0-2.178 1.051 4 4 0 0 0-1.128 1.789q-.35 1.09-.738 2.567h-1.79l-.7-7.7z" class="cls-3" data-name="Path 236" transform="translate(-56.695 -12.804)"/>
        <path id="Path_237" d="M321.042 112.09H294.75a7.616 7.616 0 0 0 .856-2.022 24.375 24.375 0 0 0 .583-2.917 31.845 31.845 0 0 0 .271-4.551V66.351a31.868 31.868 0 0 0-.271-4.551 24.471 24.471 0 0 0-.583-2.917 7.627 7.627 0 0 0-.856-2.022h25.514l-.7 7.7h-1.79q-.389-1.555-.778-2.644a4.314 4.314 0 0 0-1.167-1.79 4.814 4.814 0 0 0-2.255-1.011 21.232 21.232 0 0 0-4.123-.311h-4.744v16.88a29.137 29.137 0 0 0 4.278 0q1.943-.155 3.345-.311a28.8 28.8 0 0 0 2.878-.545 6.334 6.334 0 0 1 .078 1.011 8.071 8.071 0 0 1-.389 2.178 2.276 2.276 0 0 1-1.712 1.516 4.817 4.817 0 0 1-2.644-.038l-5.834-1.634v28.945a3.161 3.161 0 0 0 .194.97 3.086 3.086 0 0 0 .7 1.126 3.705 3.705 0 0 0 1.44.892 6.974 6.974 0 0 0 2.41.349h2.724a5.5 5.5 0 0 0 2.878-.661 5.029 5.029 0 0 0 1.75-1.789 9.65 9.65 0 0 0 1.012-2.49q.35-1.36.738-2.761h1.79z" class="cls-3" data-name="Path 237" transform="translate(-66.37 -12.804)"/>
        <path id="Path_238" d="M310.676 23.971c1.726-1.464 3.388-3.015 5.2-4.366a8 8 0 0 1 5.077-1.926 7.654 7.654 0 0 1 2.914.981 13.272 13.272 0 0 1 3.635 3.126c.274.3.691.712.642 1.006a5.013 5.013 0 0 1-.75 1.911 25.066 25.066 0 0 1-2.371 3.1 5.442 5.442 0 0 1-4.833 1.88 21.5 21.5 0 0 1-6.631-2.3 26.788 26.788 0 0 1-2.638-1.638 25.564 25.564 0 0 0 8.318-1.84 20.365 20.365 0 0 0-8.411.235l-.15-.179" class="cls-4" data-name="Path 238" transform="translate(-69.957 -3.979)"/>
        <path id="Path_239" d="M295.12 19.015a22.171 22.171 0 0 0 7.049 4.755c0 .063-.009.126-.015.188l-4.752.506a14.57 14.57 0 0 1-5.577-.506 4.728 4.728 0 0 1-2.714-2.1 12.933 12.933 0 0 1-1.834-6.264c-.053-.819.188-1.092.887-1.465a14.2 14.2 0 0 1 5.884-1.8 4.764 4.764 0 0 1 3.973 1.7 28.157 28.157 0 0 1 2.576 3.3 35.385 35.385 0 0 1 1.8 3.539c.21.425.387.866.667 1.5-2.624-1.415-5.008-2.836-7.948-3.362" class="cls-4" data-name="Path 239" transform="translate(-64.686 -2.775)"/>
        <path id="Path_240" d="M302.837 27.805a30.822 30.822 0 0 0-5.519 6.329c1.061.053 3.684-1.882 6.7-5.015a1.407 1.407 0 0 1 .026.351c-.486 2.139-.87 4.309-1.5 6.4a8.34 8.34 0 0 1-2.8 4.31 3.586 3.586 0 0 1-1.507.719 18.5 18.5 0 0 1-3.287.278 28.838 28.838 0 0 1-3.3-.344 1.244 1.244 0 0 1-1.158-1.2 15.188 15.188 0 0 1 .1-6A5.538 5.538 0 0 1 294 29.729a20.817 20.817 0 0 1 6.557-1.629c.762-.077 1.519-.2 2.279-.294" class="cls-4" data-name="Path 240" transform="translate(-65.354 -6.261)"/>
        <path id="Path_241" d="M310.108 28.736c1.146.64 2.308 1.254 3.436 1.927a26.327 26.327 0 0 1 2.327 1.573 7.975 7.975 0 0 1 3.472 4.794 5.339 5.339 0 0 1-.047 1.71 13.418 13.418 0 0 1-2.554 6 .807.807 0 0 1-.656.235 13.107 13.107 0 0 1-2.878-.569 22.272 22.272 0 0 1-3.943-2.01 4.2 4.2 0 0 1-1.5-2.293 11.994 11.994 0 0 1-.3-5.532c.239-1.677.619-3.334.96-5.123 1.242 2.589 2.3 5.176 4.32 7.187a20.726 20.726 0 0 0-2.785-7.754z" class="cls-4" data-name="Path 241" transform="translate(-69.193 -6.471)"/>
        <path id="Path_242" d="M308.9 20.519c.609-2.083 1.117-7.285.824-8.659a21.44 21.44 0 0 0-2.372 8.132l-.19.027c-.506-1.063-1.041-2.114-1.509-3.194a21.412 21.412 0 0 1-1.133-2.992 22.694 22.694 0 0 1-.488-3.13 4.333 4.333 0 0 1 .628-2.907 8.178 8.178 0 0 1 2.873-2.854c1.122-.635 2.3-1.168 3.474-1.706a.8.8 0 0 1 .721.06 29.333 29.333 0 0 1 2.018 2.18 10.855 10.855 0 0 1 1.921 3.267 5.612 5.612 0 0 1-.518 4.8 22.123 22.123 0 0 1-2.266 3.1 30.283 30.283 0 0 1-2.17 2.357c-.512.509-1.107.935-1.815 1.523" class="cls-4" data-name="Path 242" transform="translate(-68.452 -.716)"/>
        <path id="Path_243" d="M41.793 22.769c1.249-1.887 2.414-3.839 3.775-5.641a8 8 0 0 1 4.339-3.264 7.663 7.663 0 0 1 3.072.129 13.292 13.292 0 0 1 4.361 1.99c.346.209.863.491.9.788a5.019 5.019 0 0 1-.189 2.045 24.95 24.95 0 0 1-1.412 3.642 5.441 5.441 0 0 1-4.116 3.154 21.522 21.522 0 0 1-7.009-.357 26.764 26.764 0 0 1-2.99-.838A25.566 25.566 0 0 0 50 20.329a20.359 20.359 0 0 0-8.013 2.571l-.194-.13" class="cls-4" data-name="Path 243" transform="translate(-9.411 -3.097)"/>
        <path id="Path_244" d="M25.189 22.577a22.2 22.2 0 0 0 8.1 2.6l.039.184-4.423 1.811a14.568 14.568 0 0 1-5.5 1.068 4.727 4.727 0 0 1-3.19-1.255 12.939 12.939 0 0 1-3.507-5.506 1.282 1.282 0 0 1 .444-1.655 14.227 14.227 0 0 1 5.148-3.366 4.763 4.763 0 0 1 4.289.527 28.4 28.4 0 0 1 3.395 2.455 35.4 35.4 0 0 1 2.718 2.9c.32.35.614.724 1.058 1.254-2.914-.628-5.6-1.328-8.57-1.014" class="cls-4" data-name="Path 244" transform="translate(-3.731 -3.641)"/>
        <path id="Path_245" d="M35.391 28.478a30.78 30.78 0 0 0-3.536 7.617c1.034-.246 3.013-2.834 5.038-6.684a1.4 1.4 0 0 1 .123.329c.129 2.19.365 4.381.341 6.569a8.34 8.34 0 0 1-1.488 4.92 3.574 3.574 0 0 1-1.247 1.11 18.507 18.507 0 0 1-3.078 1.184 28.834 28.834 0 0 1-3.271.59 1.243 1.243 0 0 1-1.445-.831 15.168 15.168 0 0 1-1.578-5.789 5.534 5.534 0 0 1 2.191-4.7 20.81 20.81 0 0 1 5.843-3.393c.71-.286 1.4-.611 2.107-.918" class="cls-4" data-name="Path 245" transform="translate(-5.684 -6.413)"/>
        <path id="Path_246" d="M42.441 28.138c1.278.294 2.567.56 3.836.893a26.111 26.111 0 0 1 2.672.862 7.975 7.975 0 0 1 4.671 3.636 5.366 5.366 0 0 1 .432 1.656 13.431 13.431 0 0 1-.783 6.47.8.8 0 0 1-.564.408 13.144 13.144 0 0 1-2.922.256 22.245 22.245 0 0 1-4.348-.831 4.2 4.2 0 0 1-2.076-1.788 12 12 0 0 1-1.832-5.229c-.236-1.677-.334-3.374-.505-5.187 1.915 2.14 3.653 4.33 6.151 5.7a20.717 20.717 0 0 0-4.836-6.67l.1-.177" class="cls-4" data-name="Path 246" transform="translate(-9.237 -6.336)"/>
        <path id="Path_247" d="M39.123 20.208c0-2.17-.957-7.308-1.622-8.546a21.425 21.425 0 0 0-.012 8.47l-.176.079c-.783-.88-1.589-1.74-2.339-2.647a21.4 21.4 0 0 1-1.922-2.558 22.626 22.626 0 0 1-1.34-2.871 4.324 4.324 0 0 1-.208-2.966 8.171 8.171 0 0 1 1.966-3.54c.9-.922 1.884-1.764 2.861-2.607a.8.8 0 0 1 .709-.143 29.606 29.606 0 0 1 2.545 1.531 10.876 10.876 0 0 1 2.755 2.6 5.616 5.616 0 0 1 .839 4.75 22.177 22.177 0 0 1-1.314 3.606 30.21 30.21 0 0 1-1.422 2.871c-.35.632-.8 1.207-1.319 1.969" class="cls-4" data-name="Path 247" transform="translate(-7.056 -.64)"/>
    </g>
</svg>
