<svg xmlns="http://www.w3.org/2000/svg" id="defender-title" width="251.698" height="100.236" viewBox="0 0 251.698 100.236">
    <defs>
        <style>
            .cls-1{fill:none}.cls-2{clip-path:url(#clip-path)}.cls-3{fill:#4c2301}.cls-4{fill:#406618}
        </style>
        <clipPath id="clip-path">
            <path id="Rectangle_59" d="M0 0h251.698v100.236H0z" class="cls-1" data-name="Rectangle 59"/>
        </clipPath>
    </defs>
    <g id="Group_76" class="cls-2" data-name="Group 76">
        <path id="Path_267" d="M65.77 1.871a14.421 14.421 0 0 1 3.848.478 7.887 7.887 0 0 1 2.972 1.513 6.83 6.83 0 0 1 1.937 2.707 10.5 10.5 0 0 1 .69 4.007 9.482 9.482 0 0 1-2.362 6.795 8.731 8.731 0 0 1-6.662 2.495 4.669 4.669 0 0 1-1.672-.292 4.818 4.818 0 0 1-1.354-.77v14.279a25.188 25.188 0 0 0 .159 3.106 9.677 9.677 0 0 0 .425 1.99 3.566 3.566 0 0 0 .583 1.38h-7.96a5.228 5.228 0 0 0 .583-1.38 16.519 16.519 0 0 0 .4-1.99 21.749 21.749 0 0 0 .185-3.106V8.347a21.752 21.752 0 0 0-.185-3.1 16.6 16.6 0 0 0-.4-1.991 5.251 5.251 0 0 0-.583-1.38zm.371 16.668a2.482 2.482 0 0 0 1.752-.637 4.107 4.107 0 0 0 1.062-1.7 10.567 10.567 0 0 0 .5-2.521q.133-1.46.133-3.053a11.578 11.578 0 0 0-.452-3.45 6.587 6.587 0 0 0-1.193-2.309 4.562 4.562 0 0 0-1.67-1.269 4.63 4.63 0 0 0-1.832-.4h-1.273v9.449a2.576 2.576 0 0 1 .955-.584 2.7 2.7 0 0 1 1.168-.159 2.427 2.427 0 0 1 1.089.372 1.738 1.738 0 0 1 .716.9 2.8 2.8 0 0 0-1.619.159 3.01 3.01 0 0 0-1.247.929 3.3 3.3 0 0 0-.638 1.406 2.954 2.954 0 0 0 .16 1.646 1.8 1.8 0 0 0 .822.823 2.983 2.983 0 0 0 1.566.4" class="cls-3" data-name="Path 267" transform="translate(-13.005 -.432)"/>
        <path id="Path_268" d="M92.706 39.559a5.923 5.923 0 0 0 .478-1.221 10.156 10.156 0 0 0 .238-1.566 8.17 8.17 0 0 0-.185-2.256l-2.495-12.951h-5.521l-3.5 15.182a5.09 5.09 0 0 0-.106 1.009v.9a7.136 7.136 0 0 0 .053.9H78.8a4.907 4.907 0 0 0 .478-.849 7.746 7.746 0 0 0 .4-.982q.186-.557.4-1.248L87.45 4.525a17.632 17.632 0 0 0-.69-2.017l-.318-.637h6.1l3.291 16.88 3.29 16.88a9.332 9.332 0 0 0 .425 1.619 12.326 12.326 0 0 0 .531 1.247 7.4 7.4 0 0 0 .584 1.062zm-2.283-19.693L88.194 8.453l-2.6 11.413z" class="cls-3" data-name="Path 268" transform="translate(-18.178 -.432)"/>
        <path id="Path_269" d="M129.949 1.871a6.082 6.082 0 0 0-.478.955 4.418 4.418 0 0 0-.344 1.009A5.713 5.713 0 0 0 129 5.109v34.45h-1.7L112.645 8.453v27.868a5.7 5.7 0 0 0 .132 1.274 7.709 7.709 0 0 0 .292 1.009 5.856 5.856 0 0 0 .478.955h-3.557a6.113 6.113 0 0 0 .478-.955q.158-.425.318-1.035a5.39 5.39 0 0 0 .159-1.354V7.71a21.262 21.262 0 0 0-.239-2.786 14.874 14.874 0 0 0-.4-1.779 3.6 3.6 0 0 0-.532-1.221h5.839L127.3 26.448V5.215a5.363 5.363 0 0 0-.159-1.353 11.044 11.044 0 0 0-.318-1.035q-.212-.53-.425-.955z" class="cls-3" data-name="Path 269" transform="translate(-25.325 -.432)"/>
        <path id="Path_270" d="M159.136 39.416a7.017 7.017 0 0 1-2.442-.292 5.118 5.118 0 0 1-1.221-.717 10.163 10.163 0 0 1-2.442 1.089 9.933 9.933 0 0 1-2.866.4 10.284 10.284 0 0 1-3.689-.637 8.914 8.914 0 0 1-2.867-1.726 8.088 8.088 0 0 1-1.884-2.548 7.171 7.171 0 0 1-.689-3.1V9.265a8.151 8.151 0 0 1 .61-3.132 6.853 6.853 0 0 1 1.8-2.548 8.936 8.936 0 0 1 3-1.7 12.588 12.588 0 0 1 4.194-.637 10.789 10.789 0 0 1 4.379.77 7.575 7.575 0 0 1 2.708 1.911 6.474 6.474 0 0 1 1.354 2.441 8.708 8.708 0 0 1 .371 2.363 6.971 6.971 0 0 1-.53 2.84 6.186 6.186 0 0 1-1.328 1.963 5.223 5.223 0 0 1-1.751 1.142 5 5 0 0 1-1.806.372 5.843 5.843 0 0 1-3.848-1.168 3.317 3.317 0 0 1-1.407-2.548 4.307 4.307 0 0 0 1.778.265 5.3 5.3 0 0 0 1.752-.4 4.753 4.753 0 0 0 1.459-.951 3.953 3.953 0 0 0 .955-1.4 5.328 5.328 0 0 0 .292-1.767 4.968 4.968 0 0 0-.4-2.083 4.235 4.235 0 0 0-1.354-1.716 4.047 4.047 0 0 0-2.521-.712 4.107 4.107 0 0 0-1.984.43 3.855 3.855 0 0 0-1.247 1.059 3.808 3.808 0 0 0-.665 1.376 5.509 5.509 0 0 0-.185 1.323v27.575a6.381 6.381 0 0 0 .159 1.324 4.242 4.242 0 0 0 .558 1.376 3.654 3.654 0 0 0 1.062 1.085 3.015 3.015 0 0 0 1.725.449 3.056 3.056 0 0 0 1.672-.423 3.106 3.106 0 0 0 1.035-1.059 4.165 4.165 0 0 0 .5-1.376 7.927 7.927 0 0 0 .133-1.377v-8.523q-.054-1.852-.213-3.1a14.129 14.129 0 0 0-.371-1.986 3.6 3.6 0 0 0-.585-1.376h6.795z" class="cls-3" data-name="Path 270" transform="translate(-32.536 -.288)"/>
        <path id="Path_271" d="M179.268 1.25a9.917 9.917 0 0 1 3.609.637 8.982 8.982 0 0 1 2.84 1.725 7.433 7.433 0 0 1 1.832 2.548 7.687 7.687 0 0 1 .637 3.106v22.613a7.3 7.3 0 0 1-.69 3.159 7.791 7.791 0 0 1-1.884 2.521 9.25 9.25 0 0 1-2.84 1.7 9.764 9.764 0 0 1-3.557.637 10.129 10.129 0 0 1-3.636-.637 9.518 9.518 0 0 1-2.893-1.7 7.591 7.591 0 0 1-1.91-2.521 7.285 7.285 0 0 1-.691-3.159V9.265a6.961 6.961 0 0 1 .715-3.105 8.081 8.081 0 0 1 1.964-2.548 9.6 9.6 0 0 1 2.919-1.725 9.986 9.986 0 0 1 3.584-.637m3.29 7.856a3.115 3.115 0 0 1-1.8.637 5.059 5.059 0 0 1-1.832-.452 1.553 1.553 0 0 1-.929-1.459 3.174 3.174 0 0 0 1.7.265 2.926 2.926 0 0 0 1.46-.579 2.782 2.782 0 0 0 .9-1.262 3.017 3.017 0 0 0 .079-1.735v-.1a4.2 4.2 0 0 0-1.008-1.287 2.761 2.761 0 0 0-1.858-.552 3.165 3.165 0 0 0-1.727.418 3.668 3.668 0 0 0-1.088 1.06 3.935 3.935 0 0 0-.583 1.378 6.558 6.558 0 0 0-.159 1.378v27.617a6.343 6.343 0 0 0 .159 1.326 4.242 4.242 0 0 0 .557 1.378 3.641 3.641 0 0 0 1.062 1.087 3.011 3.011 0 0 0 1.725.45 3.045 3.045 0 0 0 1.672-.425 3.126 3.126 0 0 0 1.035-1.062 4.184 4.184 0 0 0 .5-1.38 7.957 7.957 0 0 0 .132-1.38z" class="cls-3" data-name="Path 271" transform="translate(-39.237 -.288)"/>
        <path id="Path_272" d="M216.248 39.559h-17.942a5.225 5.225 0 0 0 .584-1.38 16.571 16.571 0 0 0 .4-1.99 21.748 21.748 0 0 0 .185-3.106V8.347a21.744 21.744 0 0 0-.185-3.1 16.62 16.62 0 0 0-.4-1.991 5.237 5.237 0 0 0-.584-1.38h7.962a3.582 3.582 0 0 0-.583 1.38 9.715 9.715 0 0 0-.425 1.991 25.032 25.032 0 0 0-.159 3.1v27.6a2.148 2.148 0 0 0 .132.663 2.1 2.1 0 0 0 .478.77 2.522 2.522 0 0 0 .982.61 4.764 4.764 0 0 0 1.646.239h1.861a3.749 3.749 0 0 0 1.964-.452 3.5 3.5 0 0 0 1.194-1.194 6.888 6.888 0 0 0 .717-1.672q.264-.928.53-1.884h1.221z" class="cls-3" data-name="Path 272" transform="translate(-45.747 -.432)"/>
        <path id="Path_273" d="M231.871 33.083a25.186 25.186 0 0 0 .159 3.106 9.746 9.746 0 0 0 .425 1.99 3.565 3.565 0 0 0 .584 1.38h-7.962a5.2 5.2 0 0 0 .584-1.38 16.424 16.424 0 0 0 .4-1.99 21.61 21.61 0 0 0 .187-3.106V8.347a21.606 21.606 0 0 0-.187-3.1 16.473 16.473 0 0 0-.4-1.991 5.212 5.212 0 0 0-.584-1.38h7.962a3.571 3.571 0 0 0-.584 1.38 9.767 9.767 0 0 0-.425 1.991 25.181 25.181 0 0 0-.159 3.1v24.736z" class="cls-3" data-name="Path 273" transform="translate(-51.923 -.432)"/>
        <path id="Path_274" d="M259.253 1.871a6.082 6.082 0 0 0-.478.955 4.453 4.453 0 0 0-.345 1.009 5.713 5.713 0 0 0-.132 1.274v34.45h-1.7L241.949 8.453v27.868a5.7 5.7 0 0 0 .132 1.274 7.588 7.588 0 0 0 .292 1.009 5.736 5.736 0 0 0 .478.955H239.3a6.111 6.111 0 0 0 .478-.955q.158-.425.319-1.035a5.391 5.391 0 0 0 .159-1.354V7.71a21.265 21.265 0 0 0-.239-2.786 15.028 15.028 0 0 0-.4-1.779 3.6 3.6 0 0 0-.532-1.221h5.839L256.6 26.448V5.215a5.4 5.4 0 0 0-.159-1.353q-.16-.609-.319-1.035-.213-.53-.425-.955z" class="cls-3" data-name="Path 274" transform="translate(-55.154 -.432)"/>
        <path id="Path_275" d="M16.142 58.111a12.855 12.855 0 0 1 9.5 4.054 13.944 13.944 0 0 1 2.78 4.4 14.343 14.343 0 0 1 1 5.368v27.188a14.325 14.325 0 0 1-1 5.367 13.9 13.9 0 0 1-2.78 4.4 12.86 12.86 0 0 1-9.5 4.055H0a7.594 7.594 0 0 0 .849-2.009 23.839 23.839 0 0 0 .579-2.9 31.609 31.609 0 0 0 .27-4.518V67.533a31.62 31.62 0 0 0-.27-4.517 23.95 23.95 0 0 0-.579-2.9A7.587 7.587 0 0 0 0 58.111zm5.1 13.825a21.156 21.156 0 0 0-.347-3.437A12.423 12.423 0 0 0 19.5 64.56a9.714 9.714 0 0 0-2.857-3.206 7.785 7.785 0 0 0-4.673-1.312H9.886v42.4a7.224 7.224 0 0 1 1.545-.772 5.209 5.209 0 0 1 2.51 0 2.183 2.183 0 0 1 1.66 1.622 4.076 4.076 0 0 0-2.356.232 4.384 4.384 0 0 0-1.814 1.351 4.8 4.8 0 0 0-.927 2.047 3.943 3.943 0 0 0 .308 2.394 2.5 2.5 0 0 0 1.12 1.159 4 4 0 0 0 2.124.541h.618a3.9 3.9 0 0 0 2.935-1.313 10.873 10.873 0 0 0 2.046-3.2 18.774 18.774 0 0 0 1.2-3.939 19.082 19.082 0 0 0 .386-3.437z" class="cls-3" data-name="Path 275" transform="translate(0 -13.406)"/>
        <path id="Path_276" d="M70.177 112.947h-26.1a7.56 7.56 0 0 0 .85-2.008 24.19 24.19 0 0 0 .579-2.9 31.615 31.615 0 0 0 .269-4.518V67.534a31.638 31.638 0 0 0-.269-4.518 24.286 24.286 0 0 0-.579-2.9 7.571 7.571 0 0 0-.85-2.008H69.4l-.695 7.646h-1.772q-.387-1.544-.772-2.626A4.283 4.283 0 0 0 65 61.354a4.78 4.78 0 0 0-2.239-1 21.081 21.081 0 0 0-4.093-.308h-4.71V76.8a28.927 28.927 0 0 0 4.247 0q1.929-.153 3.321-.308a28.6 28.6 0 0 0 2.858-.541 6.29 6.29 0 0 1 .077 1 8.014 8.014 0 0 1-.386 2.163 2.26 2.26 0 0 1-1.7 1.506 4.783 4.783 0 0 1-2.626-.038l-5.792-1.622v28.74a3.139 3.139 0 0 0 .193.963 3.063 3.063 0 0 0 .695 1.118 3.679 3.679 0 0 0 1.429.885 6.925 6.925 0 0 0 2.393.346h2.7a5.463 5.463 0 0 0 2.857-.656 4.994 4.994 0 0 0 1.737-1.776 9.581 9.581 0 0 0 1-2.472q.347-1.35.733-2.742h1.777z" class="cls-3" data-name="Path 276" transform="translate(-10.167 -13.406)"/>
        <path id="Path_277" d="M108.077 58.111l-.695 7.568h-1.776q-.388-1.544-.772-2.626a4 4 0 0 0-1.159-1.738 5.047 5.047 0 0 0-2.239-.965 21.072 21.072 0 0 0-4.093-.308h-4.712v16.682a33.529 33.529 0 0 0 4.247.039q1.929-.115 3.321-.27a28.548 28.548 0 0 0 2.858-.542 7.255 7.255 0 0 1 .077 1 7.891 7.891 0 0 1-.386 2.086 2.263 2.263 0 0 1-1.7 1.506 4.783 4.783 0 0 1-2.626-.038l-5.792-1.622v24.869a34.68 34.68 0 0 0 .232 4.44 20.285 20.285 0 0 0 .541 2.82 5.161 5.161 0 0 0 .849 1.931h-11.43a6.3 6.3 0 0 0 .772-1.931 24.624 24.624 0 0 0 .579-2.82 29.3 29.3 0 0 0 .27-4.363V67.456a30.794 30.794 0 0 0-.27-4.479 24.451 24.451 0 0 0-.579-2.858 6.314 6.314 0 0 0-.772-2.008z" class="cls-3" data-name="Path 277" transform="translate(-19.106 -13.406)"/>
        <path id="Path_278" d="M147.377 112.947h-26.1a7.56 7.56 0 0 0 .85-2.008 24.191 24.191 0 0 0 .579-2.9 31.615 31.615 0 0 0 .269-4.518V67.534a31.637 31.637 0 0 0-.269-4.518 24.287 24.287 0 0 0-.579-2.9 7.571 7.571 0 0 0-.85-2.008H146.6l-.695 7.646h-1.777q-.387-1.544-.772-2.626a4.282 4.282 0 0 0-1.159-1.777 4.78 4.78 0 0 0-2.239-1 21.081 21.081 0 0 0-4.093-.308h-4.71V76.8a28.927 28.927 0 0 0 4.247 0q1.929-.153 3.321-.308a28.6 28.6 0 0 0 2.858-.541 6.289 6.289 0 0 1 .077 1 8.014 8.014 0 0 1-.386 2.163 2.26 2.26 0 0 1-1.7 1.506 4.783 4.783 0 0 1-2.626-.038l-5.792-1.622v28.74a3.139 3.139 0 0 0 .193.963 3.063 3.063 0 0 0 .695 1.118 3.679 3.679 0 0 0 1.429.885 6.925 6.925 0 0 0 2.393.346h2.7a5.463 5.463 0 0 0 2.857-.656 4.994 4.994 0 0 0 1.737-1.776 9.581 9.581 0 0 0 1-2.472q.347-1.35.733-2.742h1.777z" class="cls-3" data-name="Path 278" transform="translate(-27.976 -13.406)"/>
        <path id="Path_279" d="M189.571 58.111a8.676 8.676 0 0 0-.695 1.39 6.437 6.437 0 0 0-.5 1.467 8.349 8.349 0 0 0-.193 1.854v50.124h-2.472l-21.318-45.258v40.547a8.323 8.323 0 0 0 .193 1.853 11.315 11.315 0 0 0 .425 1.468 8.645 8.645 0 0 0 .7 1.39h-5.174a8.772 8.772 0 0 0 .695-1.39 15.686 15.686 0 0 0 .464-1.506 7.816 7.816 0 0 0 .232-1.969V66.606a30.6 30.6 0 0 0-.348-4.055 21.171 21.171 0 0 0-.579-2.587 5.225 5.225 0 0 0-.772-1.776h8.5l16.99 35.682V62.977a7.831 7.831 0 0 0-.231-1.969 15.6 15.6 0 0 0-.464-1.506q-.309-.771-.618-1.39z" class="cls-3" data-name="Path 279" transform="translate(-36.962 -13.406)"/>
        <path id="Path_280" d="M220.036 58.111a12.855 12.855 0 0 1 9.5 4.054 13.944 13.944 0 0 1 2.78 4.4 14.343 14.343 0 0 1 1 5.368v27.188a14.325 14.325 0 0 1-1 5.367 13.9 13.9 0 0 1-2.78 4.4 12.86 12.86 0 0 1-9.5 4.055h-16.142a7.594 7.594 0 0 0 .849-2.009 23.837 23.837 0 0 0 .579-2.9 31.607 31.607 0 0 0 .27-4.518V67.533a31.618 31.618 0 0 0-.27-4.517 23.949 23.949 0 0 0-.579-2.9 7.587 7.587 0 0 0-.849-2.008zm5.1 13.825a21.155 21.155 0 0 0-.347-3.437 12.423 12.423 0 0 0-1.391-3.939 9.714 9.714 0 0 0-2.857-3.206 7.785 7.785 0 0 0-4.673-1.312h-2.088v42.4a7.223 7.223 0 0 1 1.545-.772 5.209 5.209 0 0 1 2.51 0 2.183 2.183 0 0 1 1.66 1.622 4.076 4.076 0 0 0-2.356.232 4.384 4.384 0 0 0-1.814 1.351 4.8 4.8 0 0 0-.927 2.047 3.943 3.943 0 0 0 .309 2.394 2.5 2.5 0 0 0 1.12 1.159 4 4 0 0 0 2.124.541h.618a3.9 3.9 0 0 0 2.931-1.316 10.872 10.872 0 0 0 2.046-3.2 18.771 18.771 0 0 0 1.2-3.939 19.082 19.082 0 0 0 .386-3.437z" class="cls-3" data-name="Path 280" transform="translate(-47.036 -13.406)"/>
        <path id="Path_281" d="M274.07 112.947h-26.105a7.56 7.56 0 0 0 .85-2.008 24.189 24.189 0 0 0 .579-2.9 31.615 31.615 0 0 0 .269-4.518V67.534a31.638 31.638 0 0 0-.269-4.518 24.285 24.285 0 0 0-.579-2.9 7.571 7.571 0 0 0-.85-2.008H273.3l-.695 7.646h-1.777q-.387-1.544-.772-2.626a4.283 4.283 0 0 0-1.159-1.777 4.78 4.78 0 0 0-2.239-1 21.081 21.081 0 0 0-4.094-.308h-4.71V76.8a28.926 28.926 0 0 0 4.247 0q1.929-.153 3.321-.308a28.6 28.6 0 0 0 2.858-.541 6.29 6.29 0 0 1 .077 1 8.014 8.014 0 0 1-.386 2.163 2.26 2.26 0 0 1-1.7 1.506 4.783 4.783 0 0 1-2.626-.038l-5.792-1.622v28.74a3.139 3.139 0 0 0 .193.963 3.063 3.063 0 0 0 .695 1.118 3.679 3.679 0 0 0 1.429.885 6.925 6.925 0 0 0 2.393.346h2.7a5.463 5.463 0 0 0 2.857-.656 4.994 4.994 0 0 0 1.737-1.776 9.582 9.582 0 0 0 1-2.472q.347-1.35.733-2.742h1.777z" class="cls-3" data-name="Path 281" transform="translate(-57.203 -13.406)"/>
        <path id="Path_282" d="M313.206 104.3a31.337 31.337 0 0 0 1.931 5.291 7.133 7.133 0 0 0 2.7 2.9 6.588 6.588 0 0 1-2.587.927 16.506 16.506 0 0 1-2.356.232 8.778 8.778 0 0 1-4.827-1.66 7.9 7.9 0 0 1-2.82-4.75l-4.707-23.025a6.8 6.8 0 0 1-3.939-1.467v20.775a36.586 36.586 0 0 0 .232 4.518 14.231 14.231 0 0 0 .618 2.9 5.218 5.218 0 0 0 .849 2.008h-11.584a7.577 7.577 0 0 0 .849-2.008 23.823 23.823 0 0 0 .579-2.9 31.48 31.48 0 0 0 .27-4.518v-35.99a31.5 31.5 0 0 0-.27-4.517 23.949 23.949 0 0 0-.579-2.9 7.588 7.588 0 0 0-.849-2.008h13.67a20.992 20.992 0 0 1 5.6.695 11.482 11.482 0 0 1 4.325 2.2 9.991 9.991 0 0 1 2.819 3.9 15.207 15.207 0 0 1 1 5.87 14.171 14.171 0 0 1-2.7 8.959 11.8 11.8 0 0 1-7.647 4.325 12.2 12.2 0 0 1 1.854 1.081 11.326 11.326 0 0 1 1.969 1.776 13.432 13.432 0 0 1 1.776 2.587 14.07 14.07 0 0 1 1.275 3.514zm-15.755-23.71a2.635 2.635 0 0 0 1.2 1.2 4.192 4.192 0 0 0 2.2.579 3.611 3.611 0 0 0 2.548-.927 6.3 6.3 0 0 0 1.584-2.471 14.153 14.153 0 0 0 .772-3.669q.192-2.123.193-4.441a16.785 16.785 0 0 0-.657-5.059 9.636 9.636 0 0 0-1.737-3.32 6.634 6.634 0 0 0-2.433-1.854 6.731 6.731 0 0 0-2.664-.579H296.6v13.74a3.74 3.74 0 0 1 1.39-.849 3.906 3.906 0 0 1 1.7-.232 3.552 3.552 0 0 1 1.545.5 2.775 2.775 0 0 1 1.081 1.352 4.073 4.073 0 0 0-2.356.232 4.383 4.383 0 0 0-1.815 1.352 4.809 4.809 0 0 0-.927 2.047 4.31 4.31 0 0 0 .232 2.394" class="cls-3" data-name="Path 282" transform="translate(-66.143 -13.406)"/>
        <path id="Path_283" d="M30.757 31.481a66.097 66.097 0 0 1-3.077-2.835c4.953-.8 7.068-3.467 8.477-6.657a4.725 4.725 0 0 0 .37-1.045c.082-.447-.085-.876-.759-.8-3.557.385-6.658 1.759-8.336 5.17a11.717 11.717 0 0 0-.6 2.049 83.83 83.83 0 0 1-2.539-3.4c4.229-.658 5.959-3.347 7.045-6.6a15.324 15.324 0 0 0 .509-2.5c.133-.852-.3-1.27-1.119-1.034a9.5 9.5 0 0 0-6.65 5.854 20.3 20.3 0 0 0-.668 3.23q-1.123-2.077-2.3-4.5c3.683-.555 5.28-2.959 6.191-5.957a23.36 23.36 0 0 0 .619-4.624c.073-.84-.409-1.259-1.112-.949a9.876 9.876 0 0 0-6.159 8.049c-.076.537-.055 1.092-.079 1.636a4.932 4.932 0 0 1-.779-4.017A11.541 11.541 0 0 0 20 8.878 19.468 19.468 0 0 0 16.824.584c-.5-.784-.949-.789-1.173.037-.955 3.486-1.359 7.155-.026 10.623A5.856 5.856 0 0 0 17.1 13.6c1.3 1.075 1.356 2.693 1.957 4.012-3.817-3.748-7.917-3.465-12.279-.965-.933.528-1.029 1.14-.308 1.745a10.38 10.38 0 0 0 8.81 2.657 5.95 5.95 0 0 0 4.136-2.57 115.681 115.681 0 0 0 2.2 4.533 20.117 20.117 0 0 0-2.474-.73c-3.471-.545-6.554.835-9.471 3.445-.561.5-.615 1.152.022 1.429a11.417 11.417 0 0 0 10.724-.4 15.9 15.9 0 0 0 2.178-1.8c.614.876 1.3 1.812 1.983 2.71a18.056 18.056 0 0 0-2.2 0c-3.808.408-6.677 2.788-9.148 6.224-.494.685-.188 1.037.408 1.055a15.359 15.359 0 0 0 9.356-2.58 28.945 28.945 0 0 0 3.183-3.015c.878.888 1.9 1.873 3.037 2.885-4.21-.435-7.031 1.619-9.457 4.937-.658.9-.563 1.252.433 1.31a12.407 12.407 0 0 0 8.15-2.326 17.486 17.486 0 0 0 2.443-2.681 64.443 64.443 0 0 0 6.148 3.082c1.159-1.035 1.134-1.019-.005-1.506-1.246-.534-2.449-1.147-3.806-1.872a7.93 7.93 0 0 0 5.333-4.579 11.851 11.851 0 0 0 .5-1.957c.138-.578-.341-.753-.912-.685-2.906.3-6.549 2.241-7.1 5.217a1.8 1.8 0 0 1-.184.3" class="cls-4" data-name="Path 283" transform="translate(-1.383)"/>
        <path id="Path_284" d="M284.213 31.481a66.118 66.118 0 0 0 3.078-2.835c-4.954-.8-7.069-3.467-8.478-6.657a4.726 4.726 0 0 1-.37-1.045c-.082-.447.085-.876.759-.8 3.557.385 6.658 1.759 8.337 5.17a11.711 11.711 0 0 1 .6 2.049 83.83 83.83 0 0 0 2.539-3.4c-4.229-.658-5.958-3.347-7.045-6.6a15.325 15.325 0 0 1-.509-2.5c-.133-.852.3-1.27 1.119-1.034a9.5 9.5 0 0 1 6.65 5.854 20.294 20.294 0 0 1 .668 3.23q1.123-2.077 2.3-4.5c-3.683-.555-5.28-2.959-6.19-5.957a23.305 23.305 0 0 1-.62-4.624c-.073-.84.409-1.259 1.112-.949a9.875 9.875 0 0 1 6.159 8.049c.076.537.055 1.092.079 1.636a4.932 4.932 0 0 0 .779-4.017 11.519 11.519 0 0 1-.218-3.667 19.457 19.457 0 0 1 3.184-8.3c.5-.784.949-.789 1.173.037.956 3.486 1.359 7.155.026 10.623a5.856 5.856 0 0 1-1.475 2.356c-1.3 1.075-1.356 2.693-1.957 4.012 3.817-3.748 7.917-3.465 12.28-.965.932.528 1.028 1.14.308 1.745a10.379 10.379 0 0 1-8.81 2.657 5.951 5.951 0 0 1-4.136-2.57 115.681 115.681 0 0 1-2.2 4.533 20.156 20.156 0 0 1 2.474-.73c3.471-.545 6.554.835 9.471 3.445.561.5.615 1.152-.022 1.429a11.417 11.417 0 0 1-10.724-.4 15.951 15.951 0 0 1-2.178-1.8c-.614.876-1.3 1.812-1.983 2.71a18.056 18.056 0 0 1 2.2 0c3.809.408 6.677 2.788 9.148 6.224.494.685.189 1.037-.408 1.055a15.359 15.359 0 0 1-9.356-2.58 28.948 28.948 0 0 1-3.183-3.015c-.878.888-1.9 1.873-3.037 2.885 4.21-.435 7.031 1.619 9.457 4.937.658.9.563 1.252-.432 1.31a12.41 12.41 0 0 1-8.151-2.326 17.486 17.486 0 0 1-2.443-2.681 64.448 64.448 0 0 1-6.148 3.082c-1.159-1.035-1.134-1.019.005-1.506 1.246-.534 2.449-1.147 3.806-1.872a7.93 7.93 0 0 1-5.332-4.582 11.849 11.849 0 0 1-.5-1.957c-.137-.578.342-.753.912-.685 2.906.3 6.549 2.241 7.1 5.217a1.83 1.83 0 0 0 .183.3" class="cls-4" data-name="Path 284" transform="translate(-63.669)"/>
    </g>
</svg>
