<svg xmlns="http://www.w3.org/2000/svg" id="guardian-title" width="240.698" height="99.554" viewBox="0 0 240.698 99.554">
    <defs>
        <style>
            .cls-1{fill:none}.cls-2{clip-path:url(#clip-path)}.cls-3{fill:#002549}.cls-4{fill:#055fcc}
        </style>
        <clipPath id="clip-path">
            <path id="Rectangle_45" d="M0 0h240.698v99.554H0z" class="cls-1" data-name="Rectangle 45"/>
        </clipPath>
    </defs>
    <g id="Group_56" class="cls-2" data-name="Group 56">
        <path id="Path_176" d="M61.68.62a14.392 14.392 0 0 1 3.84.477 7.872 7.872 0 0 1 2.967 1.51 6.816 6.816 0 0 1 1.933 2.7 10.478 10.478 0 0 1 .689 4 9.463 9.463 0 0 1-2.357 6.781 8.714 8.714 0 0 1-6.649 2.49 4.659 4.659 0 0 1-1.668-.291 4.808 4.808 0 0 1-1.351-.769v14.25a25.137 25.137 0 0 0 .159 3.1 9.658 9.658 0 0 0 .425 1.986 3.558 3.558 0 0 0 .582 1.377H52.3a5.217 5.217 0 0 0 .582-1.377 16.485 16.485 0 0 0 .4-1.986 21.705 21.705 0 0 0 .185-3.1V7.083a21.709 21.709 0 0 0-.185-3.1A16.565 16.565 0 0 0 52.885 2 5.24 5.24 0 0 0 52.3.62zm.37 16.634a2.477 2.477 0 0 0 1.748-.636 4.1 4.1 0 0 0 1.059-1.7 10.545 10.545 0 0 0 .5-2.516q.132-1.457.133-3.046a11.554 11.554 0 0 0-.451-3.443 6.574 6.574 0 0 0-1.191-2.3 4.553 4.553 0 0 0-1.669-1.271 4.621 4.621 0 0 0-1.828-.4h-1.268v9.43a2.571 2.571 0 0 1 .954-.583 2.691 2.691 0 0 1 1.165-.159 2.422 2.422 0 0 1 1.086.37 1.735 1.735 0 0 1 .715.9 2.791 2.791 0 0 0-1.615.159 3 3 0 0 0-1.245.927 3.289 3.289 0 0 0-.636 1.4 2.948 2.948 0 0 0 .16 1.642 1.8 1.8 0 0 0 .821.822 2.977 2.977 0 0 0 1.562.4" class="cls-3" data-name="Path 176" transform="translate(-12.147 -.144)"/>
        <path id="Path_177" d="M88.607 38.232a5.912 5.912 0 0 0 .477-1.218 10.137 10.137 0 0 0 .238-1.562 8.154 8.154 0 0 0-.185-2.252l-2.49-12.926h-5.51l-3.5 15.151a5.08 5.08 0 0 0-.106 1.007v.9a7.122 7.122 0 0 0 .053.9h-2.857a4.9 4.9 0 0 0 .477-.848 7.73 7.73 0 0 0 .4-.98q.185-.556.4-1.245l7.358-31.89a17.592 17.592 0 0 0-.689-2.013L82.355.62h6.092l3.284 16.846 3.284 16.846a9.314 9.314 0 0 0 .425 1.616 12.3 12.3 0 0 0 .53 1.245 7.388 7.388 0 0 0 .583 1.06zm-2.278-19.653L84.1 7.189l-2.6 11.39z" class="cls-3" data-name="Path 177" transform="translate(-17.355 -.144)"/>
        <path id="Path_178" d="M125.837.62a6.069 6.069 0 0 0-.477.954 4.409 4.409 0 0 0-.343 1.007 5.7 5.7 0 0 0-.132 1.271v34.38h-1.7L108.567 7.189V35a5.686 5.686 0 0 0 .132 1.271 7.694 7.694 0 0 0 .292 1.007 5.844 5.844 0 0 0 .477.954h-3.549a6.1 6.1 0 0 0 .477-.954q.158-.424.318-1.033a5.345 5.345 0 0 0 .159-1.351V6.447a21.221 21.221 0 0 0-.239-2.781 14.845 14.845 0 0 0-.4-1.775 3.6 3.6 0 0 0-.531-1.218h5.827l11.655 24.475V3.957a5.351 5.351 0 0 0-.159-1.35c-.107-.405-.212-.75-.318-1.033q-.212-.529-.425-.954z" class="cls-3" data-name="Path 178" transform="translate(-24.549 -.144)"/>
        <path id="Path_179" d="M155.029 38.088a7 7 0 0 1-2.437-.291 5.108 5.108 0 0 1-1.218-.716 10.142 10.142 0 0 1-2.437 1.086 9.913 9.913 0 0 1-2.861.4 10.263 10.263 0 0 1-3.681-.636 8.9 8.9 0 0 1-2.861-1.722 8.072 8.072 0 0 1-1.88-2.543 7.157 7.157 0 0 1-.688-3.1V8a8.135 8.135 0 0 1 .609-3.126 6.839 6.839 0 0 1 1.8-2.543 8.918 8.918 0 0 1 2.993-1.7A12.563 12.563 0 0 1 146.553 0a10.767 10.767 0 0 1 4.37.769 7.56 7.56 0 0 1 2.7 1.907 6.461 6.461 0 0 1 1.351 2.436 8.689 8.689 0 0 1 .37 2.358 6.957 6.957 0 0 1-.529 2.835 6.174 6.174 0 0 1-1.325 1.959 5.212 5.212 0 0 1-1.747 1.139 4.985 4.985 0 0 1-1.8.371 5.831 5.831 0 0 1-3.84-1.165 3.31 3.31 0 0 1-1.4-2.543 4.3 4.3 0 0 0 1.774.265 5.288 5.288 0 0 0 1.749-.4 4.744 4.744 0 0 0 1.456-.949 3.945 3.945 0 0 0 .954-1.4 5.316 5.316 0 0 0 .291-1.764 4.958 4.958 0 0 0-.4-2.079 4.226 4.226 0 0 0-1.351-1.712 4.039 4.039 0 0 0-2.516-.711 4.1 4.1 0 0 0-1.987.423 3.847 3.847 0 0 0-1.245 1.061 3.8 3.8 0 0 0-.663 1.373 5.5 5.5 0 0 0-.185 1.327v27.515a6.369 6.369 0 0 0 .159 1.321 4.233 4.233 0 0 0 .557 1.373 3.646 3.646 0 0 0 1.059 1.083 3.009 3.009 0 0 0 1.721.448 3.05 3.05 0 0 0 1.669-.422 3.1 3.1 0 0 0 1.033-1.057 4.157 4.157 0 0 0 .5-1.373 7.912 7.912 0 0 0 .133-1.374v-8.505q-.054-1.848-.213-3.09a14.1 14.1 0 0 0-.37-1.982 3.6 3.6 0 0 0-.584-1.374h6.781z" class="cls-3" data-name="Path 179" transform="translate(-31.809)"/>
        <path id="Path_180" d="M175.177 0a9.9 9.9 0 0 1 3.6.636 8.963 8.963 0 0 1 2.834 1.721 7.417 7.417 0 0 1 1.83 2.543 7.671 7.671 0 0 1 .636 3.1v22.567a7.28 7.28 0 0 1-.689 3.152 7.776 7.776 0 0 1-1.88 2.516 9.232 9.232 0 0 1-2.835 1.7 9.745 9.745 0 0 1-3.549.636 10.109 10.109 0 0 1-3.628-.636 9.5 9.5 0 0 1-2.888-1.7 7.576 7.576 0 0 1-1.906-2.516 7.27 7.27 0 0 1-.689-3.152V8a6.947 6.947 0 0 1 .716-3.1 8.065 8.065 0 0 1 1.96-2.543A9.585 9.585 0 0 1 171.6.636 9.966 9.966 0 0 1 175.177 0m3.284 7.84a3.109 3.109 0 0 1-1.8.636 5.048 5.048 0 0 1-1.828-.451 1.55 1.55 0 0 1-.927-1.456 3.168 3.168 0 0 0 1.7.265 2.921 2.921 0 0 0 1.457-.578 2.776 2.776 0 0 0 .9-1.26 3.011 3.011 0 0 0 .079-1.731v-.1a4.192 4.192 0 0 0-1.006-1.284 2.755 2.755 0 0 0-1.854-.551 3.159 3.159 0 0 0-1.723.423 3.66 3.66 0 0 0-1.086 1.058 3.927 3.927 0 0 0-.582 1.375 6.546 6.546 0 0 0-.159 1.375v27.56a6.331 6.331 0 0 0 .159 1.323 4.233 4.233 0 0 0 .556 1.375A3.633 3.633 0 0 0 173.4 36.9a3.005 3.005 0 0 0 1.721.449 3.039 3.039 0 0 0 1.669-.424 3.12 3.12 0 0 0 1.033-1.06 4.175 4.175 0 0 0 .5-1.377 7.94 7.94 0 0 0 .132-1.377z" class="cls-3" data-name="Path 180" transform="translate(-38.555)"/>
        <path id="Path_181" d="M212.14 38.232h-17.906a5.215 5.215 0 0 0 .583-1.377 16.541 16.541 0 0 0 .4-1.986 21.7 21.7 0 0 0 .185-3.1V7.083a21.7 21.7 0 0 0-.185-3.1 16.589 16.589 0 0 0-.4-1.987 5.226 5.226 0 0 0-.583-1.376h7.946A3.575 3.575 0 0 0 201.6 2a9.7 9.7 0 0 0-.424 1.987 24.984 24.984 0 0 0-.159 3.1V34.63a2.143 2.143 0 0 0 .132.662 2.094 2.094 0 0 0 .477.769 2.517 2.517 0 0 0 .98.609 4.754 4.754 0 0 0 1.643.239h1.851a3.742 3.742 0 0 0 1.96-.451 3.49 3.49 0 0 0 1.192-1.192 6.874 6.874 0 0 0 .716-1.669q.264-.926.529-1.88h1.218z" class="cls-3" data-name="Path 181" transform="translate(-45.109 -.144)"/>
        <path id="Path_182" d="M227.786 31.769a25.138 25.138 0 0 0 .159 3.1 9.728 9.728 0 0 0 .424 1.986 3.558 3.558 0 0 0 .583 1.377h-7.946a5.19 5.19 0 0 0 .583-1.377 16.394 16.394 0 0 0 .4-1.986 21.568 21.568 0 0 0 .187-3.1V7.083a21.563 21.563 0 0 0-.187-3.1 16.442 16.442 0 0 0-.4-1.987 5.2 5.2 0 0 0-.584-1.376h7.946a3.563 3.563 0 0 0-.582 1.38 9.749 9.749 0 0 0-.424 1.987 25.134 25.134 0 0 0-.159 3.1v24.682z" class="cls-3" data-name="Path 182" transform="translate(-51.327 -.144)"/>
        <path id="Path_183" d="M255.141.62a6.066 6.066 0 0 0-.477.954 4.444 4.444 0 0 0-.344 1.007 5.7 5.7 0 0 0-.132 1.271v34.38h-1.7L237.871 7.189V35a5.687 5.687 0 0 0 .129 1.272 7.576 7.576 0 0 0 .292 1.007 5.723 5.723 0 0 0 .477.954h-3.549a6.1 6.1 0 0 0 .477-.954q.158-.424.318-1.033a5.38 5.38 0 0 0 .159-1.351V6.447a21.221 21.221 0 0 0-.239-2.781 15 15 0 0 0-.4-1.775 3.594 3.594 0 0 0-.525-1.218h5.827l11.655 24.475V3.957a5.387 5.387 0 0 0-.159-1.35q-.16-.608-.318-1.033-.213-.529-.425-.954z" class="cls-3" data-name="Path 183" transform="translate(-54.579 -.144)"/>
        <path id="Path_184" d="M25.966 112.093a10.014 10.014 0 0 1-3.487-.417 7.307 7.307 0 0 1-1.744-1.023 14.55 14.55 0 0 1-3.488 1.554 14.188 14.188 0 0 1-4.094.569 14.7 14.7 0 0 1-5.27-.91A12.731 12.731 0 0 1 3.79 109.4a11.537 11.537 0 0 1-2.69-3.638 10.244 10.244 0 0 1-.986-4.435v-32.3a11.647 11.647 0 0 1 .872-4.473 9.778 9.778 0 0 1 2.577-3.64 12.761 12.761 0 0 1 4.284-2.426 17.98 17.98 0 0 1 5.99-.91 15.424 15.424 0 0 1 6.255 1.1 10.84 10.84 0 0 1 3.867 2.729A9.224 9.224 0 0 1 25.89 64.9a12.422 12.422 0 0 1 .531 3.374 9.937 9.937 0 0 1-.759 4.057 8.832 8.832 0 0 1-1.895 2.8 7.481 7.481 0 0 1-2.5 1.63 7.115 7.115 0 0 1-2.578.531 8.349 8.349 0 0 1-5.5-1.668 4.742 4.742 0 0 1-2.009-3.64 6.153 6.153 0 0 0 2.541.379 7.581 7.581 0 0 0 2.5-.566 6.807 6.807 0 0 0 2.084-1.358 5.651 5.651 0 0 0 1.365-2 7.662 7.662 0 0 0 .417-2.525 7.109 7.109 0 0 0-.569-2.976 6.044 6.044 0 0 0-1.933-2.45 5.785 5.785 0 0 0-3.6-1.017 5.875 5.875 0 0 0-2.843.6 5.522 5.522 0 0 0-1.782 1.512 5.427 5.427 0 0 0-.947 1.965 7.81 7.81 0 0 0-.266 1.889v39.386a9.083 9.083 0 0 0 .228 1.89 6.066 6.066 0 0 0 .8 1.965 5.2 5.2 0 0 0 1.517 1.549 4.3 4.3 0 0 0 2.464.643 4.366 4.366 0 0 0 2.388-.6 4.464 4.464 0 0 0 1.479-1.512 5.952 5.952 0 0 0 .719-1.965 11.254 11.254 0 0 0 .19-1.967V92.657q-.076-2.644-.3-4.422A20.174 20.174 0 0 0 17.1 85.4a5.117 5.117 0 0 0-.835-1.965h9.705z" class="cls-3" data-name="Path 184" transform="translate(-.026 -13.372)"/>
        <path id="Path_185" d="M68.25 59.908a6.253 6.253 0 0 0-.493 1.479 8.288 8.288 0 0 0-.19 1.781q0 3.337-.038 6.028t-.038 6.141v26.12a13.368 13.368 0 0 1-.762 4.549 11.667 11.667 0 0 1-2.128 3.715 9.7 9.7 0 0 1-3.345 2.5 10.435 10.435 0 0 1-4.412.91h-.76q-7 0-10.95-3t-3.953-8.908V67.717a30.133 30.133 0 0 0-.266-4.4 23.576 23.576 0 0 0-.569-2.805 8.994 8.994 0 0 0-.834-2.047h11.4a5.875 5.875 0 0 0-.848 2.047 13.7 13.7 0 0 0-.617 2.805 34.446 34.446 0 0 0-.231 4.4v33.209a21.357 21.357 0 0 0 .341 3.942 9.024 9.024 0 0 0 1.138 3.109 5.871 5.871 0 0 0 2.122 2.047 6.394 6.394 0 0 0 3.223.759h.76a7.648 7.648 0 0 0 6.027-2.73A8.936 8.936 0 0 0 64.5 105.1a11.2 11.2 0 0 0 .57-3.639V63.244a7.985 7.985 0 0 0-.218-1.933 16.814 16.814 0 0 0-.431-1.479 8.868 8.868 0 0 0-.651-1.364h5.167a12.306 12.306 0 0 0-.683 1.44" class="cls-3" data-name="Path 185" transform="translate(-9.177 -13.579)"/>
        <path id="Path_186" d="M99.571 112.3a8.389 8.389 0 0 0 .683-1.744 14.476 14.476 0 0 0 .341-2.236 11.684 11.684 0 0 0-.266-3.222L96.767 86.6h-7.886l-5 21.685a7.285 7.285 0 0 0-.153 1.44v1.289a10.536 10.536 0 0 0 .072 1.286h-4.093a6.988 6.988 0 0 0 .683-1.213 11.073 11.073 0 0 0 .568-1.4q.265-.795.569-1.781l10.539-45.648a25.381 25.381 0 0 0-.986-2.881l-.455-.911h8.719l4.7 24.111 4.7 24.111a13.457 13.457 0 0 0 .607 2.312 17.65 17.65 0 0 0 .759 1.782 10.638 10.638 0 0 0 .834 1.516zm-3.26-28.13l-3.184-16.3-3.715 16.3z" class="cls-3" data-name="Path 186" transform="translate(-18.511 -13.579)"/>
        <path id="Path_187" d="M149.855 103.807A30.634 30.634 0 0 0 151.75 109a7 7 0 0 0 2.654 2.844 6.46 6.46 0 0 1-2.54.909 16.183 16.183 0 0 1-2.312.228 8.628 8.628 0 0 1-4.739-1.63 7.75 7.75 0 0 1-2.767-4.663l-4.625-22.594a6.687 6.687 0 0 1-3.867-1.441v20.4a36.024 36.024 0 0 0 .228 4.435 13.932 13.932 0 0 0 .607 2.844 5.106 5.106 0 0 0 .834 1.971h-11.374a7.41 7.41 0 0 0 .834-1.971 23.512 23.512 0 0 0 .569-2.844 30.939 30.939 0 0 0 .265-4.435V67.718a30.954 30.954 0 0 0-.265-4.435 23.575 23.575 0 0 0-.569-2.844 7.421 7.421 0 0 0-.834-1.971h13.42a20.61 20.61 0 0 1 5.5.682 11.263 11.263 0 0 1 4.246 2.161 9.816 9.816 0 0 1 2.768 3.829 14.944 14.944 0 0 1 .986 5.762 13.91 13.91 0 0 1-2.654 8.8 11.582 11.582 0 0 1-7.506 4.246A12.04 12.04 0 0 1 142.425 85a11.146 11.146 0 0 1 1.933 1.744 13.2 13.2 0 0 1 1.744 2.54 13.822 13.822 0 0 1 1.251 3.45zm-15.467-23.276a2.584 2.584 0 0 0 1.175 1.175 4.123 4.123 0 0 0 2.161.568 3.548 3.548 0 0 0 2.5-.91 6.182 6.182 0 0 0 1.554-2.426 13.869 13.869 0 0 0 .759-3.6q.188-2.084.189-4.359a16.465 16.465 0 0 0-.644-4.966 9.466 9.466 0 0 0-1.705-3.261 6.5 6.5 0 0 0-2.389-1.82 6.616 6.616 0 0 0-2.616-.569h-1.82v13.5a3.665 3.665 0 0 1 1.365-.834 3.83 3.83 0 0 1 1.668-.228 3.5 3.5 0 0 1 1.517.493 2.715 2.715 0 0 1 1.062 1.327 4 4 0 0 0-2.313.228 4.294 4.294 0 0 0-1.781 1.327 4.708 4.708 0 0 0-.911 2.008 4.228 4.228 0 0 0 .228 2.351" class="cls-3" data-name="Path 187" transform="translate(-28.763 -13.579)"/>
        <path id="Path_188" d="M181.467 58.467a12.621 12.621 0 0 1 9.326 3.981 13.691 13.691 0 0 1 2.729 4.322 14.071 14.071 0 0 1 .986 5.269v26.688a14.066 14.066 0 0 1-.986 5.269 13.665 13.665 0 0 1-2.729 4.322 12.617 12.617 0 0 1-9.326 3.98h-15.846a7.436 7.436 0 0 0 .834-1.971 23.5 23.5 0 0 0 .568-2.844 30.906 30.906 0 0 0 .266-4.435V67.717a30.948 30.948 0 0 0-.266-4.435 23.578 23.578 0 0 0-.568-2.843 7.465 7.465 0 0 0-.834-1.972zm5 13.572a20.8 20.8 0 0 0-.341-3.374 12.209 12.209 0 0 0-1.366-3.866 9.539 9.539 0 0 0-2.8-3.146 7.642 7.642 0 0 0-4.587-1.289h-2.048v41.625a7.063 7.063 0 0 1 1.517-.758 5.086 5.086 0 0 1 2.464 0 2.14 2.14 0 0 1 1.631 1.592 4 4 0 0 0-2.313.228 4.306 4.306 0 0 0-1.781 1.327 4.716 4.716 0 0 0-.911 2.009 3.872 3.872 0 0 0 .3 2.35 2.44 2.44 0 0 0 1.1 1.137 3.921 3.921 0 0 0 2.084.531h.607a3.824 3.824 0 0 0 2.881-1.289 10.683 10.683 0 0 0 2.01-3.147 18.514 18.514 0 0 0 1.175-3.866 18.756 18.756 0 0 0 .379-3.374z" class="cls-3" data-name="Path 188" transform="translate(-38.464 -13.579)"/>
        <path id="Path_189" d="M218.875 103.049a36.047 36.047 0 0 0 .227 4.435 13.913 13.913 0 0 0 .607 2.843 5.117 5.117 0 0 0 .834 1.972H209.17a7.405 7.405 0 0 0 .834-1.972 23.441 23.441 0 0 0 .57-2.843 31.051 31.051 0 0 0 .265-4.435V67.717a31.062 31.062 0 0 0-.265-4.435 23.552 23.552 0 0 0-.57-2.844 7.421 7.421 0 0 0-.834-1.971h11.373a5.124 5.124 0 0 0-.834 1.971 13.958 13.958 0 0 0-.607 2.844 36.06 36.06 0 0 0-.227 4.435v35.332z" class="cls-3" data-name="Path 189" transform="translate(-48.578 -13.579)"/>
        <path id="Path_190" d="M246.809 112.3a8.429 8.429 0 0 0 .683-1.744 14.569 14.569 0 0 0 .341-2.236 11.743 11.743 0 0 0-.266-3.222L244 86.6h-7.886l-5 21.685a7.283 7.283 0 0 0-.152 1.44v1.289a10.39 10.39 0 0 0 .076 1.289h-4.094a6.939 6.939 0 0 0 .683-1.213 11.071 11.071 0 0 0 .569-1.4q.264-.795.568-1.781L239.3 62.258a25.576 25.576 0 0 0-.985-2.881l-.455-.911h8.719l4.7 24.111 4.7 24.111a13.391 13.391 0 0 0 .611 2.312 17.822 17.822 0 0 0 .759 1.782 10.637 10.637 0 0 0 .834 1.516zm-3.26-28.129l-3.184-16.3-3.715 16.3z" class="cls-3" data-name="Path 190" transform="translate(-52.706 -13.579)"/>
        <path id="Path_191" d="M300.1 58.467a8.532 8.532 0 0 0-.683 1.364 6.374 6.374 0 0 0-.492 1.441 8.153 8.153 0 0 0-.19 1.82V112.3h-2.426l-20.93-44.431v39.8a8.18 8.18 0 0 0 .189 1.82 10.908 10.908 0 0 0 .418 1.441 8.345 8.345 0 0 0 .682 1.364h-5.08a8.6 8.6 0 0 0 .683-1.364 15.188 15.188 0 0 0 .455-1.479 7.668 7.668 0 0 0 .227-1.933V66.807a30.1 30.1 0 0 0-.341-3.981 21.022 21.022 0 0 0-.569-2.54 5.159 5.159 0 0 0-.758-1.744h8.339l16.681 35.028V63.244a7.647 7.647 0 0 0-.228-1.934q-.228-.871-.454-1.479-.305-.757-.607-1.364z" class="cls-3" data-name="Path 191" transform="translate(-63.004 -13.579)"/>
        <path id="Path_192" d="M302.939 1.493c-.34 9.773-5 15.5-13.215 17.727l.246.645 7.757-1.558c-.229 4.558-4.558 7.65-13.523 9.506l3.418 1.161a6.521 6.521 0 0 1-5.574 3.483 13.361 13.361 0 0 1-5.039-.431c-2.931-1.037-5.3-.217-7.5 2.029-.374.382-.8.7-1.516 1.317.166-.832.235-1.264.337-1.683 1.228-5.036 2.643-10.021 3.641-15.119.914-4.68 3.24-7.357 7.1-8.4 3.981-1.073 8.048-1.8 11.936-3.216 4.041-1.473 7.909-3.592 11.93-5.465" class="cls-4" data-name="Path 192" transform="translate(-62.241 -.347)"/>
        <path id="Path_193" d="M0 1.493c.339 9.773 5 15.5 13.214 17.727l-.246.645-7.757-1.558c.228 4.558 4.559 7.65 13.523 9.506l-3.419 1.161a6.521 6.521 0 0 0 5.574 3.483 13.368 13.368 0 0 0 5.04-.431c2.93-1.037 5.3-.217 7.5 2.029.372.382.8.7 1.514 1.317-.165-.832-.233-1.264-.336-1.683-1.228-5.036-2.643-10.021-3.641-15.119-.916-4.68-3.24-7.357-7.1-8.4-3.98-1.073-8.048-1.8-11.935-3.216C7.889 5.485 4.02 3.366 0 1.493" class="cls-4" data-name="Path 193" transform="translate(0 -.347)"/>
    </g>
</svg>
