<svg xmlns="http://www.w3.org/2000/svg" id="ranger-title" width="200.992" height="99.758" viewBox="0 0 200.992 99.758">
    <defs>
        <style>
            .cls-1{fill:none}.cls-2{clip-path:url(#clip-path)}.cls-3{fill:#2a4719}.cls-4{fill:#ff7b03}
        </style>
        <clipPath id="clip-path">
            <path id="Rectangle_65" d="M0 0h200.993v99.758H0z" class="cls-1" data-name="Rectangle 65"/>
        </clipPath>
    </defs>
    <g id="Group_85" class="cls-2" data-name="Group 85">
        <path id="Path_302" d="M29.587 101.233a32.294 32.294 0 0 0 1.99 5.453 7.351 7.351 0 0 0 2.786 2.985 6.79 6.79 0 0 1-2.666.955 17.009 17.009 0 0 1-2.428.239 9.047 9.047 0 0 1-4.975-1.711 8.139 8.139 0 0 1-2.906-4.9l-4.855-23.717a7.009 7.009 0 0 1-4.06-1.512v21.412a37.713 37.713 0 0 0 .239 4.657 14.67 14.67 0 0 0 .637 2.985 5.378 5.378 0 0 0 .875 2.069H2.285a7.808 7.808 0 0 0 .875-2.069 24.556 24.556 0 0 0 .6-2.985 32.446 32.446 0 0 0 .278-4.657V63.344a32.465 32.465 0 0 0-.278-4.656 24.684 24.684 0 0 0-.6-2.985 7.82 7.82 0 0 0-.875-2.069h14.089a21.636 21.636 0 0 1 5.771.716 11.835 11.835 0 0 1 4.455 2.267 10.3 10.3 0 0 1 2.905 4.02 15.673 15.673 0 0 1 1.036 6.05 14.605 14.605 0 0 1-2.786 9.234 12.165 12.165 0 0 1-7.881 4.458 12.572 12.572 0 0 1 1.911 1.114 11.672 11.672 0 0 1 2.03 1.831 13.846 13.846 0 0 1 1.831 2.666 14.5 14.5 0 0 1 1.314 3.622zM13.349 76.8a2.716 2.716 0 0 0 1.235 1.234 4.321 4.321 0 0 0 2.268.6 3.721 3.721 0 0 0 2.626-.955 6.5 6.5 0 0 0 1.633-2.547 14.586 14.586 0 0 0 .8-3.781q.2-2.188.2-4.577a17.3 17.3 0 0 0-.677-5.214 9.931 9.931 0 0 0-1.79-3.422 6.838 6.838 0 0 0-2.508-1.911 6.937 6.937 0 0 0-2.746-.6h-1.916v14.164a3.854 3.854 0 0 1 1.433-.875 4.026 4.026 0 0 1 1.751-.239 3.661 3.661 0 0 1 1.592.517 2.86 2.86 0 0 1 1.114 1.393 4.2 4.2 0 0 0-2.428.239 4.517 4.517 0 0 0-1.87 1.393 4.956 4.956 0 0 0-.955 2.11 4.442 4.442 0 0 0 .239 2.467" class="cls-3" data-name="Path 302" transform="translate(-.473 -11.108)"/>
        <path id="Path_303" d="M63.5 110.15a8.812 8.812 0 0 0 .717-1.831 15.277 15.277 0 0 0 .358-2.349 12.337 12.337 0 0 0-.279-3.383l-3.74-19.423h-8.283l-5.253 22.767a7.652 7.652 0 0 0-.159 1.512v1.357a10.765 10.765 0 0 0 .079 1.353h-4.3a7.271 7.271 0 0 0 .716-1.274 11.419 11.419 0 0 0 .6-1.472q.278-.836.6-1.87l11.065-47.92a26.781 26.781 0 0 0-1.036-3.025l-.477-.955h9.154l4.935 25.313 4.935 25.312a13.884 13.884 0 0 0 .637 2.428 18.659 18.659 0 0 0 .8 1.871 11.19 11.19 0 0 0 .876 1.592zm-3.425-29.533L56.731 63.5l-3.9 17.114z" class="cls-3" data-name="Path 303" transform="translate(-8.832 -11.108)"/>
        <path id="Path_304" d="M117.965 53.633a8.942 8.942 0 0 0-.716 1.433 6.635 6.635 0 0 0-.518 1.512 8.606 8.606 0 0 0-.2 1.911v51.661h-2.548L92.015 63.5v41.79a8.578 8.578 0 0 0 .2 1.91 11.663 11.663 0 0 0 .438 1.513 8.91 8.91 0 0 0 .717 1.433h-5.334a9.042 9.042 0 0 0 .716-1.433 16.164 16.164 0 0 0 .478-1.552 8.056 8.056 0 0 0 .239-2.03V62.389a31.538 31.538 0 0 0-.359-4.179 21.821 21.821 0 0 0-.6-2.666 5.385 5.385 0 0 0-.8-1.831h8.757l17.511 36.776V58.648a8.07 8.07 0 0 0-.238-2.03 16.08 16.08 0 0 0-.478-1.552q-.319-.794-.637-1.433z" class="cls-3" data-name="Path 304" transform="translate(-18.167 -11.108)"/>
        <path id="Path_305" d="M160.34 109.962a10.517 10.517 0 0 1-3.662-.438 7.656 7.656 0 0 1-1.831-1.074 15.263 15.263 0 0 1-3.662 1.631 14.9 14.9 0 0 1-4.3.6 15.415 15.415 0 0 1-5.531-.955 13.351 13.351 0 0 1-4.3-2.587 12.1 12.1 0 0 1-2.826-3.821 10.748 10.748 0 0 1-1.035-4.657V64.749a12.224 12.224 0 0 1 .916-4.7 10.254 10.254 0 0 1 2.706-3.821 13.38 13.38 0 0 1 4.5-2.548 18.875 18.875 0 0 1 6.289-.955 16.206 16.206 0 0 1 6.567 1.154 11.373 11.373 0 0 1 4.06 2.866 9.686 9.686 0 0 1 2.029 3.662 13.037 13.037 0 0 1 .558 3.543 10.443 10.443 0 0 1-.8 4.259 9.279 9.279 0 0 1-1.99 2.946 7.857 7.857 0 0 1-2.628 1.711 7.469 7.469 0 0 1-2.706.557 8.759 8.759 0 0 1-5.771-1.751 4.977 4.977 0 0 1-2.11-3.821 6.451 6.451 0 0 0 2.667.4 7.959 7.959 0 0 0 2.628-.594 7.14 7.14 0 0 0 2.188-1.426 5.929 5.929 0 0 0 1.433-2.1 8.037 8.037 0 0 0 .438-2.651 7.488 7.488 0 0 0-.6-3.124 6.338 6.338 0 0 0-2.031-2.572 6.066 6.066 0 0 0-3.781-1.069 6.169 6.169 0 0 0-2.985.636 5.789 5.789 0 0 0-1.87 1.587 5.7 5.7 0 0 0-1 2.064 8.2 8.2 0 0 0-.279 1.984v41.35a9.552 9.552 0 0 0 .239 1.985 6.354 6.354 0 0 0 .836 2.064 5.46 5.46 0 0 0 1.592 1.626 4.514 4.514 0 0 0 2.586.675 4.59 4.59 0 0 0 2.508-.634 4.661 4.661 0 0 0 1.552-1.589 6.228 6.228 0 0 0 .756-2.063 11.864 11.864 0 0 0 .2-2.065V89.557q-.08-2.776-.318-4.643a20.968 20.968 0 0 0-.557-2.977 5.394 5.394 0 0 0-.876-2.064h10.201z" class="cls-3" data-name="Path 305" transform="translate(-27.586 -10.921)"/>
        <path id="Path_306" d="M200.156 110.15h-26.905a7.793 7.793 0 0 0 .875-2.069 24.932 24.932 0 0 0 .6-2.985 32.583 32.583 0 0 0 .278-4.657V63.344a32.606 32.606 0 0 0-.278-4.657 25.031 25.031 0 0 0-.6-2.985 7.805 7.805 0 0 0-.875-2.069h26.108l-.716 7.881h-1.832q-.4-1.591-.8-2.706a4.414 4.414 0 0 0-1.194-1.832 4.927 4.927 0 0 0-2.307-1.035 21.738 21.738 0 0 0-4.219-.318h-4.851V72.9a29.806 29.806 0 0 0 4.377 0q1.989-.158 3.423-.318a29.482 29.482 0 0 0 2.946-.557 6.481 6.481 0 0 1 .08 1.035 8.234 8.234 0 0 1-.4 2.229 2.329 2.329 0 0 1-1.751 1.552 4.929 4.929 0 0 1-2.706-.039l-5.969-1.672v29.62a3.23 3.23 0 0 0 .2.993 3.157 3.157 0 0 0 .716 1.152 3.792 3.792 0 0 0 1.473.913 7.139 7.139 0 0 0 2.467.357h2.787a5.629 5.629 0 0 0 2.944-.676 5.149 5.149 0 0 0 1.791-1.831 9.9 9.9 0 0 0 1.036-2.548q.357-1.392.755-2.826h1.832z" class="cls-3" data-name="Path 306" transform="translate(-35.882 -11.108)"/>
        <path id="Path_307" d="M239.3 101.233a32.3 32.3 0 0 0 1.99 5.453 7.351 7.351 0 0 0 2.786 2.985 6.79 6.79 0 0 1-2.666.955 17.009 17.009 0 0 1-2.428.239 9.047 9.047 0 0 1-4.975-1.711 8.139 8.139 0 0 1-2.906-4.9l-4.851-23.717a7.009 7.009 0 0 1-4.06-1.512v21.412a37.715 37.715 0 0 0 .239 4.657 14.669 14.669 0 0 0 .637 2.985 5.377 5.377 0 0 0 .875 2.069H212a7.809 7.809 0 0 0 .875-2.069 24.559 24.559 0 0 0 .6-2.985 32.445 32.445 0 0 0 .278-4.657V63.344a32.464 32.464 0 0 0-.278-4.656 24.687 24.687 0 0 0-.6-2.985 7.821 7.821 0 0 0-.875-2.07h14.089a21.636 21.636 0 0 1 5.771.716 11.835 11.835 0 0 1 4.458 2.268 10.3 10.3 0 0 1 2.905 4.02 15.673 15.673 0 0 1 1.035 6.05 14.605 14.605 0 0 1-2.786 9.234 12.166 12.166 0 0 1-7.881 4.458 12.573 12.573 0 0 1 1.911 1.114 11.673 11.673 0 0 1 2.03 1.831 13.846 13.846 0 0 1 1.831 2.666 14.5 14.5 0 0 1 1.314 3.622zM223.066 76.8a2.716 2.716 0 0 0 1.234 1.23 4.321 4.321 0 0 0 2.268.6 3.721 3.721 0 0 0 2.626-.955 6.5 6.5 0 0 0 1.633-2.547 14.587 14.587 0 0 0 .8-3.781q.2-2.188.2-4.577a17.3 17.3 0 0 0-.677-5.214 9.931 9.931 0 0 0-1.79-3.422 6.838 6.838 0 0 0-2.508-1.911 6.937 6.937 0 0 0-2.746-.6h-1.911v14.168a3.854 3.854 0 0 1 1.433-.875 4.026 4.026 0 0 1 1.751-.239 3.66 3.66 0 0 1 1.592.517 2.86 2.86 0 0 1 1.114 1.393 4.2 4.2 0 0 0-2.428.239 4.517 4.517 0 0 0-1.87 1.393 4.955 4.955 0 0 0-.955 2.11 4.442 4.442 0 0 0 .239 2.467" class="cls-3" data-name="Path 307" transform="translate(-43.907 -11.108)"/>
        <path id="Path_308" d="M239 17.014c-4.1 5.4-8.373 10.566-13.478 14.774a25.111 25.111 0 0 1-1.035-5.925 16.122 16.122 0 0 1 4.783-12.831 35.956 35.956 0 0 1 8.817-6.218c2.735-1.477 5.509-2.858 8.267-4.278a.631.631 0 0 1 .2-.032c3.622 14.706-3.643 30.134-18.589 30.35 4.376-4.606 8.768-9.117 11.033-15.84" class="cls-4" data-name="Path 308" transform="translate(-46.487 -.519)"/>
        <path id="Path_309" d="M8 18.133a81.729 81.729 0 0 0 12.72 13.943 23.633 23.633 0 0 0 .977-5.591 15.215 15.215 0 0 0-4.513-12.109 33.91 33.91 0 0 0-8.323-5.869c-2.581-1.394-5.2-2.7-7.8-4.037a.611.611 0 0 0-.191-.031c-3.421 13.879 3.435 28.439 17.541 28.644-4.13-4.347-8.275-8.6-10.412-14.95" class="cls-4" data-name="Path 309" transform="translate(0 -.919)"/>
        <path id="Path_310" d="M43.523.54a12.932 12.932 0 0 1 3.455.429 7.08 7.08 0 0 1 2.67 1.36 6.128 6.128 0 0 1 1.74 2.431 9.437 9.437 0 0 1 .619 3.6 8.514 8.514 0 0 1-2.121 6.1A7.842 7.842 0 0 1 43.9 16.7a4.17 4.17 0 0 1-1.5-.262 4.286 4.286 0 0 1-1.216-.691v12.829a22.814 22.814 0 0 0 .143 2.789 8.849 8.849 0 0 0 .382 1.788 3.21 3.21 0 0 0 .525 1.239h-7.151a4.669 4.669 0 0 0 .524-1.239 14.893 14.893 0 0 0 .358-1.788 19.441 19.441 0 0 0 .167-2.789V6.357a19.461 19.461 0 0 0-.167-2.789 14.958 14.958 0 0 0-.358-1.788 4.688 4.688 0 0 0-.524-1.24zm.333 14.971a2.228 2.228 0 0 0 1.573-.572 3.7 3.7 0 0 0 .954-1.526 9.5 9.5 0 0 0 .453-2.264q.119-1.311.12-2.742a10.385 10.385 0 0 0-.406-3.1 5.905 5.905 0 0 0-1.072-2.074 4.094 4.094 0 0 0-1.5-1.144 4.15 4.15 0 0 0-1.644-.358h-1.149v8.486a2.311 2.311 0 0 1 .859-.524 2.419 2.419 0 0 1 1.049-.144 2.184 2.184 0 0 1 .978.334 1.571 1.571 0 0 1 .644.811 2.511 2.511 0 0 0-1.454.143 2.713 2.713 0 0 0-1.121.834 2.968 2.968 0 0 0-.572 1.264 2.658 2.658 0 0 0 .143 1.478 1.625 1.625 0 0 0 .739.739 2.679 2.679 0 0 0 1.407.358" class="cls-3" data-name="Path 310" transform="translate(-7.266 -.112)"/>
        <path id="Path_311" d="M67.117 34.393a5.25 5.25 0 0 0 .43-1.1 9.137 9.137 0 0 0 .214-1.407 7.374 7.374 0 0 0-.166-2.026l-2.241-11.63H60.4l-3.152 13.636a4.577 4.577 0 0 0-.1.906v.81a6.389 6.389 0 0 0 .048.81h-2.57a4.374 4.374 0 0 0 .429-.763 6.838 6.838 0 0 0 .358-.882q.167-.5.358-1.12L62.4 2.925a15.819 15.819 0 0 0-.619-1.813l-.289-.571h5.483L69.931 15.7l2.955 15.162a8.375 8.375 0 0 0 .382 1.454 10.993 10.993 0 0 0 .477 1.12 6.653 6.653 0 0 0 .525.954zM65.068 16.7l-2-10.251L60.729 16.7z" class="cls-3" data-name="Path 311" transform="translate(-11.313 -.112)"/>
        <path id="Path_312" d="M99.743.541a5.455 5.455 0 0 0-.43.859 3.99 3.99 0 0 0-.313.905 5.178 5.178 0 0 0-.119 1.144v30.944h-1.522L84.2 6.454v25.03a5.162 5.162 0 0 0 .119 1.144 7.014 7.014 0 0 0 .262.906 5.376 5.376 0 0 0 .429.858h-3.194a5.442 5.442 0 0 0 .429-.858 9.689 9.689 0 0 0 .286-.93 4.815 4.815 0 0 0 .143-1.216V5.786a19.192 19.192 0 0 0-.214-2.5 13.288 13.288 0 0 0-.358-1.6 3.216 3.216 0 0 0-.477-1.1h5.244l10.49 22.027V3.545a4.757 4.757 0 0 0-.144-1.216 9.455 9.455 0 0 0-.285-.929 12.27 12.27 0 0 0-.382-.859z" class="cls-3" data-name="Path 312" transform="translate(-16.905 -.112)"/>
        <path id="Path_313" d="M125.123 34.281a6.288 6.288 0 0 1-2.193-.262 4.534 4.534 0 0 1-1.1-.644 9.1 9.1 0 0 1-2.193.978 8.914 8.914 0 0 1-2.575.358 9.233 9.233 0 0 1-3.313-.572 7.993 7.993 0 0 1-2.575-1.55 7.268 7.268 0 0 1-1.693-2.288 6.443 6.443 0 0 1-.619-2.789V7.2a7.334 7.334 0 0 1 .548-2.813 6.157 6.157 0 0 1 1.624-2.287 8.037 8.037 0 0 1 2.694-1.528A11.306 11.306 0 0 1 117.494 0a9.693 9.693 0 0 1 3.934.691 6.789 6.789 0 0 1 2.433 1.716 5.8 5.8 0 0 1 1.215 2.193 7.819 7.819 0 0 1 .334 2.123 6.252 6.252 0 0 1-.477 2.55 5.542 5.542 0 0 1-1.193 1.764 4.713 4.713 0 0 1-1.573 1.026 4.493 4.493 0 0 1-1.621.333 5.247 5.247 0 0 1-3.456-1.049 2.979 2.979 0 0 1-1.264-2.288 3.879 3.879 0 0 0 1.6.239A4.787 4.787 0 0 0 119 8.941a4.275 4.275 0 0 0 1.311-.854 3.55 3.55 0 0 0 .858-1.257 4.79 4.79 0 0 0 .262-1.587 4.46 4.46 0 0 0-.357-1.871 3.8 3.8 0 0 0-1.216-1.541 3.637 3.637 0 0 0-2.264-.64 3.7 3.7 0 0 0-1.789.381 3.459 3.459 0 0 0-1.12.951 3.42 3.42 0 0 0-.6 1.235 4.924 4.924 0 0 0-.167 1.189v24.767a5.738 5.738 0 0 0 .143 1.189 3.811 3.811 0 0 0 .5 1.236 3.286 3.286 0 0 0 .953.974 2.71 2.71 0 0 0 1.549.4 2.751 2.751 0 0 0 1.5-.38 2.794 2.794 0 0 0 .929-.951 3.731 3.731 0 0 0 .454-1.236 7.135 7.135 0 0 0 .119-1.236v-7.652q-.049-1.662-.191-2.781a12.516 12.516 0 0 0-.333-1.783 3.228 3.228 0 0 0-.525-1.236h6.1z" class="cls-3" data-name="Path 313" transform="translate(-22.547)"/>
        <path id="Path_314" d="M142.429 0a8.928 8.928 0 0 1 3.242.572 8.1 8.1 0 0 1 2.551 1.55 6.671 6.671 0 0 1 1.644 2.288 6.9 6.9 0 0 1 .572 2.789v20.312a6.557 6.557 0 0 1-.62 2.837 6.985 6.985 0 0 1-1.692 2.264 8.308 8.308 0 0 1-2.551 1.526 8.779 8.779 0 0 1-3.195.572 9.1 9.1 0 0 1-3.267-.572 8.546 8.546 0 0 1-2.6-1.526 6.824 6.824 0 0 1-1.716-2.264 6.545 6.545 0 0 1-.62-2.837V7.2a6.242 6.242 0 0 1 .644-2.789 7.254 7.254 0 0 1 1.763-2.288A8.643 8.643 0 0 1 139.21.572 8.991 8.991 0 0 1 142.429 0m2.956 7.057a2.807 2.807 0 0 1-1.621.572 4.556 4.556 0 0 1-1.646-.406 1.394 1.394 0 0 1-.833-1.311 2.846 2.846 0 0 0 1.526.239 2.626 2.626 0 0 0 1.311-.52 2.5 2.5 0 0 0 .81-1.134A2.716 2.716 0 0 0 145 2.938v-.093a3.779 3.779 0 0 0-.905-1.157 2.481 2.481 0 0 0-1.669-.5 2.846 2.846 0 0 0-1.55.381 3.286 3.286 0 0 0-.977.953 3.53 3.53 0 0 0-.525 1.238 5.94 5.94 0 0 0-.139 1.24v24.8a5.751 5.751 0 0 0 .143 1.19 3.811 3.811 0 0 0 .5 1.238 3.25 3.25 0 0 0 .954.977 2.7 2.7 0 0 0 1.549.4 2.737 2.737 0 0 0 1.5-.381 2.816 2.816 0 0 0 .929-.954 3.754 3.754 0 0 0 .454-1.239 7.1 7.1 0 0 0 .119-1.24z" class="cls-3" data-name="Path 314" transform="translate(-27.79)"/>
        <path id="Path_315" d="M174.891 34.393h-16.116a4.681 4.681 0 0 0 .524-1.239 14.9 14.9 0 0 0 .358-1.788 19.583 19.583 0 0 0 .167-2.789V6.358a19.571 19.571 0 0 0-.167-2.789 14.9 14.9 0 0 0-.358-1.788 4.688 4.688 0 0 0-.524-1.24h7.152a3.22 3.22 0 0 0-.525 1.24 8.767 8.767 0 0 0-.381 1.788 22.481 22.481 0 0 0-.144 2.789v24.793a1.941 1.941 0 0 0 .119.6 1.913 1.913 0 0 0 .429.691 2.276 2.276 0 0 0 .882.548 4.269 4.269 0 0 0 1.479.215h1.669a3.373 3.373 0 0 0 1.764-.405 3.157 3.157 0 0 0 1.073-1.073 6.213 6.213 0 0 0 .644-1.5c.159-.555.317-1.12.476-1.692h1.1z" class="cls-3" data-name="Path 315" transform="translate(-32.884 -.112)"/>
        <path id="Path_316" d="M188.209 28.576a22.651 22.651 0 0 0 .144 2.789 8.686 8.686 0 0 0 .381 1.787 3.2 3.2 0 0 0 .524 1.24h-7.152a4.624 4.624 0 0 0 .524-1.24 14.543 14.543 0 0 0 .358-1.787 19.466 19.466 0 0 0 .167-2.789V6.358a19.474 19.474 0 0 0-.167-2.789 14.606 14.606 0 0 0-.358-1.787 4.624 4.624 0 0 0-.524-1.24h7.152a3.2 3.2 0 0 0-.524 1.24 8.71 8.71 0 0 0-.381 1.787 22.66 22.66 0 0 0-.144 2.789v22.218z" class="cls-3" data-name="Path 316" transform="translate(-37.716 -.112)"/>
        <path id="Path_317" d="M212.43.541a5.455 5.455 0 0 0-.43.859 4.028 4.028 0 0 0-.309.905 5.178 5.178 0 0 0-.119 1.144v30.944h-1.526L196.887 6.454v25.03a5.161 5.161 0 0 0 .119 1.144 6.894 6.894 0 0 0 .262.906 5.314 5.314 0 0 0 .429.858H194.5a5.442 5.442 0 0 0 .429-.858 9.693 9.693 0 0 0 .286-.93 4.816 4.816 0 0 0 .143-1.216V5.786a19.187 19.187 0 0 0-.214-2.5 13.434 13.434 0 0 0-.358-1.6 3.216 3.216 0 0 0-.477-1.1h5.244l10.49 22.027V3.545a4.794 4.794 0 0 0-.143-1.216 9.675 9.675 0 0 0-.285-.929c-.128-.318-.255-.6-.382-.859z" class="cls-3" data-name="Path 317" transform="translate(-40.244 -.112)"/>
    </g>
</svg>
