<svg id="Layer_1" data-name="Layer 1" xmlns="http://www.w3.org/2000/svg" viewBox="0 0 500 91"><defs><style>.cls-1{isolation:isolate;}.cls-2{fill:#fff;}</style></defs><title>aboutproject-title</title><g id="Component_1_1" data-name="Component 1 1"><g id="about_this_project" data-name="about this project" class="cls-1"><g class="cls-1"><path class="cls-2" d="M20,73a8.05,8.05,0,0,0,.66-1.68A13.06,13.06,0,0,0,21,69.17a11.13,11.13,0,0,0-.26-3.1L17.31,48.25H9.72L4.9,69.13a6.9,6.9,0,0,0-.14,1.39v1.24A9.75,9.75,0,0,0,4.83,73H.89a6.48,6.48,0,0,0,.65-1.17,9.68,9.68,0,0,0,.55-1.35c.17-.51.35-1.08.55-1.71L12.79,24.82a24.7,24.7,0,0,0-.95-2.77l-.44-.88h8.39l4.53,23.21L28.85,67.6a12.33,12.33,0,0,0,.58,2.22,17.47,17.47,0,0,0,.73,1.72A10.06,10.06,0,0,0,31,73ZM16.87,45.92l-3.06-15.7-3.58,15.7Z"/><path class="cls-2" d="M52.28,45A16.34,16.34,0,0,1,56,46.76a12.84,12.84,0,0,1,3.07,2.77,13.05,13.05,0,0,1,2.08,3.83,15,15,0,0,1,.77,5,17.11,17.11,0,0,1-1.21,6.79,12.08,12.08,0,0,1-7.92,7.08A20.32,20.32,0,0,1,47,73H33.52a6.12,6.12,0,0,0,.73-1.9,23.19,23.19,0,0,0,.54-2.74,29.61,29.61,0,0,0,.26-4.27v-34a29.61,29.61,0,0,0-.26-4.27,23.19,23.19,0,0,0-.54-2.74,6.12,6.12,0,0,0-.73-1.9H46.44a19.74,19.74,0,0,1,5.29.66,10.78,10.78,0,0,1,4.09,2.08,9.48,9.48,0,0,1,2.66,3.68,14.24,14.24,0,0,1,1,5.55,14.41,14.41,0,0,1-1.82,7.45A10.21,10.21,0,0,1,52.28,45Zm-9.49-.88h4.09a3.45,3.45,0,0,0,2.41-.87,6,6,0,0,0,1.49-2.34,13.07,13.07,0,0,0,.73-3.47q.18-2,.18-4.2A15,15,0,0,0,51,28.43a9.69,9.69,0,0,0-1.68-3.14,6.33,6.33,0,0,0-2.3-1.75A6.43,6.43,0,0,0,44.54,23H42.79Zm4.09,27.08a4.6,4.6,0,0,0,2.81-1A8.81,8.81,0,0,0,52,67.39a16.14,16.14,0,0,0,1.57-4.08,20.51,20.51,0,0,0,.59-5A14.41,14.41,0,0,0,53.26,53a12.65,12.65,0,0,0-2.3-3.9,9.48,9.48,0,0,0-3.1-2.36,7.73,7.73,0,0,0-3.32-.8H42.79V63.14a4.5,4.5,0,0,1,1.46-.8,5,5,0,0,1,2.37,0,2.07,2.07,0,0,1,1.57,1.54,3.69,3.69,0,0,0-2.19.21,4.41,4.41,0,0,0-1.71,1.27,3.86,3.86,0,0,0-.88,1.91,4.18,4.18,0,0,0,.26,2.24,2.44,2.44,0,0,0,1.09,1.12A3.87,3.87,0,0,0,46.88,71.17Z"/><path class="cls-2" d="M79.14,20.51a13.56,13.56,0,0,1,5,.88A12.24,12.24,0,0,1,88,23.76a10.14,10.14,0,0,1,2.52,3.51,10.6,10.6,0,0,1,.88,4.27V62.63a10.1,10.1,0,0,1-1,4.35,11,11,0,0,1-2.59,3.47A12.77,12.77,0,0,1,84,72.78a13.32,13.32,0,0,1-4.89.88,13.79,13.79,0,0,1-5-.88,13.13,13.13,0,0,1-4-2.33A10.51,10.51,0,0,1,67.46,67a10.1,10.1,0,0,1-.95-4.35V31.54a9.5,9.5,0,0,1,1-4.27,11.23,11.23,0,0,1,2.7-3.51,13,13,0,0,1,4-2.37A13.65,13.65,0,0,1,79.14,20.51Zm4.53,10.81a4.32,4.32,0,0,1-2.48.87,6.68,6.68,0,0,1-2.52-.62,2.13,2.13,0,0,1-1.28-2,4.38,4.38,0,0,0,2.34.36,4,4,0,0,0,2-.8A3.73,3.73,0,0,0,83,27.4,4.09,4.09,0,0,0,83.08,25v-.14A5.65,5.65,0,0,0,81.7,23.1a3.8,3.8,0,0,0-2.56-.76,4.33,4.33,0,0,0-2.37.58,5.1,5.1,0,0,0-1.5,1.46,5.45,5.45,0,0,0-.8,1.89,9,9,0,0,0-.22,1.9v38A8.54,8.54,0,0,0,74.47,68a5.79,5.79,0,0,0,.77,1.89,4.85,4.85,0,0,0,1.46,1.5,4.13,4.13,0,0,0,2.37.62,4.08,4.08,0,0,0,3.72-2,5.89,5.89,0,0,0,.7-1.89,11,11,0,0,0,.18-1.9Z"/><path class="cls-2" d="M124,22.56a5.75,5.75,0,0,0-.48,1.42,8.16,8.16,0,0,0-.18,1.72c0,2.14,0,4.07,0,5.8s0,3.7,0,5.91V62.56a13.07,13.07,0,0,1-.73,4.38,11.46,11.46,0,0,1-2,3.58,9.48,9.48,0,0,1-3.23,2.41,10.08,10.08,0,0,1-4.24.87h-.73q-6.75,0-10.55-2.88T98,62.34V30.08a29,29,0,0,0-.26-4.24,21.32,21.32,0,0,0-.55-2.7,8.59,8.59,0,0,0-.8-2h11a5.64,5.64,0,0,0-.82,2,12.53,12.53,0,0,0-.59,2.7,32.76,32.76,0,0,0-.23,4.24v32a20.6,20.6,0,0,0,.33,3.8,8.81,8.81,0,0,0,1.1,3,5.67,5.67,0,0,0,2,2,6.13,6.13,0,0,0,3.1.73H113a7.6,7.6,0,0,0,3.29-.69,7.68,7.68,0,0,0,2.52-1.94,8.63,8.63,0,0,0,1.6-2.84,10.68,10.68,0,0,0,.55-3.51V25.77a7.67,7.67,0,0,0-.21-1.86c-.14-.56-.28-1-.41-1.43a9.39,9.39,0,0,0-.63-1.31h5A11.82,11.82,0,0,0,124,22.56Z"/><path class="cls-2" d="M157,21.17l-.66,7.23h-1.68c-.24-.93-.47-1.73-.69-2.41a3.76,3.76,0,0,0-1.06-1.68,4.75,4.75,0,0,0-2-1,15.89,15.89,0,0,0-3.65-.32V64.09a33.72,33.72,0,0,0,.22,4.27A13.25,13.25,0,0,0,148,71.1a4.89,4.89,0,0,0,.8,1.9H137.83a8.49,8.49,0,0,0,.81-1.9,23.19,23.19,0,0,0,.54-2.74,29.61,29.61,0,0,0,.26-4.27V23a15.83,15.83,0,0,0-3.65.32,4.64,4.64,0,0,0-2,1A3.76,3.76,0,0,0,132.69,26c-.22.68-.45,1.48-.7,2.41h-1.68l-.65-7.23Z"/><path class="cls-2" d="M197.76,21.17l-.65,7.23h-1.68c-.25-.93-.48-1.73-.7-2.41a3.74,3.74,0,0,0-1-1.68,4.73,4.73,0,0,0-2.05-1A15.77,15.77,0,0,0,188,23V64.09a33.72,33.72,0,0,0,.22,4.27,13.17,13.17,0,0,0,.59,2.74,4.89,4.89,0,0,0,.8,1.9h-11a8,8,0,0,0,.8-1.9,22.89,22.89,0,0,0,.55-2.74,29.79,29.79,0,0,0,.25-4.27V23a15.89,15.89,0,0,0-3.65.32,4.75,4.75,0,0,0-2,1A3.76,3.76,0,0,0,173.49,26c-.22.68-.45,1.48-.69,2.41h-1.68l-.66-7.23Z"/><path class="cls-2" d="M229.45,64.09a36,36,0,0,0,.21,4.27,13.17,13.17,0,0,0,.59,2.74,4.89,4.89,0,0,0,.8,1.9h-11a7.1,7.1,0,0,0,.8-1.9,21.06,21.06,0,0,0,.55-2.74,29.61,29.61,0,0,0,.26-4.27V40.88H211.05V64.09a33.72,33.72,0,0,0,.22,4.27,13.25,13.25,0,0,0,.58,2.74,4.89,4.89,0,0,0,.81,1.9H201.71a7.45,7.45,0,0,0,.8-1.9,25.08,25.08,0,0,0,.55-2.74,29.79,29.79,0,0,0,.25-4.27v-34a29.79,29.79,0,0,0-.25-4.27,25.08,25.08,0,0,0-.55-2.74,7.45,7.45,0,0,0-.8-1.9h10.95a5.65,5.65,0,0,0-.81,2,13.4,13.4,0,0,0-.58,2.74,33.07,33.07,0,0,0-.22,4.2v8.46h10.66V30.08a29.61,29.61,0,0,0-.26-4.27,21.06,21.06,0,0,0-.55-2.74,7.1,7.1,0,0,0-.8-1.9h11a7.92,7.92,0,0,0-.8,1.93,23.4,23.4,0,0,0-.55,2.74,29.15,29.15,0,0,0-.25,4.24v34Z"/><path class="cls-2" d="M244.26,64.09a35.71,35.71,0,0,0,.22,4.27,13.17,13.17,0,0,0,.59,2.74,4.89,4.89,0,0,0,.8,1.9h-11a7.1,7.1,0,0,0,.8-1.9,21.06,21.06,0,0,0,.55-2.74,29.61,29.61,0,0,0,.26-4.27v-34a29.61,29.61,0,0,0-.26-4.27,21.06,21.06,0,0,0-.55-2.74,7.1,7.1,0,0,0-.8-1.9h11a4.89,4.89,0,0,0-.8,1.9,13.17,13.17,0,0,0-.59,2.74,35.71,35.71,0,0,0-.22,4.27v34Z"/><path class="cls-2" d="M257.26,29.42a10.18,10.18,0,0,0,1.46,5.36,28.38,28.38,0,0,0,3.61,4.79c1.43,1.55,3,3.09,4.67,4.6a52.13,52.13,0,0,1,4.67,4.74,26.36,26.36,0,0,1,3.62,5.37,14,14,0,0,1,1.46,6.38q0,6.87-3.4,10.73t-10.18,3.87a17.53,17.53,0,0,1-4.93-.69,12.41,12.41,0,0,1-4.2-2.12,10.77,10.77,0,0,1-2.92-3.5A10.31,10.31,0,0,1,250,64.09a10.47,10.47,0,0,1,.84-4.34A9.93,9.93,0,0,1,253,56.68a8.69,8.69,0,0,1,2.74-1.82,7.25,7.25,0,0,1,2.73-.62q3.94,0,5.7,1.64a5,5,0,0,1,1.75,3.76,7,7,0,0,0-2.74-.33,8.06,8.06,0,0,0-2.66.66,6.89,6.89,0,0,0-2.19,1.5,6.62,6.62,0,0,0-1.46,2.19,6.74,6.74,0,0,0-.48,3.32,7.39,7.39,0,0,0,1,3.1,6.6,6.6,0,0,0,2.26,2.26,6.14,6.14,0,0,0,3.32.88,8.41,8.41,0,0,0,3.54-.69A7.57,7.57,0,0,0,269,70.74a6.75,6.75,0,0,0,1.43-2.49,8.94,8.94,0,0,0,.43-2.7,12.66,12.66,0,0,0-1.46-6.09,26,26,0,0,0-3.65-5.18,63.48,63.48,0,0,0-4.78-4.79,54.56,54.56,0,0,1-4.78-4.85,26.67,26.67,0,0,1-3.65-5.37,13.71,13.71,0,0,1-1.46-6.35,13.67,13.67,0,0,1,1-5.25,12,12,0,0,1,2.77-4.16,12.67,12.67,0,0,1,4.31-2.74,14.92,14.92,0,0,1,5.51-1,12.86,12.86,0,0,1,5.51,1.06,11.46,11.46,0,0,1,3.61,2.59,9.68,9.68,0,0,1,2,3.29,9.88,9.88,0,0,1-.14,7.26,8.66,8.66,0,0,1-1.94,2.81,8.16,8.16,0,0,1-2.48,1.64,6.38,6.38,0,0,1-2.48.55,8.76,8.76,0,0,1-2.67-.4,8.89,8.89,0,0,1-2.26-1.06A5.6,5.6,0,0,1,262.22,36a3.35,3.35,0,0,1-.58-1.9,6.13,6.13,0,0,0,2.55.33,7.36,7.36,0,0,0,2.45-.62,7.17,7.17,0,0,0,2-1.39,5.36,5.36,0,0,0,1.35-2,5.49,5.49,0,0,0,.4-2.45,7.41,7.41,0,0,0-.65-2.88,6.54,6.54,0,0,0-1.9-2.41,5.41,5.41,0,0,0-3.47-1,6.53,6.53,0,0,0-3.07.69,7.33,7.33,0,0,0-2.22,1.79,7.85,7.85,0,0,0-1.39,2.48A8.69,8.69,0,0,0,257.26,29.42Z"/><path class="cls-2" d="M300.76,21.17a19.82,19.82,0,0,1,5.3.66,10.66,10.66,0,0,1,4.08,2.08,9.42,9.42,0,0,1,2.67,3.72,14.46,14.46,0,0,1,.95,5.51q0,5.91-3.25,9.35t-9.16,3.43a6.57,6.57,0,0,1-2.3-.4,6.73,6.73,0,0,1-1.86-1.06V64.09a33.72,33.72,0,0,0,.22,4.27A13.25,13.25,0,0,0,298,71.1a4.89,4.89,0,0,0,.8,1.9h-11a7.42,7.42,0,0,0,.81-1.9,23.19,23.19,0,0,0,.54-2.74,29.61,29.61,0,0,0,.26-4.27v-34a29.61,29.61,0,0,0-.26-4.27,23.19,23.19,0,0,0-.54-2.74,7.42,7.42,0,0,0-.81-1.9Zm.51,22.92a3.41,3.41,0,0,0,2.41-.87,5.64,5.64,0,0,0,1.46-2.34,15,15,0,0,0,.7-3.47q.18-2,.18-4.2a16,16,0,0,0-.62-4.74,9.32,9.32,0,0,0-1.64-3.18A6.27,6.27,0,0,0,298.94,23h-1.75V36a3.42,3.42,0,0,1,1.31-.8,3.6,3.6,0,0,1,1.61-.22,3.36,3.36,0,0,1,1.49.51,2.4,2.4,0,0,1,1,1.24,3.85,3.85,0,0,0-2.23.22,4.09,4.09,0,0,0-1.71,1.28,4.55,4.55,0,0,0-.88,1.93,4,4,0,0,0,.22,2.26,2.47,2.47,0,0,0,1.13,1.13A4.07,4.07,0,0,0,301.27,44.09Z"/><path class="cls-2" d="M342.52,64.82a29.69,29.69,0,0,0,1.82,5,6.75,6.75,0,0,0,2.56,2.74,6.26,6.26,0,0,1-2.45.88,16.61,16.61,0,0,1-2.22.22,8.31,8.31,0,0,1-4.57-1.57A7.49,7.49,0,0,1,335,67.6l-4.45-21.76a6.41,6.41,0,0,1-3.73-1.38V64.09a35.71,35.71,0,0,0,.22,4.27,13.17,13.17,0,0,0,.59,2.74,4.89,4.89,0,0,0,.8,1.9H317.48a7.1,7.1,0,0,0,.8-1.9,21.06,21.06,0,0,0,.55-2.74,29.61,29.61,0,0,0,.26-4.27v-34a29.61,29.61,0,0,0-.26-4.27,21.06,21.06,0,0,0-.55-2.74,7.1,7.1,0,0,0-.8-1.9H330.4a19.69,19.69,0,0,1,5.29.66,10.7,10.7,0,0,1,4.09,2.08,9.6,9.6,0,0,1,2.67,3.68,14.43,14.43,0,0,1,.94,5.55,13.41,13.41,0,0,1-2.55,8.47,11.16,11.16,0,0,1-7.23,4.09,11.13,11.13,0,0,1,3.62,2.7,13.73,13.73,0,0,1,1.68,2.44,13.27,13.27,0,0,1,1.2,3.33ZM327.63,42.41a2.43,2.43,0,0,0,1.13,1.13,3.92,3.92,0,0,0,2.08.55,3.45,3.45,0,0,0,2.41-.87,6,6,0,0,0,1.49-2.34,13.07,13.07,0,0,0,.73-3.47c.12-1.34.19-2.74.19-4.2a16,16,0,0,0-.62-4.78,9.3,9.3,0,0,0-1.65-3.14,6.25,6.25,0,0,0-2.3-1.75,6.42,6.42,0,0,0-2.51-.54h-1.76V36a3.46,3.46,0,0,1,1.32-.8,3.56,3.56,0,0,1,1.6-.22,3.27,3.27,0,0,1,1.46.47,2.64,2.64,0,0,1,1,1.28,3.84,3.84,0,0,0-2.23.22,4.13,4.13,0,0,0-1.72,1.28,4.53,4.53,0,0,0-.87,1.93A4,4,0,0,0,327.63,42.41Z"/><path class="cls-2" d="M362.59,20.51a13.56,13.56,0,0,1,5,.88,12.24,12.24,0,0,1,3.9,2.37A10.14,10.14,0,0,1,374,27.27a10.43,10.43,0,0,1,.88,4.27V62.63a10.1,10.1,0,0,1-.95,4.35,10.81,10.81,0,0,1-2.59,3.47,12.77,12.77,0,0,1-3.91,2.33,13.32,13.32,0,0,1-4.89.88,13.79,13.79,0,0,1-5-.88,13.13,13.13,0,0,1-4-2.33A10.51,10.51,0,0,1,350.91,67a10.1,10.1,0,0,1-1-4.35V31.54a9.5,9.5,0,0,1,1-4.27,11.23,11.23,0,0,1,2.7-3.51,13,13,0,0,1,4-2.37A13.55,13.55,0,0,1,362.59,20.51Zm4.53,10.81a4.32,4.32,0,0,1-2.48.87,6.68,6.68,0,0,1-2.52-.62,2.13,2.13,0,0,1-1.28-2,4.38,4.38,0,0,0,2.34.36,4,4,0,0,0,2-.8,3.82,3.82,0,0,0,1.25-1.73,4.26,4.26,0,0,0,.11-2.39v-.14a5.84,5.84,0,0,0-1.39-1.77,3.8,3.8,0,0,0-2.56-.76,4.33,4.33,0,0,0-2.37.58,5.1,5.1,0,0,0-1.5,1.46,5.45,5.45,0,0,0-.8,1.89,9.65,9.65,0,0,0-.22,1.9v38a9.24,9.24,0,0,0,.22,1.82,5.79,5.79,0,0,0,.77,1.89,4.85,4.85,0,0,0,1.46,1.5,4.81,4.81,0,0,0,4.67,0,4.21,4.21,0,0,0,1.42-1.46,5.89,5.89,0,0,0,.7-1.89,11,11,0,0,0,.18-1.9Z"/><path class="cls-2" d="M407.2,21.17a4.89,4.89,0,0,0-.81,1.9,13.94,13.94,0,0,0-.58,2.74,33.72,33.72,0,0,0-.22,4.27V63.29a11,11,0,0,1-.84,4.27,9.91,9.91,0,0,1-2.48,3.51,12.17,12.17,0,0,1-4.13,2.37,17.36,17.36,0,0,1-5.76.87,15,15,0,0,1-6-1,10.13,10.13,0,0,1-3.57-2.48A8,8,0,0,1,381,67.63a11.8,11.8,0,0,1-.48-3.17,9.54,9.54,0,0,1,.73-3.91,8.78,8.78,0,0,1,1.86-2.73,7.38,7.38,0,0,1,2.45-1.61,6.83,6.83,0,0,1,2.48-.51,9,9,0,0,1,2.55.36,7.64,7.64,0,0,1,2.19,1,5.07,5.07,0,0,1,1.5,1.53,3.34,3.34,0,0,1,.55,1.82,6.5,6.5,0,0,0-4.82.26A5.85,5.85,0,0,0,386.76,64a5.64,5.64,0,0,0-.44,2.41,6.57,6.57,0,0,0,.62,2.81,5.81,5.81,0,0,0,1.9,2.3,5.56,5.56,0,0,0,3.39.95,4.73,4.73,0,0,0,2.7-.73,5.41,5.41,0,0,0,1.75-1.9,8.45,8.45,0,0,0,.92-2.66,17.66,17.66,0,0,0,.25-3V30.08a29.79,29.79,0,0,0-.25-4.27,25.08,25.08,0,0,0-.55-2.74,7.45,7.45,0,0,0-.8-1.9Z"/><path class="cls-2" d="M435.59,73H410.92a7.1,7.1,0,0,0,.8-1.9,21.06,21.06,0,0,0,.55-2.74,29.79,29.79,0,0,0,.25-4.27v-34a29.79,29.79,0,0,0-.25-4.27,21.06,21.06,0,0,0-.55-2.74,7.1,7.1,0,0,0-.8-1.9h23.94l-.65,7.23h-1.68c-.25-1-.49-1.8-.73-2.48a4,4,0,0,0-1.1-1.68,4.45,4.45,0,0,0-2.12-.95,19.33,19.33,0,0,0-3.86-.29h-4.46V38.84a29.9,29.9,0,0,0,4,0c1.21-.1,2.26-.2,3.14-.3a24.24,24.24,0,0,0,2.7-.51,5.73,5.73,0,0,1,.07.95,7.68,7.68,0,0,1-.36,2.05,2.15,2.15,0,0,1-1.61,1.42,4.45,4.45,0,0,1-2.48,0l-5.48-1.53V68a2.74,2.74,0,0,0,.19.91A2.93,2.93,0,0,0,421.1,70a3.55,3.55,0,0,0,1.35.84,6.59,6.59,0,0,0,2.27.32h2.55a5.09,5.09,0,0,0,2.7-.62,4.69,4.69,0,0,0,1.64-1.67,9,9,0,0,0,.95-2.34c.22-.85.45-1.72.7-2.59h1.68Z"/><path class="cls-2" d="M456.32,59.71a3,3,0,0,1,1.87-.69,5.56,5.56,0,0,1,2.55.4A5.38,5.38,0,0,1,463,61.21a5.53,5.53,0,0,1,1,3.47,10.59,10.59,0,0,1-.44,2.85A8.1,8.1,0,0,1,462,70.45a8.36,8.36,0,0,1-3.17,2.29,13,13,0,0,1-5.26.92,16.83,16.83,0,0,1-5.73-.88,12.33,12.33,0,0,1-4.13-2.37,9.62,9.62,0,0,1-2.51-3.51,10.91,10.91,0,0,1-.84-4.27V31.46a11,11,0,0,1,.84-4.27,9.59,9.59,0,0,1,2.51-3.5,12.33,12.33,0,0,1,4.13-2.37,16.83,16.83,0,0,1,5.73-.88,15,15,0,0,1,6,1A9.78,9.78,0,0,1,463.15,24a8.46,8.46,0,0,1,1.75,3.21,11.93,11.93,0,0,1,.48,3.18,9.62,9.62,0,0,1-.73,3.9,8.07,8.07,0,0,1-1.87,2.7,7.53,7.53,0,0,1-2.44,1.57,6.73,6.73,0,0,1-2.41.51,9.47,9.47,0,0,1-2.59-.36,7.37,7.37,0,0,1-2.23-1,5.18,5.18,0,0,1-1.49-1.54,3.34,3.34,0,0,1-.55-1.82,6.46,6.46,0,0,0,4.82-.26,5.85,5.85,0,0,0,3.28-3.32,5.77,5.77,0,0,0,.44-2.41,6.76,6.76,0,0,0-.62-2.81,6.06,6.06,0,0,0-1.9-2.3,6.5,6.5,0,0,0-6.09-.36,5.1,5.1,0,0,0-1.76,1.46,5.21,5.21,0,0,0-.91,1.9,7.59,7.59,0,0,0-.25,1.82v38a7.59,7.59,0,0,0,.25,1.82,5.29,5.29,0,0,0,.91,1.9A5.22,5.22,0,0,0,451,71.25a5.62,5.62,0,0,0,2.7.58,5.45,5.45,0,0,0,4.19-1.68,7.48,7.48,0,0,0,1.35-8A5.4,5.4,0,0,0,456.32,59.71Z"/><path class="cls-2" d="M496.69,21.17,496,28.4h-1.68c-.25-.93-.48-1.73-.7-2.41a3.76,3.76,0,0,0-1.06-1.68,4.64,4.64,0,0,0-2-1,15.83,15.83,0,0,0-3.65-.32V64.09a33.72,33.72,0,0,0,.22,4.27,13.25,13.25,0,0,0,.58,2.74,4.89,4.89,0,0,0,.81,1.9H477.57a8.47,8.47,0,0,0,.8-1.9,22.89,22.89,0,0,0,.55-2.74,29.79,29.79,0,0,0,.25-4.27V23a15.83,15.83,0,0,0-3.65.32,4.69,4.69,0,0,0-2,1A3.76,3.76,0,0,0,472.42,26c-.22.68-.45,1.48-.69,2.41h-1.68l-.66-7.23Z"/></g></g></g></svg>