<svg id="Layer_1" data-name="Layer 1" xmlns="http://www.w3.org/2000/svg" viewBox="0 0 300 80"><defs><style>.cls-1{fill:#fff;}</style></defs><title>pangolin-buttons</title><rect class="cls-1" x="10.5" y="10.5" width="280" height="58"/><path class="cls-1" d="M289.83,68.5c.09.36.29.15.25-.83l-.33-.69Z"/><path class="cls-1" d="M290.45,61.9c-.16-1.15-.44-2.48-.75-1.73.32,1.14.19,1.42.57,2.64,0,1-.11,1.72-.23,1.55a11.79,11.79,0,0,0,.13,2,14.73,14.73,0,0,0,.06-4.58C290.3,61.47,290.39,61.82,290.45,61.9Z"/><path class="cls-1" d="M246,10l.61,0A3.59,3.59,0,0,0,246,10Z"/><path class="cls-1" d="M186.64,9.85a1.53,1.53,0,0,0,.66-.07C186.88,9.81,186.54,9.83,186.64,9.85Z"/><path class="cls-1" d="M176.5,9.49l.6,0A2.09,2.09,0,0,0,176.5,9.49Z"/><path class="cls-1" d="M246,10l-1.59-.11C244.34,10,245.26,10,246,10Z"/><path class="cls-1" d="M289.65,48.68c0,.34.05.61.09.87,0-.28,0-.54,0-.81Z"/><path class="cls-1" d="M272.22,9.77h.48a3.09,3.09,0,0,0,.4-.14Z"/><path class="cls-1" d="M291.28,12.32a1.35,1.35,0,0,0-.14-.62,2.52,2.52,0,0,0-.25-.31,3.87,3.87,0,0,1,.19,1.13C291.14,12.53,291.2,12.47,291.28,12.32Z"/><path class="cls-1" d="M290.79,44.18l0,.57Z"/><path class="cls-1" d="M257.84,9.71a.45.45,0,0,0-.18-.1S257.73,9.68,257.84,9.71Z"/><path class="cls-1" d="M267.21,67.18s0,0,0,0S267.36,67.18,267.21,67.18Z"/><path class="cls-1" d="M290.5,68.57l-.32,0a.26.26,0,0,0-.07.16Z"/><path class="cls-1" d="M157.94,9.13H158C158.51,9.1,158.23,9.11,157.94,9.13Z"/><path class="cls-1" d="M9.34,33.44c.25-1.93.32,3.14.6.24C9.83,34,9.5,31,9.34,33.44Z"/><path class="cls-1" d="M289.69,48.16c0-.27,0-.54,0-.82A6.78,6.78,0,0,0,289.69,48.16Z"/><path class="cls-1" d="M9.94,33.68h0l0-.3Z"/><path class="cls-1" d="M115.18,9.3a1.42,1.42,0,0,0,.43.12S115.5,9.36,115.18,9.3Z"/><path class="cls-1" d="M147,9.7l-.78,0C146.56,9.69,146.81,9.7,147,9.7Z"/><path class="cls-1" d="M98.64,9.7a7,7,0,0,0-1.16,0l.17,0A3.4,3.4,0,0,1,98.64,9.7Z"/><path class="cls-1" d="M81.42,9.7l.32.05h.54Z"/><path class="cls-1" d="M214.88,67.32a2.91,2.91,0,0,1,.8.25C215.41,67.37,217.94,67.3,214.88,67.32Z"/><path class="cls-1" d="M289.81,48.67a.92.92,0,0,1-.12-.51v.58S289.78,48.8,289.81,48.67Z"/><path class="cls-1" d="M97.94,11.91l-2.74,0C96,11.9,97,11.91,97.94,11.91Z"/><path class="cls-1" d="M91.37,67.36l.63,0A2.94,2.94,0,0,0,91.37,67.36Z"/><path class="cls-1" d="M87.08,11.91a12.23,12.23,0,0,0-1.54-.19,2.21,2.21,0,0,0-.32.07Z"/><path class="cls-1" d="M215.68,67.57Z"/><path class="cls-1" d="M233.7,66.9c-2.6,0-1.22.37-1.78.58-3.11.1-1.43-.27-2.49-.46-2,.09-3.44.43-4.88.42-.11-.06-.39-.08-.06-.16-2.06.29-6.1,0-8.49.38a1,1,0,0,1-.32-.09c.39.19.45.37.37.51a9,9,0,0,1-2.61,0,2.79,2.79,0,0,0,1.12-.17l-1.23.11c-1.1-.35,1.67-.12,1.67-.38-2.39.12-5.17.4-7,.3-.38-.34,4.28-.11,1.84-.41l2.83.13c-2.16-.54,1.72,0-.27-.54-3.72-.1-4.16.18-7.88.08-.84.18.28.28-.56.46-5.28.34-4.16-.85-8-.4a8.4,8.4,0,0,1-4.16.43l.94-.38c-3.6,0-2.06.55-5.83.29.67-.15,2.83-.13,2.29-.17-2.45-.31-1.73.22-3.62.22l-.39-.34c-3.83,0-8.06.29-12.32.36.24-.1,1-.21,0-.31-5.36.17-11.45,0-16.62-.25l-2,.3c-.46,0-.85-.14-.35-.19-2-.12-.11.18-1.08.3-1.14,0-1.51-.17-.78-.26a112.37,112.37,0,0,1-13.89.22l.73-.08c-2.92-.12-3.29.6-6,.32l.52,0c-6.33-.13-13.34.14-18.17-.3-.92.42-6.27-.19-6.68.4-3.61-.29-2.58-.4-7.67-.59-1.36,0-2,.37-3.71.43l-.05-.31-2.28.32-1.21-.37L92,67.32c.63,0,1.33.14,1.24.23a25.91,25.91,0,0,1-6.07-.37l-5.83.26a8.33,8.33,0,0,1,1.88-.25c-3.12.32-.57-.32-3.42,0,.38.07-.21.18-.27.24a57.69,57.69,0,0,0-7.06-.11l.46-.21c-4.32,0-9.11.1-14,.1,1.74.1,1.34.46-.08.5l-.57-.33c-.92.21,1.49.13-.4.37-1.81,0-1.22-.37-.18-.47l-2.2.11c-.13-.1.39-.15.52-.27-.9.2-3.8-.33-5.11,0L50.82,67c-4.86,0-7.06.1-11,.12-.08.28-1.62.22-2.8.45-2.91-.09-6.13-.31-9.63-.29-2.46.14-.72.24-1.82.41-.18-.26-3.68-.24-1.87-.42-4.2,0-5.36,0-10.67.26.57.1,1.22.15.88.24a9.51,9.51,0,0,1-1.44-.06c-.48,0-.47-.11-.45-.17l.1,0-.71.07V66.32l.06-2.26c.07-1.51.15-3,.22-4.53a53.65,53.65,0,0,0,0-7.94l0,.27-.28-4.93c.05-2.26.19,1.36.35-.31-.42-5.32.06-8.4-.22-12.77.76-3.39-.05-12,.43-16.59l-.18.27a7.72,7.72,0,0,1,.14-2.3c-.13.12-.16,1.28-.25.55q0-2-.06-4.14l5.22.06,6.43.13,12.85.29c3.75.05,2.13-.92,6.86-.5L41.65,12c7.57-.39,15.49,0,22.9-.32a3.6,3.6,0,0,1-1.18.17,22.39,22.39,0,0,0,5.82-.18c1.15,0,.26.18,1,.28,1.58.14,4-.31,4.78-.07.14,0-.44.08-.73.1,1-.12,4.77,0,3.79-.25,2.78.13,5.32-.13,7.54,0,1.45-.31,4.76.15,5.22-.29-.2.45,4.88.36,6.64.15-.59.14,1.53.14.84.33,2,0,3.85-.09,3.5-.32,3.7.54,7.43-.44,9.51.26,6-.24,11.48-.41,16.85-.52-.19.46-5.93.05-5.7.52,5.09-.18,8-.57,13.07-.46,1.31.06-.74.19-1.18.27,5.08-.18,9.83,0,14.35-.2a4.2,4.2,0,0,1-1,.12c.89,0,2.07.07,2-.14l-.87.06c-1.42-.3,3.54-.63,3.7-.78-1.51.59,4.47.15,2.07.89.58,0,1.32-.14,1.19-.28.87,0,1.14.12.26.28,3.19-.11,2.06-.33,4.95-.32,0,.1-.59.13-.89.25a28.45,28.45,0,0,1,5.38-.3c-.15.06.14.13-.59.13,4.2,0,7.15-.51,11.76-.33-1.36.44,1.57.15,1.81.52l2.48-.11-1-.18c2.17,0,4.09-.27,6-.15l-1.61.16,4.06-.07-2.3-.14c2.2-.2-.24-.48,2.65-.37-.58,0,2.17,0,3.3.22h0a20.44,20.44,0,0,1,3.78-.15c.42.12-.34.41-.06.49,1-.31,5.08-.08,6.42-.42-.45.08-.47.28-.33.32l.89-.25c1,.08,1.16.12,1,.27,3,.05-1-.47,2.63-.27-.28,0-.15.06-.73.1,3.6.11,7-.16,10.27,0,1,.38-2.89.1-1.77.41,4.77-.07,9.88-.45,14.5-.36l-.86,0c.64-.53,3.44.26,5.78,0-.57,0-.75.3-.59.24,3.16.08,6.47-.13,11.26-.3l-.59.14c1.86.12,4.91.07,6.92.13.6-.14,1.75-.12,1.05-.31,6.21.77,11.85-.42,17.36.23-.66,0-1.57.11-1.05.12l4.7-.13c-.37-.23-.62-.14-1.6-.32a17,17,0,0,1,3.08-.24c-2.11.15,0,.37.93.5-.15-.07.16-.15.08-.22,2.45.41.41-.47,3.76-.19l-.18.12c1.26-.06,2.41-.22,3.76-.19.56.27-1.33.13-1.42.35,1.9,0,3.75-.51,5.46-.24-.8.07-2,.07-2.77.15a18.24,18.24,0,0,0,3.48.28H287l1.61.07.58,0,.43,0-.42-.08a3.65,3.65,0,0,1,.91-.24,5.9,5.9,0,0,1,.13,1.15c0,.51,0,1.07,0,1.63a25.57,25.57,0,0,0,.2,3.7c-.43-3.11-.25-.51-.55-.75-.08.82-.18,2.06-.26,1.71.24,1.51-.19,2.52.16,4.65-.1.1,0,1.62-.25,1.28.07,2,.17-.46.29-.3.33,3-.4,7.12.05,11.48.19,3.76.52,4.46.68,7.94-.15,1.18-.35-1-.35-1a35,35,0,0,0,0,5.12c-.08-.36-.15,0-.26.56,0,1.43.35,1,.21,2.85a7.51,7.51,0,0,1-.39-1.43c.09,1.69.27,3.36.36,5.11-.17.47-.26-1.06-.37-1.67a35.45,35.45,0,0,0,.42,5.71l.1-1.27c0,.72-.23.37-.28-.16a4.08,4.08,0,0,1,.19-2.53l.06,1.25c.57-1.28-.09-5-.06-7.52l.42,1-.35-2.57c.11-.55.34-.92.4.32.21-1.8-.14-1.6.09-3.15,0-.17,0-.09.07.07l-.13-1.76c.09.34.3-.29.24.79.24-3.16-.31-5.09,0-6.28l0,.26c-.14-4.38-.31-.42-.67-3.71l.76-2.21-.31-.43c0-.45,0-1.35.16-1.18-.21-1.69-.14.28-.33-.69.28-2.18-.13-6,.35-6.49-.23-.78-.18,2.08-.34-.24.53-.67-.09-2.69.15-4.68.27.61.13,2.5.37.51-.46-1.2.1-3.87,0-5.55-.08,0-.14-.19-.17-.63s-.05-1-.05-1.75h-2.5c-.77,0-1.56,0-2.3,0,.18-.12-5.29-.2-7.91-.33l.08-.06c-.51.36-3.21.29-5.17.37.07-.22.43-.31,1.49-.4H272.7a9.89,9.89,0,0,1-2.21.22l.47-.28c-2.46,0-5,.33-8.12.14-.18.26,2.52.72-.83.89-.12-.14-.25-.38.63-.43a9.44,9.44,0,0,1-1.6,0l1.33-.23c-1.44-.1-.75.19-1.9.17,0-.19-.85-.14-.69-.29a11.63,11.63,0,0,0,1.45,0,21.07,21.07,0,0,1-3.39-.3c.11.11,0,.26-.95.29-2.46,0-.84-.24-2.28-.34-.59.14-2.16,0-2.21.29a2.55,2.55,0,0,1-1.13-.22c-1.27.13-5.94,0-4.51.35l.33,0-.21,0h0c-4.17.29-8.67-.17-12.81,0V10c-2.47.11-5.5.06-7.26.28-.73,0-1.73-.19-1.42-.3a32.77,32.77,0,0,1-4.83,0c1.9-.17-.65-.15,2-.13a30.43,30.43,0,0,0-5.64,0c.89-.25-1.85-.32-3-.24l1.72.18c-1.31,0-2.46,0-3.62,0l.63-.33c-5-.41-9.06.69-12.88,0-1.33.23,2.72.16,1.53.44-2.31,0-4.71-.53-5.44-.53-3.16-.18-3,.49-6.26.36.42.12.82.44-1.65.55-2.31,0-2.84-.5-1.38-.59.55,0,.82,0,.79.06.75,0,1.73-.09.82-.22l-.3.12c-1.15-.12-4.33-.11-3.59-.3-1.74.11-.74.19.55.25-3-.17-4.63,0-7.68-.12.48.07.93.21.45.21-4.48-.15-2,.22-5,.27-1.72-.18.62-.43-2.44-.28-1.86-.12-.39-.31.35-.41a49.92,49.92,0,0,1-6.79-.19l1.47-.1c-.88.06-1.59.06-2.33.06l.84.24a5.18,5.18,0,0,1-1.57-.15c-.89.16.68.4-1.08.61-1.15-.12-3.5.13-3.89-.18,3.61.1-.4-.32,2.65-.37a19.77,19.77,0,0,1-2.17,0c-.13,0,.12-.06.36-.08-3.45-.28-1.59.36-5.17.35.46-.18-.82-.34-1.41-.3,1.44,0,.69.3-.63.43a27.8,27.8,0,0,0-3.7.09l1.38.06a16,16,0,0,1-3.22.21c-.13-.13,1.46-.09.89-.15-1.78.31-4-.33-6.49-.12-1.15-.12-.11-.33-1.12-.41-2.78.23-3-.24-5.92,0,.84.24,1,.18-1.07.41l4.8-.17-3.08.35c1.45,0,3.05-.15,3.92-.11-1.47.19-1.32.13-.62.33-2-.36-3.93.21-6.22,0l.07-.59c-3.44-.26-6.11.3-10.58.15l1.44.11a35.23,35.23,0,0,1-4.21.12c.13-.19-.77-.27-1.39-.39.08.15-3.27,0-3.67.38l-2-.26c-3.61-.1-4.12.57-7.59.5,1.05-.22-.53-.36,1.8-.51a7.4,7.4,0,0,0-2.22.1c-.68-.12-3.21.26-4.28.08a5.51,5.51,0,0,1-1.94.27c-.15,0,0-.09,0-.09s-2,.13-.9.35c-3.57-.62-10,0-13.07-.49-2.53.07-5.58.13-7.87.15.15-.06,0-.1.44-.08-3.16-.18-1.94.57-5.55.36-1.84-.32,1.92-.17.77-.29-.5-.65-4.35.09-6.77-.29l.59,0c-1.86-.22-4.52.25-7.55.2,0,0,.15-.06,0-.1-2.07.33-6,.44-8.9.53.9-.25,1.32-.13.77-.39-1.31,0,.38.42-2.22.49-.85-.14-2.73-.26-3-.54H45c-1.26-.36-3.18,0-4.48-.05l.17-.16c-3.77.05-3.82.44-7.87.42l.42.11c-2.21.39-1.86-.21-4.06.08l-.67-.4c-1.46.1-5.11.38-7.73.46,1.48-.3,4.55-.45,6.44-.62a49.09,49.09,0,0,0-5.67.22,13.33,13.33,0,0,1,1.89-.07,42.29,42.29,0,0,1-7,.46c.17-.25-.58-.36-1.73-.41-.58,0-1.25,0-2,0l-3,0q0,.87,0,1.68c0,.27,0,.53,0,.78l0,.5a9.21,9.21,0,0,1-.22,1.55c.28,5.1-.12,10.11-.08,16.05.6-2.1,0,1.74.63,1.37a12.61,12.61,0,0,1,0,2l-.36,4.19c-.18,1-.14-1.31-.28-1.19,0,3-.26,1.28-.42,3.28.22-.41.32,1,.23,2.78l.28-2.43c.33,4.23-.51,3.66-.19,7.93L9,46.88c.11,2.19,0,8.08.49,10.23-.07.38-.24.89-.28-.07,0,1.82,0,3.79.1,5.75l.11,2.92c0,.53,0,1.06,0,1.57,0,.75,0,1.49,0,2.21h3.25c.71,0,1.38,0,2,.08l-.4.15a14.26,14.26,0,0,1,2.93-.13c-.07.06-.4.15.06.16a28.28,28.28,0,0,1,3.88-.17l-1.1.16c5.1.2,7.83-.41,12.12-.51,0,.44,4,.59,6,.66l-.07.06c5.94,0,10.1-.37,15.6-.54,3.42.48,11.58.2,17.07.47-.84-.08.14-.34,1.12-.39,1.28.09,3.56-.3,3.35.1h-.46c1,.4,3.62.29,5.69.3l.34-.52c5.41.76,14.18-.29,17.13.4,1.31-.13,2.93-.13,4.22-.26l-.07.28c3.62.07,5.42.11,9.89,0l-.91.21c2.52,0,3.19-.82,5.51-.84l.7.42c4.4,0,8.86.37,13.21,0-.08.06-.21.18-.92.2,2.07,0,8,.28,7.26-.3.05.38,4.54,0,6.92-.13l-.37.28a23.41,23.41,0,0,1,4.87-.55c.66,0,.58.22-.3.15,2.21.15,1.72-.26,4.4-.11l-1,.17a11.08,11.08,0,0,0,3.35-.28,15.82,15.82,0,0,1,4.65.33,8,8,0,0,1,2.9-.29c.18.09-.31.15-.55.18,3.8.19,5.65-.32,8.27,0a.67.67,0,0,0,.44.17c-3,0-5.45,0-5.23,0,0,.25,2.45.3.5.65a58.87,58.87,0,0,1,7.69-.49,1.35,1.35,0,0,1,.32.09l-.25,0a12.24,12.24,0,0,0,1.51,0c.76,0,1.24.07,2,.07a22.75,22.75,0,0,0,4,.13c-.1-.28,1.49-.24,0-.47.19,0-.23,0-1,0l-.52,0,.08,0-3,0a11.39,11.39,0,0,1,3.32-.11c.62-.18,1.31-.37,1.7-.45,1.66.39,4.88.6,5.32.84,3.72-.15,8.76-.1,11.1-.63a3.25,3.25,0,0,1,1.61.24c-.61,0-1.34,0-1.67.12,2.11-.14,6.26-.06,6.77-.43,2.66.17-1.5.34,2.16.28l-.49.12c7.2.59,11.7-1,19.69-.19a3.43,3.43,0,0,1-.95-.13c9.11.34,18.76-.31,27.74.22a18.06,18.06,0,0,0,4.39-.31l.55.3,2.66-.35c3.78-.25,6.55.74,11.33.26l-.62-.2c1.72,0,5.44-.12,5.15.11a2.68,2.68,0,0,1,1.24-.1l.05.16,4.22-.28c3.27.12-.51.63,4.26.66,1.78-.06,5.05-.46,4.39-.56a4.82,4.82,0,0,1-1.89-.26l1.63-.08c.29-.47,1.54-.94-2.44-1.27L285,67.6l-.89-.22,2.33,0a9.07,9.07,0,0,0-3.1.11,3.43,3.43,0,0,0-1.17-.25l-2.72.45c-.33-.19,1.22-.37-.61-.47-1.27.21,1.23.41-.89.55a5.2,5.2,0,0,0-2.5-.21c-.21-.12.12-.19.73-.24a43.61,43.61,0,0,0-4.38.3c-1.39-.26-4.69.07-4.55-.37a25.13,25.13,0,0,1-3.72.36c2.33-.52-4.77,0-4.15-.59-1.73.47-6.23.21-9.28.47a2.88,2.88,0,0,1,.78-.09c-1.72,0-2.22-.18-3.32-.27-.22.39-2.9.48-4.34.72-2.11-.37,1.28-.46.62-.82.1.32-3.66.32-3,.58a6.4,6.4,0,0,1-2.21-.44c-.29.49-1.5.09-2.84.39-2.33-.24-.6-.46-3.16-.31C231.43,67.08,233.7,66.9,233.7,66.9Zm-60.87.85h0l1.25,0Zm-5.12,0h2.22c.18.09,0,.19-.53.19C169.68,67.89,168.47,67.84,167.71,67.76Zm10.82,1.94a2.76,2.76,0,0,1-1.19-.07l1.41,0,.1,0A.68.68,0,0,1,178.53,69.7Z"/><path class="cls-1" d="M180,69.33l.33,0-.48-.06-.29.09Z"/><path class="cls-1" d="M246.76,10.08h-.11a1.07,1.07,0,0,1,.23,0Z"/><polygon class="cls-1" points="97.07 67.22 97.08 67.29 97.52 67.23 97.07 67.22"/><path class="cls-1" d="M274.94,11.05a1.44,1.44,0,0,0,.37.07A1.34,1.34,0,0,0,274.94,11.05Z"/><path class="cls-1" d="M287.11,11.11l1.72.1C288.09,11.15,287.54,11.13,287.11,11.11Z"/><path class="cls-1" d="M289.75,16.47a.43.43,0,0,0,.12.18v0Z"/><path class="cls-1" d="M147.68,11.58h-.36C146.47,11.65,147.05,11.63,147.68,11.58Z"/><path class="cls-1" d="M192,10.92l-1.43.14C191.32,11.08,191.93,11.08,192,10.92Z"/><path class="cls-1" d="M98.24,11.92h0Z"/><path class="cls-1" d="M188.47,11.05a15.82,15.82,0,0,0,2.06,0C189.89,11,189.13,11,188.47,11.05Z"/><path class="cls-1" d="M289.62,57v.45s0,0,.05.05Z"/><path class="cls-1" d="M289.66,57.53l0,.5A2,2,0,0,0,289.66,57.53Z"/><path class="cls-1" d="M289.76,59.09,289.69,58A4.24,4.24,0,0,0,289.76,59.09Z"/><path class="cls-1" d="M289.75,44.64l-.1-.14A.22.22,0,0,0,289.75,44.64Z"/><path class="cls-1" d="M289.72,40.87c0,.9-.21,2.26-.15,3.51l.08.12C289.5,43.91,289.9,41.73,289.72,40.87Z"/><path class="cls-1" d="M291,25.16l-.08,3.16c.11-.56.26-1.28.28.15C291.51,24.5,290.94,29.29,291,25.16Z"/><path class="cls-1" d="M291.14,15.38c.05,1.69.16,0,.22.07C291.26,14.37,291.24,14.11,291.14,15.38Z"/><path class="cls-1" d="M224.69,9.86l.17-.26C223.56,9.64,224.85,9.7,224.69,9.86Z"/><polygon class="cls-1" points="211.18 11.18 212.45 11.34 213.06 11.1 211.18 11.18"/><polygon class="cls-1" points="203.2 9.36 203.77 9.32 201.59 9.41 203.2 9.36"/><path class="cls-1" d="M84.48,9.45l.4.31C85.76,9.71,85.94,9.35,84.48,9.45Z"/><path class="cls-1" d="M33.23,9.77a8.42,8.42,0,0,0-2.89-.1C31.49,9.69,32.64,9.81,33.23,9.77Z"/><polygon class="cls-1" points="83.47 69.74 82.44 69.85 84.39 69.76 83.47 69.74"/><path class="cls-1" d="M295.83,76.5c.09.38.29.17.25-.89l-.33-.76Z"/><path class="cls-1" d="M296.45,69.36c-.16-1.25-.44-2.69-.75-1.88.32,1.23.19,1.53.57,2.86,0,1.07-.11,1.86-.23,1.68a13.91,13.91,0,0,0,.13,2.22,17.26,17.26,0,0,0,.06-5C296.3,68.89,296.39,69.27,296.45,69.36Z"/><path class="cls-1" d="M258.55,3l.67,0A4.3,4.3,0,0,0,258.55,3Z"/><path class="cls-1" d="M194.23,2.85a1.8,1.8,0,0,0,.72-.07C194.5,2.81,194.12,2.83,194.23,2.85Z"/><path class="cls-1" d="M183.25,2.49l.65,0A2.45,2.45,0,0,0,183.25,2.49Z"/><path class="cls-1" d="M258.55,3l-1.72-.11C256.71,3,257.71,3,258.55,3Z"/><path class="cls-1" d="M295.65,55c0,.36.05.66.09.93,0-.29,0-.58,0-.87Z"/><path class="cls-1" d="M286.9,2.77h.52a4.56,4.56,0,0,0,.44-.14Z"/><path class="cls-1" d="M297.28,15.66c0-.49-.27-.66-.39-.85a3.16,3.16,0,0,1,.19,1.07C297.14,15.89,297.2,15.83,297.28,15.66Z"/><path class="cls-1" d="M296.79,50.16l0,.62Z"/><path class="cls-1" d="M271.33,2.71a.47.47,0,0,0-.2-.1S271.21,2.68,271.33,2.71Z"/><path class="cls-1" d="M271.28,75.18s0,0,0,0S271.44,75.18,271.28,75.18Z"/><path class="cls-1" d="M296.5,76.57l-.35,0a.27.27,0,0,0-.08.16Z"/><path class="cls-1" d="M163.15,2.13h.09C163.77,2.1,163.47,2.11,163.15,2.13Z"/><path class="cls-1" d="M2.34,28.34c.25-2.09.32,3.4.6.26C2.83,28.89,2.5,25.74,2.34,28.34Z"/><path class="cls-1" d="M295.69,54.48c0-.3,0-.59,0-.89A8,8,0,0,0,295.69,54.48Z"/><path class="cls-1" d="M2.94,28.6h0l0-.33Z"/><path class="cls-1" d="M116.85,2.3a1.75,1.75,0,0,0,.47.12S117.2,2.36,116.85,2.3Z"/><path class="cls-1" d="M151.34,2.7l-.85,0C150.83,2.69,151.1,2.7,151.34,2.7Z"/><path class="cls-1" d="M98.94,2.7a8.24,8.24,0,0,0-1.26,0l.19,0A4,4,0,0,1,98.94,2.7Z"/><path class="cls-1" d="M80.29,2.7l.35,0h.59Z"/><path class="cls-1" d="M214.62,75.32a3.36,3.36,0,0,1,.86.25C215.19,75.37,217.93,75.3,214.62,75.32Z"/><path class="cls-1" d="M295.81,55a1.09,1.09,0,0,1-.12-.55v.62S295.78,55.16,295.81,55Z"/><path class="cls-1" d="M98.18,4.91l-3,0C96,4.9,97.12,4.91,98.18,4.91Z"/><path class="cls-1" d="M80.87,75.36l.68,0A3.45,3.45,0,0,0,80.87,75.36Z"/><path class="cls-1" d="M86.43,4.91a14.43,14.43,0,0,0-1.67-.19,2.7,2.7,0,0,0-.35.07Z"/><path class="cls-1" d="M215.49,75.57h0Z"/><path class="cls-1" d="M235,74.9c-2.83,0-1.33.37-1.93.58-3.37.1-1.56-.27-2.7-.46-2.11.09-3.72.43-5.29.42-.12-.06-.42-.08-.06-.16-2.23.29-6.6,0-9.19.38a1,1,0,0,1-.34-.09c.42.19.48.37.4.51a10.56,10.56,0,0,1-2.83,0,3.13,3.13,0,0,0,1.2-.17l-1.32.11c-1.2-.35,1.81-.12,1.81-.38-2.59.12-5.6.4-7.58.3-.41-.34,4.63-.11,2-.41l3.06.13c-2.34-.54,1.87,0-.29-.54-4-.1-4.51.18-8.53.08-.91.18.3.28-.61.46-5.72.34-4.5-.85-8.7-.4a9.86,9.86,0,0,1-4.51.43l1-.38c-3.9,0-2.23.55-6.32.29.73-.15,3.07-.13,2.48-.17-2.65-.31-1.87.22-3.91.22l-.42-.34c-4.16,0-8.74.29-13.34.36.25-.1,1-.21,0-.31-5.81.17-12.4,0-18-.25l-2.14.3c-.5,0-.92-.14-.38-.19-2.19-.12-.12.18-1.16.3-1.25,0-1.65-.17-.86-.26a131.53,131.53,0,0,1-15,.22l.79-.08c-3.16-.12-3.57.6-6.5.32l.56,0c-6.86-.13-14.44.14-19.67-.3-1,.42-6.79-.19-7.23.4-3.92-.29-2.8-.4-8.32-.59-1.47,0-2.19.37-4,.43l0-.31-2.47.32-1.32-.37-1.71.08c.68,0,1.45.14,1.35.23a30.3,30.3,0,0,1-6.57-.37L70,75.44a9.79,9.79,0,0,1,2-.25c-3.37.32-.61-.32-3.7,0,.42.07-.22.18-.29.24a67.55,67.55,0,0,0-7.64-.11l.5-.21c-4.68,0-9.87.1-15.13.1,1.89.1,1.45.46-.09.5l-.61-.33c-1,.21,1.61.13-.44.37-2,0-1.32-.37-.19-.47l-2.39.11c-.14-.1.42-.15.57-.27-1,.2-4.12-.33-5.54,0L37,75c-5.25,0-7.64.1-11.92.12-.08.28-1.75.22-3,.45-3.14-.09-6.64-.31-10.43-.29-2.66.14-.77.24-2,.41-.2-.26-4-.24-2-.42l-2.29,0H4.91l-.25,0,0-.44,0-1.59c0-1.16-.08-2.51-.14-4.28-.1.62-.15,1.33-.24,1,0-1,.11-2.37.23-2.22l0,.27c-.38-6.46.75-14.9.21-20l0,.28L4.43,43c.05-2.45.19,1.47.35-.34-.42-5.75.06-9.09-.22-13.83.76-3.66,0-13,.43-18l-.18.29A9,9,0,0,1,5,8.62c-.13.13-.16,1.39-.25.59,0-1.5,0-3-.06-4.57l5.75.06,7,.13,13.91.29c4.06,0,2.31-.92,7.43-.5L37.23,5C45.43,4.56,54,5,62,4.63a4.22,4.22,0,0,1-1.28.17,26.23,26.23,0,0,0,6.3-.18c1.25,0,.29.18,1.06.28,1.7.14,4.27-.31,5.17-.07.15,0-.48.08-.79.1,1.11-.12,5.16,0,4.1-.25,3,.13,5.77-.13,8.17,0,1.57-.31,5.16.15,5.65-.29-.21.45,5.28.36,7.19.15-.64.14,1.66.14.91.33,2.17,0,4.16-.09,3.79-.32,4,.54,8-.44,10.3.26,6.46-.24,12.43-.41,18.24-.52-.21.46-6.42,0-6.17.52,5.51-.18,8.69-.57,14.15-.46,1.42.06-.8.19-1.28.27,5.51-.18,10.65,0,15.54-.2a4.87,4.87,0,0,1-1,.12c1,0,2.25.07,2.14-.14l-.94.06c-1.54-.3,3.83-.63,4-.78-1.63.59,4.84.15,2.24.89.64,0,1.43-.14,1.29-.28.94,0,1.24.12.28.28,3.46-.11,2.23-.33,5.36-.32,0,.1-.64.13-1,.25a33.33,33.33,0,0,1,5.82-.3c-.15.06.15.13-.64.13,4.55,0,7.75-.51,12.74-.33-1.47.44,1.7.15,2,.52L188,4.45l-1.07-.18c2.35,0,4.42-.27,6.44-.15l-1.74.16,4.4-.07-2.49-.14c2.38-.2-.26-.48,2.87-.37-.63,0,2.35,0,3.58.22h0a24,24,0,0,1,4.09-.15c.46.12-.36.41-.06.49,1.14-.31,5.5-.08,6.95-.42-.48.08-.51.28-.35.32l1-.25c1.09.08,1.25.12,1.07.27,3.28.05-1-.47,2.85-.27-.31,0-.16.06-.8.1,3.91.11,7.54-.16,11.13,0,1.06.38-3.13.1-1.92.41,5.17-.07,10.7-.45,15.71-.36l-.93,0c.69-.53,3.72.26,6.25,0-.62,0-.81.3-.64.24,3.42.08,7-.13,12.19-.3l-.64.14c2,.12,5.32.07,7.5.13.65-.14,1.9-.12,1.14-.31,6.72.77,12.83-.42,18.79.23-.71,0-1.7.11-1.13.12l5.08-.13c-.4-.23-.66-.14-1.73-.32a20,20,0,0,1,3.34-.24c-2.29.15,0,.37,1,.5-.17-.07.17-.15.08-.22,2.66.41.45-.47,4.07-.19l-.19.12,2.6-.17c0,.4,0,.84,0,1.3-.23.49-.16-.78-.27-1a.37.37,0,0,0-.19.08h.12A11,11,0,0,0,296.18,5c0,.48.09,1,.14,1.43a12.57,12.57,0,0,1,0,2.81c-.07-.87-.07-2.13-.15-3a21.27,21.27,0,0,0-.28,3.76V9.88l-.14,3.48.08-.89c.7,2.57.13,5.24.58,8.7-.43-3.37-.25-.56-.55-.81-.08.88-.18,2.23-.26,1.84.24,1.64-.19,2.74.16,5.05-.1.1,0,1.75-.25,1.38.07,2.13.17-.5.29-.33.33,3.29-.4,7.72.05,12.44.19,4.07.52,4.82.68,8.6-.15,1.27-.35-1.05-.35-1.05a41,41,0,0,0,0,5.54c-.08-.39-.15,0-.26.61,0,1.55.35,1,.21,3.09a8.61,8.61,0,0,1-.39-1.56c.09,1.84.27,3.65.36,5.54-.17.51-.26-1.14-.37-1.81a41.37,41.37,0,0,0,.42,6.18l.1-1.36c0,.77-.23.4-.28-.18a4.76,4.76,0,0,1,.19-2.74l.06,1.36c.57-1.39-.09-5.43-.06-8.15l.42,1.13-.35-2.79c.11-.59.34-1,.4.35.21-2-.14-1.73.09-3.41,0-.18,0-.1.07.07l-.13-1.9c.09.37.3-.32.24.85.24-3.42-.31-5.51,0-6.8l0,.29c-.14-4.75-.31-.46-.67-4l.76-2.4-.31-.46c0-.49,0-1.46.16-1.28-.21-1.82-.14.31-.33-.75.28-2.35-.13-6.49.35-7-.23-.85-.18,2.25-.34-.27.53-.71-.09-2.9.15-5.06.27.66.13,2.7.37.55-.46-1.3.1-4.19,0-6-.36-.08-.15-3.94-.27-7a8.44,8.44,0,0,0,.12-1.64c0-1.17.07-2.75.1-4.28l-2.24-.06-1.47-.05.09-.06c-.55.36-3.48.29-5.6.37.08-.22.46-.31,1.62-.4h-2A11.55,11.55,0,0,1,285,3l.5-.28c-2.66,0-5.36.33-8.79.14-.19.26,2.73.72-.89.89-.14-.14-.27-.38.68-.43a11.13,11.13,0,0,1-1.74,0l1.45-.23c-1.56-.1-.82.19-2.06.17,0-.19-.93-.14-.75-.29A13.63,13.63,0,0,0,275,3a24.56,24.56,0,0,1-3.67-.3c.12.11,0,.26-1,.29-2.67,0-.91-.24-2.47-.34-.64.14-2.34,0-2.39.29a2.92,2.92,0,0,1-1.22-.22c-1.38.13-6.44,0-4.89.35l.36,0-.23,0h0c-4.51.29-9.38-.17-13.86-.05V3c-2.67.11-5.95.06-7.86.28-.79,0-1.87-.19-1.53-.3A38.45,38.45,0,0,1,231,3c2.05-.17-.71-.15,2.11-.13a35.82,35.82,0,0,0-6.12,0c1-.25-2-.32-3.26-.24l1.86.18c-1.42,0-2.66,0-3.92,0l.68-.33c-5.44-.41-9.81.69-14,0-1.44.23,3,.16,1.67.44-2.51-.05-5.11-.53-5.9-.53-3.42-.18-3.19.49-6.78.36.46.12.89.44-1.79.55-2.5,0-3.07-.5-1.49-.59.6,0,.89,0,.86.06.81,0,1.87-.09.88-.22l-.33.12c-1.24-.12-4.68-.11-3.87-.3-1.89.11-.81.19.59.25-3.21-.17-5,0-8.32-.12.52.07,1,.21.48.21-4.84-.15-2.13.22-5.42.27-1.86-.18.67-.43-2.63-.28-2-.12-.43-.31.37-.41a58.46,58.46,0,0,1-7.35-.19l1.59-.1c-.95.06-1.73.06-2.52.06l.91.24a6.24,6.24,0,0,1-1.71-.15c-1,.16.74.4-1.17.61-1.24-.12-3.78.13-4.21-.18,3.91.1-.43-.32,2.88-.37a23.19,23.19,0,0,1-2.35,0c-.14,0,.13-.06.38-.08-3.73-.28-1.71.36-5.59.35.49-.18-.9-.34-1.53-.3,1.56,0,.75.3-.68.43a32.65,32.65,0,0,0-4,.09l1.49.06a18.55,18.55,0,0,1-3.48.21c-.15-.13,1.57-.09,1-.15-1.93.31-4.35-.33-7-.12-1.24-.12-.12-.33-1.21-.41-3,.23-3.25-.24-6.41,0,.91.24,1.07.18-1.16.41l5.2-.17-3.34.35c1.57,0,3.31-.15,4.25-.11-1.59.19-1.43.13-.68.33-2.14-.36-4.25.21-6.73,0l.08-.59c-3.73-.26-6.62.3-11.46.15l1.56.11a41.33,41.33,0,0,1-4.56.12c.15-.19-.83-.27-1.5-.39.08.15-3.54,0-4,.38l-2.16-.26c-3.91-.1-4.46.57-8.22.5,1.14-.22-.57-.36,1.94-.51a8.65,8.65,0,0,0-2.4.1c-.73-.12-3.47.26-4.63.08A6.54,6.54,0,0,1,95.76,3c-.15,0,0-.09,0-.09s-2.2.13-1,.35c-3.87-.62-10.8,0-14.16-.49-2.74.07-6,.13-8.52.15.16-.06,0-.1.48-.08-3.43-.18-2.11.57-6,.36-2-.32,2.07-.17.83-.29-.54-.65-4.71.09-7.33-.29l.63,0c-2-.22-4.89.25-8.17.2,0,0,.16-.06,0-.1-2.24.33-6.48.44-9.64.53,1-.25,1.44-.13.84-.39-1.41,0,.41.42-2.41.49-.92-.14-3-.26-3.22-.54H40.8c-1.36-.36-3.44,0-4.85-.05l.18-.16C32.05,2.58,32,3,27.62,3l.45.11c-2.4.39-2-.21-4.4.08L23,2.74c-1.58.1-5.54.38-8.37.46,1.6-.3,4.92-.45,7-.62a57.73,57.73,0,0,0-6.14.22,15.67,15.67,0,0,1,2.05-.07,49.55,49.55,0,0,1-7.57.46c.18-.25-.63-.36-1.87-.41s-2.59,0-5.32-.08a24.18,24.18,0,0,1-.3,4.81c.28,5.52-.12,11-.08,17.39.6-2.28,0,1.88.63,1.49a14.72,14.72,0,0,1,0,2.2l-.36,4.54c-.18,1.08-.14-1.42-.28-1.29,0,3.28-.26,1.38-.42,3.55.22-.44.32,1.14.23,3l.28-2.63c.33,4.58-.51,4-.19,8.58L2,42.89c.11,2.37,0,8.75.49,11.08-.07.42-.24,1-.28-.07-.08,5.66.52,12.61.22,17l-.15-.43a16.61,16.61,0,0,1,.13,3.16c-.06-.06-.15-.42-.16.07,0,.19.05.59.09,1.09,0,.77.08,1.82.09,2.75.86,0,1.67,0,2.36,0l-2.13.16,3,0c.62,0,1.21,0,1.77,0,1.13,0,2.16-.09,3.17-.16,2-.14,3.9-.32,6.22-.37,0,.44,4.34.59,6.51.66l-.07.06c6.43,0,10.93-.37,16.89-.54,3.7.48,12.54.2,18.49.47-.91-.08.15-.34,1.2-.39,1.4.09,3.86-.3,3.64.1H63c1.05.4,3.92.29,6.16.3l.37-.52c5.86.76,15.35-.29,18.55.4,1.41-.13,3.16-.13,4.57-.26l-.08.28c3.92.07,5.87.11,10.71,0l-1,.21c2.73,0,3.45-.82,6-.84l.76.42c4.77,0,9.59.37,14.3,0-.08.06-.22.18-1,.2,2.24,0,8.67.28,7.86-.3.05.38,4.91,0,7.49-.13l-.4.28a27.38,27.38,0,0,1,5.27-.55c.72,0,.63.22-.32.15,2.39.15,1.86-.26,4.77-.11l-1.09.17a13,13,0,0,0,3.63-.28,18.58,18.58,0,0,1,5,.33,9.31,9.31,0,0,1,3.13-.29c.2.09-.33.15-.6.18,4.12.19,6.13-.32,9,0a.75.75,0,0,0,.48.17c-3.27,0-5.91,0-5.66,0,0,.25,2.64.3.54.65a68.93,68.93,0,0,1,8.33-.49,1.53,1.53,0,0,1,.34.09l-.27,0a14.18,14.18,0,0,0,1.63,0c.82,0,1.35.07,2.14.07a26.61,26.61,0,0,0,4.35.13c-.11-.28,1.61-.24,0-.47.21,0-.25,0-1.13,0l-.56,0,.09,0-3.28,0a13.29,13.29,0,0,1,3.59-.11c.68-.18,1.42-.37,1.84-.45,1.8.39,5.28.6,5.77.84,4-.15,9.48-.1,12-.63a3.76,3.76,0,0,1,1.75.24c-.67,0-1.45,0-1.81.12,2.29-.14,6.78-.06,7.33-.43,2.88.17-1.62.34,2.34.28l-.54.12c7.8.59,12.68-1,21.33-.19a4.07,4.07,0,0,1-1-.13c9.86.34,20.31-.31,30,.22a21.11,21.11,0,0,0,4.75-.31l.6.3,2.88-.35c4.09-.25,7.09.74,12.26.26l-.66-.2c1.86,0,5.89-.12,5.58.11a3.07,3.07,0,0,1,1.33-.1l.06.16,4.57-.28c3.54.12-.56.63,4.61.66,1.92-.06,5.47-.46,4.75-.56a5.59,5.59,0,0,1-2-.26l1.76-.08c.32-.47,1.67-.94-2.64-1.27l-3,.28-1-.22,2.53,0a10.65,10.65,0,0,0-3.36.11,3.84,3.84,0,0,0-1.26-.25l-2.95.45c-.36-.19,1.32-.37-.66-.47-1.38.21,1.33.41-1,.55a6.09,6.09,0,0,0-2.71-.21c-.23-.12.12-.19.79-.24-1.5.14-4,.06-4.75.3-1.5-.26-5.07.07-4.92-.37a29.42,29.42,0,0,1-4,.36c2.52-.52-5.16,0-4.5-.59-1.86.47-6.73.21-10,.47a3.37,3.37,0,0,1,.84-.09c-1.86,0-2.4-.18-3.59-.27-.24.39-3.14.48-4.7.72-2.28-.37,1.38-.46.67-.82.11.32-4,.32-3.19.58a7.51,7.51,0,0,1-2.4-.44c-.3.49-1.62.09-3.07.39-2.52-.24-.65-.46-3.42-.31C232.53,75.08,235,74.9,235,74.9Zm-65.92.85h0l1.36,0Zm-5.54,0h2.4c.19.09,0,.19-.57.19C165.67,75.89,164.36,75.84,163.54,75.76Zm11.72,1.94a3.3,3.3,0,0,1-1.3-.07l1.54,0,.1,0A.77.77,0,0,1,175.26,77.7Z"/><path class="cls-1" d="M176.83,77.33l.36,0-.52-.06-.31.09Z"/><path class="cls-1" d="M259.33,3.08h-.11l.24,0Z"/><polygon class="cls-1" points="87.04 75.22 87.05 75.29 87.54 75.23 87.04 75.22"/><path class="cls-1" d="M289.85,4.05a1.59,1.59,0,0,0,.4.07A1.49,1.49,0,0,0,289.85,4.05Z"/><path class="cls-1" d="M295.89,10l-.1,1.87C295.85,11.08,295.87,10.49,295.89,10Z"/><path class="cls-1" d="M295.75,20.16a.58.58,0,0,0,.12.2v0Z"/><path class="cls-1" d="M152,4.58h-.39C150.73,4.65,151.36,4.63,152,4.58Z"/><path class="cls-1" d="M200,3.92l-1.54.14C199.3,4.08,200,4.08,200,3.92Z"/><path class="cls-1" d="M98.5,4.92h0Z"/><path class="cls-1" d="M196.22,4.05a18.53,18.53,0,0,0,2.23,0C197.75,4,196.92,4,196.22,4.05Z"/><path class="cls-1" d="M295.62,64.08v.49s0,0,.05.05Z"/><path class="cls-1" d="M295.66,64.62l0,.55A2.45,2.45,0,0,0,295.66,64.62Z"/><path class="cls-1" d="M295.76,66.31l-.07-1.14A4.93,4.93,0,0,0,295.76,66.31Z"/><path class="cls-1" d="M295.75,50.66l-.1-.15C295.67,50.59,295.71,50.65,295.75,50.66Z"/><path class="cls-1" d="M295.72,46.59c0,1-.21,2.44-.15,3.79l.08.13C295.5,49.87,295.9,47.51,295.72,46.59Z"/><path class="cls-1" d="M297,29.57,296.9,33c.11-.6.26-1.39.28.17C297.51,28.85,296.94,34.05,297,29.57Z"/><path class="cls-1" d="M297.14,19c.05,1.83.16,0,.22.08C297.26,17.89,297.24,17.61,297.14,19Z"/><path class="cls-1" d="M235.44,2.86l.18-.26C234.21,2.64,235.61,2.7,235.44,2.86Z"/><polygon class="cls-1" points="220.81 4.18 222.18 4.34 222.84 4.1 220.81 4.18"/><polygon class="cls-1" points="212.16 2.36 212.78 2.32 210.42 2.41 212.16 2.36"/><path class="cls-1" d="M83.61,2.45l.43.31C85,2.71,85.19,2.35,83.61,2.45Z"/><path class="cls-1" d="M28.11,2.77A9.8,9.8,0,0,0,25,2.67C26.23,2.69,27.48,2.81,28.11,2.77Z"/><polygon class="cls-1" points="72.33 77.74 71.21 77.85 73.31 77.76 72.33 77.74"/><path d="M51.79,53.74a4.21,4.21,0,0,0,.33-.83,7.76,7.76,0,0,0,.16-1.06,5.47,5.47,0,0,0-.13-1.54l-1.69-8.8H46.71L44.33,51.83a3.34,3.34,0,0,0-.07.68v.62a5.93,5.93,0,0,0,0,.61H42.34a3.53,3.53,0,0,0,.33-.58,4.89,4.89,0,0,0,.27-.67l.27-.84,5-21.71a11.12,11.12,0,0,0-.47-1.37l-.21-.44h4.15L53.92,39.6l2.24,11.47a6,6,0,0,0,.29,1.1,9.08,9.08,0,0,0,.36.85,6.1,6.1,0,0,0,.39.72ZM50.24,40.36,48.73,32.6,47,40.36Z"/><path d="M67.73,39.89a8.2,8.2,0,0,1,1.84.88,6.41,6.41,0,0,1,1.52,1.37,6.66,6.66,0,0,1,1,1.9,7.46,7.46,0,0,1,.38,2.45,8.33,8.33,0,0,1-.6,3.35,6.22,6.22,0,0,1-1.59,2.24A6,6,0,0,1,68,53.34a9.77,9.77,0,0,1-2.85.4H58.47a3.18,3.18,0,0,0,.36-.94q.14-.51.27-1.35a15.52,15.52,0,0,0,.12-2.11V32.53a15.52,15.52,0,0,0-.12-2.11q-.14-.84-.27-1.35a3.18,3.18,0,0,0-.36-.94h6.38a9.61,9.61,0,0,1,2.61.33,5.28,5.28,0,0,1,2,1,4.6,4.6,0,0,1,1.32,1.83,7.12,7.12,0,0,1,.47,2.74,7.09,7.09,0,0,1-.9,3.68A5,5,0,0,1,67.73,39.89Zm-4.68-.43h2A1.7,1.7,0,0,0,66.26,39,3,3,0,0,0,67,37.87a6.59,6.59,0,0,0,.36-1.71c.06-.66.09-1.36.09-2.08a7.34,7.34,0,0,0-.33-2.36,4.55,4.55,0,0,0-.83-1.55,3.08,3.08,0,0,0-1.13-.87A3.17,3.17,0,0,0,63.91,29h-.86Zm2,13.38a2.23,2.23,0,0,0,1.38-.51A4.35,4.35,0,0,0,67.61,51a8.25,8.25,0,0,0,.77-2,9.75,9.75,0,0,0,.29-2.48,7.12,7.12,0,0,0-.45-2.62,6.55,6.55,0,0,0-1.13-1.93,4.89,4.89,0,0,0-1.54-1.17,3.89,3.89,0,0,0-1.64-.39h-.86v8.51a2.36,2.36,0,0,1,.72-.4,2.57,2.57,0,0,1,1.17,0,1,1,0,0,1,.77.76,1.8,1.8,0,0,0-1.08.11,2.17,2.17,0,0,0-.84.62,2,2,0,0,0-.44.95A2.06,2.06,0,0,0,63.48,52a1.21,1.21,0,0,0,.54.55A2,2,0,0,0,65.07,52.84Z"/><path d="M81,27.81a6.71,6.71,0,0,1,2.45.43,6.23,6.23,0,0,1,1.93,1.17,5.15,5.15,0,0,1,1.24,1.73,5.25,5.25,0,0,1,.44,2.11V48.62a5,5,0,0,1-.47,2.14,5.45,5.45,0,0,1-1.28,1.72,6.38,6.38,0,0,1-1.93,1.15,6.62,6.62,0,0,1-2.42.43,6.86,6.86,0,0,1-2.47-.43,6.59,6.59,0,0,1-2-1.15,5.19,5.19,0,0,1-1.29-1.72,4.82,4.82,0,0,1-.47-2.14V33.25a4.83,4.83,0,0,1,.48-2.11,5.6,5.6,0,0,1,1.34-1.73,6.48,6.48,0,0,1,2-1.17A6.77,6.77,0,0,1,81,27.81Zm2.23,5.34a2.18,2.18,0,0,1-1.22.43,3.59,3.59,0,0,1-1.25-.31,1.06,1.06,0,0,1-.63-1,2.13,2.13,0,0,0,1.15.18,2.07,2.07,0,0,0,1-.39,1.93,1.93,0,0,0,.61-.86A2,2,0,0,0,83,30V30a2.86,2.86,0,0,0-.68-.88A1.88,1.88,0,0,0,81,28.71a2.19,2.19,0,0,0-1.18.29,2.54,2.54,0,0,0-.74.72,2.71,2.71,0,0,0-.39.93,4.69,4.69,0,0,0-.11.94V50.35a4.4,4.4,0,0,0,.11.9,2.86,2.86,0,0,0,.38.94,2.53,2.53,0,0,0,.72.74,2.07,2.07,0,0,0,1.17.3A2.09,2.09,0,0,0,82.11,53a2.21,2.21,0,0,0,.7-.73,2.74,2.74,0,0,0,.34-.93,5.41,5.41,0,0,0,.09-.94Z"/><path d="M103.19,28.82a2.72,2.72,0,0,0-.24.7,4,4,0,0,0-.09.85c0,1.06,0,2,0,2.87s0,1.82,0,2.92V48.58a6.22,6.22,0,0,1-.37,2.17,5.37,5.37,0,0,1-1,1.76,4.5,4.5,0,0,1-1.59,1.19,5,5,0,0,1-2.1.44H97.4a8.46,8.46,0,0,1-5.21-1.43,5,5,0,0,1-1.88-4.24V32.53a13.44,13.44,0,0,0-.13-2.09,9.57,9.57,0,0,0-.27-1.33,4.52,4.52,0,0,0-.39-1h5.42a2.7,2.7,0,0,0-.4,1,7,7,0,0,0-.3,1.33,17,17,0,0,0-.11,2.09v15.8a9.92,9.92,0,0,0,.17,1.87,4.18,4.18,0,0,0,.54,1.48,2.79,2.79,0,0,0,1,1,3,3,0,0,0,1.53.36h.36a3.7,3.7,0,0,0,1.62-.35,3.62,3.62,0,0,0,1.25-1,4.25,4.25,0,0,0,.79-1.41,5.32,5.32,0,0,0,.27-1.73V30.4a3.82,3.82,0,0,0-.1-.92c-.07-.27-.14-.51-.21-.7a3.91,3.91,0,0,0-.31-.65h2.46A5.42,5.42,0,0,0,103.19,28.82Z"/><path d="M119.45,28.13l-.32,3.57h-.83c-.12-.45-.24-.85-.35-1.19a1.84,1.84,0,0,0-.52-.83,2.32,2.32,0,0,0-1-.48,7.59,7.59,0,0,0-1.8-.17V49.34a15.72,15.72,0,0,0,.11,2.11A6,6,0,0,0,115,52.8a2.35,2.35,0,0,0,.39.94H110a4.16,4.16,0,0,0,.4-.94q.13-.51.27-1.35a15.33,15.33,0,0,0,.13-2.11V29a7.74,7.74,0,0,0-1.81.17,2.32,2.32,0,0,0-1,.48,1.93,1.93,0,0,0-.52.83c-.11.34-.22.74-.34,1.19h-.83L106,28.13Z"/><path d="M158.18,28.13a9.61,9.61,0,0,1,2.61.33,5.28,5.28,0,0,1,2,1,4.63,4.63,0,0,1,1.32,1.84,7.21,7.21,0,0,1,.47,2.73A6.44,6.44,0,0,1,163,38.66a5.92,5.92,0,0,1-4.52,1.7,3.25,3.25,0,0,1-1.14-.2,3.43,3.43,0,0,1-.92-.52v9.7a17.58,17.58,0,0,0,.11,2.11,6.62,6.62,0,0,0,.29,1.35,2.35,2.35,0,0,0,.4.94H151.8a3.74,3.74,0,0,0,.39-.94,10,10,0,0,0,.27-1.35,13.89,13.89,0,0,0,.13-2.11V32.53a13.89,13.89,0,0,0-.13-2.11,10,10,0,0,0-.27-1.35,3.74,3.74,0,0,0-.39-.94Zm.25,11.33a1.68,1.68,0,0,0,1.19-.44,2.76,2.76,0,0,0,.72-1.15,7.06,7.06,0,0,0,.35-1.71c.06-.66.09-1.36.09-2.08a8,8,0,0,0-.31-2.34,4.72,4.72,0,0,0-.81-1.57A3.11,3.11,0,0,0,157.28,29h-.87v6.42a1.95,1.95,0,0,1,1.44-.5,1.59,1.59,0,0,1,.74.25,1.23,1.23,0,0,1,.49.61,2,2,0,0,0-1.1.11,2.18,2.18,0,0,0-.85.63,2.33,2.33,0,0,0-.43,1,2,2,0,0,0,.11,1.12,1.24,1.24,0,0,0,.56.56A2,2,0,0,0,158.43,39.46Z"/><path d="M173,53.74a4.24,4.24,0,0,0,.32-.83,6.46,6.46,0,0,0,.16-1.06,5.42,5.42,0,0,0-.12-1.54l-1.7-8.8h-3.75L165.5,51.83a3.34,3.34,0,0,0-.07.68v.62a5.93,5.93,0,0,0,0,.61h-1.94a2.91,2.91,0,0,0,.32-.58,3.88,3.88,0,0,0,.27-.67q.13-.37.27-.84l5-21.71a13.18,13.18,0,0,0-.47-1.37l-.22-.44h4.15l2.23,11.47,2.24,11.47a6,6,0,0,0,.29,1.1A9.08,9.08,0,0,0,178,53a5,5,0,0,0,.4.72Zm-1.55-13.38L169.9,32.6l-1.77,7.76Z"/><path d="M193.41,28.13a4.92,4.92,0,0,0-.32.65,2.79,2.79,0,0,0-.23.69,3.85,3.85,0,0,0-.09.86V53.74h-1.16l-10-21.14V51.54a3.85,3.85,0,0,0,.09.86,4.13,4.13,0,0,0,.2.69,3.58,3.58,0,0,0,.32.65h-2.42a4.38,4.38,0,0,0,.33-.65c.07-.19.14-.43.22-.7a3.82,3.82,0,0,0,.1-.92V32.1a12.71,12.71,0,0,0-.16-1.89,8.32,8.32,0,0,0-.27-1.21,2.6,2.6,0,0,0-.36-.83h4l7.93,16.66V30.4a3.36,3.36,0,0,0-.11-.92c-.07-.27-.14-.51-.21-.7s-.2-.45-.29-.65Z"/><path d="M208.35,53.74a4.78,4.78,0,0,1-1.66-.2,3.08,3.08,0,0,1-.83-.49,6.74,6.74,0,0,1-3.61,1,7,7,0,0,1-2.51-.43,6.16,6.16,0,0,1-1.94-1.17,5.45,5.45,0,0,1-1.28-1.73,4.79,4.79,0,0,1-.47-2.11V33.25a5.63,5.63,0,0,1,.41-2.12,4.76,4.76,0,0,1,1.23-1.74,6.08,6.08,0,0,1,2-1.15,8.46,8.46,0,0,1,2.85-.43,7.29,7.29,0,0,1,3,.52,5.1,5.1,0,0,1,1.84,1.3,4.49,4.49,0,0,1,.92,1.66,5.8,5.8,0,0,1,.25,1.6,4.72,4.72,0,0,1-.36,1.93,4.26,4.26,0,0,1-.9,1.34,3.57,3.57,0,0,1-1.19.77,3.33,3.33,0,0,1-1.23.25,4,4,0,0,1-2.61-.79,2.25,2.25,0,0,1-1-1.73,3.1,3.1,0,0,0,1.21.18,3.39,3.39,0,0,0,1.19-.27,3.24,3.24,0,0,0,1-.64,2.73,2.73,0,0,0,.65-1,3.67,3.67,0,0,0,.2-1.21,3.41,3.41,0,0,0-.27-1.41,2.88,2.88,0,0,0-.92-1.17A3.29,3.29,0,0,0,201.3,29a2.51,2.51,0,0,0-.85.72,2.43,2.43,0,0,0-.45.93,3.54,3.54,0,0,0-.13.9V50.29a4.4,4.4,0,0,0,.11.89,2.86,2.86,0,0,0,.38.94,2.53,2.53,0,0,0,.72.74,2.07,2.07,0,0,0,1.17.3,2,2,0,0,0,1.14-.29,2.09,2.09,0,0,0,.7-.72,2.66,2.66,0,0,0,.34-.93,5.41,5.41,0,0,0,.09-.94V44.49c0-.83-.07-1.54-.14-2.1a10.39,10.39,0,0,0-.25-1.35,2.38,2.38,0,0,0-.4-.93h4.62Z"/><path d="M217.47,27.81a6.67,6.67,0,0,1,2.45.43,6.12,6.12,0,0,1,1.93,1.17,5.18,5.18,0,0,1,1.25,1.73,5.41,5.41,0,0,1,.43,2.11V48.62a5,5,0,0,1-.47,2.14,5.3,5.3,0,0,1-1.28,1.72,6.26,6.26,0,0,1-1.93,1.15,6.62,6.62,0,0,1-2.42.43,6.86,6.86,0,0,1-2.47-.43,6.54,6.54,0,0,1-2-1.15,5.09,5.09,0,0,1-1.3-1.72,5,5,0,0,1-.47-2.14V33.25a4.7,4.7,0,0,1,.49-2.11,5.57,5.57,0,0,1,1.33-1.73,6.74,6.74,0,0,1,4.42-1.6Zm2.24,5.34a2.18,2.18,0,0,1-1.23.43,3.54,3.54,0,0,1-1.24-.31,1.07,1.07,0,0,1-.64-1,2.15,2.15,0,0,0,1.16.18,2.07,2.07,0,0,0,1-.39,1.86,1.86,0,0,0,.61-.86,2,2,0,0,0,.06-1.18V30a3.05,3.05,0,0,0-.69-.88,1.88,1.88,0,0,0-1.26-.37,2.16,2.16,0,0,0-1.17.29,2.42,2.42,0,0,0-.74.72,2.73,2.73,0,0,0-.4.93,4.69,4.69,0,0,0-.11.94V50.35a4.4,4.4,0,0,0,.11.9,2.86,2.86,0,0,0,.38.94,2.53,2.53,0,0,0,.72.74,2.07,2.07,0,0,0,1.17.3,2.09,2.09,0,0,0,1.14-.28,2.21,2.21,0,0,0,.7-.73,2.75,2.75,0,0,0,.35-.93,5.41,5.41,0,0,0,.09-.94Z"/><path d="M238.17,53.74H226a3.38,3.38,0,0,0,.4-.94q.13-.51.27-1.35a15.52,15.52,0,0,0,.12-2.11V32.53a15.52,15.52,0,0,0-.12-2.11q-.14-.84-.27-1.35a3.38,3.38,0,0,0-.4-.94h5.41a2.5,2.5,0,0,0-.4.94,6.7,6.7,0,0,0-.28,1.35,15.72,15.72,0,0,0-.11,2.11V51.29a1.48,1.48,0,0,0,.09.45,1.53,1.53,0,0,0,.32.52,1.63,1.63,0,0,0,.67.41,3.18,3.18,0,0,0,1.12.17h1.26a2.47,2.47,0,0,0,1.33-.31,2.35,2.35,0,0,0,.82-.81,4.88,4.88,0,0,0,.48-1.14c.12-.42.24-.84.36-1.28h.83Z"/><path d="M244.59,49.34a17.58,17.58,0,0,0,.11,2.11A6.62,6.62,0,0,0,245,52.8a2.51,2.51,0,0,0,.39.94H240a3.38,3.38,0,0,0,.4-.94,10,10,0,0,0,.27-1.35,13.89,13.89,0,0,0,.13-2.11V32.53a13.89,13.89,0,0,0-.13-2.11,10,10,0,0,0-.27-1.35,3.38,3.38,0,0,0-.4-.94h5.41a2.51,2.51,0,0,0-.39.94,6.62,6.62,0,0,0-.29,1.35,17.58,17.58,0,0,0-.11,2.11V49.34Z"/><path d="M261,28.13a3.93,3.93,0,0,0-.32.65,2.78,2.78,0,0,0-.24.69,3.85,3.85,0,0,0-.09.86V53.74H259.2l-10-21.14V51.54a3.85,3.85,0,0,0,.09.86,5.37,5.37,0,0,0,.2.69,4.38,4.38,0,0,0,.33.65h-2.42a3.58,3.58,0,0,0,.32-.65,5.33,5.33,0,0,0,.22-.7,3.8,3.8,0,0,0,.11-.92V32.1a16.15,16.15,0,0,0-.16-1.89,12.23,12.23,0,0,0-.27-1.21,2.6,2.6,0,0,0-.36-.83h4l7.94,16.66V30.4a3.8,3.8,0,0,0-.11-.92c-.07-.27-.15-.51-.22-.7a6.64,6.64,0,0,0-.29-.65Z"/><path d="M132,36.21l-.13,1.4h-.32c-.05-.18-.1-.34-.14-.47a.7.7,0,0,0-.2-.32.88.88,0,0,0-.4-.19,3,3,0,0,0-.7-.07v7.92c0,.33,0,.61,0,.83a2.36,2.36,0,0,0,.12.52.92.92,0,0,0,.15.37h-2.11a1.38,1.38,0,0,0,.16-.37c0-.13.07-.3.1-.52a6.25,6.25,0,0,0,.05-.83V36.56a3.08,3.08,0,0,0-.7.07.88.88,0,0,0-.4.19.7.7,0,0,0-.2.32c0,.13-.09.29-.13.47h-.33l-.13-1.4Z"/><path d="M138.13,44.48c0,.33,0,.61,0,.83a2.36,2.36,0,0,0,.12.52.92.92,0,0,0,.15.37h-2.11a1.31,1.31,0,0,0,.16-.37c0-.13.07-.3.1-.52a6.25,6.25,0,0,0,0-.83h0V40h-2v4.47a6.47,6.47,0,0,0,0,.83,2.44,2.44,0,0,0,.11.52.91.91,0,0,0,.16.37h-2.11a1.74,1.74,0,0,0,.15-.37,5,5,0,0,0,.11-.52,6.25,6.25,0,0,0,0-.83V37.93a6.09,6.09,0,0,0,0-.82,5.26,5.26,0,0,0-.11-.53,2,2,0,0,0-.15-.37h2.11a1.12,1.12,0,0,0-.16.38,2.55,2.55,0,0,0-.11.53,6.24,6.24,0,0,0,0,.81v1.63h2V37.93a6.09,6.09,0,0,0,0-.82c0-.22-.07-.4-.1-.53a1.45,1.45,0,0,0-.16-.37h2.11a1.44,1.44,0,0,0-.15.38,3.54,3.54,0,0,0-.11.52,6.09,6.09,0,0,0-.05.82v6.54Z"/><path d="M143.91,46.2h-4.75a1.34,1.34,0,0,0,.15-.37,3.27,3.27,0,0,0,.11-.52,6.25,6.25,0,0,0,.05-.83V37.93a6.09,6.09,0,0,0-.05-.82,3.43,3.43,0,0,0-.11-.53,1.48,1.48,0,0,0-.15-.37h4.61l-.12,1.4h-.33a3.14,3.14,0,0,0-.14-.48.93.93,0,0,0-.21-.33.92.92,0,0,0-.41-.18,3.53,3.53,0,0,0-.74-.06H141v3.06a4.94,4.94,0,0,0,.77,0l.61-.06c.19,0,.37-.06.52-.1a1.09,1.09,0,0,1,0,.18,1.35,1.35,0,0,1-.07.4.41.41,0,0,1-.31.27.87.87,0,0,1-.48,0l-1-.3v5.24a.67.67,0,0,0,0,.17.63.63,0,0,0,.13.2.73.73,0,0,0,.26.17,1.33,1.33,0,0,0,.44.06h.49a.89.89,0,0,0,.84-.44,1.77,1.77,0,0,0,.18-.45c0-.17.09-.34.13-.5h.33Z"/><rect x="126.27" y="33.31" width="18.22" height="0.6"/><rect x="126.27" y="48.13" width="18.22" height="0.6"/></svg>