<svg id="Layer_1" data-name="Layer 1" xmlns="http://www.w3.org/2000/svg" viewBox="0 0 261 80"><defs><style>.cls-1{fill:#f58f20;}.cls-2{fill:#fff;}</style></defs><title>pangolin-buttons</title><rect class="cls-1" x="11.19" y="11.5" width="237.29" height="58"/><path class="cls-1" d="M247.81,69.5c.09.31.29.13.25-.72l-.33-.61Z"/><path class="cls-1" d="M248.43,63.74c-.16-1-.44-2.17-.75-1.52.32,1,.19,1.24.57,2.31,0,.86-.11,1.5-.23,1.35a9.12,9.12,0,0,0,.13,1.8,11.32,11.32,0,0,0,.06-4C248.28,63.36,248.37,63.66,248.43,63.74Z"/><path class="cls-1" d="M217,11l.54,0A2.77,2.77,0,0,0,217,11Z"/><path class="cls-1" d="M165.07,10.85c.4,0,.56,0,.58-.07C165.29,10.81,165,10.83,165.07,10.85Z"/><path class="cls-1" d="M156.21,10.49l.52,0A1.56,1.56,0,0,0,156.21,10.49Z"/><path class="cls-1" d="M217,11l-1.38-.11C215.48,11,216.29,11,217,11Z"/><path class="cls-1" d="M247.63,52.19a6.72,6.72,0,0,0,.09.75c0-.24,0-.47,0-.71Z"/><path class="cls-1" d="M239.84,10.77h.42a2.83,2.83,0,0,0,.35-.14Z"/><path class="cls-1" d="M249.26,20.42c0-.4-.27-.54-.39-.69a2.1,2.1,0,0,1,.19.86C249.12,20.6,249.18,20.55,249.26,20.42Z"/><path class="cls-1" d="M248.77,48.25l0,.5C248.8,48.62,248.78,48.4,248.77,48.25Z"/><path class="cls-1" d="M227.27,10.71a.32.32,0,0,0-.16-.1S227.18,10.68,227.27,10.71Z"/><path class="cls-1" d="M228.13,68.18s0,0,0,0S228.26,68.18,228.13,68.18Z"/><path class="cls-1" d="M248.48,69.57l-.28,0a.31.31,0,0,0-.06.16Z"/><path class="cls-1" d="M140,10.13h.07C140.5,10.1,140.26,10.11,140,10.13Z"/><path class="cls-1" d="M10,31.54c.25-1.68.32,2.75.6.21C10.52,32,10.19,29.44,10,31.54Z"/><path class="cls-1" d="M247.67,51.73c0-.23,0-.48,0-.72C247.65,51.34,247.66,51.56,247.67,51.73Z"/><path class="cls-1" d="M10.63,31.75h0l0-.26A2.3,2.3,0,0,0,10.63,31.75Z"/><path class="cls-1" d="M102.64,10.3a1.13,1.13,0,0,0,.38.12S102.92,10.36,102.64,10.3Z"/><path class="cls-1" d="M130.47,10.7l-.69,0A6.24,6.24,0,0,0,130.47,10.7Z"/><path class="cls-1" d="M88.19,10.7a5.37,5.37,0,0,0-1,0l.16,0A2.55,2.55,0,0,1,88.19,10.7Z"/><path class="cls-1" d="M73.15,10.7l.27.05h.48Z"/><path class="cls-1" d="M182.42,68.32a2.3,2.3,0,0,1,.69.25C182.88,68.37,185.09,68.3,182.42,68.32Z"/><path class="cls-1" d="M247.79,52.18a.76.76,0,0,1-.12-.45c0,.18,0,.34,0,.5S247.76,52.29,247.79,52.18Z"/><path class="cls-1" d="M87.58,12.91l-2.39,0C85.85,12.9,86.72,12.91,87.58,12.91Z"/><path class="cls-1" d="M74.51,68.36l.55,0A2.24,2.24,0,0,0,74.51,68.36Z"/><path class="cls-1" d="M78.09,12.91a9.2,9.2,0,0,0-1.34-.19,1.63,1.63,0,0,0-.28.07Z"/><path class="cls-1" d="M183.12,68.57h0Z"/><path class="cls-1" d="M198.86,67.9c-2.28,0-1.07.37-1.55.58-2.72.1-1.26-.27-2.19-.46-1.69.09-3,.43-4.26.42-.1-.06-.34-.08-.05-.16-1.8.29-5.33,0-7.42.38a.73.73,0,0,1-.27-.09c.34.19.39.37.32.51-1,0-1.9.23-2.28,0a2.1,2.1,0,0,0,1-.17l-1.07.11c-1-.35,1.46-.12,1.46-.38-2.08.12-4.51.4-6.11.3-.34-.34,3.73-.11,1.6-.41l2.47.13c-1.89-.54,1.51,0-.23-.54-3.25-.1-3.64.18-6.89.08-.73.18.25.28-.48.46-4.62.34-3.64-.85-7-.4a6.5,6.5,0,0,1-3.63.43l.82-.38c-3.15,0-1.8.55-5.1.29.59-.15,2.48-.13,2-.17-2.14-.31-1.51.22-3.15.22l-.34-.34c-3.36,0-7,.29-10.77.36.21-.1.84-.21,0-.31-4.68.17-10,0-14.52-.25l-1.72.3c-.41,0-.75-.14-.32-.19-1.76-.12-.09.18-.93.3-1,0-1.33-.17-.69-.26a85.75,85.75,0,0,1-12.13.22l.64-.08c-2.55-.12-2.88.6-5.25.32l.46,0c-5.54-.13-11.65.14-15.88-.3-.8.42-5.47-.19-5.83.4-3.16-.29-2.26-.4-6.71-.59-1.19,0-1.77.37-3.24.43l0-.31-2,.32-1.06-.37-1.38.08c.55,0,1.17.14,1.08.23a19.85,19.85,0,0,1-5.3-.37l-5.09.26a6.38,6.38,0,0,1,1.64-.25c-2.72.32-.5-.32-3,0,.34.07-.18.18-.23.24A44.11,44.11,0,0,0,58,68.29l.41-.21c-3.78,0-8,.1-12.21.1,1.52.1,1.17.46-.07.5l-.5-.33c-.8.21,1.3.13-.35.37-1.58,0-1.07-.37-.16-.47l-1.92.11c-.11-.1.34-.15.45-.27-.79.2-3.32-.33-4.46,0L39.08,68c-4.24,0-6.16.1-9.61.12-.07.28-1.42.22-2.45.45-2.54-.09-5.35-.31-8.41-.29-2.15.14-.63.24-1.6.41-.15-.26-3.21-.24-1.62-.42l-2.31,0h-.47l-.28,0,0-.29a.88.88,0,0,1,0-.17l0-.56c0-.82-.07-1.77-.12-3-.1.5-.15,1.07-.24.78,0-.85.11-1.92.23-1.8l0,.22c-.38-5.21.75-12,.21-16.17l0,.23-.28-4.3c0-2,.19,1.19.35-.28-.43-4.64.06-7.33-.22-11.15.75-3-.05-10.5.43-14.49l-.18.23a5.92,5.92,0,0,1,.14-2c-.14.11-.16,1.12-.25.48,0-1.14,0-2.29-.06-3.47l4.42.06,5.61.13,11.23.29c3.27.05,1.86-.92,6-.5L38.41,13c6.61-.39,13.52,0,20-.32a2.79,2.79,0,0,1-1,.17,17.08,17.08,0,0,0,5.08-.18c1,0,.23.18.85.28,1.38.14,3.45-.31,4.18-.07.12,0-.39.08-.64.1.89-.12,4.17,0,3.31-.25,2.43.13,4.65-.13,6.59,0,1.26-.31,4.16.15,4.56-.29-.17.45,4.26.36,5.8.15-.52.14,1.33.14.73.33,1.76,0,3.36-.09,3.06-.32,3.23.54,6.49-.44,8.31.26,5.21-.24,10-.41,14.72-.52-.17.46-5.18.05-5,.52,4.44-.18,7-.57,11.42-.46,1.14.06-.65.19-1,.27,4.45-.18,8.59,0,12.54-.2a3.19,3.19,0,0,1-.84.12c.78,0,1.82.07,1.73-.14l-.76.06c-1.25-.3,3.09-.63,3.23-.78-1.32.59,3.9.15,1.8.89.52,0,1.16-.14,1-.28.76,0,1,.12.23.28,2.79-.11,1.8-.33,4.33-.32,0,.1-.52.13-.78.25a21.79,21.79,0,0,1,4.7-.3c-.13.06.12.13-.52.13,3.67,0,6.26-.51,10.28-.33-1.19.44,1.37.15,1.58.52l2.17-.11-.87-.18c1.89,0,3.57-.27,5.2-.15l-1.41.16,3.55-.07-2-.14c1.92-.2-.2-.48,2.32-.37-.51,0,1.9,0,2.88.22h0a15.65,15.65,0,0,1,3.3-.15c.37.12-.29.41-.05.49.92-.31,4.44-.08,5.61-.42-.39.08-.41.28-.29.32l.78-.25c.88.08,1,.12.86.27,2.65.05-.83-.47,2.3-.27a6.25,6.25,0,0,1-.64.1c3.15.11,6.08-.16,9,0,.85.38-2.53.1-1.55.41,4.17-.07,8.63-.45,12.67-.36l-.75,0c.56-.53,3,.26,5.05,0-.5,0-.66.3-.52.24,2.76.08,5.65-.13,9.84-.3l-.52.14c1.63.12,4.29.07,6.05.13.52-.14,1.53-.12.92-.31,5.42.77,10.35-.42,15.16.23-.57,0-1.37.11-.91.12l4.1-.13c-.33-.23-.54-.14-1.4-.32a13.09,13.09,0,0,1,2.69-.24c-1.84.15,0,.37.81.5-.13-.07.14-.15.08-.22,2.14.41.36-.47,3.28-.19l-.15.12c.51,0,1-.08,1.5-.12a14.06,14.06,0,0,1,1.49-.07v.21c-.11.28-.15.16-.18,0-.35,0-.85,0-.93.17l.82-.06a10.43,10.43,0,0,1,.18,3.39c-.07-.68-.07-1.77-.15-2.36a13,13,0,0,0-.28,3v-.12l-.14,2.8.08-.71c.7,2.07.13,4.22.58,7-.43-2.72-.25-.45-.55-.66-.08.72-.18,1.8-.26,1.49.24,1.32-.19,2.21.16,4.07-.09.09,0,1.42-.25,1.12.07,1.71.17-.41.29-.26.33,2.64-.4,6.22.05,10,.19,3.28.52,3.89.68,6.93-.15,1-.35-.84-.35-.84a26.7,26.7,0,0,0,0,4.47c-.08-.31-.15,0-.26.49,0,1.25.35.84.21,2.49a5.65,5.65,0,0,1-.39-1.25c.09,1.48.27,2.94.36,4.47-.17.41-.26-.92-.37-1.46a27.24,27.24,0,0,0,.42,5l.1-1.11c0,.63-.23.32-.28-.14-.21-1.47.09-2.12.19-2.21l.06,1.09c.57-1.12-.09-4.38-.06-6.57l.42.91-.35-2.25c.11-.48.34-.8.4.28.21-1.57-.14-1.39.09-2.74,0-.15.05-.09.07,0l-.13-1.53c.09.3.3-.26.24.68.24-2.75-.31-4.44,0-5.48l0,.23c-.14-3.83-.31-.37-.67-3.24L249,37l-.31-.37c0-.4,0-1.18.16-1-.21-1.47-.14.25-.33-.61.27-1.9-.13-5.24.35-5.67-.23-.68-.18,1.82-.34-.21.53-.58-.09-2.34.15-4.08.27.53.13,2.18.37.44-.46-1.05.1-3.38,0-4.85-.36-.06-.15-3.18-.27-5.64a3.08,3.08,0,0,0,.1-1c0-.35,0-.76.05-1.2s0-1.15,0-1.76l-2.35-.07L245,10.86l.07-.06c-.45.36-2.8.29-4.52.37.07-.22.38-.31,1.31-.4h-1.62a7.61,7.61,0,0,1-1.93.22l.41-.28c-2.15,0-4.33.33-7.1.14-.15.26,2.2.72-.72.89-.11-.14-.22-.38.55-.43a7.25,7.25,0,0,1-1.4,0l1.17-.23c-1.26-.1-.66.19-1.67.17,0-.19-.74-.14-.6-.29a8.79,8.79,0,0,0,1.26,0,16.25,16.25,0,0,1-3-.3c.1.11,0,.26-.83.29-2.15,0-.73-.24-2-.34-.52.14-1.89,0-1.92.29a2,2,0,0,1-1-.22c-1.11.13-5.2,0-3.94.35l.28,0-.18,0h0c-3.64.29-7.57-.17-11.19,0V11c-2.16.11-4.81.06-6.35.28-.64,0-1.5-.19-1.23-.3a25,25,0,0,1-4.22,0c1.66-.17-.57-.15,1.7-.13a23.26,23.26,0,0,0-4.93,0c.78-.25-1.62-.32-2.64-.24l1.51.18c-1.15,0-2.15,0-3.17,0l.55-.33c-4.39-.41-7.91.69-11.25,0-1.16.23,2.38.16,1.34.44-2,0-4.12-.53-4.75-.53-2.77-.18-2.58.49-5.48.36.38.12.72.44-1.44.55-2,0-2.48-.5-1.21-.59.49,0,.72,0,.7.06.65,0,1.51-.09.71-.22l-.26.12c-1-.12-3.78-.11-3.13-.3-1.53.11-.65.19.48.25-2.59-.17-4,0-6.72-.12.43.07.82.21.4.21-3.91-.15-1.72.22-4.38.27-1.5-.18.54-.43-2.12-.28-1.63-.12-.35-.31.3-.41a38.11,38.11,0,0,1-5.93-.19l1.28-.1c-.77.06-1.39.06-2,.06l.73.24c-.75-.05-1.39-.05-1.37-.15-.78.16.59.4-1,.61-1-.12-3,.13-3.4-.18,3.15.1-.35-.32,2.32-.37a15,15,0,0,1-1.89,0c-.12,0,.1-.06.31-.08-3-.28-1.39.36-4.51.35.39-.18-.73-.34-1.24-.3,1.26,0,.6.3-.55.43a21.15,21.15,0,0,0-3.23.09l1.2.06a12.17,12.17,0,0,1-2.81.21c-.12-.13,1.27-.09.77-.15-1.55.31-3.5-.33-5.66-.12-1-.12-.1-.33-1-.41-2.43.23-2.63-.24-5.18,0,.74.24.87.18-.93.41l4.19-.17-2.69.35c1.27,0,2.67-.15,3.43-.11-1.28.19-1.15.13-.55.33-1.73-.36-3.43.21-5.42,0l.06-.59c-3-.26-5.35.3-9.25.15l1.26.11a27,27,0,0,1-3.68.12c.12-.19-.67-.27-1.21-.39.06.15-2.86,0-3.21.38l-1.75-.26c-3.15-.1-3.59.57-6.62.5.91-.22-.47-.36,1.56-.51-1,0-1.92,0-1.93.1-.6-.12-2.81.26-3.74.08a4.37,4.37,0,0,1-1.7.27c-.13,0,0-.09,0-.09s-1.78.13-.78.35c-3.12-.62-8.71,0-11.43-.49-2.2.07-4.86.13-6.87.15.13-.06,0-.1.39-.08-2.77-.18-1.7.57-4.85.36-1.61-.32,1.67-.17.67-.29-.44-.65-3.8.09-5.92-.29l.52,0c-1.62-.22-4,.25-6.6.2,0,0,.13-.06,0-.1a69.65,69.65,0,0,1-7.77.53c.79-.25,1.15-.13.67-.39-1.14,0,.33.42-1.94.49-.74-.14-2.39-.26-2.6-.54h2.14c-1.1-.36-2.78,0-3.91-.05l.15-.16c-3.29.05-3.34.44-6.87.42l.36.11c-1.93.39-1.62-.21-3.55.08l-.58-.4c-1.28.1-4.47.38-6.75.46,1.29-.3,4-.45,5.62-.62a37.55,37.55,0,0,0-4.95.22,10.17,10.17,0,0,1,1.65-.07,32.4,32.4,0,0,1-6.11.46c.15-.25-.5-.36-1.51-.41-.5,0-1.09,0-1.72,0l-2.72,0c0,.5,0,1,0,1.46s0,1-.06,1.23a6.39,6.39,0,0,1-.21,1.35c.28,4.45-.12,8.84-.08,14,.6-1.84,0,1.51.63,1.19a9.65,9.65,0,0,1,0,1.78l-.37,3.67c-.17.86-.13-1.15-.27-1,0,2.64-.26,1.11-.42,2.86.22-.36.31.92.23,2.43l.28-2.13c.33,3.7-.51,3.2-.19,6.93L9.7,43.28c.11,1.92,0,7.06.49,8.94-.07.33-.24.78-.29-.06-.07,4.57.53,10.18.22,13.73L10,65.55c0,.42.09.79.13,1.19a6.19,6.19,0,0,1,.05.63c0,.11,0,.23,0,.35s0,.34,0,.53c-.07-.08-.15-.59-.16.11,0,.36.07,1.22.13,2.25l1.79-.06h.86a3.86,3.86,0,0,1,.51,0l-.52.08-.86.08,2,0c.5,0,1,0,1.43,0,.91,0,1.74-.09,2.55-.16,1.63-.14,3.16-.32,5-.37,0,.44,3.5.59,5.25.66l-.06.06c5.19,0,8.82-.37,13.63-.54,3,.48,10.12.2,14.91.47-.73-.08.12-.34,1-.39,1.12.09,3.11-.3,2.93.1h-.4c.85.4,3.16.29,5,.3l.3-.52c4.72.76,12.38-.29,15,.4,1.14-.13,2.56-.13,3.69-.26l-.06.28c3.16.07,4.73.11,8.64,0l-.8.21c2.21,0,2.79-.82,4.82-.84l.61.42c3.84,0,7.73.37,11.53,0-.06.06-.17.18-.79.2,1.8,0,7,.28,6.34-.3,0,.38,4,0,6-.13l-.32.28a18,18,0,0,1,4.25-.55c.58,0,.51.22-.26.15,1.93.15,1.51-.26,3.85-.11l-.88.17a8.56,8.56,0,0,0,2.93-.28,12.11,12.11,0,0,1,4.06.33,6.17,6.17,0,0,1,2.53-.29c.16.09-.27.15-.48.18,3.32.19,4.94-.32,7.23,0,.05.09.2.14.39.17-2.65,0-4.77,0-4.57,0,0,.25,2.13.3.43.65a45.12,45.12,0,0,1,6.72-.49,1.15,1.15,0,0,1,.28.09l-.22,0a9.36,9.36,0,0,0,1.32,0c.66,0,1.08.07,1.72.07a17.37,17.37,0,0,0,3.51.13c-.09-.28,1.3-.24,0-.47.17,0-.2,0-.91,0l-.45,0,.07,0-2.64,0a8.64,8.64,0,0,1,2.89-.11c.55-.18,1.15-.37,1.49-.45,1.45.39,4.26.6,4.65.84,3.25-.15,7.65-.1,9.69-.63a2.53,2.53,0,0,1,1.41.24,14,14,0,0,0-1.46.12c1.85-.14,5.47-.06,5.91-.43,2.33.17-1.3.34,1.89.28l-.43.12c6.29.59,10.23-1,17.2-.19a2.59,2.59,0,0,1-.82-.13c7.95.34,16.39-.31,24.23.22a13.78,13.78,0,0,0,3.83-.31l.49.3,2.32-.35c3.3-.25,5.72.74,9.9.26l-.54-.2c1.5,0,4.75-.12,4.5.11a2,2,0,0,1,1.08-.1l.05.16,3.68-.28c2.86.12-.45.63,3.72.66,1.55-.06,4.42-.46,3.84-.56s-1.6-.1-1.65-.26l1.42-.08c.25-.47,1.34-.94-2.13-1.27l-2.43.28-.78-.22,2,0a7,7,0,0,0-2.71.11,2.67,2.67,0,0,0-1-.25l-2.38.45c-.29-.19,1.07-.37-.53-.47-1.12.21,1.07.41-.78.55-1.16-.21-.82-.39-2.18-.21-.19-.12.1-.19.64-.24a33.55,33.55,0,0,0-3.84.3c-1.21-.26-4.09.07-4-.37a19.2,19.2,0,0,1-3.25.36c2-.52-4.16,0-3.63-.59-1.5.47-5.43.21-8.1.47a2.2,2.2,0,0,1,.68-.09,27.81,27.81,0,0,1-2.9-.27c-.2.39-2.53.48-3.79.72-1.84-.37,1.11-.46.54-.82.09.32-3.2.32-2.57.58-1.41-.23-1.21-.11-1.94-.44-.25.49-1.31.09-2.48.39-2-.24-.52-.46-2.76-.31C196.87,68.08,198.86,67.9,198.86,67.9Zm-53.19.85h0l1.1,0Zm-4.47,0h1.94c.16.09,0,.19-.46.19C142.93,68.89,141.87,68.84,141.2,68.76Zm9.46,1.94c-.71,0-.95,0-1-.07l1.23,0,.09,0A.61.61,0,0,1,150.66,70.7Z"/><path class="cls-1" d="M151.93,70.33l.29,0-.42-.06-.25.09Z"/><path class="cls-1" d="M217.6,11.08h-.1a.88.88,0,0,1,.2,0Z"/><polygon class="cls-1" points="79.49 68.22 79.5 68.29 79.89 68.23 79.49 68.22"/><path class="cls-1" d="M242.21,12.05a1.19,1.19,0,0,0,.33.07A1.1,1.1,0,0,0,242.21,12.05Z"/><path class="cls-1" d="M247.87,15.87l-.1,1.5C247.83,16.72,247.85,16.25,247.87,15.87Z"/><path class="cls-1" d="M247.73,24a.32.32,0,0,0,.12.16h0Z"/><path class="cls-1" d="M131,12.58h-.31C130,12.65,130.48,12.63,131,12.58Z"/><path class="cls-1" d="M169.72,11.92l-1.25.14C169.16,12.08,169.7,12.08,169.72,11.92Z"/><path class="cls-1" d="M87.84,12.92h0Z"/><path class="cls-1" d="M166.67,12.05a12.08,12.08,0,0,0,1.8,0A18,18,0,0,0,166.67,12.05Z"/><path class="cls-1" d="M247.6,59.48v.39s0,0,0,.05Z"/><path class="cls-1" d="M247.64,59.92l0,.44A1.52,1.52,0,0,0,247.64,59.92Z"/><path class="cls-1" d="M247.74,61.28l-.07-.92A3.25,3.25,0,0,0,247.74,61.28Z"/><path class="cls-1" d="M247.73,48.65l-.1-.12A.16.16,0,0,0,247.73,48.65Z"/><path class="cls-1" d="M247.7,45.37c0,.78-.21,2-.15,3.06l.08.1C247.48,48,247.88,46.11,247.7,45.37Z"/><path class="cls-1" d="M249,31.64l-.08,2.75c.11-.48.26-1.11.28.14C249.49,31.06,248.92,35.25,249,31.64Z"/><path class="cls-1" d="M249.12,23.09c0,1.48.16,0,.22.06C249.24,22.21,249.22,22,249.12,23.09Z"/><path class="cls-1" d="M198.32,10.86l.15-.26C197.32,10.64,198.46,10.7,198.32,10.86Z"/><polygon class="cls-1" points="186.51 12.18 187.62 12.34 188.15 12.1 186.51 12.18"/><polygon class="cls-1" points="179.54 10.36 180.04 10.32 178.13 10.41 179.54 10.36"/><path class="cls-1" d="M75.82,10.45l.35.31C76.94,10.71,77.1,10.35,75.82,10.45Z"/><path class="cls-1" d="M31.05,10.77a6.47,6.47,0,0,0-2.53-.1C29.53,10.69,30.53,10.81,31.05,10.77Z"/><polygon class="cls-1" points="67.61 70.74 66.71 70.85 68.41 70.76 67.61 70.74"/><path class="cls-1" d="M256.83,76.5c.09.34.29.15.25-.8l-.33-.67Z"/><path class="cls-1" d="M257.45,70.11c-.16-1.12-.44-2.41-.75-1.68.32,1.1.19,1.37.57,2.56,0,1-.11,1.66-.23,1.5a11.15,11.15,0,0,0,.13,2,13.85,13.85,0,0,0,.06-4.44C257.3,69.69,257.39,70,257.45,70.11Z"/><path class="cls-1" d="M231.25,3l.59,0A3.34,3.34,0,0,0,231.25,3Z"/><path class="cls-1" d="M173.71,2.85c.44,0,.62,0,.64-.07C174,2.81,173.61,2.83,173.71,2.85Z"/><path class="cls-1" d="M163.89,2.49l.57,0A1.89,1.89,0,0,0,163.89,2.49Z"/><path class="cls-1" d="M231.25,3l-1.54-.11C229.6,3,230.5,3,231.25,3Z"/><path class="cls-1" d="M256.65,57.3a8.34,8.34,0,0,0,.09.84c0-.27,0-.52,0-.79Z"/><path class="cls-1" d="M256.94,2.77h.68l.69-.14Z"/><path class="cls-1" d="M258.28,22.08c0-.44-.27-.6-.39-.77a2.59,2.59,0,0,1,.19,1C258.14,22.28,258.2,22.22,258.28,22.08Z"/><path class="cls-1" d="M257.79,52.94l0,.55C257.82,53.35,257.8,53.11,257.79,52.94Z"/><path class="cls-1" d="M242.68,2.71a.45.45,0,0,0-.18-.1S242.57,2.68,242.68,2.71Z"/><path class="cls-1" d="M234.94,75.18s0,0,0,0S235.09,75.18,234.94,75.18Z"/><path class="cls-1" d="M257.5,76.57l-.31,0a.26.26,0,0,0-.07.16Z"/><path class="cls-1" d="M145.91,2.13H146C146.46,2.1,146.19,2.11,145.91,2.13Z"/><path class="cls-1" d="M1.92,25.72c.25-1.87.32,3,.6.23C2.41,26.21,2.08,23.39,1.92,25.72Z"/><path class="cls-1" d="M256.69,56.8c0-.26,0-.53,0-.8C256.67,56.37,256.68,56.61,256.69,56.8Z"/><path class="cls-1" d="M2.52,26h0l0-.29C2.54,25.78,2.53,25.85,2.52,26Z"/><path class="cls-1" d="M104.48,2.3a1.53,1.53,0,0,0,.42.12S104.8,2.36,104.48,2.3Z"/><path class="cls-1" d="M135.34,2.7l-.76,0A7.6,7.6,0,0,0,135.34,2.7Z"/><path class="cls-1" d="M88.46,2.7a6.52,6.52,0,0,0-1.12,0l.17,0A3.11,3.11,0,0,1,88.46,2.7Z"/><path class="cls-1" d="M71.78,2.7l.31,0h.53Z"/><path class="cls-1" d="M184.25,75.32a2.75,2.75,0,0,1,.77.25C184.76,75.37,187.21,75.3,184.25,75.32Z"/><path class="cls-1" d="M256.81,57.3a.9.9,0,0,1-.12-.5c0,.19,0,.37,0,.55S256.78,57.41,256.81,57.3Z"/><path class="cls-1" d="M87.78,4.91l-2.65,0C85.87,4.9,86.84,4.91,87.78,4.91Z"/><path class="cls-1" d="M64.61,75.36l.6,0A2.65,2.65,0,0,0,64.61,75.36Z"/><path class="cls-1" d="M77.27,4.91a11.66,11.66,0,0,0-1.49-.19,1.8,1.8,0,0,0-.31.07Z"/><path class="cls-1" d="M185,75.57h0Z"/><path class="cls-1" d="M202.48,74.9c-2.52,0-1.19.37-1.72.58-3,.1-1.4-.27-2.42-.46-1.88.09-3.33.43-4.73.42-.1-.06-.38-.08-.06-.16-2,.29-5.9,0-8.22.38a.81.81,0,0,1-.3-.09c.37.19.43.37.35.51a8.38,8.38,0,0,1-2.52,0,2.54,2.54,0,0,0,1.07-.17l-1.18.11c-1.07-.35,1.62-.12,1.62-.38-2.32.12-5,.4-6.78.3-.37-.34,4.14-.11,1.78-.41l2.74.13c-2.1-.54,1.66,0-.26-.54-3.61-.1-4,.18-7.64.08-.81.18.27.28-.54.46-5.12.34-4-.85-7.79-.4a7.91,7.91,0,0,1-4,.43l.92-.38c-3.5,0-2,.55-5.66.29.65-.15,2.75-.13,2.22-.17-2.37-.31-1.68.22-3.5.22l-.38-.34c-3.72,0-7.81.29-11.93.36.23-.1.93-.21,0-.31-5.2.17-11.09,0-16.1-.25l-1.92.3c-.44,0-.83-.14-.34-.19-2-.12-.1.18-1,.3-1.11,0-1.47-.17-.77-.26a105.33,105.33,0,0,1-13.45.22l.71-.08c-2.83-.12-3.19.6-5.81.32l.5,0c-6.13-.13-12.92.14-17.6-.3-.89.42-6.07-.19-6.47.4-3.5-.29-2.5-.4-7.43-.59-1.32,0-2,.37-3.6.43l0-.31-2.21.32-1.18-.37-1.53.08c.61,0,1.3.14,1.21.23a24.36,24.36,0,0,1-5.88-.37l-5.65.26a7.82,7.82,0,0,1,1.82-.25c-3,.32-.55-.32-3.31,0,.37.07-.2.18-.27.24a54,54,0,0,0-6.83-.11l.45-.21c-4.19,0-8.83.1-13.54.1,1.69.1,1.3.46-.08.5l-.55-.33c-.89.21,1.44.13-.39.37-1.75,0-1.18-.37-.17-.47l-2.13.11c-.13-.1.37-.15.5-.27-.87.2-3.68-.33-4.95,0L25.32,75c-4.7,0-6.83.1-10.66.12-.07.28-1.57.22-2.71.45l-4.23-.18L4.29,75.3v-.12a1.44,1.44,0,0,0-.09-.29c0-.16-.07-.23-.1-.23s-.13.14-.21-.39c.26-.18.23-3.56.42-1.81,0-4.07-.06-5.19-.26-10.34-.11.56-.15,1.19-.24.86,0-.93.11-2.12.23-2l0,.25c-.39-5.78.74-13.33.21-17.93l0,.25L4,38.79c0-2.19.19,1.32.35-.3-.43-5.15.06-8.13-.23-12.37.76-3.28,0-11.64.43-16.07l-.17.26a6.94,6.94,0,0,1,.14-2.23c-.14.12-.16,1.24-.26.53,0-1.3,0-2.62,0-4l5,.06,6.23.13,12.44.29c3.63,0,2.06-.92,6.64-.5L33.26,5c7.34-.39,15,0,22.18-.32a3.37,3.37,0,0,1-1.14.17,20.94,20.94,0,0,0,5.63-.18c1.12,0,.26.18,1,.28,1.52.14,3.82-.31,4.63-.07.14,0-.43.08-.71.1,1-.12,4.62,0,3.67-.25,2.7.13,5.16-.13,7.31,0,1.4-.31,4.61.15,5-.29-.19.45,4.73.36,6.43.15-.57.14,1.49.14.82.33,1.94,0,3.72-.09,3.38-.32,3.59.54,7.21-.44,9.22.26,5.78-.24,11.12-.41,16.32-.52-.19.46-5.74,0-5.52.52,4.93-.18,7.77-.57,12.66-.46,1.27.06-.72.19-1.15.27,4.93-.18,9.53,0,13.91-.2a4,4,0,0,1-.93.12c.86,0,2,.07,1.91-.14L137,4.5c-1.38-.3,3.43-.63,3.58-.78-1.47.59,4.33.15,2,.89.57,0,1.28-.14,1.15-.28.84,0,1.11.12.26.28,3.09-.11,2-.33,4.79-.32,0,.1-.57.13-.86.25a26.74,26.74,0,0,1,5.21-.3c-.14.06.13.13-.57.13,4.07,0,6.93-.51,11.39-.33-1.31.44,1.52.15,1.76.52l2.4-.11-1-.18c2.11,0,4-.27,5.77-.15l-1.56.16,3.94-.07-2.23-.14c2.13-.2-.23-.48,2.57-.37-.57,0,2.1,0,3.2.22h0a19.23,19.23,0,0,1,3.66-.15c.41.12-.32.41-.06.49,1-.31,4.92-.08,6.22-.42-.43.08-.45.28-.31.32l.86-.25c1,.08,1.12.12,1,.27,2.93.05-.93-.47,2.54-.27A7,7,0,0,1,192,4c3.49.11,6.75-.16,10,0,.94.38-2.81.1-1.72.41,4.62-.07,9.57-.45,14.05-.36l-.83,0c.62-.53,3.33.26,5.59,0-.55,0-.72.3-.57.24,3.06.08,6.26-.13,10.91-.3l-.58.14c1.81.12,4.76.07,6.71.13.58-.14,1.7-.12,1-.31,6,.77,11.48-.42,16.81.23-.63,0-1.52.11-1,.12l2.27-.07,1.89-.06c0-.12-.14-.15-.29-.18l-.87-.14a13.22,13.22,0,0,1,2.08-.23c0,.27,0,.54,0,.8,0-.47-.08-.66-.12-.69s-.08.05-.07.07a5.18,5.18,0,0,0-.17.72l-.14.78c.07-.15.15.16.22.08-.41,2.38.47.4.19,3.64l-.12-.17c.06,1.22.22,2.33.19,3.64-.27.55-.13-1.29-.35-1.37,0,1.84.51,3.62.24,5.29-.07-.78-.07-1.91-.15-2.69a17.21,17.21,0,0,0-.28,3.37V16.9L256.76,20l.08-.79c.7,2.3.13,4.68.58,7.78-.43-3-.25-.49-.55-.73-.08.8-.18,2-.26,1.66.24,1.46-.19,2.44.16,4.51-.09.09,0,1.57-.25,1.24.07,1.9.17-.45.29-.29.33,2.93-.4,6.9.05,11.12.19,3.64.52,4.31.68,7.69-.15,1.14-.35-.93-.35-.93a32.74,32.74,0,0,0,0,4.95c-.08-.35-.15,0-.26.54,0,1.39.35.93.21,2.77a7.14,7.14,0,0,1-.39-1.39c.09,1.64.27,3.26.36,5-.17.45-.26-1-.37-1.62a33.24,33.24,0,0,0,.42,5.53l.1-1.22c0,.69-.23.36-.28-.16a3.84,3.84,0,0,1,.19-2.45l.06,1.21c.57-1.24-.09-4.85-.06-7.28l.42,1-.35-2.5c.11-.53.34-.89.4.31.21-1.74-.14-1.54.09-3,0-.17,0-.09.07.06l-.13-1.7c.09.33.3-.29.24.76.24-3.06-.31-4.93,0-6.08l0,.25c-.14-4.24-.31-.41-.67-3.59l.76-2.15-.31-.41c0-.44,0-1.31.16-1.15-.21-1.63-.14.28-.33-.66.27-2.11-.13-5.82.35-6.29-.23-.76-.18,2-.34-.24.53-.64-.09-2.6.15-4.52.27.59.13,2.41.37.49-.46-1.16.1-3.75,0-5.38-.36-.07-.15-3.53-.27-6.25.12.17.2-5.13.33-7.67l.06.08a5,5,0,0,1-.29-1.94c0-1-.05-2.27-.08-3.32h-.1a.4.4,0,0,1,.17-.07c.17-.07.25.34.33,1.65v-2h-.61a21.37,21.37,0,0,1-2.68.22l.45-.28c-2.39,0-4.8.33-7.87.14-.17.26,2.44.72-.8.89-.12-.14-.24-.38.61-.43a8.86,8.86,0,0,1-1.55,0l1.29-.23c-1.39-.1-.73.19-1.84.17,0-.19-.83-.14-.67-.29A10.83,10.83,0,0,0,246,3a19.68,19.68,0,0,1-3.28-.3c.11.11,0,.26-.92.29-2.39,0-.82-.24-2.21-.34-.58.14-2.1,0-2.14.29a2.4,2.4,0,0,1-1.09-.22c-1.23.13-5.76,0-4.37.35l.31,0-.2,0h0c-4,.29-8.39-.17-12.4-.05V3c-2.39.11-5.32.06-7,.28-.71,0-1.67-.19-1.37-.3a30.79,30.79,0,0,1-4.68,0c1.84-.17-.63-.15,1.89-.13a28.62,28.62,0,0,0-5.47,0c.87-.25-1.79-.32-2.92-.24l1.66.18c-1.27,0-2.38,0-3.51,0l.61-.33c-4.86-.41-8.77.69-12.48,0-1.28.23,2.65.16,1.5.44-2.24-.05-4.57-.53-5.27-.53-3.07-.18-2.86.49-6.07.36.41.12.79.44-1.6.55-2.24,0-2.76-.5-1.34-.59.54,0,.79,0,.77.06.73,0,1.67-.09.79-.22l-.29.12c-1.11-.12-4.19-.11-3.47-.3-1.69.11-.72.19.53.25-2.87-.17-4.49,0-7.45-.12.47.07.91.21.44.21-4.34-.15-1.91.22-4.85.27-1.67-.18.6-.43-2.36-.28-1.8-.12-.38-.31.34-.41a46.85,46.85,0,0,1-6.58-.19l1.42-.1c-.85.06-1.54.06-2.25.06l.81.24a4.88,4.88,0,0,1-1.52-.15c-.86.16.65.4-1,.61-1.11-.12-3.38.13-3.77-.18,3.5.1-.38-.32,2.57-.37a18.52,18.52,0,0,1-2.1,0c-.12,0,.12-.06.35-.08-3.35-.28-1.54.36-5,.35.44-.18-.8-.34-1.37-.3,1.4,0,.67.3-.61.43a26.06,26.06,0,0,0-3.58.09l1.33.06a14.84,14.84,0,0,1-3.11.21c-.13-.13,1.41-.09.85-.15-1.72.31-3.88-.33-6.28-.12-1.11-.12-.11-.33-1.08-.41-2.69.23-2.91-.24-5.74,0,.81.24,1,.18-1,.41l4.64-.17-3,.35c1.4,0,3-.15,3.8-.11-1.42.19-1.28.13-.6.33-1.92-.36-3.81.21-6,0l.06-.59c-3.33-.26-5.92.3-10.25.15l1.39.11a33,33,0,0,1-4.07.12c.13-.19-.75-.27-1.35-.39.08.15-3.16,0-3.56.38l-1.93-.26c-3.49-.1-4,.57-7.35.5,1-.22-.51-.36,1.74-.51a7,7,0,0,0-2.15.1c-.65-.12-3.11.26-4.14.08A5.29,5.29,0,0,1,85.62,3c-.14,0,0-.09,0-.09s-2,.13-.87.35c-3.46-.62-9.66,0-12.67-.49-2.45.07-5.4.13-7.62.15.14-.06,0-.1.43-.08-3.07-.18-1.89.57-5.38.36-1.78-.32,1.86-.17.75-.29-.49-.65-4.21.09-6.56-.29l.57,0c-1.8-.22-4.38.25-7.31.2,0,0,.14-.06,0-.1a85.41,85.41,0,0,1-8.62.53c.88-.25,1.28-.13.75-.39-1.27,0,.37.42-2.16.49-.82-.14-2.64-.26-2.88-.54h2.38c-1.22-.36-3.08,0-4.33-.05l.16-.16c-3.65.05-3.7.44-7.62.42l.4.11c-2.14.39-1.79-.21-3.93.08l-.65-.4c-1.41.1-5,.38-7.49.46,1.44-.3,4.41-.45,6.24-.62a46.1,46.1,0,0,0-5.49.22,12.55,12.55,0,0,1,1.83-.07,39.65,39.65,0,0,1-6.77.46c.16-.25-.56-.36-1.68-.41-.55,0-1.21,0-1.9,0l-2.94,0c0,.56,0,1.1,0,1.63,0,.26,0,.52,0,.78l0,.48A7.55,7.55,0,0,1,2,7.09c.29,4.94-.12,9.8-.07,15.56.59-2,0,1.68.63,1.32a11.8,11.8,0,0,1,0,2L2.16,30C2,31,2,28.73,1.89,28.86c0,2.93-.26,1.23-.42,3.17.22-.4.31,1,.23,2.69L2,32.37c.32,4.1-.51,3.54-.19,7.68l-.2-1.31c.12,2.12,0,7.83.49,9.91-.07.37-.24.87-.28-.07-.07,5.07.52,11.29.22,15.23l-.15-.38A13.28,13.28,0,0,1,2,66.26c-.06-.06-.15-.38-.16.06A24.92,24.92,0,0,1,2,70.08L1.85,69c-.06,1.54,0,2.86,0,4.07,0,.6.07,1.18.11,1.75,0,.89.09,1.77.13,2.65l3-.16c.7,0,1.43-.08,2.21-.1,0,.44,3.88.59,5.83.66l-.07.06c5.76,0,9.78-.37,15.11-.54,3.32.48,11.22.2,16.54.47-.81-.08.13-.34,1.08-.39,1.25.09,3.45-.3,3.25.1h-.44c.94.4,3.5.29,5.51.3l.33-.52c5.24.76,13.73-.29,16.59.4,1.26-.13,2.83-.13,4.08-.26l-.06.28c3.5.07,5.25.11,9.58,0l-.88.21c2.44,0,3.08-.82,5.34-.84l.68.42c4.26,0,8.57.37,12.78,0-.07.06-.19.18-.88.2,2,0,7.76.28,7-.3,0,.38,4.4,0,6.7-.13l-.36.28a22.15,22.15,0,0,1,4.72-.55c.64,0,.56.22-.29.15,2.14.15,1.67-.26,4.27-.11l-1,.17A10.4,10.4,0,0,0,126,77a14.91,14.91,0,0,1,4.51.33,7.5,7.5,0,0,1,2.8-.29c.18.09-.3.15-.53.18,3.68.19,5.48-.32,8,0a.64.64,0,0,0,.43.17c-2.93,0-5.29,0-5.07,0,0,.25,2.37.3.49.65a55.24,55.24,0,0,1,7.45-.49,1.18,1.18,0,0,1,.3.09l-.23,0a11.27,11.27,0,0,0,1.45,0c.74,0,1.21.07,1.91.07a21.36,21.36,0,0,0,3.89.13c-.09-.28,1.45-.24,0-.47.19,0-.22,0-1,0l-.51,0,.08,0-2.93,0a10.65,10.65,0,0,1,3.21-.11c.61-.18,1.27-.37,1.65-.45,1.61.39,4.72.6,5.16.84,3.6-.15,8.48-.1,10.75-.63a3.06,3.06,0,0,1,1.56.24c-.6,0-1.3,0-1.62.12,2-.14,6.07-.06,6.56-.43,2.58.17-1.45.34,2.09.28l-.48.12c7,.59,11.34-1,19.08-.19a3.2,3.2,0,0,1-.92-.13c8.82.34,18.17-.31,26.87.22a16.94,16.94,0,0,0,4.25-.31l.54.3,2.58-.35c3.66-.25,6.33.74,11,.26l-.6-.2c1.66,0,5.27-.12,5,.11a2.51,2.51,0,0,1,1.2-.1l0,.16,4.08-.28c3.17.12-.49.63,4.13.66,1.72-.06,4.89-.46,4.25-.56s-1.77-.1-1.82-.26l1.57-.08c.28-.47,1.49-.94-2.37-1.27l-2.69.28-.86-.22,2.26,0a8.56,8.56,0,0,0-3,.11,3.09,3.09,0,0,0-1.12-.25l-2.64.45c-.32-.19,1.18-.37-.59-.47-1.24.21,1.18.41-.86.55a4.89,4.89,0,0,0-2.42-.21c-.22-.12.1-.19.7-.24a41.29,41.29,0,0,0-4.25.3c-1.34-.26-4.53.07-4.4-.37a23.6,23.6,0,0,1-3.6.36c2.25-.52-4.62,0-4-.59-1.67.47-6,.21-9,.47a2.65,2.65,0,0,1,.75-.09c-1.67,0-2.15-.18-3.22-.27-.21.39-2.8.48-4.2.72-2-.37,1.24-.46.6-.82.1.32-3.54.32-2.85.58a6.07,6.07,0,0,1-2.15-.44c-.27.49-1.45.09-2.74.39-2.26-.24-.59-.46-3.06-.31C200.28,75.08,202.48,74.9,202.48,74.9Zm-59,.85h0l1.22,0Zm-5,0h2.15c.18.09,0,.19-.51.19C140.46,75.89,139.29,75.84,138.55,75.76ZM149,77.7a2.63,2.63,0,0,1-1.16-.07l1.37,0,.1,0A.69.69,0,0,1,149,77.7Z"/><path class="cls-1" d="M150.45,77.33l.32,0-.47-.06-.28.09Z"/><path class="cls-1" d="M232,3.08h-.11a1,1,0,0,1,.22,0Z"/><polygon class="cls-1" points="70.13 75.22 70.13 75.29 70.56 75.23 70.13 75.22"/><path class="cls-1" d="M257,5.24a1.43,1.43,0,0,0-.07.36A1.14,1.14,0,0,0,257,5.24Z"/><path class="cls-1" d="M256.89,17l-.1,1.67C256.85,18,256.87,17.45,256.89,17Z"/><path class="cls-1" d="M256.75,26.1a.45.45,0,0,0,.12.17h0Z"/><path class="cls-1" d="M136,4.58h-.35C134.8,4.65,135.35,4.63,136,4.58Z"/><path class="cls-1" d="M178.86,3.92l-1.38.14C178.24,4.08,178.84,4.08,178.86,3.92Z"/><path class="cls-1" d="M88.07,4.92h0Z"/><path class="cls-1" d="M175.49,4.05a14.76,14.76,0,0,0,2,0C176.85,4,176.12,4,175.49,4.05Z"/><path class="cls-1" d="M256.62,65.39v.43s0,0,.05.06Z"/><path class="cls-1" d="M256.66,65.88l0,.48A1.82,1.82,0,0,0,256.66,65.88Z"/><path class="cls-1" d="M256.76,67.38l-.07-1A4,4,0,0,0,256.76,67.38Z"/><path class="cls-1" d="M256.75,53.39l-.1-.14A.22.22,0,0,0,256.75,53.39Z"/><path class="cls-1" d="M256.72,49.74c0,.87-.21,2.18-.15,3.4l.08.11C256.5,52.68,256.9,50.57,256.72,49.74Z"/><path class="cls-1" d="M258,34.52l-.08,3c.11-.53.26-1.23.28.16C258.51,33.88,257.94,38.52,258,34.52Z"/><path class="cls-1" d="M258.14,25c.05,1.65.16,0,.22.07C258.26,24.07,258.24,23.82,258.14,25Z"/><path class="cls-1" d="M210.57,2.86l.17-.26C209.47,2.64,210.72,2.7,210.57,2.86Z"/><polygon class="cls-1" points="197.48 4.18 198.71 4.34 199.3 4.1 197.48 4.18"/><polygon class="cls-1" points="189.75 2.36 190.3 2.32 188.19 2.41 189.75 2.36"/><path class="cls-1" d="M74.75,2.45l.38.31C76,2.71,76.17,2.35,74.75,2.45Z"/><path class="cls-1" d="M25.1,2.77a7.9,7.9,0,0,0-2.8-.1C23.42,2.69,24.53,2.81,25.1,2.77Z"/><polygon class="cls-1" points="56.96 77.74 55.96 77.85 57.84 77.76 56.96 77.74"/><path class="cls-2" d="M51.44,29.12l-.3,3.29h-.77c-.11-.42-.21-.79-.31-1.1a1.65,1.65,0,0,0-.49-.76,2.13,2.13,0,0,0-.93-.45A7.16,7.16,0,0,0,47,30V48.67a15.14,15.14,0,0,0,.1,1.95,6.34,6.34,0,0,0,.27,1.24,2.21,2.21,0,0,0,.36.87h-5a3.56,3.56,0,0,0,.37-.87,10.25,10.25,0,0,0,.25-1.24,13.17,13.17,0,0,0,.12-1.95V30a7.25,7.25,0,0,0-1.67.15,2.13,2.13,0,0,0-.93.45,1.71,1.71,0,0,0-.48.76c-.1.31-.21.68-.32,1.1H39.3L39,29.12Z"/><path class="cls-2" d="M60.35,52.73a3.64,3.64,0,0,0,.3-.77,8.24,8.24,0,0,0,.15-1,5.31,5.31,0,0,0-.12-1.41l-1.56-8.11H55.66L53.46,51a3.52,3.52,0,0,0-.06.63v.56a5.17,5.17,0,0,0,0,.57H51.64a3.34,3.34,0,0,0,.3-.53,5.37,5.37,0,0,0,.24-.62c.08-.23.17-.49.25-.78l4.63-20a9.19,9.19,0,0,0-.44-1.26l-.2-.4h3.83l2.06,10.57,2.06,10.58a6.14,6.14,0,0,0,.27,1,7.64,7.64,0,0,0,.33.78,3.88,3.88,0,0,0,.37.67ZM58.92,40.39l-1.4-7.15-1.63,7.15Z"/><path class="cls-2" d="M72.39,29.12a9,9,0,0,1,2.41.3,4.83,4.83,0,0,1,1.86.95,4.15,4.15,0,0,1,1.21,1.69,6.55,6.55,0,0,1,.44,2.51,6,6,0,0,1-1.48,4.26,5.49,5.49,0,0,1-4.18,1.56,3,3,0,0,1-1-.18,2.81,2.81,0,0,1-.85-.48v8.94a15.14,15.14,0,0,0,.1,1.95,5.75,5.75,0,0,0,.26,1.24,2.21,2.21,0,0,0,.37.87h-5a3.32,3.32,0,0,0,.37-.87,10.25,10.25,0,0,0,.25-1.24,14.91,14.91,0,0,0,.11-1.95V33.18a14.91,14.91,0,0,0-.11-1.95A10.48,10.48,0,0,0,66.87,30a3.38,3.38,0,0,0-.37-.86Zm.23,10.44a1.55,1.55,0,0,0,1.1-.4,2.56,2.56,0,0,0,.66-1.06,6.67,6.67,0,0,0,.32-1.58c0-.61.08-1.25.08-1.91a7.24,7.24,0,0,0-.28-2.17A4.15,4.15,0,0,0,73.75,31,2.88,2.88,0,0,0,71.56,30h-.8v5.92a1.5,1.5,0,0,1,.6-.37,1.82,1.82,0,0,1,.73-.1,1.55,1.55,0,0,1,.68.24,1.09,1.09,0,0,1,.45.56,1.77,1.77,0,0,0-1,.1,1.91,1.91,0,0,0-.78.58,2.14,2.14,0,0,0-.4.88,2,2,0,0,0,.1,1,1.2,1.2,0,0,0,.52.51A1.83,1.83,0,0,0,72.62,39.56Z"/><path class="cls-2" d="M96.8,29.12l-.3,3.29h-.77c-.11-.42-.21-.79-.31-1.1a1.65,1.65,0,0,0-.49-.76A2.13,2.13,0,0,0,94,30.1,7.16,7.16,0,0,0,92.34,30V48.67a15.14,15.14,0,0,0,.1,1.95,5.68,5.68,0,0,0,.27,1.24,2.21,2.21,0,0,0,.36.87h-5a3.56,3.56,0,0,0,.37-.87,10.25,10.25,0,0,0,.25-1.24,13.34,13.34,0,0,0,.11-1.95V30a7.16,7.16,0,0,0-1.66.15,2.13,2.13,0,0,0-.93.45,1.71,1.71,0,0,0-.48.76c-.1.31-.21.68-.32,1.1h-.76l-.3-3.29Z"/><path class="cls-2" d="M105.08,28.82a6.14,6.14,0,0,1,2.26.4,5.51,5.51,0,0,1,1.78,1.08,4.52,4.52,0,0,1,1.14,1.6,4.68,4.68,0,0,1,.4,1.94V48a4.55,4.55,0,0,1-.43,2,5,5,0,0,1-1.18,1.58,5.92,5.92,0,0,1-1.78,1.06A6.05,6.05,0,0,1,105,53a6.28,6.28,0,0,1-2.28-.4A6.21,6.21,0,0,1,101,51.57,4.88,4.88,0,0,1,99.75,50a4.7,4.7,0,0,1-.43-2V33.84a4.29,4.29,0,0,1,.45-1.94A5,5,0,0,1,101,30.3a5.75,5.75,0,0,1,1.83-1.08A6.2,6.2,0,0,1,105.08,28.82Zm2.06,4.92a2,2,0,0,1-1.13.4,3.29,3.29,0,0,1-1.15-.28,1,1,0,0,1-.58-.92,2,2,0,0,0,2-.19,1.81,1.81,0,0,0,.56-.79,1.91,1.91,0,0,0,.05-1.09V30.8a2.54,2.54,0,0,0-.63-.8,1.73,1.73,0,0,0-1.16-.35,1.92,1.92,0,0,0-1.08.27,2.18,2.18,0,0,0-.69.66,2.5,2.5,0,0,0-.36.86,3.94,3.94,0,0,0-.1.87v17.3a3.8,3.8,0,0,0,.1.83,2.4,2.4,0,0,0,.35.86A2.14,2.14,0,0,0,104,52a2.24,2.24,0,0,0,2.13,0,2,2,0,0,0,.65-.67,2.53,2.53,0,0,0,.31-.86,4.59,4.59,0,0,0,.09-.87Z"/><path class="cls-2" d="M124.66,46.68a1.31,1.31,0,0,1,.85-.32,2.59,2.59,0,0,1,1.16.18,2.51,2.51,0,0,1,1,.82,2.58,2.58,0,0,1,.45,1.58,4.9,4.9,0,0,1-.2,1.3,4,4,0,0,1-.72,1.33,3.76,3.76,0,0,1-1.45,1,5.82,5.82,0,0,1-2.39.42,7.62,7.62,0,0,1-2.61-.4,5.83,5.83,0,0,1-1.88-1.08,4.51,4.51,0,0,1-1.15-1.6,5.08,5.08,0,0,1-.38-1.94V33.81a5.1,5.1,0,0,1,.38-2,4.39,4.39,0,0,1,1.15-1.59,5.67,5.67,0,0,1,1.88-1.09,7.88,7.88,0,0,1,2.61-.39,6.83,6.83,0,0,1,2.74.46,4.44,4.44,0,0,1,1.63,1.15,3.7,3.7,0,0,1,.8,1.46,5.68,5.68,0,0,1,.22,1.45,4.22,4.22,0,0,1-.34,1.78,3.72,3.72,0,0,1-.84,1.23,3.47,3.47,0,0,1-1.12.71,3,3,0,0,1-1.1.24,4.37,4.37,0,0,1-1.18-.17,3.48,3.48,0,0,1-1-.47,2.34,2.34,0,0,1-.68-.69,1.55,1.55,0,0,1-.25-.84,2.92,2.92,0,0,0,2.19-.11,2.67,2.67,0,0,0,1.5-1.52,2.62,2.62,0,0,0,.2-1.09,3,3,0,0,0-.28-1.28,2.73,2.73,0,0,0-.87-1.05,2.51,2.51,0,0,0-1.54-.43,2.67,2.67,0,0,0-1.23.26,2.31,2.31,0,0,0-.8.67,2.38,2.38,0,0,0-.42.86,3.33,3.33,0,0,0-.11.83V49.57a3.33,3.33,0,0,0,.11.83,2.5,2.5,0,0,0,.42.87,2.4,2.4,0,0,0,.8.66,2.54,2.54,0,0,0,1.23.27,2.51,2.51,0,0,0,1.91-.77,3.15,3.15,0,0,0,.85-1.73,3.1,3.1,0,0,0-.24-1.93A2.45,2.45,0,0,0,124.66,46.68Z"/><path class="cls-2" d="M136.63,28.82a6.19,6.19,0,0,1,2.27.4,5.36,5.36,0,0,1,1.77,1.08,4.54,4.54,0,0,1,1.15,1.6,4.68,4.68,0,0,1,.4,1.94V48a4.55,4.55,0,0,1-.43,2,5,5,0,0,1-1.18,1.58,5.92,5.92,0,0,1-1.78,1.06,6.05,6.05,0,0,1-2.23.4,6.28,6.28,0,0,1-2.28-.4,6.08,6.08,0,0,1-1.81-1.06,4.88,4.88,0,0,1-1.2-1.58,4.7,4.7,0,0,1-.43-2V33.84a4.29,4.29,0,0,1,.45-1.94,5,5,0,0,1,1.23-1.6,5.75,5.75,0,0,1,1.83-1.08A6.18,6.18,0,0,1,136.63,28.82Zm2.07,4.92a2,2,0,0,1-1.13.4,3.24,3.24,0,0,1-1.15-.28,1,1,0,0,1-.58-.92,2,2,0,0,0,1.06.17,2,2,0,0,0,.92-.36,1.81,1.81,0,0,0,.56-.79,1.91,1.91,0,0,0,.05-1.09V30.8a2.69,2.69,0,0,0-.63-.8,1.76,1.76,0,0,0-1.17-.35,2,2,0,0,0-1.08.27,2.25,2.25,0,0,0-.68.66,2.32,2.32,0,0,0-.36.86,3.94,3.94,0,0,0-.1.87v17.3a3.8,3.8,0,0,0,.1.83,2.4,2.4,0,0,0,.35.86,2.14,2.14,0,0,0,.66.68,2.24,2.24,0,0,0,2.13,0,2,2,0,0,0,.65-.67,2.53,2.53,0,0,0,.31-.86,4.59,4.59,0,0,0,.09-.87Z"/><path class="cls-2" d="M157.19,29.12a4.2,4.2,0,0,0-.3.6,2.71,2.71,0,0,0-.22.63,3.94,3.94,0,0,0-.08.8V52.73h-1.07l-9.17-19.49V50.7a3.34,3.34,0,0,0,.08.8,4,4,0,0,0,.18.63,4.2,4.2,0,0,0,.3.6h-2.23a4.2,4.2,0,0,0,.3-.6,4.64,4.64,0,0,0,.2-.65,3.15,3.15,0,0,0,.1-.85V32.78a12.41,12.41,0,0,0-.15-1.75,9.06,9.06,0,0,0-.25-1.11,2.33,2.33,0,0,0-.33-.77h3.66l7.31,15.37V31.21a3.12,3.12,0,0,0-.1-.84,4.25,4.25,0,0,0-.2-.65,5.68,5.68,0,0,0-.26-.6Z"/><path class="cls-2" d="M171.92,29.12l-.3,3.29h-.77c-.11-.42-.21-.79-.31-1.1a1.71,1.71,0,0,0-.48-.76,2.23,2.23,0,0,0-.94-.45,7.1,7.1,0,0,0-1.66-.15V48.67a17.2,17.2,0,0,0,.1,1.95,6.34,6.34,0,0,0,.27,1.24,2.37,2.37,0,0,0,.36.87h-5a4,4,0,0,0,.36-.87,10.25,10.25,0,0,0,.25-1.24,13.17,13.17,0,0,0,.12-1.95V30a7.25,7.25,0,0,0-1.67.15,2.19,2.19,0,0,0-.93.45,1.71,1.71,0,0,0-.48.76c-.1.31-.2.68-.32,1.1h-.76l-.3-3.29Z"/><path class="cls-2" d="M178,48.67a15.14,15.14,0,0,0,.1,1.95,5.75,5.75,0,0,0,.26,1.24,2.21,2.21,0,0,0,.37.87h-5a3.32,3.32,0,0,0,.37-.87,10.25,10.25,0,0,0,.25-1.24,14.91,14.91,0,0,0,.11-1.95V33.18a14.91,14.91,0,0,0-.11-1.95,10.48,10.48,0,0,0-.25-1.25,3.38,3.38,0,0,0-.37-.86h5a2.22,2.22,0,0,0-.37.86,5.86,5.86,0,0,0-.26,1.25,15.14,15.14,0,0,0-.1,1.95V48.67Z"/><path class="cls-2" d="M193.17,29.12a4.2,4.2,0,0,0-.3.6,2.71,2.71,0,0,0-.22.63,3.94,3.94,0,0,0-.08.8V52.73h-1.06l-9.18-19.49V50.7a3.34,3.34,0,0,0,.08.8,5.47,5.47,0,0,0,.18.63,4.2,4.2,0,0,0,.3.6h-2.23a2.8,2.8,0,0,0,.3-.6,4.64,4.64,0,0,0,.2-.65,3.15,3.15,0,0,0,.1-.85V32.78a12.41,12.41,0,0,0-.15-1.75,7.51,7.51,0,0,0-.25-1.11,2.14,2.14,0,0,0-.33-.77h3.66l7.32,15.37V31.21a3.58,3.58,0,0,0-.1-.84c-.07-.26-.14-.48-.2-.65s-.18-.42-.27-.6Z"/><path class="cls-2" d="M207.6,29.75a2.9,2.9,0,0,0-.22.65,4,4,0,0,0-.08.78c0,1,0,1.86,0,2.64s0,1.69,0,2.7V48a5.72,5.72,0,0,1-.34,2A5.13,5.13,0,0,1,206,51.6a4.37,4.37,0,0,1-1.47,1.1,4.62,4.62,0,0,1-1.93.4h-.33a7.79,7.79,0,0,1-4.81-1.32,4.6,4.6,0,0,1-1.73-3.91V33.18a12.79,12.79,0,0,0-.12-1.93,10.45,10.45,0,0,0-.25-1.23,4,4,0,0,0-.36-.9h5a2.52,2.52,0,0,0-.37.9,5.64,5.64,0,0,0-.28,1.23,16.68,16.68,0,0,0-.1,1.93V47.74a9.37,9.37,0,0,0,.15,1.73,4,4,0,0,0,.5,1.36,2.59,2.59,0,0,0,.93.9,2.84,2.84,0,0,0,1.42.33h.33a3.3,3.3,0,0,0,2.64-1.19,4.07,4.07,0,0,0,.74-1.3,5.11,5.11,0,0,0,.24-1.6V31.21a3.61,3.61,0,0,0-.09-.84,6,6,0,0,0-.19-.65,4.18,4.18,0,0,0-.29-.6h2.27A6.09,6.09,0,0,0,207.6,29.75Z"/><path class="cls-2" d="M220.94,52.73H209.7a3.35,3.35,0,0,0,.36-.87,10.25,10.25,0,0,0,.25-1.24,13.17,13.17,0,0,0,.12-1.95V33.18a13.17,13.17,0,0,0-.12-1.95,10.48,10.48,0,0,0-.25-1.25,3.41,3.41,0,0,0-.36-.86h10.9l-.3,3.29h-.76c-.11-.44-.22-.82-.33-1.13a1.87,1.87,0,0,0-.5-.77,2.19,2.19,0,0,0-1-.43A9,9,0,0,0,216,30h-2v7.22a13.94,13.94,0,0,0,1.83,0c.55-.05,1-.09,1.43-.14a10.09,10.09,0,0,0,1.23-.23,2.86,2.86,0,0,1,0,.43,3.41,3.41,0,0,1-.17.93,1,1,0,0,1-.73.65,2.07,2.07,0,0,1-1.13,0l-2.5-.7V50.47a1.32,1.32,0,0,0,.09.42,1.37,1.37,0,0,0,.29.48,1.68,1.68,0,0,0,.62.38,3,3,0,0,0,1,.15h1.16a2.5,2.5,0,0,0,1.24-.28,2.19,2.19,0,0,0,.74-.77,4.16,4.16,0,0,0,.44-1.06c.1-.39.2-.79.31-1.18h.77Z"/></svg>