<svg xmlns="http://www.w3.org/2000/svg" viewBox="0 0 177.02 90.46"><defs><style>.cls-1{fill:#fff;}</style></defs><title>rage logo web</title><g id="Layer_2" data-name="Layer 2"><path class="cls-1" d="M53.59,21.72a38.21,38.21,0,0,0-11-2c-8.9,0-12.37,3.92-12.37,8.43,0,10.16,21.6,10.51,21.6,29.33,0,15.6-13.75,28.19-33.49,28.19a72.44,72.44,0,0,1-14.91-1.5L6.57,67.46A37.17,37.17,0,0,0,19.4,69.88c8.66,0,13.16-3.23,13.16-9.12,0-10-21.47-9.82-21.47-28.41,0-15,10.49-27.61,32-27.61A85.51,85.51,0,0,1,56.69,5.89l-3.1,15.83"/><path class="cls-1" d="M88.32,46.61H77.77L74.09,66.37c-.91,4.82-.11,6.24,3.42,6.24a24.43,24.43,0,0,0,5.82-.71L81.71,84a47,47,0,0,1-10.84,1.41c-11.06,0-14.37-5.22-12.07-17.67l3.89-21.08H55.25l2.4-11.77H65L66.5,27l15.57-3L80,34.84H90.62l-2.3,11.77"/><path class="cls-1" d="M117.45,45.26c-9.35,0-14.28,12.17-14.28,21.42,0,3.82.91,5.52,2.92,5.52,5.63,0,13.67-14.07,15.47-23.62l.49-2.71a18.85,18.85,0,0,0-4.6-.61m12.66,39H115.35a129.54,129.54,0,0,1,4-13h-.21c-4.31,7.25-10.85,14.17-19.38,14.17-8,0-12.17-5.12-12.17-15.88,0-19.19,10.55-36.37,32.57-36.37a102.81,102.81,0,0,1,19.09,1.7c-3.82,19.3-6.93,36.07-9.15,49.36"/><path class="cls-1" d="M170.81,48c-6.23-2.2-14.68,6.93-18.09,25.73l-1.9,10.56H135.73l5-26.14C142,52,144.09,40.34,145,34.32h14.46a91.91,91.91,0,0,1-3.72,12.86h.21c5-9.55,10.15-15.08,18.09-14L170.81,48"/></g></svg>