<svg xmlns="http://www.w3.org/2000/svg" width="609.61" height="346.852" viewBox="0 0 609.61 346.852">
    <defs>
        <style>
            .cls-1{fill:#fff}
        </style>
    </defs>
    <g id="follow-title" transform="translate(-303.456 -292.715)">
        <g id="Group_166" data-name="Group 166">
            <g id="Group_163" data-name="Group 163">
                <path id="Path_1272" d="M335.048 324.923q.635 4.509 1.278 9.015-1.105.27-2.21.543a32.264 32.264 0 0 0-1.715-2.815 4.754 4.754 0 0 0-1.947-1.661 6.7 6.7 0 0 0-3.078-.422 28.476 28.476 0 0 0-5.205.939q-2.941.754-5.881 1.523l5.058 19.322a47.007 47.007 0 0 0 5.222-1.306q2.334-.742 4-1.352 1.925-.774 3.355-1.51a8.264 8.264 0 0 1 .385 1.142 9.032 9.032 0 0 1 .131 2.541 2.811 2.811 0 0 1-1.642 2.27 6.361 6.361 0 0 1-3.223.769q-3.781-.037-7.57-.049l7.541 28.8a40.76 40.76 0 0 0 1.621 5.071 24.135 24.135 0 0 0 1.493 3.1 6.157 6.157 0 0 0 1.586 1.975q-6.741 1.752-13.466 3.592a7.43 7.43 0 0 0 .3-2.479 28.7 28.7 0 0 0-.2-3.442 34.249 34.249 0 0 0-1.049-5.129l-11.416-42.028a34.123 34.123 0 0 0-1.742-5.085 27.1 27.1 0 0 0-1.619-3.1 7.186 7.186 0 0 0-1.6-2.056q15.753-4.313 31.593-8.168z" class="cls-1" data-name="Path 1272"/>
                <path id="Path_1273" d="M357.868 318.76a19.574 19.574 0 0 1 6.853-.364 16.863 16.863 0 0 1 5.827 1.83 12.9 12.9 0 0 1 4.254 3.644 12.6 12.6 0 0 1 2.256 5.056l7.975 38.575a12.513 12.513 0 0 1-.089 5.637 13.762 13.762 0 0 1-2.377 4.985 16.7 16.7 0 0 1-4.3 3.945 17.8 17.8 0 0 1-5.907 2.429 18.486 18.486 0 0 1-6.521.33 17.213 17.213 0 0 1-5.662-1.73 13.439 13.439 0 0 1-4.315-3.5 12.475 12.475 0 0 1-2.469-5.069l-9.1-38.323a11.43 11.43 0 0 1 .05-5.571 14.069 14.069 0 0 1 2.558-5.16 18.025 18.025 0 0 1 4.657-4.157 19.685 19.685 0 0 1 6.31-2.557zm8.927 12.053a6.054 6.054 0 0 1-3.032 1.8 9.957 9.957 0 0 1-3.486-.035 2.709 2.709 0 0 1-2.237-2.106 6.289 6.289 0 0 0 3.182-.235 5.65 5.65 0 0 0 2.433-1.569 4.886 4.886 0 0 0 1.173-2.5 4.941 4.941 0 0 0-.5-2.986l-.039-.178a7.36 7.36 0 0 0-2.32-1.789 5.406 5.406 0 0 0-3.6-.191 6.232 6.232 0 0 0-2.992 1.425 6.619 6.619 0 0 0-2.111 4.832 10.666 10.666 0 0 0 .243 2.406l10.692 46.9a10.853 10.853 0 0 0 .789 2.187 7.357 7.357 0 0 0 1.5 2.122 6.437 6.437 0 0 0 2.255 1.431 5.438 5.438 0 0 0 3.155.1 5.289 5.289 0 0 0 4.134-3.559 7.258 7.258 0 0 0 .366-2.539 13.619 13.619 0 0 0-.278-2.4z" class="cls-1" data-name="Path 1273"/>
                <path id="Path_1274" d="M425.1 373.3q-15.609 2.663-31.158 5.782a9.061 9.061 0 0 0 .542-2.561 28.531 28.531 0 0 0 .014-3.538 36.969 36.969 0 0 0-.73-5.37l-8.4-42.263a35.168 35.168 0 0 0-1.394-5.238 26.73 26.73 0 0 0-1.406-3.255 8.715 8.715 0 0 0-1.544-2.143q7.314-1.468 14.644-2.84a6 6 0 0 0-.63 2.564 15.888 15.888 0 0 0-.136 3.554 40.866 40.866 0 0 0 .714 5.37l8.938 47.244a3.752 3.752 0 0 0 .446 1.092 3.676 3.676 0 0 0 1.081 1.161 4.5 4.5 0 0 0 1.906.725 8.616 8.616 0 0 0 2.94-.121q1.617-.3 3.235-.59a6.768 6.768 0 0 0 3.284-1.386 6.192 6.192 0 0 0 1.723-2.417 11.879 11.879 0 0 0 .753-3.088q.186-1.674.369-3.4l2.147-.37q1.338 5.549 2.662 11.088z" class="cls-1" data-name="Path 1274"/>
                <path id="Path_1275" d="M460.825 367.82q-15.671 2.141-31.29 4.737a9.027 9.027 0 0 0 .625-2.54 28.553 28.553 0 0 0 .131-3.536 37 37 0 0 0-.552-5.391l-6.988-42.519a35.253 35.253 0 0 0-1.219-5.281 26.92 26.92 0 0 0-1.3-3.3 8.717 8.717 0 0 0-1.47-2.193q7.349-1.223 14.709-2.349a6.013 6.013 0 0 0-.714 2.542 16 16 0 0 0-.253 3.548 41.074 41.074 0 0 0 .536 5.391l7.366 47.514a3.717 3.717 0 0 0 .409 1.106 3.677 3.677 0 0 0 1.041 1.2 4.494 4.494 0 0 0 1.878.789 8.625 8.625 0 0 0 2.939-.023q1.623-.245 3.248-.482a6.747 6.747 0 0 0 3.324-1.276 6.178 6.178 0 0 0 1.8-2.357 11.885 11.885 0 0 0 .853-3.062q.242-1.665.481-3.381l2.155-.3q1.151 5.579 2.291 11.163z" class="cls-1" data-name="Path 1275"/>
                <path id="Path_1276" d="M475.068 299.014a19.41 19.41 0 0 1 6.826.345 16.742 16.742 0 0 1 5.587 2.421 12.9 12.9 0 0 1 3.845 4.062 12.669 12.669 0 0 1 1.721 5.262l3.974 39.189a12.56 12.56 0 0 1-.663 5.6 13.749 13.749 0 0 1-2.863 4.714 16.6 16.6 0 0 1-4.664 3.479 17.618 17.618 0 0 1-6.1 1.807 18.326 18.326 0 0 1-6.491-.344 17.141 17.141 0 0 1-5.433-2.306 13.427 13.427 0 0 1-3.916-3.925 12.538 12.538 0 0 1-1.93-5.3l-5.119-39.056a11.485 11.485 0 0 1 .616-5.536 14.07 14.07 0 0 1 3.058-4.867 17.921 17.921 0 0 1 5.034-3.654 19.554 19.554 0 0 1 6.518-1.891zm7.617 12.909a6 6 0 0 1-3.185 1.477 9.87 9.87 0 0 1-3.449-.394 2.71 2.71 0 0 1-2-2.325 6.243 6.243 0 0 0 3.176.094 5.624 5.624 0 0 0 2.57-1.309 4.88 4.88 0 0 0 1.417-2.37 4.954 4.954 0 0 0-.188-3.021l-.02-.181a7.383 7.383 0 0 0-2.116-2.019 5.372 5.372 0 0 0-3.552-.562 6.2 6.2 0 0 0-3.109 1.109 6.619 6.619 0 0 0-2.583 4.588 10.793 10.793 0 0 0 0 2.418q2.908 23.877 5.818 47.752a11.009 11.009 0 0 0 .559 2.257 7.386 7.386 0 0 0 1.269 2.265 6.4 6.4 0 0 0 2.088 1.656 5.392 5.392 0 0 0 3.114.424 5.258 5.258 0 0 0 4.457-3.113 7.253 7.253 0 0 0 .622-2.488 13.728 13.728 0 0 0-.031-2.416q-2.432-21.923-4.857-43.842z" class="cls-1" data-name="Path 1276"/>
                <path id="Path_1277" d="M562.814 294.43q-.368.756-.773 1.7a7.824 7.824 0 0 0-.551 2.243q-4.956 28.521-9.308 57.077a10.232 10.232 0 0 0 .558 1.731c.212.484.387.875.528 1.177a7.978 7.978 0 0 0 .508.807q-7 .351-13.988.791.162-.379.414-.86a17.87 17.87 0 0 0 .668-2.821q-.617-2.37-1.5-5.975t-1.925-7.938q-1.041-4.334-2.254-8.981t-2.393-9.2q-2.334 16.375-4.47 32.757a10.13 10.13 0 0 0 .6 1.718c.223.479.406.867.554 1.165a8.125 8.125 0 0 0 .525.8q-6.988.5-13.972 1.1c.1-.255.235-.545.395-.869a17.719 17.719 0 0 0 .607-2.834q-.824-3.086-2.264-8.346t-3.07-11.291q-1.628-6.03-3.382-12.14t-3.143-11.09q-1.386-4.979-3.256-11.307a27.031 27.031 0 0 0-1.092-2.684 17.09 17.09 0 0 0-1.135-2.029 18.607 18.607 0 0 0-1.268-1.83q7.4-.708 14.807-1.319a7.293 7.293 0 0 0-.811 2.2 14.1 14.1 0 0 0-.163 2.8 14.28 14.28 0 0 0 .716 3.837q2.563 9.438 5.03 18.422.985 3.816 2.081 7.9t2.114 8q1.02 3.91 1.962 7.546t1.72 6.454q2.354-18.26 4.951-36.51-1.605-6.377-2.739-10.562t-1.14-4.276a27.106 27.106 0 0 0-1.033-2.708 17.288 17.288 0 0 0-1.089-2.053 12.91 12.91 0 0 0-1.221-1.766q7.41-.544 14.824-.993a9.242 9.242 0 0 0-.858 2.183 12.555 12.555 0 0 0-.23 2.7 14.311 14.311 0 0 0 .633 3.852q2.355 9.49 4.625 18.527.9 3.838 1.906 7.948t1.938 8.041q.934 3.93 1.8 7.587t1.578 6.489q4.113-27.072 8.772-54.115a7.545 7.545 0 0 0-.015-1.48 20.56 20.56 0 0 1-.109-1.383 10.587 10.587 0 0 1-.159-1.382q2.672-.115 5.343-.219a5.753 5.753 0 0 0-.846 1.409z" class="cls-1" data-name="Path 1277"/>
                <path id="Path_1278" d="M681.459 294.469q-.735 4.539-1.463 9.08l-2.256-.139q-.386-1.782-.749-3.1a4.716 4.716 0 0 0-1.3-2.208 6.533 6.533 0 0 0-2.69-1.4 22.355 22.355 0 0 0-4.911-.683l-2.7 51.988a43.487 43.487 0 0 0 0 5.417 16.894 16.894 0 0 0 .568 3.5 6.225 6.225 0 0 0 .9 2.456q-6.995-.377-13.993-.664a10.49 10.49 0 0 0 1.127-2.359 28.875 28.875 0 0 0 .849-3.435 37.434 37.434 0 0 0 .56-5.39l2.229-52.011a22.391 22.391 0 0 0-4.953.215 6.531 6.531 0 0 0-2.809 1.144 4.7 4.7 0 0 0-1.5 2.075q-.489 1.279-1.039 3.017l-2.258-.074-.6-9.178q18.5.58 36.988 1.749z" class="cls-1" data-name="Path 1278"/>
                <path id="Path_1279" d="M715.281 352.661A37.875 37.875 0 0 0 717 359.2a8.643 8.643 0 0 0 2.913 3.78 8.115 8.115 0 0 1-3.229.788 20.641 20.641 0 0 1-2.862 0 10.811 10.811 0 0 1-5.63-2.53 9.5 9.5 0 0 1-2.9-5.972q-1.638-13.977-3.42-27.952a8.778 8.778 0 0 1-4.761-2.15l-1.963 24.8a43.059 43.059 0 0 0-.146 5.414 16.866 16.866 0 0 0 .472 3.516 6.217 6.217 0 0 0 .832 2.479q-6.985-.565-13.976-1.042a9.059 9.059 0 0 0 1.191-2.328 28.646 28.646 0 0 0 .942-3.411 37.22 37.22 0 0 0 .706-5.373q1.5-21.492 3.01-42.984a35.379 35.379 0 0 0 .034-5.42 26.879 26.879 0 0 0-.5-3.51 8.726 8.726 0 0 0-.922-2.473q8.746.6 17.485 1.325a28.014 28.014 0 0 1 7.083 1.448 14.9 14.9 0 0 1 5.274 3.132 11.915 11.915 0 0 1 3.136 4.993 17.181 17.181 0 0 1 .582 7.118 16.513 16.513 0 0 1-4.43 10.346 15.122 15.122 0 0 1-10 4.284 15.225 15.225 0 0 1 2.191 1.493 13.82 13.82 0 0 1 2.252 2.339 15.855 15.855 0 0 1 1.913 3.288 16.292 16.292 0 0 1 1.178 4.337q.934 6.857 1.826 13.726zm-16.9-30a3.225 3.225 0 0 0 1.379 1.55 5.464 5.464 0 0 0 2.687.918 4.656 4.656 0 0 0 3.272-.835 7.55 7.55 0 0 0 2.235-2.774 16.3 16.3 0 0 0 1.357-4.289q.468-2.51.717-5.273a18.939 18.939 0 0 0-.291-6.107 11.239 11.239 0 0 0-1.859-4.155 8.364 8.364 0 0 0-2.909-2.476 9.052 9.052 0 0 0-3.342-.973q-1.182-.1-2.365-.189l-1.3 16.407a4.755 4.755 0 0 1 1.83-.874 5.167 5.167 0 0 1 2.162-.1 4.645 4.645 0 0 1 1.9.761 3.346 3.346 0 0 1 1.222 1.728 5.361 5.361 0 0 0-2.983.027 5.478 5.478 0 0 0-2.411 1.426 5.6 5.6 0 0 0-1.358 2.349 4.942 4.942 0 0 0 .053 2.877z" class="cls-1" data-name="Path 1279"/>
                <path id="Path_1280" d="M744.1 366.3a10.187 10.187 0 0 0 1.1-2 17.494 17.494 0 0 0 .761-2.653 14.017 14.017 0 0 0 .167-3.94q-.781-11.471-1.656-22.942-4.967-.607-9.938-1.172-4.644 12.781-9.141 25.6a8.779 8.779 0 0 0-.375 1.727l-.168 1.563a12.651 12.651 0 0 0-.075 1.573q-2.51-.27-5.021-.529a8.44 8.44 0 0 0 .99-1.385 13.4 13.4 0 0 0 .876-1.629q.426-.932.926-2.087 9.4-27 19.453-53.846a29.044 29.044 0 0 0-.871-3.639q-.231-.587-.463-1.171 5.664.654 11.323 1.363 1.221 14.972 2.286 29.937t1.973 29.929a15.914 15.914 0 0 0 .364 2.9 21.517 21.517 0 0 0 .633 2.28 13.031 13.031 0 0 0 .768 1.973q-6.947-.978-13.912-1.852zm.16-34.547q-.809-10.111-1.688-20.226-3.557 9.59-7.03 19.2 4.364.494 8.721 1.026z" class="cls-1" data-name="Path 1280"/>
                <path id="Path_1281" d="M775.01 359.22a43.04 43.04 0 0 0-.54 5.39 16.834 16.834 0 0 0 .215 3.541 6.224 6.224 0 0 0 .652 2.534q-6.94-1.077-13.891-2.064a9.043 9.043 0 0 0 1.36-2.235 28.584 28.584 0 0 0 1.19-3.332 37.3 37.3 0 0 0 1.1-5.308l.013-.091 6.126-42.558a35.423 35.423 0 0 0 .428-5.4 26.885 26.885 0 0 0-.242-3.538 8.694 8.694 0 0 0-.741-2.534q7.37 1.047 14.728 2.189a6.007 6.007 0 0 0-1.446 2.209 15.994 15.994 0 0 0-1.31 3.307 41.143 41.143 0 0 0-1.112 5.3l-6.513 42.5z" class="cls-1" data-name="Path 1281"/>
                <path id="Path_1282" d="M811.256 376.876q-15.571-2.953-31.2-5.449a9.07 9.07 0 0 0 1.4-2.21 28.785 28.785 0 0 0 1.244-3.317 37.057 37.057 0 0 0 1.188-5.287l6.875-42.537a35.387 35.387 0 0 0 .522-5.395 26.821 26.821 0 0 0-.182-3.541 8.713 8.713 0 0 0-.7-2.547q7.355 1.175 14.7 2.444a6.009 6.009 0 0 0-1.484 2.184 15.974 15.974 0 0 0-1.367 3.283 41.018 41.018 0 0 0-1.2 5.282l-8.1 47.4a3.735 3.735 0 0 0 .037 1.179 3.676 3.676 0 0 0 .608 1.464 4.489 4.489 0 0 0 1.532 1.344 8.6 8.6 0 0 0 2.8.912q1.62.285 3.237.576a6.777 6.777 0 0 0 3.562-.154 6.187 6.187 0 0 0 2.458-1.663 11.85 11.85 0 0 0 1.783-2.632q.759-1.5 1.531-3.053l2.143.4q-.696 5.66-1.387 11.317z" class="cls-1" data-name="Path 1282"/>
                <path id="Path_1283" d="M858.751 318.781a19.592 19.592 0 0 1 6.365 2.57 16.865 16.865 0 0 1 4.511 4.124 12.889 12.889 0 0 1 2.318 5.1 12.593 12.593 0 0 1-.093 5.536l-9.092 38.327a12.508 12.508 0 0 1-2.467 5.07 13.77 13.77 0 0 1-4.267 3.511 16.744 16.744 0 0 1-5.571 1.753 17.817 17.817 0 0 1-6.382-.3 18.451 18.451 0 0 1-6.046-2.458 17.173 17.173 0 0 1-4.395-3.963 13.436 13.436 0 0 1-2.425-4.994 12.5 12.5 0 0 1-.091-5.637l7.962-38.578a11.456 11.456 0 0 1 2.4-5.027 14.058 14.058 0 0 1 4.5-3.593 17.95 17.95 0 0 1 5.973-1.8 19.655 19.655 0 0 1 6.8.359zm2.992 14.7a6.059 6.059 0 0 1-3.509.345 9.961 9.961 0 0 1-3.143-1.506 2.709 2.709 0 0 1-1.137-2.855 6.287 6.287 0 0 0 2.982 1.133 5.659 5.659 0 0 0 2.869-.392 4.878 4.878 0 0 0 2.123-1.773 4.943 4.943 0 0 0 .814-2.915l.04-.178a7.362 7.362 0 0 0-1.346-2.6 5.411 5.411 0 0 0-3.186-1.7 6.243 6.243 0 0 0-3.314.025 6.626 6.626 0 0 0-3.956 3.486 10.8 10.8 0 0 0-.8 2.283l-10.153 47.022a11.01 11.01 0 0 0-.21 2.315 7.362 7.362 0 0 0 .46 2.557 6.418 6.418 0 0 0 1.437 2.25 5.421 5.421 0 0 0 2.816 1.424 5.288 5.288 0 0 0 5.252-1.475 7.241 7.241 0 0 0 1.407-2.146 13.555 13.555 0 0 0 .764-2.292l9.79-43.009z" class="cls-1" data-name="Path 1283"/>
                <path id="Path_1284" d="M913.066 333.088q-1.629 4.251-3.251 8.5l-2.2-.6a32.221 32.221 0 0 0-.138-3.294 4.763 4.763 0 0 0-.9-2.4 6.733 6.733 0 0 0-2.492-1.862 28.451 28.451 0 0 0-5.011-1.7q-2.94-.767-5.882-1.517l-4.937 19.353a46.9 46.9 0 0 0 5.2 1.387q2.4.483 4.154.755 2.059.256 3.669.3a8.365 8.365 0 0 1-.216 1.187 9.051 9.051 0 0 1-1.117 2.286 2.82 2.82 0 0 1-2.539 1.19 6.389 6.389 0 0 1-3.194-.89q-3.291-1.866-6.6-3.711l-7.359 28.85a40.822 40.822 0 0 0-1.039 5.222 24.257 24.257 0 0 0-.2 3.434 6.126 6.126 0 0 0 .43 2.5q-6.746-1.732-13.507-3.379a7.45 7.45 0 0 0 1.462-2.023 28.926 28.926 0 0 0 1.49-3.11 34.339 34.339 0 0 0 1.567-4.995l10.377-42.3a34.34 34.34 0 0 0 .941-5.291 27.013 27.013 0 0 0 .089-3.5 7.211 7.211 0 0 0-.4-2.572q15.85 3.87 31.603 8.18z" class="cls-1" data-name="Path 1284"/>
                <g id="Group_162" data-name="Group 162">
                    <g id="Group_159" data-name="Group 159">
                        <g id="Group_156" data-name="Group 156">
                            <path id="Path_1285" d="M595.476 312.058l-.307 3.464h-.8q-.177-.664-.335-1.154a1.813 1.813 0 0 0-.509-.8 2.259 2.259 0 0 0-.981-.469 7.492 7.492 0 0 0-1.749-.154l.045 19.7a16.651 16.651 0 0 0 .109 2.045 6.555 6.555 0 0 0 .283 1.313 2.363 2.363 0 0 0 .387.908l-5.247.012a4 4 0 0 0 .383-.91 10.945 10.945 0 0 0 .259-1.313 14.4 14.4 0 0 0 .118-2.046l-.046-19.7a7.456 7.456 0 0 0-1.748.162 2.247 2.247 0 0 0-.979.474 1.79 1.79 0 0 0-.505.806q-.156.489-.33 1.155h-.8l-.323-3.462z" class="cls-1" data-name="Path 1285"/>
                        </g>
                        <g id="Group_157" data-name="Group 157">
                            <path id="Path_1286" d="M610.705 332.592a16.428 16.428 0 0 0 .11 2.046 6.453 6.453 0 0 0 .282 1.311 2.354 2.354 0 0 0 .387.909l-5.247.012a3.4 3.4 0 0 0 .383-.91 10.764 10.764 0 0 0 .259-1.313A14.429 14.429 0 0 0 607 332.6v-.035l-.026-11.089-5.107.012.025 11.124a16.66 16.66 0 0 0 .11 2.047 6.394 6.394 0 0 0 .283 1.311 2.356 2.356 0 0 0 .387.908l-5.247.012a3.466 3.466 0 0 0 .383-.91 10.928 10.928 0 0 0 .259-1.313 14.413 14.413 0 0 0 .118-2.046l-.038-16.3a14.262 14.262 0 0 0-.127-2.046 11.01 11.01 0 0 0-.265-1.312 3.493 3.493 0 0 0-.387-.909l5.247-.012a2.735 2.735 0 0 0-.383.946 6.464 6.464 0 0 0-.277 1.313 16.344 16.344 0 0 0-.1 2.011l.009 4.058 5.108-.012-.01-4.058a14.112 14.112 0 0 0-.127-2.046 10.935 10.935 0 0 0-.265-1.311 3.461 3.461 0 0 0-.387-.909l5.247-.012a3.91 3.91 0 0 0-.383.927 11.893 11.893 0 0 0-.259 1.313 14.1 14.1 0 0 0-.118 2.03l.038 16.266z" class="cls-1" data-name="Path 1286"/>
                        </g>
                        <g id="Group_158" data-name="Group 158">
                            <path id="Path_1287" d="M625.092 336.827l-11.824.027a3.433 3.433 0 0 0 .383-.91 10.958 10.958 0 0 0 .259-1.313 14.266 14.266 0 0 0 .118-2.047l-.038-16.3a14.112 14.112 0 0 0-.127-2.046 10.935 10.935 0 0 0-.265-1.311 3.445 3.445 0 0 0-.387-.909l11.474-.026-.307 3.464h-.8q-.177-.7-.352-1.189a1.946 1.946 0 0 0-.527-.8 2.161 2.161 0 0 0-1.015-.453 9.59 9.59 0 0 0-1.855-.136l-2.134.005.018 7.591a13.076 13.076 0 0 0 1.924 0q.873-.07 1.5-.143a12.93 12.93 0 0 0 1.293-.247 2.781 2.781 0 0 1 .037.454 3.671 3.671 0 0 1-.173.98 1.025 1.025 0 0 1-.768.684 2.174 2.174 0 0 1-1.189-.014l-2.626-.729.03 13.017a1.409 1.409 0 0 0 .089.435 1.362 1.362 0 0 0 .316.506 1.644 1.644 0 0 0 .648.4 3.117 3.117 0 0 0 1.084.154h1.225a2.47 2.47 0 0 0 1.293-.3 2.259 2.259 0 0 0 .786-.806 4.36 4.36 0 0 0 .452-1.12q.156-.613.329-1.244h.805z" class="cls-1" data-name="Path 1287"/>
                        </g>
                    </g>
                    <g id="Group_160" data-name="Group 160">
                        <path id="Rectangle_145" d="M0 0h42.195v3H0z" class="cls-1" data-name="Rectangle 145" transform="translate(582.825 303.63)"/>
                    </g>
                    <g id="Group_161" data-name="Group 161">
                        <path id="Rectangle_146" d="M0 0h42.195v3H0z" class="cls-1" data-name="Rectangle 146" transform="translate(582.916 343.151)"/>
                    </g>
                </g>
            </g>
            <g id="Group_165" data-name="Group 165">
                <g id="Group_164" data-name="Group 164">
                    <path id="Path_1288" d="M389.005 485.428a13.372 13.372 0 0 0 1.088-2.783 23.015 23.015 0 0 0 .545-3.569 18.745 18.745 0 0 0-.423-5.142l-5.687-29.521h-12.583l-7.984 34.6a11.617 11.617 0 0 0-.243 2.3v2.056a16.338 16.338 0 0 0 .122 2.057h-6.534a11.1 11.1 0 0 0 1.089-1.935 17.542 17.542 0 0 0 .907-2.239q.423-1.27.908-2.843l16.817-72.834a40.583 40.583 0 0 0-1.573-4.6l-.725-1.452h13.912l7.5 38.474 7.5 38.474a21.114 21.114 0 0 0 .968 3.69 28.06 28.06 0 0 0 1.21 2.843 17.018 17.018 0 0 0 1.33 2.42zm-5.2-44.886l-5.081-26.012-5.929 26.012z" class="cls-1" data-name="Path 1288"/>
                    <path id="Path_1289" d="M438.245 413.2a17 17 0 0 0 2.419 8.892 47.935 47.935 0 0 0 5.989 7.925q3.567 3.873 7.743 7.623a89.067 89.067 0 0 1 7.743 7.864 43.617 43.617 0 0 1 5.989 8.892 23.116 23.116 0 0 1 2.42 10.587q0 11.373-5.626 17.785t-16.878 6.412a28.962 28.962 0 0 1-8.167-1.15 20.556 20.556 0 0 1-6.956-3.509 17.738 17.738 0 0 1-4.839-5.807 17.012 17.012 0 0 1-1.816-8.045 17.365 17.365 0 0 1 1.392-7.2 16.27 16.27 0 0 1 3.448-5.081 14.416 14.416 0 0 1 4.537-3.025 11.984 11.984 0 0 1 4.537-1.029q6.534 0 9.437 2.723a8.33 8.33 0 0 1 2.9 6.231 11.43 11.43 0 0 0-4.537-.545 13.4 13.4 0 0 0-4.416 1.089 11.853 11.853 0 0 0-3.63 2.48 11 11 0 0 0-2.419 3.63 11.194 11.194 0 0 0-.787 5.505 12.279 12.279 0 0 0 1.694 5.142 11.1 11.1 0 0 0 3.75 3.75 10.288 10.288 0 0 0 5.505 1.452 13.827 13.827 0 0 0 5.868-1.15 12.512 12.512 0 0 0 4.114-2.964 11.053 11.053 0 0 0 2.359-4.113 14.82 14.82 0 0 0 .726-4.477 21.131 21.131 0 0 0-2.42-10.1 43.752 43.752 0 0 0-6.049-8.59 105.788 105.788 0 0 0-7.925-7.925 92.875 92.875 0 0 1-7.925-8.045 44.449 44.449 0 0 1-6.049-8.893 24.084 24.084 0 0 1-.786-19.237 20.278 20.278 0 0 1 4.6-6.9 20.993 20.993 0 0 1 7.138-4.537 24.854 24.854 0 0 1 9.135-1.633 21.239 21.239 0 0 1 9.135 1.754 18.891 18.891 0 0 1 5.988 4.3 16.412 16.412 0 0 1 3.085 17.483 14.269 14.269 0 0 1-3.2 4.658 13.794 13.794 0 0 1-4.114 2.722 10.722 10.722 0 0 1-4.114.907 15 15 0 0 1-8.167-2.419 9.213 9.213 0 0 1-2.6-2.541 5.555 5.555 0 0 1-.968-3.146 10.071 10.071 0 0 0 4.235.545 12.259 12.259 0 0 0 4.053-1.029 11.966 11.966 0 0 0 3.388-2.3 9.048 9.048 0 0 0 2.238-3.387 9.174 9.174 0 0 0 .665-4.053 12.378 12.378 0 0 0-1.088-4.779 10.7 10.7 0 0 0-3.146-3.993 8.956 8.956 0 0 0-5.747-1.694 10.734 10.734 0 0 0-5.081 1.15 12.1 12.1 0 0 0-3.691 2.964 12.847 12.847 0 0 0-2.3 4.113 14.444 14.444 0 0 0-.789 4.718z" class="cls-1" data-name="Path 1289"/>
                    <path id="Path_1290" d="M526.564 470.668a57.394 57.394 0 0 0 .363 7.078 22.251 22.251 0 0 0 .969 4.536 8.151 8.151 0 0 0 1.33 3.146h-18.148a6.322 6.322 0 0 0 1.391-2.722 28.737 28.737 0 0 0 .848-4.053 40.226 40.226 0 0 0 .362-4.355q.06-2.178.061-3.63v-54.323l-13.913 60.977h-3.751L481.2 416.466v61.582a13.062 13.062 0 0 0 .3 2.9 10.059 10.059 0 0 0 .786 2.3 13.412 13.412 0 0 0 1.09 2.178h-8.228a13.736 13.736 0 0 0 1.089-2.178q.363-.966.726-2.3a11.5 11.5 0 0 0 .363-3.024v-64.97a60.068 60.068 0 0 0-.484-6.412 27.917 27.917 0 0 0-.847-4.114 9.863 9.863 0 0 0-1.209-2.9h15.243l12.341 50.089 11.373-50.089h15.486a8.164 8.164 0 0 0-1.33 3.146 22.323 22.323 0 0 0-.969 4.537 57.428 57.428 0 0 0-.363 7.078v56.38z" class="cls-1" data-name="Path 1290"/>
                    <path id="Path_1291" d="M581.25 401.826a10.005 10.005 0 0 0-.787 2.359 13.275 13.275 0 0 0-.3 2.844q0 5.325-.061 9.618t-.061 9.8v41.68a21.351 21.351 0 0 1-1.213 7.259 18.65 18.65 0 0 1-3.4 5.929 15.488 15.488 0 0 1-5.338 3.992 16.65 16.65 0 0 1-7.039 1.452h-1.213q-11.164 0-17.474-4.779t-6.308-14.216v-53.476a48.057 48.057 0 0 0-.424-7.017 37.986 37.986 0 0 0-.906-4.477 14.391 14.391 0 0 0-1.332-3.267h18.194a9.392 9.392 0 0 0-1.354 3.267 21.919 21.919 0 0 0-.984 4.477 54.839 54.839 0 0 0-.369 7.017v52.992a34.263 34.263 0 0 0 .544 6.292 14.445 14.445 0 0 0 1.815 4.96 9.365 9.365 0 0 0 3.388 3.266 10.191 10.191 0 0 0 5.142 1.21h1.209a12.213 12.213 0 0 0 9.619-4.355 14.331 14.331 0 0 0 2.662-4.719 17.877 17.877 0 0 0 .907-5.807V407.15a12.84 12.84 0 0 0-.346-3.086q-.345-1.389-.69-2.359a14.217 14.217 0 0 0-1.038-2.178h8.244a19.833 19.833 0 0 0-1.087 2.299z" class="cls-1" data-name="Path 1291"/>
                    <path id="Path_1292" d="M632.3 485.428a15.974 15.974 0 0 1-5.565-.665 11.642 11.642 0 0 1-2.783-1.634 23.162 23.162 0 0 1-5.566 2.481 22.633 22.633 0 0 1-6.533.907 23.44 23.44 0 0 1-8.408-1.452 20.327 20.327 0 0 1-6.534-3.932 18.437 18.437 0 0 1-4.295-5.807 16.348 16.348 0 0 1-1.573-7.078v-51.541a18.608 18.608 0 0 1 1.392-7.138 15.6 15.6 0 0 1 4.114-5.807 20.349 20.349 0 0 1 6.835-3.872 28.712 28.712 0 0 1 9.558-1.451 24.627 24.627 0 0 1 9.982 1.754 17.289 17.289 0 0 1 6.17 4.355 14.722 14.722 0 0 1 3.085 5.566 19.839 19.839 0 0 1 .847 5.384 15.874 15.874 0 0 1-1.21 6.473 14.1 14.1 0 0 1-3.024 4.476 11.94 11.94 0 0 1-3.993 2.6 11.368 11.368 0 0 1-4.114.847q-5.565 0-8.771-2.662t-3.206-5.807a9.81 9.81 0 0 0 4.053.605 12.041 12.041 0 0 0 3.992-.9 10.85 10.85 0 0 0 3.328-2.166 9.031 9.031 0 0 0 2.177-3.187 12.2 12.2 0 0 0 .666-4.029 11.359 11.359 0 0 0-.904-4.748 9.636 9.636 0 0 0-3.085-3.909 9.23 9.23 0 0 0-5.747-1.624 9.376 9.376 0 0 0-4.537.966 8.8 8.8 0 0 0-2.843 2.412 8.666 8.666 0 0 0-1.512 3.137 12.465 12.465 0 0 0-.424 3.015v62.849a14.546 14.546 0 0 0 .363 3.017 9.716 9.716 0 0 0 1.27 3.136 8.321 8.321 0 0 0 2.42 2.472 6.863 6.863 0 0 0 3.932 1.026 6.968 6.968 0 0 0 3.811-.965 7.111 7.111 0 0 0 2.36-2.414 9.5 9.5 0 0 0 1.149-3.136 17.959 17.959 0 0 0 .3-3.138v-19.43q-.123-4.219-.485-7.057a31.843 31.843 0 0 0-.846-4.526 8.185 8.185 0 0 0-1.331-3.136H632.3z" class="cls-1" data-name="Path 1292"/>
                    <path id="Path_1293" d="M682.755 485.428a15.977 15.977 0 0 1-5.566-.665 11.661 11.661 0 0 1-2.783-1.634 23.154 23.154 0 0 1-5.565 2.481 22.643 22.643 0 0 1-6.533.907 23.442 23.442 0 0 1-8.409-1.452 20.321 20.321 0 0 1-6.533-3.932 18.436 18.436 0 0 1-4.3-5.807 16.348 16.348 0 0 1-1.573-7.078v-51.541a18.608 18.608 0 0 1 1.391-7.138 15.613 15.613 0 0 1 4.116-5.807 20.353 20.353 0 0 1 6.836-3.872 28.708 28.708 0 0 1 9.558-1.451 24.626 24.626 0 0 1 9.981 1.754 17.279 17.279 0 0 1 6.17 4.355 14.738 14.738 0 0 1 3.086 5.566 19.837 19.837 0 0 1 .847 5.384 15.857 15.857 0 0 1-1.211 6.473 14.088 14.088 0 0 1-3.024 4.476 11.93 11.93 0 0 1-3.993 2.6 11.364 11.364 0 0 1-4.113.847q-5.566 0-8.772-2.662t-3.2-5.807a9.8 9.8 0 0 0 4.052.605 12.052 12.052 0 0 0 3.993-.9 10.845 10.845 0 0 0 3.327-2.166 9.021 9.021 0 0 0 2.178-3.187 12.175 12.175 0 0 0 .665-4.029 11.341 11.341 0 0 0-.907-4.749 9.639 9.639 0 0 0-3.086-3.909 9.228 9.228 0 0 0-5.747-1.624 9.372 9.372 0 0 0-4.536.966 8.8 8.8 0 0 0-2.843 2.412 8.686 8.686 0 0 0-1.513 3.137 12.464 12.464 0 0 0-.424 3.015v62.849a14.487 14.487 0 0 0 .364 3.017 9.671 9.671 0 0 0 1.27 3.136 8.309 8.309 0 0 0 2.42 2.472 6.86 6.86 0 0 0 3.932 1.026 6.97 6.97 0 0 0 3.811-.965 7.108 7.108 0 0 0 2.359-2.414 9.473 9.473 0 0 0 1.149-3.136 17.959 17.959 0 0 0 .3-3.138v-19.429q-.123-4.219-.484-7.057a31.971 31.971 0 0 0-.847-4.526 8.171 8.171 0 0 0-1.331-3.136h15.487z" class="cls-1" data-name="Path 1293"/>
                    <path id="Path_1294" d="M730.664 485.428h-40.893a11.822 11.822 0 0 0 1.33-3.146 37.232 37.232 0 0 0 .908-4.536 49.472 49.472 0 0 0 .424-7.078v-56.38a49.5 49.5 0 0 0-.424-7.078 37.415 37.415 0 0 0-.908-4.537 11.85 11.85 0 0 0-1.33-3.146h18.148a8.149 8.149 0 0 0-1.331 3.146 22.261 22.261 0 0 0-.968 4.537 57.428 57.428 0 0 0-.363 7.078V477.2a4.951 4.951 0 0 0 .3 1.512 4.815 4.815 0 0 0 1.09 1.755 5.738 5.738 0 0 0 2.238 1.391 10.84 10.84 0 0 0 3.75.544h4.235a8.553 8.553 0 0 0 4.476-1.028 7.976 7.976 0 0 0 2.722-2.722 15.541 15.541 0 0 0 1.634-3.811q.6-2.115 1.21-4.3h2.788z" class="cls-1" data-name="Path 1294"/>
                    <path id="Path_1295" d="M777.364 485.428H736.47a11.853 11.853 0 0 0 1.331-3.146 37.46 37.46 0 0 0 .907-4.536 49.329 49.329 0 0 0 .424-7.078v-56.38a49.359 49.359 0 0 0-.424-7.078 37.645 37.645 0 0 0-.907-4.537 11.882 11.882 0 0 0-1.331-3.146h39.683l-1.088 11.978h-2.782q-.609-2.418-1.211-4.113a6.716 6.716 0 0 0-1.814-2.783 7.486 7.486 0 0 0-3.509-1.573 32.984 32.984 0 0 0-6.412-.484h-7.381v26.254a45.255 45.255 0 0 0 6.655 0q3.022-.24 5.2-.484a44.283 44.283 0 0 0 4.476-.847 9.665 9.665 0 0 1 .122 1.573 12.576 12.576 0 0 1-.6 3.388 3.546 3.546 0 0 1-2.662 2.359 7.5 7.5 0 0 1-4.114-.06l-9.074-2.541v45.02a4.918 4.918 0 0 0 .3 1.509 4.781 4.781 0 0 0 1.089 1.75 5.753 5.753 0 0 0 2.238 1.388 10.85 10.85 0 0 0 3.751.542h4.234a8.557 8.557 0 0 0 4.477-1.028 7.838 7.838 0 0 0 2.722-2.782 15.043 15.043 0 0 0 1.573-3.872q.544-2.115 1.149-4.3h2.783z" class="cls-1" data-name="Path 1295"/>
                    <path id="Path_1296" d="M808.456 399.527a20.14 20.14 0 0 1 14.881 6.352 21.84 21.84 0 0 1 4.356 6.9 22.492 22.492 0 0 1 1.573 8.409v42.587a22.47 22.47 0 0 1-1.573 8.409 21.783 21.783 0 0 1-4.356 6.9 20.139 20.139 0 0 1-14.881 6.352H783.17a11.854 11.854 0 0 0 1.33-3.146 37.419 37.419 0 0 0 .908-4.536 49.491 49.491 0 0 0 .423-7.078v-56.38a49.52 49.52 0 0 0-.423-7.078 37.6 37.6 0 0 0-.908-4.537 11.882 11.882 0 0 0-1.33-3.146zm7.985 21.657a33.032 33.032 0 0 0-.545-5.384 19.438 19.438 0 0 0-2.178-6.17 15.215 15.215 0 0 0-4.476-5.021 12.189 12.189 0 0 0-7.319-2.057h-3.268v66.422a11.341 11.341 0 0 1 2.421-1.21 8.118 8.118 0 0 1 3.931 0 3.418 3.418 0 0 1 2.6 2.541 6.367 6.367 0 0 0-3.69.363 6.86 6.86 0 0 0-2.843 2.117 7.513 7.513 0 0 0-1.452 3.206 6.174 6.174 0 0 0 .483 3.751 3.908 3.908 0 0 0 1.755 1.814 6.259 6.259 0 0 0 3.327.847h.968a6.1 6.1 0 0 0 4.6-2.057 17.027 17.027 0 0 0 3.207-5.02 29.536 29.536 0 0 0 1.874-6.17 29.984 29.984 0 0 0 .606-5.385z" class="cls-1" data-name="Path 1296"/>
                    <path id="Path_1297" d="M432.981 506.3a32.858 32.858 0 0 1 8.772 1.089 17.962 17.962 0 0 1 6.774 3.448 15.566 15.566 0 0 1 4.417 6.17 23.934 23.934 0 0 1 1.573 9.135q0 9.8-5.384 15.486t-15.184 5.686a10.641 10.641 0 0 1-3.811-.665 10.929 10.929 0 0 1-3.086-1.755v32.546a57.364 57.364 0 0 0 .364 7.078 22.227 22.227 0 0 0 .967 4.537 8.145 8.145 0 0 0 1.332 3.145h-18.148a11.846 11.846 0 0 0 1.33-3.145 37.486 37.486 0 0 0 .908-4.537 49.481 49.481 0 0 0 .423-7.078v-56.374a49.5 49.5 0 0 0-.423-7.078 37.571 37.571 0 0 0-.908-4.537 11.884 11.884 0 0 0-1.33-3.146zm.847 37.989a5.657 5.657 0 0 0 3.992-1.451 9.365 9.365 0 0 0 2.42-3.871 24.2 24.2 0 0 0 1.149-5.747q.3-3.327.3-6.958a26.4 26.4 0 0 0-1.029-7.864 15.008 15.008 0 0 0-2.722-5.262 10.371 10.371 0 0 0-3.811-2.9 10.541 10.541 0 0 0-4.174-.907h-2.9v21.535a5.868 5.868 0 0 1 2.178-1.33 6.127 6.127 0 0 1 2.662-.364 5.551 5.551 0 0 1 2.48.847 3.961 3.961 0 0 1 1.634 2.057 6.375 6.375 0 0 0-3.69.363 6.86 6.86 0 0 0-2.843 2.117 7.519 7.519 0 0 0-1.452 3.206 6.739 6.739 0 0 0 .362 3.751 4.126 4.126 0 0 0 1.876 1.875 6.793 6.793 0 0 0 3.568.908z" class="cls-1" data-name="Path 1297"/>
                    <path id="Path_1298" d="M482.584 592.205a13.378 13.378 0 0 0 1.09-2.783 23.234 23.234 0 0 0 .544-3.569 18.7 18.7 0 0 0-.424-5.141l-5.686-29.521h-12.582l-7.986 34.6a11.62 11.62 0 0 0-.242 2.3v2.056a16.524 16.524 0 0 0 .121 2.057h-6.533a11.1 11.1 0 0 0 1.089-1.935 17.489 17.489 0 0 0 .907-2.239q.423-1.27.907-2.843l16.818-72.834a40.338 40.338 0 0 0-1.573-4.6l-.726-1.452h13.914l7.5 38.474 7.5 38.473a21.151 21.151 0 0 0 .968 3.691 28.028 28.028 0 0 0 1.21 2.843 16.953 16.953 0 0 0 1.331 2.419zm-5.2-44.886l-5.084-26.012-5.928 26.012z" class="cls-1" data-name="Path 1298"/>
                    <path id="Path_1299" d="M551.184 506.3a13.6 13.6 0 0 0-1.09 2.177 10.21 10.21 0 0 0-.786 2.3 13.1 13.1 0 0 0-.3 2.9v78.52h-3.872l-33.392-70.9v63.519a13.069 13.069 0 0 0 .3 2.9 17.958 17.958 0 0 0 .665 2.3 13.437 13.437 0 0 0 1.09 2.177h-8.107a13.769 13.769 0 0 0 1.09-2.177 24.55 24.55 0 0 0 .725-2.359 12.211 12.211 0 0 0 .363-3.086v-64.957a47.993 47.993 0 0 0-.544-6.352 33.771 33.771 0 0 0-.908-4.054 8.232 8.232 0 0 0-1.209-2.782h13.308l26.617 55.9v-48.4a12.271 12.271 0 0 0-.362-3.085q-.364-1.391-.726-2.36-.486-1.207-.969-2.177z" class="cls-1" data-name="Path 1299"/>
                    <path id="Path_1300" d="M601.272 592.205a15.966 15.966 0 0 1-5.565-.665 11.639 11.639 0 0 1-2.783-1.633 23.18 23.18 0 0 1-5.566 2.48 22.633 22.633 0 0 1-6.533.907 23.442 23.442 0 0 1-8.409-1.451 20.322 20.322 0 0 1-6.533-3.933 18.424 18.424 0 0 1-4.295-5.807 16.348 16.348 0 0 1-1.573-7.078v-51.54a18.6 18.6 0 0 1 1.391-7.138 15.608 15.608 0 0 1 4.114-5.808 20.345 20.345 0 0 1 6.836-3.871 28.681 28.681 0 0 1 9.558-1.452 24.626 24.626 0 0 1 9.981 1.754 17.269 17.269 0 0 1 6.17 4.356 14.735 14.735 0 0 1 3.086 5.565 19.851 19.851 0 0 1 .847 5.384 15.874 15.874 0 0 1-1.21 6.473 14.122 14.122 0 0 1-3.025 4.477 11.945 11.945 0 0 1-3.993 2.6 11.364 11.364 0 0 1-4.113.847q-5.566 0-8.772-2.662t-3.205-5.81a9.84 9.84 0 0 0 4.052.605 12.1 12.1 0 0 0 3.993-.9 10.83 10.83 0 0 0 3.327-2.167 9 9 0 0 0 2.178-3.187 12.169 12.169 0 0 0 .665-4.028 11.336 11.336 0 0 0-.907-4.749 9.638 9.638 0 0 0-3.085-3.909 9.225 9.225 0 0 0-5.747-1.624 9.362 9.362 0 0 0-4.537.966 8.8 8.8 0 0 0-2.843 2.412 8.672 8.672 0 0 0-1.513 3.136 12.473 12.473 0 0 0-.423 3.016v62.848a14.472 14.472 0 0 0 .363 3.017 9.669 9.669 0 0 0 1.27 3.136 8.3 8.3 0 0 0 2.42 2.473 6.86 6.86 0 0 0 3.932 1.025 6.968 6.968 0 0 0 3.811-.964 7.1 7.1 0 0 0 2.359-2.415 9.454 9.454 0 0 0 1.149-3.136 17.939 17.939 0 0 0 .3-3.137v-19.426q-.123-4.219-.484-7.058a32.191 32.191 0 0 0-.846-4.526 8.2 8.2 0 0 0-1.332-3.136h15.487z" class="cls-1" data-name="Path 1300"/>
                    <path id="Path_1301" d="M631.88 505.216a22.611 22.611 0 0 1 8.227 1.452 20.473 20.473 0 0 1 6.473 3.932 16.951 16.951 0 0 1 4.174 5.807 17.515 17.515 0 0 1 1.452 7.078v51.54a16.628 16.628 0 0 1-1.573 7.2 17.757 17.757 0 0 1-4.295 5.747 21.1 21.1 0 0 1-6.473 3.872 22.259 22.259 0 0 1-8.1 1.451 23.087 23.087 0 0 1-8.288-1.451 21.715 21.715 0 0 1-6.594-3.872 17.353 17.353 0 0 1-4.356-5.747 16.614 16.614 0 0 1-1.572-7.2v-51.54a15.861 15.861 0 0 1 1.633-7.078 18.415 18.415 0 0 1 4.476-5.807 21.85 21.85 0 0 1 6.655-3.932 22.741 22.741 0 0 1 8.161-1.452zm7.5 17.906a7.1 7.1 0 0 1-4.113 1.452 11.515 11.515 0 0 1-4.174-1.029 3.538 3.538 0 0 1-2.117-3.326 7.242 7.242 0 0 0 3.871.6 6.652 6.652 0 0 0 3.327-1.321 6.333 6.333 0 0 0 2.057-2.875 6.888 6.888 0 0 0 .181-3.956v-.237a9.565 9.565 0 0 0-2.3-2.934 6.287 6.287 0 0 0-4.235-1.259 7.206 7.206 0 0 0-3.932.966 8.32 8.32 0 0 0-2.48 2.415 9.017 9.017 0 0 0-1.331 3.143 15.1 15.1 0 0 0-.363 3.139v62.944a14.631 14.631 0 0 0 .363 3.019 9.668 9.668 0 0 0 1.271 3.141 8.273 8.273 0 0 0 2.419 2.477 6.864 6.864 0 0 0 3.933 1.027 6.939 6.939 0 0 0 3.81-.968 7.128 7.128 0 0 0 2.36-2.42 9.548 9.548 0 0 0 1.149-3.146 18.108 18.108 0 0 0 .3-3.146z" class="cls-1" data-name="Path 1301"/>
                    <path id="Path_1302" d="M701.327 592.205h-40.893a11.88 11.88 0 0 0 1.33-3.145 37.671 37.671 0 0 0 .908-4.537 49.481 49.481 0 0 0 .423-7.078v-56.379a49.5 49.5 0 0 0-.423-7.078 37.756 37.756 0 0 0-.908-4.537 11.918 11.918 0 0 0-1.33-3.146h18.147a8.18 8.18 0 0 0-1.331 3.146 22.255 22.255 0 0 0-.967 4.537 57.38 57.38 0 0 0-.364 7.078v62.912a4.964 4.964 0 0 0 .3 1.513 4.8 4.8 0 0 0 1.089 1.754 5.745 5.745 0 0 0 2.238 1.391 10.847 10.847 0 0 0 3.751.545h4.234a8.547 8.547 0 0 0 4.477-1.029 7.983 7.983 0 0 0 2.722-2.722 15.6 15.6 0 0 0 1.634-3.811q.6-2.115 1.209-4.3h2.783z" class="cls-1" data-name="Path 1302"/>
                    <path id="Path_1303" d="M722.861 577.445a57.383 57.383 0 0 0 .363 7.078 22.227 22.227 0 0 0 .967 4.537 8.177 8.177 0 0 0 1.331 3.145h-18.147a11.911 11.911 0 0 0 1.331-3.145 37.906 37.906 0 0 0 .907-4.537 49.328 49.328 0 0 0 .423-7.078v-56.379a49.348 49.348 0 0 0-.423-7.078 37.993 37.993 0 0 0-.907-4.537 11.949 11.949 0 0 0-1.331-3.146h18.147a8.2 8.2 0 0 0-1.331 3.146 22.259 22.259 0 0 0-.967 4.537 57.406 57.406 0 0 0-.363 7.078v56.379z" class="cls-1" data-name="Path 1303"/>
                    <path id="Path_1304" d="M777.908 506.3a13.6 13.6 0 0 0-1.089 2.177 10.159 10.159 0 0 0-.786 2.3 13.038 13.038 0 0 0-.3 2.9v78.52h-3.872l-33.392-70.9v63.519a13.071 13.071 0 0 0 .3 2.9 17.791 17.791 0 0 0 .665 2.3 13.515 13.515 0 0 0 1.089 2.177h-8.106a13.683 13.683 0 0 0 1.089-2.177 24.249 24.249 0 0 0 .726-2.359 12.211 12.211 0 0 0 .363-3.086v-64.957a48.178 48.178 0 0 0-.544-6.352 33.764 33.764 0 0 0-.908-4.054 8.211 8.211 0 0 0-1.21-2.782h13.308l26.618 55.9v-48.4a12.225 12.225 0 0 0-.363-3.085 24.521 24.521 0 0 0-.726-2.36q-.484-1.207-.968-2.177z" class="cls-1" data-name="Path 1304"/>
                </g>
            </g>
        </g>
        <g id="Group_178" data-name="Group 178">
            <g id="Group_177" data-name="Group 177">
                <g id="Group_167" data-name="Group 167">
                    <path id="Path_1305" d="M527.109 633.619a18.4 18.4 0 0 0 .117 2.275 7.173 7.173 0 0 0 .311 1.458 2.62 2.62 0 0 0 .427 1.01h-5.831a3.775 3.775 0 0 0 .428-1.01 12.124 12.124 0 0 0 .291-1.458 15.813 15.813 0 0 0 .136-2.275V615.5a15.8 15.8 0 0 0-.136-2.274 12.124 12.124 0 0 0-.291-1.458 3.785 3.785 0 0 0-.428-1.011h5.831a2.626 2.626 0 0 0-.427 1.011 7.173 7.173 0 0 0-.311 1.458 18.385 18.385 0 0 0-.117 2.274v18.116z" class="cls-1" data-name="Path 1305"/>
                </g>
                <g id="Group_168" data-name="Group 168">
                    <path id="Path_1306" d="M544.8 610.76a4.349 4.349 0 0 0-.35.7 3.29 3.29 0 0 0-.253.739 4.2 4.2 0 0 0-.1.933v25.231h-1.244l-10.73-22.782v20.411a4.2 4.2 0 0 0 .1.933 5.731 5.731 0 0 0 .214.738 4.276 4.276 0 0 0 .35.7h-2.6a4.35 4.35 0 0 0 .35-.7 7.462 7.462 0 0 0 .233-.758 3.91 3.91 0 0 0 .117-.991v-20.878a15.522 15.522 0 0 0-.175-2.041 10.721 10.721 0 0 0-.292-1.3 2.607 2.607 0 0 0-.389-.893h4.269l8.553 17.961v-15.554a3.915 3.915 0 0 0-.117-.991 7.654 7.654 0 0 0-.233-.759 8.476 8.476 0 0 0-.311-.7z" class="cls-1" data-name="Path 1306"/>
                </g>
                <g id="Group_169" data-name="Group 169">
                    <path id="Path_1307" d="M568.123 633.619a18.4 18.4 0 0 0 .117 2.275 7.173 7.173 0 0 0 .311 1.458 2.6 2.6 0 0 0 .428 1.01h-5.832a2.016 2.016 0 0 0 .447-.875 9.2 9.2 0 0 0 .272-1.3 12.722 12.722 0 0 0 .117-1.4c.013-.466.02-.854.02-1.166v-17.458l-4.472 19.595h-1.205l-4.782-19.558v19.789a4.194 4.194 0 0 0 .1.933 3.264 3.264 0 0 0 .252.738 4.35 4.35 0 0 0 .35.7H551.6a4.354 4.354 0 0 0 .349-.7q.117-.31.234-.738a3.735 3.735 0 0 0 .116-.972v-20.875a19.236 19.236 0 0 0-.155-2.06 9.087 9.087 0 0 0-.272-1.323 3.151 3.151 0 0 0-.389-.932h4.9l3.966 16.094L564 610.76h4.976a2.609 2.609 0 0 0-.428 1.011 7.173 7.173 0 0 0-.311 1.458 18.385 18.385 0 0 0-.117 2.274v18.116z" class="cls-1" data-name="Path 1307"/>
                </g>
                <g id="Group_170" data-name="Group 170">
                    <path id="Path_1308" d="M580.8 638.362a4.265 4.265 0 0 0 .351-.894 7.423 7.423 0 0 0 .174-1.147 6.016 6.016 0 0 0-.135-1.652l-1.828-9.486h-4.043l-2.57 11.117a3.769 3.769 0 0 0-.078.738v.661a5.306 5.306 0 0 0 .039.661h-2.1a3.524 3.524 0 0 0 .35-.622 5.772 5.772 0 0 0 .292-.719q.135-.408.291-.914l5.4-23.4a12.9 12.9 0 0 0-.506-1.476l-.233-.467h4.471l2.41 12.362 2.411 12.363a6.805 6.805 0 0 0 .311 1.186 8.751 8.751 0 0 0 .389.914 5.488 5.488 0 0 0 .427.777zm-1.671-14.424l-1.633-8.358-1.905 8.358z" class="cls-1" data-name="Path 1308"/>
                </g>
                <g id="Group_171" data-name="Group 171">
                    <path id="Path_1309" d="M601.129 638.362h-13.14a3.777 3.777 0 0 0 .428-1.01 12.124 12.124 0 0 0 .291-1.458 15.964 15.964 0 0 0 .136-2.275V615.5a15.95 15.95 0 0 0-.136-2.274 12.124 12.124 0 0 0-.291-1.458 3.787 3.787 0 0 0-.428-1.011h5.831a2.624 2.624 0 0 0-.427 1.011 7.107 7.107 0 0 0-.311 1.458 18.4 18.4 0 0 0-.117 2.274v20.216a1.593 1.593 0 0 0 .1.486 1.565 1.565 0 0 0 .35.564 1.861 1.861 0 0 0 .719.447 3.5 3.5 0 0 0 1.205.175h1.361a2.754 2.754 0 0 0 1.439-.331 2.556 2.556 0 0 0 .874-.874 5 5 0 0 0 .525-1.225q.2-.68.389-1.381h.894z" class="cls-1" data-name="Path 1309"/>
                </g>
                <g id="Group_172" data-name="Group 172">
                    <path id="Path_1310" d="M612.364 638.362a4.33 4.33 0 0 0 .35-.894 7.418 7.418 0 0 0 .175-1.147 6.022 6.022 0 0 0-.136-1.652l-1.827-9.486h-4.044l-2.566 11.117a3.764 3.764 0 0 0-.077.738v.661a5.52 5.52 0 0 0 .038.661h-2.1a3.46 3.46 0 0 0 .35-.622 5.635 5.635 0 0 0 .292-.719q.135-.408.291-.914l5.4-23.4a12.959 12.959 0 0 0-.505-1.476l-.234-.467h4.472l2.41 12.362 2.41 12.363a6.805 6.805 0 0 0 .311 1.186 8.966 8.966 0 0 0 .389.914 5.582 5.582 0 0 0 .427.777zm-1.672-14.424l-1.632-8.358-1.906 8.358z" class="cls-1" data-name="Path 1310"/>
                </g>
                <g id="Group_173" data-name="Group 173">
                    <path id="Path_1311" d="M626.477 633.658a18.121 18.121 0 0 0 .116 2.255 7.136 7.136 0 0 0 .311 1.439 2.605 2.605 0 0 0 .428 1.01H621.5a3.812 3.812 0 0 0 .427-1.01 12.37 12.37 0 0 0 .292-1.439 15.526 15.526 0 0 0 .136-2.255v-7.775l-3.927-11.353a19.88 19.88 0 0 0-1.361-2.838q-.349-.543-.622-.932h5.832a1.463 1.463 0 0 0-.369.932 2.646 2.646 0 0 0 .1 1.089l3.615 10.3 4.044-10.614a5.253 5.253 0 0 0 .116-.641 4.93 4.93 0 0 0 .039-.564 3.063 3.063 0 0 0-.039-.505H632a3.087 3.087 0 0 0-.428.544 8.7 8.7 0 0 0-.388.6 3.524 3.524 0 0 0-.311.681l-4.393 11.741v9.33z" class="cls-1" data-name="Path 1311"/>
                </g>
                <g id="Group_174" data-name="Group 174">
                    <path id="Path_1312" d="M637.556 615.152a5.464 5.464 0 0 0 .778 2.858 15.382 15.382 0 0 0 1.924 2.547q1.148 1.245 2.488 2.449a28.471 28.471 0 0 1 2.488 2.527 13.992 13.992 0 0 1 1.925 2.858 7.421 7.421 0 0 1 .778 3.4 8.369 8.369 0 0 1-1.809 5.715 6.83 6.83 0 0 1-5.423 2.06 9.311 9.311 0 0 1-2.624-.369 6.6 6.6 0 0 1-2.235-1.128 5.687 5.687 0 0 1-1.555-1.865 5.473 5.473 0 0 1-.583-2.586 5.6 5.6 0 0 1 .446-2.313 5.245 5.245 0 0 1 1.109-1.633 4.65 4.65 0 0 1 1.457-.972 3.85 3.85 0 0 1 1.458-.33 4.345 4.345 0 0 1 3.033.875 2.676 2.676 0 0 1 .933 2 3.683 3.683 0 0 0-1.458-.175 4.288 4.288 0 0 0-1.419.35 3.784 3.784 0 0 0-1.166.8 3.514 3.514 0 0 0-.778 1.166 3.6 3.6 0 0 0-.253 1.769 3.948 3.948 0 0 0 .545 1.653 3.58 3.58 0 0 0 1.205 1.205 3.314 3.314 0 0 0 1.769.466 4.436 4.436 0 0 0 1.885-.37 4.027 4.027 0 0 0 1.322-.952 3.552 3.552 0 0 0 .758-1.322 4.743 4.743 0 0 0 .233-1.439 6.8 6.8 0 0 0-.777-3.246 14.1 14.1 0 0 0-1.944-2.759 33.784 33.784 0 0 0-2.546-2.547 29.918 29.918 0 0 1-2.547-2.585 14.261 14.261 0 0 1-1.944-2.858 7.744 7.744 0 0 1-.253-6.181 6.528 6.528 0 0 1 1.478-2.22 6.744 6.744 0 0 1 2.293-1.458 7.99 7.99 0 0 1 2.936-.525 6.812 6.812 0 0 1 2.935.564 6.059 6.059 0 0 1 1.924 1.38 5.319 5.319 0 0 1 1.4 3.46 5.256 5.256 0 0 1-.408 2.158 4.6 4.6 0 0 1-1.03 1.5 4.423 4.423 0 0 1-1.322.875 3.456 3.456 0 0 1-1.322.292 4.817 4.817 0 0 1-2.624-.778 2.95 2.95 0 0 1-.836-.817 1.776 1.776 0 0 1-.311-1.01 3.24 3.24 0 0 0 1.361.174 3.9 3.9 0 0 0 1.3-.33 3.833 3.833 0 0 0 1.089-.738 2.924 2.924 0 0 0 .719-1.089 2.967 2.967 0 0 0 .214-1.3 4.009 4.009 0 0 0-.35-1.535 3.442 3.442 0 0 0-1.011-1.283 2.881 2.881 0 0 0-1.847-.544 3.454 3.454 0 0 0-1.633.369 3.911 3.911 0 0 0-1.186.952 4.138 4.138 0 0 0-.738 1.323 4.636 4.636 0 0 0-.251 1.512z" class="cls-1" data-name="Path 1312"/>
                </g>
                <g id="Group_175" data-name="Group 175">
                    <path id="Path_1313" d="M654.351 633.619a18.635 18.635 0 0 0 .116 2.275 7.173 7.173 0 0 0 .311 1.458 2.619 2.619 0 0 0 .428 1.01h-5.831a3.812 3.812 0 0 0 .427-1.01 11.907 11.907 0 0 0 .292-1.458 15.813 15.813 0 0 0 .136-2.275V615.5a15.8 15.8 0 0 0-.136-2.274 11.907 11.907 0 0 0-.292-1.458 3.821 3.821 0 0 0-.427-1.011h5.831a2.625 2.625 0 0 0-.428 1.011 7.173 7.173 0 0 0-.311 1.458 18.618 18.618 0 0 0-.116 2.274v18.116z" class="cls-1" data-name="Path 1313"/>
                </g>
                <g id="Group_176" data-name="Group 176">
                    <path id="Path_1314" d="M666.558 638.362a4.326 4.326 0 0 0 .35-.894 7.547 7.547 0 0 0 .175-1.147 6.024 6.024 0 0 0-.136-1.652l-1.827-9.486h-4.044L658.51 636.3a3.764 3.764 0 0 0-.077.738v.661a5.312 5.312 0 0 0 .038.661h-2.1a3.459 3.459 0 0 0 .35-.622 5.772 5.772 0 0 0 .292-.719q.135-.408.291-.914l5.4-23.4a12.934 12.934 0 0 0-.505-1.476l-.234-.467h4.471l2.411 12.362 2.41 12.363a6.805 6.805 0 0 0 .311 1.186 8.98 8.98 0 0 0 .389.914 5.488 5.488 0 0 0 .427.777zm-1.672-14.424l-1.633-8.358-1.9 8.358z" class="cls-1" data-name="Path 1314"/>
                </g>
            </g>
        </g>
        <path id="Path_1315" d="M509 625.5a3.6 3.6 0 0 1-3.6 3.6c-1.986 0-94.4-1.611-94.4-3.6s92.417-3.6 94.4-3.6a3.6 3.6 0 0 1 3.6 3.6z" class="cls-1" data-name="Path 1315"/>
        <path id="Path_1316" d="M680.565 625.574a3.54 3.54 0 0 1 3.539-3.54c1.955 0 92.9 1.585 92.9 3.54s-90.941 3.539-92.9 3.539a3.539 3.539 0 0 1-3.539-3.539z" class="cls-1" data-name="Path 1316"/>
    </g>
</svg>
