<svg xmlns="http://www.w3.org/2000/svg" width="586.683" height="70.64" viewBox="0 0 586.683 70.64">
    <defs>
        <style>
            .cls-1{fill:#fff}
        </style>
    </defs>
    <g id="pangolin-title" transform="translate(-1836.295 910.902)">
        <g id="Group_231" data-name="Group 231" transform="translate(1836.295 -910.902)">
            <g id="Group_230" data-name="Group 230">
                <g id="Group_229" data-name="Group 229">
                    <path id="Path_1358" d="M1861.647-841.115a10.62 10.62 0 0 0 .871-2.226 18.391 18.391 0 0 0 .436-2.855 14.942 14.942 0 0 0-.338-4.112l-4.549-23.611H1848l-6.387 27.675a9.3 9.3 0 0 0-.193 1.839v1.646a13.292 13.292 0 0 0 .1 1.645h-5.225a8.846 8.846 0 0 0 .871-1.548 14.214 14.214 0 0 0 .725-1.79q.339-1.016.726-2.274l13.451-58.254a32.3 32.3 0 0 0-1.258-3.677l-.581-1.162h11.129l6 30.773 6 30.772a16.979 16.979 0 0 0 .774 2.951 22.273 22.273 0 0 0 .968 2.274 13.73 13.73 0 0 0 1.064 1.935zm-4.16-35.9l-4.065-20.806-4.741 20.806z" class="cls-1" data-name="Path 1358" transform="translate(-1836.295 910.691)"/>
                    <path id="Path_1359" d="M1914.894-878.274a21.723 21.723 0 0 1 4.936 2.37 16.986 16.986 0 0 1 4.065 3.677 17.109 17.109 0 0 1 2.757 5.081 19.835 19.835 0 0 1 1.016 6.58 22.583 22.583 0 0 1-1.6 9 16.571 16.571 0 0 1-4.257 6 16.531 16.531 0 0 1-6.242 3.387 26.684 26.684 0 0 1-7.645 1.064h-17.9a7.871 7.871 0 0 0 .968-2.516 30.078 30.078 0 0 0 .726-3.629 39.612 39.612 0 0 0 .338-5.661v-45.094a39.659 39.659 0 0 0-.338-5.661 30.193 30.193 0 0 0-.726-3.628 7.885 7.885 0 0 0-.968-2.517h17.128a26.333 26.333 0 0 1 7.016.871 14.392 14.392 0 0 1 5.418 2.758 12.517 12.517 0 0 1 3.533 4.887 19.068 19.068 0 0 1 1.257 7.355 18.98 18.98 0 0 1-2.419 9.87 13.43 13.43 0 0 1-7.063 5.806zm-12.579-1.162h5.418a4.53 4.53 0 0 0 3.194-1.161 7.9 7.9 0 0 0 1.984-3.1 17.728 17.728 0 0 0 .967-4.6q.242-2.66.242-5.564a19.91 19.91 0 0 0-.871-6.338 12.665 12.665 0 0 0-2.226-4.161 8.3 8.3 0 0 0-3.048-2.323 8.428 8.428 0 0 0-3.338-.725h-2.323zm5.418 35.9a6.1 6.1 0 0 0 3.726-1.351 11.723 11.723 0 0 0 3.1-3.665 21.738 21.738 0 0 0 2.08-5.4 27.324 27.324 0 0 0 .774-6.658 19.2 19.2 0 0 0-1.21-7.044 17.139 17.139 0 0 0-3.048-5.162 12.649 12.649 0 0 0-4.112-3.136 10.39 10.39 0 0 0-4.4-1.062h-2.323v22.837a5.8 5.8 0 0 1 1.935-1.064 6.519 6.519 0 0 1 3.146 0 2.735 2.735 0 0 1 2.08 2.033 4.929 4.929 0 0 0-2.9.286 5.945 5.945 0 0 0-2.274 1.678 5.24 5.24 0 0 0-1.16 2.54 5.629 5.629 0 0 0 .337 2.971 3.3 3.3 0 0 0 1.451 1.484 5.226 5.226 0 0 0 2.798.715z" class="cls-1" data-name="Path 1359" transform="translate(-1846.77 910.691)"/>
                    <path id="Path_1360" d="M1961.095-910.9a18.079 18.079 0 0 1 6.58 1.162 16.353 16.353 0 0 1 5.177 3.144 13.567 13.567 0 0 1 3.339 4.644 14 14 0 0 1 1.162 5.662v41.223a13.313 13.313 0 0 1-1.258 5.757 14.223 14.223 0 0 1-3.435 4.6 16.881 16.881 0 0 1-5.177 3.1 17.82 17.82 0 0 1-6.484 1.161 18.482 18.482 0 0 1-6.629-1.161 17.378 17.378 0 0 1-5.274-3.1 13.862 13.862 0 0 1-3.483-4.6 13.28 13.28 0 0 1-1.259-5.757v-41.225a12.684 12.684 0 0 1 1.307-5.662 14.708 14.708 0 0 1 3.58-4.644 17.442 17.442 0 0 1 5.322-3.144 18.187 18.187 0 0 1 6.532-1.16zm6 14.321a5.683 5.683 0 0 1-3.289 1.162 9.22 9.22 0 0 1-3.339-.824 2.831 2.831 0 0 1-1.693-2.661 5.8 5.8 0 0 0 3.1.485 5.332 5.332 0 0 0 2.661-1.057 5.057 5.057 0 0 0 1.646-2.3 5.512 5.512 0 0 0 .145-3.163v-.19a7.672 7.672 0 0 0-1.839-2.347 5.033 5.033 0 0 0-3.388-1.007 5.761 5.761 0 0 0-3.145.773 6.671 6.671 0 0 0-1.984 1.931 7.214 7.214 0 0 0-1.064 2.513 12.07 12.07 0 0 0-.291 2.512v50.344a11.675 11.675 0 0 0 .291 2.415 7.739 7.739 0 0 0 1.016 2.513 6.621 6.621 0 0 0 1.935 1.98 5.491 5.491 0 0 0 3.145.821 5.546 5.546 0 0 0 3.049-.774 5.7 5.7 0 0 0 1.887-1.935 7.638 7.638 0 0 0 .919-2.516 14.455 14.455 0 0 0 .242-2.516z" class="cls-1" data-name="Path 1360" transform="translate(-1857.361 910.902)"/>
                    <path id="Path_1361" d="M2030.193-907.982a8.054 8.054 0 0 0-.629 1.887 10.652 10.652 0 0 0-.242 2.274q0 4.26-.048 7.693t-.048 7.838v33.337a17.059 17.059 0 0 1-.971 5.806 14.9 14.9 0 0 1-2.717 4.742 12.377 12.377 0 0 1-4.27 3.194 13.311 13.311 0 0 1-5.63 1.161h-.97q-8.929 0-13.975-3.822t-5.046-11.37v-42.771a38.449 38.449 0 0 0-.339-5.612 30.611 30.611 0 0 0-.725-3.581 11.557 11.557 0 0 0-1.064-2.613h14.551a7.48 7.48 0 0 0-1.083 2.613 17.5 17.5 0 0 0-.787 3.581 43.9 43.9 0 0 0-.3 5.612v42.385a27.379 27.379 0 0 0 .436 5.032 11.54 11.54 0 0 0 1.451 3.966 7.491 7.491 0 0 0 2.71 2.613 8.155 8.155 0 0 0 4.112.968h.969a10.005 10.005 0 0 0 4.354-.919 9.954 9.954 0 0 0 3.339-2.564 11.435 11.435 0 0 0 2.129-3.774 14.31 14.31 0 0 0 .725-4.645v-48.771a10.286 10.286 0 0 0-.276-2.467q-.277-1.111-.552-1.887a11.5 11.5 0 0 0-.83-1.742h6.594a15.9 15.9 0 0 0-.868 1.836z" class="cls-1" data-name="Path 1361" transform="translate(-1866.946 910.691)"/>
                    <path id="Path_1362" d="M2084.519-909.821l-.871 9.581h-2.225q-.486-1.838-.919-3.194a4.992 4.992 0 0 0-1.4-2.226 6.266 6.266 0 0 0-2.71-1.307 20.976 20.976 0 0 0-4.838-.435v54.48a45.915 45.915 0 0 0 .291 5.661 17.752 17.752 0 0 0 .773 3.629 6.547 6.547 0 0 0 1.064 2.516h-14.514a10.987 10.987 0 0 0 1.063-2.516 29.939 29.939 0 0 0 .726-3.629 39.432 39.432 0 0 0 .339-5.661V-907.4a20.965 20.965 0 0 0-4.838.435 6.254 6.254 0 0 0-2.71 1.307 4.979 4.979 0 0 0-1.4 2.226q-.436 1.356-.919 3.194h-2.231l-.871-9.581z" class="cls-1" data-name="Path 1362" transform="translate(-1877.631 910.691)"/>
                </g>
                <path id="Path_1363" d="M2218.211-909.821a26.317 26.317 0 0 1 7.016.871 14.4 14.4 0 0 1 5.42 2.758 12.463 12.463 0 0 1 3.531 4.936 19.129 19.129 0 0 1 1.258 7.306q0 7.837-4.306 12.386t-12.144 4.548a8.515 8.515 0 0 1-3.049-.532 8.719 8.719 0 0 1-2.467-1.4v26.03a46.005 46.005 0 0 0 .289 5.661 17.82 17.82 0 0 0 .775 3.629 6.506 6.506 0 0 0 1.064 2.516h-14.516a9.512 9.512 0 0 0 1.064-2.516 30.054 30.054 0 0 0 .727-3.629 39.628 39.628 0 0 0 .338-5.661v-45.094a39.675 39.675 0 0 0-.338-5.661 30.169 30.169 0 0 0-.727-3.628 9.531 9.531 0 0 0-1.064-2.517zm.678 30.386a4.528 4.528 0 0 0 3.194-1.161 7.486 7.486 0 0 0 1.935-3.1 19.293 19.293 0 0 0 .919-4.6q.241-2.66.242-5.564a21.1 21.1 0 0 0-.823-6.29 12.014 12.014 0 0 0-2.177-4.21 8.3 8.3 0 0 0-3.048-2.323 8.43 8.43 0 0 0-3.339-.725h-2.322v17.225a4.677 4.677 0 0 1 1.741-1.065 4.9 4.9 0 0 1 2.128-.29 4.425 4.425 0 0 1 1.984.677 3.171 3.171 0 0 1 1.307 1.646 5.1 5.1 0 0 0-2.951.29 5.507 5.507 0 0 0-2.274 1.694 6 6 0 0 0-1.161 2.564 5.394 5.394 0 0 0 .291 3 3.3 3.3 0 0 0 1.5 1.5 5.434 5.434 0 0 0 2.854.732z" class="cls-1" data-name="Path 1363" transform="translate(-1907.411 910.691)"/>
                <path id="Path_1364" d="M2265.5-841.115a10.769 10.769 0 0 0 .871-2.226 18.512 18.512 0 0 0 .435-2.855 14.975 14.975 0 0 0-.339-4.112l-4.548-23.611h-10.064l-6.386 27.675a9.351 9.351 0 0 0-.193 1.839v1.646a13.147 13.147 0 0 0 .1 1.645h-5.226a8.752 8.752 0 0 0 .871-1.548 13.989 13.989 0 0 0 .727-1.79q.337-1.016.724-2.274l13.452-58.254a32.482 32.482 0 0 0-1.258-3.677l-.581-1.162h11.128l6 30.773 6 30.772a16.979 16.979 0 0 0 .774 2.951 22.328 22.328 0 0 0 .968 2.274 13.633 13.633 0 0 0 1.064 1.935zm-4.161-35.9l-4.064-20.806-4.742 20.806z" class="cls-1" data-name="Path 1364" transform="translate(-1915.027 910.691)"/>
                <path id="Path_1365" d="M2330.891-909.821a10.96 10.96 0 0 0-.871 1.742 8.156 8.156 0 0 0-.629 1.839 10.456 10.456 0 0 0-.241 2.323v62.8h-3.1l-26.708-56.707v50.8a10.454 10.454 0 0 0 .242 2.323 14 14 0 0 0 .533 1.838 10.793 10.793 0 0 0 .87 1.742h-6.483a11.06 11.06 0 0 0 .871-1.742 19.3 19.3 0 0 0 .58-1.887 9.7 9.7 0 0 0 .291-2.467v-51.965a38.625 38.625 0 0 0-.436-5.081 26.98 26.98 0 0 0-.726-3.242 6.568 6.568 0 0 0-.968-2.225h10.645l21.288 44.707v-38.707a9.8 9.8 0 0 0-.289-2.467q-.291-1.111-.581-1.887-.387-.966-.774-1.742z" class="cls-1" data-name="Path 1365" transform="translate(-1925.549 910.691)"/>
                <path id="Path_1366" d="M2381.568-841.326a12.783 12.783 0 0 1-4.452-.532 9.315 9.315 0 0 1-2.224-1.307 18.558 18.558 0 0 1-4.452 1.984 18.14 18.14 0 0 1-5.225.725 18.758 18.758 0 0 1-6.726-1.161 16.242 16.242 0 0 1-5.226-3.146 14.722 14.722 0 0 1-3.435-4.644 13.064 13.064 0 0 1-1.258-5.66v-41.223a14.865 14.865 0 0 1 1.113-5.709 12.484 12.484 0 0 1 3.29-4.646 16.261 16.261 0 0 1 5.467-3.1 22.941 22.941 0 0 1 7.645-1.162 19.7 19.7 0 0 1 7.984 1.4 13.807 13.807 0 0 1 4.935 3.484 11.785 11.785 0 0 1 2.468 4.452 15.867 15.867 0 0 1 .677 4.305 12.679 12.679 0 0 1-.968 5.177 11.267 11.267 0 0 1-2.419 3.58 9.539 9.539 0 0 1-3.194 2.081 9.073 9.073 0 0 1-3.289.677 10.654 10.654 0 0 1-7.016-2.129 6.051 6.051 0 0 1-2.565-4.645 7.854 7.854 0 0 0 3.242.485 9.662 9.662 0 0 0 3.194-.724 8.64 8.64 0 0 0 2.661-1.733 7.182 7.182 0 0 0 1.742-2.549 9.757 9.757 0 0 0 .532-3.223 9.077 9.077 0 0 0-.725-3.8 7.712 7.712 0 0 0-2.468-3.127 7.386 7.386 0 0 0-4.6-1.3 7.488 7.488 0 0 0-3.628.773 7.025 7.025 0 0 0-2.275 1.929 6.956 6.956 0 0 0-1.209 2.509 10.018 10.018 0 0 0-.338 2.412v50.268a11.634 11.634 0 0 0 .29 2.413 7.75 7.75 0 0 0 1.016 2.509 6.661 6.661 0 0 0 1.935 1.978 5.5 5.5 0 0 0 3.146.819 5.571 5.571 0 0 0 3.048-.771 5.688 5.688 0 0 0 1.887-1.931 7.593 7.593 0 0 0 .92-2.509 14.4 14.4 0 0 0 .241-2.509v-15.538q-.1-3.373-.387-5.643a25.776 25.776 0 0 0-.677-3.62 6.587 6.587 0 0 0-1.064-2.509h12.385z" class="cls-1" data-name="Path 1366" transform="translate(-1936.164 910.902)"/>
                <path id="Path_1367" d="M2415.915-910.9a18.081 18.081 0 0 1 6.581 1.162 16.371 16.371 0 0 1 5.177 3.144 13.566 13.566 0 0 1 3.339 4.644 14.016 14.016 0 0 1 1.161 5.662v41.223a13.3 13.3 0 0 1-1.258 5.757 14.179 14.179 0 0 1-3.435 4.6 16.887 16.887 0 0 1-5.177 3.1 17.816 17.816 0 0 1-6.483 1.161 18.475 18.475 0 0 1-6.629-1.161 17.368 17.368 0 0 1-5.274-3.1 13.873 13.873 0 0 1-3.484-4.6 13.289 13.289 0 0 1-1.258-5.757v-41.225a12.684 12.684 0 0 1 1.307-5.662 14.717 14.717 0 0 1 3.58-4.644 17.444 17.444 0 0 1 5.322-3.144 18.185 18.185 0 0 1 6.531-1.16zm6 14.321a5.683 5.683 0 0 1-3.291 1.162 9.225 9.225 0 0 1-3.338-.824 2.831 2.831 0 0 1-1.694-2.661 5.8 5.8 0 0 0 3.1.485 5.332 5.332 0 0 0 2.661-1.057 5.057 5.057 0 0 0 1.645-2.3 5.5 5.5 0 0 0 .146-3.163v-.19a7.664 7.664 0 0 0-1.839-2.347 5.028 5.028 0 0 0-3.387-1.007 5.757 5.757 0 0 0-3.145.773 6.667 6.667 0 0 0-1.985 1.931 7.252 7.252 0 0 0-1.065 2.513 12.053 12.053 0 0 0-.289 2.512v50.344a11.654 11.654 0 0 0 .289 2.415 7.811 7.811 0 0 0 1.017 2.513 6.62 6.62 0 0 0 1.935 1.98 5.491 5.491 0 0 0 3.146.821 5.543 5.543 0 0 0 3.048-.774 5.678 5.678 0 0 0 1.887-1.935 7.632 7.632 0 0 0 .919-2.516 14.47 14.47 0 0 0 .242-2.516z" class="cls-1" data-name="Path 1367" transform="translate(-1946.03 910.902)"/>
                <path id="Path_1368" d="M2481.044-841.115h-32.708a9.512 9.512 0 0 0 1.064-2.516 29.884 29.884 0 0 0 .726-3.629 39.609 39.609 0 0 0 .337-5.661v-45.094a39.656 39.656 0 0 0-.337-5.661 30 30 0 0 0-.726-3.628 9.531 9.531 0 0 0-1.064-2.517h14.515a6.542 6.542 0 0 0-1.064 2.517 17.867 17.867 0 0 0-.774 3.628 46.042 46.042 0 0 0-.29 5.661v50.32a3.968 3.968 0 0 0 .241 1.21 3.851 3.851 0 0 0 .871 1.4 4.582 4.582 0 0 0 1.79 1.113 8.691 8.691 0 0 0 3 .436h3.387a6.846 6.846 0 0 0 3.58-.822 6.4 6.4 0 0 0 2.178-2.178 12.478 12.478 0 0 0 1.307-3.049q.483-1.692.967-3.435h2.227z" class="cls-1" data-name="Path 1368" transform="translate(-1955.614 910.691)"/>
                <path id="Path_1369" d="M2507.359-852.921a45.824 45.824 0 0 0 .291 5.661 17.727 17.727 0 0 0 .774 3.629 6.494 6.494 0 0 0 1.064 2.516h-14.516a9.448 9.448 0 0 0 1.064-2.516 29.884 29.884 0 0 0 .726-3.629 39.489 39.489 0 0 0 .338-5.661v-45.094a39.536 39.536 0 0 0-.338-5.661 30 30 0 0 0-.726-3.628 9.467 9.467 0 0 0-1.064-2.517h14.516a6.5 6.5 0 0 0-1.064 2.517 17.767 17.767 0 0 0-.774 3.628 45.879 45.879 0 0 0-.291 5.661v45.094z" class="cls-1" data-name="Path 1369" transform="translate(-1964.706 910.691)"/>
                <path id="Path_1370" d="M2556.145-909.821a10.878 10.878 0 0 0-.871 1.742 8.1 8.1 0 0 0-.629 1.839 10.47 10.47 0 0 0-.241 2.323v62.8h-3.1l-26.704-56.705v50.8a10.439 10.439 0 0 0 .242 2.323 14 14 0 0 0 .533 1.838 10.793 10.793 0 0 0 .87 1.742h-6.483a11.081 11.081 0 0 0 .871-1.742 19.369 19.369 0 0 0 .58-1.887 9.738 9.738 0 0 0 .292-2.467v-51.965a38.667 38.667 0 0 0-.436-5.081 26.974 26.974 0 0 0-.726-3.242 6.573 6.573 0 0 0-.968-2.225h10.645l21.288 44.707v-38.707a9.787 9.787 0 0 0-.289-2.467q-.292-1.111-.581-1.887-.388-.966-.774-1.742z" class="cls-1" data-name="Path 1370" transform="translate(-1969.463 910.691)"/>
            </g>
        </g>
        <g id="Group_237" data-name="Group 237" transform="translate(2061.485 -896.143)">
            <g id="Group_236" data-name="Group 236">
                <g id="Group_233" data-name="Group 233" transform="translate(1.32 7.791)">
                    <g id="Group_232" data-name="Group 232">
                        <path id="Path_1371" d="M2131.776-882.892l-.34 3.738h-.868q-.19-.717-.359-1.246a1.941 1.941 0 0 0-.547-.868 2.448 2.448 0 0 0-1.057-.51 8.2 8.2 0 0 0-1.888-.17v21.248a17.85 17.85 0 0 0 .114 2.207 7 7 0 0 0 .3 1.416 2.548 2.548 0 0 0 .416.981h-5.662a4.321 4.321 0 0 0 .416-.981 11.982 11.982 0 0 0 .283-1.416 15.435 15.435 0 0 0 .132-2.207v-21.252a8.2 8.2 0 0 0-1.888.17 2.444 2.444 0 0 0-1.057.51 1.939 1.939 0 0 0-.547.868q-.17.53-.359 1.246H2118l-.34-3.738z" class="cls-1" data-name="Path 1371" transform="translate(-2117.658 882.892)"/>
                        <path id="Path_1372" d="M2152.069-860.7a17.85 17.85 0 0 0 .114 2.207 7 7 0 0 0 .3 1.416 2.556 2.556 0 0 0 .415.981h-5.661a3.681 3.681 0 0 0 .415-.981 11.758 11.758 0 0 0 .283-1.416 15.241 15.241 0 0 0 .133-2.207v-12h-5.511v12a17.965 17.965 0 0 0 .113 2.207 7.014 7.014 0 0 0 .3 1.416 2.548 2.548 0 0 0 .416.981h-5.661a3.723 3.723 0 0 0 .415-.981 11.792 11.792 0 0 0 .283-1.416 15.39 15.39 0 0 0 .132-2.207v-17.59a15.409 15.409 0 0 0-.132-2.208 11.807 11.807 0 0 0-.283-1.415 3.751 3.751 0 0 0-.415-.982h5.661a2.975 2.975 0 0 0-.416 1.02 7.005 7.005 0 0 0-.3 1.415 17.614 17.614 0 0 0-.113 2.17v4.379h5.511v-4.379a15.26 15.26 0 0 0-.133-2.208 11.773 11.773 0 0 0-.283-1.415 3.708 3.708 0 0 0-.415-.982h5.661a4.191 4.191 0 0 0-.415 1 12.727 12.727 0 0 0-.284 1.414 15.024 15.024 0 0 0-.132 2.19v17.59z" class="cls-1" data-name="Path 1372" transform="translate(-2121.57 882.892)"/>
                        <path id="Path_1373" d="M2171.723-856.092h-12.758a3.713 3.713 0 0 0 .415-.981 11.855 11.855 0 0 0 .283-1.416 15.324 15.324 0 0 0 .132-2.207v-17.59a15.343 15.343 0 0 0-.132-2.208 11.87 11.87 0 0 0-.283-1.415 3.74 3.74 0 0 0-.415-.982h12.381l-.341 3.738h-.868q-.188-.755-.378-1.284a2.1 2.1 0 0 0-.566-.868 2.333 2.333 0 0 0-1.095-.49 10.243 10.243 0 0 0-2-.151h-2.3v8.191a13.937 13.937 0 0 0 2.076 0q.942-.074 1.623-.151a14.069 14.069 0 0 0 1.4-.265 3.115 3.115 0 0 1 .038.491 3.943 3.943 0 0 1-.188 1.057 1.107 1.107 0 0 1-.832.736 2.339 2.339 0 0 1-1.282-.018l-2.831-.792v14.045a1.544 1.544 0 0 0 .094.471 1.514 1.514 0 0 0 .34.547 1.812 1.812 0 0 0 .7.432 3.4 3.4 0 0 0 1.17.17h1.321a2.666 2.666 0 0 0 1.4-.321 2.435 2.435 0 0 0 .85-.869 4.64 4.64 0 0 0 .49-1.208q.17-.661.359-1.34h.869z" class="cls-1" data-name="Path 1373" transform="translate(-2125.711 882.892)"/>
                    </g>
                </g>
                <g id="Group_234" data-name="Group 234">
                    <path id="Rectangle_156" d="M0 0h48.898v1.61H0z" class="cls-1" data-name="Rectangle 156"/>
                </g>
                <g id="Group_235" data-name="Group 235" transform="translate(0 39.773)">
                    <path id="Rectangle_157" d="M0 0h48.898v1.61H0z" class="cls-1" data-name="Rectangle 157"/>
                </g>
            </g>
        </g>
    </g>
</svg>
