<svg id="Layer_1" data-name="Layer 1" xmlns="http://www.w3.org/2000/svg" viewBox="0 0 250 79"><defs><style>.cls-1{fill:#f58f20;}.cls-2{fill:#fff;}</style></defs><title>pangolin-buttons</title><rect class="cls-1" x="6.63" y="16.5" width="239.87" height="58" rx="7.04"/><path class="cls-1" d="M239.46,73.83c-.31.09-.12.3.67.21l.5-.41A6.5,6.5,0,0,1,239.46,73.83Z"/><path class="cls-1" d="M244.51,72.28c.59-.84.83-1.93.27-1.57a7,7,0,0,1-.95,2c-.62.56-1.24.7-1.17.54-.21.22-1.13.46-1.5.74a4.13,4.13,0,0,0,3.23-1.87C244.65,71.91,244.52,72.18,244.51,72.28Z"/><path class="cls-1" d="M217,16l.53,0A2.79,2.79,0,0,0,217,16Z"/><path class="cls-1" d="M165.74,15.85c.39,0,.56,0,.58-.07C166,15.81,165.66,15.83,165.74,15.85Z"/><path class="cls-1" d="M157,15.49l.51,0A1.51,1.51,0,0,0,157,15.49Z"/><path class="cls-1" d="M217,16l-1.37-.11C215.56,16,216.36,16,217,16Z"/><path class="cls-1" d="M245.65,61.41a6.82,6.82,0,0,0,.09.74l0-.7Z"/><path class="cls-1" d="M239.65,15.78l.46,0,.4-.09A6.11,6.11,0,0,0,239.65,15.78Z"/><path class="cls-1" d="M247.28,30c0-.4-.27-.53-.39-.68a2.05,2.05,0,0,1,.19.85C247.14,30.19,247.2,30.14,247.28,30Z"/><path class="cls-1" d="M246.79,57.52l0,.49C246.82,57.88,246.8,57.66,246.79,57.52Z"/><path class="cls-1" d="M227.21,15.71a.28.28,0,0,0-.15-.1S227.12,15.68,227.21,15.71Z"/><path class="cls-1" d="M219.35,73.18s0,0,0,0S219.48,73.18,219.35,73.18Z"/><path class="cls-1" d="M239.46,74.57l-.28,0a.31.31,0,0,0-.06.16Z"/><path class="cls-1" d="M141,15.13H141C141.46,15.1,141.22,15.11,141,15.13Z"/><path class="cls-1" d="M5.46,32.29c.26-1.67.33,2.71.61.2C6,32.73,5.63,30.21,5.46,32.29Z"/><path class="cls-1" d="M245.69,61c0-.24,0-.48,0-.72A5.22,5.22,0,0,0,245.69,61Z"/><path class="cls-1" d="M6.07,32.49h0l0-.25Z"/><path class="cls-1" d="M104,15.3a1.31,1.31,0,0,0,.38.12S104.32,15.36,104,15.3Z"/><path class="cls-1" d="M131.55,15.7l-.68,0A6.08,6.08,0,0,0,131.55,15.7Z"/><path class="cls-1" d="M89.76,15.7a5.16,5.16,0,0,0-1,0l.15,0A2.51,2.51,0,0,1,89.76,15.7Z"/><path class="cls-1" d="M74.9,15.7l.27.05h.47Z"/><path class="cls-1" d="M174.18,73.32a2.33,2.33,0,0,1,.68.25C174.63,73.37,176.82,73.3,174.18,73.32Z"/><path class="cls-1" d="M245.81,61.4a.75.75,0,0,1-.12-.44v.49S245.78,61.5,245.81,61.4Z"/><path class="cls-1" d="M89.16,17.91l-2.37,0C87.46,17.9,88.31,17.91,89.16,17.91Z"/><path class="cls-1" d="M67.53,73.36l.55,0A2.29,2.29,0,0,0,67.53,73.36Z"/><path class="cls-1" d="M79.79,17.91a9.46,9.46,0,0,0-1.33-.19,1.63,1.63,0,0,0-.28.07Z"/><path class="cls-1" d="M174.87,73.57h0Z"/><path class="cls-1" d="M190.42,72.9c-2.25,0-1,.37-1.53.58-2.69.1-1.24-.27-2.16-.46-1.68.09-3,.43-4.21.42-.1-.06-.34-.08-.05-.16-1.78.29-5.27,0-7.33.38a.66.66,0,0,1-.27-.09c.33.19.38.37.31.51-1,0-1.87.23-2.25,0a2.08,2.08,0,0,0,1-.17l-1.06.11c-1-.35,1.45-.12,1.45-.38-2.06.12-4.47.4-6.05.3-.33-.34,3.7-.11,1.59-.41l2.44.13c-1.86-.54,1.49,0-.23-.54-3.21-.1-3.59.18-6.8.08-.72.18.24.28-.49.46-4.56.34-3.59-.85-6.94-.4a6.36,6.36,0,0,1-3.59.43l.81-.38c-3.11,0-1.77.55-5,.29.58-.15,2.44-.13,2-.17-2.11-.31-1.49.22-3.12.22l-.33-.34c-3.32,0-7,.29-10.64.36.2-.1.83-.21,0-.31-4.63.17-9.88,0-14.35-.25l-1.71.3c-.39,0-.73-.14-.3-.19-1.74-.12-.09.18-.93.3s-1.31-.17-.68-.26a83.75,83.75,0,0,1-12,.22l.63-.08c-2.52-.12-2.84.6-5.18.32l.45,0c-5.47-.13-11.51.14-15.69-.3-.79.42-5.41-.19-5.76.4-3.13-.29-2.23-.4-6.63-.59-1.18,0-1.75.37-3.2.43l0-.31-2,.32-1-.37-1.36.08c.54,0,1.15.14,1.07.23a19.39,19.39,0,0,1-5.24-.37l-5,.26a6.45,6.45,0,0,1,1.63-.25c-2.69.32-.49-.32-3,0,.33.07-.17.18-.23.24a43,43,0,0,0-6.09-.11l.4-.21c-3.74,0-7.87.1-12.07.1,1.51.1,1.16.46-.07.5L39,73.35c-.79.21,1.29.13-.34.37-1.57,0-1.06-.37-.16-.47l-1.9.11c-.11-.1.33-.15.45-.27-.78.2-3.28-.33-4.41,0L32.52,73c-4.19,0-6.09.1-9.5.12-.07.28-1.4.22-2.42.45l-4-.19-2.13-.08a13,13,0,0,1-2-.13c-.88-.13-1-.18-1-.11s0,.17-.37.08c0-.07-.15-.2-.36-.34s-.43-.31-.61-.49c-.37-.34-.56-.57,0-.23a6,6,0,0,1-2.08-2.79,6.07,6.07,0,0,1-.36-1.73c0-.79-.08-1.71-.13-2.85-.11.5-.15,1.06-.24.77,0-.83.11-1.89.23-1.77l0,.22c-.39-5.15.74-11.89.21-16l0,.23-.28-4.25c0-1.95.19,1.18.35-.27-.43-4.59.06-7.25-.22-11A30.93,30.93,0,0,0,8,25.87l0-2.05c0-.37,0-.59,0-.88a5.45,5.45,0,0,1,.14-.79A4.38,4.38,0,0,1,9.58,19.8l-.26,0c.43-.75.79-.64,1.29-.95-.15-.08-.82.41-.46,0a5.59,5.59,0,0,1,2.44-1.13A7.91,7.91,0,0,1,14,17.64h1.66q3.33,0,6.69.12l13.43.35c3.24.05,1.84-.92,5.92-.5L40.56,18c6.54-.39,13.37,0,19.77-.32a2.69,2.69,0,0,1-1,.17,16.76,16.76,0,0,0,5-.18c1,0,.23.18.84.28,1.36.14,3.4-.31,4.12-.07.13,0-.38.08-.63.1.89-.12,4.12,0,3.28-.25,2.4.13,4.59-.13,6.51,0,1.25-.31,4.11.15,4.5-.29-.17.45,4.22.36,5.73.15-.5.14,1.33.14.73.33,1.73,0,3.32-.09,3-.32,3.19.54,6.42-.44,8.22.26,5.14-.24,9.91-.41,14.54-.52-.17.46-5.12.05-4.92.52,4.39-.18,6.93-.57,11.28-.46,1.13.06-.64.19-1,.27,4.39-.18,8.49,0,12.39-.2a3.16,3.16,0,0,1-.83.12c.77,0,1.79.07,1.71-.14l-.75.06c-1.23-.3,3.05-.63,3.19-.78-1.3.59,3.86.15,1.78.89.51,0,1.15-.14,1-.28.75,0,1,.12.23.28,2.76-.11,1.78-.33,4.27-.32,0,.1-.51.13-.77.25a21.39,21.39,0,0,1,4.65-.3c-.13.06.12.13-.51.13,3.62,0,6.18-.51,10.15-.33-1.17.44,1.36.15,1.57.52l2.14-.11-.86-.18c1.87,0,3.53-.27,5.14-.15l-1.39.16,3.51-.07-2-.14c1.89-.2-.2-.48,2.29-.37-.51,0,1.87,0,2.85.22h0a15.35,15.35,0,0,1,3.27-.15c.36.12-.29.41-.06.49.92-.31,4.39-.08,5.55-.42-.39.08-.41.28-.28.32l.77-.25c.87.08,1,.12.85.27,2.61.05-.83-.47,2.27-.27a5.86,5.86,0,0,1-.63.1c3.11.11,6-.16,8.87,0,.84.38-2.5.1-1.53.41,4.12-.07,8.53-.45,12.52-.36l-.74,0c.55-.53,3,.26,5,0-.5,0-.65.3-.52.24,2.73.08,5.59-.13,9.73-.3l-.51.14c1.6.12,4.24.07,6,.13.52-.14,1.52-.12.91-.31,5.36.77,10.23-.42,15,.23-.57,0-1.36.11-.91.12,1.34,0,2.74-.11,4-.11-.28-.25-.49-.16-1.34-.34a5.81,5.81,0,0,1,2.63,0c-1.8-.16,0,.3.58.7-.09-.1.18-.09.14-.18.85.57.93.56,1.16.53a.72.72,0,0,1,.49.12,3.22,3.22,0,0,1,1,.95l-.18,0a5.78,5.78,0,0,1,1.75,2.6c-.08.52-.5-1-.77-1a8.85,8.85,0,0,1,.9,2.13,5.44,5.44,0,0,1,.08,2.27,16,16,0,0,0-.23-2.34c-.05.77-.14,1.19-.16,1.61s0,.74,0,1.34v-.12l-.14,2.78.08-.71c.7,2.05.13,4.18.58,6.94-.43-2.69-.25-.44-.55-.65-.08.7-.18,1.78-.26,1.47.24,1.31-.19,2.18.16,4-.1.09,0,1.4-.25,1.11.07,1.69.17-.41.29-.26.33,2.61-.4,6.15.05,9.91.19,3.25.52,3.85.68,6.86-.15,1-.35-.84-.35-.84a26.11,26.11,0,0,0,0,4.42c-.08-.31-.15,0-.26.48,0,1.24.35.83.21,2.47a5.7,5.7,0,0,1-.39-1.24c.09,1.46.27,2.9.36,4.42-.17.4-.26-.92-.37-1.45,0,.83.1,2,.11,2.86s-.18,1.61-.14,1.89a6.78,6.78,0,0,0,.39-1c-.14.58-.29.23-.25-.19,0-1.31.19-2,.32-2.07,0,.35.05.73.05,1.06.59-1.08-.09-4.32-.05-6.48l.42.9-.35-2.22c.11-.47.34-.8.4.27.21-1.55-.14-1.37.09-2.71,0-.15.05-.08.07.06L246.66,56c.09.3.3-.25.24.68.24-2.73-.31-4.4,0-5.42l0,.22c-.14-3.78-.31-.36-.67-3.2l.76-1.91-.31-.37c0-.39,0-1.16.16-1-.21-1.45-.14.25-.33-.6.28-1.88-.13-5.18.35-5.6-.23-.67-.18,1.8-.34-.21.53-.57-.09-2.32.15-4,.27.52.13,2.15.37.43-.46-1,.1-3.34,0-4.79-.36-.06-.15-3.14-.27-5.57,0,0,.06-.23.09-.69a9.48,9.48,0,0,0-.08-1.91,8,8,0,0,0-2.12-4.08h.1a12.08,12.08,0,0,1-1.7-.89,7.21,7.21,0,0,0-2.71-.81c.1-.2.44-.3,1.44-.1a7.82,7.82,0,0,0-1.72-.34,12.89,12.89,0,0,1-2,.19l.4-.28c-2.12,0-4.27.33-7,.14-.15.26,2.18.72-.71.89-.11-.14-.22-.38.54-.43a7,7,0,0,1-1.38.05l1.15-.23c-1.24-.1-.65.19-1.64.17,0-.19-.74-.14-.6-.29a8.65,8.65,0,0,0,1.25,0,15.86,15.86,0,0,1-2.93-.3c.1.11,0,.26-.82.29-2.12,0-.72-.24-2-.34-.52.14-1.87,0-1.91.29a1.93,1.93,0,0,1-1-.22c-1.1.13-5.14,0-3.9.35l.28,0-.18,0h0c-3.6.29-7.48-.17-11.05-.05V16c-2.13.11-4.75.06-6.27.28-.63,0-1.49-.19-1.22-.3A24.44,24.44,0,0,1,195,16c1.64-.17-.56-.15,1.68-.13a22.7,22.7,0,0,0-4.87,0c.77-.25-1.6-.32-2.6-.24l1.48.18c-1.13,0-2.12,0-3.13,0l.55-.33c-4.34-.41-7.83.69-11.13,0-1.14.23,2.36.16,1.33.44-2,0-4.07-.53-4.69-.53-2.74-.18-2.55.49-5.41.36.36.12.71.44-1.43.55s-2.45-.5-1.19-.59c.48,0,.71,0,.69.06.64,0,1.49-.09.7-.22l-.26.12c-1-.12-3.74-.11-3.09-.3-1.51.11-.65.19.47.25-2.56-.17-4,0-6.64-.12.42.07.81.21.39.21-3.86-.15-1.7.22-4.32.27-1.49-.18.53-.43-2.1-.28-1.61-.12-.34-.31.3-.41a37.15,37.15,0,0,1-5.86-.19l1.26-.1c-.76.06-1.38.06-2,.06l.73.24c-.75-.05-1.38-.05-1.36-.15-.77.16.58.4-.94.61-1-.12-3,.13-3.35-.18,3.11.1-.35-.32,2.29-.37a14.69,14.69,0,0,1-1.87,0c-.12,0,.1-.06.3-.08-3-.28-1.37.36-4.46.35.4-.18-.71-.34-1.22-.3,1.25,0,.6.3-.54.43a20.68,20.68,0,0,0-3.19.09l1.18.06A11.81,11.81,0,0,1,130,16c-.12-.13,1.25-.09.76-.15-1.53.31-3.46-.33-5.6-.12-1-.12-.1-.33-1-.41-2.39.23-2.59-.24-5.11,0,.73.24.85.18-.92.41l4.14-.17-2.66.35c1.25,0,2.64-.15,3.39-.11-1.27.19-1.14.13-.54.33-1.71-.36-3.39.21-5.37,0l.06-.59c-3-.26-5.27.3-9.13.15l1.24.11a26.24,26.24,0,0,1-3.63.12c.11-.19-.67-.27-1.2-.39.06.15-2.83,0-3.18.38l-1.72-.26c-3.11-.1-3.55.57-6.55.5.9-.22-.46-.36,1.55-.51-1,0-1.9,0-1.92.1-.58-.12-2.77.26-3.69.08a4.24,4.24,0,0,1-1.68.27c-.12,0,0-.09,0-.09s-1.76.13-.78.35c-3.08-.62-8.61,0-11.29-.49-2.18.07-4.81.13-6.79.15.13-.06,0-.1.38-.08-2.73-.18-1.68.57-4.79.36-1.59-.32,1.65-.17.66-.29-.43-.65-3.75.09-5.84-.29l.5,0c-1.6-.22-3.9.25-6.51.2,0,0,.12-.06,0-.1a67.92,67.92,0,0,1-7.68.53c.78-.25,1.14-.13.66-.39-1.12,0,.33.42-1.92.49-.73-.14-2.35-.26-2.56-.54h2.12c-1.09-.36-2.75,0-3.87-.05l.15-.16c-3.26.05-3.3.44-6.8.42l.37.11c-1.91.39-1.61-.21-3.51.08l-.58-.4c-1.26.1-4.41.38-6.67.46,1.28-.3,3.92-.45,5.56-.62a36.74,36.74,0,0,0-4.9.22,10.05,10.05,0,0,1,1.64-.07,31.66,31.66,0,0,1-6,.46c.22-.39-1.4-.43-3.3-.46a25.1,25.1,0,0,0-3,0,21.53,21.53,0,0,0-2.38.46A8.78,8.78,0,0,0,5.7,22.17a28.14,28.14,0,0,0-.22,3.67c0,1.19,0,2.43,0,3.71.6-1.82,0,1.5.63,1.18a9.42,9.42,0,0,1,0,1.76L5.7,36.11c-.17.86-.13-1.14-.27-1,0,2.62-.26,1.1-.42,2.83.22-.35.31.91.23,2.4l.28-2.1c.33,3.66-.51,3.16-.19,6.85l-.19-1.17c.11,1.89,0,7,.49,8.83-.08.34-.24.78-.29,0-.07,4.52.53,10.06.22,13.57l-.15-.34a20.84,20.84,0,0,1,.22,2.66c-.07,0-.21-.37-.15.08A8.82,8.82,0,0,0,6,70.22a12.72,12.72,0,0,0,1.06,2,7.43,7.43,0,0,1-.73-.85,7.24,7.24,0,0,0,4.88,3.9,8.73,8.73,0,0,0,2.68.15c.81-.07,1.65-.12,2.58-.15,0,.44,3.46.59,5.19.66l-.06.06c5.13,0,8.72-.37,13.47-.54,2.95.48,10,.2,14.74.47-.73-.08.12-.34,1-.39,1.11.09,3.08-.3,2.9.1h-.4c.84.4,3.13.29,4.91.3l.3-.52c4.67.76,12.24-.29,14.79.4,1.12-.13,2.52-.13,3.64-.26l-.06.28c3.12.07,4.68.11,8.54,0l-.79.21c2.18,0,2.75-.82,4.76-.84l.61.42c3.8,0,7.64.37,11.39,0-.06.06-.17.18-.78.2,1.78,0,6.91.28,6.26-.3,0,.38,3.92,0,6-.13l-.31.28a17.55,17.55,0,0,1,4.2-.55c.57,0,.5.22-.26.15,1.91.15,1.49-.26,3.8-.11l-.86.17a8.29,8.29,0,0,0,2.89-.28,11.88,11.88,0,0,1,4,.33,6,6,0,0,1,2.5-.29c.15.09-.27.15-.48.18,3.29.19,4.89-.32,7.15,0,0,.09.19.14.38.17-2.61,0-4.71,0-4.52,0,0,.25,2.11.3.43.65a44.12,44.12,0,0,1,6.64-.49,1.15,1.15,0,0,1,.28.09l-.22,0a9,9,0,0,0,1.3,0c.66,0,1.07.07,1.7.07a17,17,0,0,0,3.47.13c-.08-.28,1.29-.24,0-.47.17,0-.2,0-.89,0l-.45,0,.07,0-2.61,0a8.46,8.46,0,0,1,2.86-.11c.54-.18,1.13-.37,1.46-.45,1.44.39,4.22.6,4.6.84,3.21-.15,7.56-.1,9.58-.63a2.45,2.45,0,0,1,1.39.24,13.77,13.77,0,0,0-1.44.12c1.83-.14,5.41-.06,5.84-.43,2.3.17-1.29.34,1.87.28l-.42.12c6.21.59,10.1-1,17-.19A2.59,2.59,0,0,1,183,75c7.86.34,16.2-.31,24,.22a13.54,13.54,0,0,0,3.79-.31l.47.3,2.3-.35c3.27-.25,5.65.74,9.78.26l-.53-.2c1.48,0,4.7-.12,4.45.11a2,2,0,0,1,1.06-.1l.05.16,3.64-.28c2.83.12-.44.63,3.68.66,1.53-.06,4.36-.46,3.79-.56s-1.58-.1-1.63-.26l1.4-.08c.26-.47,1.33-.94-2.11-1.27l-2.39.28-.77-.22,2,0a6.8,6.8,0,0,0-2.68.11,2.55,2.55,0,0,0-1-.25l-2.36.45c-.28-.19,1.06-.37-.52-.47-1.1.21,1.06.41-.77.55-1.14-.21-.81-.39-2.15-.21-.19-.12.09-.19.63-.24a32.73,32.73,0,0,0-3.79.3c-1.2-.26-4.05.07-3.93-.37a18.88,18.88,0,0,1-3.21.36c2-.52-4.12,0-3.59-.59-1.48.47-5.37.21-8,.47a2.09,2.09,0,0,1,.67-.09,27.09,27.09,0,0,1-2.87-.27c-.19.39-2.5.48-3.75.72-1.81-.37,1.11-.46.54-.82.09.32-3.16.32-2.54.58-1.39-.23-1.2-.11-1.92-.44-.24.49-1.29.09-2.44.39-2-.24-.52-.46-2.73-.31C188.46,73.08,190.42,72.9,190.42,72.9Zm-52.56.85h0l1.09,0Zm-4.41,0h1.91c.16.09,0,.19-.46.19C135.15,73.89,134.1,73.84,133.45,73.76Zm9.34,1.94c-.7,0-.94,0-1-.07l1.22,0,.08,0A.53.53,0,0,1,142.79,75.7Z"/><path class="cls-1" d="M144.05,75.33l.28,0-.41-.06-.25.09Z"/><path class="cls-1" d="M217.65,16.08h-.09a.69.69,0,0,1,.19,0Z"/><polygon class="cls-1" points="72.45 73.22 72.46 73.29 72.85 73.23 72.45 73.22"/><path class="cls-1" d="M241.73,17.46a.81.81,0,0,0,.25.17A.91.91,0,0,0,241.73,17.46Z"/><path class="cls-1" d="M245.89,25.51l-.1,1.49C245.85,26.35,245.87,25.89,245.89,25.51Z"/><path class="cls-1" d="M245.75,33.59a.49.49,0,0,0,.12.16v0Z"/><path class="cls-1" d="M132.1,17.58h-.31C131.06,17.65,131.56,17.63,132.1,17.58Z"/><path class="cls-1" d="M170.33,16.92l-1.23.14C169.79,17.08,170.31,17.08,170.33,16.92Z"/><path class="cls-1" d="M89.42,17.92h0Z"/><path class="cls-1" d="M167.33,17.05a11.68,11.68,0,0,0,1.77,0A17.4,17.4,0,0,0,167.33,17.05Z"/><path class="cls-1" d="M245.53,68.46a1.76,1.76,0,0,1-.07.33s0,0,0,0A2.34,2.34,0,0,0,245.53,68.46Z"/><path class="cls-1" d="M245.5,68.84l-.07.38A1.21,1.21,0,0,0,245.5,68.84Z"/><path class="cls-1" d="M245.22,70a5.28,5.28,0,0,0,.21-.78A4.62,4.62,0,0,0,245.22,70Z"/><path class="cls-1" d="M245.75,57.91l-.1-.12A.16.16,0,0,0,245.75,57.91Z"/><path class="cls-1" d="M245.72,54.66c0,.78-.21,2-.15,3l.08.1C245.5,57.28,245.9,55.4,245.72,54.66Z"/><path class="cls-1" d="M247,41.1l-.08,2.72c.11-.48.26-1.1.28.14C247.51,40.52,246.94,44.67,247,41.1Z"/><path class="cls-1" d="M247.14,32.65c.05,1.47.16,0,.22.06C247.26,31.78,247.24,31.56,247.14,32.65Z"/><path class="cls-1" d="M198.6,15.86l.15-.26C197.62,15.64,198.73,15.7,198.6,15.86Z"/><polygon class="cls-1" points="186.93 17.18 188.03 17.34 188.55 17.1 186.93 17.18"/><polygon class="cls-1" points="180.04 15.36 180.53 15.32 178.65 15.41 180.04 15.36"/><path class="cls-1" d="M77.54,15.45l.34.31C78.64,15.71,78.8,15.35,77.54,15.45Z"/><path class="cls-1" d="M33.29,15.77a6.28,6.28,0,0,0-2.49-.1C31.79,15.69,32.78,15.81,33.29,15.77Z"/><polygon class="cls-1" points="60.72 75.74 59.83 75.85 61.51 75.76 60.72 75.74"/><polygon class="cls-1" points="87.45 18.41 79.55 4 71.65 18.41 87.45 18.41"/><path class="cls-1" d="M87.45,19.08c0-.09,0-.29,0-.25l-.05.33Z"/><path class="cls-1" d="M87,18.46a1.38,1.38,0,0,0-.1.75c.07-.32.08-.19.16-.57.06,0,.1.11.09.23,0-.08.1.08.13-.13s-.18-.27-.28-.06A.81.81,0,0,1,87,18.46Z"/><path class="cls-1" d="M81.15,18l0,0S81.17,18,81.15,18Z"/><path class="cls-1" d="M77.5,17.76s0,0,0-.07S77.5,17.74,77.5,17.76Z"/><path class="cls-1" d="M76.88,17.4l0,0S76.89,17.38,76.88,17.4Z"/><path class="cls-1" d="M81.15,18l-.1-.11C81.05,18,81.1,17.92,81.15,18Z"/><path class="cls-1" d="M86.23,19.26a.15.15,0,0,0,0-.09.1.1,0,0,1,0,0Z"/><path class="cls-1" d="M82.76,17.68h0l0-.14Z"/><path class="cls-1" d="M84,17.63s0,.27,0,.39c0-.12,0-.17.06-.19S84,17.71,84,17.63Z"/><path class="cls-1" d="M86,18.12l0,0Z"/><path class="cls-1" d="M81.88,17.62a.41.41,0,0,1,0-.1A.34.34,0,0,0,81.88,17.62Z"/><path class="cls-1" d="M87.3,16l0,0S87.31,16,87.3,16Z"/><polygon class="cls-1" points="87.41 18.45 87.39 18.44 87.3 18.53 87.41 18.45"/><path class="cls-1" d="M75.74,17h0S75.76,17,75.74,17Z"/><path class="cls-1" d="M76.21,12c-.21,0-.06-.41-.32-.38C76,11.64,76,12.05,76.21,12Z"/><path class="cls-1" d="M86.2,19.22h0S86.19,19.24,86.2,19.22Z"/><path class="cls-1" d="M75.89,11.6h0Z"/><path class="cls-1" d="M73.76,17.21l-.06.12Z"/><path class="cls-1" d="M75.07,17.61l0,0S75.05,17.61,75.07,17.61Z"/><path class="cls-1" d="M73,17.61s.06-.06,0,0l0,0C73,17.58,73.07,17.56,73,17.61Z"/><path class="cls-1" d="M73,17.26l-.07,0h0Z"/><path class="cls-1" d="M85.25,12.48a.84.84,0,0,1-.11.21C85.25,12.55,85.38,12.68,85.25,12.48Z"/><path class="cls-1" d="M86.23,19.1a.31.31,0,0,1,0,.12h0A.2.2,0,0,0,86.23,19.1Z"/><path class="cls-1" d="M70.37,19.82l-.26,0A.56.56,0,0,0,70.37,19.82Z"/><path class="cls-1" d="M80.21,3.35l.05,0S80.23,3.33,80.21,3.35Z"/><path class="cls-1" d="M69.92,19.27c.16-.14.27-.25.36-.34H70.2Z"/><path class="cls-1" d="M85.14,12.69Z"/><path class="cls-1" d="M86.19,13.52c-.09-.18-.24.14-.38.23-.18-.15.09-.26.16-.45-.13-.08-.37,0-.42-.08s0-.08.09-.1c-.24,0-.24-.41-.54-.35l0-.08a2.12,2.12,0,0,1-.27.34c0-.08-.21,0-.09-.19,0,.06.08,0,.13,0l-.1,0c.15-.29.13,0,.27-.12-.15-.09-.41-.11-.43-.29.18-.24.23.22.3-.13l0,.27c.21-.48,0,.14.28-.35-.08-.31-.25-.18-.33-.49-.14.06-.15.19-.29.25-.38-.16.32-.81-.08-.8-.16.07-.41.3-.39,0l.25-.17c-.12-.27-.39.2-.39-.22.11,0,.18.12.19,0,.07-.35-.19,0-.26-.11l.17-.24c-.17-.23-.47-.37-.66-.62.06-.05.15-.06.17-.2a2.28,2.28,0,0,1-.49-1.29l-.24,0s0-.14.09-.14c0-.2-.1.11-.2.11s0-.2.11-.21a.88.88,0,0,1-.65-.82h.08c0-.27-.46.14-.41-.21h0c-.17-.51-.58-.83-.52-1.43-.27.19-.13-.55-.48-.22a1.61,1.61,0,0,0-.08-1.12c-.09-.2-.3.06-.42-.06L80.6,4a.72.72,0,0,0-.25.07c0-.18,0-.35,0-.54l-.13-.1a.78.78,0,0,1,0,.4C80.1,3.69,80,2.85,80,2.61a4,4,0,0,0-.4-.31c0-.19.07-.14.12-.16-.16.08-.09-.3-.14-.45,0,0,0,.08-.09.28a2,2,0,0,1,0,.42c-.09-.13-.33.29-.47.67V2.74c-.32.5-.61,1.28-.94,1.87.17-.15.32.19.26.35l-.21-.15c0,.23.15-.08.18.28-.07.09-.12,0-.18,0A.39.39,0,0,1,78,4.81a.91.91,0,0,0,0,.25c-.06,0-.07-.12-.13-.21.08.19-.33.07-.18.37l-.06,0c-.18.33-.2.55-.34.83.15.18.06.25.14.47-.16.15-.41.23-.52.49s.1.19.15.37c-.15-.14-.27.11-.3-.13a3,3,0,0,0-.26.9c.08,0,.13,0,.17.08s-.14.09-.21,0v0c0,.64-.94.49-.82,1.14v0l0,.51c-.11.13,0-.21-.2-.2,0,.63-.35.54-.36,1-.55-.23-.42.86-.86.88l.1.09c.06.19-.11,0-.16.07s.14,0,.16.12c-.26.82-.92,1.26-1.4,1.87-.17.23.43.71,0,.77l-.13-.29a2,2,0,0,1-.34.9,5.74,5.74,0,0,0-.64,1.41c0-.07-.11-.09-.06-.18-.31.17-.42.75-.23.72-.09.13-.18,0-.32.14s0,.43-.27.59c0,0,0,0,0-.07s-.37.63,0,.39c-.34.41-.19.55-.54.93.32-.09-.52.7.06.34a2.86,2.86,0,0,0-.36.3c-.11.18.4.09.73-.08-.23.14,0,.14-.31.33a1,1,0,0,0,.74-.32c-.08.27.25.16.49.07s.44-.16.31.19c.84-.24,1.42-.41,1.93-.51-.05.45-.58,0-.67.51a3.44,3.44,0,0,0,.74-.34c.15-.11.26-.18.42-.12s0,.2-.08.27c.32-.18.61,0,.89-.2a.2.2,0,0,1-.06.12s.13.07.12-.14l0,.06c-.09-.3.21-.63.22-.78-.09.59.28.15.13.89a.37.37,0,0,0,.07-.27c.06,0,.07.11,0,.27.2-.11.13-.33.3-.32a1.38,1.38,0,0,1,0,.25c.09-.19.18-.39.33-.3,0,.06,0,.13,0,.13.26,0,.44-.51.73-.33-.09.44.09.15.11.52l.15-.11-.06-.18c.13,0,.25-.27.36-.15l-.1.16.25-.07L77.46,19c.14-.2,0-.48.17-.37,0,0,.13,0,.2.22h0c.06-.12.13-.24.23-.15s0,.41,0,.49c.06-.31.31-.08.39-.42a.91.91,0,0,0,0,.32l.06-.25a.32.32,0,0,1,.06.27c.18.05-.06-.47.16-.27,0,0,0,.06,0,.1.23.11.43-.16.63,0,.06.38-.17.1-.1.41.29-.07.6-.45.89-.36l-.06,0c0-.53.22.26.36,0a.54.54,0,0,0,0,.24c.2.08.4-.13.7-.3L81,19c.11.12.3.07.42.13,0-.14.11-.12.07-.31.38.77.73-.42,1.07.23,0,0-.1.11-.07.12l.29-.13c0-.23,0-.14-.1-.32s.12-.24.19-.24c-.13.15,0,.37.06.5,0-.07,0-.15,0-.22.15.41,0-.47.23-.19v.12c.08-.06.15-.22.23-.19,0,.27-.08.13-.08.35.11,0,.23-.51.33-.24,0,.07-.12.07-.17.15.12.31.13.23.22.28h0l.19.14,0-.08c.15-.7.3-.13.5-.58-.19.43,0,.25,0,.55,0,.08.13.18.11.26.09-.24.15.2.28-.16,0,.1.1,0,.08.25.12-.07,0-.17,0-.29.19-.33.44.4.71-.05.23-.19.27-.52.49-.68a.43.43,0,0,1-.06.35c.11.14.2.12.31,0a.43.43,0,0,0,0,.26c.08,0,0-.35.17-.21a1.83,1.83,0,0,1-.09.39c.11-.09.21-.27.32-.36,0,.17-.07.26-.11.37a.54.54,0,0,0,.36-.42l-.08-.1s0,.23,0,.28c-.11.21-.15-.09-.16-.19l.08-.06c-.08-.57-.31.09-.46.06l.06-.42-.16.35c0-.11-.05-.34,0-.4-.11-.21-.1.14-.19-.09a.08.08,0,0,1,0-.07l-.1.13c0-.09,0-.3,0-.24-.19-.24-.31.31-.38,0v0c-.27.14,0,.31-.22.67l-.14-.76,0,.31s-.08,0-.07-.16c-.1.21,0,.14,0,.33-.14-.27-.37.13-.4-.35-.05.23.13.18,0,.34,0-.53-.16.09-.28-.15,0-.27.15-.13,0-.37-.08.46-.24-.1-.34,0,0,.36-.23.15-.4.27,0-.12-.32-.2-.49-.33v-.06c0,.36-.2.29-.32.37a.71.71,0,0,1,.09-.4h-.11c0,.12-.06.18-.14.22l0-.28c-.15,0-.3.33-.5.14,0,.26.16.72-.05.89,0-.14,0-.38,0-.43s-.06.11-.1.05l.09-.23c-.09-.1,0,.19-.12.17,0-.19-.05-.14,0-.29s.06.08.08,0a.47.47,0,0,1-.2-.3c0,.11,0,.26-.06.29s0-.24-.14-.34c0,.14-.13,0-.14.29,0,0-.05-.14-.07-.22-.07.13-.36,0-.27.35l0,0,0,0h0c-.25.29-.53-.17-.78,0v-.1c-.15.11-.34.06-.45.28a.37.37,0,0,1-.09-.3c-.11.07-.13.18-.29,0,.11-.17,0-.15.12-.13-.15-.08-.19-.24-.35,0,0-.25-.11-.32-.19-.24l.11.18a.33.33,0,0,1-.22,0l0-.33c-.31-.41-.56.69-.8,0-.08.23.17.16.1.44-.14-.05-.29-.53-.34-.53-.19-.18-.18.49-.38.36,0,.12,0,.44-.1.55s-.18-.5-.09-.59.05,0,.05.06a.15.15,0,0,0,0-.22l0,.12c-.07-.12-.26-.11-.22-.3-.1.11,0,.19,0,.25-.18-.17-.29,0-.47-.12,0,.07,0,.21,0,.21-.27-.15-.12.22-.3.27-.11-.18,0-.43-.15-.28-.12-.12,0-.31,0-.41-.17.23-.32-.15-.42-.19l.09-.1A.16.16,0,0,1,76,17l0,.24s-.1,0-.1-.15c0,.16,0,.4-.06.61-.07-.12-.22.13-.24-.18.22.1,0-.32.16-.37,0,0-.08,0-.13,0a.08.08,0,0,1,0-.08c-.21-.28-.1.36-.32.35,0-.18,0-.34-.09-.3s0,.3,0,.43c-.15-.14-.16.1-.23.09l.08.06c0,.18-.1.16-.19.21,0-.13.08-.09.05-.15-.11.31-.25-.33-.4-.11-.07-.12,0-.34-.07-.42-.17.23-.18-.24-.36-.05,0,.24.06.18-.07.41l.3-.17-.19.35c.09,0,.19-.15.24-.11-.09.19-.08.13,0,.33-.12-.36-.24.21-.38,0v-.59c-.06-.07-.07-.08-.09-.07l-.06.1c0,.09-.13.2-.16.12v.11c-.09.23-.1,0-.19.12a3,3,0,0,0,.16-.39c-.08.15,0,0-.33.38l.12-.26c0-.1-.59.57-.69.5.25-.22.35-.36.56-.51,0,0,0,0-.16.1.13-.12-.39.26-.21.08-.12.08-.38.29-.42.27l.13-.09a3.15,3.15,0,0,0-.5.35c.17-.17.23-.24.21-.27.18-.2,0-.24.51-.57a.34.34,0,0,1,0-.26c.06,0,.1,0,.07,0,.25-.16-.52,0-.21-.21s.11.09.25,0c.31,0,.3-.05.28-.1s-.06-.12.11-.12l0,0c.19,0-.11-.2,0-.32l.06.05c-.18-.2,0-.61,0-.85.1.22,0,.17.19.29,0-.11-.25-.23-.19-.45.11,0,.25,0,.41.13l-.09.17c.25.14.12-.22.2-.27l.08.1c.12-.29-.1-.53.07-.79l-.08-.05c-.14-.39.19,0,.11-.32l.24.2a4.66,4.66,0,0,1,0-.81,2.7,2.7,0,0,1,.1.82.67.67,0,0,0,.09-.53c0,.06,0,.17,0,.18a1,1,0,0,1,0-.77c.41.51.39-.39.8-.17,0-.53.45-.63.65-1.06-.41-.22.06-.13-.3-.48,0-.12.06-.15.08-.14l.37-.06c.13,0,0,.17.1.25.14-.18.19.07.36,0a.19.19,0,0,1,0-.33h-.25c0-.49.42.07.4-.42l.06.21c0-.22.31-.56.11-1,.06,0,.17.09.16.18.24-.31.15-1.12.47-1.22l.07.12c0-.09-.09-.29,0-.28s.06.12.09.1,0-.34,0-.38l.06.18c.3-.23.06-.79.17-1.15.24.27.47.08.59,0l0,0c.26-.37.18-.92.29-1.4a.35.35,0,0,0,.26-.08.15.15,0,0,0,.08,0s.08-.1.13,0a2.94,2.94,0,0,1-.08-.49c0,.09,0-.52.07,0h0c.07.52.06.37.08.35V5.41c0,.67,0,.57.12.56s.14,0,0,.33c.07-.09.09-.06.17-.12l-.14.2v.07a1.14,1.14,0,0,0,.06.15,1.59,1.59,0,0,0,.22.34L79.84,7c.09.19.57-.28.67-.13l-.21.31c.17.3.13.83.51.89,0,0-.11.1-.15.06.08.15.15.73.44.32-.21.24.15.34.34.4L81.27,9c.27-.08.33-.13.49,0,0,.07-.11.18-.1.07,0,.25.21,0,.23.24l-.14,0c.08.17.13.1.29.05s.12.34,0,.52c.1-.07.26-.11.27,0a.12.12,0,0,1-.12.07c0,.38.39.19.34.54a.41.41,0,0,0-.08.13,1.4,1.4,0,0,1-.17-.39c-.14.16-.08.36-.35.44.19,0,.55,0,.57.23l0,.07h0c0,.05,0,.07.08.07a.38.38,0,0,0,0,.19c-.11.15,0,.26.08.35.15-.18.19,0,.26-.29,0,0,0,0-.07,0l0,0h0l-.13-.2c.12,0,.22,0,.19.17a2.34,2.34,0,0,1,.31-.16c-.15.35-.15.7-.27.88.23.16.39.54.77.38.08,0,0,.17-.07.25s-.07-.06-.13,0c.16.06.27.4.49.21,0,.28-.24.1-.07.32l-.08,0c-.06.86,1,.23.84,1.24a.33.33,0,0,1,0-.14c.16.83.88,1.1.93,2,0,.24.17.12.33.11l-.14.23.29,0c.28.1-.17.9.28.93l.09-.16c0,.14.27.3.13.42,0,0,.14-.09.11,0l-.09.1.31.13c.06.29-.37.35-.2.69.1.09.44.07.48,0a.32.32,0,0,1,.07-.29l.11.06c.27-.26.58-.47.61-.94l-.26,0,.09-.2.09.15c.07-.22-.06-.16-.17-.15a.45.45,0,0,0,.09-.23l-.35.08c.09-.13.25-.13.24-.32-.17,0-.18.33-.34.27.07-.22.18-.3,0-.29.06-.09.11-.12.17-.11-.14,0-.18-.21-.34-.11.09-.26-.21-.28,0-.54-.08,0-.29,0-.35,0,.38-.17-.16-.35.18-.66-.33.18-.35-.29-.62-.34,0,0,.09,0,.08,0a1.05,1.05,0,0,1,0-.4c-.23.22-.38.1-.57.15.13-.38.31-.2.49-.47-.18.2-.32,0-.44.16a.87.87,0,0,1,.16-.42c-.28.28-.1-.06-.32,0,0-.31.23-.33,0-.41A.17.17,0,0,1,86.19,13.52ZM83.43,9.85h0l.06.08Zm-.2-.35a1.19,1.19,0,0,0,.08.16c0,.08-.11.12-.13.09S83.21,9.61,83.23,9.5Zm-.68,1.94s0-.08,0-.12l.07.07h0Z"/><path class="cls-1" d="M82.81,11.32h0a.64.64,0,0,1,0-.07l-.06,0Z"/><path class="cls-1" d="M81.2,18h0s0,0,0,0Z"/><polygon class="cls-1" points="80.63 3.88 80.6 3.95 80.66 3.95 80.63 3.88"/><path class="cls-1" d="M82.93,19A.19.19,0,0,0,83,19,.25.25,0,0,0,82.93,19Z"/><path class="cls-1" d="M83.68,19l.1.1A.45.45,0,0,0,83.68,19Z"/><path class="cls-1" d="M84.25,19.16a.57.57,0,0,0,0-.12h0Z"/><path class="cls-1" d="M75.11,19.49h0C75,19.56,75.07,19.54,75.11,19.49Z"/><path class="cls-1" d="M77.83,18.83l-.09.14C77.79,19,77.83,19,77.83,18.83Z"/><polygon class="cls-1" points="70.4 19.83 70.4 19.82 70.37 19.82 70.4 19.83"/><path class="cls-1" d="M77.61,19c0,.06.09,0,.13,0S77.65,18.92,77.61,19Z"/><path class="cls-1" d="M86.74,19.29h0v-.05Z"/><path class="cls-1" d="M86.77,19.25l0,0S86.78,19.22,86.77,19.25Z"/><path class="cls-1" d="M86.87,19.15l-.07.07S86.85,19.23,86.87,19.15Z"/><path class="cls-1" d="M86,19.16v.1A.28.28,0,0,0,86,19.16Z"/><path class="cls-1" d="M85.75,19.19c.06,0,.14.21.22.15v-.08C85.94,19.41,85.8,19,85.75,19.19Z"/><path class="cls-1" d="M84.78,17.93,85,18c0-.11-.08-.26,0-.28C84.74,17.4,85,18,84.78,17.93Z"/><path class="cls-1" d="M84.18,17.77c.11-.05,0-.16,0-.22C84.12,17.65,84.11,17.67,84.18,17.77Z"/><path class="cls-1" d="M79.84,17.77v-.26C79.77,17.55,79.85,17.61,79.84,17.77Z"/><polygon class="cls-1" points="79.01 19.09 79.09 19.25 79.13 19.02 79.01 19.09"/><polygon class="cls-1" points="78.52 17.27 78.55 17.23 78.42 17.32 78.52 17.27"/><path class="cls-1" d="M73.25,17.19l-.41.24C72.9,17.42,73.36,17.15,73.25,17.19Z"/><path class="cls-1" d="M74.25,14.86c.11.06.22,0,.16-.14C74.36,14.79,74.25,14.79,74.25,14.86Z"/><path class="cls-1" d="M79.57,6.06v.15a.36.36,0,0,1,0-.1Z"/><path class="cls-2" d="M37,54a13.13,13.13,0,0,0,.84,2.28A3,3,0,0,0,39,57.53a2.87,2.87,0,0,1-1.11.4,6.72,6.72,0,0,1-1,.1,3.77,3.77,0,0,1-2.08-.72,3.41,3.41,0,0,1-1.21-2l-2-9.91a3,3,0,0,1-1.7-.63v8.94a17.2,17.2,0,0,0,.1,1.95,6.34,6.34,0,0,0,.27,1.24,2.21,2.21,0,0,0,.37.87h-5a3.35,3.35,0,0,0,.36-.87,10.25,10.25,0,0,0,.25-1.24,13.17,13.17,0,0,0,.12-1.95V38.18a13.17,13.17,0,0,0-.12-2A10.48,10.48,0,0,0,26,35a3.41,3.41,0,0,0-.36-.86h5.88a9,9,0,0,1,2.41.3,4.8,4.8,0,0,1,1.87.95A4.32,4.32,0,0,1,37,37a6.53,6.53,0,0,1,.43,2.53,6.08,6.08,0,0,1-1.16,3.86A5.05,5.05,0,0,1,33,45.29a5.47,5.47,0,0,1,.8.47,4.85,4.85,0,0,1,.84.76,5.78,5.78,0,0,1,.77,1.12,6.34,6.34,0,0,1,.55,1.51ZM30.22,43.8a1.2,1.2,0,0,0,.52.51,1.74,1.74,0,0,0,.94.25,1.54,1.54,0,0,0,1.1-.4,2.59,2.59,0,0,0,.68-1.06,5.79,5.79,0,0,0,.33-1.58c.06-.61.09-1.25.09-1.91a7.45,7.45,0,0,0-.28-2.18A4.1,4.1,0,0,0,32.85,36a2.88,2.88,0,0,0-2.2-1h-.8v5.92a1.65,1.65,0,0,1,.6-.37,1.87,1.87,0,0,1,.73-.1,1.66,1.66,0,0,1,.67.22,1.26,1.26,0,0,1,.47.58,1.76,1.76,0,0,0-1,.1,1.91,1.91,0,0,0-.78.58,2.14,2.14,0,0,0-.4.88A1.88,1.88,0,0,0,30.22,43.8Z"/><path class="cls-2" d="M47.68,57.73A3.64,3.64,0,0,0,48,57a8.24,8.24,0,0,0,.15-1A5.31,5.31,0,0,0,48,54.57l-1.56-8.11H43L40.79,56a3.52,3.52,0,0,0-.06.63v.56a5.17,5.17,0,0,0,0,.57H39a3.34,3.34,0,0,0,.3-.53c.08-.18.17-.39.25-.62s.16-.49.24-.78l4.63-20A11.33,11.33,0,0,0,44,34.52l-.21-.4h3.83l2.06,10.57L51.7,55.27a6.14,6.14,0,0,0,.27,1,7.64,7.64,0,0,0,.33.78,4.69,4.69,0,0,0,.37.67ZM46.25,45.39l-1.4-7.15-1.63,7.15Z"/><path class="cls-2" d="M58.15,53.67a17.2,17.2,0,0,0,.1,1.95,6.34,6.34,0,0,0,.27,1.24,2.21,2.21,0,0,0,.37.87h-5a3.35,3.35,0,0,0,.36-.87,8.61,8.61,0,0,0,.25-1.24,13.17,13.17,0,0,0,.12-1.95V38.18a13.17,13.17,0,0,0-.12-2A8.8,8.8,0,0,0,54.26,35a3.41,3.41,0,0,0-.36-.86h5a2.22,2.22,0,0,0-.37.86,6.46,6.46,0,0,0-.27,1.25,17.2,17.2,0,0,0-.1,2V53.67Z"/><path class="cls-2" d="M73.29,34.12a2.8,2.8,0,0,0-.3.6,2.32,2.32,0,0,0-.22.63,3.34,3.34,0,0,0-.08.8V57.73H71.62L62.44,38.24V55.7a3.32,3.32,0,0,0,.09.8,4,4,0,0,0,.18.63,4.2,4.2,0,0,0,.3.6H60.78a4.2,4.2,0,0,0,.3-.6,6.51,6.51,0,0,0,.2-.65,3.15,3.15,0,0,0,.1-.85V37.78A12.41,12.41,0,0,0,61.23,36,9.06,9.06,0,0,0,61,34.92a2.33,2.33,0,0,0-.33-.77h3.66l7.31,15.37V36.21a3.12,3.12,0,0,0-.1-.84,4.25,4.25,0,0,0-.2-.65c-.09-.22-.17-.42-.26-.6Z"/><path class="cls-2" d="M79.44,53.67a15.14,15.14,0,0,0,.1,1.95,5.75,5.75,0,0,0,.26,1.24,2.21,2.21,0,0,0,.37.87h-5a3.32,3.32,0,0,0,.37-.87,10.55,10.55,0,0,0,.24-1.24,13.17,13.17,0,0,0,.12-1.95V38.18a13.17,13.17,0,0,0-.12-2A10.78,10.78,0,0,0,75.55,35a3.38,3.38,0,0,0-.37-.86h5a2.22,2.22,0,0,0-.37.86,5.86,5.86,0,0,0-.26,1.25,15.14,15.14,0,0,0-.1,2V53.67Z"/><path class="cls-2" d="M93.1,57.73H81.86a3,3,0,0,0,.37-.87,10.25,10.25,0,0,0,.25-1.24,13.17,13.17,0,0,0,.12-1.95V38.18a13.17,13.17,0,0,0-.12-2A10.48,10.48,0,0,0,82.23,35a3.06,3.06,0,0,0-.37-.86H92.77l-.3,3.29h-.76c-.11-.44-.22-.82-.33-1.13a2,2,0,0,0-.5-.77,2.24,2.24,0,0,0-1-.43A9,9,0,0,0,88.15,35h-2v7.22a13.94,13.94,0,0,0,1.83,0c.55-.05,1-.09,1.43-.14a10.09,10.09,0,0,0,1.23-.23,2.9,2.9,0,0,1,0,.43,3.35,3.35,0,0,1-.16.93,1,1,0,0,1-.73.65,2.07,2.07,0,0,1-1.13,0l-2.5-.7V55.47a1.35,1.35,0,0,0,.38.9,1.68,1.68,0,0,0,.62.38,3,3,0,0,0,1,.15h1.16a2.43,2.43,0,0,0,1.23-.28,2.21,2.21,0,0,0,.75-.77,4.14,4.14,0,0,0,.43-1.06c.1-.39.21-.79.32-1.18h.77Z"/><path class="cls-2" d="M135.6,34.12a9,9,0,0,1,2.41.3,4.94,4.94,0,0,1,1.87.95,4.24,4.24,0,0,1,1.21,1.69,6.56,6.56,0,0,1,.43,2.51A5.92,5.92,0,0,1,140,43.83a5.48,5.48,0,0,1-4.17,1.56,3,3,0,0,1-1.05-.18,3.07,3.07,0,0,1-.85-.48v8.94a17.2,17.2,0,0,0,.1,1.95,6.34,6.34,0,0,0,.27,1.24,2.37,2.37,0,0,0,.36.87h-5a3,3,0,0,0,.37-.87,10.25,10.25,0,0,0,.25-1.24,13.17,13.17,0,0,0,.12-1.95V38.18a13.17,13.17,0,0,0-.12-2,10.48,10.48,0,0,0-.25-1.25,3.06,3.06,0,0,0-.37-.86Zm.23,10.44a1.54,1.54,0,0,0,1.1-.4,2.58,2.58,0,0,0,.67-1.06,6.7,6.7,0,0,0,.31-1.58c.06-.61.09-1.25.09-1.91a7.21,7.21,0,0,0-.29-2.17A3.84,3.84,0,0,0,137,36a2.89,2.89,0,0,0-1-.8,2.84,2.84,0,0,0-1.15-.25H134v5.92a1.65,1.65,0,0,1,.6-.37,1.84,1.84,0,0,1,.73-.1,1.5,1.5,0,0,1,.68.24,1.09,1.09,0,0,1,.45.56,1.74,1.74,0,0,0-1,.1,1.91,1.91,0,0,0-.78.58,2,2,0,0,0-.4.88,1.88,1.88,0,0,0,.1,1,1.17,1.17,0,0,0,.51.51A1.86,1.86,0,0,0,135.83,44.56Z"/><path class="cls-2" d="M149.24,57.73a3.64,3.64,0,0,0,.3-.77,8.24,8.24,0,0,0,.15-1,5.31,5.31,0,0,0-.12-1.41L148,46.46h-3.46L142.35,56a3.52,3.52,0,0,0-.06.63v.56a5.17,5.17,0,0,0,0,.57h-1.8a3.34,3.34,0,0,0,.3-.53,5.32,5.32,0,0,0,.25-.62c.08-.23.16-.49.25-.78l4.62-20a9.54,9.54,0,0,0-.43-1.26l-.2-.4h3.83l2.06,10.57,2.06,10.58a5.28,5.28,0,0,0,.27,1,7.64,7.64,0,0,0,.33.78,4.67,4.67,0,0,0,.36.67Zm-1.43-12.34-1.4-7.15-1.63,7.15Z"/><path class="cls-2" d="M168.09,34.12a4.2,4.2,0,0,0-.3.6,2.32,2.32,0,0,0-.21.63,3.32,3.32,0,0,0-.09.8V57.73h-1.06l-9.18-19.49V55.7a3.94,3.94,0,0,0,.08.8,5.35,5.35,0,0,0,.19.63,4.2,4.2,0,0,0,.3.6h-2.23a4.2,4.2,0,0,0,.3-.6c.06-.18.13-.39.2-.65a3.6,3.6,0,0,0,.1-.85V37.78A16.38,16.38,0,0,0,156,36a9.06,9.06,0,0,0-.25-1.11,2.33,2.33,0,0,0-.33-.77h3.65l7.32,15.37V36.21a3.12,3.12,0,0,0-.1-.84,5.78,5.78,0,0,0-.2-.65q-.13-.33-.27-.6Z"/><path class="cls-2" d="M181.86,57.73a4.48,4.48,0,0,1-1.53-.18,3.62,3.62,0,0,1-.77-.45,6.34,6.34,0,0,1-1.52.68,6.17,6.17,0,0,1-1.8.25,6.37,6.37,0,0,1-2.31-.4,5.75,5.75,0,0,1-1.8-1.08A5.15,5.15,0,0,1,171,55a4.47,4.47,0,0,1-.43-1.94V38.84a5.18,5.18,0,0,1,.38-2,4.4,4.4,0,0,1,1.13-1.6,5.59,5.59,0,0,1,1.88-1.06,7.78,7.78,0,0,1,2.63-.4,6.76,6.76,0,0,1,2.74.48,4.71,4.71,0,0,1,1.7,1.2,4.09,4.09,0,0,1,.85,1.53,5.57,5.57,0,0,1,.23,1.48,4.38,4.38,0,0,1-.33,1.78,3.87,3.87,0,0,1-.84,1.23,3.16,3.16,0,0,1-1.09.71,3.06,3.06,0,0,1-1.13.24,3.63,3.63,0,0,1-2.41-.74,2.06,2.06,0,0,1-.88-1.59,2.59,2.59,0,0,0,1.11.16,3.38,3.38,0,0,0,1.1-.24,3.27,3.27,0,0,0,.91-.6,2.38,2.38,0,0,0,.6-.88,3.27,3.27,0,0,0,.18-1.1,3.09,3.09,0,0,0-.25-1.31,2.77,2.77,0,0,0-3.67-1.25,2.29,2.29,0,0,0-.78.66,2.38,2.38,0,0,0-.42.86,3.39,3.39,0,0,0-.12.83V54.54a4.44,4.44,0,0,0,.1.83,3,3,0,0,0,.35.87,2.41,2.41,0,0,0,.67.68,1.94,1.94,0,0,0,1.08.28,1.91,1.91,0,0,0,1-.27,2,2,0,0,0,.65-.66,2.61,2.61,0,0,0,.31-.86,4.54,4.54,0,0,0,.08-.87V49.2a18.35,18.35,0,0,0-.13-1.93A9.21,9.21,0,0,0,178,46a2.22,2.22,0,0,0-.37-.86h4.26Z"/><path class="cls-2" d="M190.27,33.82a6.1,6.1,0,0,1,2.26.4,5.41,5.41,0,0,1,1.78,1.08,4.54,4.54,0,0,1,1.15,1.6,4.68,4.68,0,0,1,.4,1.94V53a4.7,4.7,0,0,1-.43,2,5,5,0,0,1-1.18,1.58,6.06,6.06,0,0,1-4,1.46,6.28,6.28,0,0,1-2.28-.4,6.08,6.08,0,0,1-1.81-1.06A4.88,4.88,0,0,1,185,55a4.55,4.55,0,0,1-.43-2V38.84A4.29,4.29,0,0,1,185,36.9a5,5,0,0,1,1.23-1.6A5.75,5.75,0,0,1,188,34.22,6.14,6.14,0,0,1,190.27,33.82Zm2.06,4.92a1.9,1.9,0,0,1-1.13.4,3.18,3.18,0,0,1-1.14-.28,1,1,0,0,1-.59-.92,2,2,0,0,0,1.07.17,1.94,1.94,0,0,0,.91-.36A1.76,1.76,0,0,0,192,37a1.91,1.91,0,0,0,0-1.09V35.8a2.86,2.86,0,0,0-.63-.8,1.76,1.76,0,0,0-1.17-.35,2,2,0,0,0-1.08.27,2.14,2.14,0,0,0-.68.66,2.52,2.52,0,0,0-.37.86,4.65,4.65,0,0,0-.1.87v17.3a4.54,4.54,0,0,0,.1.83,2.83,2.83,0,0,0,.35.86,2.28,2.28,0,0,0,.67.68,2.24,2.24,0,0,0,2.13,0,2.08,2.08,0,0,0,.65-.67,2.53,2.53,0,0,0,.31-.86,4.54,4.54,0,0,0,.08-.87Z"/><path class="cls-2" d="M209.36,57.73H198.12a3.32,3.32,0,0,0,.37-.87,10.25,10.25,0,0,0,.25-1.24,14.91,14.91,0,0,0,.11-1.95V38.18a14.91,14.91,0,0,0-.11-2,10.48,10.48,0,0,0-.25-1.25,3.38,3.38,0,0,0-.37-.86h5a2.22,2.22,0,0,0-.37.86,5.86,5.86,0,0,0-.26,1.25,15.14,15.14,0,0,0-.1,2V55.47a1.46,1.46,0,0,0,.08.41,1.51,1.51,0,0,0,.3.49,1.6,1.6,0,0,0,.62.38,2.91,2.91,0,0,0,1,.15h1.16a2.43,2.43,0,0,0,1.23-.28,2.24,2.24,0,0,0,.75-.75,4.16,4.16,0,0,0,.45-1l.33-1.18h.77Z"/><path class="cls-2" d="M215.28,53.67a15.14,15.14,0,0,0,.1,1.95,6.34,6.34,0,0,0,.27,1.24,2.21,2.21,0,0,0,.36.87h-5a3,3,0,0,0,.37-.87,10.25,10.25,0,0,0,.25-1.24,13.17,13.17,0,0,0,.12-1.95V38.18a13.17,13.17,0,0,0-.12-2,10.48,10.48,0,0,0-.25-1.25,3.06,3.06,0,0,0-.37-.86h5a2.23,2.23,0,0,0-.36.86,6.46,6.46,0,0,0-.27,1.25,15.14,15.14,0,0,0-.1,2V53.67Z"/><path class="cls-2" d="M230.41,34.12a4.2,4.2,0,0,0-.3.6,2.32,2.32,0,0,0-.21.63,3.32,3.32,0,0,0-.09.8V57.73h-1.06l-9.18-19.49V55.7a3.94,3.94,0,0,0,.08.8,5.35,5.35,0,0,0,.19.63,3.34,3.34,0,0,0,.29.6h-2.22a4.2,4.2,0,0,0,.3-.6c.06-.18.13-.39.2-.65a3.6,3.6,0,0,0,.1-.85V37.78a16.38,16.38,0,0,0-.15-1.75,9.06,9.06,0,0,0-.25-1.11,2.13,2.13,0,0,0-.34-.77h3.66l7.32,15.37V36.21a3.58,3.58,0,0,0-.1-.84,5.78,5.78,0,0,0-.2-.65q-.13-.33-.27-.6Z"/><path class="cls-2" d="M109,41.21l-.13,1.4h-.32c0-.18-.1-.34-.14-.47a.7.7,0,0,0-.2-.32.88.88,0,0,0-.4-.19,3,3,0,0,0-.7-.07v7.92c0,.33,0,.61,0,.83a2.36,2.36,0,0,0,.12.52.92.92,0,0,0,.15.37h-2.11a1.38,1.38,0,0,0,.16-.37c0-.13.07-.3.1-.52a6.25,6.25,0,0,0,.05-.83V41.56a3.08,3.08,0,0,0-.7.07.88.88,0,0,0-.4.19.7.7,0,0,0-.2.32c0,.13-.09.29-.13.47h-.33l-.13-1.4Z"/><path class="cls-2" d="M115.13,49.48c0,.33,0,.61,0,.83a2.36,2.36,0,0,0,.12.52.92.92,0,0,0,.15.37h-2.11a1.31,1.31,0,0,0,.16-.37c0-.13.07-.3.1-.52a6.25,6.25,0,0,0,0-.83h0V45h-2v4.47a6.47,6.47,0,0,0,0,.83,2.44,2.44,0,0,0,.11.52.91.91,0,0,0,.16.37h-2.11a1.74,1.74,0,0,0,.15-.37,5,5,0,0,0,.11-.52,6.25,6.25,0,0,0,0-.83V42.93a6.09,6.09,0,0,0,0-.82,5.26,5.26,0,0,0-.11-.53,2,2,0,0,0-.15-.37h2.11a1.12,1.12,0,0,0-.16.38,2.55,2.55,0,0,0-.11.53,6.24,6.24,0,0,0,0,.81v1.63h2V42.93a6.09,6.09,0,0,0,0-.82c0-.22-.07-.4-.1-.53a1.45,1.45,0,0,0-.16-.37h2.11a1.44,1.44,0,0,0-.15.38,3.54,3.54,0,0,0-.11.52,6.09,6.09,0,0,0-.05.82v6.54Z"/><path class="cls-2" d="M120.91,51.2h-4.75a1.34,1.34,0,0,0,.15-.37,3.27,3.27,0,0,0,.11-.52,6.25,6.25,0,0,0,0-.83V42.93a6.09,6.09,0,0,0,0-.82,3.43,3.43,0,0,0-.11-.53,1.48,1.48,0,0,0-.15-.37h4.61l-.12,1.4h-.33a3.14,3.14,0,0,0-.14-.48.93.93,0,0,0-.21-.33.92.92,0,0,0-.41-.18,3.53,3.53,0,0,0-.74-.06H118v3.06a4.94,4.94,0,0,0,.77,0l.61-.06c.19,0,.37-.06.52-.1a1.09,1.09,0,0,1,0,.18,1.35,1.35,0,0,1-.07.4.41.41,0,0,1-.31.27.87.87,0,0,1-.48,0L118,45v5.24a.67.67,0,0,0,0,.17.63.63,0,0,0,.13.2.73.73,0,0,0,.26.17,1.33,1.33,0,0,0,.44.06h.49a.89.89,0,0,0,.84-.44,1.77,1.77,0,0,0,.18-.45c0-.17.09-.34.13-.5h.33Z"/><rect class="cls-2" x="103.27" y="38.31" width="18.22" height="0.6"/><rect class="cls-2" x="103.27" y="53.13" width="18.22" height="0.6"/></svg>