<svg id="Layer_1" data-name="Layer 1" xmlns="http://www.w3.org/2000/svg" viewBox="0 0 246 80"><defs><style>.cls-1{fill:#f4ae00;}.cls-2{fill:#110a1a;}</style></defs><title>pangolin-buttons</title><rect class="cls-1" x="7.91" y="10.5" width="228.49" height="58"/><path class="cls-1" d="M235.86,68.5c.07.36.23.15.2-.83l-.27-.69Z"/><path class="cls-1" d="M236.36,61.9c-.13-1.15-.36-2.48-.61-1.73.26,1.14.15,1.42.46,2.64,0,1-.09,1.72-.19,1.55a15.43,15.43,0,0,0,.11,2,18.17,18.17,0,0,0,.05-4.58C236.24,61.47,236.31,61.82,236.36,61.9Z"/><path class="cls-1" d="M200.12,10l.5,0A2.41,2.41,0,0,0,200.12,10Z"/><path class="cls-1" d="M151.65,9.85c.37,0,.52,0,.54-.07C151.85,9.81,151.57,9.83,151.65,9.85Z"/><path class="cls-1" d="M143.37,9.49l.49,0A1.39,1.39,0,0,0,143.37,9.49Z"/><path class="cls-1" d="M200.12,10l-1.3-.11C198.73,10,199.49,10,200.12,10Z"/><path class="cls-1" d="M235.71,48.68c0,.34,0,.61.07.87,0-.28,0-.54,0-.81C235.74,48.72,235.72,48.71,235.71,48.68Z"/><path class="cls-1" d="M221.49,9.77h.39a3.27,3.27,0,0,0,.33-.14Z"/><path class="cls-1" d="M237,12.32a1.49,1.49,0,0,0-.12-.62,2.11,2.11,0,0,0-.2-.31,4.73,4.73,0,0,1,.16,1.13S237,12.47,237,12.32Z"/><path class="cls-1" d="M236.64,44.18l0,.57Z"/><path class="cls-1" d="M209.75,9.71a.33.33,0,0,0-.15-.1S209.66,9.68,209.75,9.71Z"/><path class="cls-1" d="M217.39,67.18s0,0,0,0S217.52,67.18,217.39,67.18Z"/><path class="cls-1" d="M236.4,68.57l-.26,0a.31.31,0,0,0-.06.16Z"/><path class="cls-1" d="M128.23,9.13h.07C128.69,9.1,128.47,9.11,128.23,9.13Z"/><path class="cls-1" d="M7,33.44c.2-1.93.26,3.14.49.24C7.37,34,7.1,31,7,33.44Z"/><path class="cls-1" d="M235.74,48.16v-.82C235.73,47.71,235.73,48,235.74,48.16Z"/><path class="cls-1" d="M7.46,33.68h0l0-.3Z"/><path class="cls-1" d="M93.33,9.3a1.07,1.07,0,0,0,.36.12S93.6,9.36,93.33,9.3Z"/><path class="cls-1" d="M119.33,9.7l-.64,0A5.33,5.33,0,0,0,119.33,9.7Z"/><path class="cls-1" d="M79.84,9.7a4.66,4.66,0,0,0-1,0l.14,0A2.28,2.28,0,0,1,79.84,9.7Z"/><path class="cls-1" d="M65.79,9.7l.25.05h.45Z"/><path class="cls-1" d="M174.7,67.32a2.2,2.2,0,0,1,.65.25C175.13,67.37,177.19,67.3,174.7,67.32Z"/><path class="cls-1" d="M235.84,48.67a1.06,1.06,0,0,1-.1-.51v.58S235.82,48.8,235.84,48.67Z"/><path class="cls-1" d="M79.26,11.91l-2.23,0C77.66,11.9,78.47,11.91,79.26,11.91Z"/><path class="cls-1" d="M73.91,67.36l.51,0A1.91,1.91,0,0,0,73.91,67.36Z"/><path class="cls-1" d="M70.41,11.91a8.3,8.3,0,0,0-1.26-.19,1.38,1.38,0,0,0-.26.07Z"/><path class="cls-1" d="M175.35,67.57Z"/><path class="cls-1" d="M190.05,66.9c-2.12,0-1,.37-1.45.58-2.54.1-1.17-.27-2-.46-1.58.09-2.8.43-4,.42-.09-.06-.32-.08-.05-.16-1.67.29-5,0-6.92.38a.65.65,0,0,1-.26-.09c.32.19.37.37.3.51-1,0-1.77.23-2.13,0a1.86,1.86,0,0,0,.91-.17l-1,.11c-.9-.35,1.36-.12,1.36-.38a55.27,55.27,0,0,1-5.71.3c-.31-.34,3.49-.11,1.5-.41l2.31.13c-1.76-.54,1.4,0-.22-.54-3-.1-3.4.18-6.43.08-.68.18.23.28-.46.46-4.31.34-3.39-.85-6.56-.4a5.71,5.71,0,0,1-3.39.43l.77-.38c-2.95,0-1.68.55-4.77.29.55-.15,2.32-.13,1.87-.17-2-.31-1.41.22-2.94.22l-.32-.34c-3.14,0-6.59.29-10.06.36.19-.1.79-.21,0-.31-4.38.17-9.35,0-13.57-.25l-1.61.3c-.38,0-.7-.14-.29-.19-1.65-.12-.09.18-.88.3s-1.23-.17-.64-.26a74.81,74.81,0,0,1-11.33.22l.6-.08c-2.38-.12-2.69.6-4.9.32l.42,0c-5.17-.13-10.88.14-14.82-.3-.75.42-5.12-.19-5.45.4a60.87,60.87,0,0,0-6.27-.59c-1.11,0-1.65.37-3,.43l0-.31-1.86.32-1-.37-1.29.08c.51,0,1.09.14,1,.23a17.36,17.36,0,0,1-5-.37l-4.76.26a5.68,5.68,0,0,1,1.53-.25c-2.54.32-.46-.32-2.79,0,.32.07-.16.18-.22.24a38.33,38.33,0,0,0-5.75-.11l.37-.21c-3.53,0-7.44.1-11.4.1,1.42.1,1.1.46-.07.5l-.46-.33c-.75.21,1.21.13-.33.37-1.48,0-1-.37-.14-.47l-1.8.11c-.11-.1.32-.15.42-.27-.73.2-3.1-.33-4.17,0l-.1-.09c-4,0-5.75.1-9,.12-.06.28-1.32.22-2.28.45-2.37-.09-5-.31-7.86-.29-2,.14-.59.24-1.49.41-.15-.26-3-.24-1.52-.42-3.43,0-4.38,0-8.71.26.47.1,1,.15.72.24a6.27,6.27,0,0,1-1.17-.06c-.4,0-.39-.11-.38-.17l.09,0-.58.07V66.32l0-2.26c.06-1.51.12-3,.17-4.53a63.57,63.57,0,0,0,0-7.94l0,.27-.23-4.93c0-2.26.16,1.36.29-.31-.35-5.32,0-8.4-.18-12.77.62-3.39,0-12,.35-16.59L9,17.53a9.45,9.45,0,0,1,.12-2.3c-.11.12-.13,1.28-.21.55,0-1.36,0-2.74,0-4.14l4.26.06,5.24.13,10.48.29c3.07.05,1.74-.92,5.6-.5L33.34,12C39.51,11.56,46,12,52,11.63a2.42,2.42,0,0,1-1,.17,14.89,14.89,0,0,0,4.74-.18c1,0,.22.18.8.28,1.28.14,3.22-.31,3.9-.07.12,0-.36.08-.59.1.83-.12,3.89,0,3.09-.25,2.27.13,4.34-.13,6.15,0,1.18-.31,3.89.15,4.26-.29-.16.45,4,.36,5.42.15-.48.14,1.25.14.68.33,1.64,0,3.14-.09,2.86-.32,3,.54,6.06-.44,7.76.26,4.87-.24,9.37-.41,13.75-.52-.16.46-4.84.05-4.65.52,4.15-.18,6.55-.57,10.66-.46,1.07.06-.6.19-1,.27,4.15-.18,8,0,11.71-.2a2.86,2.86,0,0,1-.78.12c.72,0,1.69.07,1.61-.14l-.71.06c-1.17-.3,2.89-.63,3-.78-1.24.59,3.64.15,1.68.89.48,0,1.08-.14,1-.28.71,0,.94.12.22.28,2.6-.11,1.68-.33,4-.32,0,.1-.49.13-.73.25a19,19,0,0,1,4.39-.3c-.12.06.11.13-.48.13,3.42,0,5.84-.51,9.6-.33-1.11.44,1.27.15,1.47.52l2-.11-.81-.18c1.77,0,3.34-.27,4.86-.15l-1.31.16,3.31-.07-1.87-.14c1.79-.2-.2-.48,2.16-.37-.48,0,1.77,0,2.69.22h0a13.64,13.64,0,0,1,3.08-.15c.34.12-.27.41,0,.49.87-.31,4.15-.08,5.24-.42-.36.08-.38.28-.26.32l.72-.25c.83.08.95.12.81.27,2.47.05-.78-.47,2.15-.27a5.23,5.23,0,0,1-.6.1c2.94.11,5.68-.16,8.38,0,.8.38-2.36.1-1.45.41,3.9-.07,8.07-.45,11.84-.36l-.7,0c.52-.53,2.81.26,4.71,0-.46,0-.61.3-.48.24,2.58.08,5.28-.13,9.19-.3l-.48.14c1.52.12,4,.07,5.65.13.49-.14,1.43-.12.85-.31,5.07.77,9.67-.42,14.17.23-.54,0-1.28.11-.85.12l3.83-.13c-.31-.23-.51-.14-1.31-.32a11.4,11.4,0,0,1,2.51-.24c-1.72.15,0,.37.76.5-.12-.07.13-.15.07-.22,2,.41.34-.47,3.07-.19l-.15.12c1-.06,2-.22,3.07-.19.46.27-1.09.13-1.16.35,1.55,0,3.06-.51,4.46-.24-.66.07-1.6.07-2.26.15a12.16,12.16,0,0,0,2.84.28h-.12l1.32.07.47,0,.35,0-.34-.08a2.57,2.57,0,0,1,.74-.24,7.13,7.13,0,0,1,.1,1.15c0,.51,0,1.07,0,1.63a28.34,28.34,0,0,0,.16,3.7c-.35-3.11-.2-.51-.45-.75-.07.82-.15,2.06-.22,1.71.2,1.51-.15,2.52.14,4.65-.08.1,0,1.62-.21,1.28.06,2,.14-.46.24-.3.27,3-.33,7.12,0,11.48.16,3.76.42,4.46.56,7.94-.13,1.18-.29-1-.29-1a41.68,41.68,0,0,0,0,5.12c-.07-.36-.12,0-.21.56A16.06,16.06,0,0,1,236.1,51a8.83,8.83,0,0,1-.32-1.43c.07,1.69.22,3.36.29,5.11-.14.47-.21-1.06-.3-1.67a43.56,43.56,0,0,0,.35,5.71l.07-1.27c0,.72-.18.37-.22-.16a4.87,4.87,0,0,1,.15-2.53l0,1.25c.47-1.28-.07-5,0-7.52l.33,1-.28-2.57c.09-.55.28-.92.33.32.17-1.8-.12-1.6.07-3.15,0-.17,0-.09.06.07l-.1-1.76c.07.34.24-.29.19.79.19-3.16-.26-5.09,0-6.28l0,.26c-.11-4.38-.25-.42-.54-3.71l.61-2.21-.25-.43c0-.45,0-1.35.13-1.18-.17-1.69-.11.28-.27-.69.23-2.18-.1-6,.29-6.49-.19-.78-.14,2.08-.27-.24.42-.67-.08-2.69.12-4.68.22.61.1,2.5.3.51-.37-1.2.08-3.87,0-5.55-.07,0-.12-.19-.14-.63s0-1-.05-1.75h-2c-.63,0-1.28,0-1.88,0,.15-.12-4.32-.2-6.46-.33l.07-.06c-.42.36-2.62.29-4.22.37.06-.22.35-.31,1.22-.4h-1.51a6.74,6.74,0,0,1-1.8.22l.37-.28a65.53,65.53,0,0,1-6.62.14c-.14.26,2,.72-.68.89-.1-.14-.2-.38.52-.43a6.37,6.37,0,0,1-1.31,0l1.09-.23c-1.18-.1-.61.19-1.55.17,0-.19-.7-.14-.57-.29a7.7,7.7,0,0,0,1.18,0,14,14,0,0,1-2.76-.3c.09.11,0,.26-.78.29-2,0-.68-.24-1.85-.34-.49.14-1.77,0-1.8.29a1.8,1.8,0,0,1-.93-.22c-1,.13-4.85,0-3.68.35l.27,0-.17,0h0c-3.41.29-7.07-.17-10.45,0V10c-2,.11-4.49.06-5.93.28-.59,0-1.4-.19-1.15-.3a21.83,21.83,0,0,1-3.94,0c1.55-.17-.53-.15,1.59-.13a20.35,20.35,0,0,0-4.61,0c.73-.25-1.51-.32-2.46-.24l1.41.18c-1.07,0-2,0-3,0l.51-.33c-4.1-.41-7.39.69-10.51,0-1.08.23,2.23.16,1.26.44-1.89,0-3.85-.53-4.44-.53-2.59-.18-2.41.49-5.11.36.34.12.67.44-1.35.55-1.89,0-2.32-.5-1.13-.59.45,0,.67,0,.65.06.61,0,1.41-.09.66-.22l-.24.12c-.94-.12-3.53-.11-2.92-.3-1.43.11-.61.19.44.25-2.42-.17-3.78,0-6.27-.12.4.07.76.21.37.21-3.66-.15-1.61.22-4.09.27-1.4-.18.51-.43-2-.28-1.53-.12-.33-.31.28-.41a33.28,33.28,0,0,1-5.54-.19l1.2-.1c-.72.06-1.3.06-1.9.06l.68.24c-.7-.05-1.3-.05-1.28-.15-.73.16.55.4-.88.61-.94-.12-2.85.13-3.18-.18,3,.1-.32-.32,2.17-.37a13.16,13.16,0,0,1-1.77,0c-.11,0,.1-.06.29-.08-2.82-.28-1.3.36-4.22.35.38-.18-.67-.34-1.15-.3,1.18,0,.56.3-.52.43a18.4,18.4,0,0,0-3,.09l1.12.06a10.62,10.62,0,0,1-2.62.21c-.11-.13,1.18-.09.72-.15-1.45.31-3.28-.33-5.3-.12-.93-.12-.09-.33-.91-.41-2.26.23-2.45-.24-4.83,0,.68.24.8.18-.87.41l3.91-.17L108,9.83c1.18,0,2.49-.15,3.2-.11-1.2.19-1.07.13-.51.33-1.61-.36-3.2.21-5.07,0l.06-.59c-2.81-.26-5,.3-8.64.15l1.17.11a23.43,23.43,0,0,1-3.43.12c.11-.19-.63-.27-1.13-.39.06.15-2.67,0-3,.38l-1.63-.26c-2.94-.1-3.36.57-6.19.5.85-.22-.43-.36,1.46-.51-.94,0-1.79,0-1.81.1-.55-.12-2.62.26-3.49.08a3.75,3.75,0,0,1-1.59.27c-.11,0,0-.09,0-.09s-1.66.13-.73.35c-2.92-.62-8.14,0-10.68-.49-2.06.07-4.54.13-6.41.15.12-.06,0-.1.36-.08-2.59-.18-1.59.57-4.53.36C54,9.86,57,10,56.08,9.89c-.4-.65-3.54.09-5.52-.29l.48,0c-1.51-.22-3.69.25-6.16.2,0,0,.12-.06,0-.1a60.94,60.94,0,0,1-7.27.53c.74-.25,1.08-.13.63-.39-1.06,0,.31.42-1.81.49-.69-.14-2.23-.26-2.43-.54h2c-1-.36-2.59,0-3.65-.05l.14-.16c-3.08.05-3.12.44-6.42.42l.34.11c-1.81.39-1.51-.21-3.31.08l-.55-.4c-1.19.1-4.17.38-6.31.46,1.21-.3,3.71-.45,5.26-.62a32.88,32.88,0,0,0-4.63.22,9,9,0,0,1,1.55-.07,28.39,28.39,0,0,1-5.71.46c.14-.25-.47-.36-1.41-.41-.47,0-1,0-1.61,0l-2.45,0c0,.58,0,1.14,0,1.68l0,.78,0,.5A10.09,10.09,0,0,1,7,14.21c.23,5.1-.1,10.11-.07,16.05.49-2.1,0,1.74.52,1.37a16.4,16.4,0,0,1,0,2l-.3,4.19c-.14,1-.11-1.31-.22-1.19,0,3-.21,1.28-.35,3.28.18-.41.26,1,.19,2.78L7,40.3c.27,4.23-.42,3.66-.15,7.93L6.7,46.88c.09,2.19,0,8.08.4,10.23-.06.38-.2.89-.23-.07,0,1.82,0,3.79.08,5.75L7,65.71c0,.53,0,1.06,0,1.57,0,.75,0,1.49,0,2.21H9.76c.58,0,1.13,0,1.63.08l-.32.15a9.41,9.41,0,0,1,2.38-.13c0,.06-.32.15.05.16a19,19,0,0,1,3.17-.17l-.9.16c4.17.2,6.4-.41,9.89-.51,0,.44,3.27.59,4.91.66l-.06.06c4.85,0,8.24-.37,12.73-.54,2.79.48,9.45.2,13.93.47-.68-.08.11-.34.91-.39,1.05.09,2.91-.3,2.74.1h-.37c.79.4,2.95.29,4.64.3l.28-.52c4.41.76,11.56-.29,14,.4,1.07-.13,2.39-.13,3.44-.26l0,.28c3,.07,4.42.11,8.07,0l-.74.21c2.06,0,2.6-.82,4.5-.84l.57.42c3.59,0,7.22.37,10.77,0-.06.06-.16.18-.75.2,1.69,0,6.54.28,5.93-.3,0,.38,3.7,0,5.64-.13l-.3.28a15.83,15.83,0,0,1,4-.55c.55,0,.48.22-.24.15,1.8.15,1.41-.26,3.59-.11l-.81.17a7.42,7.42,0,0,0,2.73-.28,10.66,10.66,0,0,1,3.8.33,5.37,5.37,0,0,1,2.36-.29c.15.09-.25.15-.45.18,3.1.19,4.61-.32,6.75,0,0,.09.18.14.36.17-2.47,0-4.45,0-4.27,0,0,.25,2,.3.41.65a39.43,39.43,0,0,1,6.28-.49.92.92,0,0,1,.25.09l-.2,0a8.11,8.11,0,0,0,1.23,0c.62,0,1,.07,1.61.07a15.17,15.17,0,0,0,3.28.13c-.08-.28,1.22-.24,0-.47.16,0-.19,0-.85,0l-.42,0,.06,0-2.47,0a7.62,7.62,0,0,1,2.71-.11c.51-.18,1.07-.37,1.39-.45,1.36.39,4,.6,4.34.84,3-.15,7.15-.1,9-.63a2.21,2.21,0,0,1,1.32.24,12.22,12.22,0,0,0-1.36.12c1.72-.14,5.11-.06,5.52-.43,2.17.17-1.22.34,1.77.28l-.41.12c5.88.59,9.56-1,16.07-.19A2.28,2.28,0,0,1,183,69c7.43.34,15.31-.31,22.63.22a12,12,0,0,0,3.58-.31l.46.3,2.17-.35c3.08-.25,5.34.74,9.24.26l-.5-.2c1.4,0,4.44-.12,4.2.11a1.81,1.81,0,0,1,1-.1l0,.16,3.44-.28c2.67.12-.41.63,3.48.66,1.45-.06,4.12-.46,3.58-.56s-1.49-.1-1.54-.26l1.33-.08c.24-.47,1.26-.94-2-1.27l-2.27.28-.73-.22,1.91,0a6.12,6.12,0,0,0-2.54.11,2.3,2.3,0,0,0-1-.25l-2.22.45c-.27-.19,1-.37-.49-.47-1.05.21,1,.41-.73.55-1.08-.21-.77-.39-2-.21-.18-.12.09-.19.6-.24a29,29,0,0,0-3.58.3c-1.13-.26-3.83.07-3.71-.37a17,17,0,0,1-3,.36c1.9-.52-3.89,0-3.39-.59-1.4.47-5.08.21-7.57.47a2,2,0,0,1,.64-.09,24.19,24.19,0,0,1-2.71-.27c-.18.39-2.37.48-3.54.72-1.72-.37,1-.46.5-.82.09.32-3,.32-2.4.58-1.31-.23-1.13-.11-1.81-.44-.23.49-1.22.09-2.31.39-1.9-.24-.49-.46-2.58-.31C188.2,67.08,190.05,66.9,190.05,66.9Zm-49.67.85h0l1,0Zm-4.18,0H138c.15.09,0,.19-.43.19C137.81,67.89,136.82,67.84,136.2,67.76ZM145,69.7c-.66,0-.88,0-1-.07l1.15,0,.08,0A.49.49,0,0,1,145,69.7Z"/><path class="cls-1" d="M146.22,69.33l.27,0-.39-.06-.24.09Z"/><path class="cls-1" d="M200.71,10.08h-.09l.19,0Z"/><polygon class="cls-1" points="78.56 67.22 78.56 67.29 78.93 67.23 78.56 67.22"/><path class="cls-1" d="M223.7,11.05a1.08,1.08,0,0,0,.31.07A1,1,0,0,0,223.7,11.05Z"/><path class="cls-1" d="M233.64,11.11l1.4.1C234.43,11.15,234,11.13,233.64,11.11Z"/><path class="cls-1" d="M235.79,16.47a.37.37,0,0,0,.1.18v0Z"/><path class="cls-1" d="M119.86,11.58h-.3C118.87,11.65,119.34,11.63,119.86,11.58Z"/><path class="cls-1" d="M156,10.92l-1.16.14C155.47,11.08,156,11.08,156,10.92Z"/><path class="cls-1" d="M79.51,11.92h0Z"/><path class="cls-1" d="M153.15,11.05a10.53,10.53,0,0,0,1.68,0A15.69,15.69,0,0,0,153.15,11.05Z"/><path class="cls-1" d="M235.69,57v.45s0,0,0,.05Z"/><path class="cls-1" d="M235.71,57.53l0,.5A2,2,0,0,0,235.71,57.53Z"/><path class="cls-1" d="M235.8,59.09,235.74,58A4.84,4.84,0,0,0,235.8,59.09Z"/><path class="cls-1" d="M235.79,44.64l-.08-.14C235.73,44.57,235.75,44.62,235.79,44.64Z"/><path class="cls-1" d="M235.77,40.87c0,.9-.18,2.26-.13,3.51l.07.12C235.59,43.91,235.91,41.73,235.77,40.87Z"/><path class="cls-1" d="M236.8,25.16l-.07,3.16c.09-.56.21-1.28.23.15C237.22,24.5,236.76,29.29,236.8,25.16Z"/><path class="cls-1" d="M236.93,15.38c0,1.69.12,0,.17.07C237,14.37,237,14.11,236.93,15.38Z"/><path class="cls-1" d="M182.7,9.86l.14-.26C181.77,9.64,182.83,9.7,182.7,9.86Z"/><polygon class="cls-1" points="171.68 11.18 172.71 11.34 173.21 11.1 171.68 11.18"/><polygon class="cls-1" points="165.16 9.36 165.63 9.32 163.85 9.41 165.16 9.36"/><path class="cls-1" d="M68.28,9.45l.33.31C69.33,9.71,69.48,9.35,68.28,9.45Z"/><path class="cls-1" d="M26.46,9.77a5.59,5.59,0,0,0-2.35-.1C25.05,9.69,26,9.81,26.46,9.77Z"/><polygon class="cls-1" points="67.46 69.74 66.62 69.85 68.21 69.76 67.46 69.74"/><path class="cls-1" d="M2.14,3.53c-.07-.39-.23-.17-.2.89l.27.76Z"/><path class="cls-1" d="M1.63,10.67c.14,1.25.37,2.69.62,1.88C2,11.32,2.09,11,1.78,9.68c0-1.06.09-1.85.19-1.67a18.14,18.14,0,0,0-.11-2.22,21.3,21.3,0,0,0-.05,5C1.75,11.14,1.68,10.76,1.63,10.67Z"/><path class="cls-1" d="M32.82,77l-.55,0A4,4,0,0,0,32.82,77Z"/><path class="cls-1" d="M85.74,77.17c-.41,0-.58,0-.6.07C85.52,77.22,85.83,77.2,85.74,77.17Z"/><path class="cls-1" d="M94.77,77.54l-.53,0A2,2,0,0,0,94.77,77.54Z"/><path class="cls-1" d="M32.82,77l1.41.11C34.33,77,33.51,77,32.82,77Z"/><path class="cls-1" d="M2.29,25c0-.36,0-.66-.07-.94l0,.88Z"/><path class="cls-1" d="M9.49,77.26H9.06a1.92,1.92,0,0,0-.36.14Z"/><path class="cls-1" d="M1,64.37a1.31,1.31,0,0,0,.32.85,3.84,3.84,0,0,1-.16-1.07S1,64.2,1,64.37Z"/><path class="cls-1" d="M1.35,29.86l0-.61Z"/><path class="cls-1" d="M22.3,77.32a.37.37,0,0,0,.16.1S22.4,77.35,22.3,77.32Z"/><path class="cls-1" d="M22.34,4.85s0,0,0,0S22.21,4.85,22.34,4.85Z"/><path class="cls-1" d="M1.59,3.46l.29,0a.31.31,0,0,0,.06-.16Z"/><path class="cls-1" d="M111.31,77.9h-.08C110.8,77.93,111,77.92,111.31,77.9Z"/><path class="cls-1" d="M243.63,51.69c-.21,2.09-.27-3.4-.5-.26C243.22,51.14,243.49,54.29,243.63,51.69Z"/><path class="cls-1" d="M2.26,25.55v.89C2.27,26,2.27,25.76,2.26,25.55Z"/><path class="cls-1" d="M243.13,51.43h0l0,.33Z"/><path class="cls-1" d="M149.41,77.73a1.29,1.29,0,0,0-.39-.12S149.12,77.67,149.41,77.73Z"/><path class="cls-1" d="M121,77.33l.71,0A6.58,6.58,0,0,0,121,77.33Z"/><path class="cls-1" d="M164.14,77.33a6.67,6.67,0,0,0,1,0l-.16,0A2.67,2.67,0,0,1,164.14,77.33Z"/><path class="cls-1" d="M179.48,77.33l-.28-.06-.49,0Z"/><path class="cls-1" d="M69,4.71a2.81,2.81,0,0,1-.71-.25C68.49,4.66,66.24,4.73,69,4.71Z"/><path class="cls-1" d="M2.16,25a1.23,1.23,0,0,1,.1.55v-.62C2.21,24.88,2.18,24.86,2.16,25Z"/><path class="cls-1" d="M164.77,75.12l2.44,0C166.52,75.13,165.64,75.12,164.77,75.12Z"/><path class="cls-1" d="M179,4.67l-.56,0A3.06,3.06,0,0,0,179,4.67Z"/><path class="cls-1" d="M174.44,75.12a11.31,11.31,0,0,0,1.37.19,1.42,1.42,0,0,0,.28-.07Z"/><path class="cls-1" d="M68.25,4.46Z"/><path class="cls-1" d="M52.19,5.12c2.33,0,1.1-.36,1.59-.57,2.77-.1,1.28.27,2.22.46,1.73-.1,3.06-.43,4.35-.42.1.06.35.08.06.16,1.83-.29,5.43,0,7.56-.38a.73.73,0,0,1,.28.09c-.35-.19-.4-.38-.33-.51,1,0,1.93-.23,2.32,0a2.43,2.43,0,0,0-1,.16L70.34,4c1,.35-1.48.12-1.48.38,2.12-.12,4.6-.4,6.23-.31.34.34-3.81.12-1.64.42l-2.52-.13c1.93.54-1.53,0,.24.54,3.32.09,3.71-.18,7-.08.75-.19-.24-.28.5-.47,4.71-.33,3.71.86,7.17.41a6.72,6.72,0,0,1,3.7-.43l-.84.38c3.22,0,1.84-.55,5.2-.29-.6.15-2.52.12-2,.17,2.18.3,1.54-.22,3.22-.22l.35.34c3.42-.05,7.19-.3,11-.36-.21.1-.86.21,0,.31,4.78-.17,10.2,0,14.81.25l1.76-.3c.41,0,.76.14.32.19,1.8.11.09-.18,1-.3,1,0,1.35.17.7.26a89.15,89.15,0,0,1,12.37-.22l-.65.08c2.6.12,2.93-.6,5.35-.32l-.47,0c5.65.12,11.89-.14,16.19.3.82-.42,5.59.19,6-.4,3.22.29,2.3.4,6.84.59,1.21,0,1.81-.37,3.31-.43l0,.31,2-.32,1.08.37,1.41-.08c-.56,0-1.19-.14-1.11-.23a20.23,20.23,0,0,1,5.41.37l5.19-.26a6.61,6.61,0,0,1-1.67.25c2.77-.32.5.32,3,0-.35-.07.18-.18.24-.24a47.33,47.33,0,0,0,6.28.11l-.41.21c3.85,0,8.12-.1,12.45-.1-1.55-.1-1.19-.47.07-.5l.51.32c.82-.2-1.32-.12.36-.37,1.61,0,1.08.38.16.48l2-.11c.11.1-.35.15-.47.27.81-.2,3.39.33,4.56,0l.11.09c4.32,0,6.28-.11,9.8-.12.07-.28,1.45-.22,2.5-.45,2.59.09,5.46.31,8.58.29,2.19-.14.64-.24,1.62-.41.16.26,3.28.24,1.66.42l1.89,0h.32l.2,0,0,.44,0,1.59c0,1.16.07,2.51.12,4.28.08-.62.12-1.33.19-1a5.86,5.86,0,0,1-.19,2.22l0-.27c.32,6.45-.61,14.9-.17,20l0-.29.23,5.34c0,2.45-.16-1.48-.29.34.36,5.75-.05,9.09.19,13.82-.62,3.67,0,13-.36,18l.15-.28a10.49,10.49,0,0,1-.12,2.49c.12-.14.13-1.39.21-.59,0,1.5,0,3,0,4.57L237,75.33l-5.73-.13-11.44-.29c-3.34,0-1.9.92-6.11.5l1.19-.33c-6.74.39-13.79,0-20.4.32a3.11,3.11,0,0,1,1.05-.18,17.7,17.7,0,0,0-5.18.19c-1,0-.24-.18-.87-.28-1.4-.14-3.51.31-4.26.07-.12,0,.4-.08.65-.1-.91.12-4.24,0-3.37.25-2.48-.13-4.74.12-6.72,0-1.29.31-4.24-.15-4.65.29.17-.45-4.35-.37-5.92-.15.53-.14-1.36-.15-.74-.33-1.79,0-3.43.09-3.12.32-3.29-.54-6.62.43-8.48-.26-5.31.24-10.23.41-15,.51.18-.45,5.29,0,5.08-.51-4.53.18-7.15.57-11.64.46-1.17-.06.66-.2,1-.27-4.53.18-8.76,0-12.79.2a3.42,3.42,0,0,1,.86-.12c-.8,0-1.85-.07-1.76.14l.78-.06c1.26.3-3.16.62-3.3.78,1.35-.59-4-.15-1.84-.89-.52,0-1.18.14-1.06.27-.77,0-1-.12-.23-.27-2.85.11-1.84.33-4.42.32,0-.1.53-.13.8-.25a22.76,22.76,0,0,1-4.8.3c.14-.06-.12-.14.53-.13-3.74,0-6.37.51-10.48.32,1.21-.43-1.39-.14-1.61-.51l-2.21.11.89.18c-1.94,0-3.64.27-5.31.14l1.44-.15-3.62.07,2,.14c-2,.2.21.48-2.37.37.53,0-1.93,0-2.94-.22h0a17,17,0,0,1-3.37.15c-.37-.12.3-.42.06-.49-1,.31-4.53.08-5.73.41.4-.07.42-.27.29-.31l-.79.25c-.9-.08-1-.12-.88-.27-2.69,0,.85.47-2.34.27a6.14,6.14,0,0,1,.65-.1c-3.21-.11-6.2.16-9.15,0-.87-.38,2.57-.1,1.58-.41-4.26.06-8.81.45-12.93.36l.77,0c-.57.53-3.07-.26-5.15,0,.51,0,.67-.3.53-.24-2.82-.08-5.76.13-10,.3L35,76c-1.67-.12-4.38-.07-6.18-.13-.53.14-1.55.12-.93.31-5.53-.77-10.56.42-15.47-.23.59,0,1.4-.12.94-.12l-4.19.13c.33.23.55.14,1.43.32a13.6,13.6,0,0,1-2.75.24c1.89-.15,0-.37-.82-.5.13.07-.15.15-.08.22-2.18-.41-.36.47-3.35.19l.16-.12-2.14.17c0-.4,0-.84,0-1.3.19-.49.13.78.22,1A.4.4,0,0,0,2,76.11h-.1c0-.36,0-.71-.07-1.1l-.12-1.43a15.53,15.53,0,0,1,0-2.81c.07.87.07,2.13.13,3A25.06,25.06,0,0,0,2.09,70v.15l.11-3.48-.07.89c-.57-2.57-.1-5.24-.48-8.7.36,3.37.21.55.46.81.07-.88.14-2.23.21-1.84-.2-1.64.16-2.74-.13-5,.08-.1,0-1.75.21-1.38-.07-2.13-.14.5-.24.32-.28-3.28.33-7.71-.05-12.43-.15-4.07-.42-4.82-.56-8.6.13-1.27.3,1,.3,1a51.36,51.36,0,0,0,0-5.55c.07.4.13,0,.22-.6A18.85,18.85,0,0,1,1.9,22.5a10,10,0,0,1,.32,1.55c-.08-1.83-.23-3.64-.3-5.54.14-.5.21,1.15.31,1.82a53.38,53.38,0,0,0-.35-6.19L1.8,15.51c0-.77.19-.4.23.18a5.67,5.67,0,0,1-.16,2.73l-.05-1.35c-.47,1.39.08,5.43.05,8.15l-.34-1.13.28,2.79c-.09.59-.28,1-.33-.35-.17,1.95.12,1.73-.07,3.4,0,.19,0,.1-.06-.07l.1,1.91c-.07-.37-.24.32-.19-.85-.19,3.42.26,5.51,0,6.8l0-.29c.11,4.75.25.46.55,4l-.62,2.39.25.47c0,.49,0,1.46-.13,1.28.17,1.82.11-.31.27.75-.23,2.35.11,6.49-.29,7,.19.85.14-2.25.28.27-.43.71.07,2.9-.13,5.06-.22-.67-.1-2.7-.3-.55.38,1.3-.08,4.19,0,6,.3.08.12,3.94.22,7a11.19,11.19,0,0,0-.09,1.64c0,1.17-.06,2.75-.09,4.28l1.84,0,1.21.06-.06.06c.45-.37,2.85-.3,4.6-.37-.07.22-.38.3-1.33.4H9.06A8,8,0,0,1,11,77l-.42.27c2.19,0,4.42-.32,7.24-.14.15-.25-2.25-.71.73-.88.12.14.23.38-.56.43a7.58,7.58,0,0,1,1.43,0l-1.19.23c1.28.1.67-.2,1.7-.17,0,.19.76.14.61.29a9.2,9.2,0,0,0-1.29,0,15.85,15.85,0,0,1,3,.3c-.1-.11,0-.26.85-.29,2.19,0,.75.24,2,.34.53-.14,1.93,0,2-.29a2.09,2.09,0,0,1,1,.22c1.13-.13,5.3,0,4-.35l-.29,0,.18,0h0c3.72-.29,7.73.17,11.41,0v.1c2.2-.11,4.9-.06,6.47-.28.65,0,1.54.18,1.26.3a26,26,0,0,1,4.3,0c-1.69.17.59.15-1.73.13a24.22,24.22,0,0,0,5,0c-.8.25,1.64.32,2.68.24L60,77.21c1.17,0,2.19,0,3.23,0l-.56.33c4.47.41,8.07-.69,11.48,0,1.18-.23-2.43-.16-1.38-.44,2.06.05,4.21.53,4.85.53,2.82.18,2.63-.49,5.58-.36-.37-.12-.73-.44,1.47-.55,2.06,0,2.54.5,1.24.59-.5,0-.74,0-.72-.07-.66.05-1.53.1-.72.23l.27-.12c1,.12,3.85.11,3.19.3,1.56-.11.66-.19-.49-.25,2.64.17,4.13,0,6.85.12-.43-.07-.83-.21-.4-.21,4,.15,1.75-.22,4.46-.27,1.53.18-.55.43,2.17.28,1.66.12.35.31-.31.41a39.66,39.66,0,0,1,6,.19l-1.31.1c.78-.06,1.42-.06,2.07-.06l-.74-.24a4.76,4.76,0,0,1,1.4.14c.79-.15-.61-.39,1-.6,1,.12,3.11-.13,3.47.18-3.22-.1.35.32-2.37.37a14,14,0,0,1,1.94,0c.11,0-.11.06-.32.08,3.07.28,1.41-.36,4.6-.35-.41.18.74.34,1.26.3-1.29,0-.62-.3.56-.43a25.12,25.12,0,0,0,3.29-.09l-1.22-.06a13.08,13.08,0,0,1,2.86-.22c.12.14-1.29.1-.78.16,1.58-.31,3.57.32,5.78.11,1,.12.1.34,1,.42,2.48-.23,2.68.24,5.28.05-.75-.24-.88-.18.95-.41l-4.27.17,2.74-.35c-1.29,0-2.72.15-3.49.11,1.3-.2,1.17-.14.55-.33,1.77.35,3.5-.21,5.54,0l-.06.59c3.06.26,5.44-.3,9.42-.15L144,77.34a29.21,29.21,0,0,1,3.74-.13c-.12.2.69.27,1.24.4-.07-.15,2.91,0,3.27-.38l1.78.26c3.22.1,3.67-.57,6.76-.5-.93.22.47.36-1.6.51a5.89,5.89,0,0,0,2-.1c.6.12,2.86-.27,3.81-.08a4.41,4.41,0,0,1,1.73-.28c.13,0,0,.1,0,.1s1.81-.13.8-.35c3.18.62,8.88,0,11.65.48,2.25-.06,5-.12,7-.14-.13.06,0,.1-.39.08,2.82.18,1.73-.57,4.94-.36,1.64.32-1.71.17-.68.29.44.65,3.87-.09,6,.29l-.52,0c1.65.22,4-.25,6.72-.2,0,0-.13.06,0,.1a75,75,0,0,1,7.93-.54c-.8.26-1.18.14-.68.4,1.16,0-.34-.42,2-.49.75.14,2.43.26,2.65.54H212c1.12.36,2.83,0,4,0l-.15.16c3.35,0,3.4-.45,7-.42l-.38-.12c2-.39,1.66.22,3.62-.07l.6.4c1.3-.1,4.55-.38,6.88-.46-1.32.3-4.05.44-5.73.62a37.18,37.18,0,0,0,5.05-.23,9.62,9.62,0,0,1-1.69.08,33.66,33.66,0,0,1,6.23-.46c-.15.25.52.36,1.54.41s2.13,0,4.38.08a29.6,29.6,0,0,1,.24-4.81c-.23-5.53.1-11,.07-17.39-.49,2.28,0-1.88-.52-1.49a19.16,19.16,0,0,1,0-2.2l.3-4.54c.15-1.08.11,1.42.22,1.29,0-3.29.22-1.38.35-3.55-.18.44-.26-1.14-.19-3l-.23,2.63c-.27-4.59.42-4,.16-8.59l.15,1.47c-.09-2.38,0-8.75-.4-11.08.06-.42.2-1,.24.07.06-5.67-.43-12.61-.19-17l.13.43a19.77,19.77,0,0,1-.11-3.17c.05.07.12.43.13-.06,0-.19,0-.6-.08-1.1,0-.76-.06-1.81-.07-2.74-.7,0-1.37,0-1.94,0l1.75-.17-2.48,0c-.51,0-1,0-1.46,0-.93,0-1.78.09-2.6.16-1.66.14-3.22.32-5.13.37,0-.44-3.57-.59-5.35-.66l.06-.06c-5.3,0-9,.36-13.9.54-3.05-.48-10.32-.2-15.21-.47.75.08-.12.34-1,.39-1.15-.09-3.18.3-3-.1h.41c-.86-.4-3.22-.29-5.07-.31l-.3.53c-4.82-.77-12.63.28-15.26-.4-1.16.13-2.6.13-3.76.26l.06-.28c-3.22-.08-4.83-.11-8.81,0l.81-.21c-2.25,0-2.84.82-4.91.84l-.62-.43c-3.92,0-7.89-.36-11.76,0,.06-.06.17-.18.81-.2-1.85,0-7.14-.28-6.47.3,0-.38-4,0-6.16.12l.33-.27a18.73,18.73,0,0,1-4.34.55c-.59,0-.52-.22.27-.15-2-.15-1.54.26-3.93.11l.89-.18a9.07,9.07,0,0,0-3,.29,12.68,12.68,0,0,1-4.15-.33,6.35,6.35,0,0,1-2.57.29c-.17-.1.27-.15.49-.18-3.39-.19-5,.32-7.37,0-.05-.1-.2-.14-.4-.17,2.7,0,4.86,0,4.66,0,0-.25-2.17-.3-.44-.65a47,47,0,0,1-6.86.49,1.84,1.84,0,0,1-.28-.09l.22,0a9.6,9.6,0,0,0-1.34,0c-.67,0-1.1-.07-1.75-.07a17.38,17.38,0,0,0-3.58-.13c.09.28-1.33.24,0,.47-.18,0,.2,0,.92-.05a3.09,3.09,0,0,0,.47,0l-.08,0,2.7,0a9.59,9.59,0,0,1-3,.11c-.56.18-1.17.36-1.52.45-1.48-.39-4.34-.6-4.74-.84-3.32.15-7.81.1-9.89.63a2.57,2.57,0,0,1-1.43-.24,14.45,14.45,0,0,0,1.48-.12c-1.88.14-5.58.06-6,.42-2.37-.16,1.34-.34-1.92-.28l.44-.11c-6.42-.59-10.43.94-17.55.19a2.36,2.36,0,0,1,.84.13c-8.11-.34-16.71.31-24.71-.22a14,14,0,0,0-3.91.31l-.49-.3-2.37.34C25,3.4,22.56,2.4,18.3,2.89l.55.2c-1.53,0-4.85.12-4.59-.11a2.14,2.14,0,0,1-1.1.1l-.05-.16-3.76.27c-2.91-.11.46-.62-3.8-.65C4,2.6,1.05,3,1.65,3.1s1.63.1,1.67.26l-1.44.08c-.26.47-1.38.94,2.17,1.27l2.48-.29.79.23H5.24A7.09,7.09,0,0,0,8,4.56a2.68,2.68,0,0,0,1,.25l2.43-.45c.3.19-1.09.36.54.47,1.14-.21-1.09-.41.79-.55,1.19.21.84.39,2.23.2.2.12-.1.2-.65.25a34.78,34.78,0,0,0,3.91-.3c1.23.26,4.17-.07,4.05.37a21,21,0,0,1,3.31-.37c-2.07.53,4.25,0,3.71.6,1.53-.47,5.54-.21,8.26-.47a2.63,2.63,0,0,1-.69.09,29.27,29.27,0,0,1,3,.27c.19-.39,2.58-.48,3.86-.72,1.88.37-1.14.46-.55.82-.09-.32,3.26-.32,2.62-.58,1.44.23,1.24.11,2,.44.25-.49,1.33-.09,2.52-.39,2.08.24.54.46,2.82.31C54.22,5,52.19,5.12,52.19,5.12Zm54.24-.84h0l-1.12,0Zm4.56,0h-2c-.16-.09,0-.19.48-.19C109.24,4.14,110.31,4.19,111,4.27Zm-9.64-1.94a2.21,2.21,0,0,1,1.06.07l-1.26,0-.09,0A.6.6,0,0,1,101.35,2.33Z"/><path class="cls-1" d="M100.05,2.69l-.29,0,.43.07.25-.09Z"/><path class="cls-1" d="M32.17,77h.1a1,1,0,0,1-.21,0Z"/><polygon class="cls-1" points="173.93 4.81 173.92 4.74 173.53 4.8 173.93 4.81"/><path class="cls-1" d="M7.07,76a1.3,1.3,0,0,0-.33-.07A1.29,1.29,0,0,0,7.07,76Z"/><path class="cls-1" d="M2.09,70l.08-1.86C2.13,69,2.11,69.53,2.09,70Z"/><path class="cls-1" d="M2.21,59.87a.5.5,0,0,0-.1-.2v0Z"/><path class="cls-1" d="M120.45,75.45h.32C121.53,75.38,121,75.4,120.45,75.45Z"/><path class="cls-1" d="M81,76.11c.42-.06.83-.11,1.27-.14C81.57,76,81,76,81,76.11Z"/><path class="cls-1" d="M164.5,75.11h0Z"/><path class="cls-1" d="M84.1,76a11.23,11.23,0,0,0-1.83,0C82.84,76,83.52,76,84.1,76Z"/><path class="cls-1" d="M2.31,16v-.49s0,0,0-.05Z"/><path class="cls-1" d="M2.28,15.41l0-.55A3.66,3.66,0,0,0,2.28,15.41Z"/><path class="cls-1" d="M2.2,13.72l.06,1.14A6.48,6.48,0,0,0,2.2,13.72Z"/><path class="cls-1" d="M2.2,29.37l.09.15C2.27,29.44,2.24,29.38,2.2,29.37Z"/><path class="cls-1" d="M2.23,33.44c0-1,.18-2.44.13-3.79l-.07-.13C2.41,30.16,2.09,32.52,2.23,33.44Z"/><path class="cls-1" d="M1.19,50.46,1.26,47c-.09.6-.21,1.38-.23-.17C.76,51.18,1.23,46,1.19,50.46Z"/><path class="cls-1" d="M1.06,61.05c0-1.84-.13,0-.18-.08C1,62.14,1,62.42,1.06,61.05Z"/><path class="cls-1" d="M51.83,77.17l-.15.26C52.84,77.39,51.69,77.33,51.83,77.17Z"/><polygon class="cls-1" points="63.87 75.85 62.74 75.69 62.2 75.92 63.87 75.85"/><polygon class="cls-1" points="70.98 77.67 70.47 77.71 72.42 77.61 70.98 77.67"/><path class="cls-1" d="M176.76,77.58l-.36-.31C175.62,77.32,175.45,77.68,176.76,77.58Z"/><path class="cls-1" d="M222.42,77.26a6.67,6.67,0,0,0,2.57.1C224,77.34,222.94,77.22,222.42,77.26Z"/><polygon class="cls-1" points="186.04 2.29 186.96 2.18 185.23 2.27 186.04 2.29"/><path class="cls-2" d="M53,47a13.13,13.13,0,0,0,.84,2.28A3,3,0,0,0,55,50.53a2.87,2.87,0,0,1-1.11.4,6.72,6.72,0,0,1-1,.1,3.77,3.77,0,0,1-2.08-.72,3.41,3.41,0,0,1-1.21-2l-2-9.91a3,3,0,0,1-1.7-.63v8.94a17.2,17.2,0,0,0,.1,1.95,6.34,6.34,0,0,0,.27,1.24,2.21,2.21,0,0,0,.37.87h-5a3.35,3.35,0,0,0,.36-.87,10.25,10.25,0,0,0,.25-1.24,13.17,13.17,0,0,0,.12-1.95V31.18a13.17,13.17,0,0,0-.12-1.95A10.48,10.48,0,0,0,42,28a3.41,3.41,0,0,0-.36-.86h5.88a9,9,0,0,1,2.41.3,4.8,4.8,0,0,1,1.87.95A4.32,4.32,0,0,1,53,30a6.53,6.53,0,0,1,.43,2.53,6.08,6.08,0,0,1-1.16,3.86A5.05,5.05,0,0,1,49,38.29a5.47,5.47,0,0,1,.8.47,4.85,4.85,0,0,1,.84.76,5.78,5.78,0,0,1,.77,1.12,6.34,6.34,0,0,1,.55,1.51ZM46.22,36.8a1.2,1.2,0,0,0,.52.51,1.74,1.74,0,0,0,.94.25,1.54,1.54,0,0,0,1.1-.4,2.59,2.59,0,0,0,.68-1.06,5.79,5.79,0,0,0,.33-1.58c.06-.61.09-1.25.09-1.91a7.45,7.45,0,0,0-.28-2.18A4.1,4.1,0,0,0,48.85,29,2.88,2.88,0,0,0,46.65,28h-.8v5.92a1.65,1.65,0,0,1,.6-.37,1.87,1.87,0,0,1,.73-.1,1.66,1.66,0,0,1,.67.22,1.26,1.26,0,0,1,.47.58,1.76,1.76,0,0,0-1,.1,1.91,1.91,0,0,0-.78.58,2.14,2.14,0,0,0-.4.88A1.88,1.88,0,0,0,46.22,36.8Z"/><path class="cls-2" d="M66.9,50.73H55.66a3,3,0,0,0,.37-.87,10.25,10.25,0,0,0,.25-1.24,13.17,13.17,0,0,0,.12-1.95V31.18a13.17,13.17,0,0,0-.12-1.95A10.48,10.48,0,0,0,56,28a3.06,3.06,0,0,0-.37-.86H66.57l-.3,3.29h-.76c-.11-.44-.22-.82-.33-1.13a2,2,0,0,0-.5-.77,2.19,2.19,0,0,0-1-.43A9,9,0,0,0,62,28h-2v7.22a13.94,13.94,0,0,0,1.83,0c.55-.05,1-.09,1.43-.14a10.09,10.09,0,0,0,1.23-.23,2.9,2.9,0,0,1,0,.43,3.35,3.35,0,0,1-.16.93,1,1,0,0,1-.73.65,2.07,2.07,0,0,1-1.13,0l-2.5-.7V48.47a1.35,1.35,0,0,0,.38.9,1.68,1.68,0,0,0,.62.38,3,3,0,0,0,1,.15h1.16a2.43,2.43,0,0,0,1.23-.28,2.21,2.21,0,0,0,.75-.77,4.16,4.16,0,0,0,.44-1.06c.09-.39.2-.79.31-1.18h.77Z"/><path class="cls-2" d="M76.52,50.73a3.19,3.19,0,0,0,.29-.77A5.5,5.5,0,0,0,77,49a4.87,4.87,0,0,0-.11-1.41l-1.56-8.11H71.83L69.63,49a3.57,3.57,0,0,0-.07.63v.56a5.1,5.1,0,0,0,0,.57H67.8a3.34,3.34,0,0,0,.3-.53,5.32,5.32,0,0,0,.25-.62c.08-.23.16-.49.25-.78l4.62-20a11.33,11.33,0,0,0-.43-1.26l-.2-.4h3.83l2.06,10.57,2.06,10.58a6.18,6.18,0,0,0,.26,1c.12.3.23.56.34.78a4.67,4.67,0,0,0,.36.67ZM75.08,38.39l-1.39-7.15-1.63,7.15Z"/><path class="cls-2" d="M89.62,27.12a5.56,5.56,0,0,1,2.28.46,5.67,5.67,0,0,1,1.81,1.28,6.13,6.13,0,0,1,1.2,1.9,6.32,6.32,0,0,1,.43,2.31V44.78a6.32,6.32,0,0,1-.43,2.31A6,6,0,0,1,93.71,49a5.55,5.55,0,0,1-4.09,1.75h-7a3.35,3.35,0,0,0,.36-.87,8.61,8.61,0,0,0,.25-1.24,13.17,13.17,0,0,0,.12-1.95V31.18a13.17,13.17,0,0,0-.12-1.95A8.8,8.8,0,0,0,83,28a3.41,3.41,0,0,0-.36-.86Zm2.19,5.95a9.11,9.11,0,0,0-.15-1.48,5.26,5.26,0,0,0-.6-1.69,4.19,4.19,0,0,0-1.23-1.39,3.39,3.39,0,0,0-2-.56h-.9V46.21a3.25,3.25,0,0,1,.67-.34,2.46,2.46,0,0,1,1.08,0,.94.94,0,0,1,.71.7,1.82,1.82,0,0,0-1,.1,2,2,0,0,0-.78.58,2.12,2.12,0,0,0-.4.89,1.71,1.71,0,0,0,.13,1,1.18,1.18,0,0,0,.48.5,1.82,1.82,0,0,0,.92.23H89a1.68,1.68,0,0,0,1.26-.57A4.54,4.54,0,0,0,91.13,48a8.55,8.55,0,0,0,.68-3.17Z"/><path class="cls-2" d="M137.09,30.88a4.7,4.7,0,0,0,.66,2.44,14.05,14.05,0,0,0,1.65,2.18,28.16,28.16,0,0,0,2.13,2.09,25.62,25.62,0,0,1,2.13,2.17,11.72,11.72,0,0,1,1.64,2.44,6.27,6.27,0,0,1,.67,2.91A7.19,7.19,0,0,1,144.42,50a5.85,5.85,0,0,1-4.64,1.76,8,8,0,0,1-2.24-.32,5.63,5.63,0,0,1-1.91-1,4.7,4.7,0,0,1-1.33-1.6,4.56,4.56,0,0,1-.5-2.21,4.73,4.73,0,0,1,.38-2,4.33,4.33,0,0,1,.95-1.39,3.65,3.65,0,0,1,1.25-.83,3.22,3.22,0,0,1,1.24-.29,3.74,3.74,0,0,1,2.6.75,2.29,2.29,0,0,1,.79,1.71,3.21,3.21,0,0,0-1.24-.15,4,4,0,0,0-1.22.3,3.44,3.44,0,0,0-1,.69,3,3,0,0,0-.66,1,3.17,3.17,0,0,0-.22,1.52,3.37,3.37,0,0,0,.47,1.41,3.07,3.07,0,0,0,1,1,2.79,2.79,0,0,0,1.51.4,3.87,3.87,0,0,0,1.62-.32,3.52,3.52,0,0,0,1.13-.81,3.12,3.12,0,0,0,.65-1.13,4.16,4.16,0,0,0,.2-1.23,5.86,5.86,0,0,0-.67-2.78A12,12,0,0,0,141,42.2,29.88,29.88,0,0,0,138.77,40a26.67,26.67,0,0,1-2.18-2.21,12.53,12.53,0,0,1-1.66-2.44,6.59,6.59,0,0,1-.22-5.29,5.55,5.55,0,0,1,3.23-3.14,6.79,6.79,0,0,1,2.51-.45A5.85,5.85,0,0,1,143,27a5.28,5.28,0,0,1,1.65,1.18,4.51,4.51,0,0,1,.84,4.8,3.68,3.68,0,0,1-.88,1.28,3.48,3.48,0,0,1-1.13.75,2.86,2.86,0,0,1-1.13.25,4,4,0,0,1-1.21-.18,3.91,3.91,0,0,1-1-.48,2.67,2.67,0,0,1-.72-.7,1.54,1.54,0,0,1-.27-.87,2.6,2.6,0,0,0,1.17.15,3.13,3.13,0,0,0,1.11-.28,2.94,2.94,0,0,0,.93-.63,2.49,2.49,0,0,0,.62-.93,2.6,2.6,0,0,0,.18-1.12,3.34,3.34,0,0,0-.3-1.31,2.93,2.93,0,0,0-.86-1.1,2.48,2.48,0,0,0-1.58-.46,3,3,0,0,0-1.4.31,3.25,3.25,0,0,0-1,.82,3.39,3.39,0,0,0-.63,1.13A3.82,3.82,0,0,0,137.09,30.88Z"/><path class="cls-2" d="M160,27.12l-.3,3.29H159c-.11-.42-.21-.79-.31-1.1a1.73,1.73,0,0,0-.49-.76,2.13,2.13,0,0,0-.93-.45,7.16,7.16,0,0,0-1.66-.15V46.67a15.14,15.14,0,0,0,.1,1.95,5.68,5.68,0,0,0,.27,1.24,2.21,2.21,0,0,0,.36.87h-5a3.56,3.56,0,0,0,.37-.87,10.25,10.25,0,0,0,.25-1.24,13.34,13.34,0,0,0,.11-1.95V28a7.16,7.16,0,0,0-1.66.15,2.13,2.13,0,0,0-.93.45,1.71,1.71,0,0,0-.48.76c-.1.31-.21.68-.32,1.1h-.76l-.3-3.29Z"/><path class="cls-2" d="M168.32,26.82a6.14,6.14,0,0,1,2.26.4,5.51,5.51,0,0,1,1.78,1.08,4.52,4.52,0,0,1,1.14,1.6,4.68,4.68,0,0,1,.4,1.94V46a4.55,4.55,0,0,1-.43,2,5,5,0,0,1-1.18,1.58,5.92,5.92,0,0,1-1.78,1.06,6.05,6.05,0,0,1-2.23.4,6.28,6.28,0,0,1-2.28-.4,6.21,6.21,0,0,1-1.81-1.06A4.71,4.71,0,0,1,163,48a4.56,4.56,0,0,1-.44-2V31.84A4.29,4.29,0,0,1,163,29.9a5,5,0,0,1,1.23-1.6,5.75,5.75,0,0,1,1.83-1.08A6.2,6.2,0,0,1,168.32,26.82Zm2.06,4.92a2,2,0,0,1-1.13.4,3.29,3.29,0,0,1-1.15-.28,1,1,0,0,1-.58-.92,2,2,0,0,0,2-.19,1.81,1.81,0,0,0,.56-.79,1.91,1.91,0,0,0,.05-1.09V28.8a2.54,2.54,0,0,0-.63-.8,1.73,1.73,0,0,0-1.16-.35,1.92,1.92,0,0,0-1.08.27,2.18,2.18,0,0,0-.69.66,2.5,2.5,0,0,0-.36.86,3.94,3.94,0,0,0-.1.87v17.3a3.8,3.8,0,0,0,.1.83,2.4,2.4,0,0,0,.35.86,2.14,2.14,0,0,0,.66.68,2.24,2.24,0,0,0,2.13,0,2,2,0,0,0,.65-.67,2.53,2.53,0,0,0,.31-.86,4.59,4.59,0,0,0,.09-.87Z"/><path class="cls-2" d="M187.57,47a14.16,14.16,0,0,0,.83,2.28,3.13,3.13,0,0,0,1.17,1.25,2.92,2.92,0,0,1-1.12.4,6.61,6.61,0,0,1-1,.1,3.77,3.77,0,0,1-2.08-.72,3.36,3.36,0,0,1-1.21-2l-2-9.91a3,3,0,0,1-1.7-.63v8.94a15.14,15.14,0,0,0,.1,1.95,6.34,6.34,0,0,0,.27,1.24,2.37,2.37,0,0,0,.36.87h-5a3,3,0,0,0,.37-.87,10.25,10.25,0,0,0,.25-1.24,13.17,13.17,0,0,0,.12-1.95V31.18a13.17,13.17,0,0,0-.12-1.95,10.48,10.48,0,0,0-.25-1.25,3.06,3.06,0,0,0-.37-.86h5.89a9,9,0,0,1,2.41.3,4.83,4.83,0,0,1,1.86.95A4.34,4.34,0,0,1,187.54,30a6.53,6.53,0,0,1,.43,2.53,6.14,6.14,0,0,1-1.16,3.86,5.08,5.08,0,0,1-3.3,1.86,5,5,0,0,1,.8.47,4.9,4.9,0,0,1,.85.76,5.35,5.35,0,0,1,.76,1.12,5.58,5.58,0,0,1,.55,1.51Zm-6.78-10.2a1.17,1.17,0,0,0,.51.51,1.77,1.77,0,0,0,.95.25,1.55,1.55,0,0,0,1.1-.4A2.81,2.81,0,0,0,184,36.1a5.79,5.79,0,0,0,.33-1.58c.06-.61.09-1.25.09-1.91a7.1,7.1,0,0,0-.29-2.18,4.1,4.1,0,0,0-.75-1.43,2.89,2.89,0,0,0-1-.8,2.84,2.84,0,0,0-1.15-.25h-.8v5.92a1.65,1.65,0,0,1,.6-.37,1.84,1.84,0,0,1,.73-.1,1.71,1.71,0,0,1,.67.22,1.19,1.19,0,0,1,.46.58,1.74,1.74,0,0,0-1,.1,1.91,1.91,0,0,0-.78.58,2,2,0,0,0-.4.88A1.79,1.79,0,0,0,180.79,36.8Z"/><path class="cls-2" d="M198.81,46.71a14.64,14.64,0,0,0,.1,1.92,6.39,6.39,0,0,0,.27,1.23,2.37,2.37,0,0,0,.36.87h-5a3,3,0,0,0,.37-.87,10.45,10.45,0,0,0,.25-1.23,12.73,12.73,0,0,0,.12-1.92V40.05l-3.36-9.71a16.79,16.79,0,0,0-1.17-2.42c-.2-.31-.37-.58-.53-.8h5a1.28,1.28,0,0,0-.32.8,2.31,2.31,0,0,0,.09.93l3.09,8.81,3.46-9.08a4.86,4.86,0,0,0,.1-.55,4.71,4.71,0,0,0,0-.48,2.9,2.9,0,0,0,0-.43h1.89a2.82,2.82,0,0,0-.36.46l-.34.52a2.72,2.72,0,0,0-.26.58l-3.76,10v8Z"/><path class="cls-2" d="M113,35.21l-.13,1.4h-.32c0-.18-.1-.34-.14-.47a.7.7,0,0,0-.2-.32.88.88,0,0,0-.4-.19,3,3,0,0,0-.7-.07v7.92c0,.33,0,.61,0,.83a2.36,2.36,0,0,0,.12.52.92.92,0,0,0,.15.37h-2.11a1.38,1.38,0,0,0,.16-.37c0-.13.07-.3.1-.52a6.25,6.25,0,0,0,.05-.83V35.56a3.08,3.08,0,0,0-.7.07.88.88,0,0,0-.4.19.7.7,0,0,0-.2.32c0,.13-.09.29-.13.47h-.33l-.13-1.4Z"/><path class="cls-2" d="M119.13,43.48c0,.33,0,.61,0,.83a2.36,2.36,0,0,0,.12.52.92.92,0,0,0,.15.37h-2.11a1.31,1.31,0,0,0,.16-.37c0-.13.07-.3.1-.52a6.25,6.25,0,0,0,0-.83h0V39h-2v4.47a6.47,6.47,0,0,0,0,.83,2.44,2.44,0,0,0,.11.52.91.91,0,0,0,.16.37h-2.11a1.74,1.74,0,0,0,.15-.37,5,5,0,0,0,.11-.52,6.25,6.25,0,0,0,0-.83V36.93a6.09,6.09,0,0,0,0-.82,5.26,5.26,0,0,0-.11-.53,2,2,0,0,0-.15-.37h2.11a1.12,1.12,0,0,0-.16.38,2.55,2.55,0,0,0-.11.53,6.24,6.24,0,0,0,0,.81v1.63h2V36.93a6.09,6.09,0,0,0,0-.82c0-.22-.07-.4-.1-.53a1.45,1.45,0,0,0-.16-.37h2.11a1.44,1.44,0,0,0-.15.38,3.54,3.54,0,0,0-.11.52,6.09,6.09,0,0,0-.05.82v6.54Z"/><path class="cls-2" d="M124.91,45.2h-4.75a1.34,1.34,0,0,0,.15-.37,3.27,3.27,0,0,0,.11-.52,6.25,6.25,0,0,0,0-.83V36.93a6.09,6.09,0,0,0,0-.82,3.43,3.43,0,0,0-.11-.53,1.48,1.48,0,0,0-.15-.37h4.61l-.12,1.4h-.33a3.14,3.14,0,0,0-.14-.48.93.93,0,0,0-.21-.33.92.92,0,0,0-.41-.18,3.53,3.53,0,0,0-.74-.06H122v3.06a4.94,4.94,0,0,0,.77,0l.61-.06c.19,0,.37-.06.52-.1a1.09,1.09,0,0,1,0,.18,1.35,1.35,0,0,1-.07.4.41.41,0,0,1-.31.27.87.87,0,0,1-.48,0L122,39v5.24a.67.67,0,0,0,0,.17.63.63,0,0,0,.13.2.73.73,0,0,0,.26.17,1.33,1.33,0,0,0,.44.06h.49a.89.89,0,0,0,.84-.44,1.77,1.77,0,0,0,.18-.45c0-.17.09-.34.13-.5h.33Z"/><rect class="cls-2" x="107.27" y="32.31" width="18.22" height="0.6"/><rect class="cls-2" x="107.27" y="47.13" width="18.22" height="0.6"/></svg>