<svg xmlns="http://www.w3.org/2000/svg" width="361.198" height="76.732" viewBox="0 0 361.198 76.732">
    <path d="M101.265 61.279a48.12 48.12 0 0 0 .3 5.879 18.612 18.612 0 0 0 .84 3.779 6.812 6.812 0 0 0 1.117 2.629H88.409a9.8 9.8 0 0 0 1.109-2.629 30.879 30.879 0 0 0 .756-3.779 41.321 41.321 0 0 0 .353-5.879V29.216h-14.8v32.1a48.121 48.121 0 0 0 .3 5.879 18.607 18.607 0 0 0 .84 3.779 6.812 6.812 0 0 0 1.117 2.629H62.969a9.8 9.8 0 0 0 1.109-2.629 30.892 30.892 0 0 0 .756-3.779 41.318 41.318 0 0 0 .353-5.879v-47.03a41.192 41.192 0 0 0-.353-5.879 31.058 31.058 0 0 0-.756-3.788 10.078 10.078 0 0 0-1.109-2.629h15.117a8.03 8.03 0 0 0-1.117 2.729 18.711 18.711 0 0 0-.84 3.788 46.964 46.964 0 0 0-.3 5.8v11.709h14.739V14.241a41.192 41.192 0 0 0-.353-5.879 31.066 31.066 0 0 0-.756-3.787 10.076 10.076 0 0 0-1.109-2.629h15.117a11.388 11.388 0 0 0-1.117 2.679 33.994 33.994 0 0 0-.756 3.788 40.1 40.1 0 0 0-.353 5.879v47.024z" data-name="Path 170"/>
    <path d="M146.892 3.844a8.4 8.4 0 0 0-.655 1.965 11.254 11.254 0 0 0-.252 2.377q0 4.443-.05 8.02c0 2.393-.05 5.115-.05 8.18v34.777a17.637 17.637 0 0 1-1.016 6.055 15.345 15.345 0 0 1-2.83 4.946 13.018 13.018 0 0 1-4.451 3.359 13.941 13.941 0 0 1-5.879 1.209h-1.011q-9.322 0-14.579-3.989t-5.266-11.858V14.241a40.114 40.114 0 0 0-.353-5.879 31.328 31.328 0 0 0-.756-3.737 12.171 12.171 0 0 0-1.109-2.729h15.167a7.861 7.861 0 0 0-1.125 2.729 17.949 17.949 0 0 0-.84 3.737 44.954 44.954 0 0 0-.311 5.879v44.216a28.556 28.556 0 0 0 .453 5.249 11.9 11.9 0 0 0 1.52 4.14 7.827 7.827 0 0 0 2.822 2.721 8.54 8.54 0 0 0 4.291 1.008h1.008a10.213 10.213 0 0 0 8.029-3.628 11.96 11.96 0 0 0 2.217-3.939 14.956 14.956 0 0 0 .756-4.846V8.287a10.673 10.673 0 0 0-.286-2.578 23.836 23.836 0 0 0-.571-1.965 11.84 11.84 0 0 0-.84-1.822h6.878a17.577 17.577 0 0 0-.911 1.922z" data-name="Path 171"/>
    <path d="M191.83 1.921a11.887 11.887 0 0 0-.907 1.822 8.5 8.5 0 0 0-.655 1.915 11.045 11.045 0 0 0-.252 2.427v65.506h-3.225l-27.865-59.157v53a10.424 10.424 0 0 0 .26 2.419 13.7 13.7 0 0 0 .554 1.915 11.169 11.169 0 0 0 .907 1.822h-6.718a11.169 11.169 0 0 0 .907-1.822 20.269 20.269 0 0 0 .6-1.965 10.178 10.178 0 0 0 .3-2.57v-54.2a39.883 39.883 0 0 0-.454-5.3 27.839 27.839 0 0 0-.756-3.359 6.66 6.66 0 0 0-1.016-2.318h11.111l22.163 46.61V8.287a10.245 10.245 0 0 0-.3-2.578 20.264 20.264 0 0 0-.6-1.965 16.117 16.117 0 0 0-.84-1.822z" data-name="Path 172"/>
    <path d="M236.534 1.921l-.907 10h-2.326a73.994 73.994 0 0 0-.957-3.359 5.258 5.258 0 0 0-1.461-2.326 6.51 6.51 0 0 0-2.83-1.36 21.837 21.837 0 0 0-5.04-.455v56.83a48.133 48.133 0 0 0 .3 5.879 18 18 0 0 0 .84 3.779 6.716 6.716 0 0 0 1.109 2.629h-15.115a11.293 11.293 0 0 0 1.109-2.629 30.883 30.883 0 0 0 .756-3.779 41.31 41.31 0 0 0 .353-5.879v-56.8a21.889 21.889 0 0 0-5.039.453 6.517 6.517 0 0 0-2.822 1.361 5.2 5.2 0 0 0-1.47 2.326c-.3.94-.622 2.049-.957 3.359h-2.318l-.915-10z" data-name="Path 173"/>
    <path d="M276.106 73.599h-34.122a9.8 9.8 0 0 0 1.109-2.629 30.889 30.889 0 0 0 .756-3.779 41.328 41.328 0 0 0 .353-5.879v-47.03a41.184 41.184 0 0 0-.353-5.879 31.067 31.067 0 0 0-.756-3.788 10.078 10.078 0 0 0-1.109-2.629h33.114l-.915 10h-2.319a34.5 34.5 0 0 0-1.008-3.435 5.761 5.761 0 0 0-1.52-2.326 6.224 6.224 0 0 0-2.922-1.31 27.516 27.516 0 0 0-5.35-.4H254.9v21.9a36.061 36.061 0 0 0 5.56 0q2.519-.2 4.333-.4a36.937 36.937 0 0 0 3.737-.705 7.98 7.98 0 0 1 .1 1.31 10.439 10.439 0 0 1-.5 2.83 2.948 2.948 0 0 1-2.217 1.965 6.206 6.206 0 0 1-3.435-.05l-7.558-2.116v37.565a4.3 4.3 0 0 0 1.167 2.721 4.786 4.786 0 0 0 1.864 1.151 8.86 8.86 0 0 0 3.133.453h3.527a7.138 7.138 0 0 0 3.737-.84 6.609 6.609 0 0 0 2.276-2.318 12.545 12.545 0 0 0 1.31-3.233c.3-1.176.621-2.368.957-3.586h2.326z" data-name="Path 174"/>
    <path d="M315.569 62.295a41.7 41.7 0 0 0 2.519 6.912 9.3 9.3 0 0 0 3.536 3.788 8.667 8.667 0 0 1-3.359 1.209 21.656 21.656 0 0 1-3.082.3 11.481 11.481 0 0 1-6.307-2.167 10.363 10.363 0 0 1-3.67-6.173l-6.156-30.082a8.91 8.91 0 0 1-5.148-1.915v27.151a48.121 48.121 0 0 0 .3 5.879 18.606 18.606 0 0 0 .84 3.779 6.717 6.717 0 0 0 1.117 2.629h-15.115a9.8 9.8 0 0 0 1.109-2.629 30.907 30.907 0 0 0 .756-3.779 41.309 41.309 0 0 0 .353-5.879v-47.03a41.193 41.193 0 0 0-.353-5.879 31.069 31.069 0 0 0-.756-3.788 10.077 10.077 0 0 0-1.109-2.629h17.863a27.477 27.477 0 0 1 7.323.915 15.066 15.066 0 0 1 5.652 2.872 13.109 13.109 0 0 1 3.678 5.1 19.743 19.743 0 0 1 1.319 7.676q0 7.164-3.536 11.707a15.4 15.4 0 0 1-9.994 5.652 15.276 15.276 0 0 1 2.419 1.419 14.441 14.441 0 0 1 2.578 2.318 17.715 17.715 0 0 1 2.326 3.359 18.3 18.3 0 0 1 1.68 4.594zm-20.592-31a3.4 3.4 0 0 0 1.57 1.57 5.475 5.475 0 0 0 2.872.756 4.737 4.737 0 0 0 3.359-1.209 8.322 8.322 0 0 0 2.066-3.233 18.77 18.77 0 0 0 1.016-4.8c.16-1.848.252-3.788.252-5.8a21.835 21.835 0 0 0-.84-6.609 12.513 12.513 0 0 0-2.268-4.342 8.582 8.582 0 0 0-3.183-2.427 8.774 8.774 0 0 0-3.477-.756h-2.477v17.972a4.972 4.972 0 0 1 1.822-1.117 5.039 5.039 0 0 1 2.217-.3 4.721 4.721 0 0 1 2.016.655 3.728 3.728 0 0 1 1.419 1.772 5.332 5.332 0 0 0-3.082.3 5.719 5.719 0 0 0-2.368 1.764 6.206 6.206 0 0 0-1.218 2.679 5.618 5.618 0 0 0 .3 3.124z" data-name="Path 175"/>
    <path d="M334.246 13.335a14.21 14.21 0 0 0 2.016 7.416 40.77 40.77 0 0 0 5 6.618q2.981 3.225 6.467 6.357a74.246 74.246 0 0 1 6.458 6.559 36.413 36.413 0 0 1 5 7.424 19.316 19.316 0 0 1 2.016 8.827q0 9.5-4.695 14.839t-14.075 5.358a24.246 24.246 0 0 1-6.819-.966 17.174 17.174 0 0 1-5.8-2.923 15.05 15.05 0 0 1-4.04-4.846 14.278 14.278 0 0 1-1.512-6.719 14.537 14.537 0 0 1 1.159-6 13.629 13.629 0 0 1 2.881-4.2 11.949 11.949 0 0 1 3.788-2.519 9.959 9.959 0 0 1 3.779-.84q5.459 0 7.878 2.267a6.954 6.954 0 0 1 2.419 5.2 9.524 9.524 0 0 0-3.779-.453 11.159 11.159 0 0 0-3.687.907 9.936 9.936 0 0 0-3.032 2.074 9.172 9.172 0 0 0-2.016 3.023 9.373 9.373 0 0 0-.655 4.594 10.254 10.254 0 0 0 1.411 4.291 9.238 9.238 0 0 0 3.133 3.133 8.583 8.583 0 0 0 4.594 1.209 11.6 11.6 0 0 0 4.9-.957 10.463 10.463 0 0 0 3.426-2.519 9.236 9.236 0 0 0 1.974-3.426 12.445 12.445 0 0 0 .6-3.737 17.568 17.568 0 0 0-2.024-8.4 36.113 36.113 0 0 0-5.039-7.164 87.692 87.692 0 0 0-6.609-6.618 76.456 76.456 0 0 1-6.609-6.719 36.755 36.755 0 0 1-5.039-7.416 20.047 20.047 0 0 1-.663-16.1 17.015 17.015 0 0 1 3.83-5.753 17.7 17.7 0 0 1 5.963-3.788 20.717 20.717 0 0 1 7.617-1.361 17.744 17.744 0 0 1 7.617 1.495 16.008 16.008 0 0 1 5.039 3.586 13.857 13.857 0 0 1 3.628 8.986 13.628 13.628 0 0 1-1.058 5.6 11.909 11.909 0 0 1-2.671 3.888 11.608 11.608 0 0 1-3.444 2.269 8.961 8.961 0 0 1-3.435.756 12.028 12.028 0 0 1-3.687-.554 12.176 12.176 0 0 1-3.124-1.461 7.7 7.7 0 0 1-2.175-2.116 4.678 4.678 0 0 1-.84-2.629 8.4 8.4 0 0 0 3.536.453 10.3 10.3 0 0 0 3.359-.84 9.989 9.989 0 0 0 2.822-1.915 8.138 8.138 0 0 0 2.427-6.215 10.271 10.271 0 0 0-.907-3.981 8.945 8.945 0 0 0-2.629-3.359 7.475 7.475 0 0 0-4.8-1.411 8.978 8.978 0 0 0-4.241.957 10.078 10.078 0 0 0-3.074 2.469 10.718 10.718 0 0 0-1.923 3.435 12.111 12.111 0 0 0-.636 3.915z" data-name="Path 176"/>
    <path d="M16.108 27.099l-.353 3.9h-.904c-.134-.5-.26-.932-.378-1.3a2.041 2.041 0 0 0-.571-.9 2.521 2.521 0 0 0-1.1-.537 8.6 8.6 0 0 0-1.974-.176v22.171a19.316 19.316 0 0 0 .118 2.3 7.358 7.358 0 0 0 .319 1.478 2.6 2.6 0 0 0 .437 1.025H5.823a4.484 4.484 0 0 0 .437-1.025 13 13 0 0 0 .294-1.478 15.955 15.955 0 0 0 .134-2.3V28.082a8.526 8.526 0 0 0-1.965.176 2.521 2.521 0 0 0-1.1.537 1.974 1.974 0 0 0-.571.9c-.118.37-.244.84-.378 1.3h-.907l-.353-3.9z" data-name="Path 177"/>
    <path d="M33.189 50.253a17.5 17.5 0 0 0 .126 2.3 6.881 6.881 0 0 0 .311 1.478 2.721 2.721 0 0 0 .437 1.025h-5.879a3.882 3.882 0 0 0 .437-1.025 13 13 0 0 0 .294-1.478 15.956 15.956 0 0 0 .134-2.3V37.731h-5.744v12.522a19.321 19.321 0 0 0 .118 2.3 7.432 7.432 0 0 0 .311 1.478 2.721 2.721 0 0 0 .437 1.025h-5.88a3.639 3.639 0 0 0 .428-1.025 11.175 11.175 0 0 0 .3-1.478 17.314 17.314 0 0 0 .134-2.3v-18.35a17.313 17.313 0 0 0-.134-2.3 11.183 11.183 0 0 0-.3-1.478 3.638 3.638 0 0 0-.428-1.024h5.879a3.164 3.164 0 0 0-.437 1.067 7.334 7.334 0 0 0-.311 1.47 19.093 19.093 0 0 0-.118 2.268v4.569h5.744v-4.569a15.958 15.958 0 0 0-.134-2.3 13 13 0 0 0-.294-1.478 3.88 3.88 0 0 0-.437-1.025h5.879a4.614 4.614 0 0 0-.437 1.041 14.753 14.753 0 0 0-.294 1.475 15.514 15.514 0 0 0-.143 2.284v18.35z" data-name="Path 178"/>
    <path d="M49.381 55.057H36.07a3.638 3.638 0 0 0 .428-1.025 11.4 11.4 0 0 0 .294-1.478 15.852 15.852 0 0 0 .143-2.3v-18.35a15.845 15.845 0 0 0-.143-2.3 11.372 11.372 0 0 0-.294-1.478 3.638 3.638 0 0 0-.428-1.025h12.916l-.361 3.9h-.9a18.114 18.114 0 0 0-.395-1.335 2.141 2.141 0 0 0-.6-.907 2.453 2.453 0 0 0-1.142-.512 10.919 10.919 0 0 0-2.083-.16h-2.4v8.549a15.511 15.511 0 0 0 2.167 0 48.85 48.85 0 0 0 1.68-.16 12.68 12.68 0 0 0 1.461-.277 3.237 3.237 0 0 1 .042.512 3.938 3.938 0 0 1-.2 1.1 1.159 1.159 0 0 1-.84.773 2.41 2.41 0 0 1-1.335 0l-2.956-.84v14.655a1.571 1.571 0 0 0 .1.487 1.393 1.393 0 0 0 .353.571 1.838 1.838 0 0 0 .722.453 3.577 3.577 0 0 0 1.226.176h1.335a2.712 2.712 0 0 0 1.453-.336 2.63 2.63 0 0 0 .89-.907 4.67 4.67 0 0 0 .512-1.26c.118-.462.244-.924.37-1.394h.974z" data-name="Path 179"/>
    <path d="M0 18.969h51.01v1.68H0z" data-name="Rectangle 32"/>
    <path d="M0 60.465h51.01v1.68H0z" data-name="Rectangle 33"/>
</svg>
