<svg xmlns="http://www.w3.org/2000/svg" id="twodoctors-title" width="505.653" height="72.989" viewBox="0 0 505.653 72.989">
    <defs>
        <style>
            .cls-1{fill:#fff}
        </style>
    </defs>
    <path id="Path_156" d="M183.66 156.6l-.84 9.574h-2.184c-.336-1.176-.588-2.267-.924-3.191a4.728 4.728 0 0 0-1.428-2.184 6.254 6.254 0 0 0-2.687-1.344 18.479 18.479 0 0 0-4.787-.42v54.252c0 1.848.084 3.779.252 5.627a25.018 25.018 0 0 0 .756 3.611 5.644 5.644 0 0 0 1.092 2.519h-14.444a13.439 13.439 0 0 0 1.092-2.519 27.63 27.63 0 0 0 .756-3.611 42.16 42.16 0 0 0 .336-5.627v-54.252a18.478 18.478 0 0 0-4.787.42 5.447 5.447 0 0 0-2.687 1.344 4.728 4.728 0 0 0-1.428 2.184c-.336.924-.588 1.932-.924 3.191h-2.184l-.84-9.574z" class="cls-1" data-name="Path 156" transform="translate(-86.242 -155.079)"/>
    <path id="Path_157" d="M259.45 158.012c-.252.5-.5 1.092-.84 1.764a10.833 10.833 0 0 0-.672 2.351l-11.925 58.955a7.573 7.573 0 0 0 .5 1.848 9.775 9.775 0 0 0 .5 1.26c.168.252.336.588.5.84H233.08c.084-.252.336-.5.5-.84a18.355 18.355 0 0 0 .84-2.855c-.336-1.68-.756-3.779-1.176-6.3s-.924-5.375-1.428-8.4-1.092-6.215-1.68-9.49-1.26-6.467-1.764-9.742l-6.8 33.761a7.573 7.573 0 0 0 .5 1.848 9.772 9.772 0 0 0 .5 1.26c.168.252.336.588.5.84h-14.431a3.144 3.144 0 0 1 .5-.84 18.352 18.352 0 0 0 .84-2.855c-.42-2.184-.924-5.123-1.6-8.9-.672-3.7-1.344-7.726-2.1-12.009s-1.512-8.566-2.351-12.933-1.512-8.314-2.1-11.841-1.344-7.558-2.184-12.093a28.334 28.334 0 0 0-.84-2.855 17.038 17.038 0 0 0-.924-2.184c-.336-.672-.672-1.344-1.092-2.016h14.445a7.126 7.126 0 0 0-.924 2.184 11.058 11.058 0 0 0-.336 2.855 16.355 16.355 0 0 0 .336 4.031c1.176 6.719 2.351 13.185 3.443 19.568.42 2.687.924 5.459 1.428 8.4s1.008 5.711 1.512 8.482.924 5.459 1.428 7.978q.63 3.905 1.26 6.8l7.642-37.624c-.756-4.451-1.428-8.23-2.016-11.17s-.84-4.451-.84-4.535a28.335 28.335 0 0 0-.84-2.855 17.041 17.041 0 0 0-.924-2.184 14.36 14.36 0 0 0-1.092-1.932h14.445a7.127 7.127 0 0 0-.924 2.184 15.8 15.8 0 0 0-.42 2.771 13.187 13.187 0 0 0 .42 4.031c1.176 6.719 2.351 13.185 3.443 19.568.42 2.687.924 5.459 1.428 8.4s1.008 5.711 1.512 8.482.924 5.459 1.428 7.978.84 4.871 1.26 6.8l11.338-55.932a9.127 9.127 0 0 0 .084-1.512c0-.5-.084-1.008-.084-1.428a8.635 8.635 0 0 1-.084-1.428h5.207a6.1 6.1 0 0 0-.915 1.514z" class="cls-1" data-name="Path 157" transform="translate(-94.091 -155.063)"/>
    <path id="Path_158" d="M295.628 155.6a17.4 17.4 0 0 1 6.551 1.176 16.746 16.746 0 0 1 5.123 3.107 13.105 13.105 0 0 1 3.359 4.619 14.372 14.372 0 0 1 1.176 5.627V211.2a13.2 13.2 0 0 1-1.26 5.711 14.127 14.127 0 0 1-3.443 4.535 17.806 17.806 0 0 1-5.123 3.107 19.122 19.122 0 0 1-6.467 1.176 18.138 18.138 0 0 1-6.635-1.176 15.621 15.621 0 0 1-5.207-3.107 13.844 13.844 0 0 1-3.443-4.535A13.474 13.474 0 0 1 279 211.2v-41.071a13.1 13.1 0 0 1 1.26-5.627 14.709 14.709 0 0 1 3.527-4.619 16.884 16.884 0 0 1 5.291-3.107 18.011 18.011 0 0 1 6.55-1.176zm5.963 14.277a5.761 5.761 0 0 1-3.275 1.176 9.424 9.424 0 0 1-3.359-.84 2.992 2.992 0 0 1-1.68-2.687 6.4 6.4 0 0 0 3.107.5 5.829 5.829 0 0 0 2.6-1.008 5.536 5.536 0 0 0 1.68-2.268 5.866 5.866 0 0 0 .168-3.191v-.168a7.179 7.179 0 0 0-1.848-2.351 4.841 4.841 0 0 0-3.359-1.008 5.694 5.694 0 0 0-3.107.756 8.768 8.768 0 0 0-2.016 1.932 8.488 8.488 0 0 0-1.092 2.519 12.817 12.817 0 0 0-.252 2.519V215.9a11.994 11.994 0 0 0 .252 2.435 6.627 6.627 0 0 0 1.008 2.519 8.769 8.769 0 0 0 1.932 2.016 6.527 6.527 0 0 0 6.215.084 5.79 5.79 0 0 0 1.848-1.932 8.207 8.207 0 0 0 .924-2.519 12.817 12.817 0 0 0 .252-2.519z" class="cls-1" data-name="Path 158" transform="translate(-107.258 -154.919)"/>
    <path id="Path_159" d="M359.456 156.584a15.808 15.808 0 0 1 11.841 5.039 16.245 16.245 0 0 1 3.443 5.459A18.348 18.348 0 0 1 376 173.8v33.929a18.348 18.348 0 0 1-1.26 6.719 17.673 17.673 0 0 1-3.443 5.459 15.939 15.939 0 0 1-11.841 5.039H339.3a8.488 8.488 0 0 0 1.092-2.519 27.632 27.632 0 0 0 .756-3.611 42.163 42.163 0 0 0 .336-5.627v-44.93a42.163 42.163 0 0 0-.336-5.627 27.633 27.633 0 0 0-.756-3.611 8.489 8.489 0 0 0-1.092-2.521zm6.383 17.3a24.67 24.67 0 0 0-.42-4.283 17.462 17.462 0 0 0-1.764-4.955 12.5 12.5 0 0 0-3.527-4.031 9.553 9.553 0 0 0-5.795-1.68h-2.687v52.908a5.847 5.847 0 0 1 1.932-.924 6.482 6.482 0 0 1 3.107 0 2.842 2.842 0 0 1 2.1 2.016 5.582 5.582 0 0 0-5.207 2.016 5.79 5.79 0 0 0-1.176 2.519 4.714 4.714 0 0 0 .42 3.023 2.944 2.944 0 0 0 1.428 1.428 5.118 5.118 0 0 0 2.687.672h.756a5.011 5.011 0 0 0 3.7-1.6 12.557 12.557 0 0 0 2.519-4.031 25.01 25.01 0 0 0 2.016-9.238z" class="cls-1" data-name="Path 159" transform="translate(-116.917 -155.063)"/>
    <path id="Path_160" d="M408.928 155.6a17.4 17.4 0 0 1 6.551 1.176 17.806 17.806 0 0 1 5.123 3.107 13.106 13.106 0 0 1 3.359 4.619 14.372 14.372 0 0 1 1.176 5.627V211.2a13.2 13.2 0 0 1-1.26 5.711 14.127 14.127 0 0 1-3.443 4.535 17.806 17.806 0 0 1-5.123 3.107 19.122 19.122 0 0 1-6.467 1.176 18.138 18.138 0 0 1-6.635-1.176 15.621 15.621 0 0 1-5.209-3.112 13.844 13.844 0 0 1-3.443-4.535 13.474 13.474 0 0 1-1.26-5.711v-40.982a13.1 13.1 0 0 1 1.26-5.627 13.564 13.564 0 0 1 3.527-4.619 16.885 16.885 0 0 1 5.291-3.107 15.974 15.974 0 0 1 6.553-1.26zm5.963 14.277a5.761 5.761 0 0 1-3.275 1.176 9.424 9.424 0 0 1-3.359-.84 2.992 2.992 0 0 1-1.68-2.687 6.4 6.4 0 0 0 3.107.5 5.829 5.829 0 0 0 2.6-1.008 5.536 5.536 0 0 0 1.68-2.268 5.866 5.866 0 0 0 .168-3.191v-.168a7.179 7.179 0 0 0-1.848-2.351 4.841 4.841 0 0 0-3.359-1.008 5.694 5.694 0 0 0-3.107.756 8.768 8.768 0 0 0-2.016 1.932 8.488 8.488 0 0 0-1.092 2.519 12.817 12.817 0 0 0-.252 2.519V215.9a11.994 11.994 0 0 0 .252 2.435 6.627 6.627 0 0 0 1.008 2.519 8.769 8.769 0 0 0 1.932 2.016 6.527 6.527 0 0 0 6.215.084 5.79 5.79 0 0 0 1.848-1.932 8.207 8.207 0 0 0 .924-2.519 12.817 12.817 0 0 0 .252-2.519z" class="cls-1" data-name="Path 160" transform="translate(-125.407 -154.919)"/>
    <path id="Path_161" d="M462.263 207.3a3.826 3.826 0 0 1 2.435-.924 7.626 7.626 0 0 1 3.359.5 8.209 8.209 0 0 1 3.023 2.351 6.806 6.806 0 0 1 1.26 4.535 14.75 14.75 0 0 1-.588 3.779 10.238 10.238 0 0 1-2.1 3.863 11.436 11.436 0 0 1-4.2 3.023 17.5 17.5 0 0 1-6.887 1.176 20.954 20.954 0 0 1-7.558-1.176 16.761 16.761 0 0 1-5.459-3.107 13.106 13.106 0 0 1-3.359-4.619 14.294 14.294 0 0 1-1.092-5.627v-41.147a14.294 14.294 0 0 1 1.092-5.627 13.106 13.106 0 0 1 3.359-4.619 16.761 16.761 0 0 1 5.459-3.107 22.954 22.954 0 0 1 7.558-1.176 19.962 19.962 0 0 1 7.978 1.344 13.418 13.418 0 0 1 4.7 3.359 11.881 11.881 0 0 1 2.351 4.283 14.1 14.1 0 0 1 .588 4.2 11.82 11.82 0 0 1-.924 5.123 11.518 11.518 0 0 1-2.435 3.527 9.533 9.533 0 0 1-3.275 2.1 8.36 8.36 0 0 1-3.191.672 11.78 11.78 0 0 1-3.443-.5 10.289 10.289 0 0 1-2.939-1.344 9.175 9.175 0 0 1-2.016-2.016 4.376 4.376 0 0 1-.756-2.435 8.822 8.822 0 0 0 6.383-.336 7.958 7.958 0 0 0 4.373-4.375 8.731 8.731 0 0 0-.252-6.886 7.994 7.994 0 0 0-2.519-3.023 7.064 7.064 0 0 0-4.451-1.26 7.224 7.224 0 0 0-3.527.756 7.437 7.437 0 0 0-2.351 1.932 5.791 5.791 0 0 0-1.176 2.519 7.766 7.766 0 0 0-.336 2.435v50.137a12.141 12.141 0 0 0 .336 2.435 8.662 8.662 0 0 0 1.176 2.519 6.617 6.617 0 0 0 2.351 1.932 7.432 7.432 0 0 0 3.527.756 7.159 7.159 0 0 0 5.543-2.184 9.818 9.818 0 0 0 1.764-10.582 7.057 7.057 0 0 0-3.781-3.186z" class="cls-1" data-name="Path 161" transform="translate(-133.224 -154.885)"/>
    <path id="Path_162" d="M522.86 156.6l-.84 9.574h-2.184c-.336-1.176-.672-2.267-.924-3.191a4.728 4.728 0 0 0-1.428-2.184 6.255 6.255 0 0 0-2.687-1.344 18.48 18.48 0 0 0-4.787-.42v54.252c0 1.848.084 3.779.252 5.627a25.016 25.016 0 0 0 .756 3.611 5.644 5.644 0 0 0 1.092 2.519h-14.444a13.434 13.434 0 0 0 1.092-2.519 27.628 27.628 0 0 0 .756-3.611 42.158 42.158 0 0 0 .336-5.627v-54.252a18.162 18.162 0 0 0-4.787.42 5.447 5.447 0 0 0-2.687 1.344 4.728 4.728 0 0 0-1.428 2.184c-.252.924-.588 1.932-.924 3.191h-2.184L487 156.6z" class="cls-1" data-name="Path 162" transform="translate(-140.576 -155.079)"/>
    <path id="Path_163" d="M555.112 155.6a17.4 17.4 0 0 1 6.551 1.176 16.745 16.745 0 0 1 5.123 3.107 13.107 13.107 0 0 1 3.359 4.619 14.371 14.371 0 0 1 1.176 5.627V211.2a13.2 13.2 0 0 1-1.26 5.711 15.454 15.454 0 0 1-3.443 4.619 17.807 17.807 0 0 1-5.123 3.107 19.122 19.122 0 0 1-6.467 1.176 18.139 18.139 0 0 1-6.635-1.176 16.885 16.885 0 0 1-5.291-3.107 13.844 13.844 0 0 1-3.443-4.535 13.474 13.474 0 0 1-1.26-5.711v-41.071a13.1 13.1 0 0 1 1.26-5.627 14.709 14.709 0 0 1 3.527-4.619 16.885 16.885 0 0 1 5.291-3.107 16.636 16.636 0 0 1 6.635-1.26zm5.963 14.277a5.761 5.761 0 0 1-3.275 1.176 9.423 9.423 0 0 1-3.359-.84 2.9 2.9 0 0 1-1.68-2.687 6.4 6.4 0 0 0 3.107.5 6.575 6.575 0 0 0 2.687-1.008 5.04 5.04 0 0 0 1.68-2.268 5.865 5.865 0 0 0 .168-3.191v-.168a7.18 7.18 0 0 0-1.848-2.351 4.841 4.841 0 0 0-3.359-1.008 5.694 5.694 0 0 0-3.107.756 7.048 7.048 0 0 0-1.932 1.932 8.49 8.49 0 0 0-1.092 2.519 12.817 12.817 0 0 0-.252 2.519V215.9a11.991 11.991 0 0 0 .252 2.435 6.627 6.627 0 0 0 1.008 2.519 8.768 8.768 0 0 0 1.932 2.016 6.362 6.362 0 0 0 6.131.084 5.789 5.789 0 0 0 1.848-1.932 8.2 8.2 0 0 0 .924-2.519 12.817 12.817 0 0 0 .252-2.519z" class="cls-1" data-name="Path 163" transform="translate(-148.81 -154.919)"/>
    <path id="Path_164" d="M618.4 214.2a39.43 39.43 0 0 0 2.435 6.635 8.718 8.718 0 0 0 3.359 3.611 9.191 9.191 0 0 1-3.191 1.176 17.367 17.367 0 0 1-2.939.252 11.174 11.174 0 0 1-6.047-2.1 9.969 9.969 0 0 1-3.527-5.963l-5.879-28.722a8.495 8.495 0 0 1-4.871-1.848v25.95c0 1.848.084 3.779.252 5.627a25.016 25.016 0 0 0 .756 3.611 5.644 5.644 0 0 0 1.092 2.519H585.4a8.489 8.489 0 0 0 1.092-2.519 27.627 27.627 0 0 0 .756-3.611 42.158 42.158 0 0 0 .336-5.627v-44.93a42.148 42.148 0 0 0-.336-5.627 25.016 25.016 0 0 0-.756-3.611 8.489 8.489 0 0 0-1.092-2.523h17.048a27.786 27.786 0 0 1 6.97.84 13.159 13.159 0 0 1 5.375 2.771 12.777 12.777 0 0 1 3.527 4.871 18.127 18.127 0 0 1 1.26 7.306c0 4.535-1.092 8.314-3.359 11.17a14.765 14.765 0 0 1-9.574 5.375 21.357 21.357 0 0 1 2.353 1.344 12.213 12.213 0 0 1 2.435 2.184 19.558 19.558 0 0 1 2.184 3.191 16.025 16.025 0 0 1 1.6 4.367zm-19.652-29.561a3.3 3.3 0 0 0 1.512 1.512 5.286 5.286 0 0 0 2.771.756 4.433 4.433 0 0 0 3.191-1.176 6.721 6.721 0 0 0 1.932-3.107 22 22 0 0 0 1.008-4.535q.252-2.645.252-5.543a20.005 20.005 0 0 0-.84-6.3 10.817 10.817 0 0 0-2.184-4.115 8.167 8.167 0 0 0-6.383-3.023h-2.352v17.132a4.8 4.8 0 0 1 1.764-1.092 6.1 6.1 0 0 1 2.1-.336 4.107 4.107 0 0 1 1.932.672 3.753 3.753 0 0 1 1.344 1.68 5.792 5.792 0 0 0-2.939.252 5.04 5.04 0 0 0-2.268 1.68 5.791 5.791 0 0 0-1.176 2.519 6.144 6.144 0 0 0 .341 3.019z" class="cls-1" data-name="Path 164" transform="translate(-156.339 -155.063)"/>
    <path id="Path_165" d="M644.156 167.228a13.7 13.7 0 0 0 1.932 7.054 34.628 34.628 0 0 0 4.787 6.3c1.932 2.016 3.947 4.115 6.131 6.047a54.306 54.306 0 0 1 6.131 6.3 40.118 40.118 0 0 1 4.787 7.054 19.605 19.605 0 0 1 1.932 8.482c0 6.047-1.512 10.75-4.451 14.193s-7.474 5.123-13.437 5.123a25.167 25.167 0 0 1-6.551-.924 17.182 17.182 0 0 1-5.543-2.771 14.567 14.567 0 0 1-3.863-4.619 14.259 14.259 0 0 1-1.512-6.383 13.044 13.044 0 0 1 3.863-9.742 11.9 11.9 0 0 1 3.611-2.435 9.083 9.083 0 0 1 3.611-.84c3.443 0 5.963.756 7.558 2.184a6.7 6.7 0 0 1 2.268 4.955 8.73 8.73 0 0 0-3.611-.42 10.32 10.32 0 0 0-3.527.84 8.783 8.783 0 0 0-2.855 2.016 9.043 9.043 0 0 0-1.932 2.855 8.533 8.533 0 0 0-.588 4.367 10.339 10.339 0 0 0 1.344 4.115 8.685 8.685 0 0 0 3.022 3.021 8.959 8.959 0 0 0 4.367 1.176 11.462 11.462 0 0 0 4.7-.924 10.192 10.192 0 0 0 3.275-2.351 8.483 8.483 0 0 0 1.848-3.275 12.923 12.923 0 0 0 .588-3.527 17.034 17.034 0 0 0-1.932-8.062 35.4 35.4 0 0 0-4.787-6.8q-3.023-3.275-6.3-6.3a64.489 64.489 0 0 1-6.3-6.383 33.68 33.68 0 0 1-4.787-7.054 19 19 0 0 1-.588-15.285 15.338 15.338 0 0 1 3.7-5.459 16.145 16.145 0 0 1 5.711-3.611 19.769 19.769 0 0 1 7.306-1.344 16.944 16.944 0 0 1 7.306 1.428 16.179 16.179 0 0 1 4.787 3.443 13.1 13.1 0 0 1 2.435 13.941 10.334 10.334 0 0 1-2.519 3.7 10.651 10.651 0 0 1-3.275 2.184 10.943 10.943 0 0 1-3.275.756 12.786 12.786 0 0 1-3.527-.5 9.994 9.994 0 0 1-3.023-1.428 7.994 7.994 0 0 1-2.1-2.016 4.444 4.444 0 0 1-.756-2.519 7.58 7.58 0 0 0 3.359.42 9.686 9.686 0 0 0 5.963-2.6 8.3 8.3 0 0 0 1.764-2.687 6.907 6.907 0 0 0 .5-3.191 9.554 9.554 0 0 0-.84-3.779 8.528 8.528 0 0 0-2.519-3.191 7.466 7.466 0 0 0-4.619-1.344 8.364 8.364 0 0 0-4.031.924 11.333 11.333 0 0 0-2.939 2.351 10.6 10.6 0 0 0-1.848 3.275 5.585 5.585 0 0 0-.751 3.26z" class="cls-1" data-name="Path 165" transform="translate(-164.202 -154.789)"/>
    <path id="Path_166" d="M90.141 185.2l-.336 3.7h-.84c-.168-.5-.252-.924-.336-1.26a1.42 1.42 0 0 0-.588-.84 2.838 2.838 0 0 0-1.008-.5 6.89 6.89 0 0 0-1.848-.168v21.163a18.267 18.267 0 0 0 .084 2.184 8.785 8.785 0 0 0 .336 1.428 2.587 2.587 0 0 0 .42 1.008H80.4a5.138 5.138 0 0 0 .42-1.008 8.487 8.487 0 0 0 .252-1.428 19.109 19.109 0 0 0 .168-2.184v-21.171a6.89 6.89 0 0 0-1.848.168 2.6 2.6 0 0 0-1.092.5 3.016 3.016 0 0 0-.588.84 12.987 12.987 0 0 0-.336 1.26h-.84l-.336-3.7z" class="cls-1" data-name="Path 166" transform="translate(-74.772 -159.661)"/>
    <path id="Path_167" d="M109.461 207.371a18.267 18.267 0 0 0 .084 2.184c.084.5.168.924.252 1.428a5.138 5.138 0 0 0 .42 1.008h-5.627a5.138 5.138 0 0 0 .42-1.008 8.486 8.486 0 0 0 .252-1.428 19.107 19.107 0 0 0 .168-2.184v-11.925h-5.459v11.925a18.267 18.267 0 0 0 .084 2.184c.084.5.168.924.252 1.428a5.138 5.138 0 0 0 .42 1.008H95.1a5.138 5.138 0 0 0 .42-1.008 8.486 8.486 0 0 0 .252-1.428 19.109 19.109 0 0 0 .168-2.184v-17.552a19.109 19.109 0 0 0-.168-2.184c-.084-.5-.168-.924-.252-1.428a5.137 5.137 0 0 0-.42-1.008h5.627a5.137 5.137 0 0 0-.42 1.008 3.923 3.923 0 0 0-.252 1.428 18.983 18.983 0 0 0-.084 2.184v4.367h5.459v-4.367a9.22 9.22 0 0 0-.168-2.184c-.084-.5-.168-.924-.252-1.428a5.137 5.137 0 0 0-.42-1.008h5.627a5.138 5.138 0 0 0-.42 1.008c-.084.5-.168.924-.252 1.428a19.109 19.109 0 0 0-.168 2.184l.084 17.552z" class="cls-1" data-name="Path 167" transform="translate(-77.8 -159.661)"/>
    <path id="Path_168" d="M128.181 211.89H115.5a5.137 5.137 0 0 0 .42-1.008 8.486 8.486 0 0 0 .252-1.428 19.109 19.109 0 0 0 .168-2.184v-17.551a9.22 9.22 0 0 0-.168-2.184c-.084-.5-.168-.924-.252-1.428a5.137 5.137 0 0 0-.42-1.008h12.345l-.336 3.7h-.84a12.988 12.988 0 0 0-.336-1.26 1.92 1.92 0 0 0-.588-.84 2.6 2.6 0 0 0-1.092-.5 16.3 16.3 0 0 0-2.016-.168h-2.268v8.146a8.771 8.771 0 0 0 2.1 0l1.6-.168c.5-.084 1.008-.168 1.428-.252v.5a4.915 4.915 0 0 1-.168 1.092 1.262 1.262 0 0 1-.84.756 3.181 3.181 0 0 1-1.26 0l-2.855-.756v14.025a1.065 1.065 0 0 0 .084.5c.084.168.168.42.336.5a1.829 1.829 0 0 0 .672.42 2.669 2.669 0 0 0 1.176.168h1.344a2.968 2.968 0 0 0 1.428-.336 2.024 2.024 0 0 0 .84-.84 2.944 2.944 0 0 0 .5-1.176c.084-.42.252-.924.336-1.344h.84z" class="cls-1" data-name="Path 168" transform="translate(-81.068 -159.645)"/>
    <path id="Rectangle_30" d="M0 0h48.709v1.596H0z" class="cls-1" data-name="Rectangle 30" transform="translate(0 17.813)"/>
    <path id="Rectangle_31" d="M0 0h48.709v1.596H0z" class="cls-1" data-name="Rectangle 31" transform="translate(0 57.452)"/>
</svg>
