<svg id="Layer_1" data-name="Layer 1" xmlns="http://www.w3.org/2000/svg" viewBox="0 0 205 80"><defs><style>.cls-1{fill:#f4ae00;}.cls-2{fill:#110a1a;}</style></defs><title>pangolin-buttons</title><rect class="cls-1" x="73.08" y="-52.43" width="58" height="185.87" transform="translate(61.35 142.49) rotate(-89.87)"/><path class="cls-1" d="M194.29,69.71c.08.25.28.11.24-.6l-.33-.5Z"/><path class="cls-1" d="M194.91,65c-.16-.83-.44-1.79-.74-1.26.31.83.18,1,.56,1.92,0,.7-.11,1.23-.24,1.11.09.25-.07,1.1.14,1.48a7.86,7.86,0,0,0,.06-3.3C194.76,64.64,194.85,64.89,194.91,65Z"/><path class="cls-1" d="M179.15,11.21l.45,0Z"/><path class="cls-1" d="M136.3,10.93c.33,0,.46,0,.48-.07C136.47,10.88,136.23,10.9,136.3,10.93Z"/><path class="cls-1" d="M129,10.55l.43,0A1.3,1.3,0,0,0,129,10.55Z"/><path class="cls-1" d="M179.15,11.21,178,11.1C177.93,11.21,178.6,11.18,179.15,11.21Z"/><path class="cls-1" d="M194.13,55.41a4.59,4.59,0,0,0,.09.62c0-.2,0-.39,0-.58Z"/><path class="cls-1" d="M195.81,14.68V15a1.28,1.28,0,0,0,.13.29Z"/><path class="cls-1" d="M195.82,29.17c0-.32-.26-.44-.39-.56a1.57,1.57,0,0,1,.2.71C195.68,29.33,195.74,29.28,195.82,29.17Z"/><path class="cls-1" d="M195.28,52.16l0,.41C195.31,52.46,195.29,52.29,195.28,52.16Z"/><path class="cls-1" d="M187.67,10.9a.32.32,0,0,0-.13-.1S187.59,10.87,187.67,10.9Z"/><path class="cls-1" d="M178.15,68.35s0,0,0,.05S178.26,68.35,178.15,68.35Z"/><path class="cls-1" d="M195,69.78l-.23,0a.3.3,0,0,0-.05.15Z"/><path class="cls-1" d="M115.59,10.16h.06C116,10.14,115.8,10.14,115.59,10.16Z"/><path class="cls-1" d="M8,27.84c.26-1.39.32,2.27.6.17C8.5,28.21,8.18,26.11,8,27.84Z"/><path class="cls-1" d="M194.17,55v-.59A5.65,5.65,0,0,0,194.17,55Z"/><path class="cls-1" d="M8.61,28h0l0-.21Z"/><path class="cls-1" d="M84.74,10.26a.83.83,0,0,0,.31.12S85,10.32,84.74,10.26Z"/><path class="cls-1" d="M107.72,10.71l-.57,0A4.31,4.31,0,0,0,107.72,10.71Z"/><path class="cls-1" d="M72.8,10.63a3.65,3.65,0,0,0-.83,0l.12,0A2,2,0,0,1,72.8,10.63Z"/><path class="cls-1" d="M60.38,10.6a1.55,1.55,0,0,0,.23.06H61Z"/><path class="cls-1" d="M140.4,68.4a1.92,1.92,0,0,1,.57.26C140.78,68.46,142.6,68.39,140.4,68.4Z"/><path class="cls-1" d="M194.29,55.4a.54.54,0,0,1-.12-.37c0,.15,0,.28,0,.42S194.27,55.49,194.29,55.4Z"/><path class="cls-1" d="M72.29,12.85l-2,0C70.87,12.83,71.59,12.85,72.29,12.85Z"/><path class="cls-1" d="M51.28,68.24l.45,0A1.57,1.57,0,0,0,51.28,68.24Z"/><path class="cls-1" d="M64.46,12.83a6.42,6.42,0,0,0-1.11-.2,1.25,1.25,0,0,0-.23.07Z"/><path class="cls-1" d="M141,68.66Z"/><path class="cls-1" d="M154,68c-1.88,0-.88.36-1.28.57-2.24.1-1-.27-1.8-.46-1.4.09-2.48.43-3.52.41-.08-.06-.28-.08-.05-.16-1.48.29-4.39,0-6.12.37a.59.59,0,0,1-.23-.09c.28.19.32.37.27.51-.85,0-1.57.23-1.88,0a1.52,1.52,0,0,0,.8-.16l-.89.1c-.79-.35,1.21-.11,1.21-.37a45.54,45.54,0,0,1-5,.29c-.28-.34,3.09-.11,1.33-.41l2,.13c-1.56-.54,1.24,0-.19-.54-2.69-.1-3,.17-5.69.07-.61.18.2.28-.41.46-3.81.33-3-.86-5.8-.41a4.61,4.61,0,0,1-3,.42l.68-.38c-2.6,0-1.48.55-4.21.28.49-.15,2-.12,1.65-.17-1.76-.3-1.25.22-2.6.22l-.28-.35c-2.77,0-5.83.29-8.9.35.17-.1.7-.21,0-.32-3.87.17-8.26-.06-12-.27l-1.43.29c-.33,0-.61-.13-.25-.19-1.46-.11-.08.19-.78.3s-1.09-.17-.57-.25a59.48,59.48,0,0,1-10,.2l.52-.09c-2.1-.12-2.37.6-4.33.32l.38,0c-4.57-.14-9.62.12-13.11-.33-.67.42-4.52-.2-4.82.39a46.91,46.91,0,0,0-5.54-.61c-1,0-1.46.36-2.68.42l0-.31-1.65.32-.88-.37-1.14.08c.46,0,1,.14.9.23a13.22,13.22,0,0,1-4.38-.38L44,68.31a4.34,4.34,0,0,1,1.36-.24c-2.25.31-.41-.33-2.47,0,.28.07-.15.19-.2.25a29.79,29.79,0,0,0-5.08-.12l.33-.21c-3.12-.06-6.58.08-10.08.07,1.25.1,1,.47-.06.5l-.41-.32c-.67.2,1.07.12-.29.37-1.31,0-.88-.38-.13-.48l-1.59.11c-.09-.1.28-.15.38-.27-.66.2-2.75-.34-3.69,0L22,67.84c-3.5,0-5.09.1-7.94.1-.06.29-1.17.22-2,.45l-1.4-.08-.5-.09.06-.34c0-.14,0-.08,0-.52q0-1,0-2c-.14-1.77-.24-.52-.4-1.31.25-.13.24-2.66.42-1.35,0-3-.05-3.87-.25-7.7-.1.41-.15.88-.23.64-.05-.7.11-1.58.23-1.48l0,.18c-.38-4.3.76-9.93.24-13.36l0,.2-.27-3.56c.05-1.63.19,1,.36-.23-.42-3.83.07-6.05-.21-9.21.76-2.44,0-8.67.46-12l-.18.19c-.17-.86.1-1,.15-1.66-.14.09-.17.92-.26.39,0-.87,0-1.76-.05-2.66l3.45.06,4.64.14L27.7,13c2.71.06,1.54-.92,4.95-.48l-1,.33c5.47-.39,11.18,0,16.52-.29a2,2,0,0,1-.85.17,12,12,0,0,0,4.2-.17c.83,0,.19.17.71.28,1.13.14,2.84-.3,3.44-.06.11,0-.32.07-.52.09.74-.11,3.44,0,2.73-.24,2,.14,3.84-.11,5.44.05,1.05-.3,3.44.16,3.77-.28-.14.45,3.52.38,4.79.17-.43.13,1.1.14.6.33,1.45,0,2.78-.09,2.53-.32,2.66.55,5.36-.42,6.86.27,4.31-.23,8.29-.39,12.16-.48-.14.45-4.28,0-4.12.51,3.68-.18,5.79-.56,9.44-.45.94.07-.54.2-.86.27,3.67-.17,7.09.06,10.36-.18a2,2,0,0,1-.7.12c.65,0,1.5.07,1.43-.13l-.63,0c-1-.3,2.56-.61,2.67-.77-1.09.58,3.23.15,1.49.89.42,0,1-.13.86-.27.63,0,.82.12.19.28,2.3-.11,1.48-.33,3.57-.32,0,.1-.43.14-.64.25a15,15,0,0,1,3.88-.29c-.11.06.1.14-.43.14,3,0,5.17-.51,8.49-.31-1,.43,1.13.14,1.31.51l1.78-.1-.71-.19c1.56,0,2.95-.25,4.29-.13l-1.16.15,2.93-.06-1.66-.15c1.59-.19-.17-.47,1.92-.36-.43,0,1.56,0,2.38.23h0a10.74,10.74,0,0,1,2.73-.15c.3.12-.24.42-.05.5.77-.31,3.67-.08,4.64-.41-.32.07-.34.27-.23.31l.64-.25c.72.08.83.12.71.28,2.18.05-.69-.48,1.9-.27a4.6,4.6,0,0,1-.53.1c2.6.11,5-.15,7.41,0,.7.37-2.09.09-1.28.4,3.44-.06,7.13-.43,10.47-.33l-.62-.05c.46-.53,2.48.27,4.17,0-.42,0-.55.3-.44.24,2.29.09,4.67-.12,8.13-.28l-.43.13c1.35.13,3.55.08,5,.15.43-.14,1.26-.11.76-.31a26.74,26.74,0,0,0,6.16.19c1,0,2-.11,2.94-.13.46,0,1,0,1.39,0a5.84,5.84,0,0,1,.94.12c0,.14,0,.28-.08.42a.93.93,0,0,0,0-.31c-.19,0-.31.08-.19.08h.12l.06.87.05,1.58c.24-.26.14-.44.33-1.15A9,9,0,0,1,195,16c-.15-1.52-.37,0-.5.67.07-.11.15.12.22.06-.41,1.77.47.3.19,2.72l-.13-.13A25.8,25.8,0,0,1,195,22c-.27.4-.13-1-.35-1,0,1.37.5,2.71.23,3.95-.07-.59-.07-1.42-.14-2a9.19,9.19,0,0,0-.29,2.5v-.09l-.15,2.31.09-.59c.69,1.72.12,3.49.57,5.8-.43-2.24-.25-.37-.55-.54-.09.59-.19,1.48-.27,1.23.24,1.09-.2,1.82.16,3.36-.1.07,0,1.17-.26.92.07,1.42.17-.34.29-.22.33,2.19-.41,5.14,0,8.29.18,2.71.51,3.21.67,5.73-.16.85-.36-.7-.36-.7a18.31,18.31,0,0,0,0,3.7c-.09-.27-.16,0-.27.4,0,1,.35.69.21,2.06a4.4,4.4,0,0,1-.39-1c.08,1.22.26,2.43.35,3.69-.17.34-.26-.76-.37-1.21a19.21,19.21,0,0,0,.42,4.12l.09-.91c0,.52-.23.27-.27-.11-.21-1.22.09-1.76.19-1.83l.06.9c.57-.92-.08-3.61-.05-5.43l.42.76-.34-1.86c.11-.39.34-.66.4.23.21-1.3-.15-1.15.09-2.26,0-.13,0-.07.07,0l-.12-1.27c.08.25.29-.21.23.57.24-2.28-.3-3.67,0-4.53l0,.19c-.14-3.16-.31-.31-.66-2.68l.76-1.59-.31-.31c0-.33,0-1,.16-.86-.21-1.21-.13.21-.33-.49.28-1.57-.12-4.33.37-4.69-.23-.56-.18,1.51-.34-.17.52-.48-.09-1.94.16-3.37.27.44.12,1.8.36.36-.45-.86.11-2.79,0-4-.37-.06-.15-2.63-.27-4.66.12.13.21-3.82.35-5.71l.06.06c-.37-.37-.3-2.32-.37-3.73.22.05.31.31.4,1.08V15a5.24,5.24,0,0,1-.22-1.59l.27.33,0-1.28L195.77,11l-2.49.08c-.63,0-1.29,0-2,0-.13.25,1.81.71-.6.88-.09-.14-.18-.38.45-.43a5.54,5.54,0,0,1-1.15.05l1-.23c-1-.11-.54.19-1.37.17,0-.2-.62-.14-.5-.3a7,7,0,0,0,1,0,11,11,0,0,1-2.44-.31c.08.11,0,.27-.69.29-1.77,0-.6-.24-1.64-.34-.43.13-1.56,0-1.59.28a1.44,1.44,0,0,1-.82-.22c-.92.13-4.29,0-3.25.35l.23,0h-.15c-3,.29-6.25-.18-9.24-.06v-.1c-1.79.11-4,.06-5.24.27-.53,0-1.25-.19-1-.3a16.56,16.56,0,0,1-3.49,0c1.37-.17-.47-.15,1.41-.12a15.5,15.5,0,0,0-4.08,0c.65-.26-1.33-.33-2.17-.25l1.24.18c-1,0-1.77,0-2.62,0l.46-.33c-3.62-.42-6.54.67-9.29,0-1,.23,2,.17,1.11.44-1.67,0-3.41-.53-3.93-.54-2.28-.19-2.13.49-4.52.35.31.12.59.44-1.19.55-1.67-.05-2-.5-1-.6.4,0,.59,0,.58.07.54,0,1.24-.09.58-.22l-.21.12c-.83-.12-3.13-.12-2.59-.31-1.26.11-.54.19.4.26-2.14-.18-3.34,0-5.55-.14.35.07.68.21.33.21-3.23-.16-1.43.22-3.61.27-1.25-.19.44-.43-1.76-.29-1.35-.12-.29-.31.25-.41a25.91,25.91,0,0,1-4.9-.2l1.06-.09c-.63,0-1.15,0-1.68,0l.61.24c-.62,0-1.15,0-1.14-.15-.64.16.49.4-.78.61-.83-.13-2.52.12-2.81-.19,2.61.11-.28-.32,1.92-.37a9.19,9.19,0,0,1-1.57,0c-.09,0,.09-.06.26-.08-2.49-.29-1.14.35-3.72.34.32-.18-.6-.34-1-.3,1,0,.49.3-.46.43a15.79,15.79,0,0,0-2.67.08l1,.07a8.42,8.42,0,0,1-2.32.2c-.09-.13,1-.09.64-.15-1.28.31-2.89-.33-4.68-.12-.83-.13-.08-.34-.81-.42-2,.23-2.16-.25-4.27-.06.61.24.71.18-.77.41l3.46-.16-2.22.34c1,0,2.2-.15,2.83-.1-1.06.19-.95.13-.45.33-1.43-.36-2.83.2-4.48,0l0-.59c-2.49-.27-4.41.29-7.64.13l1,.11a18.43,18.43,0,0,1-3,.12c.1-.2-.55-.27-1-.4.06.15-2.36,0-2.65.38L81,10.5c-2.6-.12-3,.55-5.47.48.75-.21-.39-.36,1.29-.51-.84,0-1.59,0-1.6.1-.49-.13-2.32.26-3.09.07a2.87,2.87,0,0,1-1.4.27c-.1,0,0-.09,0-.09s-1.47.13-.65.35c-2.57-.62-7.19,0-9.43-.51-1.82.06-4,.12-5.68.13.11-.06,0-.1.32-.07-2.28-.19-1.4.56-4,.35-1.33-.32,1.38-.17.55-.29-.36-.65-3.13.08-4.88-.3l.42,0c-1.33-.23-3.26.24-5.44.19,0,0,.1-.06,0-.1a47.77,47.77,0,0,1-6.42.52c.65-.26.95-.14.55-.4-.94,0,.28.42-1.6.49-.61-.14-2-.27-2.15-.54h1.78c-.91-.36-2.3,0-3.23-.06l.12-.16c-2.72.05-2.76.44-5.68.41l.3.11c-1.59.39-1.34-.22-2.93.07l-.48-.4c-1.05.1-3.69.38-5.58.45a46.34,46.34,0,0,1,4.65-.61,24.65,24.65,0,0,0-4.09.21,7,7,0,0,1,1.37-.07,21.83,21.83,0,0,1-5,.45c.12-.25-.42-.36-1.25-.41-.42,0-.89,0-1.43-.05l-2.38,0c0,.82,0,1.61-.09,2.33A3.74,3.74,0,0,1,8.1,14c.28,3.68-.13,7.3-.1,11.59.6-1.52,0,1.25.63,1a6.15,6.15,0,0,1,0,1.47l-.37,3c-.18.72-.13-1-.27-.85,0,2.18-.26.91-.42,2.36.21-.3.31.76.22,2l.29-1.76c.32,3.06-.52,2.64-.21,5.72l-.19-1c.11,1.58,0,5.83.47,7.38-.07.28-.24.65-.28-.05-.08,3.78.51,8.41.2,11.34l-.15-.28A7,7,0,0,1,8,58c-.06,0-.15-.28-.15,0A15,15,0,0,1,8,60.88l-.16-.8A27.62,27.62,0,0,0,8,64.68c.07.67.14,1.32.21,2,0,.34.06.69.09,1.06s0,1.05.06,1.6c-.11.08-.2.4-.28,1a11.29,11.29,0,0,0,1.25.15l1.6.11c.73.06,1.48.1,2,.13l0,.06c4.29.06,7.29-.35,11.26-.51,2.47.48,8.35.22,12.32.49-.61-.08.1-.34.8-.38.93.09,2.57-.3,2.42.1h-.33c.7.4,2.61.3,4.11.31l.24-.52C47.63,71,54,70,56.08,70.65c.94-.13,2.11-.13,3-.26l0,.29c2.61.08,3.92.11,7.14,0l-.66.2c1.82,0,2.3-.81,4-.82l.51.42c3.17,0,6.38.38,9.52,0,0,.06-.14.18-.66.2,1.5,0,5.78.3,5.24-.29,0,.38,3.28,0,5-.11l-.27.27a12.23,12.23,0,0,1,3.52-.54c.48,0,.42.22-.22.15,1.6.15,1.25-.26,3.18-.11l-.72.18A6.1,6.1,0,0,0,97,70a8.51,8.51,0,0,1,3.35.33,4.43,4.43,0,0,1,2.09-.28c.13.1-.22.15-.4.18,2.75.2,4.08-.31,6,0,0,.09.16.14.32.16-2.18,0-3.94,0-3.77-.05,0,.26,1.76.31.36.66a30,30,0,0,1,5.55-.48.73.73,0,0,1,.22.09l-.17,0a6.26,6.26,0,0,0,1.08,0c.55,0,.9.07,1.42.08a11.91,11.91,0,0,0,2.9.13c-.07-.28,1.08-.23,0-.47.14,0-.16,0-.75.05l-.37,0,.06,0h-2.19a6.19,6.19,0,0,1,2.4-.1c.45-.18.94-.36,1.22-.45,1.2.4,3.52.61,3.84.85,2.69-.15,6.32-.09,8-.61a1.76,1.76,0,0,1,1.16.24,9.61,9.61,0,0,0-1.2.12c1.52-.14,4.52-.05,4.88-.42,1.92.18-1.08.34,1.56.29l-.36.11c5.2.6,8.45-.92,14.21-.15a2,2,0,0,1-.68-.13c6.57.34,13.53-.29,20,.26a9.59,9.59,0,0,0,3.17-.3l.4.3,1.92-.35c2.73-.24,4.72.76,8.17.28l-.44-.2c1.23,0,3.92-.11,3.71.12a1.35,1.35,0,0,1,.89-.1l0,.15,3-.26c2.36.12-.37.63,3.07.66,1.28,0,3.65-.45,3.16-.55s-1.31-.11-1.35-.26l1.17-.08c.21-.47,1.11-.94-1.76-1.28l-2,.28-.65-.22H192a4.65,4.65,0,0,0-2.24.1,1.78,1.78,0,0,0-.84-.25l-2,.44c-.24-.19.88-.36-.44-.47-.92.21.89.41-.64.55-1-.22-.68-.39-1.8-.21-.16-.12.08-.2.52-.25a22.92,22.92,0,0,0-3.16.3c-1-.26-3.38.06-3.28-.38a14.2,14.2,0,0,1-2.68.36c1.68-.52-3.45,0-3-.6-1.24.47-4.49.2-6.69.46a1.32,1.32,0,0,1,.56-.09,21.08,21.08,0,0,1-2.4-.28c-.16.39-2.09.48-3.13.72-1.52-.39.92-.46.45-.83.07.32-2.64.31-2.13.58-1.16-.24-1-.12-1.6-.44-.2.49-1.08.08-2,.38-1.68-.25-.43-.46-2.28-.32C152.33,68.19,154,68,154,68Zm-43.92.75H111Zm-3.69,0H108c.13.1,0,.2-.38.19C107.78,68.91,106.91,68.85,106.36,68.77Zm7.8,2a1.59,1.59,0,0,1-.86-.07l1,0,.07,0A.61.61,0,0,1,114.16,70.73Z"/><path class="cls-1" d="M115.21,70.37l.24,0-.34-.07-.21.09Z"/><path class="cls-1" d="M179.68,11.26h-.08a.62.62,0,0,1,.16,0Z"/><polygon class="cls-1" points="55.39 68.11 55.4 68.19 55.72 68.12 55.39 68.11"/><path class="cls-1" d="M194.52,16.63a.87.87,0,0,0-.07.27A1,1,0,0,0,194.52,16.63Z"/><path class="cls-1" d="M194.44,25.41l-.1,1.25C194.4,26.12,194.42,25.73,194.44,25.41Z"/><path class="cls-1" d="M194.29,32.17a.26.26,0,0,0,.12.13h0Z"/><path class="cls-1" d="M108.18,12.59l-.26,0C107.31,12.66,107.73,12.64,108.18,12.59Z"/><path class="cls-1" d="M140.13,12c-.34.05-.67.1-1,.13C139.67,12.16,140.12,12.17,140.13,12Z"/><path class="cls-1" d="M72.51,12.85Z"/><path class="cls-1" d="M137.62,12.13a7.45,7.45,0,0,0,1.49,0A12.35,12.35,0,0,0,137.62,12.13Z"/><path class="cls-1" d="M194.09,61.43v.32s0,0,0,0Z"/><path class="cls-1" d="M194.13,61.79l0,.36A1.07,1.07,0,0,0,194.13,61.79Z"/><path class="cls-1" d="M194.23,62.92l-.07-.77A2.27,2.27,0,0,0,194.23,62.92Z"/><path class="cls-1" d="M194.24,52.49l-.1-.1A.14.14,0,0,0,194.24,52.49Z"/><path class="cls-1" d="M194.22,49.78a19.9,19.9,0,0,0-.16,2.52l.08.09C194,52,194.39,50.39,194.22,49.78Z"/><path class="cls-1" d="M195.5,38.44l-.08,2.28c.11-.4.25-.92.28.11C196,38,195.45,41.42,195.5,38.44Z"/><path class="cls-1" d="M195.68,31.38c0,1.23.16,0,.22.05C195.8,30.66,195.78,30.47,195.68,31.38Z"/><path class="cls-1" d="M163.75,11l.13-.26C162.94,10.78,163.87,10.84,163.75,11Z"/><polygon class="cls-1" points="154 12.3 154.92 12.46 155.36 12.22 154 12.3"/><polygon class="cls-1" points="148.25 10.46 148.66 10.43 147.09 10.52 148.25 10.46"/><path class="cls-1" d="M62.59,10.36l.29.32C63.51,10.62,63.65,10.27,62.59,10.36Z"/><path class="cls-1" d="M25.61,10.6a4.52,4.52,0,0,0-2.08-.11C24.36,10.51,25.19,10.64,25.61,10.6Z"/><polygon class="cls-1" points="45.58 70.62 44.83 70.72 46.24 70.64 45.58 70.62"/><path class="cls-1" d="M199.75,76.72c.09.28.28.12.25-.66l-.33-.56Z"/><path class="cls-1" d="M200.38,71.45c-.16-.92-.44-2-.75-1.39.32.92.19,1.14.56,2.12,0,.78-.11,1.37-.23,1.23.09.28-.07,1.22.13,1.64a9.42,9.42,0,0,0,.07-3.66C200.23,71.1,200.32,71.38,200.38,71.45Z"/><path class="cls-1" d="M191.73,3.24l.5,0A3.49,3.49,0,0,0,191.73,3.24Z"/><path class="cls-1" d="M144.29,3c.36,0,.51,0,.53-.07C144.48,2.9,144.21,2.92,144.29,3Z"/><path class="cls-1" d="M136.19,2.57l.47,0A1.29,1.29,0,0,0,136.19,2.57Z"/><path class="cls-1" d="M191.73,3.24l-1.26-.11C190.38,3.24,191.12,3.21,191.73,3.24Z"/><path class="cls-1" d="M199.6,60.89a5.83,5.83,0,0,0,.09.69l0-.65Z"/><path class="cls-1" d="M201.29,15.79v.39a1.79,1.79,0,0,0,.13.32Z"/><path class="cls-1" d="M201.3,31.84c0-.36-.27-.49-.39-.63a1.85,1.85,0,0,1,.19.8C201.16,32,201.22,32,201.3,31.84Z"/><path class="cls-1" d="M200.75,57.29l0,.46C200.78,57.63,200.76,57.43,200.75,57.29Z"/><path class="cls-1" d="M201.37,3.79a.88.88,0,0,0,.11-.29A.71.71,0,0,0,201.37,3.79Z"/><path class="cls-1" d="M181.81,75.36s0,0,0,0S181.94,75.36,181.81,75.36Z"/><path class="cls-1" d="M200.42,76.79l-.26,0a.31.31,0,0,0-.06.16Z"/><path class="cls-1" d="M121.36,2.17h.07C121.82,2.15,121.6,2.15,121.36,2.17Z"/><path class="cls-1" d="M2.38,21.6c.25-1.54.31,2.51.6.19C2.87,22,2.55,19.68,2.38,21.6Z"/><path class="cls-1" d="M199.64,60.47v-.65C199.63,60.12,199.63,60.32,199.64,60.47Z"/><path class="cls-1" d="M3,21.79H3l0-.24Z"/><path class="cls-1" d="M87.2,2.27a1.4,1.4,0,0,0,.35.12S87.46,2.33,87.2,2.27Z"/><path class="cls-1" d="M112.65,2.72l-.63,0A5.18,5.18,0,0,0,112.65,2.72Z"/><path class="cls-1" d="M74,2.63a4.58,4.58,0,0,0-.93,0l.14,0A2.75,2.75,0,0,1,74,2.63Z"/><path class="cls-1" d="M60.23,2.6l.26.06h.43Z"/><path class="cls-1" d="M140,75.4a2.16,2.16,0,0,1,.63.26C140.44,75.46,142.46,75.39,140,75.4Z"/><path class="cls-1" d="M199.76,60.88a.71.71,0,0,1-.12-.41v.46S199.74,61,199.76,60.88Z"/><path class="cls-1" d="M73.42,4.85l-2.18,0C71.85,4.83,72.64,4.85,73.42,4.85Z"/><path class="cls-1" d="M41.35,75.22l.5,0A1.92,1.92,0,0,0,41.35,75.22Z"/><path class="cls-1" d="M64.75,4.83a7.9,7.9,0,0,0-1.23-.2,1.23,1.23,0,0,0-.25.08Z"/><path class="cls-1" d="M140.66,75.66h0Z"/><path class="cls-1" d="M155.05,75c-2.08,0-1,.36-1.42.57-2.49.1-1.15-.27-2-.46-1.55.09-2.74.43-3.89.41-.09-.06-.32-.08-.05-.16-1.64.29-4.87,0-6.78.37a.53.53,0,0,1-.25-.09c.31.18.35.37.29.51-.93,0-1.73.23-2.08,0a1.9,1.9,0,0,0,.88-.16l-1,.1c-.88-.35,1.33-.11,1.33-.37a55.85,55.85,0,0,1-5.59.29c-.31-.34,3.42-.11,1.47-.41l2.26.13c-1.73-.54,1.37,0-.21-.54-3-.1-3.33.17-6.3.06-.67.19.22.28-.45.47-4.22.33-3.32-.86-6.42-.42a5.49,5.49,0,0,1-3.32.43l.75-.39c-2.88,0-1.65.55-4.66.29.53-.15,2.26-.13,1.83-.17-2-.31-1.39.21-2.89.21l-.31-.34c-3.07,0-6.45.28-9.84.34.18-.1.77-.21,0-.31-4.28.16-9.14-.07-13.28-.28l-1.58.29c-.36,0-.68-.13-.28-.19-1.61-.11-.08.19-.86.3s-1.21-.17-.63-.26a71.7,71.7,0,0,1-11.09.2l.59-.08c-2.33-.13-2.64.59-4.8.31l.42-.05c-5.06-.14-10.66.12-14.52-.33-.73.42-5-.2-5.33.39a57.33,57.33,0,0,0-6.13-.61c-1.09,0-1.62.36-3,.42l0-.31-1.83.32-1-.37-1.26.08c.51,0,1.07.14,1,.23A16.36,16.36,0,0,1,38,75l-4.66.25a6,6,0,0,1,1.5-.24c-2.49.31-.45-.32-2.73,0,.3.07-.17.18-.22.25a37.68,37.68,0,0,0-5.63-.13l.37-.21c-3.46-.06-7.29.09-11.16.07,1.39.11,1.07.47-.07.51l-.46-.33c-.73.2,1.19.13-.32.37-1.44,0-1-.37-.14-.48l-1.76.11c-.1-.1.31-.15.42-.27-.72.2-3-.33-4.08,0L9,74.81c-2.2,0-4.54,0-4.13.06,0-.05,0-.11,0-.19l0-1.65c-.28-.06-.21-1.3-.44-2.24.1-2.32.33-4.9.31-7.69-.14-2-.24-.58-.4-1.46.25-.14.23-2.94.42-1.49,0-3.35,0-4.28-.24-8.53-.11.46-.16,1-.24.71,0-.77.11-1.75.23-1.64l0,.2c-.38-4.76.77-11,.24-14.78l0,.21-.27-3.93c0-1.81.19,1.08.35-.26-.42-4.24.08-6.7-.2-10.2.76-2.7,0-9.59.46-13.24l-.18.21C4.71,8,5,7.76,5,7.06c-.14.1-.16,1-.26.44,0-1,0-2,0-3.07l3.94.06,5.14.14,10.26.31c3,.06,1.7-.91,5.48-.48l-1.08.33c6-.38,12.37,0,18.29-.28a2.71,2.71,0,0,1-.94.17,14.72,14.72,0,0,0,4.65-.17c.92,0,.21.17.78.27,1.25.15,3.15-.3,3.82-.06.11,0-.36.08-.59.1.82-.11,3.81,0,3-.24,2.22.14,4.25-.11,6,0,1.16-.3,3.81.16,4.18-.28-.16.46,3.89.38,5.3.17-.47.13,1.22.14.67.33,1.6,0,3.07-.08,2.79-.32,3,.55,5.94-.42,7.6.28,4.77-.23,9.17-.39,13.46-.48-.16.45-4.74,0-4.55.5,4.06-.17,6.41-.55,10.44-.44,1,.07-.6.2-1,.27,4.06-.17,7.85.06,11.47-.18a2.59,2.59,0,0,1-.77.13c.71,0,1.66.07,1.58-.14l-.7,0c-1.13-.3,2.83-.61,3-.77-1.21.59,3.57.16,1.65.9.47,0,1-.14.95-.28.69,0,.91.13.21.28,2.55-.1,1.64-.32,4-.31,0,.09-.47.13-.71.25a18.87,18.87,0,0,1,4.3-.3c-.12.06.11.14-.48.14,3.36,0,5.72-.5,9.4-.31-1.08.43,1.25.15,1.45.52l2-.11-.8-.18c1.74,0,3.27-.26,4.76-.13l-1.29.15,3.25-.06-1.84-.15c1.75-.19-.19-.47,2.12-.36a24.9,24.9,0,0,1,2.64.23h0a13.13,13.13,0,0,1,3-.15c.34.12-.27.42-.05.5.85-.32,4.06-.08,5.13-.41-.35.07-.37.27-.26.31l.71-.25c.81.08.92.12.79.28,2.42.05-.76-.48,2.1-.27a4.56,4.56,0,0,1-.58.1c2.88.11,5.56-.15,8.2,0,.78.38-2.31.09-1.41.41,3.81-.06,7.89-.44,11.59-.34l-.69,0c.51-.53,2.75.27,4.61,0-.45,0-.6.29-.47.23,2.53.09,5.17-.11,9-.27l-.48.13c1.49.13,3.92.08,5.53.15.48-.14,1.4-.11.84-.31a22.38,22.38,0,0,0,2.27.23l.89,0h.66c.06,1.41.13,2.78.19,4.13a24.51,24.51,0,0,1-.18,4.62c0-.53-.11-1.26-.11-.84l.11,3.75c.24-.29.15-.49.33-1.28a11.16,11.16,0,0,1,.23,2.47c-.14-1.69-.37,0-.5.74.07-.12.15.13.22.06-.41,2,.47.33.18,3l-.12-.14a28.79,28.79,0,0,1,.18,3c-.26.45-.12-1.07-.34-1.14,0,1.52.5,3,.23,4.37-.07-.65-.07-1.57-.14-2.22a11.32,11.32,0,0,0-.29,2.78v-.11l-.15,2.57.08-.66c.7,1.9.12,3.87.57,6.42-.42-2.48-.25-.41-.55-.6-.08.65-.18,1.65-.26,1.36.24,1.21-.2,2,.15,3.73-.1.07,0,1.29-.25,1,.07,1.57.17-.37.29-.23.33,2.42-.42,5.68,0,9.17.18,3,.51,3.56.67,6.34-.16.94-.36-.77-.36-.77a22.36,22.36,0,0,0,0,4.09c-.09-.29-.16,0-.27.44,0,1.15.35.77.21,2.28a5,5,0,0,1-.39-1.14c.08,1.35.26,2.69.35,4.09-.17.37-.26-.85-.37-1.34a23.58,23.58,0,0,0,.42,4.56l.09-1c0,.57-.23.29-.28-.13-.2-1.35.1-1.94.2-2l.06,1c.57-1-.08-4,0-6l.41.84-.34-2.06c.11-.44.34-.74.4.25.21-1.44-.14-1.27.09-2.51,0-.13,0-.07.07,0l-.12-1.4c.09.27.29-.23.23.63.25-2.52-.3-4.07,0-5l0,.21c-.13-3.5-.3-.34-.66-3L201,47l-.3-.34c0-.36,0-1.08.15-1-.2-1.34-.13.23-.32-.55.28-1.74-.12-4.79.36-5.18-.23-.63-.18,1.66-.34-.2.53-.52-.08-2.14.16-3.73.27.49.12,2,.37.41-.45-1,.11-3.1,0-4.43-.36-.07-.14-2.92-.26-5.16.12.14.21-4.23.35-6.32l.06.06c-.37-.41-.3-2.56-.37-4.13.22.06.31.34.4,1.19V16.18a6.46,6.46,0,0,1-.22-1.77l.27.37c0-2-.31-4-.12-6.48-.26-.15-.72,2-.89-.67.14-.1.38-.2.43.5a6.67,6.67,0,0,1,0-1.27l.23,1.06c.11-1.15-.19-.6-.17-1.52.2,0,.15-.68.3-.55a8.77,8.77,0,0,0,0,1.16c0-.52.06-1.09.12-1.59s.12-1.28.19-1.63c-.1.19-.23.15-.27-.58h-.25c-1.29,0-1.5-.05-1.58-.13a.27.27,0,0,0-.15-.11,2,2,0,0,0-.54-.1c-.47.13-1.73,0-1.76.28a1.69,1.69,0,0,1-.9-.22c-1,.13-4.75,0-3.61.34l.26,0h-.16c-3.34.28-6.93-.18-10.23-.06v-.1c-2,.1-4.39,0-5.8.26-.58,0-1.38-.18-1.13-.3a21,21,0,0,1-3.86,0C172.91,3,170.87,3,173,3a18.92,18.92,0,0,0-4.51,0c.72-.25-1.48-.32-2.41-.25l1.38.18c-1,0-2,0-2.9,0l.5-.33c-4-.41-7.23.67-10.29,0-1.06.23,2.18.17,1.23.44-1.84,0-3.76-.53-4.34-.54-2.53-.19-2.36.48-5,.35.34.12.66.44-1.32.55-1.84-.05-2.27-.51-1.1-.6.44,0,.66,0,.64.07.59,0,1.38-.09.65-.22l-.24.12c-.92-.13-3.46-.12-2.86-.31-1.4.11-.6.19.43.26-2.37-.18-3.7,0-6.14-.14.39.07.75.21.36.21-3.57-.16-1.57.22-4,.26-1.37-.18.5-.43-1.94-.28-1.49-.13-.32-.32.28-.41a31.58,31.58,0,0,1-5.43-.21l1.18-.09c-.7.06-1.28.05-1.86.05l.67.24c-.69,0-1.27,0-1.26-.14-.71.15.54.39-.86.6-.92-.12-2.8.12-3.11-.19,2.88.11-.32-.32,2.12-.36a14.4,14.4,0,0,1-1.73,0c-.11,0,.09-.07.28-.09-2.76-.28-1.27.36-4.12.34.36-.17-.67-.33-1.13-.3,1.15,0,.55.3-.51.43a19.27,19.27,0,0,0-2.95.08l1.09.07a10.6,10.6,0,0,1-2.56.21c-.11-.14,1.16-.1.7-.16-1.42.31-3.2-.33-5.18-.12-.92-.13-.09-.34-.89-.42-2.22.22-2.4-.25-4.73-.06.67.24.79.18-.85.41l3.83-.16-2.46.34c1.15,0,2.44-.15,3.13-.1-1.17.19-1,.13-.5.33-1.58-.36-3.14.2-5-.05l0-.59c-2.74-.27-4.88.3-8.45.14l1.15.1c-.48.24-2.21,0-3.36.12.1-.19-.62-.27-1.11-.39.06.15-2.61,0-2.94.37L83,2.5c-2.88-.11-3.29.56-6.06.48.83-.21-.43-.35,1.43-.5-.92,0-1.76,0-1.77.09-.54-.12-2.57.26-3.42.07a3.42,3.42,0,0,1-1.55.28c-.12,0,0-.1,0-.1S70,3,70.93,3.17c-2.85-.62-8,0-10.44-.51-2,.06-4.45.12-6.29.13.12-.06,0-.1.36-.08-2.53-.18-1.56.57-4.44.36-1.46-.33,1.53-.17.62-.3-.4-.65-3.48.09-5.41-.3l.47,0c-1.48-.22-3.61.24-6,.19,0,0,.12-.06,0-.1A58.4,58.4,0,0,1,32.67,3c.73-.25,1.06-.13.62-.39-1,0,.3.41-1.78.48-.67-.14-2.17-.26-2.37-.54h2c-1-.36-2.54,0-3.57-.06l.13-.15c-3,0-3.05.43-6.29.4l.34.12c-1.77.38-1.48-.23-3.25.06l-.53-.4c-1.17.1-4.08.38-6.18.44,1.19-.29,3.64-.43,5.15-.6a30.23,30.23,0,0,0-4.53.21,8.53,8.53,0,0,1,1.51-.07A26.47,26.47,0,0,1,8.3,3c.13-.25-.47-.36-1.39-.42L5.34,2.51l-2.56,0c0,.88,0,1.85-.09,2.53a4.78,4.78,0,0,1-.22,1.23c.28,4.07-.13,8.08-.1,12.83.6-1.69,0,1.38.63,1.09a8.46,8.46,0,0,1,0,1.63l-.37,3.35c-.18.79-.13-1.05-.27-.95,0,2.42-.26,1-.43,2.61.22-.33.31.85.23,2.22l.28-1.94c.32,3.39-.52,2.93-.2,6.34L2,32.34c.11,1.75,0,6.45.47,8.17-.07.31-.24.71-.29-.06-.08,4.19.51,9.31.2,12.56l-.15-.31A8.65,8.65,0,0,1,2.38,55c-.06-.05-.15-.31-.15,0a18.32,18.32,0,0,1,.16,3.1l-.16-.88c-.21,4.08.39,6.26.49,9.68-.44,0-.59,3.2-.67,4.8l-.06,0c0,.83,0,1.62,0,2.37,0,1.23,0,2.4.06,3.53l1.83,0c.58,0,1.27,0,1.48,0l1.93-.12c1.29-.08,2.6-.16,4-.21,2.73.48,9.25.22,13.63.5-.67-.08.11-.35.9-.39,1,.09,2.84-.3,2.68.11h-.37c.78.4,2.89.3,4.54.31l.28-.53c4.32.78,11.32-.25,13.68.44,1-.13,2.33-.13,3.37-.26l-.06.29c2.89.08,4.33.11,7.91,0l-.73.21c2,0,2.54-.81,4.4-.83l.56.43c3.51,0,7.07.38,10.55,0-.06.06-.17.19-.73.2,1.65,0,6.39.3,5.8-.28,0,.38,3.62,0,5.52-.12l-.3.28a14.9,14.9,0,0,1,3.9-.54c.53,0,.46.22-.24.15,1.76.15,1.37-.26,3.52-.11l-.8.18A7.37,7.37,0,0,0,92,77a10.46,10.46,0,0,1,3.72.33A5.36,5.36,0,0,1,98,77.05c.14.1-.25.15-.44.18,3,.2,4.52-.31,6.61,0,0,.09.18.14.35.16-2.41,0-4.36,0-4.18,0,0,.26,2,.31.4.66a37.9,37.9,0,0,1,6.15-.48,1.45,1.45,0,0,1,.25.09l-.2,0a6.65,6.65,0,0,0,1.2,0c.61,0,1,.08,1.58.08a14.51,14.51,0,0,0,3.21.13c-.08-.28,1.19-.23,0-.47.15,0-.19,0-.83,0-.15,0-.32,0-.42,0l.07,0-2.42,0a7.51,7.51,0,0,1,2.65-.11c.5-.18,1-.36,1.36-.45,1.33.4,3.89.62,4.25.86,3-.15,7-.09,8.86-.61a2.24,2.24,0,0,1,1.29.23c-.49.06-1.07,0-1.33.12,1.69-.13,5,0,5.4-.41,2.13.17-1.19.34,1.73.29l-.39.11c5.75.6,9.35-.92,15.72-.15a2.47,2.47,0,0,1-.75-.13c7.27.35,15-.28,22.16.26a11.27,11.27,0,0,0,3.5-.3l.44.3,2.13-.34c3-.25,5.23.75,9.05.28l-.5-.2c1.38,0,4.35-.11,4.12.12a1.64,1.64,0,0,1,1-.1l0,.15,3.37-.26c2.61.12-.41.63,3.4.67,1.42-.06,4-.46,3.51-.56s-1.46-.1-1.51-.26l1.3-.08c.24-.47,1.23-.94-1.95-1.27l-2.22.28-.71-.23h1.87a5.69,5.69,0,0,0-2.48.1,2.1,2.1,0,0,0-.93-.25l-2.18.44c-.26-.19,1-.36-.48-.47-1,.21,1,.41-.72.55-1.06-.22-.75-.39-2-.21-.18-.12.09-.2.58-.25a26.11,26.11,0,0,0-3.5.3c-1.11-.26-3.74.06-3.63-.38a18.32,18.32,0,0,1-3,.36c1.87-.53-3.81,0-3.31-.61-1.38.47-5,.2-7.41.46a1.81,1.81,0,0,1,.62-.09,21.12,21.12,0,0,1-2.66-.28c-.17.4-2.31.48-3.46.72-1.68-.38,1-.46.49-.82.09.32-2.92.31-2.35.57-1.28-.23-1.11-.11-1.77-.44-.22.49-1.2.08-2.26.38-1.86-.24-.48-.46-2.53-.32C153.23,75.19,155.05,75,155.05,75Zm-48.63.74h0l1,0Zm-4.09,0h1.78c.14.1,0,.2-.43.19C103.91,75.9,102.94,75.84,102.33,75.76Zm8.64,2c-.64,0-.86,0-1-.07l1.13,0,.08,0A.49.49,0,0,1,111,77.72Z"/><path class="cls-1" d="M112.14,77.36l.26,0-.38-.07-.23.09Z"/><path class="cls-1" d="M192.31,3.28h-.08l.18,0Z"/><polygon class="cls-1" points="45.9 75.09 45.91 75.16 46.27 75.1 45.9 75.09"/><path class="cls-1" d="M200,18a1,1,0,0,0-.07.29A1.13,1.13,0,0,0,200,18Z"/><path class="cls-1" d="M199.92,27.68l-.11,1.38C199.87,28.46,199.9,28,199.92,27.68Z"/><path class="cls-1" d="M199.76,35.16a.35.35,0,0,0,.12.14h0Z"/><path class="cls-1" d="M113.16,4.61h-.29C112.19,4.67,112.65,4.65,113.16,4.61Z"/><path class="cls-1" d="M148.53,4c-.37,0-.74.1-1.14.13C148,4.18,148.51,4.19,148.53,4Z"/><path class="cls-1" d="M73.66,4.86h0Z"/><path class="cls-1" d="M145.75,4.15a9,9,0,0,0,1.64,0A14.94,14.94,0,0,0,145.75,4.15Z"/><path class="cls-1" d="M199.56,67.55v.36s0,0,0,0Z"/><path class="cls-1" d="M199.59,68l0,.4A1,1,0,0,0,199.59,68Z"/><path class="cls-1" d="M199.7,69.2l-.07-.84A2.69,2.69,0,0,0,199.7,69.2Z"/><path class="cls-1" d="M199.71,57.66l-.1-.11A.16.16,0,0,0,199.71,57.66Z"/><path class="cls-1" d="M199.69,54.65a27.23,27.23,0,0,0-.16,2.8l.08.1C199.46,57.07,199.86,55.33,199.69,54.65Z"/><path class="cls-1" d="M201,42.1l-.09,2.52c.11-.44.26-1,.28.13C201.5,41.57,200.93,45.4,201,42.1Z"/><path class="cls-1" d="M201.15,34.29c0,1.35.16,0,.22.06C201.28,33.49,201.25,33.28,201.15,34.29Z"/><path class="cls-1" d="M174.68,3l.14-.25C173.78,2.8,174.81,2.86,174.68,3Z"/><polygon class="cls-1" points="163.89 4.32 164.9 4.48 165.39 4.25 163.89 4.32"/><polygon class="cls-1" points="157.51 2.48 157.97 2.45 156.23 2.54 157.51 2.48"/><path class="cls-1" d="M62.68,2.36l.32.32C63.7,2.62,63.85,2.27,62.68,2.36Z"/><path class="cls-1" d="M21.74,2.59a5.55,5.55,0,0,0-2.31-.11C20.35,2.51,21.27,2.63,21.74,2.59Z"/><polygon class="cls-1" points="35.04 77.59 34.22 77.7 35.77 77.61 35.04 77.59"/><path class="cls-2" d="M65.82,56.75l-11.24,0a3.35,3.35,0,0,0,.36-.87,10.25,10.25,0,0,0,.25-1.24,13.34,13.34,0,0,0,.11-1.95l0-15.5a13.12,13.12,0,0,0-.12-1.94A10.48,10.48,0,0,0,54.91,34a2.93,2.93,0,0,0-.37-.86l10.91,0-.29,3.3h-.77a11.69,11.69,0,0,0-.33-1.13,1.87,1.87,0,0,0-.5-.77,2.08,2.08,0,0,0-1-.43A9,9,0,0,0,60.83,34h-2V41.2a13.94,13.94,0,0,0,1.83,0c.55-.05,1-.09,1.43-.14a12.46,12.46,0,0,0,1.23-.23,2.86,2.86,0,0,1,0,.43,3.48,3.48,0,0,1-.17.93,1,1,0,0,1-.73.65,2.07,2.07,0,0,1-1.13,0l-2.5-.7,0,12.38a1.53,1.53,0,0,0,.08.41,1.37,1.37,0,0,0,.3.48,1.56,1.56,0,0,0,.62.38,3,3,0,0,0,1,.15H62a2.33,2.33,0,0,0,1.23-.29,2.18,2.18,0,0,0,.75-.76,4.06,4.06,0,0,0,.43-1.07c.1-.38.21-.78.32-1.18h.76Z"/><path class="cls-2" d="M79,53.25c.22.57.44,1.07.65,1.49s.4.79.58,1.1a10.29,10.29,0,0,0,.57.9h-5a1.36,1.36,0,0,0,.36-.93A2.73,2.73,0,0,0,76,54.75l-2.74-7.32L69.8,55.72a2.56,2.56,0,0,0-.13.73v.3H67.78c.17-.18.34-.36.5-.56l.39-.55a3.74,3.74,0,0,0,.34-.55l3.71-9L69,36.1c-.2-.51-.39-1-.57-1.31a9.14,9.14,0,0,0-.5-.92,7.56,7.56,0,0,0-.5-.73h5a1.43,1.43,0,0,0-.38,1,3.24,3.24,0,0,0,.15,1.11l2.44,6.41,3-7.22a2,2,0,0,0,.13-.49,3,3,0,0,1,.07-.4,2.8,2.8,0,0,0,0-.4h1.9c-.18.2-.35.4-.5.6l-.42.55a1.58,1.58,0,0,0-.28.52L75.08,43Z"/><path class="cls-2" d="M87.77,33.11a9,9,0,0,1,2.41.3,4.83,4.83,0,0,1,1.86,1,4.26,4.26,0,0,1,1.22,1.69,6.56,6.56,0,0,1,.43,2.51,6,6,0,0,1-1.47,4.26,5.49,5.49,0,0,1-4.17,1.57,3,3,0,0,1-1-.18,3.18,3.18,0,0,1-.85-.48v8.94a17.2,17.2,0,0,0,.1,1.95,6.34,6.34,0,0,0,.27,1.24,2.21,2.21,0,0,0,.37.87h-5a3.59,3.59,0,0,0,.37-.86,10.78,10.78,0,0,0,.24-1.25,13.12,13.12,0,0,0,.12-1.94l0-15.5a13.17,13.17,0,0,0-.12-2A10.25,10.25,0,0,0,82.25,34a3.32,3.32,0,0,0-.37-.87ZM88,43.56a1.58,1.58,0,0,0,1.1-.4,2.56,2.56,0,0,0,.66-1.07,6.57,6.57,0,0,0,.32-1.58c0-.61.08-1.25.08-1.91a7.19,7.19,0,0,0-.29-2.16A4.21,4.21,0,0,0,89.13,35a2.82,2.82,0,0,0-2.19-1h-.8v5.92a1.53,1.53,0,0,1,.59-.37,1.7,1.7,0,0,1,.73-.1,1.53,1.53,0,0,1,.69.23,1.07,1.07,0,0,1,.45.57,1.68,1.68,0,0,0-1,.1,1.91,1.91,0,0,0-.78.58,2.14,2.14,0,0,0-.4.88,1.84,1.84,0,0,0,.11,1,1.09,1.09,0,0,0,.51.52A1.93,1.93,0,0,0,88,43.56Z"/><path class="cls-2" d="M106.65,56.7l-11.24,0a3.32,3.32,0,0,0,.37-.87A10.78,10.78,0,0,0,96,54.6a13.12,13.12,0,0,0,.12-1.94l0-15.5A13,13,0,0,0,96,35.22,10.08,10.08,0,0,0,95.75,34a3,3,0,0,0-.37-.87h10.91l-.3,3.29h-.76c-.11-.44-.22-.82-.33-1.13a1.94,1.94,0,0,0-.5-.76,2.13,2.13,0,0,0-1-.43,9,9,0,0,0-1.76-.13h-2v7.22a12.33,12.33,0,0,0,1.83,0c.55,0,1-.09,1.43-.13s.87-.15,1.23-.23a2.81,2.81,0,0,1,0,.43,3.47,3.47,0,0,1-.16.93,1,1,0,0,1-.73.65,2.1,2.1,0,0,1-1.14,0l-2.49-.69,0,12.37a1.35,1.35,0,0,0,.38.9,1.6,1.6,0,0,0,.62.38,2.91,2.91,0,0,0,1,.15h1.16a2.33,2.33,0,0,0,1.23-.28,2.18,2.18,0,0,0,.75-.76,4.21,4.21,0,0,0,.43-1.07c.1-.39.2-.78.31-1.18h.77Z"/><path class="cls-2" d="M119.65,53a14.16,14.16,0,0,0,.83,2.28,3.1,3.1,0,0,0,1.17,1.24,2.72,2.72,0,0,1-1.11.4,6.72,6.72,0,0,1-1,.1,3.76,3.76,0,0,1-2.08-.71,3.36,3.36,0,0,1-1.21-2l-2-9.91a2.86,2.86,0,0,1-1.69-.63v9a15.07,15.07,0,0,0,.1,1.94,6.46,6.46,0,0,0,.27,1.25,2.16,2.16,0,0,0,.37.86h-5a3.35,3.35,0,0,0,.36-.87,10.25,10.25,0,0,0,.25-1.24,12.07,12.07,0,0,0,.11-2l0-15.5a14.86,14.86,0,0,0-.11-1.94,10.2,10.2,0,0,0-.26-1.25,3.41,3.41,0,0,0-.36-.86h5.88a9,9,0,0,1,2.41.3,4.78,4.78,0,0,1,1.87.94A4.18,4.18,0,0,1,119.59,36a6.52,6.52,0,0,1,.44,2.53,6.09,6.09,0,0,1-1.16,3.86,5.07,5.07,0,0,1-3.29,1.86,5,5,0,0,1,.8.47,4.9,4.9,0,0,1,.85.76,6,6,0,0,1,.77,1.11,6.6,6.6,0,0,1,.55,1.52Zm-6.8-10.2a1.11,1.11,0,0,0,.52.51,1.77,1.77,0,0,0,.95.25,1.51,1.51,0,0,0,1.09-.4,2.59,2.59,0,0,0,.68-1.06,5.79,5.79,0,0,0,.33-1.58q.09-.91.09-1.92a7.4,7.4,0,0,0-.29-2.17,4.1,4.1,0,0,0-.75-1.43,2.83,2.83,0,0,0-1-.8,3,3,0,0,0-1.15-.25h-.79v5.92a1.78,1.78,0,0,1,.6-.36,1.54,1.54,0,0,1,.73-.1,1.51,1.51,0,0,1,.67.21,1.19,1.19,0,0,1,.46.58,1.82,1.82,0,0,0-1,.1,1.93,1.93,0,0,0-.78.59,2.08,2.08,0,0,0-.4.88A2,2,0,0,0,112.85,42.76Z"/><path class="cls-2" d="M135.19,33.05l-.3,3.3h-.76c-.11-.42-.22-.79-.32-1.1a1.74,1.74,0,0,0-.48-.77,2.37,2.37,0,0,0-.93-.44,7.25,7.25,0,0,0-1.67-.15l0,18.72a15.14,15.14,0,0,0,.1,2,5.55,5.55,0,0,0,.27,1.24,2.21,2.21,0,0,0,.36.87h-5a3.74,3.74,0,0,0,.37-.87,10.48,10.48,0,0,0,.25-1.25,14.86,14.86,0,0,0,.11-1.94l0-18.72a7.25,7.25,0,0,0-1.67.15,2.25,2.25,0,0,0-.93.45,1.71,1.71,0,0,0-.48.76c-.1.31-.2.68-.31,1.1h-.77l-.3-3.29Z"/><path class="cls-2" d="M140.48,36.8a4.63,4.63,0,0,0,.67,2.45,12.45,12.45,0,0,0,1.65,2.17q1,1.06,2.13,2.1a25.4,25.4,0,0,1,2.13,2.15,12.53,12.53,0,0,1,1.65,2.45,6.36,6.36,0,0,1,.67,2.91,7.19,7.19,0,0,1-1.54,4.89,5.86,5.86,0,0,1-4.64,1.76,7.69,7.69,0,0,1-2.25-.31,5.72,5.72,0,0,1-1.91-1,4.88,4.88,0,0,1-1.33-1.59,4.74,4.74,0,0,1-.5-2.21,4.67,4.67,0,0,1,.38-2,4.41,4.41,0,0,1,.94-1.4,3.93,3.93,0,0,1,1.25-.84,3.43,3.43,0,0,1,1.25-.28,3.71,3.71,0,0,1,2.59.75,2.27,2.27,0,0,1,.8,1.71,3.08,3.08,0,0,0-1.25-.15,3.53,3.53,0,0,0-1.21.3,3.28,3.28,0,0,0-1,.68,3.06,3.06,0,0,0-.66,1,3,3,0,0,0-.21,1.51,3.35,3.35,0,0,0,.46,1.42,3.11,3.11,0,0,0,1,1,2.85,2.85,0,0,0,1.51.39,3.79,3.79,0,0,0,1.61-.31,3.7,3.7,0,0,0,1.13-.82,3,3,0,0,0,.65-1.13,4.16,4.16,0,0,0,.2-1.23,6,6,0,0,0-.67-2.78,12.07,12.07,0,0,0-1.67-2.36A27.93,27.93,0,0,0,142.17,46,26.67,26.67,0,0,1,140,43.74a12.58,12.58,0,0,1-1.67-2.44,6.45,6.45,0,0,1-.67-2.9A6.24,6.24,0,0,1,138.1,36a5.64,5.64,0,0,1,1.26-1.9,5.83,5.83,0,0,1,2-1.25,6.83,6.83,0,0,1,2.51-.45,5.82,5.82,0,0,1,2.51.48A5.06,5.06,0,0,1,148,34.07a4.44,4.44,0,0,1,.92,1.49,4.37,4.37,0,0,1,.28,1.47,4.51,4.51,0,0,1-.34,1.84,4.09,4.09,0,0,1-.88,1.28,3.71,3.71,0,0,1-1.13.75,2.9,2.9,0,0,1-1.13.25,4.09,4.09,0,0,1-1.22-.18,3.91,3.91,0,0,1-1-.48,2.53,2.53,0,0,1-.72-.7,1.55,1.55,0,0,1-.26-.86,2.84,2.84,0,0,0,1.16.15,3.37,3.37,0,0,0,1.11-.29,2.94,2.94,0,0,0,.93-.63,2.49,2.49,0,0,0,.62-.93,2.6,2.6,0,0,0,.18-1.12,3.34,3.34,0,0,0-.3-1.31,2.92,2.92,0,0,0-.87-1.09,2.44,2.44,0,0,0-1.58-.47,2.94,2.94,0,0,0-1.39.32,3.27,3.27,0,0,0-1,.82,3.78,3.78,0,0,0-.63,1.13A4.05,4.05,0,0,0,140.48,36.8Z"/><path class="cls-2" d="M57.71,27.17a.42.42,0,0,1,.27-.1.75.75,0,0,1,.82.81,1.49,1.49,0,0,1-.06.4,1.09,1.09,0,0,1-.23.42,1.15,1.15,0,0,1-.45.33,2,2,0,0,1-.75.12,2.57,2.57,0,0,1-.82-.12,1.93,1.93,0,0,1-.58-.34,1.45,1.45,0,0,1-.36-.5,1.58,1.58,0,0,1-.12-.61V23.13a1.58,1.58,0,0,1,.12-.61,1.45,1.45,0,0,1,.36-.5,1.77,1.77,0,0,1,.59-.33,2.59,2.59,0,0,1,1.68,0,1.66,1.66,0,0,1,.51.36,1.2,1.2,0,0,1,.24.46A1.55,1.55,0,0,1,59,23a1.37,1.37,0,0,1-.1.56,1.13,1.13,0,0,1-.27.39,1.08,1.08,0,0,1-.35.22.9.9,0,0,1-.34.07,1.5,1.5,0,0,1-.37,0,1.35,1.35,0,0,1-.32-.15.63.63,0,0,1-.21-.22.42.42,0,0,1-.08-.26.92.92,0,0,0,.69,0,.85.85,0,0,0,.47-.48.83.83,0,0,0,.06-.34.93.93,0,0,0-.09-.4.86.86,0,0,0-.27-.33.78.78,0,0,0-.48-.13.7.7,0,0,0-.39.08.72.72,0,0,0-.25.21.84.84,0,0,0-.13.27,1.27,1.27,0,0,0,0,.26v5.42a.87.87,0,0,0,0,.26.68.68,0,0,0,.13.27.75.75,0,0,0,.25.21.74.74,0,0,0,.38.08.81.81,0,0,0,.6-.23,1,1,0,0,0,.27-.55,1,1,0,0,0-.07-.6A.8.8,0,0,0,57.71,27.17Z"/><path class="cls-2" d="M61.47,21.58a2,2,0,0,1,.71.13,1.87,1.87,0,0,1,.56.34,1.46,1.46,0,0,1,.35.5,1.42,1.42,0,0,1,.13.61v4.43a1.53,1.53,0,0,1-.51,1.12,1.73,1.73,0,0,1-.56.33,2,2,0,0,1-.7.12,2.08,2.08,0,0,1-.71-.12,2,2,0,0,1-.57-.34,1.48,1.48,0,0,1-.37-.49,1.44,1.44,0,0,1-.13-.62V23.15a1.3,1.3,0,0,1,.14-.61,1.66,1.66,0,0,1,.38-.5,1.94,1.94,0,0,1,.58-.33A1.82,1.82,0,0,1,61.47,21.58Zm.64,1.55a.62.62,0,0,1-.35.12,1.06,1.06,0,0,1-.36-.09.29.29,0,0,1-.18-.29.65.65,0,0,0,.33.06.58.58,0,0,0,.29-.12.46.46,0,0,0,.17-.24.56.56,0,0,0,0-.34v0a.82.82,0,0,0-.2-.26.53.53,0,0,0-.36-.11.59.59,0,0,0-.34.09.58.58,0,0,0-.21.2.8.8,0,0,0-.12.27,1.39,1.39,0,0,0,0,.27v5.42a1.3,1.3,0,0,0,0,.26.81.81,0,0,0,.11.27.6.6,0,0,0,.21.21.68.68,0,0,0,.66,0,.53.53,0,0,0,.21-.21.78.78,0,0,0,.09-.27,1.24,1.24,0,0,0,0-.27Z"/><path class="cls-2" d="M67.9,21.69l-.09.19a.93.93,0,0,0-.07.2,1.81,1.81,0,0,0,0,.25l0,6.75h-.33L64.51,23v5.46a1,1,0,0,0,0,.25c0,.08,0,.14.06.2l.09.19H64a.77.77,0,0,0,.1-.18l.06-.2a1.12,1.12,0,0,0,0-.27l0-5.59c0-.22,0-.41-.05-.55a2,2,0,0,0-.08-.35.91.91,0,0,0-.1-.24h1.14l2.28,4.81V22.35a1.12,1.12,0,0,0,0-.27,1.67,1.67,0,0,0-.06-.2c0-.07-.06-.13-.08-.19Z"/><path class="cls-2" d="M72.69,21.7a1.14,1.14,0,0,0-.09.16,1.72,1.72,0,0,0-.09.19,1.26,1.26,0,0,0-.07.25l-1.3,6.36a.83.83,0,0,0,0,.2c0,.06,0,.1,0,.14l.05.09H69.73a.93.93,0,0,1,0-.1,1.87,1.87,0,0,0,.1-.31c0-.23-.1-.55-.17-1s-.15-.83-.23-1.29-.16-.93-.25-1.4-.16-.89-.22-1.27-.14-.82-.23-1.31c0-.11-.06-.22-.09-.31a1.33,1.33,0,0,0-.1-.24,2.12,2.12,0,0,0-.11-.21H70a1.33,1.33,0,0,0-.11.24,1.68,1.68,0,0,0,0,.3,1.83,1.83,0,0,0,0,.44c.13.72.25,1.42.37,2.11,0,.29.1.59.16.91s.1.61.16.91.1.59.14.87l.14.74,1.24-6a.91.91,0,0,0,0-.17.76.76,0,0,1,0-.15.92.92,0,0,1,0-.16Z"/><path class="cls-2" d="M76.58,29.1H73.06a1.55,1.55,0,0,0,.12-.28,3.22,3.22,0,0,0,.08-.39,5,5,0,0,0,0-.6V23a5,5,0,0,0,0-.6,2.33,2.33,0,0,0-.08-.4,1.16,1.16,0,0,0-.11-.27h3.41l-.09,1h-.24a3,3,0,0,0-.11-.35.49.49,0,0,0-.15-.24.6.6,0,0,0-.3-.14,2.75,2.75,0,0,0-.55,0h-.64v2.26H75l.45,0,.38-.08a.66.66,0,0,1,0,.14,1.26,1.26,0,0,1,0,.29.3.3,0,0,1-.23.2.6.6,0,0,1-.35,0l-.79-.22v3.87a.32.32,0,0,0,0,.13.6.6,0,0,0,.09.15.48.48,0,0,0,.2.12.93.93,0,0,0,.32.05h.36a.75.75,0,0,0,.39-.09.66.66,0,0,0,.23-.24,1.22,1.22,0,0,0,.14-.33c0-.12.07-.24.1-.37h.24Z"/><path class="cls-2" d="M81.07,21.72l-.09.19a.77.77,0,0,0-.07.2,1,1,0,0,0,0,.25v6.75h-.33L77.68,23l0,5.47a1,1,0,0,0,0,.25c0,.08,0,.14.06.2a.66.66,0,0,0,.09.19h-.7a.77.77,0,0,0,.1-.18q0-.09.06-.21a1,1,0,0,0,0-.26V22.86a3.9,3.9,0,0,0,0-.55c0-.14,0-.26-.08-.35a.91.91,0,0,0-.1-.24h1.14l2.28,4.81V22.38a1.12,1.12,0,0,0,0-.27,1.67,1.67,0,0,0-.06-.2c0-.07-.06-.13-.08-.19Z"/><path class="cls-2" d="M85.69,21.73l-.1,1h-.24c0-.13-.07-.24-.1-.34a.49.49,0,0,0-.15-.24.71.71,0,0,0-.29-.14,2.27,2.27,0,0,0-.52-.05v5.86a5.16,5.16,0,0,0,0,.61,1.66,1.66,0,0,0,.08.39.69.69,0,0,0,.11.27H82.94a1.59,1.59,0,0,0,.12-.27c0-.1,0-.23.08-.39a5.28,5.28,0,0,0,0-.61l0-5.86a2.32,2.32,0,0,0-.52,0,.7.7,0,0,0-.3.14.49.49,0,0,0-.15.24l-.1.34h-.24l-.09-1Z"/><path class="cls-2" d="M87.59,27.86a5.28,5.28,0,0,0,0,.61,1.66,1.66,0,0,0,.08.39.69.69,0,0,0,.11.27H86.25a1.18,1.18,0,0,0,.12-.27,3.62,3.62,0,0,0,.07-.39,3.39,3.39,0,0,0,0-.6h0V23a5.28,5.28,0,0,0,0-.61c0-.16,0-.29-.08-.39a1.16,1.16,0,0,0-.11-.27h1.56a.68.68,0,0,0-.12.27,2,2,0,0,0-.08.39,5,5,0,0,0,0,.61v4.84Z"/><path class="cls-2" d="M90.39,21.65a1.83,1.83,0,0,1,.71.13,1.55,1.55,0,0,1,.55.34,1.28,1.28,0,0,1,.36.5,1.38,1.38,0,0,1,.13.6v4.44a1.44,1.44,0,0,1-.14.62,1.63,1.63,0,0,1-.37.49,1.73,1.73,0,0,1-.56.33,1.78,1.78,0,0,1-.7.13,2.08,2.08,0,0,1-.71-.13,1.78,1.78,0,0,1-.57-.33,1.52,1.52,0,0,1-.37-.5,1.31,1.31,0,0,1-.13-.62V23.22a1.27,1.27,0,0,1,.14-.61,1.55,1.55,0,0,1,.38-.5,2.21,2.21,0,0,1,.58-.34A2,2,0,0,1,90.39,21.65ZM91,23.19a.63.63,0,0,1-.35.13,1.06,1.06,0,0,1-.36-.09.3.3,0,0,1-.18-.29.55.55,0,0,0,.33,0,.57.57,0,0,0,.29-.11.49.49,0,0,0,.17-.25.55.55,0,0,0,0-.34v0a.79.79,0,0,0-.2-.25.53.53,0,0,0-.36-.11.68.68,0,0,0-.34.08.7.7,0,0,0-.21.21.66.66,0,0,0-.12.27,1.39,1.39,0,0,0,0,.27v5.42a1.21,1.21,0,0,0,0,.25,1,1,0,0,0,.11.28.7.7,0,0,0,.21.21.54.54,0,0,0,.33.09.64.64,0,0,0,.33-.08.57.57,0,0,0,.2-.21.74.74,0,0,0,.1-.27,1.39,1.39,0,0,0,0-.27Z"/><path class="cls-2" d="M96.82,21.76l-.09.18a1.18,1.18,0,0,0-.07.2,1,1,0,0,0,0,.25l0,6.76h-.33L93.43,23l0,5.47a1,1,0,0,0,0,.25c0,.07,0,.14.06.19a.84.84,0,0,0,.09.19h-.7A1.14,1.14,0,0,0,93,29a1.67,1.67,0,0,0,.06-.2,1.12,1.12,0,0,0,0-.27V22.89a3.74,3.74,0,0,0,0-.54A3.17,3.17,0,0,0,93,22a.69.69,0,0,0-.1-.24H94l2.28,4.82V22.41a1,1,0,0,0,0-.26q0-.12-.06-.21l-.08-.18Z"/><path class="cls-2" d="M99.89,29.16q0-.11.09-.24a2.24,2.24,0,0,0,0-.31,1.43,1.43,0,0,0,0-.44l-.48-2.54H98.43l-.7,3a1.36,1.36,0,0,0,0,.2V29c0,.07,0,.12,0,.18h-.56a.69.69,0,0,0,.1-.17,2,2,0,0,0,.07-.19c0-.07,0-.15.08-.24l1.46-6.27a2.83,2.83,0,0,0-.13-.39l-.06-.13h1.19l.64,3.32.64,3.31a2.49,2.49,0,0,0,.08.32c0,.09.07.17.11.24a1,1,0,0,0,.11.21Zm-.44-3.87L99,23.05l-.52,2.24Z"/><path class="cls-2" d="M105.33,29.17h-3.51a.88.88,0,0,0,.11-.27c0-.1,0-.23.08-.39a4.9,4.9,0,0,0,0-.61V23a3.52,3.52,0,0,0,0-.61c0-.16,0-.29-.07-.39a1.18,1.18,0,0,0-.12-.27h1.56a.69.69,0,0,0-.11.27,1.61,1.61,0,0,0-.09.39,5.28,5.28,0,0,0,0,.61v5.41a.69.69,0,0,0,0,.13.39.39,0,0,0,.1.16.78.78,0,0,0,.19.12,1,1,0,0,0,.32,0h.37a.62.62,0,0,0,.38-.08.69.69,0,0,0,.24-.24,1.34,1.34,0,0,0,.14-.32c0-.13.07-.25.1-.37h.24Z"/><path class="cls-2" d="M109.35,29.18h-3.52a1.18,1.18,0,0,0,.12-.27c0-.1,0-.23.08-.39a5.28,5.28,0,0,0,0-.61l0-4.85a4.77,4.77,0,0,0,0-.61,2.39,2.39,0,0,0-.08-.39.88.88,0,0,0-.11-.27h1.56a.56.56,0,0,0-.11.27,1.61,1.61,0,0,0-.09.39,5.16,5.16,0,0,0,0,.61v5.41a.69.69,0,0,0,0,.13.39.39,0,0,0,.1.16.62.62,0,0,0,.19.12,1,1,0,0,0,.32,0h.37a.86.86,0,0,0,.38-.08.69.69,0,0,0,.24-.24,1.72,1.72,0,0,0,.14-.33c0-.12.07-.24.1-.36h.24Z"/><path class="cls-2" d="M112.54,27.92a5,5,0,0,0,0,.61,2,2,0,0,0,.08.38.68.68,0,0,0,.12.27H111.2a.86.86,0,0,0,.12-.27c0-.1.05-.23.08-.38a4.9,4.9,0,0,0,0-.61h0V25.84l-1-3A4.5,4.5,0,0,0,110,22l-.16-.25h1.56a.38.38,0,0,0-.1.25.88.88,0,0,0,0,.29l1,2.76,1.09-2.84,0-.17c0-.06,0-.11,0-.15s0-.09,0-.14H114a.76.76,0,0,0-.11.14l-.11.16a1.42,1.42,0,0,0-.08.18l-1.19,3.15v2.48Z"/><path class="cls-2" d="M118.09,27.3a.45.45,0,0,1,.26-.1.76.76,0,0,1,.69.32.73.73,0,0,1,.14.49,1.56,1.56,0,0,1-.06.41,1.13,1.13,0,0,1-.23.41,1.2,1.2,0,0,1-.45.33,1.83,1.83,0,0,1-.75.13,2.28,2.28,0,0,1-.82-.13,1.63,1.63,0,0,1-.59-.34,1.34,1.34,0,0,1-.35-.5,1.54,1.54,0,0,1-.12-.61V23.27a1.54,1.54,0,0,1,.12-.61,1.36,1.36,0,0,1,.36-.5,2,2,0,0,1,.59-.34,2.49,2.49,0,0,1,.82-.12,2,2,0,0,1,.85.15,1.45,1.45,0,0,1,.51.36,1,1,0,0,1,.25.46,1.5,1.5,0,0,1,.07.45,1.4,1.4,0,0,1-.11.56,1.16,1.16,0,0,1-.26.38,1,1,0,0,1-.35.22,1,1,0,0,1-.35.08,1.13,1.13,0,0,1-.36-.06.94.94,0,0,1-.32-.14,1.14,1.14,0,0,1-.22-.22.51.51,0,0,1-.07-.26,1,1,0,0,0,.69,0,.85.85,0,0,0,.46-.47.71.71,0,0,0,.07-.34.9.9,0,0,0-.09-.4.86.86,0,0,0-.27-.33.78.78,0,0,0-.48-.14.9.9,0,0,0-.39.08.87.87,0,0,0-.25.21.68.68,0,0,0-.13.27,1.38,1.38,0,0,0,0,.26V28.2a.82.82,0,0,0,0,.26.65.65,0,0,0,.13.28.63.63,0,0,0,.25.2.74.74,0,0,0,.38.09.78.78,0,0,0,.6-.24,1,1,0,0,0,.27-.54.94.94,0,0,0-.08-.6A.76.76,0,0,0,118.09,27.3Z"/><path class="cls-2" d="M123.32,29.21H119.8a1.18,1.18,0,0,0,.12-.27c0-.1,0-.23.08-.39a5.16,5.16,0,0,0,0-.61V23.08a3.64,3.64,0,0,0,0-.61,2.39,2.39,0,0,0-.08-.39.88.88,0,0,0-.11-.27h3.41l-.09,1h-.24c0-.14-.07-.26-.11-.36a.49.49,0,0,0-.15-.24.6.6,0,0,0-.3-.13,2.57,2.57,0,0,0-.55-.05h-.64v2.26a2.71,2.71,0,0,0,.57,0l.45,0,.38-.07a.57.57,0,0,1,0,.13,1.33,1.33,0,0,1,0,.3.31.31,0,0,1-.23.2.59.59,0,0,1-.35,0l-.78-.22V28.5a1.05,1.05,0,0,0,0,.13.44.44,0,0,0,.1.15.39.39,0,0,0,.19.12,1,1,0,0,0,.32,0h.37a.74.74,0,0,0,.38-.09.69.69,0,0,0,.24-.24,1.62,1.62,0,0,0,.13-.33c0-.13.07-.25.1-.37h.24Z"/><path class="cls-2" d="M127.39,28.05a4.43,4.43,0,0,0,.26.71,1,1,0,0,0,.37.4,1,1,0,0,1-.35.12l-.32,0a1.18,1.18,0,0,1-.65-.22,1.1,1.1,0,0,1-.38-.65l-.63-3.1a.91.91,0,0,1-.53-.2v2.8a5.16,5.16,0,0,0,0,.61,1.66,1.66,0,0,0,.08.39.69.69,0,0,0,.11.27h-1.56a1.18,1.18,0,0,0,.12-.27c0-.1,0-.23.08-.39a5.16,5.16,0,0,0,0-.61V23.09a5.16,5.16,0,0,0,0-.61,2.39,2.39,0,0,0-.08-.39.88.88,0,0,0-.11-.27h1.84a2.48,2.48,0,0,1,.75.1,1.5,1.5,0,0,1,.59.3,1.35,1.35,0,0,1,.38.52,2.08,2.08,0,0,1,.13.79,1.86,1.86,0,0,1-.37,1.21,1.55,1.55,0,0,1-1,.58,1.38,1.38,0,0,1,.25.15,1.46,1.46,0,0,1,.27.24,1.63,1.63,0,0,1,.23.35,1.53,1.53,0,0,1,.17.47Zm-2.11-3.2a.31.31,0,0,0,.16.16.58.58,0,0,0,.3.08.5.5,0,0,0,.34-.12.89.89,0,0,0,.21-.34,1.61,1.61,0,0,0,.11-.49,5.74,5.74,0,0,0,0-.6,2.2,2.2,0,0,0-.09-.68,1.46,1.46,0,0,0-.23-.45,1,1,0,0,0-.33-.25.94.94,0,0,0-.36-.08h-.25v1.85a.61.61,0,0,1,.18-.11.51.51,0,0,1,.44,0,.45.45,0,0,1,.15.18.57.57,0,0,0-.32,0,.57.57,0,0,0-.37.46A.6.6,0,0,0,125.28,24.85Z"/><path class="cls-2" d="M132.28,21.84l-.1,1h-.24c0-.14-.06-.25-.09-.35a.75.75,0,0,0-.15-.24.7.7,0,0,0-.3-.14,2.21,2.21,0,0,0-.52-.05V28a5,5,0,0,0,0,.61A2,2,0,0,0,131,29a.81.81,0,0,0,.12.28h-1.56a1.69,1.69,0,0,0,.11-.27,2.39,2.39,0,0,0,.08-.39,4.77,4.77,0,0,0,0-.61V22.09a2.27,2.27,0,0,0-.52.05.61.61,0,0,0-.29.14.49.49,0,0,0-.15.24c0,.09-.07.21-.1.34h-.24l-.09-1Z"/><path class="cls-2" d="M134.18,28a5.16,5.16,0,0,0,0,.61,2.39,2.39,0,0,0,.08.39.68.68,0,0,0,.12.27h-1.56A.88.88,0,0,0,133,29a2.39,2.39,0,0,0,.08-.39,4.9,4.9,0,0,0,0-.61h0V23.11a3.52,3.52,0,0,0,0-.61c0-.16-.05-.29-.07-.39a1.18,1.18,0,0,0-.12-.27h1.56a.88.88,0,0,0-.11.27,1.66,1.66,0,0,0-.08.39,3.52,3.52,0,0,0,0,.61V28Z"/><path class="cls-2" d="M138.36,21.85l-.1,1H138a1.88,1.88,0,0,0-.1-.35.51.51,0,0,0-.16-.24.6.6,0,0,0-.3-.13,2.62,2.62,0,0,0-.55,0h-.63v2.24a3.69,3.69,0,0,0,.57,0l.45,0,.39-.08c0,.05,0,.1,0,.14a.94.94,0,0,1-.06.28.3.3,0,0,1-.22.2.73.73,0,0,1-.36,0l-.78-.22V28a5,5,0,0,0,0,.6,2.49,2.49,0,0,0,.08.38.62.62,0,0,0,.11.26h-1.54A.71.71,0,0,0,135,29a2,2,0,0,0,.08-.38,3.15,3.15,0,0,0,0-.58V23.1a5,5,0,0,0,0-.6c0-.16,0-.29-.08-.39a1,1,0,0,0-.1-.27Z"/><path class="cls-2" d="M140.28,28a5,5,0,0,0,0,.6,2.33,2.33,0,0,0,.08.4.85.85,0,0,0,.12.27H139a.88.88,0,0,0,.11-.27,2,2,0,0,0,.08-.39,3.44,3.44,0,0,0,0-.61h0V23.12a3.59,3.59,0,0,0,0-.61c0-.16-.05-.29-.07-.39a.86.86,0,0,0-.12-.27h1.56a1.09,1.09,0,0,0-.11.28,1.46,1.46,0,0,0-.08.39,3.39,3.39,0,0,0,0,.6V28Z"/><path class="cls-2" d="M144.56,29.26H141a.88.88,0,0,0,.11-.27,2.39,2.39,0,0,0,.08-.39,3.59,3.59,0,0,0,0-.61V23.13a5,5,0,0,0,0-.61,3.22,3.22,0,0,0-.08-.39.88.88,0,0,0-.11-.27h3.41l-.1,1h-.24a2.14,2.14,0,0,0-.1-.35.58.58,0,0,0-.15-.24.69.69,0,0,0-.31-.14,3.56,3.56,0,0,0-.55,0h-.63v2.26a5.6,5.6,0,0,0,.58,0l.44,0,.39-.07a.53.53,0,0,1,0,.13,1.18,1.18,0,0,1-.05.29.32.32,0,0,1-.23.21.63.63,0,0,1-.36,0l-.78-.22v3.87a.35.35,0,0,0,0,.13.38.38,0,0,0,.09.15.52.52,0,0,0,.19.12.82.82,0,0,0,.33,0h.36a.75.75,0,0,0,.39-.09.63.63,0,0,0,.23-.23,1.28,1.28,0,0,0,.14-.34c0-.12.06-.24.1-.37h.24Z"/><path class="cls-2" d="M147.25,21.87A1.67,1.67,0,0,1,148,22a1.78,1.78,0,0,1,.57.4,1.9,1.9,0,0,1,.37.59,2,2,0,0,1,.14.73V27.4a2,2,0,0,1-.14.73,1.73,1.73,0,0,1-1.66,1.13h-2.17a1.16,1.16,0,0,0,.11-.27,2.39,2.39,0,0,0,.08-.39,3.59,3.59,0,0,0,0-.61V23.14a5,5,0,0,0,0-.61,3.22,3.22,0,0,0-.08-.39,1.06,1.06,0,0,0-.12-.28Zm.68,1.86a3,3,0,0,0,0-.46,1.78,1.78,0,0,0-.19-.53,1.3,1.3,0,0,0-.38-.43,1.07,1.07,0,0,0-.63-.18h-.28l0,5.71.21-.1a.65.65,0,0,1,.34,0,.29.29,0,0,1,.22.22.54.54,0,0,0-.31,0,.52.52,0,0,0-.25.18.65.65,0,0,0-.12.28.46.46,0,0,0,0,.32.32.32,0,0,0,.15.16A.51.51,0,0,0,147,29H147a.51.51,0,0,0,.39-.18,1.33,1.33,0,0,0,.28-.43,2.33,2.33,0,0,0,.16-.53,3.23,3.23,0,0,0,.06-.46Z"/></svg>