<svg id="Layer_1" data-name="Layer 1" xmlns="http://www.w3.org/2000/svg" viewBox="0 0 205 80"><defs><style>.cls-1{fill:#f4ae00;}.cls-2{fill:#110a1a;}</style></defs><title>pangolin-buttons</title><rect class="cls-1" x="9.15" y="11.5" width="185.87" height="58"/><path class="cls-1" d="M194.35,69.5c.09.26.28.11.24-.6l-.33-.5Z"/><path class="cls-1" d="M195,64.74c-.16-.83-.44-1.79-.74-1.25.32.82.18,1,.56,1.91,0,.71-.1,1.23-.23,1.11.09.25-.07,1.1.14,1.48a7.55,7.55,0,0,0,.05-3.3C194.82,64.43,194.9,64.68,195,64.74Z"/><path class="cls-1" d="M179.09,11l.44,0A1.89,1.89,0,0,0,179.09,11Z"/><path class="cls-1" d="M136.23,10.85c.33,0,.47,0,.48-.07C136.41,10.81,136.16,10.83,136.23,10.85Z"/><path class="cls-1" d="M128.92,10.49l.43,0A1.08,1.08,0,0,0,128.92,10.49Z"/><path class="cls-1" d="M179.09,11l-1.15-.11C177.86,11,178.53,11,179.09,11Z"/><path class="cls-1" d="M194.17,55.2a3.47,3.47,0,0,0,.08.62l0-.58A.1.1,0,0,1,194.17,55.2Z"/><path class="cls-1" d="M195.75,14.46v.35a2.55,2.55,0,0,0,.13.29Z"/><path class="cls-1" d="M195.8,29c0-.33-.27-.44-.39-.56a1.57,1.57,0,0,1,.19.71C195.65,29.12,195.72,29.07,195.8,29Z"/><path class="cls-1" d="M195.31,52l0,.41C195.33,52.25,195.32,52.08,195.31,52Z"/><path class="cls-1" d="M187.6,10.71a.23.23,0,0,0-.13-.1S187.52,10.68,187.6,10.71Z"/><path class="cls-1" d="M178.21,68.18s0,0,0,0S178.32,68.18,178.21,68.18Z"/><path class="cls-1" d="M195,69.57l-.24,0a.43.43,0,0,0-.05.16Z"/><path class="cls-1" d="M115.53,10.13h.06C115.94,10.1,115.74,10.11,115.53,10.13Z"/><path class="cls-1" d="M8,28.05c.25-1.39.33,2.27.61.17C8.48,28.42,8.15,26.32,8,28.05Z"/><path class="cls-1" d="M194.2,54.83v-.6A5.85,5.85,0,0,0,194.2,54.83Z"/><path class="cls-1" d="M8.59,28.22h0l0-.22Z"/><path class="cls-1" d="M84.67,10.3a.89.89,0,0,0,.32.12S84.9,10.36,84.67,10.3Z"/><path class="cls-1" d="M107.66,10.7l-.57,0A4.21,4.21,0,0,0,107.66,10.7Z"/><path class="cls-1" d="M72.74,10.7a3.66,3.66,0,0,0-.84,0l.13,0A1.74,1.74,0,0,1,72.74,10.7Z"/><path class="cls-1" d="M60.32,10.7l.22.05h.4Z"/><path class="cls-1" d="M140.46,68.32a1.71,1.71,0,0,1,.57.25C140.84,68.37,142.67,68.3,140.46,68.32Z"/><path class="cls-1" d="M194.32,55.2a.62.62,0,0,1-.12-.37c0,.14,0,.28,0,.41S194.3,55.28,194.32,55.2Z"/><path class="cls-1" d="M72.23,12.91l-2,0C70.81,12.9,71.53,12.91,72.23,12.91Z"/><path class="cls-1" d="M51.34,68.36l.46,0A1.57,1.57,0,0,0,51.34,68.36Z"/><path class="cls-1" d="M64.4,12.91a6.43,6.43,0,0,0-1.11-.19,1.25,1.25,0,0,0-.23.07Z"/><path class="cls-1" d="M141,68.57h0Z"/><path class="cls-1" d="M154,67.9c-1.88,0-.89.37-1.29.58-2.24.1-1-.27-1.8-.46-1.4.09-2.47.43-3.52.42-.08-.06-.28-.08,0-.16-1.48.29-4.4,0-6.13.38a.46.46,0,0,1-.22-.09c.28.19.32.37.26.51-.84,0-1.56.23-1.88,0a1.47,1.47,0,0,0,.8-.17l-.88.11c-.8-.35,1.2-.12,1.2-.38a43.42,43.42,0,0,1-5,.3c-.27-.34,3.09-.11,1.33-.41l2,.13c-1.56-.54,1.24,0-.19-.54-2.69-.1-3,.18-5.69.08-.6.18.2.28-.4.46-3.81.34-3-.85-5.8-.4a4.56,4.56,0,0,1-3,.43l.68-.38c-2.61,0-1.49.55-4.21.29.48-.15,2-.13,1.65-.17-1.77-.31-1.25.22-2.61.22L119,68.3c-2.77,0-5.82.29-8.89.36.17-.1.69-.21,0-.31-3.87.17-8.26,0-12-.25l-1.42.3c-.33,0-.62-.14-.26-.19-1.45-.12-.07.18-.77.3s-1.1-.17-.57-.26a58.54,58.54,0,0,1-10,.22l.53-.08c-2.11-.12-2.38.6-4.33.32l.37,0c-4.57-.13-9.62.14-13.11-.3-.66.42-4.52-.19-4.82.4a47.73,47.73,0,0,0-5.53-.59c-1,0-1.47.37-2.68.43l0-.31-1.65.32-.88-.37-1.13.08c.45,0,1,.14.89.23a13.67,13.67,0,0,1-4.38-.37l-4.21.26a4.57,4.57,0,0,1,1.36-.25c-2.25.32-.41-.32-2.47,0,.28.07-.15.18-.19.24a30,30,0,0,0-5.09-.11l.33-.21c-3.12,0-6.58.1-10.08.1,1.26.1,1,.46-.06.5l-.41-.33c-.66.21,1.07.13-.29.37-1.31,0-.88-.37-.13-.47l-1.59.11c-.09-.1.28-.15.38-.27-.65.2-2.75-.33-3.69,0L22.08,68c-3.5,0-5.09.1-7.94.12-.05.28-1.17.22-2,.45l-1.39-.08-.5-.09,0-.34a3.22,3.22,0,0,0,0-.52c0-.66,0-1.34,0-2-.14-1.78-.24-.52-.41-1.32.26-.13.23-2.65.42-1.34,0-3,0-3.87-.26-7.71-.11.42-.15.89-.24.64,0-.69.11-1.58.23-1.48l0,.18c-.39-4.3.74-9.93.21-13.35l0,.19-.28-3.55c0-1.64.19,1,.35-.23-.43-3.83.06-6.06-.22-9.21.75-2.45-.06-8.67.43-12l-.18.19c-.18-.85.1-1,.14-1.66-.14.09-.16.93-.26.4,0-.88,0-1.76-.05-2.67l3.45.06,4.64.13,9.26.29c2.71.05,1.54-.92,5-.5l-1,.33c5.47-.39,11.17,0,16.52-.32a1.91,1.91,0,0,1-.85.17,11.73,11.73,0,0,0,4.2-.18c.83,0,.19.18.71.28,1.13.14,2.84-.31,3.44-.07.1,0-.32.08-.52.1.73-.12,3.44,0,2.73-.25,2,.13,3.84-.13,5.44,0,1-.31,3.44.15,3.77-.29-.15.45,3.52.36,4.79.15-.43.14,1.1.14.6.33,1.45,0,2.78-.09,2.53-.32,2.66.54,5.36-.44,6.86.26,4.3-.24,8.29-.41,12.16-.52-.14.46-4.28.05-4.12.52,3.68-.18,5.79-.57,9.43-.46,1,.06-.53.19-.85.27,3.67-.18,7.09,0,10.36-.2a2.28,2.28,0,0,1-.7.12c.65,0,1.5.07,1.43-.14l-.63.06c-1-.3,2.55-.63,2.67-.78-1.09.59,3.22.15,1.49.89.42,0,1-.14.86-.28.62,0,.82.12.19.28,2.3-.11,1.48-.33,3.57-.32,0,.1-.43.13-.65.25a15,15,0,0,1,3.89-.3c-.11.06.1.13-.43.13,3,0,5.16-.51,8.49-.33-1,.44,1.13.15,1.3.52l1.79-.11-.72-.18c1.57,0,2.95-.27,4.3-.15l-1.16.16,2.93-.07-1.66-.14c1.58-.2-.17-.48,1.91-.37-.42,0,1.57,0,2.38.22h0a10.71,10.71,0,0,1,2.73-.15c.3.12-.24.41-.05.49.77-.31,3.67-.08,4.64-.42-.33.08-.34.28-.24.32l.64-.25c.73.08.84.12.72.27,2.18.05-.69-.47,1.89-.27a3.79,3.79,0,0,1-.53.1c2.61.11,5-.16,7.42,0,.7.38-2.09.1-1.28.41,3.44-.07,7.13-.45,10.46-.36l-.62,0c.47-.53,2.49.26,4.17,0-.41,0-.54.3-.43.24,2.29.08,4.67-.13,8.13-.3l-.43.14c1.35.12,3.55.07,5,.13.43-.14,1.26-.12.76-.31a26.71,26.71,0,0,0,6.16.18c1-.06,2-.13,2.93-.15.47,0,1,0,1.4,0a5.93,5.93,0,0,1,.94.11c0,.14,0,.28-.08.42a1.37,1.37,0,0,0,0-.31c-.2,0-.31.09-.19.09h.12l.06.87.06,1.59c.23-.27.14-.45.32-1.16a9.46,9.46,0,0,1,.24,2.22c-.15-1.52-.37,0-.5.68.07-.12.15.11.22.05-.41,1.77.47.3.19,2.72l-.12-.13a26,26,0,0,1,.19,2.71c-.27.4-.13-1-.35-1,0,1.37.51,2.7.24,3.94-.07-.58-.07-1.42-.15-2a9.56,9.56,0,0,0-.28,2.51v-.1l-.14,2.32.09-.59c.69,1.71.12,3.49.58,5.79-.43-2.24-.25-.37-.55-.54-.09.59-.18,1.49-.27,1.23.25,1.09-.19,1.82.17,3.36-.1.07,0,1.17-.25.92.07,1.42.16-.33.29-.21.33,2.18-.41,5.14,0,8.28.19,2.71.52,3.21.68,5.73-.15.85-.35-.69-.35-.69a17.52,17.52,0,0,0,0,3.69c-.08-.26-.16,0-.27.4,0,1,.36.69.22,2.06a4.33,4.33,0,0,1-.4-1c.09,1.23.28,2.43.36,3.7-.17.33-.25-.77-.37-1.21a19.15,19.15,0,0,0,.43,4.12l.09-.91c0,.51-.23.26-.28-.12-.21-1.22.1-1.76.19-1.83l.07.9c.57-.92-.09-3.61-.06-5.42l.41.75-.34-1.86c.11-.39.34-.66.4.23.21-1.3-.15-1.15.08-2.26,0-.13.06-.07.08,0l-.13-1.27c.09.25.3-.21.24.57.24-2.28-.32-3.67,0-4.53l0,.19c-.14-3.16-.3-.31-.66-2.68l.75-1.59-.3-.31c0-.33,0-1,.15-.86-.2-1.21-.13.21-.33-.49.28-1.57-.13-4.33.36-4.69-.23-.56-.18,1.51-.34-.17.52-.48-.09-1.94.15-3.37.27.44.13,1.8.37.36-.46-.86.1-2.79,0-4-.36-.06-.15-2.63-.27-4.66.12.13.2-3.82.33-5.71l.06.06c-.37-.37-.3-2.32-.37-3.73.22,0,.3.31.4,1.08V14.81a5.24,5.24,0,0,1-.22-1.59l.27.33,0-1.28c0-.48-.05-1-.07-1.45l-2.49.09a19.74,19.74,0,0,1-2-.06c-.13.26,1.82.72-.6.89-.09-.14-.17-.38.46-.43a5,5,0,0,1-1.16,0l1-.23c-1-.1-.55.19-1.38.17,0-.19-.61-.14-.49-.29a6,6,0,0,0,1,0,11.18,11.18,0,0,1-2.45-.3c.09.11,0,.26-.68.29-1.78,0-.61-.24-1.65-.34-.42.14-1.56,0-1.59.29a1.4,1.4,0,0,1-.81-.22c-.92.13-4.29,0-3.26.35l.24,0-.15,0h0c-3,.29-6.26-.17-9.24,0V11c-1.78.11-4,.06-5.24.28-.53,0-1.24-.19-1-.3a17,17,0,0,1-3.48,0c1.37-.17-.47-.15,1.4-.13a15.88,15.88,0,0,0-4.07,0c.65-.25-1.33-.32-2.18-.24l1.24.18c-.94,0-1.77,0-2.61,0l.45-.33c-3.62-.41-6.53.69-9.29,0-1,.23,2,.16,1.11.44-1.67,0-3.4-.53-3.92-.53-2.29-.18-2.14.49-4.52.36.3.12.59.44-1.2.55-1.66,0-2-.5-1-.59.4,0,.59,0,.57.06.54,0,1.25-.09.59-.22l-.22.12c-.83-.12-3.12-.11-2.58-.3-1.26.11-.54.19.39.25-2.14-.17-3.34,0-5.54-.12.35.07.67.21.32.21-3.23-.15-1.42.22-3.61.27-1.24-.18.45-.43-1.76-.28-1.34-.12-.28-.31.25-.41a25.94,25.94,0,0,1-4.89-.19l1-.1a16.59,16.59,0,0,1-1.67.06l.6.24c-.62-.05-1.15-.05-1.14-.15-.64.16.49.4-.78.61-.82-.12-2.52.13-2.8-.18,2.6.1-.29-.32,1.91-.37a10.23,10.23,0,0,1-1.56,0c-.1,0,.09-.06.26-.08-2.49-.28-1.15.36-3.73.35.33-.18-.6-.34-1-.3,1,0,.5.3-.46.43a14.37,14.37,0,0,0-2.66.09l1,.06a8.39,8.39,0,0,1-2.32.21c-.1-.13,1-.09.64-.15-1.29.31-2.9-.33-4.69-.12-.82-.12-.08-.33-.8-.41-2,.23-2.17-.24-4.28,0,.61.24.72.18-.76.41l3.46-.17-2.22.35c1,0,2.2-.15,2.82-.11-1,.19-1,.13-.45.33-1.42-.36-2.83.21-4.48,0l.05-.59c-2.48-.26-4.41.3-7.63.15l1,.11a18.3,18.3,0,0,1-3,.12c.09-.19-.56-.27-1-.39.05.15-2.36,0-2.66.38l-1.44-.26c-2.6-.1-3,.57-5.47.5.75-.22-.38-.36,1.29-.51-.83,0-1.58,0-1.6.1-.48-.12-2.31.26-3.08.08a3,3,0,0,1-1.41.27c-.1,0,0-.09,0-.09s-1.47.13-.65.35c-2.58-.62-7.19,0-9.44-.49-1.82.07-4,.13-5.67.15.1-.06,0-.1.32-.08-2.29-.18-1.41.57-4,.36-1.32-.32,1.38-.17.56-.29-.36-.65-3.14.09-4.89-.29l.43,0c-1.34-.22-3.27.25-5.45.2,0,0,.11-.06,0-.1a47.63,47.63,0,0,1-6.42.53c.66-.25,1-.13.56-.39-.94,0,.27.42-1.61.49-.61-.14-2-.26-2.14-.54H34c-.91-.36-2.29,0-3.23-.05l.12-.16c-2.72.05-2.75.44-5.67.42l.3.11c-1.6.39-1.34-.21-2.93.08l-.48-.4c-1.06.1-3.69.38-5.58.46a43.48,43.48,0,0,1,4.65-.62,25.79,25.79,0,0,0-4.1.22,7,7,0,0,1,1.37-.07,22.26,22.26,0,0,1-5,.46c.12-.25-.41-.36-1.24-.41-.43,0-.89,0-1.44,0l-2.37,0c0,.82,0,1.61-.09,2.33a4.22,4.22,0,0,1-.21,1.14c.28,3.68-.13,7.3-.08,11.59.6-1.52,0,1.25.63,1a6.58,6.58,0,0,1,0,1.47l-.37,3C8,32,8.09,30.29,8,30.39c0,2.18-.26.91-.42,2.36.22-.3.31.76.23,2L8,33c.33,3.06-.51,2.64-.19,5.72l-.19-1c.11,1.58,0,5.83.48,7.38-.07.28-.23.65-.28-.05-.07,3.78.53,8.41.22,11.34l-.15-.28a7,7,0,0,1,.13,2.1c-.06,0-.15-.28-.15,0a14.81,14.81,0,0,1,.17,2.8l-.17-.8a27.39,27.39,0,0,0,.15,4.6c.07.67.14,1.32.21,2,0,.34.06.69.1,1.06s0,1,.05,1.6a2,2,0,0,0-.27,1c.29.06.73.1,1.25.15l1.6.1c.73.06,1.48.1,2,.13l0,.06c4.29,0,7.29-.37,11.26-.54,2.47.48,8.35.2,12.32.47-.61-.08.09-.34.8-.39.93.09,2.57-.3,2.42.1h-.33c.7.4,2.61.29,4.11.3l.24-.52c3.91.76,10.23-.29,12.36.4.94-.13,2.11-.13,3-.26l0,.28c2.61.07,3.92.11,7.14,0l-.66.21c1.82,0,2.3-.82,4-.84l.5.42c3.18,0,6.39.37,9.53,0,0,.06-.15.18-.66.2,1.5,0,5.78.28,5.24-.3,0,.38,3.27,0,5-.13l-.27.28a12.54,12.54,0,0,1,3.52-.55c.48,0,.42.22-.22.15,1.6.15,1.24-.26,3.18-.11l-.72.17A5.84,5.84,0,0,0,97.1,70a8.38,8.38,0,0,1,3.36.33,4.27,4.27,0,0,1,2.09-.29c.13.09-.22.15-.4.18,2.74.19,4.08-.32,6,0,0,.09.16.14.32.17-2.18,0-3.94,0-3.78,0,0,.25,1.77.3.37.65a30.78,30.78,0,0,1,5.54-.49.69.69,0,0,1,.23.09l-.18,0a6.34,6.34,0,0,0,1.09,0c.55,0,.9.07,1.42.07a11.91,11.91,0,0,0,2.9.13c-.07-.28,1.08-.24,0-.47.14,0-.17,0-.75,0l-.37,0,.06,0-2.19,0a6,6,0,0,1,2.39-.11c.45-.18,1-.37,1.23-.45,1.2.39,3.52.6,3.84.84,2.68-.15,6.32-.1,8-.63a1.78,1.78,0,0,1,1.16.24,9.41,9.41,0,0,0-1.2.12c1.52-.14,4.51-.06,4.88-.43,1.92.17-1.08.34,1.56.28l-.36.12c5.2.59,8.45-1,14.21-.19a1.8,1.8,0,0,1-.68-.13c6.57.34,13.53-.31,20,.22a9.54,9.54,0,0,0,3.17-.31l.4.3,1.92-.35c2.72-.25,4.72.74,8.17.26l-.45-.2c1.24,0,3.93-.12,3.72.11a1.42,1.42,0,0,1,.89-.1l0,.16,3-.28c2.36.12-.37.63,3.08.66,1.28-.06,3.64-.46,3.16-.56s-1.32-.1-1.36-.26l1.17-.08c.22-.47,1.12-.94-1.76-1.27l-2,.28-.64-.22,1.68,0a4.78,4.78,0,0,0-2.24.11,1.85,1.85,0,0,0-.84-.25l-2,.45c-.23-.19.89-.37-.43-.47-.92.21.88.41-.64.55-1-.21-.68-.39-1.81-.21-.16-.12.08-.19.53-.24a23.09,23.09,0,0,0-3.17.3c-1-.26-3.38.07-3.28-.37a13.19,13.19,0,0,1-2.68.36c1.68-.52-3.44,0-3-.59-1.24.47-4.49.21-6.69.47a1.53,1.53,0,0,1,.56-.09,19.33,19.33,0,0,1-2.4-.27c-.16.39-2.09.48-3.13.72-1.51-.37.93-.46.45-.82.08.32-2.64.32-2.12.58-1.16-.23-1-.11-1.6-.44-.21.49-1.08.09-2,.39-1.68-.24-.43-.46-2.28-.31C152.39,68.08,154,67.9,154,67.9Zm-43.93.85h0l.91,0Zm-3.69,0H108c.13.09,0,.19-.38.19C107.84,68.89,107,68.84,106.42,68.76Zm7.81,1.94c-.58,0-.78,0-.86-.07l1,0,.07,0A.43.43,0,0,1,114.23,70.7Z"/><path class="cls-1" d="M115.28,70.33l.24,0-.35-.06-.2.09Z"/><path class="cls-1" d="M179.61,11.08h-.08a.61.61,0,0,1,.17,0Z"/><polygon class="cls-1" points="55.45 68.22 55.46 68.29 55.78 68.23 55.45 68.22"/><path class="cls-1" d="M194.47,16.43a.7.7,0,0,0-.07.26A.88.88,0,0,0,194.47,16.43Z"/><path class="cls-1" d="M194.41,25.21l-.1,1.24C194.36,25.91,194.39,25.52,194.41,25.21Z"/><path class="cls-1" d="M194.27,32a.31.31,0,0,0,.12.13h0Z"/><path class="cls-1" d="M108.12,12.58h-.26C107.25,12.65,107.67,12.63,108.12,12.58Z"/><path class="cls-1" d="M140.07,11.92l-1,.14C139.61,12.08,140.05,12.08,140.07,11.92Z"/><path class="cls-1" d="M72.45,12.92h0Z"/><path class="cls-1" d="M137.56,12.05a8.17,8.17,0,0,0,1.48,0A12.17,12.17,0,0,0,137.56,12.05Z"/><path class="cls-1" d="M194.14,61.22v.33s0,0,0,0Z"/><path class="cls-1" d="M194.17,61.59l0,.36A1,1,0,0,0,194.17,61.59Z"/><path class="cls-1" d="M194.28,62.71l-.07-.76A2.21,2.21,0,0,0,194.28,62.71Z"/><path class="cls-1" d="M194.27,52.28l-.1-.1A.13.13,0,0,0,194.27,52.28Z"/><path class="cls-1" d="M194.24,49.57a20.25,20.25,0,0,0-.15,2.53l.08.08C194,51.76,194.41,50.18,194.24,49.57Z"/><path class="cls-1" d="M195.5,38.23l-.08,2.28c.11-.4.25-.92.28.11C196,37.75,195.46,41.21,195.5,38.23Z"/><path class="cls-1" d="M195.66,31.17c.05,1.23.16,0,.22,0C195.78,30.45,195.75,30.26,195.66,31.17Z"/><path class="cls-1" d="M163.69,10.86l.12-.26C162.87,10.64,163.8,10.7,163.69,10.86Z"/><polygon class="cls-1" points="153.94 12.18 154.86 12.34 155.29 12.1 153.94 12.18"/><polygon class="cls-1" points="148.18 10.36 148.59 10.32 147.02 10.41 148.18 10.36"/><path class="cls-1" d="M62.52,10.45l.29.31C63.45,10.71,63.58,10.35,62.52,10.45Z"/><path class="cls-1" d="M25.55,10.77a4.45,4.45,0,0,0-2.09-.1C24.29,10.69,25.12,10.81,25.55,10.77Z"/><polygon class="cls-1" points="45.65 70.74 44.9 70.85 46.3 70.76 45.65 70.74"/><path class="cls-1" d="M199.83,76.5c.09.28.29.12.25-.66l-.33-.56Z"/><path class="cls-1" d="M200.45,71.23c-.16-.92-.44-2-.75-1.39.32.92.19,1.14.57,2.12,0,.78-.11,1.37-.23,1.23.08.28-.08,1.22.13,1.64a9.45,9.45,0,0,0,.06-3.66C200.3,70.88,200.39,71.16,200.45,71.23Z"/><path class="cls-1" d="M191.65,3l.49,0A2.31,2.31,0,0,0,191.65,3Z"/><path class="cls-1" d="M144.2,2.85c.36,0,.52,0,.53-.07C144.4,2.81,144.12,2.83,144.2,2.85Z"/><path class="cls-1" d="M136.1,2.49l.48,0A1.34,1.34,0,0,0,136.1,2.49Z"/><path class="cls-1" d="M191.65,3l-1.27-.11C190.29,3,191,3,191.65,3Z"/><path class="cls-1" d="M199.65,60.67a5.56,5.56,0,0,0,.09.69l0-.65Z"/><path class="cls-1" d="M201.23,15.57V16a2.37,2.37,0,0,0,.14.32Z"/><path class="cls-1" d="M201.28,31.62c0-.36-.27-.49-.39-.63a1.8,1.8,0,0,1,.19.79C201.14,31.79,201.2,31.74,201.28,31.62Z"/><path class="cls-1" d="M200.79,57.07l0,.45C200.82,57.41,200.8,57.21,200.79,57.07Z"/><path class="cls-1" d="M201.29,3.57a1,1,0,0,0,.1-.29A.68.68,0,0,0,201.29,3.57Z"/><path class="cls-1" d="M181.89,75.18s0,0,0,0S182,75.18,181.89,75.18Z"/><path class="cls-1" d="M200.5,76.57l-.26,0a.3.3,0,0,0-.05.16Z"/><path class="cls-1" d="M121.28,2.13h.06C121.73,2.1,121.51,2.11,121.28,2.13Z"/><path class="cls-1" d="M2.34,21.83c.25-1.55.32,2.5.6.18C2.83,22.23,2.5,19.9,2.34,21.83Z"/><path class="cls-1" d="M199.69,60.25c0-.21,0-.43,0-.65A4.24,4.24,0,0,0,199.69,60.25Z"/><path class="cls-1" d="M2.94,22h0l0-.24Z"/><path class="cls-1" d="M87.12,2.3a1,1,0,0,0,.35.12S87.37,2.36,87.12,2.3Z"/><path class="cls-1" d="M112.57,2.7l-.63,0A5.18,5.18,0,0,0,112.57,2.7Z"/><path class="cls-1" d="M73.9,2.7a4.36,4.36,0,0,0-.92,0l.14,0A2.11,2.11,0,0,1,73.9,2.7Z"/><path class="cls-1" d="M60.15,2.7l.25,0h.44Z"/><path class="cls-1" d="M140.1,75.32a1.94,1.94,0,0,1,.63.25C140.52,75.37,142.54,75.3,140.1,75.32Z"/><path class="cls-1" d="M199.81,60.66a.62.62,0,0,1-.12-.41v.46S199.78,60.76,199.81,60.66Z"/><path class="cls-1" d="M73.34,4.91l-2.18,0C71.77,4.9,72.56,4.91,73.34,4.91Z"/><path class="cls-1" d="M41.43,75.36l.5,0A1.87,1.87,0,0,0,41.43,75.36Z"/><path class="cls-1" d="M64.68,4.91a8,8,0,0,0-1.24-.19,1.26,1.26,0,0,0-.25.07Z"/><path class="cls-1" d="M140.74,75.57h0Z"/><path class="cls-1" d="M155.13,74.9c-2.08,0-1,.37-1.42.58-2.49.1-1.15-.27-2-.46-1.55.09-2.74.43-3.9.42-.08-.06-.31-.08,0-.16-1.64.29-4.87,0-6.78.38a.53.53,0,0,1-.25-.09c.31.19.35.37.29.51-.93,0-1.73.23-2.08,0a1.75,1.75,0,0,0,.88-.17l-1,.11c-.88-.35,1.33-.12,1.33-.38a53.25,53.25,0,0,1-5.59.3c-.31-.34,3.42-.11,1.47-.41l2.26.13c-1.73-.54,1.37,0-.22-.54-3-.1-3.32.18-6.29.08-.67.18.22.28-.45.46-4.22.34-3.32-.85-6.42-.4a5.49,5.49,0,0,1-3.32.43l.75-.38c-2.88,0-1.65.55-4.66.29.53-.15,2.26-.13,1.82-.17-2-.31-1.38.22-2.88.22l-.31-.34c-3.07,0-6.45.29-9.84.36.18-.1.77-.21,0-.31-4.28.17-9.14,0-13.28-.25l-1.58.3c-.36,0-.68-.14-.28-.19-1.61-.12-.08.18-.86.3s-1.21-.17-.63-.26a71.67,71.67,0,0,1-11.09.22l.59-.08c-2.34-.12-2.64.6-4.8.32l.42,0c-5.06-.13-10.66.14-14.52-.3-.73.42-5-.19-5.33.4A58.31,58.31,0,0,0,49,75.17c-1.09,0-1.62.37-3,.43l0-.31-1.83.32-1-.37-1.26.08c.51,0,1.07.14,1,.23a16.59,16.59,0,0,1-4.84-.37l-4.66.26a5.39,5.39,0,0,1,1.5-.25c-2.49.32-.45-.32-2.73,0,.3.07-.17.18-.22.24a36.72,36.72,0,0,0-5.63-.11l.36-.21c-3.45,0-7.28.1-11.16.1,1.39.1,1.07.46-.06.5L15,75.35c-.73.21,1.19.13-.32.37-1.44,0-1-.37-.14-.47l-1.76.11c-.1-.1.31-.15.42-.27-.72.2-3-.33-4.08,0L9,75c-2.2,0-4.54,0-4.13.07,0,0,0-.12,0-.19l0-1.66C4.58,73.18,4.64,72,4.41,71c.09-2.32.31-4.9.29-7.69-.14-2-.24-.58-.41-1.46.26-.15.24-2.94.42-1.49,0-3.36,0-4.29-.26-8.53-.1.46-.15,1-.24.71,0-.77.11-1.75.23-1.64l0,.2c-.38-4.76.75-11,.21-14.78l0,.21L4.43,32.6c.05-1.81.19,1.09.35-.25-.42-4.24.06-6.7-.22-10.2.76-2.7,0-9.6.43-13.25l-.18.21C4.64,8.17,4.91,8,5,7.28c-.13.1-.16,1-.25.43,0-1,0-2-.06-3.07l3.94.06,5.14.13L24,5.12c3,0,1.7-.92,5.48-.5L28.39,5c6-.39,12.36,0,18.28-.32a2.31,2.31,0,0,1-.94.17,14.35,14.35,0,0,0,4.65-.18c.92,0,.21.18.78.28,1.26.14,3.15-.31,3.82-.07.11,0-.36.08-.59.1.82-.12,3.81,0,3-.25,2.22.13,4.25-.13,6,0,1.16-.31,3.81.15,4.18-.29-.16.45,3.89.36,5.3.15-.47.14,1.22.14.67.33,1.6,0,3.07-.09,2.79-.32,3,.54,5.94-.44,7.6.26,4.77-.24,9.18-.41,13.46-.52-.15.46-4.74,0-4.55.52,4.06-.18,6.41-.57,10.44-.46,1,.06-.59.19-1,.27,4.06-.18,7.86,0,11.47-.2a2.75,2.75,0,0,1-.77.12c.71,0,1.66.07,1.58-.14l-.7.06c-1.13-.3,2.83-.63,3-.78-1.21.59,3.57.15,1.65.89.47,0,1.05-.14,1-.28.69,0,.91.12.21.28,2.55-.11,1.64-.33,4-.32,0,.1-.47.13-.71.25a18.31,18.31,0,0,1,4.3-.3c-.12.06.11.13-.48.13,3.36,0,5.72-.51,9.4-.33-1.08.44,1.25.15,1.45.52l2-.11-.8-.18c1.74,0,3.27-.27,4.76-.15l-1.29.16,3.25-.07-1.84-.14c1.75-.2-.19-.48,2.12-.37-.47,0,1.73,0,2.64.22h0a13.13,13.13,0,0,1,3-.15c.34.12-.27.41-.05.49.85-.31,4.06-.08,5.13-.42-.36.08-.37.28-.26.32l.71-.25c.81.08.92.12.79.27,2.42.05-.76-.47,2.1-.27a4.56,4.56,0,0,1-.58.1c2.88.11,5.56-.16,8.2,0,.78.38-2.31.1-1.41.41,3.81-.07,7.89-.45,11.59-.36L177,4c.51-.53,2.75.26,4.61,0-.45,0-.6.3-.47.24,2.53.08,5.17-.13,9-.3l-.48.14c1.49.12,3.92.07,5.53.13.48-.14,1.4-.12.84-.31.77.11,1.52.19,2.27.23l.89,0h.66c.07,1.41.14,2.78.2,4.13a24.51,24.51,0,0,1-.17,4.62c0-.53-.11-1.26-.12-.84l.13,3.75c.23-.29.14-.49.32-1.28a11.07,11.07,0,0,1,.24,2.47c-.15-1.69-.37,0-.5.74.07-.12.15.13.22.06-.41,2,.47.33.19,3l-.12-.14c.06,1,.22,1.92.19,3-.27.45-.13-1.07-.35-1.14,0,1.52.51,3,.24,4.37-.07-.65-.07-1.57-.15-2.22a11.75,11.75,0,0,0-.28,2.78v-.11l-.14,2.57.08-.66c.7,1.9.13,3.87.58,6.42-.43-2.48-.25-.41-.55-.6-.08.65-.18,1.65-.26,1.36.24,1.21-.19,2,.16,3.73-.1.07,0,1.29-.25,1,.07,1.57.17-.38.29-.24.33,2.42-.4,5.69.05,9.17.19,3,.52,3.56.68,6.34-.15.94-.35-.77-.35-.77a22.36,22.36,0,0,0,0,4.09c-.08-.29-.15,0-.26.44,0,1.15.35.77.21,2.28a5,5,0,0,1-.39-1.14c.09,1.35.27,2.69.36,4.09-.17.37-.26-.85-.37-1.34a22.8,22.8,0,0,0,.42,4.56l.1-1c0,.57-.23.29-.28-.13-.21-1.35.09-1.94.19-2l.06,1c.57-1-.09-4-.06-6l.42.83-.35-2c.11-.44.34-.74.4.25.21-1.44-.14-1.27.09-2.51,0-.14.05-.07.07,0l-.13-1.4c.09.27.3-.24.24.63.24-2.53-.31-4.07,0-5l0,.21c-.14-3.5-.31-.34-.67-3l.76-1.77-.31-.35c0-.36,0-1.07.16-.94-.21-1.34-.14.23-.33-.55.28-1.74-.13-4.79.35-5.18-.23-.63-.18,1.66-.34-.2.53-.53-.09-2.14.15-3.73.27.49.13,2,.37.4-.46-1,.1-3.09,0-4.43-.36-.06-.15-2.91-.27-5.16.12.15.2-4.23.33-6.32l.06.07c-.36-.41-.29-2.57-.37-4.14.22.07.31.35.4,1.2V16a6.43,6.43,0,0,1-.22-1.76l.28.37a63,63,0,0,1-.14-6.49c-.26-.14-.72,2-.89-.66.14-.1.38-.2.43.5a6,6,0,0,1-.05-1.28l.23,1.07c.1-1.15-.19-.6-.17-1.52.19,0,.14-.68.29-.55a7.43,7.43,0,0,0,0,1.16c0-.52.06-1.1.11-1.59s.12-1.29.19-1.63c-.1.19-.23.15-.28-.58h-.25c-1.28,0-1.49,0-1.57-.13a.41.41,0,0,0-.15-.11,2,2,0,0,0-.54-.1c-.48.14-1.73,0-1.76.29a1.74,1.74,0,0,1-.91-.22c-1,.13-4.75,0-3.6.35l.26,0-.16,0h0C189,3.41,185.4,3,182.1,3.07V3c-2,.11-4.39.06-5.8.28-.59,0-1.38-.19-1.13-.3a21,21,0,0,1-3.86,0c1.52-.17-.52-.15,1.56-.13a19.48,19.48,0,0,0-4.51,0c.71-.25-1.48-.32-2.41-.24l1.37.18c-1,0-2,0-2.89,0l.5-.33c-4-.41-7.24.69-10.29,0-1.06.23,2.18.16,1.23.44-1.85-.05-3.77-.53-4.35-.53-2.52-.18-2.36.49-5,.36.34.12.66.44-1.32.55s-2.27-.5-1.1-.59c.44,0,.65,0,.63.06.6,0,1.38-.09.65-.22l-.24.12c-.91-.12-3.45-.11-2.86-.3-1.39.11-.59.19.44.25-2.37-.17-3.7,0-6.14-.12.39.07.74.21.36.21-3.58-.15-1.58.22-4,.27-1.38-.18.49-.43-1.95-.28-1.48-.12-.31-.31.28-.41a31.86,31.86,0,0,1-5.42-.19L127,2c-.7.06-1.27.06-1.86.06l.67.24c-.69-.05-1.27-.05-1.25-.15-.71.16.54.4-.87.61-.91-.12-2.79.13-3.11-.18,2.89.1-.31-.32,2.13-.37a12.72,12.72,0,0,1-1.74,0c-.1,0,.1-.06.29-.08-2.76-.28-1.27.36-4.13.35.36-.18-.66-.34-1.13-.3,1.15,0,.55.3-.5.43a17.64,17.64,0,0,0-3,.09l1.09.06A10.14,10.14,0,0,1,111.1,3c-.11-.13,1.16-.09.7-.15-1.42.31-3.21-.33-5.18-.12-.92-.12-.09-.33-.9-.41-2.21.23-2.4-.24-4.73,0,.67.24.79.18-.85.41L104,2.48l-2.46.35c1.16,0,2.44-.15,3.14-.11-1.18.19-1.06.13-.5.33-1.58-.36-3.14.21-5,0l.06-.59c-2.75-.26-4.88.3-8.45.15l1.14.11a22.46,22.46,0,0,1-3.36.12c.11-.19-.61-.27-1.1-.39.06.15-2.62,0-2.94.38l-1.6-.26c-2.88-.1-3.28.57-6.05.5.83-.22-.43-.36,1.43-.51-.93,0-1.76,0-1.77.1-.55-.12-2.57.26-3.42.08A3.69,3.69,0,0,1,71.56,3c-.11,0,0-.09,0-.09s-1.63.13-.72.35c-2.85-.62-8,0-10.45-.49-2,.07-4.45.13-6.28.15.12-.06,0-.1.35-.08-2.52-.18-1.55.57-4.43.36-1.47-.32,1.53-.17.61-.29-.4-.65-3.47.09-5.4-.29l.46,0c-1.47-.22-3.61.25-6,.2,0,0,.11-.06,0-.1a58.22,58.22,0,0,1-7.11.53c.72-.25,1.06-.13.62-.39-1.05,0,.3.42-1.78.49-.68-.14-2.18-.26-2.38-.54h2c-1-.36-2.54,0-3.58-.05l.13-.16c-3,.05-3.05.44-6.28.42l.33.11c-1.76.39-1.48-.21-3.24.08l-.53-.4c-1.17.1-4.09.38-6.18.46,1.19-.3,3.63-.45,5.15-.62a31.38,31.38,0,0,0-4.53.22,8.49,8.49,0,0,1,1.51-.07,27.16,27.16,0,0,1-5.59.46c.14-.25-.46-.36-1.38-.41-.46,0-1,0-1.57,0L2.7,2.7c0,.88,0,1.85-.08,2.53A5.84,5.84,0,0,1,2.4,6.46c.28,4.07-.12,8.08-.08,12.83.6-1.69,0,1.38.63,1.09a8.08,8.08,0,0,1,0,1.63l-.36,3.35c-.18.79-.14-1.05-.28-.95,0,2.42-.26,1-.42,2.62.22-.33.32.84.23,2.22l.28-1.95c.33,3.39-.51,2.93-.19,6.34L2,32.56c.11,1.75,0,6.45.49,8.17-.07.31-.24.72-.28,0-.08,4.18.52,9.31.22,12.56l-.15-.32a9.07,9.07,0,0,1,.13,2.33c-.06,0-.15-.31-.16,0a18.18,18.18,0,0,1,.17,3.11l-.16-.89c-.2,4.08.41,6.26.51,9.68-.44,0-.59,3.2-.66,4.8l-.06,0c0,.83,0,1.62,0,2.37,0,1.23.05,2.4.08,3.53L4,77.8c.58,0,1.26,0,1.48,0l1.92-.13c1.29-.08,2.61-.16,4-.22,2.73.48,9.25.2,13.64.47-.67-.08.11-.34.89-.39,1,.09,2.85-.3,2.68.1h-.37c.78.4,2.9.29,4.55.3l.27-.52c4.32.76,11.33-.29,13.68.4,1-.13,2.34-.13,3.37-.26l0,.28c2.89.07,4.33.11,7.9,0l-.73.21c2,0,2.55-.82,4.4-.84l.56.42c3.52,0,7.08.37,10.55,0-.06.06-.16.18-.73.2,1.65,0,6.4.28,5.8-.3,0,.38,3.63,0,5.52-.13l-.29.28a15.13,15.13,0,0,1,3.89-.55c.53,0,.46.22-.24.15,1.77.15,1.38-.26,3.52-.11l-.8.17A7.12,7.12,0,0,0,92.09,77a10.21,10.21,0,0,1,3.72.33,5.19,5.19,0,0,1,2.31-.29c.15.09-.24.15-.44.18,3,.19,4.52-.32,6.61,0,0,.09.18.14.35.17-2.41,0-4.36,0-4.17,0,0,.25,2,.3.4.65a37.64,37.64,0,0,1,6.14-.49.92.92,0,0,1,.25.09l-.2,0a7.84,7.84,0,0,0,1.21,0c.6,0,1,.07,1.57.07a14.58,14.58,0,0,0,3.21.13c-.08-.28,1.19-.24,0-.47.15,0-.18,0-.83,0l-.41,0,.06,0-2.42,0a7.29,7.29,0,0,1,2.65-.11c.5-.18,1.05-.37,1.36-.45,1.33.39,3.9.6,4.25.84,3-.15,7-.1,8.87-.63a2.1,2.1,0,0,1,1.28.24,11.58,11.58,0,0,0-1.33.12c1.69-.14,5-.06,5.41-.43,2.12.17-1.2.34,1.72.28l-.39.12c5.75.59,9.35-1,15.73-.19a2.26,2.26,0,0,1-.76-.13c7.27.34,15-.31,22.16.22a11.63,11.63,0,0,0,3.51-.31l.44.3,2.13-.35c3-.25,5.22.74,9,.26l-.49-.2c1.37,0,4.34-.12,4.11.11a1.72,1.72,0,0,1,1-.1l0,.16,3.37-.28c2.62.12-.41.63,3.41.66,1.41-.06,4-.46,3.5-.56s-1.46-.1-1.5-.26l1.29-.08c.24-.47,1.23-.94-2-1.27l-2.22.28-.71-.22,1.87,0a5.83,5.83,0,0,0-2.48.11,2.24,2.24,0,0,0-.93-.25l-2.18.45c-.26-.19,1-.37-.48-.47-1,.21,1,.41-.72.55-1.06-.21-.75-.39-2-.21-.18-.12.09-.19.58-.24a27.89,27.89,0,0,0-3.5.3c-1.11-.26-3.74.07-3.64-.37a16.06,16.06,0,0,1-3,.36c1.86-.52-3.81,0-3.31-.59-1.38.47-5,.21-7.41.47a1.81,1.81,0,0,1,.62-.09,23.59,23.59,0,0,1-2.66-.27c-.17.39-2.31.48-3.46.72-1.68-.37,1-.46.49-.82.09.32-2.92.32-2.35.58-1.28-.23-1.11-.11-1.77-.44-.22.49-1.2.09-2.26.39-1.86-.24-.48-.46-2.53-.31C153.31,75.08,155.13,74.9,155.13,74.9Zm-48.63.85h0l1,0Zm-4.09,0h1.78c.14.09,0,.19-.43.19C104,75.89,103,75.84,102.41,75.76Zm8.65,1.94c-.65,0-.87,0-1-.07l1.14,0,.07,0A.5.5,0,0,1,111.06,77.7Z"/><path class="cls-1" d="M112.22,77.33l.27,0-.39-.06-.23.09Z"/><path class="cls-1" d="M192.23,3.08h-.09l.19,0Z"/><polygon class="cls-1" points="45.98 75.22 45.99 75.29 46.35 75.23 45.98 75.22"/><path class="cls-1" d="M200,17.74a1,1,0,0,0-.07.29A.81.81,0,0,0,200,17.74Z"/><path class="cls-1" d="M199.89,27.46l-.1,1.38C199.85,28.24,199.87,27.81,199.89,27.46Z"/><path class="cls-1" d="M199.75,34.94a.35.35,0,0,0,.12.14h0Z"/><path class="cls-1" d="M113.08,4.58h-.29C112.12,4.65,112.58,4.63,113.08,4.58Z"/><path class="cls-1" d="M148.45,3.92l-1.14.14C147.94,4.08,148.43,4.08,148.45,3.92Z"/><path class="cls-1" d="M73.58,4.92h0Z"/><path class="cls-1" d="M145.67,4.05a10,10,0,0,0,1.64,0A14.94,14.94,0,0,0,145.67,4.05Z"/><path class="cls-1" d="M199.62,67.34v.36s0,0,0,0Z"/><path class="cls-1" d="M199.66,67.74l0,.4A1.28,1.28,0,0,0,199.66,67.74Z"/><path class="cls-1" d="M199.76,69l-.07-.84A2.69,2.69,0,0,0,199.76,69Z"/><path class="cls-1" d="M199.75,57.44l-.1-.11A.16.16,0,0,0,199.75,57.44Z"/><path class="cls-1" d="M199.72,54.43a27.5,27.5,0,0,0-.15,2.8l.08.1C199.5,56.86,199.9,55.11,199.72,54.43Z"/><path class="cls-1" d="M201,41.88l-.08,2.52c.11-.44.26-1,.28.13C201.51,41.35,200.94,45.18,201,41.88Z"/><path class="cls-1" d="M201.14,34.07c.05,1.35.16,0,.22,0C201.26,33.26,201.24,33.06,201.14,34.07Z"/><path class="cls-1" d="M174.6,2.86l.14-.26C173.69,2.64,174.73,2.7,174.6,2.86Z"/><polygon class="cls-1" points="163.81 4.18 164.82 4.34 165.31 4.1 163.81 4.18"/><polygon class="cls-1" points="157.43 2.36 157.89 2.32 156.15 2.41 157.43 2.36"/><path class="cls-1" d="M62.6,2.45l.31.31C63.62,2.71,63.77,2.35,62.6,2.45Z"/><path class="cls-1" d="M21.66,2.77a5.41,5.41,0,0,0-2.31-.1C20.27,2.69,21.19,2.81,21.66,2.77Z"/><polygon class="cls-1" points="35.13 77.74 34.3 77.85 35.85 77.76 35.13 77.74"/><path class="cls-2" d="M50.08,28.82a6.1,6.1,0,0,1,2.26.4,5.41,5.41,0,0,1,1.78,1.08,4.74,4.74,0,0,1,1.55,3.54V48a4.55,4.55,0,0,1-.43,2,5,5,0,0,1-1.18,1.58,6.06,6.06,0,0,1-4,1.46,6.28,6.28,0,0,1-2.28-.4A6.08,6.08,0,0,1,46,51.57,4.88,4.88,0,0,1,44.76,50a4.55,4.55,0,0,1-.43-2V33.84a4.29,4.29,0,0,1,.45-1.94A5,5,0,0,1,46,30.3a5.75,5.75,0,0,1,1.83-1.08A6.18,6.18,0,0,1,50.08,28.82Zm2.06,4.92a1.9,1.9,0,0,1-1.13.4,3.24,3.24,0,0,1-1.14-.28,1,1,0,0,1-.58-.92,2,2,0,0,0,1.06.17,1.94,1.94,0,0,0,.91-.36,1.76,1.76,0,0,0,.57-.79,1.91,1.91,0,0,0,.05-1.09V30.8a2.86,2.86,0,0,0-.63-.8,1.76,1.76,0,0,0-1.17-.35,2,2,0,0,0-1.08.27,2.14,2.14,0,0,0-.68.66,2.52,2.52,0,0,0-.37.86,4.65,4.65,0,0,0-.1.87v17.3a4.54,4.54,0,0,0,.1.83,2.83,2.83,0,0,0,.35.86A2.28,2.28,0,0,0,49,52a2.24,2.24,0,0,0,2.13,0,2.08,2.08,0,0,0,.65-.67,2.53,2.53,0,0,0,.31-.86,4.54,4.54,0,0,0,.08-.87Z"/><path class="cls-2" d="M69.34,49a12.46,12.46,0,0,0,.83,2.28,3.1,3.1,0,0,0,1.16,1.25,2.87,2.87,0,0,1-1.11.4,6.61,6.61,0,0,1-1,.1,3.75,3.75,0,0,1-2.08-.72,3.37,3.37,0,0,1-1.22-2l-2-9.91a3,3,0,0,1-1.69-.63v8.94a15.14,15.14,0,0,0,.1,1.95,5.75,5.75,0,0,0,.26,1.24,2.21,2.21,0,0,0,.37.87h-5a3.32,3.32,0,0,0,.37-.87c.08-.31.17-.72.25-1.24a14.91,14.91,0,0,0,.11-1.95V33.18a14.91,14.91,0,0,0-.11-1.95c-.08-.52-.17-.94-.25-1.25a3.38,3.38,0,0,0-.37-.86h5.89a9,9,0,0,1,2.41.3,4.83,4.83,0,0,1,1.86.95A4.22,4.22,0,0,1,69.3,32a6.52,6.52,0,0,1,.44,2.53,6.08,6.08,0,0,1-1.17,3.86,5,5,0,0,1-3.29,1.86,5.47,5.47,0,0,1,.8.47,4.9,4.9,0,0,1,.85.76,5.76,5.76,0,0,1,.76,1.12,5.94,5.94,0,0,1,.55,1.51ZM62.55,38.8a1.2,1.2,0,0,0,.52.51,1.77,1.77,0,0,0,.95.25,1.51,1.51,0,0,0,1.09-.4,2.71,2.71,0,0,0,.69-1.06,6.65,6.65,0,0,0,.33-1.58c.05-.61.08-1.25.08-1.91a7.13,7.13,0,0,0-.28-2.18A4.1,4.1,0,0,0,65.18,31,2.88,2.88,0,0,0,63,30h-.8v5.92a1.5,1.5,0,0,1,.6-.37,1.82,1.82,0,0,1,.73-.1,1.66,1.66,0,0,1,.66.22,1.2,1.2,0,0,1,.47.58,1.77,1.77,0,0,0-1,.1,1.91,1.91,0,0,0-.78.58,2.14,2.14,0,0,0-.4.88A2,2,0,0,0,62.55,38.8Z"/><path class="cls-2" d="M80,52.73a3.64,3.64,0,0,0,.3-.77,5.5,5.5,0,0,0,.15-1,4.92,4.92,0,0,0-.12-1.41l-1.56-8.11H75.32L73.13,51a2.83,2.83,0,0,0-.07.63v.56a3.48,3.48,0,0,0,0,.57H71.3a3.34,3.34,0,0,0,.3-.53,5.32,5.32,0,0,0,.25-.62c.08-.23.16-.49.25-.78l4.62-20a11.33,11.33,0,0,0-.43-1.26l-.2-.4h3.82L82,39.69,84,50.27a5.3,5.3,0,0,0,.26,1,7.64,7.64,0,0,0,.33.78,5.93,5.93,0,0,0,.37.67ZM78.58,40.39l-1.39-7.15-1.63,7.15Z"/><path class="cls-2" d="M98.87,29.12a4.2,4.2,0,0,0-.3.6,2.71,2.71,0,0,0-.22.63,3.94,3.94,0,0,0-.08.8V52.73H97.21L88,33.24V50.7a3.34,3.34,0,0,0,.08.8,5.47,5.47,0,0,0,.18.63,4.2,4.2,0,0,0,.3.6H86.36a4.2,4.2,0,0,0,.3-.6,4.64,4.64,0,0,0,.2-.65,3.15,3.15,0,0,0,.1-.85V32.78A12.41,12.41,0,0,0,86.81,31a9.06,9.06,0,0,0-.25-1.11,2.33,2.33,0,0,0-.33-.77h3.66l7.32,15.37V31.21a3.58,3.58,0,0,0-.1-.84c-.07-.26-.14-.48-.2-.65s-.18-.42-.27-.6Z"/><path class="cls-2" d="M112.64,52.73a4.4,4.4,0,0,1-1.53-.18,3.39,3.39,0,0,1-.77-.45,6.24,6.24,0,0,1-1.53.68A6.05,6.05,0,0,1,107,53a6.38,6.38,0,0,1-2.32-.4,5.82,5.82,0,0,1-1.79-1.08,5.15,5.15,0,0,1-1.18-1.6,4.48,4.48,0,0,1-.44-1.94V33.84a5,5,0,0,1,.39-2,4.29,4.29,0,0,1,1.13-1.6,5.5,5.5,0,0,1,1.88-1.06,7.76,7.76,0,0,1,2.62-.4,6.81,6.81,0,0,1,2.75.48,4.66,4.66,0,0,1,1.69,1.2A4,4,0,0,1,112.6,32a5.19,5.19,0,0,1,.23,1.48,4.38,4.38,0,0,1-.33,1.78,3.85,3.85,0,0,1-.83,1.23,3.19,3.19,0,0,1-1.1.71,3,3,0,0,1-1.13.24,3.65,3.65,0,0,1-2.41-.74,2.06,2.06,0,0,1-.88-1.59,2.63,2.63,0,0,0,1.11.16,3.33,3.33,0,0,0,1.1-.24,3.18,3.18,0,0,0,.92-.6,2.65,2.65,0,0,0,.6-.88,3.27,3.27,0,0,0,.18-1.1,3.09,3.09,0,0,0-.25-1.31A2.58,2.58,0,0,0,109,30.1a2.51,2.51,0,0,0-1.58-.45,2.57,2.57,0,0,0-1.25.27,2.29,2.29,0,0,0-.78.66,2.2,2.2,0,0,0-.41.86,3.39,3.39,0,0,0-.12.83V49.54a3.74,3.74,0,0,0,.1.83,2.74,2.74,0,0,0,.35.87,2.51,2.51,0,0,0,.66.68,2,2,0,0,0,1.09.28,1.88,1.88,0,0,0,1.69-.93,2.63,2.63,0,0,0,.32-.86,5.52,5.52,0,0,0,.08-.87V44.2c0-.77-.07-1.42-.13-1.93a9,9,0,0,0-.24-1.25,2.23,2.23,0,0,0-.36-.86h4.26Z"/><path class="cls-2" d="M126.47,52.73a3.64,3.64,0,0,0,.3-.77,8.24,8.24,0,0,0,.15-1,5.31,5.31,0,0,0-.12-1.41l-1.56-8.11h-3.46L119.59,51a2.83,2.83,0,0,0-.07.63v.56a5.17,5.17,0,0,0,0,.57h-1.79a3.34,3.34,0,0,0,.3-.53,5.37,5.37,0,0,0,.24-.62c.08-.23.17-.49.25-.78l4.63-20a9.19,9.19,0,0,0-.44-1.26l-.2-.4h3.83l2.06,10.57,2.06,10.58a6.14,6.14,0,0,0,.27,1,7.64,7.64,0,0,0,.33.78,3.88,3.88,0,0,0,.37.67ZM125,40.39l-1.4-7.15L122,40.39Z"/><path class="cls-2" d="M135.12,32.88a4.7,4.7,0,0,0,.66,2.44,12.9,12.9,0,0,0,1.65,2.18c.65.71,1.36,1.41,2.12,2.09a22.91,22.91,0,0,1,2.13,2.17,11.39,11.39,0,0,1,1.65,2.44,6.38,6.38,0,0,1,.66,2.91A7.19,7.19,0,0,1,142.45,52a5.86,5.86,0,0,1-4.64,1.76,8,8,0,0,1-2.25-.32,5.72,5.72,0,0,1-1.91-1,4.81,4.81,0,0,1-1.33-1.6,4.68,4.68,0,0,1-.5-2.21,4.73,4.73,0,0,1,.39-2,4.47,4.47,0,0,1,.94-1.39,3.84,3.84,0,0,1,1.25-.83,3.26,3.26,0,0,1,1.25-.29,3.71,3.71,0,0,1,2.59.75,2.3,2.3,0,0,1,.8,1.71,3.28,3.28,0,0,0-1.25-.15,4.05,4.05,0,0,0-1.21.3,3.31,3.31,0,0,0-1,.69,2.87,2.87,0,0,0-.66,1A3.05,3.05,0,0,0,134.7,50a3.23,3.23,0,0,0,.47,1.41,3,3,0,0,0,1,1,2.77,2.77,0,0,0,1.51.4,3.79,3.79,0,0,0,1.61-.32,3.41,3.41,0,0,0,1.13-.81,3,3,0,0,0,.65-1.13,4.16,4.16,0,0,0,.2-1.23,5.85,5.85,0,0,0-.66-2.78A12.07,12.07,0,0,0,139,44.2,28,28,0,0,0,136.79,42a26.52,26.52,0,0,1-2.17-2.21A12.58,12.58,0,0,1,133,37.37a6.31,6.31,0,0,1-.66-2.9,6.24,6.24,0,0,1,.45-2.39A5.5,5.5,0,0,1,136,28.94a6.83,6.83,0,0,1,2.51-.45A5.82,5.82,0,0,1,141,29a5.06,5.06,0,0,1,1.65,1.18,4.38,4.38,0,0,1,.92,1.5,4.62,4.62,0,0,1,.28,1.46,4.51,4.51,0,0,1-.35,1.84,3.82,3.82,0,0,1-.88,1.28,3.59,3.59,0,0,1-1.13.75,2.9,2.9,0,0,1-1.13.25,4.14,4.14,0,0,1-1.22-.18,3.91,3.91,0,0,1-1-.48,2.49,2.49,0,0,1-.71-.7,1.54,1.54,0,0,1-.27-.87,2.6,2.6,0,0,0,1.17.15,3.24,3.24,0,0,0,1.11-.28,3.19,3.19,0,0,0,.93-.63,2.65,2.65,0,0,0,.8-2.05,3.34,3.34,0,0,0-.3-1.31,3,3,0,0,0-.87-1.1,2.43,2.43,0,0,0-1.57-.46,3,3,0,0,0-1.4.31,3.42,3.42,0,0,0-1,.82,3.78,3.78,0,0,0-.63,1.13A4.07,4.07,0,0,0,135.12,32.88Z"/><path class="cls-2" d="M156.4,52.73H145.16a3.35,3.35,0,0,0,.36-.87,8.61,8.61,0,0,0,.25-1.24,13.17,13.17,0,0,0,.12-1.95V33.18a13.17,13.17,0,0,0-.12-1.95,8.8,8.8,0,0,0-.25-1.25,3.41,3.41,0,0,0-.36-.86h5a2.22,2.22,0,0,0-.37.86,6.46,6.46,0,0,0-.27,1.25,17.5,17.5,0,0,0-.09,1.95V50.47a1.18,1.18,0,0,0,.08.41,1.23,1.23,0,0,0,.3.49,1.64,1.64,0,0,0,.61.38,3,3,0,0,0,1,.15h1.17a2.43,2.43,0,0,0,1.23-.28,2.24,2.24,0,0,0,.75-.75,5,5,0,0,0,.45-1l.33-1.18h.76Z"/><path class="cls-2" d="M162.32,48.67a15.14,15.14,0,0,0,.1,1.95,5.75,5.75,0,0,0,.26,1.24,2.21,2.21,0,0,0,.37.87h-5a3.32,3.32,0,0,0,.37-.87,10.25,10.25,0,0,0,.25-1.24,14.91,14.91,0,0,0,.11-1.95V33.18a14.91,14.91,0,0,0-.11-1.95,10.48,10.48,0,0,0-.25-1.25,3.38,3.38,0,0,0-.37-.86h5a2.22,2.22,0,0,0-.37.86,5.86,5.86,0,0,0-.26,1.25,15.14,15.14,0,0,0-.1,1.95V48.67Z"/></svg>