<svg xmlns="http://www.w3.org/2000/svg" width="487.557" height="76.723" viewBox="0 0 487.557 76.723">
    <defs>
        <style>
            .cls-1{fill:#231f20}
        </style>
    </defs>
    <g id="authorities-title" transform="translate(-63.83 -587.004)">
        <g id="title" transform="translate(63.83 587.004)">
            <path id="Path_142" d="M174.829 772.875a11.084 11.084 0 0 0 .915-2.318 19.248 19.248 0 0 0 .454-2.981 15.648 15.648 0 0 0-.353-4.292l-4.745-24.626h-10.5l-6.66 28.866a9.925 9.925 0 0 0-.2 1.923v1.68a13.838 13.838 0 0 0 .1 1.68h-5.45a9.181 9.181 0 0 0 .907-1.613 15.53 15.53 0 0 0 .764-1.865c.235-.705.487-1.5.756-2.377l14.043-60.706a34.268 34.268 0 0 0-1.31-3.838l-.6-1.209h11.607l6.265 32.1 6.257 32.108a18.056 18.056 0 0 0 .84 3.082 23.906 23.906 0 0 0 1.008 2.368 14.279 14.279 0 0 0 1.109 2.016zm-4.329-37.408l-4.241-21.7-4.947 21.7z" class="cls-1" data-name="Path 142" transform="translate(-87.592 -699.284)"/>
            <path id="Path_143" d="M238.326 703.112a8.626 8.626 0 0 0-.655 1.974 11.12 11.12 0 0 0-.252 2.368q0 4.443-.05 8.029t-.05 8.18v34.779a17.932 17.932 0 0 1-1.008 6.055 15.7 15.7 0 0 1-2.839 4.947 12.841 12.841 0 0 1-4.451 3.359 13.775 13.775 0 0 1-5.879 1.218h-1.016q-9.314 0-14.58-3.989t-5.258-11.893v-44.621a40.238 40.238 0 0 0-.353-5.879 31.129 31.129 0 0 0-.756-3.729 11.852 11.852 0 0 0-1.109-2.73h15.177a7.72 7.72 0 0 0-1.125 2.73 17.857 17.857 0 0 0-.84 3.729 46.643 46.643 0 0 0-.311 5.879v44.211a27.718 27.718 0 0 0 .462 5.249 12 12 0 0 0 1.512 4.141 7.785 7.785 0 0 0 2.822 2.73 8.541 8.541 0 0 0 4.292 1.008h1.008a10.447 10.447 0 0 0 4.544-.957 10.238 10.238 0 0 0 3.485-2.679 11.874 11.874 0 0 0 2.217-3.939 14.681 14.681 0 0 0 .764-4.838v-50.889a10.587 10.587 0 0 0-.294-2.57 25.258 25.258 0 0 0-.571-1.974 12.142 12.142 0 0 0-.84-1.814h6.879a15.478 15.478 0 0 0-.924 1.915z" class="cls-1" data-name="Path 143" transform="translate(-95.867 -699.281)"/>
            <path id="Path_144" d="M292.639 701.2l-.907 9.995h-2.31a80.474 80.474 0 0 0-.957-3.359 5.266 5.266 0 0 0-1.47-2.318 6.518 6.518 0 0 0-2.822-1.361 21.937 21.937 0 0 0-5.039-.453v56.834a47.879 47.879 0 0 0 .3 5.879 18.715 18.715 0 0 0 .84 3.788 6.819 6.819 0 0 0 1.109 2.62h-15.116a11.382 11.382 0 0 0 1.109-2.62 31.075 31.075 0 0 0 .756-3.788 40.962 40.962 0 0 0 .361-5.879v-56.81a21.837 21.837 0 0 0-5.039.453 6.509 6.509 0 0 0-2.83 1.361 5.182 5.182 0 0 0-1.461 2.318c-.3.949-.63 2.058-.957 3.359h-2.377l-.907-9.995z" class="cls-1" data-name="Path 144" transform="translate(-104.65 -699.284)"/>
            <path id="Path_145" d="M344.7 760.569a47.879 47.879 0 0 0 .3 5.879 18.714 18.714 0 0 0 .84 3.788 6.82 6.82 0 0 0 1.109 2.62H331.83a9.827 9.827 0 0 0 1.117-2.62 31.064 31.064 0 0 0 .756-3.788 41.16 41.16 0 0 0 .353-5.879v-32.1h-14.8v32.1a47.884 47.884 0 0 0 .3 5.879 18.716 18.716 0 0 0 .84 3.788 6.819 6.819 0 0 0 1.109 2.62H306.39a10.077 10.077 0 0 0 1.117-2.62 32.763 32.763 0 0 0 .756-3.788 41.151 41.151 0 0 0 .353-5.879v-47.033a41.319 41.319 0 0 0-.353-5.879 32.59 32.59 0 0 0-.756-3.78 10.08 10.08 0 0 0-1.117-2.629h15.118a7.886 7.886 0 0 0-1.109 2.73 18.613 18.613 0 0 0-.84 3.779 47.116 47.116 0 0 0-.3 5.812v11.708H334v-11.75a41.32 41.32 0 0 0-.353-5.879 30.9 30.9 0 0 0-.756-3.779 9.779 9.779 0 0 0-1.117-2.629h15.118a11.231 11.231 0 0 0-1.109 2.679 33.806 33.806 0 0 0-.756 3.779 40.242 40.242 0 0 0-.353 5.879v47.033z" class="cls-1" data-name="Path 145" transform="translate(-112.891 -699.291)"/>
            <path id="Path_146" d="M380.881 700.12a18.922 18.922 0 0 1 6.87 1.209 17.2 17.2 0 0 1 5.4 3.284 14.076 14.076 0 0 1 3.477 4.846 14.489 14.489 0 0 1 1.218 5.879v43.01a13.926 13.926 0 0 1-1.319 6.005 14.924 14.924 0 0 1-3.578 4.8 17.71 17.71 0 0 1-5.4 3.225 18.636 18.636 0 0 1-6.769 1.218 19.321 19.321 0 0 1-6.912-1.218 18.04 18.04 0 0 1-5.5-3.225 14.5 14.5 0 0 1-3.637-4.8 13.917 13.917 0 0 1-1.31-6.005v-42.984a13.236 13.236 0 0 1 1.361-5.879 15.177 15.177 0 0 1 3.737-4.846 18.159 18.159 0 0 1 5.552-3.284 19 19 0 0 1 6.811-1.235zm6.265 14.941a5.955 5.955 0 0 1-3.435 1.209 9.666 9.666 0 0 1-3.485-.84 2.956 2.956 0 0 1-1.764-2.78 5.972 5.972 0 0 0 3.225.5 5.5 5.5 0 0 0 2.78-1.1 5.241 5.241 0 0 0 1.68-2.394 5.745 5.745 0 0 0 .151-3.3v-.2a7.922 7.922 0 0 0-1.915-2.444 5.216 5.216 0 0 0-3.536-1.058 6.065 6.065 0 0 0-3.276.84 6.886 6.886 0 0 0-2.075 2.016 7.635 7.635 0 0 0-1.109 2.629 12.547 12.547 0 0 0-.3 2.612v52.526a12.166 12.166 0 0 0 .3 2.52 8.112 8.112 0 0 0 1.058 2.62 6.87 6.87 0 0 0 2.024 2.066 5.712 5.712 0 0 0 3.275.84 5.813 5.813 0 0 0 3.183-.84 5.921 5.921 0 0 0 1.965-2.016 8.039 8.039 0 0 0 .957-2.629 15.023 15.023 0 0 0 .26-2.62z" class="cls-1" data-name="Path 146" transform="translate(-122.023 -699.111)"/>
            <path id="Path_147" d="M447.222 761.578a41.2 41.2 0 0 0 2.52 6.921 9.389 9.389 0 0 0 3.536 3.779 8.718 8.718 0 0 1-3.359 1.218 21.76 21.76 0 0 1-3.082.3 11.532 11.532 0 0 1-6.307-2.175 10.225 10.225 0 0 1-3.687-6.207l-6.156-30.084a8.844 8.844 0 0 1-5.148-1.923v27.163a47.874 47.874 0 0 0 .3 5.879 18.71 18.71 0 0 0 .84 3.788 6.82 6.82 0 0 0 1.109 2.62H412.67a9.84 9.84 0 0 0 1.109-2.62 31.067 31.067 0 0 0 .756-3.788 41.155 41.155 0 0 0 .353-5.879v-47.033a41.323 41.323 0 0 0-.353-5.879 30.89 30.89 0 0 0-.756-3.779 9.8 9.8 0 0 0-1.109-2.629h17.872a27.43 27.43 0 0 1 7.315.907 15.017 15.017 0 0 1 5.652 2.881 13.059 13.059 0 0 1 3.687 5.1 19.871 19.871 0 0 1 1.31 7.668q0 7.172-3.536 11.758a15.42 15.42 0 0 1-9.986 5.652 15.841 15.841 0 0 1 2.419 1.411 15.115 15.115 0 0 1 2.5 2.209 17.5 17.5 0 0 1 2.318 3.36 18.42 18.42 0 0 1 1.68 4.594zm-20.594-30.991a3.443 3.443 0 0 0 1.562 1.562 5.484 5.484 0 0 0 2.881.756 4.711 4.711 0 0 0 3.359-1.209 8.24 8.24 0 0 0 2.074-3.225 18.6 18.6 0 0 0 1.008-4.8c.168-1.856.252-3.788.252-5.812a21.964 21.964 0 0 0-.84-6.61 12.462 12.462 0 0 0-2.276-4.342 8.626 8.626 0 0 0-3.175-2.419 8.819 8.819 0 0 0-3.485-.756h-2.444V721.7a4.878 4.878 0 0 1 1.814-1.109 5.04 5.04 0 0 1 2.217-.3 4.612 4.612 0 0 1 2.024.655 3.6 3.6 0 0 1 1.411 1.764 5.35 5.35 0 0 0-3.082.3 5.8 5.8 0 0 0-2.368 1.772 6.257 6.257 0 0 0-1.209 2.671 5.644 5.644 0 0 0 .277 3.133z" class="cls-1" data-name="Path 147" transform="translate(-129.91 -699.292)"/>
            <path id="Path_148" d="M476.6 760.57a47.868 47.868 0 0 0 .3 5.879 18.712 18.712 0 0 0 .84 3.788 6.819 6.819 0 0 0 1.109 2.62H463.73a9.825 9.825 0 0 0 1.117-2.62 31.076 31.076 0 0 0 .756-3.788 41.148 41.148 0 0 0 .353-5.879v-47.033a41.323 41.323 0 0 0-.353-5.879 30.89 30.89 0 0 0-.756-3.779 9.78 9.78 0 0 0-1.117-2.629h15.118a6.811 6.811 0 0 0-1.109 2.629 18.606 18.606 0 0 0-.84 3.779 48.128 48.128 0 0 0-.3 5.879z" class="cls-1" data-name="Path 148" transform="translate(-138.086 -699.292)"/>
            <path id="Path_149" d="M527.269 701.2l-.907 9.995h-2.318a93.48 93.48 0 0 0-.966-3.359 5.181 5.181 0 0 0-1.461-2.318 6.517 6.517 0 0 0-2.822-1.361 21.933 21.933 0 0 0-5.039-.453v56.834a47.873 47.873 0 0 0 .3 5.879 18.715 18.715 0 0 0 .84 3.788 6.82 6.82 0 0 0 1.109 2.62h-15.16a11.381 11.381 0 0 0 1.109-2.62 31.067 31.067 0 0 0 .756-3.788 41.155 41.155 0 0 0 .353-5.879v-56.81a21.943 21.943 0 0 0-5.039.453 6.517 6.517 0 0 0-2.822 1.361 5.182 5.182 0 0 0-1.461 2.318c-.311.949-.63 2.058-.966 3.359h-2.318l-.907-9.995z" class="cls-1" data-name="Path 149" transform="translate(-142.22 -699.284)"/>
            <path id="Path_150" d="M554.127 760.57a47.874 47.874 0 0 0 .3 5.879 18.716 18.716 0 0 0 .84 3.788 6.82 6.82 0 0 0 1.109 2.62H541.26a9.843 9.843 0 0 0 1.109-2.62 32.522 32.522 0 0 0 .764-3.788 41.164 41.164 0 0 0 .353-5.879v-47.033a41.306 41.306 0 0 0-.353-5.879 32.33 32.33 0 0 0-.764-3.779 9.8 9.8 0 0 0-1.109-2.629h15.118a6.815 6.815 0 0 0-1.109 2.629 18.617 18.617 0 0 0-.84 3.779 48.165 48.165 0 0 0-.3 5.879z" class="cls-1" data-name="Path 150" transform="translate(-150.5 -699.292)"/>
            <path id="Path_151" d="M599.491 772.888H565.35a9.843 9.843 0 0 0 1.109-2.62 31.085 31.085 0 0 0 .756-3.788 40.98 40.98 0 0 0 .361-5.879v-47.034a41.148 41.148 0 0 0-.361-5.879 30.911 30.911 0 0 0-.756-3.779 9.8 9.8 0 0 0-1.109-2.629h33.116l-.907 9.995h-2.326a35.225 35.225 0 0 0-1.008-3.435 5.577 5.577 0 0 0-1.512-2.318 6.3 6.3 0 0 0-2.931-1.31 27.458 27.458 0 0 0-5.35-.4h-6.156v21.9a38.2 38.2 0 0 0 5.552 0c1.68-.134 3.124-.269 4.342-.4a37.247 37.247 0 0 0 3.763-.748 7.976 7.976 0 0 1 .1 1.31 10.552 10.552 0 0 1-.5 2.83 2.948 2.948 0 0 1-2.217 1.965 6.283 6.283 0 0 1-3.435-.05l-7.559-2.117v37.558a4.152 4.152 0 0 0 .252 1.26 4.049 4.049 0 0 0 .907 1.461 4.794 4.794 0 0 0 1.865 1.159 9.086 9.086 0 0 0 3.133.454h3.536a7.121 7.121 0 0 0 3.729-.84 6.5 6.5 0 0 0 2.276-2.327 12.487 12.487 0 0 0 1.31-3.225c.3-1.184.622-2.377.958-3.586h2.326z" class="cls-1" data-name="Path 151" transform="translate(-154.358 -699.297)"/>
            <path id="Path_152" d="M622.472 712.24a14.278 14.278 0 0 0 2.016 7.424 40.241 40.241 0 0 0 5.039 6.61q2.99 3.233 6.467 6.358a75.508 75.508 0 0 1 6.459 6.568 36.709 36.709 0 0 1 5 7.416 19.318 19.318 0 0 1 2.016 8.836q0 9.482-4.695 14.841t-14.085 5.35a24.18 24.18 0 0 1-6.811-.957 17.043 17.043 0 0 1-5.8-2.931 14.774 14.774 0 0 1-4.04-4.846 14.2 14.2 0 0 1-1.512-6.719 14.5 14.5 0 0 1 1.159-6.005 13.439 13.439 0 0 1 2.881-4.241 12.189 12.189 0 0 1 3.78-2.52 10.082 10.082 0 0 1 3.788-.84q5.459 0 7.878 2.276a6.945 6.945 0 0 1 2.419 5.2 9.548 9.548 0 0 0-3.863-.479 11.161 11.161 0 0 0-3.679.907 9.81 9.81 0 0 0-3.032 2.066 9.237 9.237 0 0 0-2.016 3.032 9.356 9.356 0 0 0-.655 4.594 10.215 10.215 0 0 0 1.411 4.292 9.238 9.238 0 0 0 3.124 3.124 8.625 8.625 0 0 0 4.594 1.209 11.423 11.423 0 0 0 4.9-.958 10.4 10.4 0 0 0 3.435-2.469 9.238 9.238 0 0 0 1.965-3.435 12.116 12.116 0 0 0 .613-3.737 17.638 17.638 0 0 0-2.024-8.4 36.2 36.2 0 0 0-5.039-7.172 87.615 87.615 0 0 0-6.61-6.61 76.415 76.415 0 0 1-6.61-6.719 36.8 36.8 0 0 1-5.039-7.425 20.073 20.073 0 0 1-.663-16.05 16.99 16.99 0 0 1 3.838-5.753 17.411 17.411 0 0 1 5.955-3.788 20.794 20.794 0 0 1 7.626-1.361 17.636 17.636 0 0 1 7.618 1.461 15.554 15.554 0 0 1 5 3.586 13.7 13.7 0 0 1 2.578 14.589 11.893 11.893 0 0 1-2.679 3.88 11.337 11.337 0 0 1-3.427 2.276 8.993 8.993 0 0 1-3.435.756 12.488 12.488 0 0 1-6.811-2.016 7.725 7.725 0 0 1-2.175-2.125 4.636 4.636 0 0 1-.84-2.62 8.4 8.4 0 0 0 3.536.453 10.2 10.2 0 0 0 3.359-.84 9.938 9.938 0 0 0 2.83-1.923 7.56 7.56 0 0 0 1.865-2.822 7.685 7.685 0 0 0 .554-3.359 10.312 10.312 0 0 0-.907-3.989 8.97 8.97 0 0 0-2.62-3.36 7.475 7.475 0 0 0-4.8-1.411 8.978 8.978 0 0 0-4.2.957 10.255 10.255 0 0 0-3.082 2.52 10.675 10.675 0 0 0-1.915 3.435 12.061 12.061 0 0 0-.639 3.864z" class="cls-1" data-name="Path 152" transform="translate(-161.91 -698.919)"/>
            <path id="Path_153" d="M92.371 731.18l-.361 3.9h-.9c-.134-.5-.26-.932-.378-1.3a2.024 2.024 0 0 0-.571-.907 2.52 2.52 0 0 0-1.1-.529 8.593 8.593 0 0 0-1.974-.177v22.173a19.4 19.4 0 0 0 .118 2.3 7.5 7.5 0 0 0 .319 1.478 2.787 2.787 0 0 0 .428 1.025h-5.877a4.818 4.818 0 0 0 .437-1.024 13.442 13.442 0 0 0 .294-1.478 16.073 16.073 0 0 0 .134-2.3v-22.178a8.52 8.52 0 0 0-1.965.176 2.521 2.521 0 0 0-1.1.529 1.957 1.957 0 0 0-.571.907c-.118.37-.244.84-.378 1.3h-.932l-.353-3.9z" class="cls-1" data-name="Path 153" transform="translate(-76.263 -704.085)"/>
            <path id="Path_154" d="M112.679 754.335a17.581 17.581 0 0 0 .126 2.3 7 7 0 0 0 .311 1.478 2.779 2.779 0 0 0 .437 1.024h-5.879a4 4 0 0 0 .437-1.024 13.442 13.442 0 0 0 .294-1.478 16.073 16.073 0 0 0 .134-2.3v-12.522h-5.745v12.522a19.4 19.4 0 0 0 .118 2.3 7.562 7.562 0 0 0 .311 1.478 2.78 2.78 0 0 0 .437 1.024h-5.88a3.754 3.754 0 0 0 .428-1.024 13.132 13.132 0 0 0 .3-1.478 17.4 17.4 0 0 0 .134-2.3v-18.351a17.451 17.451 0 0 0-.134-2.31 12.537 12.537 0 0 0-.3-1.47 3.534 3.534 0 0 0-.428-1.025h5.879a3.115 3.115 0 0 0-.437 1.058 7.559 7.559 0 0 0-.311 1.478 18.985 18.985 0 0 0-.118 2.268v4.561h5.745v-4.561a16.125 16.125 0 0 0-.134-2.31 12.8 12.8 0 0 0-.294-1.47 3.761 3.761 0 0 0-.437-1.025h5.879a4.456 4.456 0 0 0-.437 1.041 14.279 14.279 0 0 0-.294 1.478 15.437 15.437 0 0 0-.143 2.284v18.351z" class="cls-1" data-name="Path 154" transform="translate(-79.488 -704.085)"/>
            <path id="Path_155" d="M132.262 759.139H119a4.032 4.032 0 0 0 .428-1.024 11.686 11.686 0 0 0 .294-1.478 15.955 15.955 0 0 0 .143-2.3v-18.353a15.955 15.955 0 0 0-.143-2.31 11.214 11.214 0 0 0-.294-1.47 3.781 3.781 0 0 0-.428-1.024h12.917l-.361 3.9h-.9a17.49 17.49 0 0 0-.395-1.344 2.251 2.251 0 0 0-.6-.9 2.291 2.291 0 0 0-1.142-.512 10.287 10.287 0 0 0-2.083-.16h-2.4v8.536a13.309 13.309 0 0 0 2.167 0c.655-.05 1.218-.1 1.68-.16s1.041-.168 1.461-.269a3.163 3.163 0 0 1 .042.512 3.99 3.99 0 0 1-.2 1.1 1.151 1.151 0 0 1-.84.764 2.434 2.434 0 0 1-1.344 0l-2.948-.84v14.653a1.613 1.613 0 0 0 .1.5 1.453 1.453 0 0 0 .353.571 1.93 1.93 0 0 0 .722.445 3.578 3.578 0 0 0 1.226.176h1.377a2.8 2.8 0 0 0 1.453-.328 2.63 2.63 0 0 0 .89-.907 5.218 5.218 0 0 0 .512-1.26c.118-.462.244-.932.37-1.4h.907z" class="cls-1" data-name="Path 155" transform="translate(-82.885 -704.085)"/>
            <path id="Rectangle_28" d="M0 0h51.014v1.68H0z" class="cls-1" data-name="Rectangle 28" transform="translate(0 18.965)"/>
            <path id="Rectangle_29" d="M0 0h51.014v1.68H0z" class="cls-1" data-name="Rectangle 29" transform="translate(0 60.455)"/>
        </g>
    </g>
</svg>
