<svg xmlns="http://www.w3.org/2000/svg" id="m-recipe" width="259.129" height="140.397" viewBox="0 0 259.129 140.397">
    <defs>
        <style>
            .cls-1{font-size:10px;font-family:AveriaSerifLibre-Regular,Averia Serif Libre;opacity:.521}.cls-2{fill:#231f20}
        </style>
    </defs>
    <g id="Component_15_1" data-name="Component 15 – 1" transform="translate(101)">
        <text id="CHAPTER_11" class="cls-1" data-name="CHAPTER 11" transform="translate(0 9)">
            <tspan x="0" y="0">CHAPTER 11</tspan>
        </text>
    </g>
    <g id="Group_919" data-name="Group 919" transform="translate(-4414 -848.736)">
        <g id="recipe-title" transform="translate(4414 865.548)">
            <g id="Group_1" data-name="Group 1" transform="translate(0 25.273)">
                <path id="Path_1" d="M616.276 289.989a6.089 6.089 0 0 0-.328 1.116 4.434 4.434 0 0 0-.161 1.138 5.575 5.575 0 0 0 .145 1.359l8.042 35.827q-.9.2-1.795.407-11.433-14.39-23.951-28.223 3.819 14.352 7.64 28.7a5.985 5.985 0 0 0 .489 1.275 8.116 8.116 0 0 0 .584.957 6.259 6.259 0 0 0 .762.852q-1.867.493-3.73 1a6.477 6.477 0 0 0 .234-1.119 11.351 11.351 0 0 0 .046-1.156 5.6 5.6 0 0 0-.209-1.438l-7.935-29.327a20.441 20.441 0 0 0-1.047-2.794 14.392 14.392 0 0 0-.95-1.706 3.656 3.656 0 0 0-.947-1.09q3.331-.911 6.672-1.775 9.952 10.926 19.226 22.217l-5.047-22.061a5.225 5.225 0 0 0-.5-1.365 10.535 10.535 0 0 0-.612-.991q-.372-.494-.717-.88 2.041-.468 4.089-.923z" class="cls-2" data-name="Path 1" transform="translate(-593.165 -278.376)"/>
                <path id="Path_2" d="M672.991 280.837a12.471 12.471 0 0 1 4.3-.1 10.556 10.556 0 0 1 3.6 1.232 7.869 7.869 0 0 1 2.567 2.317 7.571 7.571 0 0 1 1.276 3.142l3.966 23.773a7.651 7.651 0 0 1-.189 3.445 8.473 8.473 0 0 1-1.569 2.994 10.3 10.3 0 0 1-2.714 2.318 10.947 10.947 0 0 1-3.657 1.366 11.366 11.366 0 0 1-3.988.08 10.623 10.623 0 0 1-3.433-1.154 8.267 8.267 0 0 1-2.586-2.208 7.633 7.633 0 0 1-1.436-3.138l-4.994-23.579a6.861 6.861 0 0 1 .133-3.41 8.614 8.614 0 0 1 1.7-3.126 11.286 11.286 0 0 1 3-2.48 12.533 12.533 0 0 1 4.024-1.472zm5.3 7.535a3.845 3.845 0 0 1-1.933 1.044 6.344 6.344 0 0 1-2.172-.082 1.661 1.661 0 0 1-1.351-1.326 4.03 4.03 0 0 0 1.992-.09 3.6 3.6 0 0 0 1.555-.918 3 3 0 0 0 .791-1.512 2.959 2.959 0 0 0-.239-1.836l-.02-.11a4.522 4.522 0 0 0-1.41-1.137 3.45 3.45 0 0 0-2.253-.178 3.986 3.986 0 0 0-1.907.824 4.1 4.1 0 0 0-1.037 1.353 4 4 0 0 0-.387 1.573 6.443 6.443 0 0 0 .1 1.477l5.709 28.875a6.686 6.686 0 0 0 .444 1.351 4.512 4.512 0 0 0 .879 1.325 3.954 3.954 0 0 0 1.353.917 3.335 3.335 0 0 0 1.927.12 3.24 3.24 0 0 0 2.6-2.094 4.423 4.423 0 0 0 .277-1.545 8.326 8.326 0 0 0-.119-1.474l-4.796-26.556z" class="cls-2" data-name="Path 2" transform="translate(-634.655 -272.872)"/>
                <path id="Path_3" d="M745.524 326.084l.455 3.649q-7.227.9-14.431 2.031l-.569-3.633q7.26-1.138 14.545-2.047z" class="cls-2" data-name="Path 3" transform="translate(-673.902 -299.522)"/>
                <path id="Path_4" d="M777.806 267.022a17.855 17.855 0 0 1 4.542.1 9.4 9.4 0 0 1 3.6 1.32 7.248 7.248 0 0 1 2.471 2.7 10.331 10.331 0 0 1 1.109 4.2 9.826 9.826 0 0 1-2.146 7.425c-1.643 1.908-4.059 2.994-7.277 3.3a5.636 5.636 0 0 1-3.512-.793l1.541 15.141a26.456 26.456 0 0 0 .507 3.275 10.334 10.334 0 0 0 .671 2.065 3.821 3.821 0 0 0 .773 1.4q-4.27.422-8.535.927a5.553 5.553 0 0 0 .455-1.534 17.38 17.38 0 0 0 .183-2.157 22.728 22.728 0 0 0-.178-3.311q-1.51-13.1-3.021-26.191a21.15 21.15 0 0 0-.595-3.263 16.069 16.069 0 0 0-.706-2.054 5.275 5.275 0 0 0-.852-1.381q5.479-.645 10.97-1.169zm2.106 17.645a2.932 2.932 0 0 0 1.913-.859 4.385 4.385 0 0 0 1.04-1.91 10.778 10.778 0 0 0 .34-2.727q.016-1.562-.128-3.254a11.387 11.387 0 0 0-.837-3.619 6.776 6.776 0 0 0-1.6-2.329 5.22 5.22 0 0 0-2.069-1.172 5.792 5.792 0 0 0-2.173-.217l-1.484.149 1.019 10.019a2.969 2.969 0 0 1 1.028-.729 3.283 3.283 0 0 1 1.318-.3 2.917 2.917 0 0 1 1.281.276 1.88 1.88 0 0 1 .907.882 3.4 3.4 0 0 0-3.727 3.031 2.973 2.973 0 0 0 .355 1.727 1.992 1.992 0 0 0 1.015.78 3.574 3.574 0 0 0 1.802.253z" class="cls-2" data-name="Path 4" transform="translate(-694.908 -264.864)"/>
                <path id="Path_5" d="M837.856 303.044a6.254 6.254 0 0 0 .459-1.322 10.75 10.75 0 0 0 .189-1.679 8.56 8.56 0 0 0-.3-2.394q-1.647-6.839-3.376-13.667-3.1.148-6.19.337-1.47 8.2-2.8 16.4a5.417 5.417 0 0 0-.041 1.081l.067.96a7.638 7.638 0 0 0 .124.955q-1.54.107-3.08.225a5.2 5.2 0 0 0 .445-.941 8.189 8.189 0 0 0 .351-1.076c.1-.4.214-.857.333-1.358q2.745-17.277 6.093-34.523a17.431 17.431 0 0 0-.927-2.1l-.412-.656q3.575-.208 7.151-.364 2.32 8.9 4.5 17.827t4.217 17.867a9.91 9.91 0 0 0 .508 1.713 13.41 13.41 0 0 0 .608 1.314 7.955 7.955 0 0 0 .658 1.115q-4.294.101-8.577.286zm-3.476-20.853q-1.551-6.014-3.165-12.018-1.174 6.155-2.272 12.314 2.718-.163 5.438-.296z" class="cls-2" data-name="Path 5" transform="translate(-727.754 -262.518)"/>
                <path id="Path_6" d="M906.566 262.089a6.11 6.11 0 0 0-.588 1 4.444 4.444 0 0 0-.432 1.064 5.611 5.611 0 0 0-.191 1.353l-.97 36.706q-.914-.024-1.829-.045-7.514-16.749-16.191-33.229l.374 29.7A6.031 6.031 0 0 0 886.9 300a8.2 8.2 0 0 0 .328 1.071 6.327 6.327 0 0 0 .526 1.013q-1.915.02-3.829.056a6.477 6.477 0 0 0 .5-1.028 11.54 11.54 0 0 0 .325-1.109 5.626 5.626 0 0 0 .148-1.445l-.506-30.378a20.608 20.608 0 0 0-.328-2.965 14.39 14.39 0 0 0-.5-1.887 3.644 3.644 0 0 0-.646-1.289q3.423-.066 6.846-.086 6.918 13.032 13.106 26.248l.506-22.625a5.2 5.2 0 0 0-.154-1.447 10.428 10.428 0 0 0-.348-1.111q-.239-.57-.476-1.028 2.084.039 4.168.099z" class="cls-2" data-name="Path 6" transform="translate(-762.913 -261.95)"/>
                <path id="Path_7" d="M967.188 303.966a7.771 7.771 0 0 1-2.6-.516 5.592 5.592 0 0 1-1.257-.859 11.314 11.314 0 0 1-2.708.974 11.053 11.053 0 0 1-3.106.229 11.458 11.458 0 0 1-3.928-.9 9.869 9.869 0 0 1-3-1.984 8.8 8.8 0 0 1-1.929-2.8 7.537 7.537 0 0 1-.625-3.336l.915-24.084a8.052 8.052 0 0 1 .835-3.308 7.236 7.236 0 0 1 2.214-2.626 10.5 10.5 0 0 1 3.592-1.642 15.621 15.621 0 0 1 4.952-.4 13.437 13.437 0 0 1 5.073 1.158 8.749 8.749 0 0 1 3.007 2.267 6.671 6.671 0 0 1 1.365 2.719 8.551 8.551 0 0 1 .224 2.545 6.988 6.988 0 0 1-.855 2.967 6.672 6.672 0 0 1-1.681 1.967 6.339 6.339 0 0 1-4.167 1.311 7.089 7.089 0 0 1-4.3-1.525 3.5 3.5 0 0 1-1.45-2.8 5.345 5.345 0 0 0 2.022.4 6.549 6.549 0 0 0 2.034-.295 5.605 5.605 0 0 0 1.743-.9 4.246 4.246 0 0 0 1.2-1.41 5.312 5.312 0 0 0 .471-1.855 4.9 4.9 0 0 0-.3-2.248 4.559 4.559 0 0 0-1.45-1.932 5.028 5.028 0 0 0-2.9-.947 5.149 5.149 0 0 0-2.352.314 4.38 4.38 0 0 0-1.517 1.046 3.9 3.9 0 0 0-.849 1.424 5.393 5.393 0 0 0-.289 1.4l-1.51 29.351a6.681 6.681 0 0 0 .1 1.418 4.533 4.533 0 0 0 .527 1.5 3.95 3.95 0 0 0 1.084 1.217 3.311 3.311 0 0 0 1.832.586 3.227 3.227 0 0 0 3.021-1.392 4.433 4.433 0 0 0 .644-1.427 8.314 8.314 0 0 0 .243-1.454l.615-9.063a32.627 32.627 0 0 0-.014-3.309 14.087 14.087 0 0 0-.275-2.14 3.707 3.707 0 0 0-.56-1.507q3.826.249 7.647.56-.871 10.648-1.738 21.306z" class="cls-2" data-name="Path 7" transform="translate(-801.056 -262.374)"/>
                <path id="Path_8" d="M1020.736 268.052a12.4 12.4 0 0 1 4.132 1.172 10.535 10.535 0 0 1 3.073 2.241 7.864 7.864 0 0 1 1.764 2.971 7.574 7.574 0 0 1 .291 3.379l-3.236 23.884a7.669 7.669 0 0 1-1.2 3.235 8.464 8.464 0 0 1-2.381 2.4 10.279 10.279 0 0 1-3.273 1.413 10.884 10.884 0 0 1-3.887.225 11.293 11.293 0 0 1-3.822-1.1 10.578 10.578 0 0 1-2.927-2.116 8.252 8.252 0 0 1-1.809-2.873 7.652 7.652 0 0 1-.442-3.422l2.2-24a6.885 6.885 0 0 1 1.131-3.219 8.59 8.59 0 0 1 2.538-2.485 11.233 11.233 0 0 1 3.589-1.484 12.466 12.466 0 0 1 4.259-.221zm2.831 8.764a3.826 3.826 0 0 1-2.15.427 6.319 6.319 0 0 1-2.045-.719 1.659 1.659 0 0 1-.9-1.666 4.008 4.008 0 0 0 1.924.5 3.582 3.582 0 0 0 1.752-.418 3 3 0 0 0 1.2-1.211 2.963 2.963 0 0 0 .314-1.825c0-.037.009-.074.013-.111a4.516 4.516 0 0 0-1.008-1.5 3.435 3.435 0 0 0-2.094-.836 3.967 3.967 0 0 0-2.059.224 4.084 4.084 0 0 0-1.387.986 4 4 0 0 0-.833 1.389 6.386 6.386 0 0 0-.338 1.441l-3.08 29.273a6.7 6.7 0 0 0 .024 1.422 4.5 4.5 0 0 0 .447 1.525 3.934 3.934 0 0 0 1.018 1.275 3.313 3.313 0 0 0 1.8.683 3.228 3.228 0 0 0 3.094-1.233 4.452 4.452 0 0 0 .721-1.395 8.331 8.331 0 0 0 .321-1.443q1.635-13.393 3.266-26.787z" class="cls-2" data-name="Path 8" transform="translate(-835.597 -265.473)"/>
                <path id="Path_9" d="M1080.561 316.884q-9.532-1.8-19.119-3.179a5.57 5.57 0 0 0 .836-1.365 17.621 17.621 0 0 0 .734-2.037 22.63 22.63 0 0 0 .682-3.245l3.838-26.084a21.122 21.122 0 0 0 .267-3.306 15.921 15.921 0 0 0-.154-2.167 5.27 5.27 0 0 0-.467-1.554q4.632.668 9.254 1.426a3.625 3.625 0 0 0-.914 1.341 9.49 9.49 0 0 0-.83 2.015 24.443 24.443 0 0 0-.709 3.238l-4.675 29.046a2.35 2.35 0 0 0 .412 1.614 2.746 2.746 0 0 0 .946.814 5.293 5.293 0 0 0 1.718.545q.993.168 1.985.34a4.168 4.168 0 0 0 2.181-.1 3.8 3.8 0 0 0 1.5-1.023 7.289 7.289 0 0 0 1.089-1.613q.463-.921.934-1.871l1.318.245q-.408 3.458-.826 6.92z" class="cls-2" data-name="Path 9" transform="translate(-867.499 -268.978)"/>
                <path id="Path_10" d="M1123.044 317.869a26.317 26.317 0 0 0-.516 3.274 10.286 10.286 0 0 0 .01 2.171 3.793 3.793 0 0 0 .311 1.571q-4.214-.906-8.441-1.73a5.555 5.555 0 0 0 .9-1.322 17.683 17.683 0 0 0 .835-2 22.528 22.528 0 0 0 .842-3.207l.011-.056q2.555-12.9 5.109-25.807a20.9 20.9 0 0 0 .429-3.288 15.944 15.944 0 0 0-.048-2.172 5.254 5.254 0 0 0-.391-1.575q4.6.9 9.192 1.884a3.614 3.614 0 0 0-.98 1.294 9.474 9.474 0 0 0-.929 1.971 24.371 24.371 0 0 0-.869 3.2l-5.457 25.736z" class="cls-2" data-name="Path 10" transform="translate(-898.529 -274.709)"/>
                <path id="Path_11" d="M1174.123 295.794a6.028 6.028 0 0 0-.812.833 4.4 4.4 0 0 0-.675.931 5.539 5.539 0 0 0-.506 1.269l-9.608 35.439q-.89-.241-1.781-.479-3.413-18.067-8.013-36.139l-6.638 28.952a6.046 6.046 0 0 0-.163 1.356 8.2 8.2 0 0 0 .068 1.119 6.26 6.26 0 0 0 .276 1.109q-1.877-.434-3.757-.853a6.545 6.545 0 0 0 .727-.881 11.5 11.5 0 0 0 .579-1 5.6 5.6 0 0 0 .485-1.369l6.669-29.641a20.346 20.346 0 0 0 .379-2.959 14.313 14.313 0 0 0-.042-1.952 3.665 3.665 0 0 0-.328-1.406q3.362.747 6.715 1.541 3.695 14.306 6.642 28.624l5.832-21.866a5.216 5.216 0 0 0 .19-1.443 10.791 10.791 0 0 0-.079-1.163q-.1-.61-.224-1.113 2.035.536 4.064 1.091z" class="cls-2" data-name="Path 11" transform="translate(-914.994 -278.454)"/>
            </g>
            <g id="Group_2" data-name="Group 2" transform="translate(46.107 73.494)">
                <path id="Path_12" d="M733.162 428.875a23.662 23.662 0 0 0 2.182 3.522 5.377 5.377 0 0 0 2.388 1.708 5.069 5.069 0 0 1-1.773 1.026 13.154 13.154 0 0 1-1.692.5 6.822 6.822 0 0 1-3.782-.464 5.857 5.857 0 0 1-2.815-2.95q-3.563-7.847-7.33-15.624a5.944 5.944 0 0 1-3.342-.305l3.623 14.782a25.989 25.989 0 0 0 .959 3.173 10.283 10.283 0 0 0 .956 1.951 3.8 3.8 0 0 0 .966 1.28q-4.218 1.013-8.412 2.161a5.53 5.53 0 0 0 .23-1.587 17.424 17.424 0 0 0-.13-2.163 22.336 22.336 0 0 0-.66-3.25l-6.84-25.462a19.949 19.949 0 0 0-1.08-3.137 15.116 15.116 0 0 0-1.03-1.919 5.1 5.1 0 0 0-1.089-1.228q5.663-1.549 11.366-2.885a19.538 19.538 0 0 1 4.786-.562 10.091 10.091 0 0 1 3.941.811 7.3 7.3 0 0 1 2.9 2.327 11.082 11.082 0 0 1 .76 10.927 10.129 10.129 0 0 1-5.387 4.392 9.761 9.761 0 0 1 1.626.45 8.551 8.551 0 0 1 1.818.938 9.441 9.441 0 0 1 3.285 3.878q1.814 3.848 3.576 7.71zm-15.87-14.285a2.046 2.046 0 0 0 1.15.625 3.723 3.723 0 0 0 1.832 0 3.148 3.148 0 0 0 1.86-1.123 4.681 4.681 0 0 0 .861-2.048 9.541 9.541 0 0 0 .039-2.76 32.447 32.447 0 0 0-.539-3.212 10.766 10.766 0 0 0-1.331-3.5 6.685 6.685 0 0 0-1.961-2.056 5.522 5.522 0 0 0-2.318-.862 6.411 6.411 0 0 0-2.309.109q-.768.184-1.537.372l2.4 9.781a3.154 3.154 0 0 1 .97-.876 3.593 3.593 0 0 1 1.329-.492 3.18 3.18 0 0 1 1.329.067 2.082 2.082 0 0 1 1.092.765 3.7 3.7 0 0 0-1.853.6 3.567 3.567 0 0 0-1.223 1.309 3.328 3.328 0 0 0-.386 1.636 2.865 2.865 0 0 0 .595 1.665z" class="cls-2" data-name="Path 12" transform="translate(-704.49 -389.548)"/>
                <path id="Path_13" d="M796.785 423.14q-9.666 1.058-19.263 2.794a5.55 5.55 0 0 0 .366-1.56 17.278 17.278 0 0 0 .058-2.165 22.532 22.532 0 0 0-.373-3.3l-4.578-25.965a19.951 19.951 0 0 0-.8-3.219 15.129 15.129 0 0 0-.855-2 5.117 5.117 0 0 0-.973-1.32q10.652-1.928 21.392-3.126.016 2.816.042 5.631-.739.084-1.478.171a18.5 18.5 0 0 0-.873-1.833 3.114 3.114 0 0 0-1.129-1.173 4.307 4.307 0 0 0-1.976-.491 19.368 19.368 0 0 0-3.474.241q-1.982.28-3.961.584l1.865 12.134a28.7 28.7 0 0 0 3.433-.508q1.544-.332 2.657-.594 1.291-.343 2.266-.692a4.022 4.022 0 0 1 .154.722 5.359 5.359 0 0 1-.115 1.611 1.79 1.79 0 0 1-1.225 1.27 4.313 4.313 0 0 1-2.109.254q-2.4-.268-4.82-.5l3.2 20.809a2.342 2.342 0 0 0 .892 1.405 2.8 2.8 0 0 0 1.158.483 5.4 5.4 0 0 0 1.813 0q1-.141 2.007-.275a4.238 4.238 0 0 0 2.063-.752 3.765 3.765 0 0 0 1.138-1.452 7.026 7.026 0 0 0 .539-1.888q.146-1.013.321-2.06.674-.078 1.349-.153.65 3.457 1.289 6.917z" class="cls-2" data-name="Path 13" transform="translate(-743.083 -381.251)"/>
                <path id="Path_14" d="M850.77 408.684a2.439 2.439 0 0 1 1.494-.609 4.688 4.688 0 0 1 2.1.224 4.321 4.321 0 0 1 1.891 1.322 4.132 4.132 0 0 1 .878 2.662 7.912 7.912 0 0 1-.286 2.216 6.4 6.4 0 0 1-1.176 2.3 6.835 6.835 0 0 1-2.438 1.878 10.743 10.743 0 0 1-4.094.917 14.245 14.245 0 0 1-4.545-.379 10.228 10.228 0 0 1-3.4-1.571 7.651 7.651 0 0 1-2.243-2.525 8.3 8.3 0 0 1-.986-3.232l-2.306-24.048a7.514 7.514 0 0 1 .427-3.365 7.4 7.4 0 0 1 1.994-2.906 11.239 11.239 0 0 1 3.547-2.13 16.724 16.724 0 0 1 5.112-1.02 14.777 14.777 0 0 1 5.462.522 8.727 8.727 0 0 1 3.278 1.835 6.191 6.191 0 0 1 1.632 2.444 8.163 8.163 0 0 1 .482 2.45 6.738 6.738 0 0 1-.562 3.042 6.539 6.539 0 0 1-1.556 2.14 6.878 6.878 0 0 1-2.07 1.291 6.468 6.468 0 0 1-2.058.483 9.169 9.169 0 0 1-2.246-.172 6.982 6.982 0 0 1-1.964-.683 4.38 4.38 0 0 1-1.368-1.106 2.441 2.441 0 0 1-.567-1.381 6.439 6.439 0 0 0 4.185-.443 4.945 4.945 0 0 0 2.755-2.706 4.014 4.014 0 0 0 .309-1.882 4.593 4.593 0 0 0-.642-2.153 4.739 4.739 0 0 0-1.776-1.7 5.484 5.484 0 0 0-3.081-.574 5.684 5.684 0 0 0-2.393.6 4.51 4.51 0 0 0-1.489 1.235 3.846 3.846 0 0 0-.707 1.526 5.158 5.158 0 0 0-.123 1.427l2.17 29.4a5.706 5.706 0 0 0 .307 1.4 4.087 4.087 0 0 0 .83 1.415 4.175 4.175 0 0 0 1.462 1.035 4.633 4.633 0 0 0 2.159.321 4.441 4.441 0 0 0 3.251-1.472 5.313 5.313 0 0 0 1.356-3 5.077 5.077 0 0 0-.547-3.262 4.3 4.3 0 0 0-2.458-1.766z" class="cls-2" data-name="Path 14" transform="translate(-781.312 -378.379)"/>
                <path id="Path_15" d="M903.128 411.826a26.209 26.209 0 0 0 .139 3.311 10.365 10.365 0 0 0 .438 2.127 3.812 3.812 0 0 0 .613 1.48q-4.308-.065-8.617 0a5.562 5.562 0 0 0 .612-1.48 17.74 17.74 0 0 0 .408-2.127 22.612 22.612 0 0 0 .166-3.312v-.057q-.148-13.153-.3-26.306a19.983 19.983 0 0 0-.265-3.307 15.222 15.222 0 0 0-.516-2.116 5.114 5.114 0 0 0-.743-1.46q4.931-.078 9.862 0a3.54 3.54 0 0 0-.742 1.461 9.126 9.126 0 0 0-.547 2.116 23.38 23.38 0 0 0-.23 3.307l-.28 26.307z" class="cls-2" data-name="Path 15" transform="translate(-816.137 -378.475)"/>
                <path id="Path_16" d="M937.14 379.309a19.327 19.327 0 0 1 4.719.84 10.038 10.038 0 0 1 3.523 1.911 7.25 7.25 0 0 1 2.1 3.093 9.879 9.879 0 0 1 .415 4.333 9.678 9.678 0 0 1-3.481 6.945c-2 1.6-4.646 2.266-7.975 2.052a6 6 0 0 1-1.926-.429 5.872 5.872 0 0 1-1.533-.905l-.794 15.2a26.376 26.376 0 0 0 0 3.315 10.352 10.352 0 0 0 .35 2.143 3.821 3.821 0 0 0 .551 1.5q-4.3-.244-8.612-.355a5.545 5.545 0 0 0 .673-1.453 17.676 17.676 0 0 0 .5-2.109 22.635 22.635 0 0 0 .3-3.3l.8-26.353a20.056 20.056 0 0 0-.127-3.315 15.3 15.3 0 0 0-.428-2.135 5.14 5.14 0 0 0-.682-1.49q5.815.15 11.627.512zm-.673 17.758a3.117 3.117 0 0 0 2.093-.54 4.406 4.406 0 0 0 1.377-1.715 10.5 10.5 0 0 0 .8-2.634q.275-1.539.408-3.232a10.883 10.883 0 0 0-.264-3.708 6.661 6.661 0 0 0-1.276-2.561 5.487 5.487 0 0 0-1.959-1.493 6.327 6.327 0 0 0-2.228-.561q-.785-.045-1.569-.086l-.525 10.057a3.118 3.118 0 0 1 1.174-.56 3.537 3.537 0 0 1 1.406-.088 3.116 3.116 0 0 1 1.275.477 1.9 1.9 0 0 1 .791 1.016 3.659 3.659 0 0 0-1.937.045 3.535 3.535 0 0 0-1.539.9 3.329 3.329 0 0 0-.836 1.455 2.875 2.875 0 0 0 .092 1.761 2.04 2.04 0 0 0 .914.93 3.817 3.817 0 0 0 1.803.537z" class="cls-2" data-name="Path 16" transform="translate(-833.367 -378.624)"/>
                <path id="Path_17" d="M999.945 425.893q-9.591-1.743-19.261-2.807a5.563 5.563 0 0 0 .794-1.392 17.493 17.493 0 0 0 .671-2.059 22.416 22.416 0 0 0 .58-3.265q1.5-13.1 3.005-26.193a20.154 20.154 0 0 0 .151-3.314 15.277 15.277 0 0 0-.248-2.164 5.133 5.133 0 0 0-.556-1.542q10.734 1.182 21.4 3.1-.787 2.7-1.564 5.41-.734-.13-1.469-.257a18.5 18.5 0 0 0-.316-2.005 3.121 3.121 0 0 0-.75-1.447 4.314 4.314 0 0 0-1.757-1.034 19.423 19.423 0 0 0-3.4-.758q-1.979-.3-3.962-.568l-1.667 12.163a28.732 28.732 0 0 0 3.435.491c1.05.08 1.956.145 2.717.187q1.337.04 2.372-.017a4.074 4.074 0 0 1-.058.736 5.359 5.359 0 0 1-.569 1.511 1.792 1.792 0 0 1-1.538.868 4.326 4.326 0 0 1-2.1-.357q-2.228-.942-4.478-1.85l-2.858 20.858a2.34 2.34 0 0 0 .454 1.6 2.8 2.8 0 0 0 .972.793 5.417 5.417 0 0 0 1.74.512q1 .15 2 .308a4.249 4.249 0 0 0 2.194-.133 3.759 3.759 0 0 0 1.506-1.067 7 7 0 0 0 1.055-1.656q.429-.929.9-1.883.67.117 1.339.237-.362 3.501-.734 6.994z" class="cls-2" data-name="Path 17" transform="translate(-866.295 -381.179)"/>
                <path id="Path_18" d="M1048.882 401.879a7.333 7.333 0 0 0 .376 4.337 24.742 24.742 0 0 0 2.259 4.305q1.409 2.182 3.093 4.4a38.078 38.078 0 0 1 2.963 4.535 19.215 19.215 0 0 1 1.878 4.8 10.078 10.078 0 0 1-.129 5.095c-.938 3.421-2.558 5.847-4.809 7.32s-5.082 1.778-8.55.971a14.7 14.7 0 0 1-3.668-1.376 10.254 10.254 0 0 1-2.905-2.291 8.61 8.61 0 0 1-1.744-3.12 7.821 7.821 0 0 1-.145-3.862 7.7 7.7 0 0 1 1.314-3.174 7.438 7.438 0 0 1 2.143-2 7.066 7.066 0 0 1 2.508-.928 6.239 6.239 0 0 1 2.328.006c2.138.467 3.587 1.24 4.335 2.288a3.769 3.769 0 0 1 .734 3.17 5.884 5.884 0 0 0-2.132-.766 6.813 6.813 0 0 0-2.247.01 5.751 5.751 0 0 0-2 .746 5.066 5.066 0 0 0-2.431 3.847 5.664 5.664 0 0 0 .3 2.522 5.358 5.358 0 0 0 1.385 2.1 5.089 5.089 0 0 0 2.416 1.244 6.907 6.907 0 0 0 2.854.124 6.165 6.165 0 0 0 2.249-.874 5.222 5.222 0 0 0 1.575-1.587 6.734 6.734 0 0 0 .859-1.942 9.344 9.344 0 0 0 0-4.872 19.24 19.24 0 0 0-1.979-4.622 43.463 43.463 0 0 0-3.065-4.519 54.219 54.219 0 0 1-3.161-4.542 22.285 22.285 0 0 1-2.234-4.706 9.815 9.815 0 0 1-.291-5.076 9.4 9.4 0 0 1 1.646-3.827 9.238 9.238 0 0 1 3.077-2.665 11.359 11.359 0 0 1 4.248-1.261 14.986 14.986 0 0 1 5.051.37 12.869 12.869 0 0 1 4.671 1.99 10.083 10.083 0 0 1 2.665 2.765 7.308 7.308 0 0 1 1.088 2.926 6.615 6.615 0 0 1-.118 2.548 6.766 6.766 0 0 1-3.678 4.519 7.571 7.571 0 0 1-2.414.687 6.325 6.325 0 0 1-2.195-.117 8.736 8.736 0 0 1-2.173-.853 8.315 8.315 0 0 1-1.725-1.253 4.7 4.7 0 0 1-1.065-1.467 2.394 2.394 0 0 1-.171-1.548A6.1 6.1 0 0 0 1054 407a7.371 7.371 0 0 0 2.2.032 6.643 6.643 0 0 0 2-.614 4.291 4.291 0 0 0 1.544-1.245 3.816 3.816 0 0 0 .812-1.749 5.014 5.014 0 0 0-1.23-4.536 5.387 5.387 0 0 0-2.864-1.506 6.55 6.55 0 0 0-2.823-.1 6.373 6.373 0 0 0-2.262.915 5.745 5.745 0 0 0-1.625 1.614 5.937 5.937 0 0 0-.87 2.068z" class="cls-2" data-name="Path 18" transform="translate(-899.48 -388.473)"/>
            </g>
            <g id="Group_9" data-name="Group 9" transform="translate(120.958)">
                <g id="Group_6" data-name="Group 6" transform="translate(.738 3.525)">
                    <g id="Group_3" data-name="Group 3">
                        <path id="Path_19" d="M893.378 209.5l-.169 1.687h-.392c-.055-.217-.107-.4-.157-.565a.878.878 0 0 0-.244-.394 1.105 1.105 0 0 0-.475-.234 3.692 3.692 0 0 0-.852-.084L891 219.5a8.1 8.1 0 0 0 .042 1 3.114 3.114 0 0 0 .13.641 1.151 1.151 0 0 0 .183.445l-2.557-.024a1.958 1.958 0 0 0 .191-.441 5.3 5.3 0 0 0 .134-.638 6.952 6.952 0 0 0 .069-1l.089-9.6a3.693 3.693 0 0 0-.854.069 1.1 1.1 0 0 0-.479.226.875.875 0 0 0-.251.39q-.079.239-.167.561h-.393l-.137-1.692z" class="cls-2" data-name="Path 19" transform="translate(-887.002 -209.437)"/>
                    </g>
                    <g id="Group_4" data-name="Group 4" transform="translate(7.184 .068)">
                        <path id="Path_20" d="M910.846 219.686a8.032 8.032 0 0 0 .042 1 3.124 3.124 0 0 0 .13.641 1.151 1.151 0 0 0 .183.445l-2.557-.024a1.671 1.671 0 0 0 .192-.441 5.3 5.3 0 0 0 .134-.638 6.953 6.953 0 0 0 .069-1v-.017l.05-5.4-2.489-.023-.05 5.422a8.1 8.1 0 0 0 .042 1 3.187 3.187 0 0 0 .13.641 1.157 1.157 0 0 0 .183.445l-2.557-.024a1.679 1.679 0 0 0 .192-.441 5.412 5.412 0 0 0 .134-.639 6.942 6.942 0 0 0 .069-1l.074-7.945a6.952 6.952 0 0 0-.051-1 5.411 5.411 0 0 0-.122-.64 1.684 1.684 0 0 0-.183-.445l2.557.024a1.344 1.344 0 0 0-.192.458 3.163 3.163 0 0 0-.142.638 7.955 7.955 0 0 0-.06.98l-.019 1.977 2.49.023.018-1.977a6.96 6.96 0 0 0-.05-1 5.284 5.284 0 0 0-.122-.64 1.672 1.672 0 0 0-.183-.445l2.557.024a1.876 1.876 0 0 0-.192.45 5.679 5.679 0 0 0-.134.638 6.765 6.765 0 0 0-.069.988l-.074 7.927z" class="cls-2" data-name="Path 20" transform="translate(-904.348 -209.601)"/>
                    </g>
                    <g id="Group_5" data-name="Group 5" transform="translate(14.907 .14)">
                        <path id="Path_21" d="M928.758 221.934l-5.763-.054a1.683 1.683 0 0 0 .192-.441 5.409 5.409 0 0 0 .134-.638 6.961 6.961 0 0 0 .069-1l.074-7.945a6.936 6.936 0 0 0-.051-1 5.383 5.383 0 0 0-.122-.64 1.672 1.672 0 0 0-.183-.445l5.592.052-.169 1.687h-.392q-.082-.342-.165-.581a.947.947 0 0 0-.252-.394 1.05 1.05 0 0 0-.493-.226 4.621 4.621 0 0 0-.9-.077l-1.04-.01-.034 3.7a6.392 6.392 0 0 0 .938.009q.426-.03.733-.061a6.411 6.411 0 0 0 .632-.113 1.379 1.379 0 0 1 .015.222 1.789 1.789 0 0 1-.089.477.5.5 0 0 1-.379.329 1.056 1.056 0 0 1-.579-.014l-1.276-.37-.059 6.344a.711.711 0 0 0 .192.461.814.814 0 0 0 .313.2 1.536 1.536 0 0 0 .528.082l.6.005a1.206 1.206 0 0 0 .632-.139 1.1 1.1 0 0 0 .387-.388 2.107 2.107 0 0 0 .227-.543q.08-.3.167-.6h.393z" class="cls-2" data-name="Path 21" transform="translate(-922.995 -209.775)"/>
                    </g>
                </g>
                <g id="Group_7" data-name="Group 7" transform="translate(.167)">
                    <path id="Rectangle_2" d="M0 0h.727v22.087H0z" class="cls-2" data-name="Rectangle 2" transform="rotate(-89.48 .367 .363)"/>
                </g>
                <g id="Group_8" data-name="Group 8" transform="translate(0 17.964)">
                    <path id="Rectangle_3" d="M0 0h.727v22.087H0z" class="cls-2" data-name="Rectangle 3" transform="rotate(-89.48 .367 .363)"/>
                </g>
            </g>
        </g>
    </g>
</svg>
