<svg xmlns="http://www.w3.org/2000/svg" viewBox="0 0 323.57 90.46"><defs><style>.cls-1{fill:#fff;}</style></defs><title>rage logo web</title><g id="Layer_2" data-name="Layer 2"><path class="cls-1" d="M63.64,81.88v2.64H43.3L31.1,63.58H21.65V84.52H3.45V13.36H34.66c28,.1,33,33.75,15.05,46Zm-29-52.25c-4.27-.11-8.74,0-13,0V47.41h13c9.86,0,10.37-17.68,0-17.78M171,75.58H142.94l-4.17,8.94H121V81.88l32.07-68.75h7.83L193,81.88v2.64H175.16ZM156.86,41.31l-8,18.71H165.1Zm72.85-27.5c-17.42,0-35,11.74-35.13,35.13.09,23.39,17.71,35,35.13,35,12.63,0,25.64-5.48,30.53-19.77,2.35-6.65,2.35-13.21,2-20.06H229.81V59.31h14.58c-3.13,6.56-7.63,8.42-14.68,8.42-10.37,0-17-7.44-17-18.79,0-10.48,6-19.09,17-19.09,6.95,0,11.45,2.35,14.29,8.23h17.22c-3.32-17-17.71-24.18-31.51-24.27m90.49-.45H274.9V84.52h45.34V68.36H293V55.85h25.08V39.69H293V29.63h27.2ZM101.63,73.76a9.37,9.37,0,1,0-9.37,9.36,9.37,9.37,0,0,0,9.37-9.36"/></g></svg>