<svg xmlns="http://www.w3.org/2000/svg" width="435.251" height="87.507" viewBox="0 0 435.251 87.507">
    <defs>
        <style>
            .cls-1{fill:#fff}
        </style>
    </defs>
    <g id="boatman-title" transform="translate(-733.329 -613.798)">
        <g id="Group_78" data-name="Group 78">
            <g id="Group_77" data-name="Group 77">
                <g id="Group_76" data-name="Group 76">
                    <path id="Path_60" d="M842.957 654.065a27.027 27.027 0 0 1 6.13 2.945 20.792 20.792 0 0 1 8.475 10.879 24.666 24.666 0 0 1 1.261 8.174 28.046 28.046 0 0 1-1.983 11.178A19.841 19.841 0 0 1 843.8 698.9a33.109 33.109 0 0 1-9.495 1.323h-22.24a9.778 9.778 0 0 0 1.2-3.125 37.369 37.369 0 0 0 .9-4.508 49.191 49.191 0 0 0 .42-7.032v-56.014a49.229 49.229 0 0 0-.42-7.032 37.507 37.507 0 0 0-.9-4.507 9.793 9.793 0 0 0-1.2-3.126h21.276a32.663 32.663 0 0 1 8.715 1.082 17.874 17.874 0 0 1 6.731 3.426 15.547 15.547 0 0 1 4.387 6.07 26.918 26.918 0 0 1-1.443 21.4 16.677 16.677 0 0 1-8.774 7.208zm-15.626-1.442h6.731a5.623 5.623 0 0 0 3.966-1.442 9.819 9.819 0 0 0 2.465-3.847 21.982 21.982 0 0 0 1.2-5.71q.3-3.3.3-6.911a24.7 24.7 0 0 0-1.082-7.873 15.712 15.712 0 0 0-2.765-5.169 10.3 10.3 0 0 0-3.786-2.885 10.47 10.47 0 0 0-4.146-.9h-2.885zm6.731 44.6a7.578 7.578 0 0 0 4.627-1.678 14.55 14.55 0 0 0 3.847-4.554 26.953 26.953 0 0 0 2.584-6.713 33.926 33.926 0 0 0 .962-8.269 23.875 23.875 0 0 0-1.5-8.75 21.3 21.3 0 0 0-3.787-6.412 15.718 15.718 0 0 0-5.108-3.9 12.9 12.9 0 0 0-5.469-1.318h-2.885v28.367a7.191 7.191 0 0 1 2.4-1.322 8.1 8.1 0 0 1 3.908 0 3.4 3.4 0 0 1 2.584 2.524 6.13 6.13 0 0 0-3.607.356 7.363 7.363 0 0 0-2.824 2.084 6.5 6.5 0 0 0-1.442 3.155 6.979 6.979 0 0 0 .42 3.689 4.1 4.1 0 0 0 1.8 1.844 6.486 6.486 0 0 0 3.49.892z" class="cls-1" data-name="Path 60"/>
                    <path id="Path_61" d="M887.19 613.8a22.46 22.46 0 0 1 8.174 1.442 20.366 20.366 0 0 1 6.431 3.906 16.866 16.866 0 0 1 4.147 5.77 17.41 17.41 0 0 1 1.443 7.032v51.206a16.525 16.525 0 0 1-1.564 7.152 17.655 17.655 0 0 1-4.266 5.71 20.982 20.982 0 0 1-6.431 3.846 22.136 22.136 0 0 1-8.054 1.443 22.952 22.952 0 0 1-8.234-1.443 21.585 21.585 0 0 1-6.551-3.846 17.236 17.236 0 0 1-4.327-5.71 16.51 16.51 0 0 1-1.562-7.152v-51.208a15.755 15.755 0 0 1 1.623-7.032 18.283 18.283 0 0 1 4.447-5.77 21.712 21.712 0 0 1 6.611-3.906 22.589 22.589 0 0 1 8.113-1.44zm7.453 17.789a7.057 7.057 0 0 1-4.087 1.443 11.45 11.45 0 0 1-4.147-1.022 3.518 3.518 0 0 1-2.1-3.306 7.2 7.2 0 0 0 3.846.6 6.619 6.619 0 0 0 3.306-1.314 6.278 6.278 0 0 0 2.043-2.856 6.847 6.847 0 0 0 .181-3.929v-.236a9.5 9.5 0 0 0-2.285-2.915 6.246 6.246 0 0 0-4.207-1.251 7.156 7.156 0 0 0-3.906.96 8.276 8.276 0 0 0-2.465 2.4 9 9 0 0 0-1.322 3.122 14.973 14.973 0 0 0-.36 3.119v62.535a14.5 14.5 0 0 0 .36 3 9.635 9.635 0 0 0 1.263 3.122 8.226 8.226 0 0 0 2.4 2.46 7.961 7.961 0 0 0 7.692.058 7.061 7.061 0 0 0 2.344-2.4 9.469 9.469 0 0 0 1.143-3.125 17.967 17.967 0 0 0 .3-3.125z" class="cls-1" data-name="Path 61"/>
                    <path id="Path_62" d="M943.085 700.223a13.319 13.319 0 0 0 1.082-2.765 23.025 23.025 0 0 0 .541-3.546 18.6 18.6 0 0 0-.421-5.108l-5.649-29.329h-12.5l-7.938 34.377a11.609 11.609 0 0 0-.24 2.284v2.044a16.336 16.336 0 0 0 .12 2.043h-6.491a10.992 10.992 0 0 0 1.082-1.923 17.374 17.374 0 0 0 .9-2.224q.42-1.263.9-2.825l16.708-72.361a40.226 40.226 0 0 0-1.563-4.569l-.721-1.442h13.824l7.452 38.225 7.452 38.224a21.089 21.089 0 0 0 .962 3.666 27.776 27.776 0 0 0 1.2 2.824 17.018 17.018 0 0 0 1.322 2.405zm-5.169-44.6l-5.048-25.844-5.89 25.844z" class="cls-1" data-name="Path 62"/>
                    <path id="Path_63" d="M1003.307 614.879l-1.082 11.9h-2.765q-.6-2.281-1.142-3.966a6.2 6.2 0 0 0-1.743-2.765 7.789 7.789 0 0 0-3.366-1.623 26 26 0 0 0-6.01-.54v67.673a56.882 56.882 0 0 0 .361 7.032 22.137 22.137 0 0 0 .961 4.508 8.113 8.113 0 0 0 1.323 3.125h-18.031a13.665 13.665 0 0 0 1.323-3.125 37.194 37.194 0 0 0 .9-4.508 49.021 49.021 0 0 0 .421-7.032v-67.673a26 26 0 0 0-6.01.54 7.778 7.778 0 0 0-3.366 1.623 6.181 6.181 0 0 0-1.743 2.765q-.54 1.684-1.142 3.966h-2.764l-1.082-11.9z" class="cls-1" data-name="Path 63"/>
                    <path id="Path_64" d="M1061.242 685.558a56.893 56.893 0 0 0 .361 7.032 22.2 22.2 0 0 0 .961 4.508 8.114 8.114 0 0 0 1.323 3.125h-18.031a6.289 6.289 0 0 0 1.383-2.7 28.584 28.584 0 0 0 .841-4.028 39.889 39.889 0 0 0 .36-4.327q.06-2.163.061-3.606v-53.975l-13.823 60.582h-3.727l-14.784-60.461v61.183a13.02 13.02 0 0 0 .3 2.884 10.06 10.06 0 0 0 .781 2.284 13.442 13.442 0 0 0 1.082 2.164h-8.174a13.6 13.6 0 0 0 1.082-2.164q.362-.96.722-2.284a11.438 11.438 0 0 0 .36-3v-64.553a59.962 59.962 0 0 0-.48-6.371 27.939 27.939 0 0 0-.842-4.087 9.818 9.818 0 0 0-1.2-2.885h15.145l12.261 49.764 11.3-49.764h15.386a8.126 8.126 0 0 0-1.323 3.126 22.249 22.249 0 0 0-.961 4.507 56.937 56.937 0 0 0-.361 7.032v56.014z" class="cls-1" data-name="Path 64"/>
                    <path id="Path_65" d="M1100.426 700.223a13.319 13.319 0 0 0 1.082-2.765 23.027 23.027 0 0 0 .541-3.546 18.609 18.609 0 0 0-.421-5.108l-5.649-29.329h-12.5l-7.933 34.377a11.54 11.54 0 0 0-.241 2.284v2.044a16.536 16.536 0 0 0 .12 2.043h-6.49a11.124 11.124 0 0 0 1.082-1.923 17.663 17.663 0 0 0 .9-2.224q.419-1.263.9-2.825l16.708-72.361a40.462 40.462 0 0 0-1.562-4.569l-.722-1.442h13.823l7.454 38.225 7.452 38.224a20.926 20.926 0 0 0 .962 3.666 27.355 27.355 0 0 0 1.2 2.824 16.912 16.912 0 0 0 1.321 2.405zm-5.168-44.6l-5.049-25.844-5.89 25.844z" class="cls-1" data-name="Path 65"/>
                    <path id="Path_66" d="M1168.58 614.879a13.556 13.556 0 0 0-1.082 2.164 10.138 10.138 0 0 0-.781 2.284 13.047 13.047 0 0 0-.3 2.885v78.011h-3.847l-33.17-70.439v63.107a12.962 12.962 0 0 0 .3 2.884 17.574 17.574 0 0 0 .661 2.284 13.447 13.447 0 0 0 1.082 2.164h-8.053a13.681 13.681 0 0 0 1.081-2.164 23.89 23.89 0 0 0 .722-2.344 12.143 12.143 0 0 0 .36-3.065V628.1a47.8 47.8 0 0 0-.541-6.311 33.248 33.248 0 0 0-.9-4.027 8.139 8.139 0 0 0-1.2-2.764h13.223l26.444 55.533v-48.079a12.165 12.165 0 0 0-.36-3.065 24.439 24.439 0 0 0-.722-2.344q-.482-1.2-.962-2.164z" class="cls-1" data-name="Path 66"/>
                </g>
            </g>
        </g>
        <g id="Group_83" data-name="Group 83">
            <g id="Group_80" data-name="Group 80">
                <g id="Group_79" data-name="Group 79">
                    <path id="Path_67" d="M752.506 643.172l-.422 4.642h-1.079q-.234-.89-.445-1.547a2.421 2.421 0 0 0-.68-1.079 3.028 3.028 0 0 0-1.313-.632 10.118 10.118 0 0 0-2.344-.211v26.4a22.4 22.4 0 0 0 .14 2.742 8.671 8.671 0 0 0 .375 1.759 3.17 3.17 0 0 0 .516 1.219h-7.032a5.4 5.4 0 0 0 .515-1.219 14.6 14.6 0 0 0 .352-1.759 19.138 19.138 0 0 0 .164-2.742v-26.4a10.128 10.128 0 0 0-2.345.211 3.018 3.018 0 0 0-1.312.632 2.412 2.412 0 0 0-.68 1.079q-.211.657-.445 1.547h-1.079l-.422-4.642z" class="cls-1" data-name="Path 67"/>
                    <path id="Path_68" d="M772.854 670.742a22.189 22.189 0 0 0 .14 2.742 8.671 8.671 0 0 0 .375 1.759 3.171 3.171 0 0 0 .516 1.219h-7.032a4.625 4.625 0 0 0 .515-1.219 14.8 14.8 0 0 0 .352-1.759 19.138 19.138 0 0 0 .164-2.742v-14.91h-6.846v14.91a22.165 22.165 0 0 0 .141 2.742 8.531 8.531 0 0 0 .375 1.759 3.187 3.187 0 0 0 .515 1.219h-7.032a4.588 4.588 0 0 0 .516-1.219 14.631 14.631 0 0 0 .351-1.759 19 19 0 0 0 .164-2.742v-21.849a19.056 19.056 0 0 0-.164-2.744 14.666 14.666 0 0 0-.351-1.757 4.583 4.583 0 0 0-.516-1.22h7.032a3.7 3.7 0 0 0-.515 1.266 8.565 8.565 0 0 0-.375 1.758 21.762 21.762 0 0 0-.141 2.7v5.438h6.846v-5.438a19.2 19.2 0 0 0-.164-2.744 14.834 14.834 0 0 0-.352-1.757 4.62 4.62 0 0 0-.515-1.22h7.032a5.193 5.193 0 0 0-.516 1.243 15.638 15.638 0 0 0-.351 1.758 18.544 18.544 0 0 0-.164 2.72v21.849z" class="cls-1" data-name="Path 68"/>
                    <path id="Path_69" d="M792.124 676.462h-15.848a4.588 4.588 0 0 0 .516-1.219 14.8 14.8 0 0 0 .352-1.759 19.138 19.138 0 0 0 .164-2.742v-21.849a19.2 19.2 0 0 0-.164-2.744 14.834 14.834 0 0 0-.352-1.757 4.583 4.583 0 0 0-.516-1.22h15.379l-.423 4.642h-1.078q-.234-.937-.468-1.594a2.61 2.61 0 0 0-.7-1.078 2.89 2.89 0 0 0-1.36-.61 12.731 12.731 0 0 0-2.484-.187h-2.861v10.174a17.587 17.587 0 0 0 2.579 0q1.172-.093 2.016-.188a17.479 17.479 0 0 0 1.735-.328 3.746 3.746 0 0 1 .047.609 4.9 4.9 0 0 1-.234 1.314 1.375 1.375 0 0 1-1.032.914 2.908 2.908 0 0 1-1.594-.024l-3.517-.984v17.446a1.972 1.972 0 0 0 .539 1.264 2.25 2.25 0 0 0 .868.537 4.2 4.2 0 0 0 1.454.211h1.64a3.33 3.33 0 0 0 1.736-.4 3.029 3.029 0 0 0 1.054-1.079 5.821 5.821 0 0 0 .61-1.5q.21-.82.445-1.666h1.073z" class="cls-1" data-name="Path 69"/>
                </g>
            </g>
            <g id="Group_81" data-name="Group 81">
                <path id="Rectangle_12" d="M0 0h60.74v2H0z" class="cls-1" data-name="Rectangle 12" transform="translate(733.329 633.494)"/>
            </g>
            <g id="Group_82" data-name="Group 82">
                <path id="Rectangle_13" d="M0 0h60.74v2H0z" class="cls-1" data-name="Rectangle 13" transform="translate(733.329 682.898)"/>
            </g>
        </g>
    </g>
</svg>
