<svg id="Layer_1" data-name="Layer 1" xmlns="http://www.w3.org/2000/svg" viewBox="0 0 394 80"><defs><style>.cls-1{fill:#934a0d;}.cls-2{fill:#fff;}</style></defs><title>pangolin-buttons</title><rect class="cls-1" x="10.8" y="10.5" width="372.02" height="58"/><path class="cls-1" d="M382.16,68.5c.08.45.28.2.24-1l-.33-.89Z"/><path class="cls-1" d="M382.77,60.11c-.16-1.47-.44-3.16-.75-2.21.32,1.45.19,1.8.57,3.37,0,1.25-.11,2.18-.23,2a21,21,0,0,0,.13,2.61,23.83,23.83,0,0,0,.06-5.83C382.62,59.55,382.71,60,382.77,60.11Z"/><path class="cls-1" d="M310.46,10l.79,0A5.91,5.91,0,0,0,310.46,10Z"/><path class="cls-1" d="M234.9,9.85a2.47,2.47,0,0,0,.84-.07A3.49,3.49,0,0,0,234.9,9.85Z"/><path class="cls-1" d="M222,9.49l.77,0A3.43,3.43,0,0,0,222,9.49Z"/><path class="cls-1" d="M310.46,10l-2-.11A7.9,7.9,0,0,0,310.46,10Z"/><path class="cls-1" d="M382,43.29c0,.42,0,.77.09,1.09,0-.34,0-.68,0-1Z"/><path class="cls-1" d="M343.78,9.77h.61l.51-.14Z"/><path class="cls-1" d="M369.34,9.72a1.46,1.46,0,0,0-1,.39,4.34,4.34,0,0,1,1.26-.19C369.61,9.86,369.54,9.8,369.34,9.72Z"/><path class="cls-1" d="M383.11,37.56l0,.72C383.14,38.09,383.12,37.78,383.11,37.56Z"/><path class="cls-1" d="M325.48,9.71a.55.55,0,0,0-.23-.1S325.34,9.68,325.48,9.71Z"/><path class="cls-1" d="M353.19,67.18s0,0,0,0C353.34,67.2,353.38,67.18,353.19,67.18Z"/><path class="cls-1" d="M382.82,68.57l-.41,0s-.09.1-.09.16Z"/><path class="cls-1" d="M198.38,9.13h.11C199.11,9.1,198.76,9.11,198.38,9.13Z"/><path class="cls-1" d="M9.64,39.69c.25-2.46.32,4,.6.29C10.13,40.33,9.8,36.62,9.64,39.69Z"/><path class="cls-1" d="M382,42.63V41.58C382,42.06,382,42.38,382,42.63Z"/><path class="cls-1" d="M10.24,40h0l0-.38Z"/><path class="cls-1" d="M144,9.3a2.42,2.42,0,0,0,.55.12S144.39,9.36,144,9.3Z"/><path class="cls-1" d="M184.51,9.7l-1,0C183.9,9.69,184.23,9.7,184.51,9.7Z"/><path class="cls-1" d="M122.93,9.7a11.14,11.14,0,0,0-1.47,0l.22,0A5.39,5.39,0,0,1,122.93,9.7Z"/><path class="cls-1" d="M101,9.7l.4.05h.7Z"/><path class="cls-1" d="M286.62,67.32a4.42,4.42,0,0,1,1,.25C287.29,67.37,290.51,67.3,286.62,67.32Z"/><path class="cls-1" d="M382.13,43.28a1.48,1.48,0,0,1-.12-.65c0,.25,0,.49,0,.72C382.07,43.42,382.1,43.43,382.13,43.28Z"/><path class="cls-1" d="M122,11.91l-3.48,0C119.54,11.9,120.8,11.91,122,11.91Z"/><path class="cls-1" d="M129.48,67.36l.8,0A4.73,4.73,0,0,0,129.48,67.36Z"/><path class="cls-1" d="M108.23,11.91a19.45,19.45,0,0,0-2-.19,3.27,3.27,0,0,0-.4.07Z"/><path class="cls-1" d="M287.64,67.57h0Z"/><path class="cls-1" d="M310.56,66.9c-3.32,0-1.56.37-2.26.58-4,.1-1.83-.27-3.18-.46-2.47.09-4.37.43-6.21.42-.14-.06-.49-.08-.07-.16-2.62.29-7.76,0-10.8.38a1.37,1.37,0,0,1-.4-.09c.49.19.57.37.47.51a14.52,14.52,0,0,1-3.32,0,4.29,4.29,0,0,0,1.41-.17l-1.56.11c-1.4-.35,2.13-.12,2.13-.38-3,.12-6.58.4-8.9.3-.49-.34,5.44-.11,2.33-.41l3.6.13c-2.75-.54,2.19,0-.34-.54-4.74-.1-5.3.18-10,.08-1.07.18.35.28-.72.46-6.72.34-5.29-.85-10.23-.4a13.41,13.41,0,0,1-5.29.43l1.2-.38c-4.59,0-2.62.55-7.42.29.85-.15,3.6-.13,2.91-.17-3.12-.31-2.2.22-4.6.22l-.49-.34c-4.89,0-10.27.29-15.68.36.3-.1,1.23-.21,0-.31-6.82.17-14.56,0-21.15-.25l-2.51.3c-.59,0-1.09-.14-.45-.19-2.57-.12-.14.18-1.37.3-1.46,0-1.93-.17-1-.26-4.53.25-12.9.54-17.66.22l.92-.08c-3.71-.12-4.19.6-7.63.32l.66,0c-8.06-.13-17,.14-23.12-.3-1.17.42-8-.19-8.49.4-4.61-.29-3.29-.4-9.77-.59-1.73,0-2.58.37-4.72.43l0-.31-2.91.32-1.54-.37-2,.08c.8,0,1.7.14,1.58.23a41.7,41.7,0,0,1-7.72-.37l-7.42.26a13.25,13.25,0,0,1,2.39-.25c-4,.32-.72-.32-4.35,0,.48.07-.26.18-.35.24-1.81-.19-5.92-.19-9-.11l.58-.21c-5.5,0-11.59.1-17.77.1,2.21.1,1.71.46-.11.5l-.72-.33c-1.17.21,1.89.13-.51.37-2.31,0-1.55-.37-.22-.47l-2.81.11c-.16-.1.49-.15.66-.27-1.15.2-4.84-.33-6.5,0L77.89,67c-6.18,0-9,.1-14,.12-.1.28-2.06.22-3.56.45-3.7-.09-7.8-.31-12.25-.29-3.13.14-.91.24-2.32.41-.23-.26-4.68-.24-2.37-.42-5.35,0-6.83,0-13.59.26.74.1,1.56.15,1.13.24a6.91,6.91,0,0,1-2.61-.23l.32,0c-2.75.14-5.81.08-8.88,0l-4.58-.18L13,67.24h-.53l-.11,0-.19,0c0-.11,0-.21,0-.3,0-.48,0-1,0-1.42,0-1-.06-1.86-.13-2.69l0,.34-.27-6.27c0-2.88.19,1.73.35-.4-.43-6.76.06-10.68-.23-16.24.76-4.31,0-15.29.43-21.1l-.18.33a12.3,12.3,0,0,1,.15-2.92c-.14.15-.16,1.63-.26.69,0-1.83,0-3.68-.05-5.57l7,.06,8.18.13,16.34.29c4.77.05,2.71-.92,8.73-.5L50.44,12c9.63-.39,19.7,0,29.13-.32a5.76,5.76,0,0,1-1.5.17,36.13,36.13,0,0,0,7.4-.18c1.47,0,.34.18,1.24.28,2,.14,5-.31,6.08-.07.18,0-.56.08-.93.1,1.3-.12,6.07,0,4.82-.25,3.54.13,6.77-.13,9.59,0,1.85-.31,6.06.15,6.65-.29-.25.45,6.2.36,8.44.15-.75.14,2,.14,1.07.33,2.55,0,4.89-.09,4.45-.32,4.7.54,9.46-.44,12.11.26,7.58-.24,14.6-.41,21.43-.52-.25.46-7.55.05-7.25.52,6.47-.18,10.21-.57,16.63-.46,1.66.06-1,.19-1.51.27,6.47-.18,12.51,0,18.26-.2a6.72,6.72,0,0,1-1.22.12c1.13,0,2.64.07,2.51-.14l-1.11.06c-1.81-.3,4.51-.63,4.71-.78-1.93.59,5.68.15,2.63.89.74,0,1.68-.14,1.51-.28,1.11,0,1.46.12.33.28,4.07-.11,2.62-.33,6.3-.32,0,.1-.75.13-1.13.25a45.92,45.92,0,0,1,6.84-.3c-.18.06.18.13-.75.13,5.34,0,9.11-.51,15-.33-1.73.44,2,.15,2.3.52l3.15-.11-1.26-.18c2.76,0,5.2-.27,7.57-.15l-2.05.16,5.17-.07-2.93-.14c2.8-.2-.29-.48,3.38-.37-.75,0,2.76,0,4.2.22h0a33.14,33.14,0,0,1,4.81-.15c.53.12-.42.41-.08.49,1.35-.31,6.47-.08,8.17-.42-.57.08-.6.28-.41.32l1.13-.25c1.28.08,1.47.12,1.26.27,3.85.05-1.22-.47,3.34-.27-.35,0-.18.06-.93.1,4.59.11,8.86-.16,13.07,0,1.25.38-3.68.1-2.26.41,6.08-.07,12.58-.45,18.46-.36l-1.09,0c.81-.53,4.37.26,7.35,0-.73,0-1,.3-.76.24,4,.08,8.23-.13,14.33-.3l-.76.14c2.38.12,6.25.07,8.82.13.76-.14,2.22-.12,1.33-.31,7.9.77,15.07-.42,22.09.23-.84,0-2,.11-1.33.12l6-.13a7.83,7.83,0,0,0-2-.32,27.5,27.5,0,0,1,3.92-.24c-2.68.15,0,.37,1.18.5-.19-.07.21-.15.11-.22,3.12.41.52-.47,4.78-.19l-.22.12c1.59-.06,3.06-.22,4.78-.19.71.27-1.7.13-1.81.35,2.42,0,4.77-.51,6.95-.24-1,.07-2.5.07-3.52.15a29.31,29.31,0,0,0,4.42.28h-.17l4.08.14-1-.08c3-.7,6.15-.13,10.22-.58-3.95.43-.65.25-.95.55,1,.08,2.62.18,2.17.26a15.36,15.36,0,0,1,2.62,0c.44,0,.9,0,1.42,0h.26l.21,0,.54-.08v.05a2.91,2.91,0,0,0-.07.58,1.77,1.77,0,0,1,0,.32c0,.12-.07.16-.13.06,0,1.25.08,1.1.13.66,0-.21,0-.5.08-.72s.05-.23.08-.22a5.91,5.91,0,0,1,.05.63l0,.77c0,.52,0,1.06,0,1.62,0,1.12-.06,2.31-.11,3.54a68.45,68.45,0,0,0,.08,7.94c.18,4.78.51,5.67.68,10.11-.16,1.49-.36-1.23-.36-1.23a54.37,54.37,0,0,0,0,6.51c-.09-.46-.16,0-.27.71,0,1.83.35,1.22.21,3.63a11.27,11.27,0,0,1-.39-1.83c.12,2.16.23,4.29.36,6.51-.17.59-.26-1.34-.37-2.13a59.22,59.22,0,0,0,.42,7.27l.1-1.61c0,.91-.23.47-.28-.2a6.45,6.45,0,0,1,.19-3.22l.06,1.59c.57-1.63-.09-6.38-.06-9.58l.42,1.34-.35-3.28c.11-.7.34-1.18.41.4.2-2.29-.15-2,.08-4,0-.22,0-.12.07.08L383,35.32c.08.44.29-.37.23,1,.24-4-.31-6.48,0-8l0,.34c-.14-5.58-.31-.54-.67-4.72l.76-2.82-.31-.55c0-.57,0-1.71.16-1.5-.21-2.14-.13.37-.33-.88C383,17,383,15.46,383,14V12c0-.66,0-1.24.09-1.71a1.08,1.08,0,0,1-.52-.16c-.66.11.07.16.49.19,0,.39,0,.61-.09.09l-.94.06c-.9-.53-3.43.09-6-.15.77-.27,3.17-.13.64-.37-1.53.46-4.92-.1-7.06,0-.1.36-4.64.15-8.21.27.22-.12-6.74-.2-10.07-.33l.1-.06c-.65.36-4.08.29-6.58.37.1-.22.55-.31,1.9-.4h-2.35a16,16,0,0,1-2.81.22l.59-.28c-3.13,0-6.3.33-10.33.14-.23.26,3.2.72-1,.89-.16-.14-.32-.38.8-.43a15.38,15.38,0,0,1-2,0l1.7-.23c-1.83-.1-1,.19-2.43.17,0-.19-1.08-.14-.87-.29.37,0,1.28.08,1.84,0a33.89,33.89,0,0,1-4.31-.3c.14.11,0,.26-1.21.29-3.13,0-1.07-.24-2.9-.34-.76.14-2.75,0-2.8.29a4,4,0,0,1-1.44-.22c-1.62.13-7.57,0-5.74.35l.41,0-.26,0h0c-5.31.29-11-.17-16.29,0V10c-3.14.11-7,.06-9.24.28-.93,0-2.19-.19-1.8-.3a53,53,0,0,1-6.14,0c2.42-.17-.83-.15,2.48-.13a49.41,49.41,0,0,0-7.19,0c1.14-.25-2.35-.32-3.83-.24l2.19.18c-1.67,0-3.13,0-4.61,0l.8-.33c-6.39-.41-11.53.69-16.39,0-1.69.23,3.47.16,2,.44-2.94,0-6-.53-6.92-.53-4-.18-3.76.49-8,.36.54.12,1,.44-2.1.55-2.94,0-3.61-.5-1.75-.59.7,0,1,0,1,.06.95,0,2.2-.09,1-.22l-.38.12c-1.46-.12-5.5-.11-4.55-.3-2.23.11-1,.19.69.25-3.77-.17-5.89,0-9.77-.12.61.07,1.18.21.57.21-5.7-.15-2.51.22-6.37.27-2.19-.18.78-.43-3.1-.28-2.37-.12-.5-.31.44-.41a80.51,80.51,0,0,1-8.63-.19l1.86-.1c-1.12.06-2,.06-3,.06l1.07.24a8.25,8.25,0,0,1-2-.15c-1.13.16.86.4-1.38.61-1.46-.12-4.44.13-4.95-.18,4.59.1-.51-.32,3.38-.37-.75,0-1.66,0-2.76,0-.17,0,.15-.06.45-.08-4.39-.28-2,.36-6.57.35.58-.18-1.05-.34-1.8-.3,1.84,0,.88.3-.8.43a44.77,44.77,0,0,0-4.7.09l1.74.06a25.45,25.45,0,0,1-4.08.21c-.18-.13,1.84-.09,1.12-.15-2.26.31-5.11-.33-8.26-.12-1.45-.12-.14-.33-1.42-.41-3.53.23-3.82-.24-7.53,0,1.07.24,1.25.18-1.36.41l6.1-.17-3.91.35c1.84,0,3.88-.15,5-.11-1.86.19-1.67.13-.79.33-2.52-.36-5,.21-7.9,0l.08-.59c-4.37-.26-7.77.3-13.46.15l1.83.11c-.76.23-3.51,0-5.35.12.17-.19-1-.27-1.77-.39.1.15-4.16,0-4.68.38l-2.53-.26c-4.59-.1-5.24.57-9.65.5,1.32-.22-.68-.36,2.27-.51a11.93,11.93,0,0,0-2.82.1c-.86-.12-4.08.26-5.44.08a8.88,8.88,0,0,1-2.47.27c-.18,0,0-.09,0-.09s-2.59.13-1.14.35c-4.54-.62-12.69,0-16.64-.49-3.21.07-7.09.13-10,.15.18-.06,0-.1.56-.08-4-.18-2.48.57-7.06.36-2.34-.32,2.43-.17,1-.29-.63-.65-5.53.09-8.61-.29l.75,0c-2.36-.22-5.75.25-9.6.2,0,0,.18-.06,0-.1-2.63.33-7.62.44-11.32.53,1.15-.25,1.68-.13,1-.39-1.67,0,.48.42-2.83.49-1.08-.14-3.47-.26-3.79-.54h3.13c-1.6-.36-4.05,0-5.7-.05l.21-.16c-4.79.05-4.85.44-10,.42l.53.11c-2.81.39-2.36-.21-5.17.08l-.85-.4c-1.85.1-6.5.38-9.83.46,1.89-.3,5.78-.45,8.19-.62-1.84,0-6.25,0-7.21.22a21.62,21.62,0,0,1,2.41-.07,68.36,68.36,0,0,1-8.9.46c.21-.25-.74-.36-2.2-.41l-2.51,0L10,9.7c0,.73,0,1.46,0,2.15,0,.26,0,.51,0,.76s0,.44,0,.64a12.78,12.78,0,0,1-.22,2c.29,6.49-.12,12.88-.07,20.44.59-2.69,0,2.2.62,1.74a20.4,20.4,0,0,1,0,2.59l-.36,5.33c-.18,1.27-.14-1.67-.27-1.51,0,3.86-.26,1.62-.42,4.17.21-.52.31,1.34.23,3.54l.28-3.1c.32,5.39-.52,4.66-.19,10.09l-.2-1.72c0,1.21.06,3.32.09,5.53,0,1.11,0,2.24.07,3.3.06,1.5.12,2.89.17,4,.91,0,1.67-.09,2.26-.16.18,0,.44,0,.56.07a.81.81,0,0,1,.24.08s0,.06-.09.08l-.24,0-.68,0h2.88l2.65,0,5.35-.15c3.52-.1,6.86-.18,9.44,0l-.5.15a22.92,22.92,0,0,1,3.72-.13c-.08.06-.5.15.07.16a46,46,0,0,1,5-.17l-1.41.16c6.5.2,10-.41,15.42-.51,0,.44,5.1.59,7.65.66l-.09.06c7.56,0,12.85-.37,19.85-.54,4.35.48,14.73.2,21.72.47-1.07-.08.17-.34,1.42-.39,1.63.09,4.53-.3,4.27.1h-.59c1.24.4,4.61.29,7.24.3l.44-.52c6.88.76,18-.29,21.79.4,1.66-.13,3.72-.13,5.36-.26l-.09.28c4.61.07,6.9.11,12.59,0l-1.16.21c3.21,0,4.05-.82,7-.84l.89.42c5.6,0,11.27.37,16.8,0-.09.06-.26.18-1.16.2,2.63,0,10.19.28,9.23-.3.07.38,5.78,0,8.8-.13l-.47.28a37.6,37.6,0,0,1,6.2-.55c.84,0,.74.22-.38.15,2.81.15,2.19-.26,5.6-.11l-1.27.17a17.88,17.88,0,0,0,4.26-.28,25.53,25.53,0,0,1,5.92.33,12.76,12.76,0,0,1,3.68-.29c.23.09-.39.15-.7.18,4.84.19,7.19-.32,10.52,0a1,1,0,0,0,.57.17c-3.85,0-6.95,0-6.66,0,0,.25,3.11.3.64.65a95,95,0,0,1,9.78-.49,2,2,0,0,1,.4.09l-.31,0c.7,0,1.33,0,1.92,0,1,0,1.58.07,2.5.07a36.8,36.8,0,0,0,5.11.13c-.12-.28,1.9-.24,0-.47.25,0-.29,0-1.32,0l-.66,0,.11,0-3.85,0a18.25,18.25,0,0,1,4.21-.11c.8-.18,1.67-.37,2.16-.45,2.12.39,6.21.6,6.78.84,4.73-.15,11.14-.1,14.12-.63a5,5,0,0,1,2,.24c-.77,0-1.7,0-2.12.12,2.69-.14,8-.06,8.61-.43,3.39.17-1.9.34,2.75.28l-.62.12c9.16.59,14.89-1,25.05-.19a5.26,5.26,0,0,1-1.2-.13c11.58.34,23.86-.31,35.28.22a29.15,29.15,0,0,0,5.59-.31l.7.3,3.39-.35c4.8-.25,8.32.74,14.4.26l-.78-.2c2.19,0,6.92-.12,6.56.11a4.2,4.2,0,0,1,1.57-.1l.06.16,5.37-.28c4.16.12-.65.63,5.42.66,2.26-.06,6.43-.46,5.58-.56a7.56,7.56,0,0,1-2.39-.26l2.06-.08c.38-.47,2-.94-3.1-1.27l-3.54.28-1.13-.22,3,0a14.65,14.65,0,0,0-3.95.11,5.29,5.29,0,0,0-1.48-.25l-3.47.45c-.42-.19,1.56-.37-.77-.47-1.63.21,1.56.41-1.13.55a8.34,8.34,0,0,0-3.18-.21c-.28-.12.14-.19.93-.24-1.77.14-4.67.06-5.59.3-1.76-.26-6,.07-5.78-.37a40.52,40.52,0,0,1-4.73.36c3-.52-6.07,0-5.29-.59-2.19.47-7.91.21-11.8.47a4.64,4.64,0,0,1,1-.09c-2.18,0-2.82-.18-4.22-.27-.28.39-3.69.48-5.52.72-2.68-.37,1.62-.46.78-.82.14.32-4.65.32-3.74.58a10.16,10.16,0,0,1-2.82-.44c-.36.49-1.91.09-3.61.39-3-.24-.76-.46-4-.31C307.67,67.08,310.56,66.9,310.56,66.9Zm-77.45.85h0l1.6,0Zm-6.51,0h2.83c.22.09,0,.19-.68.19A10.85,10.85,0,0,0,226.6,67.76Zm13.77,1.94a4.48,4.48,0,0,1-1.52-.07l1.81,0,.12,0A1,1,0,0,1,240.37,69.7Z"/><path class="cls-1" d="M242.22,69.33l.43,0-.62-.06-.36.09Z"/><path class="cls-1" d="M311.39,10.08h-.14a1.84,1.84,0,0,1,.29,0Z"/><polygon class="cls-1" points="136.73 67.22 136.74 67.29 137.31 67.23 136.73 67.22"/><path class="cls-1" d="M347.23,11.05a2.47,2.47,0,0,0,.48.07A2.2,2.2,0,0,0,347.23,11.05Z"/><path class="cls-1" d="M362.72,11.11l2.19.1C364,11.15,363.27,11.13,362.72,11.11Z"/><path class="cls-1" d="M374.62,11.25a.61.61,0,0,0,.24-.12h0Z"/><path class="cls-1" d="M185.33,11.58h-.46C183.79,11.65,184.52,11.63,185.33,11.58Z"/><path class="cls-1" d="M241.66,10.92l-1.81.14C240.85,11.08,241.63,11.08,241.66,10.92Z"/><path class="cls-1" d="M122.42,11.92h0Z"/><path class="cls-1" d="M237.23,11.05a25.58,25.58,0,0,0,2.62,0C239,11,238.06,11,237.23,11.05Z"/><path class="cls-1" d="M382,53.9l0,.58s0,0,.05.07Z"/><path class="cls-1" d="M382,54.55l0,.63A3.18,3.18,0,0,0,382,54.55Z"/><path class="cls-1" d="M382.08,56.52,382,55.18A6.72,6.72,0,0,0,382.08,56.52Z"/><path class="cls-1" d="M382.08,38.14,382,38C382,38.06,382,38.12,382.08,38.14Z"/><path class="cls-1" d="M382.05,33.35c0,1.15-.22,2.87-.16,4.46L382,38C381.82,37.21,382.22,34.44,382.05,33.35Z"/><path class="cls-1" d="M383.31,13.36l-.09,4c.11-.71.26-1.63.28.2C383.83,12.52,383.26,18.62,383.31,13.36Z"/><path class="cls-1" d="M373.24,9.86c2.16,0,0-.16.09-.22C372,9.74,371.63,9.76,373.24,9.86Z"/><path class="cls-1" d="M283.31,9.86l.22-.26C281.86,9.64,283.51,9.7,283.31,9.86Z"/><polygon class="cls-1" points="266.12 11.18 267.74 11.34 268.51 11.1 266.12 11.18"/><polygon class="cls-1" points="255.96 9.36 256.69 9.32 253.92 9.41 255.96 9.36"/><path class="cls-1" d="M104.93,9.45l.5.31C106.55,9.71,106.79,9.35,104.93,9.45Z"/><path class="cls-1" d="M39.72,9.77a13.53,13.53,0,0,0-3.67-.1C37.51,9.69,39,9.81,39.72,9.77Z"/><polygon class="cls-1" points="119.44 69.74 118.12 69.85 120.6 69.76 119.44 69.74"/><path class="cls-1" d="M3.72,3.5c-.08-.48-.28-.21-.24,1.13l.33.94Z"/><path class="cls-1" d="M3.11,12.49c.16,1.57.44,3.38.75,2.36-.32-1.55-.19-1.93-.57-3.6,0-1.34.11-2.34.23-2.11a24.31,24.31,0,0,0-.14-2.8,28,28,0,0,0,0,6.25C3.26,13.08,3.17,12.6,3.11,12.49Z"/><path class="cls-1" d="M69.66,77l-.84,0A6.74,6.74,0,0,0,69.66,77Z"/><path class="cls-1" d="M150.58,77.15a2.82,2.82,0,0,0-.9.07A4,4,0,0,0,150.58,77.15Z"/><path class="cls-1" d="M164.4,77.51l-.81,0A3.8,3.8,0,0,0,164.4,77.51Z"/><path class="cls-1" d="M69.66,77l2.16.11A9.2,9.2,0,0,0,69.66,77Z"/><path class="cls-1" d="M3.91,30.5c0-.45-.05-.83-.09-1.17l0,1.1Z"/><path class="cls-1" d="M34,77.23h-.65c-.2,0-.38.09-.55.14Z"/><path class="cls-1" d="M6.6,77.28a1.67,1.67,0,0,0,1.08-.39,4.91,4.91,0,0,1-1.35.19C6.32,77.14,6.4,77.2,6.6,77.28Z"/><path class="cls-1" d="M2.77,36.64l0-.77C2.74,36.07,2.76,36.4,2.77,36.64Z"/><path class="cls-1" d="M53.58,77.29a.59.59,0,0,0,.25.1S53.73,77.32,53.58,77.29Z"/><path class="cls-1" d="M34.79,4.82s0,0,0-.05C34.63,4.8,34.58,4.82,34.79,4.82Z"/><path class="cls-1" d="M3.06,3.43l.44,0c0-.05.09-.1.09-.16Z"/><path class="cls-1" d="M189.69,77.87h-.11C188.91,77.9,189.29,77.89,189.69,77.87Z"/><path class="cls-1" d="M391.73,45.24c-.25,2.63-.32-4.27-.6-.32C391.24,44.56,391.57,48.52,391.73,45.24Z"/><path class="cls-1" d="M3.87,31.21v1.12C3.88,31.82,3.88,31.48,3.87,31.21Z"/><path class="cls-1" d="M391.13,44.92h0l0,.41C391.11,45.16,391.12,45.07,391.13,44.92Z"/><path class="cls-1" d="M248,77.7a2.73,2.73,0,0,0-.59-.12S247.51,77.64,248,77.7Z"/><path class="cls-1" d="M204.55,77.3l1.07,0C205.19,77.31,204.85,77.3,204.55,77.3Z"/><path class="cls-1" d="M270.49,77.3a12.85,12.85,0,0,0,1.58,0l-.24,0A6.2,6.2,0,0,1,270.49,77.3Z"/><path class="cls-1" d="M294,77.3l-.44,0h-.74Z"/><path class="cls-1" d="M106.08,4.68A5.11,5.11,0,0,1,105,4.43C105.36,4.63,101.91,4.7,106.08,4.68Z"/><path class="cls-1" d="M3.75,30.51a1.68,1.68,0,0,1,.12.7v-.78C3.81,30.36,3.77,30.35,3.75,30.51Z"/><path class="cls-1" d="M271.44,75.09l3.73,0C274.13,75.1,272.77,75.09,271.44,75.09Z"/><path class="cls-1" d="M274.36,4.64l-.85,0A5.31,5.31,0,0,0,274.36,4.64Z"/><path class="cls-1" d="M286.23,75.09c.66.1,1.37.15,2.1.19a3.51,3.51,0,0,0,.43-.07Z"/><path class="cls-1" d="M105,4.43h0Z"/><path class="cls-1" d="M80.44,5.1c3.55,0,1.67-.37,2.42-.58,4.24-.1,2,.27,3.41.46,2.64-.09,4.67-.43,6.65-.42.14.06.53.08.08.16,2.8-.29,8.3,0,11.56-.38a1.5,1.5,0,0,1,.43.09c-.53-.19-.61-.37-.5-.51a16.6,16.6,0,0,1,3.55,0,5,5,0,0,0-1.51.17L108.2,4c1.5.35-2.28.12-2.28.38,3.25-.12,7-.4,9.54-.3.52.34-5.83.11-2.51.41l-3.85-.13c2.94.54-2.35,0,.36.54,5.08.1,5.68-.18,10.74-.08,1.14-.18-.38-.28.76-.46,7.2-.34,5.67.85,11,.4a15.35,15.35,0,0,1,5.67-.43l-1.29.38c4.91,0,2.81-.55,7.95-.29-.91.15-3.86.13-3.12.17,3.34.31,2.36-.22,4.92-.22l.54.34c5.23,0,11-.29,16.78-.36-.32.1-1.31.21,0,.31,7.3-.17,15.59,0,22.64.25l2.7-.3c.62,0,1.16.14.48.19,2.75.12.14-.18,1.46-.3,1.57,0,2.07.17,1.08.26,4.84-.25,13.81-.54,18.91-.22l-1,.08c4,.12,4.48-.6,8.17-.32l-.7,0c8.63.13,18.17-.14,24.75.3,1.26-.42,8.55.19,9.1-.4,4.93.29,3.52.4,10.46.59,1.85,0,2.76-.37,5-.43l.06.31,3.11-.32,1.66.37,2.15-.08c-.86,0-1.82-.14-1.69-.23a48,48,0,0,1,8.27.37L288,4.56a15.28,15.28,0,0,1-2.56.25c4.24-.32.77.32,4.66,0-.52-.07.28-.18.37-.24,1.94.19,6.35.19,9.61.11l-.63.21c5.89,0,12.42-.1,19-.1-2.37-.1-1.83-.46.11-.5l.78.33c1.25-.21-2-.13.54-.37,2.47,0,1.66.37.24.47l3-.11c.17.1-.53.15-.71.27,1.23-.2,5.18.33,7,0l.17.09c6.61,0,9.61-.1,15-.12.11-.28,2.21-.22,3.82-.45,4,.09,8.35.31,13.12.29,3.35-.14,1-.24,2.48-.41.25.26,5,.24,2.54.42,5.72,0,7.31,0,14.55-.26-.79-.1-1.67-.15-1.21-.24a7.93,7.93,0,0,1,2.8.23l-.35,0c1.28-.06,2.62-.08,4-.08l2.09,0h.74l.42,0,0,.48v.31l0,.58-.09,2.32c-.05,1.54-.1,3.06-.15,4.52a73.39,73.39,0,0,0,.09,7.84l0-.36.28,6.71c-.05,3.09-.2-1.85-.35.43.42,7.24-.07,11.44.22,17.4-.76,4.61.05,16.37-.43,22.59l.18-.36a14.32,14.32,0,0,1-.14,3.14c.13-.17.16-1.75.25-.75,0,2,0,4,.06,6l-7.53-.06-8.76-.13-17.5-.29c-5.11,0-2.9.92-9.34.5l1.82-.33c-10.31.39-21.09,0-31.19.32a6.52,6.52,0,0,1,1.61-.17,41.44,41.44,0,0,0-7.93.18c-1.57,0-.36-.18-1.33-.28-2.14-.14-5.37.31-6.51.07-.19,0,.6-.08,1-.1-1.39.12-6.49,0-5.16.25-3.79-.13-7.25.13-10.27,0-2,.31-6.49-.15-7.12.29.27-.45-6.64-.36-9-.15.8-.14-2.08-.14-1.14-.33-2.74,0-5.25.09-4.77.32-5-.54-10.13.44-13-.26-8.13.24-15.65.41-23,.52.27-.46,8.08,0,7.77-.52-6.93.18-10.93.57-17.81.46-1.78-.06,1-.19,1.61-.27-6.92.18-13.39,0-19.55.2a7.62,7.62,0,0,1,1.31-.12c-1.22,0-2.83-.07-2.69.14l1.18-.06c1.94.3-4.82.63-5,.78,2.07-.59-6.08-.15-2.81-.89-.8,0-1.8.14-1.62.28-1.18,0-1.56-.12-.36-.28-4.35.11-2.8.33-6.75.32,0-.1.81-.13,1.22-.25a52.7,52.7,0,0,1-7.33.3c.2-.06-.19-.13.81-.13-5.72,0-9.75.51-16,.33,1.85-.44-2.14-.15-2.47-.52l-3.37.11,1.35.18c-3,0-5.57.27-8.11.15l2.2-.16-5.54.07,3.13.14c-3,.2.32.48-3.61.37.8,0-3,0-4.5-.22h0a38,38,0,0,1-5.15.15c-.57-.12.45-.41.08-.49-1.44.31-6.92.08-8.75.42.61-.08.65-.28.44-.32l-1.21.25c-1.37-.08-1.57-.12-1.34-.27-4.12,0,1.3.47-3.58.27.38,0,.2-.06,1-.1-4.92-.11-9.49.16-14,0-1.34-.38,3.94-.1,2.41-.41-6.5.07-13.47.45-19.76.36l1.17,0c-.87.53-4.69-.26-7.87,0,.78,0,1-.3.81-.24-4.31-.08-8.81.13-15.35.3l.81-.14c-2.54-.12-6.69-.07-9.43-.13-.82.14-2.39.12-1.43.31-8.47-.77-16.15.42-23.65-.23.89,0,2.14-.11,1.42-.12l-6.39.13a8.64,8.64,0,0,0,2.18.32,31.56,31.56,0,0,1-4.2.24c2.87-.15,0-.37-1.27-.5.21.07-.22.15-.11.22-3.34-.41-.56.47-5.12.19l.24-.12c-1.71.06-3.28.22-5.12.19-.77-.27,1.81-.13,1.93-.35-2.58,0-5.1.51-7.44.24,1.1-.07,2.68-.07,3.78-.15a33.72,33.72,0,0,0-4.74-.28h.18l-4.37-.14,1.11.08A19.38,19.38,0,0,1,7,76.21l-3.69,0c0-.43,0-.87,0-1.37s-.07-1.14-.14-1.74c.11,1,.18,1.66.23,1.87s.07.17.1.05.07-1.08.23-.9c.08-1.11.17-2.8.26-2.32-.25-2.06.19-3.44-.17-6.35.1-.13,0-2.2.26-1.74-.08-2.68-.17.64-.29.41-.34-4.13.4-9.7-.06-15.64-.18-5.12-.51-6.07-.68-10.82.16-1.61.36,1.31.36,1.31a64.8,64.8,0,0,0,0-7c.09.49.16,0,.27-.76,0-2-.36-1.31-.21-3.89a12.92,12.92,0,0,1,.39,2c-.12-2.31-.24-4.59-.36-7,.17-.63.26,1.45.37,2.29a67.63,67.63,0,0,0-.42-7.78l-.1,1.72c0-1,.23-.5.28.22.21,2.3-.09,3.31-.19,3.44l-.06-1.7c-.58,1.75.09,6.83.06,10.25L3,29.37l.34,3.51c-.1.74-.34,1.25-.4-.44-.2,2.46.15,2.18-.08,4.28,0,.24-.06.13-.07-.08L2.89,39c-.09-.47-.29.4-.23-1.07-.24,4.3.31,6.94,0,8.56l0-.36c.14,6,.31.57.66,5.05l-.75,3,.31.58c0,.62,0,1.84-.16,1.61.21,2.29.13-.39.33.94-.28,3,.13,8.18-.36,8.84.24,1.07.18-2.83.34.33-.52.91.09,3.66-.15,6.37-.27-.83-.12-3.4-.36-.69a7.67,7.67,0,0,1,.18,1.88c0,.66,0,1.77-.09,2.89l2.2.09c.55,0,1.08,0,1.55,0,.1-.36,5-.15,8.8-.27-.25.12,7.21.2,10.77.33l-.1.06c.69-.36,4.37-.29,7.05-.37-.11.22-.59.31-2,.4h2.52a18.26,18.26,0,0,1,3-.22l-.63.28c3.35,0,6.74-.33,11.06-.14.24-.26-3.43-.72,1.13-.89.16.14.33.38-.86.43a17.46,17.46,0,0,1,2.18,0l-1.82.23c2,.1,1-.19,2.6-.17,0,.19,1.16.14.93.29-.4,0-1.37-.08-2,0a38.91,38.91,0,0,1,4.62.3c-.15-.11,0-.26,1.3-.29,3.35,0,1.14.24,3.1.34.81-.14,3,0,3-.29a4.57,4.57,0,0,1,1.54.22c1.74-.13,8.1,0,6.15-.35l-.45,0,.29,0h0c5.68-.29,11.81.17,17.45.05V77c3.36-.11,7.49-.06,9.9-.28,1,0,2.35.19,1.92.3a60.79,60.79,0,0,1,6.58,0c-2.59.17.89.15-2.65.13a56.51,56.51,0,0,0,7.69,0c-1.22.25,2.52.32,4.11.24l-2.35-.18c1.79,0,3.35,0,4.94,0l-.86.33c6.85.41,12.34-.69,17.55,0,1.81-.23-3.71-.16-2.09-.44,3.14.05,6.42.53,7.41.53,4.31.18,4-.49,8.53-.36-.57-.12-1.12-.44,2.25-.55,3.16,0,3.88.5,1.89.59-.76,0-1.12,0-1.09-.06-1,0-2.35.09-1.11.22l.41-.12c1.57.12,5.9.11,4.88.3,2.38-.11,1-.19-.74-.25,4,.17,6.31,0,10.47.12-.66-.07-1.27-.21-.62-.21,6.1.15,2.69-.22,6.82-.27,2.35.18-.84.43,3.32.28,2.54.12.54.31-.47.41,3.79-.23,7.08.15,9.25.19l-2,.1c1.2-.06,2.17-.06,3.17-.06l-1.14-.24a9.59,9.59,0,0,1,2.14.15c1.21-.16-.92-.4,1.48-.61,1.56.12,4.76-.13,5.3.18-4.92-.1.54.32-3.62.37.8,0,1.78,0,2.95,0,.18,0-.16.06-.48.08,4.7.28,2.16-.36,7-.35-.61.18,1.13.34,1.93.3-2,0-.94-.3.86-.43,3.13.14,3.4-.1,5-.09l-1.87-.06a29.1,29.1,0,0,1,4.37-.21c.19.13-2,.09-1.2.15,2.42-.31,5.47.33,8.84.12,1.56.12.15.33,1.53.41,3.78-.23,4.09.24,8.06.05-1.14-.24-1.34-.18,1.46-.41l-6.54.17,4.2-.35c-2,0-4.16.15-5.35.11,2-.19,1.8-.13.85-.33,2.7.36,5.35-.21,8.47,0l-.09.59c4.68.26,8.33-.3,14.41-.15l-1.95-.11c.81-.23,3.76,0,5.73-.12-.19.19,1.05.27,1.89.39-.1-.15,4.45,0,5-.38l2.71.26c4.92.1,5.61-.57,10.34-.5-1.42.22.72.36-2.44.51a13.57,13.57,0,0,0,3-.1c.92.12,4.38-.26,5.83-.08a10.15,10.15,0,0,1,2.65-.27c.19,0,0,.09,0,.09s2.78-.13,1.23-.35c4.86.62,13.58,0,17.81.49,3.45-.07,7.59-.13,10.72-.15-.2.06,0,.1-.6.08,4.31.18,2.65-.57,7.56-.36,2.5.32-2.61.17-1.05.29.68.65,5.93-.09,9.23.29l-.8,0c2.52.22,6.16-.25,10.28-.2,0,0-.2.06,0,.1,2.83-.33,8.16-.44,12.13-.53-1.23.25-1.8.13-1.05.39,1.78,0-.52-.42,3-.49,1.15.14,3.72.26,4.05.54h-3.34c1.71.36,4.33,0,6.09,0l-.22.16c5.13,0,5.2-.44,10.72-.42l-.57-.11c3-.39,2.52.21,5.53-.08l.91.4c2-.1,7-.38,10.53-.46-2,.3-6.19.45-8.77.62,2,0,6.69,0,7.72-.22a24.7,24.7,0,0,1-2.58.07,78.32,78.32,0,0,1,9.53-.46c-.23.25.79.36,2.36.41l2.68,0,3.8,0c0-.79,0-1.56,0-2.3,0-.51,0-1,.05-1.45a16.36,16.36,0,0,1,.22-2.1c-.28-7,.12-13.78.08-21.88-.6,2.87,0-2.36-.63-1.86a23.48,23.48,0,0,1,0-2.78l.36-5.71c.18-1.36.14,1.79.28,1.62,0-4.13.25-1.73.42-4.47-.22.56-.32-1.43-.23-3.78l-.28,3.31c-.33-5.77.51-5,.19-10.8l.19,1.84c-.12-3,0-11-.49-13.94.07-.53.24-1.22.28.09,0-1.52,0-3.1,0-4.72,0-2-.08-4-.12-6l-7.5.15c-2,0-3.87,0-5.46-.07l.54-.15a26.23,26.23,0,0,1-4,.13c.09-.06.54-.15-.08-.16a52.85,52.85,0,0,1-5.3.17l1.51-.16c-7-.2-10.68.41-16.51.51,0-.44-5.46-.59-8.19-.66l.09-.06c-8.1-.05-13.76.37-21.26.54-4.65-.48-15.77-.2-23.25-.47,1.14.08-.19.34-1.52.39-1.76-.09-4.86.3-4.58-.1h.63c-1.33-.4-4.93-.29-7.75-.3l-.47.52c-7.37-.76-19.31.29-23.33-.4-1.78.13-4,.13-5.75.26l.1-.28c-4.93-.07-7.39-.11-13.49,0L247.4,2c-3.44,0-4.34.82-7.51.84l-1-.42c-6,0-12.06-.37-18,0,.1-.06.27-.18,1.24-.2-2.82,0-10.91-.28-9.89.3-.07-.38-6.18,0-9.42.13l.5-.28a43,43,0,0,1-6.63.55c-.91,0-.8-.22.41-.15-3-.15-2.35.26-6,.11l1.36-.17A20.4,20.4,0,0,0,188,3a29.24,29.24,0,0,1-6.34-.33,14.57,14.57,0,0,1-3.94.29c-.25-.09.42-.15.75-.18-5.18-.19-7.7.32-11.27.05a1.07,1.07,0,0,0-.6-.17c4.12,0,7.43,0,7.12,0,0-.25-3.32-.3-.68-.65-2.67.19-7.23.61-10.48.49a2.5,2.5,0,0,1-.43-.09l.34,0c-.75,0-1.42,0-2,0-1,0-1.69-.07-2.69-.07a42,42,0,0,0-5.47-.13c.14.28-2,.24,0,.47a6.64,6.64,0,0,1,1.42,0l.7,0-.11,0,4.12,0a20.94,20.94,0,0,1-4.51.11c-.85.18-1.79.37-2.32.45-2.27-.39-6.64-.6-7.25-.84-5.07.15-11.93.1-15.12.63A5.79,5.79,0,0,1,127,2.75c.83,0,1.82,0,2.27-.12-2.88.14-8.53.06-9.22.43-3.63-.17,2-.34-3-.28l.68-.12c-9.82-.59-16,.95-26.83.19A6,6,0,0,1,92.18,3c-12.4-.34-25.55.31-37.79-.22a33.19,33.19,0,0,0-6,.31l-.76-.3L44,3.12c-5.14.25-8.91-.74-15.42-.26l.84.2c-2.34,0-7.42.12-7-.11a4.81,4.81,0,0,1-1.68.1l-.07-.16-5.75.28c-4.45-.12.7-.63-5.8-.66-2.42.06-6.89.46-6,.56a8.72,8.72,0,0,1,2.57.26L3.5,3.41c-.4.47-2.1.94,3.32,1.27L10.6,4.4l1.22.22-3.18,0a16.82,16.82,0,0,0,4.23-.11,6,6,0,0,0,1.59.25l3.71-.45c.45.19-1.67.37.83.47,1.73-.21-1.67-.41,1.21-.55a9.51,9.51,0,0,0,3.4.21c.3.12-.15.19-1,.24,1.89-.14,5-.06,6-.3,1.88.26,6.38-.07,6.19.37a46.22,46.22,0,0,1,5.07-.36c-3.18.52,6.49,0,5.66.59,2.34-.47,8.47-.21,12.63-.47a5.2,5.2,0,0,1-1,.09c2.34,0,3,.18,4.52.27.3-.39,3.95-.48,5.91-.72,2.87.37-1.74.46-.84.82-.15-.32,5-.32,4-.58a11.59,11.59,0,0,1,3,.44c.38-.49,2-.09,3.86-.39,3.17.24.82.46,4.3.31C83.54,4.92,80.44,5.1,80.44,5.1Zm82.94-.85h0l-1.71,0Zm7,0h-3c-.24-.09,0-.19.72-.19A12.42,12.42,0,0,0,170.35,4.24ZM155.61,2.3a5.07,5.07,0,0,1,1.62.07l-1.92,0-.14,0A1.19,1.19,0,0,1,155.61,2.3Z"/><path class="cls-1" d="M153.63,2.67l-.46,0,.66.06.39-.09Z"/><path class="cls-1" d="M68.67,76.92h.15a1.82,1.82,0,0,1-.31,0Z"/><polygon class="cls-1" points="266.6 4.78 266.59 4.71 265.98 4.77 266.6 4.78"/><path class="cls-1" d="M30.28,76a2.65,2.65,0,0,0-.5-.07A2.24,2.24,0,0,0,30.28,76Z"/><path class="cls-1" d="M13.7,75.89l-2.35-.1C12.37,75.85,13.11,75.87,13.7,75.89Z"/><path class="cls-1" d="M3.81,74.39a.69.69,0,0,0-.12-.25v0Z"/><path class="cls-1" d="M203.67,75.42h.49C205.31,75.35,204.53,75.37,203.67,75.42Z"/><path class="cls-1" d="M143.34,76.08l1.94-.14C144.21,75.92,143.37,75.92,143.34,76.08Z"/><path class="cls-1" d="M271,75.08h0Z"/><path class="cls-1" d="M148.09,76c-1.08-.06-2,0-2.81,0C146.16,76,147.2,76,148.09,76Z"/><path class="cls-1" d="M3.93,19.13v-.61s0,0,0-.08Z"/><path class="cls-1" d="M3.9,18.44l0-.68A3.61,3.61,0,0,0,3.9,18.44Z"/><path class="cls-1" d="M3.8,16.33l.07,1.43A7.65,7.65,0,0,0,3.8,16.33Z"/><path class="cls-1" d="M3.8,36l.11.19C3.88,36.1,3.85,36,3.8,36Z"/><path class="cls-1" d="M3.83,41.14c0-1.22.22-3.07.16-4.78l-.08-.16C4.06,37,3.66,40,3.83,41.14Z"/><path class="cls-1" d="M2.57,62.55l.08-4.3C2.55,59,2.4,60,2.37,58,2.05,63.45,2.62,56.92,2.57,62.55Z"/><path class="cls-1" d="M2.42,76.27c0-1.61-.07-1.6-.11-1.21s-.08,1.27-.11,1.2c0,.44,0,.81,0,1,1,0,1.12-.08.12-.13C2.38,77,2.39,76.7,2.42,76.27Z"/><path class="cls-1" d="M98.74,77.14l-.23.26C100.29,77.36,98.52,77.3,98.74,77.14Z"/><polygon class="cls-1" points="117.15 75.82 115.42 75.66 114.59 75.9 117.15 75.82"/><polygon class="cls-1" points="128.02 77.64 127.25 77.68 130.22 77.59 128.02 77.64"/><path class="cls-1" d="M289.77,77.55l-.54-.31C288,77.29,287.78,77.65,289.77,77.55Z"/><path class="cls-1" d="M359.6,77.23a15.58,15.58,0,0,0,3.94.1C362,77.31,360.4,77.19,359.6,77.23Z"/><polygon class="cls-1" points="285.12 2.26 286.52 2.15 283.88 2.24 285.12 2.26"/><path class="cls-2" d="M55.76,28.12l-.3,3.29H54.7c-.11-.42-.22-.79-.32-1.1a1.71,1.71,0,0,0-.48-.76A2.13,2.13,0,0,0,53,29.1,7.16,7.16,0,0,0,51.31,29V47.67a15.14,15.14,0,0,0,.1,1.95,5.75,5.75,0,0,0,.26,1.24,2.21,2.21,0,0,0,.37.87h-5a3.56,3.56,0,0,0,.37-.87c.08-.31.17-.72.25-1.24a14.91,14.91,0,0,0,.11-1.95V29a7.16,7.16,0,0,0-1.66.15,2.13,2.13,0,0,0-.93.45,1.71,1.71,0,0,0-.48.76c-.1.31-.21.68-.32,1.1h-.77l-.29-3.29Z"/><path class="cls-2" d="M69.3,48a13.25,13.25,0,0,0,.83,2.28,3.1,3.1,0,0,0,1.16,1.25,2.87,2.87,0,0,1-1.11.4,6.61,6.61,0,0,1-1,.1,3.75,3.75,0,0,1-2.08-.72,3.37,3.37,0,0,1-1.22-2l-2-9.91a3,3,0,0,1-1.69-.63v8.94a15.14,15.14,0,0,0,.1,1.95,5.75,5.75,0,0,0,.26,1.24,2.21,2.21,0,0,0,.37.87h-5a3,3,0,0,0,.37-.87,10.25,10.25,0,0,0,.25-1.24,14.91,14.91,0,0,0,.11-1.95V32.18a14.91,14.91,0,0,0-.11-1.95A10.48,10.48,0,0,0,58.26,29a3.06,3.06,0,0,0-.37-.86h5.89a9,9,0,0,1,2.41.3,4.83,4.83,0,0,1,1.86.95A4.34,4.34,0,0,1,69.27,31a6.72,6.72,0,0,1,.43,2.53,6.08,6.08,0,0,1-1.17,3.86,5,5,0,0,1-3.29,1.86,5.47,5.47,0,0,1,.8.47,4.9,4.9,0,0,1,.85.76,5.76,5.76,0,0,1,.76,1.12,5.94,5.94,0,0,1,.55,1.51ZM62.51,37.8a1.2,1.2,0,0,0,.52.51,1.77,1.77,0,0,0,.95.25,1.51,1.51,0,0,0,1.09-.4,2.71,2.71,0,0,0,.69-1.06,6.65,6.65,0,0,0,.33-1.58c0-.61.08-1.25.08-1.91a7.13,7.13,0,0,0-.28-2.18A4.1,4.1,0,0,0,65.14,30a2.83,2.83,0,0,0-1-.8A2.8,2.8,0,0,0,63,29h-.8v5.92a1.5,1.5,0,0,1,.6-.37,1.82,1.82,0,0,1,.73-.1,1.66,1.66,0,0,1,.66.22,1.2,1.2,0,0,1,.47.58,1.73,1.73,0,0,0-1,.1,1.87,1.87,0,0,0-.79.58,2.14,2.14,0,0,0-.4.88A2,2,0,0,0,62.51,37.8Z"/><path class="cls-2" d="M83.53,51.73H72.29a3.69,3.69,0,0,0,.37-.87c.08-.31.17-.72.25-1.24A14.91,14.91,0,0,0,73,47.67V32.18a14.91,14.91,0,0,0-.11-1.95c-.08-.52-.17-.94-.25-1.25a3.78,3.78,0,0,0-.37-.86H83.2l-.3,3.29h-.77c-.11-.44-.22-.82-.33-1.13a1.87,1.87,0,0,0-.5-.77,2.14,2.14,0,0,0-1-.43A9,9,0,0,0,78.58,29h-2v7.22a14,14,0,0,0,1.83,0c.55-.05,1-.09,1.43-.14A10.88,10.88,0,0,0,81,35.8a2.9,2.9,0,0,1,0,.43,3.41,3.41,0,0,1-.17.93,1,1,0,0,1-.73.65,2.07,2.07,0,0,1-1.13,0l-2.49-.7V49.47a1.27,1.27,0,0,0,.08.42,1.58,1.58,0,0,0,.3.48,1.64,1.64,0,0,0,.61.38,3,3,0,0,0,1,.15h1.16A2.43,2.43,0,0,0,81,50.62a2.21,2.21,0,0,0,.75-.77,4.14,4.14,0,0,0,.43-1.06c.1-.39.21-.79.32-1.18h.76Z"/><path class="cls-2" d="M93.47,51.73a3.64,3.64,0,0,0,.3-.77,5.5,5.5,0,0,0,.15-1,4.87,4.87,0,0,0-.11-1.41l-1.57-8.11H88.79L86.59,50a2.83,2.83,0,0,0-.07.63v.56a5.1,5.1,0,0,0,0,.57h-1.8a3.34,3.34,0,0,0,.3-.53,5.32,5.32,0,0,0,.25-.62c.08-.23.16-.49.25-.78l4.62-20a11.33,11.33,0,0,0-.43-1.26l-.2-.4h3.83l2.06,10.57L97.5,49.27a5.3,5.3,0,0,0,.26,1c.12.3.23.56.34.78a4.67,4.67,0,0,0,.36.67ZM92,39.39l-1.39-7.15L89,39.39Z"/><path class="cls-2" d="M110.47,28.12l-.3,3.29h-.77c-.11-.42-.21-.79-.31-1.1a1.71,1.71,0,0,0-.48-.76,2.23,2.23,0,0,0-.94-.45A7.1,7.1,0,0,0,106,29V47.67a15.14,15.14,0,0,0,.1,1.95,6.34,6.34,0,0,0,.27,1.24,2.37,2.37,0,0,0,.36.87h-5a3.56,3.56,0,0,0,.37-.87,10.25,10.25,0,0,0,.25-1.24,13.17,13.17,0,0,0,.12-1.95V29a7.25,7.25,0,0,0-1.67.15,2.13,2.13,0,0,0-.93.45,1.71,1.71,0,0,0-.48.76c-.1.31-.2.68-.32,1.1h-.76L98,28.12Z"/><path class="cls-2" d="M127.69,28.12l-.3,3.26h-.76a11.69,11.69,0,0,0-.33-1.13,1.74,1.74,0,0,0-.5-.75,2.19,2.19,0,0,0-1-.42,9,9,0,0,0-1.76-.13h-2v7.18a14.17,14.17,0,0,0,1.83,0c.55,0,1-.07,1.43-.12a10.09,10.09,0,0,0,1.23-.23,3.46,3.46,0,0,1,0,.43,3.41,3.41,0,0,1-.16.9,1,1,0,0,1-.73.65,2.07,2.07,0,0,1-1.13,0l-2.5-.7V47.77a16.05,16.05,0,0,0,.1,1.91,9.05,9.05,0,0,0,.24,1.22,2.06,2.06,0,0,0,.36.83h-4.92a2.86,2.86,0,0,0,.33-.83,10.66,10.66,0,0,0,.25-1.22,12,12,0,0,0,.12-1.87V32.14a12.88,12.88,0,0,0-.12-1.93,10.45,10.45,0,0,0-.25-1.23,2.86,2.86,0,0,0-.33-.86Z"/><path class="cls-2" d="M142.49,28.75a2.48,2.48,0,0,0-.21.65,3.33,3.33,0,0,0-.09.78c0,1,0,1.86,0,2.64s0,1.69,0,2.7V47a6,6,0,0,1-.33,2,5.35,5.35,0,0,1-.94,1.63,4.37,4.37,0,0,1-1.47,1.1,4.62,4.62,0,0,1-1.93.4h-.33a7.79,7.79,0,0,1-4.81-1.32,4.6,4.6,0,0,1-1.73-3.91V32.18a12.79,12.79,0,0,0-.12-1.93,8.73,8.73,0,0,0-.25-1.23,4,4,0,0,0-.36-.9h5a2.52,2.52,0,0,0-.37.9,5.17,5.17,0,0,0-.27,1.23,14.47,14.47,0,0,0-.11,1.93V46.74a9.37,9.37,0,0,0,.15,1.73,4,4,0,0,0,.5,1.36,2.67,2.67,0,0,0,.93.9,2.84,2.84,0,0,0,1.42.33h.33a3.3,3.3,0,0,0,2.64-1.19,3.89,3.89,0,0,0,.74-1.3,5.11,5.11,0,0,0,.24-1.6V30.21a3.61,3.61,0,0,0-.09-.84,6,6,0,0,0-.19-.65,4.17,4.17,0,0,0-.28-.6h2.26A6.09,6.09,0,0,0,142.49,28.75Z"/><path class="cls-2" d="M156.33,48a12.46,12.46,0,0,0,.83,2.28,3,3,0,0,0,1.16,1.25,2.87,2.87,0,0,1-1.11.4,6.72,6.72,0,0,1-1,.1,3.77,3.77,0,0,1-2.08-.72,3.41,3.41,0,0,1-1.21-2l-2-9.91a3,3,0,0,1-1.69-.63v8.94a15.14,15.14,0,0,0,.1,1.95,5.75,5.75,0,0,0,.26,1.24,2.21,2.21,0,0,0,.37.87h-5a3.69,3.69,0,0,0,.37-.87,10.55,10.55,0,0,0,.24-1.24,13.17,13.17,0,0,0,.12-1.95V32.18a13.17,13.17,0,0,0-.12-1.95,10.78,10.78,0,0,0-.24-1.25,3.78,3.78,0,0,0-.37-.86h5.88a9.06,9.06,0,0,1,2.42.3,4.83,4.83,0,0,1,1.86.95A4.32,4.32,0,0,1,156.29,31a6.53,6.53,0,0,1,.43,2.53,6.08,6.08,0,0,1-1.16,3.86,5,5,0,0,1-3.29,1.86,5.47,5.47,0,0,1,.8.47,4.85,4.85,0,0,1,.84.76,5.37,5.37,0,0,1,.77,1.12,5.94,5.94,0,0,1,.55,1.51Zm-6.79-10.2a1.2,1.2,0,0,0,.52.51,1.74,1.74,0,0,0,.94.25,1.54,1.54,0,0,0,1.1-.4,2.59,2.59,0,0,0,.68-1.06,6.17,6.17,0,0,0,.34-1.58c0-.61.08-1.25.08-1.91a7.13,7.13,0,0,0-.28-2.18,4.1,4.1,0,0,0-.75-1.43A2.88,2.88,0,0,0,150,29h-.79v5.92a1.53,1.53,0,0,1,.59-.37,1.89,1.89,0,0,1,.74-.1,1.66,1.66,0,0,1,.66.22,1.2,1.2,0,0,1,.47.58,1.76,1.76,0,0,0-1,.1,1.91,1.91,0,0,0-.78.58,2.14,2.14,0,0,0-.4.88A2,2,0,0,0,149.54,37.8Z"/><path class="cls-2" d="M171.92,28.75a2.48,2.48,0,0,0-.21.65,3.33,3.33,0,0,0-.09.78c0,1,0,1.86,0,2.64s0,1.69,0,2.7V47a6,6,0,0,1-.33,2,5.35,5.35,0,0,1-.94,1.63,4.37,4.37,0,0,1-1.47,1.1,4.62,4.62,0,0,1-1.93.4h-.33a7.79,7.79,0,0,1-4.81-1.32,4.6,4.6,0,0,1-1.73-3.91V32.18a12.79,12.79,0,0,0-.12-1.93,8.73,8.73,0,0,0-.25-1.23,4,4,0,0,0-.36-.9h5a2.52,2.52,0,0,0-.37.9,5.17,5.17,0,0,0-.27,1.23,14.47,14.47,0,0,0-.11,1.93V46.74a9.37,9.37,0,0,0,.15,1.73,4,4,0,0,0,.5,1.36,2.67,2.67,0,0,0,.93.9,2.84,2.84,0,0,0,1.42.33h.33a3.3,3.3,0,0,0,2.64-1.19,3.89,3.89,0,0,0,.74-1.3,5.11,5.11,0,0,0,.25-1.6V30.21a3.58,3.58,0,0,0-.1-.84,6,6,0,0,0-.19-.65,4.17,4.17,0,0,0-.28-.6h2.26A6.09,6.09,0,0,0,171.92,28.75Z"/><path class="cls-2" d="M187.05,28.12a4.2,4.2,0,0,0-.3.6,2.32,2.32,0,0,0-.21.63,3.32,3.32,0,0,0-.09.8V51.73h-1.06l-9.18-19.49V49.7a3.94,3.94,0,0,0,.08.8,5.35,5.35,0,0,0,.19.63,4.2,4.2,0,0,0,.3.6h-2.23a4.2,4.2,0,0,0,.3-.6c.06-.18.13-.39.2-.65a3.6,3.6,0,0,0,.1-.85V31.78A14.12,14.12,0,0,0,175,30a9.06,9.06,0,0,0-.25-1.11,2.33,2.33,0,0,0-.33-.77h3.65l7.32,15.37V30.21a3.12,3.12,0,0,0-.1-.84,5.78,5.78,0,0,0-.2-.65q-.14-.33-.27-.6Z"/><path class="cls-2" d="M197.06,45.68a1.31,1.31,0,0,1,.85-.32,2.59,2.59,0,0,1,1.16.18,2.51,2.51,0,0,1,1,.82,2.58,2.58,0,0,1,.44,1.58,4.87,4.87,0,0,1-.19,1.3,4,4,0,0,1-.72,1.33,3.76,3.76,0,0,1-1.45,1,5.85,5.85,0,0,1-2.39.42,7.62,7.62,0,0,1-2.61-.4,5.83,5.83,0,0,1-1.88-1.08,4.51,4.51,0,0,1-1.15-1.6,5.08,5.08,0,0,1-.38-1.94V32.81a5.1,5.1,0,0,1,.38-2,4.39,4.39,0,0,1,1.15-1.59,5.67,5.67,0,0,1,1.88-1.09,7.88,7.88,0,0,1,2.61-.39,6.83,6.83,0,0,1,2.74.46,4.44,4.44,0,0,1,1.63,1.15,3.7,3.7,0,0,1,.8,1.46,5.68,5.68,0,0,1,.22,1.45,4.22,4.22,0,0,1-.34,1.78,3.72,3.72,0,0,1-.84,1.23,3.47,3.47,0,0,1-1.12.71,3,3,0,0,1-1.1.24,4.37,4.37,0,0,1-1.18-.17,3.48,3.48,0,0,1-1-.47,2.34,2.34,0,0,1-.68-.69,1.55,1.55,0,0,1-.25-.84,2.92,2.92,0,0,0,2.19-.11,2.7,2.7,0,0,0,1.5-1.52,2.62,2.62,0,0,0,.2-1.09,3.14,3.14,0,0,0-.28-1.28,2.73,2.73,0,0,0-.87-1.05,2.51,2.51,0,0,0-1.54-.43,2.74,2.74,0,0,0-1.24.26,2.43,2.43,0,0,0-1.21,1.53,3.39,3.39,0,0,0-.12.83V48.57a3.39,3.39,0,0,0,.12.83,2.5,2.5,0,0,0,.42.87,2.46,2.46,0,0,0,.79.66,2.61,2.61,0,0,0,1.24.27,2.51,2.51,0,0,0,1.91-.77,3.15,3.15,0,0,0,.85-1.73,3.1,3.1,0,0,0-.24-1.93A2.45,2.45,0,0,0,197.06,45.68Z"/><path class="cls-2" d="M214.12,51.73H202.88a3,3,0,0,0,.37-.87,10.25,10.25,0,0,0,.25-1.24,14.91,14.91,0,0,0,.11-1.95V32.18a14.91,14.91,0,0,0-.11-1.95,10.48,10.48,0,0,0-.25-1.25,3.06,3.06,0,0,0-.37-.86h5a2.22,2.22,0,0,0-.37.86,5.86,5.86,0,0,0-.26,1.25,15.14,15.14,0,0,0-.1,1.95V49.47a1.46,1.46,0,0,0,.08.41,1.51,1.51,0,0,0,.3.49,1.68,1.68,0,0,0,.62.38,3,3,0,0,0,1,.15h1.16a2.43,2.43,0,0,0,1.23-.28,2.24,2.24,0,0,0,.75-.75,4.16,4.16,0,0,0,.45-1l.33-1.18h.77Z"/><path class="cls-2" d="M227.29,51.73H216.05a3.69,3.69,0,0,0,.37-.87c.08-.31.17-.72.25-1.24a14.91,14.91,0,0,0,.11-1.95V32.18a14.91,14.91,0,0,0-.11-1.95c-.08-.52-.17-.94-.25-1.25a3.78,3.78,0,0,0-.37-.86H227l-.3,3.29h-.77c-.11-.44-.22-.82-.33-1.13a1.87,1.87,0,0,0-.5-.77,2.14,2.14,0,0,0-1-.43,9,9,0,0,0-1.76-.13h-2v7.22a14,14,0,0,0,1.83,0c.55-.05,1-.09,1.43-.14a10.88,10.88,0,0,0,1.23-.23,2.9,2.9,0,0,1,0,.43,3.41,3.41,0,0,1-.17.93,1,1,0,0,1-.73.65,2.07,2.07,0,0,1-1.13,0l-2.49-.7V49.47a1.27,1.27,0,0,0,.08.42,1.41,1.41,0,0,0,.3.48,1.64,1.64,0,0,0,.61.38,3,3,0,0,0,1,.15h1.16a2.43,2.43,0,0,0,1.23-.28,2.21,2.21,0,0,0,.75-.77,4.14,4.14,0,0,0,.43-1.06c.1-.39.21-.79.32-1.18H227Z"/><path class="cls-2" d="M241.46,51.73a3.64,3.64,0,0,0,.3-.77,8.24,8.24,0,0,0,.15-1,5.31,5.31,0,0,0-.12-1.41l-1.56-8.11h-3.46L234.57,50a3.52,3.52,0,0,0-.06.63v.56a5.17,5.17,0,0,0,0,.57h-1.8a2.28,2.28,0,0,0,.3-.53,5.32,5.32,0,0,0,.25-.62c.08-.23.16-.49.25-.78l4.62-20a9.54,9.54,0,0,0-.43-1.26l-.2-.4h3.83l2.06,10.57,2.06,10.58a6.14,6.14,0,0,0,.27,1,7.64,7.64,0,0,0,.33.78,3.88,3.88,0,0,0,.37.67ZM240,39.39l-1.4-7.15L237,39.39Z"/><path class="cls-2" d="M260.64,28.12a3.34,3.34,0,0,0-.29.6,2.32,2.32,0,0,0-.22.63,3.34,3.34,0,0,0-.08.8V51.73H259L249.8,32.24V49.7a3.32,3.32,0,0,0,.09.8,4,4,0,0,0,.18.63,4.2,4.2,0,0,0,.3.6h-2.23a4.2,4.2,0,0,0,.3-.6,6.51,6.51,0,0,0,.2-.65,3.15,3.15,0,0,0,.1-.85V31.78a12.41,12.41,0,0,0-.15-1.75,9.06,9.06,0,0,0-.25-1.11,2.33,2.33,0,0,0-.33-.77h3.66L259,43.52V30.21a3.12,3.12,0,0,0-.1-.84,4.25,4.25,0,0,0-.2-.65c-.09-.22-.17-.42-.26-.6Z"/><path class="cls-2" d="M269.76,28.12a5.56,5.56,0,0,1,2.28.46,5.67,5.67,0,0,1,1.81,1.28,5.93,5.93,0,0,1,1.19,1.9,6.13,6.13,0,0,1,.44,2.31V45.78a6.13,6.13,0,0,1-.44,2.31A5.78,5.78,0,0,1,273.85,50a5.55,5.55,0,0,1-4.09,1.75h-6.95a3.35,3.35,0,0,0,.36-.87,10.25,10.25,0,0,0,.25-1.24,13.17,13.17,0,0,0,.12-1.95V32.18a13.17,13.17,0,0,0-.12-1.95,10.48,10.48,0,0,0-.25-1.25,3.41,3.41,0,0,0-.36-.86ZM272,34.07a9.11,9.11,0,0,0-.15-1.48,5.26,5.26,0,0,0-.6-1.69A4.19,4.19,0,0,0,270,29.51a3.39,3.39,0,0,0-2-.56h-.9V47.21a3.25,3.25,0,0,1,.67-.34,2.46,2.46,0,0,1,1.08,0,.94.94,0,0,1,.71.7,1.82,1.82,0,0,0-1,.1,2,2,0,0,0-.78.58,2.12,2.12,0,0,0-.4.89,1.71,1.71,0,0,0,.13,1,1.15,1.15,0,0,0,.49.5,1.73,1.73,0,0,0,.91.23h.26a1.69,1.69,0,0,0,1.27-.57,4.54,4.54,0,0,0,.88-1.38,8.94,8.94,0,0,0,.52-1.69,8.24,8.24,0,0,0,.16-1.48Z"/><path class="cls-2" d="M285.45,31.88a4.62,4.62,0,0,0,.67,2.44,13.37,13.37,0,0,0,1.64,2.18c.66.71,1.37,1.41,2.13,2.09A22.91,22.91,0,0,1,292,40.76a12.17,12.17,0,0,1,1.65,2.44,6.38,6.38,0,0,1,.66,2.91A7.19,7.19,0,0,1,292.79,51a5.88,5.88,0,0,1-4.64,1.76,8,8,0,0,1-2.25-.32,5.63,5.63,0,0,1-1.91-1,4.81,4.81,0,0,1-1.33-1.6,4.68,4.68,0,0,1-.5-2.21,4.89,4.89,0,0,1,.38-2,4.49,4.49,0,0,1,.95-1.39,3.74,3.74,0,0,1,1.25-.83,3.26,3.26,0,0,1,1.24-.29,3.72,3.72,0,0,1,2.6.75,2.3,2.3,0,0,1,.8,1.71,3.28,3.28,0,0,0-1.25-.15,4,4,0,0,0-1.21.3,3.31,3.31,0,0,0-1,.69A3,3,0,0,0,285,49a3.36,3.36,0,0,0,.46,1.41,3.17,3.17,0,0,0,1,1,2.83,2.83,0,0,0,1.52.4,3.79,3.79,0,0,0,1.61-.32,3.52,3.52,0,0,0,1.13-.81,3,3,0,0,0,.65-1.13,4.16,4.16,0,0,0,.2-1.23,5.74,5.74,0,0,0-.67-2.78,11.61,11.61,0,0,0-1.66-2.36A28,28,0,0,0,287.13,41,28.34,28.34,0,0,1,285,38.81a12.53,12.53,0,0,1-1.66-2.44,6.31,6.31,0,0,1-.66-2.9,6.24,6.24,0,0,1,.45-2.39,5.49,5.49,0,0,1,1.26-1.9,5.65,5.65,0,0,1,2-1.24,6.83,6.83,0,0,1,2.51-.45,5.82,5.82,0,0,1,2.51.48A5.06,5.06,0,0,1,293,29.15a4.67,4.67,0,0,1,1.2,3,4.51,4.51,0,0,1-.35,1.84,4,4,0,0,1-.88,1.28,3.63,3.63,0,0,1-1.14.75,2.82,2.82,0,0,1-1.13.25,4.07,4.07,0,0,1-1.21-.18,3.91,3.91,0,0,1-1-.48,2.67,2.67,0,0,1-.72-.7,1.61,1.61,0,0,1-.26-.87,2.53,2.53,0,0,0,1.16.15,3.24,3.24,0,0,0,1.12-.28,3.19,3.19,0,0,0,.93-.63,2.59,2.59,0,0,0,.61-.93,2.45,2.45,0,0,0,.19-1.12,3.73,3.73,0,0,0-.3-1.31,3,3,0,0,0-.87-1.1,2.46,2.46,0,0,0-1.58-.46,2.91,2.91,0,0,0-1.39.31,3.4,3.4,0,0,0-1.65,1.95A3.82,3.82,0,0,0,285.45,31.88Z"/><path class="cls-2" d="M302.55,27.82a6.14,6.14,0,0,1,2.26.4,5.51,5.51,0,0,1,1.78,1.08,4.78,4.78,0,0,1,1.54,3.54V47a4.55,4.55,0,0,1-.43,2,5,5,0,0,1-1.18,1.58,5.92,5.92,0,0,1-1.78,1.06,6.05,6.05,0,0,1-2.23.4,6.28,6.28,0,0,1-2.28-.4,6.21,6.21,0,0,1-1.81-1.06,4.88,4.88,0,0,1-1.2-1.58,4.7,4.7,0,0,1-.43-2V32.84a4.29,4.29,0,0,1,.45-1.94,5,5,0,0,1,1.23-1.6,5.75,5.75,0,0,1,1.83-1.08A6.2,6.2,0,0,1,302.55,27.82Zm2.06,4.92a2,2,0,0,1-1.13.4,3.29,3.29,0,0,1-1.15-.28,1,1,0,0,1-.58-.92,2,2,0,0,0,2-.19,1.81,1.81,0,0,0,.56-.79,1.91,1.91,0,0,0,0-1.09V29.8a2.54,2.54,0,0,0-.63-.8,1.73,1.73,0,0,0-1.16-.35,2,2,0,0,0-1.09.27,2.25,2.25,0,0,0-.68.66,2.5,2.5,0,0,0-.36.86,3.94,3.94,0,0,0-.1.87v17.3a3.8,3.8,0,0,0,.1.83,2.4,2.4,0,0,0,.35.86,2.14,2.14,0,0,0,.66.68,2.24,2.24,0,0,0,2.13,0,2,2,0,0,0,.65-.67,2.53,2.53,0,0,0,.31-.86,4.59,4.59,0,0,0,.09-.87Z"/><path class="cls-2" d="M322.13,48a14.16,14.16,0,0,0,.83,2.28,3.13,3.13,0,0,0,1.17,1.25,2.86,2.86,0,0,1-1.12.4,6.61,6.61,0,0,1-1,.1,3.77,3.77,0,0,1-2.08-.72,3.36,3.36,0,0,1-1.21-2l-2-9.91a3,3,0,0,1-1.7-.63v8.94a17.2,17.2,0,0,0,.1,1.95,6.34,6.34,0,0,0,.27,1.24,2.37,2.37,0,0,0,.36.87h-5a3.35,3.35,0,0,0,.36-.87,10.25,10.25,0,0,0,.25-1.24,13.17,13.17,0,0,0,.12-1.95V32.18a13.17,13.17,0,0,0-.12-1.95,10.48,10.48,0,0,0-.25-1.25,3.41,3.41,0,0,0-.36-.86h5.88a9,9,0,0,1,2.41.3,4.87,4.87,0,0,1,1.87.95A4.32,4.32,0,0,1,322.1,31a6.53,6.53,0,0,1,.43,2.53,6.14,6.14,0,0,1-1.16,3.86,5.05,5.05,0,0,1-3.29,1.86,5.35,5.35,0,0,1,1.64,1.23,5.78,5.78,0,0,1,.77,1.12,6.34,6.34,0,0,1,.55,1.51Zm-6.78-10.2a1.23,1.23,0,0,0,.51.51,1.8,1.8,0,0,0,.95.25,1.54,1.54,0,0,0,1.1-.4,2.59,2.59,0,0,0,.68-1.06,5.79,5.79,0,0,0,.33-1.58c.06-.61.09-1.25.09-1.91a7.1,7.1,0,0,0-.29-2.18A3.93,3.93,0,0,0,318,30a2.88,2.88,0,0,0-2.2-1.05H315v5.92a1.65,1.65,0,0,1,.6-.37,1.87,1.87,0,0,1,.73-.1,1.66,1.66,0,0,1,.67.22,1.19,1.19,0,0,1,.46.58,1.74,1.74,0,0,0-1,.1,1.91,1.91,0,0,0-.78.58,2.14,2.14,0,0,0-.4.88A1.88,1.88,0,0,0,315.35,37.8Z"/><path class="cls-2" d="M336.37,51.73H325.13a3.35,3.35,0,0,0,.36-.87,10.25,10.25,0,0,0,.25-1.24,13.17,13.17,0,0,0,.12-1.95V32.18a13.17,13.17,0,0,0-.12-1.95,10.48,10.48,0,0,0-.25-1.25,3.41,3.41,0,0,0-.36-.86H336l-.3,3.29H335c-.11-.44-.22-.82-.33-1.13a1.87,1.87,0,0,0-.5-.77,2.19,2.19,0,0,0-1-.43,8.89,8.89,0,0,0-1.76-.13h-2v7.22a13.94,13.94,0,0,0,1.83,0c.56-.05,1-.09,1.43-.14a10.09,10.09,0,0,0,1.23-.23,2.86,2.86,0,0,1,0,.43,3.41,3.41,0,0,1-.17.93,1,1,0,0,1-.73.65,2.07,2.07,0,0,1-1.13,0l-2.5-.7V49.47a1.32,1.32,0,0,0,.09.42,1.27,1.27,0,0,0,.3.48,1.56,1.56,0,0,0,.61.38,3,3,0,0,0,1,.15h1.17a2.46,2.46,0,0,0,1.23-.28,2.1,2.1,0,0,0,.74-.77,4.16,4.16,0,0,0,.44-1.06c.1-.39.2-.79.31-1.18h.77Z"/><path class="cls-2" d="M341.79,31.88a4.7,4.7,0,0,0,.66,2.44,13.45,13.45,0,0,0,1.65,2.18,28.16,28.16,0,0,0,2.13,2.09,24.06,24.06,0,0,1,2.12,2.17A11.39,11.39,0,0,1,350,43.2a6.39,6.39,0,0,1,.67,2.91A7.19,7.19,0,0,1,349.12,51a5.86,5.86,0,0,1-4.64,1.76,7.93,7.93,0,0,1-2.24-.32,5.68,5.68,0,0,1-1.92-1,4.93,4.93,0,0,1-1.33-1.6,4.68,4.68,0,0,1-.5-2.21,4.73,4.73,0,0,1,.39-2,4.33,4.33,0,0,1,.95-1.39,3.7,3.7,0,0,1,1.24-.83,3.3,3.3,0,0,1,1.25-.29,3.69,3.69,0,0,1,2.59.75,2.27,2.27,0,0,1,.8,1.71,3.26,3.26,0,0,0-1.25-.15,4.05,4.05,0,0,0-1.21.3,3.31,3.31,0,0,0-1,.69,2.87,2.87,0,0,0-.66,1,3.17,3.17,0,0,0-.22,1.52,3.37,3.37,0,0,0,.47,1.41,3.07,3.07,0,0,0,1,1,2.77,2.77,0,0,0,1.51.4,3.79,3.79,0,0,0,1.61-.32,3.31,3.31,0,0,0,1.13-.81,3,3,0,0,0,.65-1.13,3.86,3.86,0,0,0,.2-1.23,5.85,5.85,0,0,0-.66-2.78,12.07,12.07,0,0,0-1.67-2.36A29.71,29.71,0,0,0,343.47,41a25.18,25.18,0,0,1-2.18-2.21,12.58,12.58,0,0,1-1.67-2.44,6.31,6.31,0,0,1-.66-2.9,6.24,6.24,0,0,1,.45-2.39,5.64,5.64,0,0,1,1.26-1.9,5.75,5.75,0,0,1,2-1.24,6.88,6.88,0,0,1,2.52-.45,5.88,5.88,0,0,1,2.51.48,5.12,5.12,0,0,1,1.64,1.18,4.53,4.53,0,0,1,1.2,3,4.51,4.51,0,0,1-.35,1.84,3.82,3.82,0,0,1-.88,1.28,3.59,3.59,0,0,1-1.13.75,2.9,2.9,0,0,1-1.13.25,4.14,4.14,0,0,1-1.22-.18,4.07,4.07,0,0,1-1-.48,2.63,2.63,0,0,1-.71-.7,1.54,1.54,0,0,1-.27-.87,2.6,2.6,0,0,0,1.17.15,3.27,3.27,0,0,0,2-.91,2.65,2.65,0,0,0,.8-2.05,3.34,3.34,0,0,0-.3-1.31,3,3,0,0,0-.86-1.1,2.48,2.48,0,0,0-1.58-.46,3,3,0,0,0-1.4.31,3.42,3.42,0,0,0-1,.82,3.78,3.78,0,0,0-.63,1.13A4.07,4.07,0,0,0,341.79,31.88Z"/></svg>