<svg xmlns="http://www.w3.org/2000/svg" width="450.05" height="74.344" viewBox="0 0 450.05 74.344">
    <defs>
        <style>
            .cls-1{fill:#fff}
        </style>
    </defs>
    <g id="middleman-title" transform="translate(-98.473 -232.568)">
        <g id="Group_116" data-name="Group 116" transform="translate(163.724 232.568)">
            <g id="Group_115" data-name="Group 115">
                <g id="Group_114" data-name="Group 114">
                    <g id="Group_113" data-name="Group 113">
                        <path id="Path_96" d="M218.2 294.137a49.738 49.738 0 0 0 .314 6.126 19.275 19.275 0 0 0 .838 3.927 7.067 7.067 0 0 0 1.152 2.722h-15.712a5.474 5.474 0 0 0 1.2-2.355 25.015 25.015 0 0 0 .733-3.508 34.8 34.8 0 0 0 .314-3.769q.051-1.886.052-3.142v-47.015L195.054 299.9h-3.246l-12.879-52.668v53.3a11.352 11.352 0 0 0 .261 2.513 8.752 8.752 0 0 0 .681 1.989 11.6 11.6 0 0 0 .943 1.885h-7.12a11.965 11.965 0 0 0 .943-1.885q.314-.836.628-1.989a9.974 9.974 0 0 0 .314-2.618v-56.236a52.034 52.034 0 0 0-.418-5.55 24.335 24.335 0 0 0-.733-3.56 8.528 8.528 0 0 0-1.047-2.513h13.194l10.68 43.35 9.843-43.35h13.4a7.078 7.078 0 0 0-1.152 2.723 19.318 19.318 0 0 0-.838 3.926 49.8 49.8 0 0 0-.314 6.126v48.794z" class="cls-1" data-name="Path 96" transform="translate(-173.379 -232.568)"/>
                        <path id="Path_97" d="M247.243 294.137a49.738 49.738 0 0 0 .314 6.126 19.272 19.272 0 0 0 .838 3.927 7.067 7.067 0 0 0 1.152 2.722H233.84a10.261 10.261 0 0 0 1.152-2.722 32.4 32.4 0 0 0 .785-3.927 42.7 42.7 0 0 0 .367-6.126v-48.794a42.749 42.749 0 0 0-.367-6.126 32.525 32.525 0 0 0-.785-3.926 10.282 10.282 0 0 0-1.152-2.723h15.706a7.078 7.078 0 0 0-1.152 2.723 19.315 19.315 0 0 0-.838 3.926 49.8 49.8 0 0 0-.314 6.126v48.794z" class="cls-1" data-name="Path 97" transform="translate(-181.172 -232.568)"/>
                        <path id="Path_98" d="M279.883 232.568a17.437 17.437 0 0 1 12.879 5.5 18.905 18.905 0 0 1 3.769 5.968 19.455 19.455 0 0 1 1.362 7.278v36.858a19.44 19.44 0 0 1-1.362 7.277 18.86 18.86 0 0 1-3.769 5.969 17.432 17.432 0 0 1-12.879 5.5H258a10.292 10.292 0 0 0 1.152-2.722 32.551 32.551 0 0 0 .786-3.927 42.84 42.84 0 0 0 .366-6.126v-48.8a42.892 42.892 0 0 0-.366-6.126 32.673 32.673 0 0 0-.786-3.926 10.313 10.313 0 0 0-1.152-2.723zm6.911 18.744a28.733 28.733 0 0 0-.47-4.66 16.875 16.875 0 0 0-1.885-5.341 13.187 13.187 0 0 0-3.875-4.345 10.556 10.556 0 0 0-6.335-1.78H271.4v57.485a9.849 9.849 0 0 1 2.094-1.047 7.048 7.048 0 0 1 3.4 0 2.959 2.959 0 0 1 2.252 2.2 5.523 5.523 0 0 0-3.194.314 5.956 5.956 0 0 0-2.46 1.833 6.5 6.5 0 0 0-1.257 2.774 5.35 5.35 0 0 0 .419 3.247 3.372 3.372 0 0 0 1.518 1.57 5.42 5.42 0 0 0 2.879.733h.838a5.279 5.279 0 0 0 3.979-1.781 14.71 14.71 0 0 0 2.774-4.345 25.555 25.555 0 0 0 1.623-5.34 25.864 25.864 0 0 0 .524-4.66z" class="cls-1" data-name="Path 98" transform="translate(-184.286 -232.568)"/>
                        <path id="Path_99" d="M332.651 232.568a17.437 17.437 0 0 1 12.879 5.5 18.9 18.9 0 0 1 3.769 5.968 19.438 19.438 0 0 1 1.362 7.278v36.858a19.423 19.423 0 0 1-1.362 7.277 18.859 18.859 0 0 1-3.769 5.969 17.432 17.432 0 0 1-12.879 5.5h-21.884a10.262 10.262 0 0 0 1.152-2.722 32.543 32.543 0 0 0 .786-3.927 42.716 42.716 0 0 0 .366-6.126v-48.8a42.766 42.766 0 0 0-.366-6.126 32.665 32.665 0 0 0-.786-3.926 10.282 10.282 0 0 0-1.152-2.723zm6.91 18.744a28.733 28.733 0 0 0-.47-4.66 16.875 16.875 0 0 0-1.885-5.341 13.186 13.186 0 0 0-3.875-4.345 10.555 10.555 0 0 0-6.335-1.78h-2.826v57.485a9.848 9.848 0 0 1 2.094-1.047 7.048 7.048 0 0 1 3.4 0 2.959 2.959 0 0 1 2.252 2.2 5.523 5.523 0 0 0-3.194.314 5.956 5.956 0 0 0-2.46 1.833 6.5 6.5 0 0 0-1.257 2.774 5.35 5.35 0 0 0 .419 3.247 3.372 3.372 0 0 0 1.518 1.57 5.421 5.421 0 0 0 2.88.733h.837a5.279 5.279 0 0 0 3.979-1.781 14.71 14.71 0 0 0 2.775-4.345 25.557 25.557 0 0 0 1.623-5.34 25.864 25.864 0 0 0 .523-4.66z" class="cls-1" data-name="Path 99" transform="translate(-191.087 -232.568)"/>
                        <path id="Path_100" d="M398.927 306.912h-35.392a10.263 10.263 0 0 0 1.152-2.722 32.556 32.556 0 0 0 .786-3.927 42.716 42.716 0 0 0 .366-6.126v-48.794a42.767 42.767 0 0 0-.366-6.126 32.678 32.678 0 0 0-.786-3.926 10.284 10.284 0 0 0-1.152-2.723h15.706a7.078 7.078 0 0 0-1.152 2.723 19.315 19.315 0 0 0-.838 3.926 49.8 49.8 0 0 0-.314 6.126v54.449a4.3 4.3 0 0 0 .261 1.309 4.157 4.157 0 0 0 .943 1.517 4.956 4.956 0 0 0 1.937 1.2 9.376 9.376 0 0 0 3.246.471h3.665a7.409 7.409 0 0 0 3.875-.889 6.913 6.913 0 0 0 2.355-2.356 13.489 13.489 0 0 0 1.414-3.3q.523-1.832 1.047-3.718h2.409z" class="cls-1" data-name="Path 100" transform="translate(-197.888 -232.568)"/>
                        <path id="Path_101" d="M445.323 306.912h-35.391a10.292 10.292 0 0 0 1.152-2.722 32.4 32.4 0 0 0 .785-3.927 42.7 42.7 0 0 0 .367-6.126v-48.794a42.751 42.751 0 0 0-.367-6.126 32.522 32.522 0 0 0-.785-3.926 10.313 10.313 0 0 0-1.152-2.723h34.344l-.943 10.367h-2.409q-.525-2.095-1.047-3.56a5.825 5.825 0 0 0-1.571-2.409 6.475 6.475 0 0 0-3.036-1.361 28.48 28.48 0 0 0-5.551-.419h-6.387v22.721a39.144 39.144 0 0 0 5.759 0q2.617-.208 4.5-.418a38.445 38.445 0 0 0 3.874-.733 8.318 8.318 0 0 1 .105 1.362 10.868 10.868 0 0 1-.524 2.932 3.066 3.066 0 0 1-2.3 2.041 6.488 6.488 0 0 1-3.559-.051l-7.854-2.2v38.96a4.268 4.268 0 0 0 .262 1.3 4.141 4.141 0 0 0 .943 1.515 4.975 4.975 0 0 0 1.936 1.2 9.383 9.383 0 0 0 3.246.47h3.666a7.408 7.408 0 0 0 3.874-.889 6.788 6.788 0 0 0 2.357-2.396 13.009 13.009 0 0 0 1.361-3.351q.472-1.831.995-3.717h2.409z" class="cls-1" data-name="Path 101" transform="translate(-203.868 -232.568)"/>
                        <path id="Path_102" d="M501.143 294.137a49.737 49.737 0 0 0 .314 6.126 19.272 19.272 0 0 0 .838 3.927 7.08 7.08 0 0 0 1.152 2.722H487.74a5.474 5.474 0 0 0 1.2-2.355 25.013 25.013 0 0 0 .733-3.508 34.81 34.81 0 0 0 .314-3.769q.052-1.886.053-3.142v-47.015L478 299.9h-3.246l-12.879-52.668v53.3a11.3 11.3 0 0 0 .262 2.513 8.712 8.712 0 0 0 .68 1.989 11.6 11.6 0 0 0 .943 1.885h-7.12a11.882 11.882 0 0 0 .943-1.885q.314-.836.628-1.989a9.973 9.973 0 0 0 .314-2.618v-56.236a52.237 52.237 0 0 0-.419-5.55 24.218 24.218 0 0 0-.733-3.56 8.553 8.553 0 0 0-1.046-2.513h13.193l10.68 43.35 9.844-43.35h13.4a7.091 7.091 0 0 0-1.152 2.723 19.315 19.315 0 0 0-.838 3.926 49.8 49.8 0 0 0-.314 6.126v48.794z" class="cls-1" data-name="Path 102" transform="translate(-209.848 -232.568)"/>
                        <path id="Path_103" d="M542.9 306.912a11.581 11.581 0 0 0 .943-2.409 20.023 20.023 0 0 0 .471-3.088 16.212 16.212 0 0 0-.367-4.45l-4.921-25.549h-10.89l-6.911 29.946a10.058 10.058 0 0 0-.21 1.99v1.781a14.219 14.219 0 0 0 .1 1.78h-5.654a9.544 9.544 0 0 0 .943-1.675 15.232 15.232 0 0 0 .786-1.936q.366-1.1.785-2.462l14.558-63.04a35.041 35.041 0 0 0-1.361-3.979l-.629-1.257h12.042l6.492 33.3 6.492 33.3a18.368 18.368 0 0 0 .838 3.193 24.068 24.068 0 0 0 1.048 2.46 14.721 14.721 0 0 0 1.151 2.094zm-4.5-38.847l-4.4-22.512-5.131 22.512z" class="cls-1" data-name="Path 103" transform="translate(-217.47 -232.568)"/>
                        <path id="Path_104" d="M609.225 232.568a11.813 11.813 0 0 0-.943 1.885 8.8 8.8 0 0 0-.68 1.99 11.3 11.3 0 0 0-.262 2.512v67.956h-3.35l-28.9-61.359v54.972a11.251 11.251 0 0 0 .262 2.513 15.145 15.145 0 0 0 .576 1.989 11.6 11.6 0 0 0 .942 1.885h-7.015a11.884 11.884 0 0 0 .943-1.885 20.841 20.841 0 0 0 .628-2.042 10.57 10.57 0 0 0 .315-2.669v-56.228a41.811 41.811 0 0 0-.471-5.5 29.2 29.2 0 0 0-.786-3.508 7.11 7.11 0 0 0-1.047-2.408h11.518l23.036 48.376v-41.881a10.6 10.6 0 0 0-.314-2.671q-.315-1.2-.628-2.042-.419-1.044-.838-1.885z" class="cls-1" data-name="Path 104" transform="translate(-224.426 -232.568)"/>
                    </g>
                </g>
            </g>
        </g>
        <g id="Group_122" data-name="Group 122" transform="translate(98.473 250.25)">
            <g id="Group_121" data-name="Group 121">
                <g id="Group_118" data-name="Group 118" transform="translate(1.429 8.431)">
                    <g id="Group_117" data-name="Group 117">
                        <path id="Path_105" d="M115.39 262.544l-.368 4.044h-.94q-.2-.776-.388-1.349a2.106 2.106 0 0 0-.592-.939 2.649 2.649 0 0 0-1.144-.551 8.865 8.865 0 0 0-2.042-.184v23a19.5 19.5 0 0 0 .122 2.389 7.58 7.58 0 0 0 .327 1.532 2.768 2.768 0 0 0 .449 1.062h-6.126a4.727 4.727 0 0 0 .449-1.062 12.975 12.975 0 0 0 .307-1.532 16.67 16.67 0 0 0 .143-2.389v-23a8.873 8.873 0 0 0-2.043.184 2.64 2.64 0 0 0-1.143.551 2.1 2.1 0 0 0-.592.939q-.184.574-.388 1.349h-.94l-.368-4.044z" class="cls-1" data-name="Path 105" transform="translate(-100.114 -262.544)"/>
                        <path id="Path_106" d="M135.7 286.561a19.307 19.307 0 0 0 .123 2.389 7.58 7.58 0 0 0 .327 1.532 2.769 2.769 0 0 0 .449 1.062h-6.126a4.041 4.041 0 0 0 .449-1.062 12.972 12.972 0 0 0 .307-1.532 16.673 16.673 0 0 0 .143-2.389v-12.989h-5.964v12.988a19.305 19.305 0 0 0 .123 2.389 7.463 7.463 0 0 0 .327 1.532 2.782 2.782 0 0 0 .449 1.062h-6.126a4.039 4.039 0 0 0 .449-1.062 12.823 12.823 0 0 0 .306-1.532 16.544 16.544 0 0 0 .143-2.389v-19.033a16.584 16.584 0 0 0-.143-2.389 12.84 12.84 0 0 0-.306-1.531 4.026 4.026 0 0 0-.449-1.062h6.126a3.224 3.224 0 0 0-.449 1.1 7.466 7.466 0 0 0-.327 1.531 18.941 18.941 0 0 0-.123 2.349v4.738h5.964v-4.738a16.713 16.713 0 0 0-.143-2.389 12.989 12.989 0 0 0-.307-1.531 4.028 4.028 0 0 0-.449-1.062h6.127a4.524 4.524 0 0 0-.449 1.083 13.619 13.619 0 0 0-.306 1.531 16.123 16.123 0 0 0-.144 2.369v19.034z" class="cls-1" data-name="Path 106" transform="translate(-102.7 -262.544)"/>
                        <path id="Path_107" d="M155.225 291.543H141.42a4.01 4.01 0 0 0 .449-1.062 12.972 12.972 0 0 0 .307-1.532 16.67 16.67 0 0 0 .143-2.389v-19.033a16.71 16.71 0 0 0-.143-2.389 12.989 12.989 0 0 0-.307-1.531 4 4 0 0 0-.449-1.062h13.4l-.368 4.044h-.939q-.2-.817-.408-1.389a2.286 2.286 0 0 0-.613-.939 2.526 2.526 0 0 0-1.185-.531 11.079 11.079 0 0 0-2.164-.164h-2.492v8.863a15.077 15.077 0 0 0 2.247 0q1.021-.08 1.756-.163a15.221 15.221 0 0 0 1.511-.286 3.257 3.257 0 0 1 .041.531 4.277 4.277 0 0 1-.2 1.145 1.2 1.2 0 0 1-.9.8 2.542 2.542 0 0 1-1.389-.021l-3.064-.857v15.2a1.717 1.717 0 0 0 .47 1.1 1.97 1.97 0 0 0 .756.468 3.678 3.678 0 0 0 1.267.184h1.429a2.892 2.892 0 0 0 1.512-.348 2.632 2.632 0 0 0 .918-.94 5.046 5.046 0 0 0 .531-1.307q.183-.715.388-1.45h.94z" class="cls-1" data-name="Path 107" transform="translate(-105.438 -262.544)"/>
                    </g>
                </g>
                <g id="Group_119" data-name="Group 119">
                    <path id="Rectangle_21" d="M0 0h52.911v1.742H0z" class="cls-1" data-name="Rectangle 21"/>
                </g>
                <g id="Group_120" data-name="Group 120" transform="translate(0 43.037)">
                    <path id="Rectangle_22" d="M0 0h52.911v1.742H0z" class="cls-1" data-name="Rectangle 22"/>
                </g>
            </g>
        </g>
    </g>
</svg>
