<svg xmlns="http://www.w3.org/2000/svg" width="439.93" height="77.146" viewBox="0 0 439.93 77.146">
    <defs>
        <style>
            .cls-1{fill:#fff}
        </style>
    </defs>
    <g id="policeman-title" transform="translate(-99.905 -197.636)">
        <g id="Group_103" data-name="Group 103" transform="translate(165.854 197.636)">
            <g id="Group_102" data-name="Group 102">
                <g id="Group_101" data-name="Group 101">
                    <g id="Group_100" data-name="Group 100">
                        <path id="Path_83" d="M193.543 198.837a28.751 28.751 0 0 1 7.673.953 15.718 15.718 0 0 1 5.926 3.016A13.61 13.61 0 0 1 211 208.2a20.921 20.921 0 0 1 1.376 7.991q0 8.571-4.709 13.545t-13.281 4.974a9.313 9.313 0 0 1-3.334-.582 9.561 9.561 0 0 1-2.7-1.535v28.467a50.1 50.1 0 0 0 .318 6.192 19.423 19.423 0 0 0 .847 3.968 7.117 7.117 0 0 0 1.164 2.751h-15.869a10.4 10.4 0 0 0 1.164-2.751 32.934 32.934 0 0 0 .793-3.968 43.166 43.166 0 0 0 .371-6.192v-49.312a43.186 43.186 0 0 0-.371-6.191 33.041 33.041 0 0 0-.793-3.968 10.425 10.425 0 0 0-1.164-2.752zm.741 33.23a4.951 4.951 0 0 0 3.492-1.27 8.183 8.183 0 0 0 2.116-3.386 21.151 21.151 0 0 0 1.005-5.027q.263-2.909.265-6.084a23.117 23.117 0 0 0-.9-6.88 13.15 13.15 0 0 0-2.382-4.6 9.064 9.064 0 0 0-3.333-2.54 9.207 9.207 0 0 0-3.651-.793h-2.54v18.833a5.12 5.12 0 0 1 1.905-1.164 5.349 5.349 0 0 1 2.328-.318 4.861 4.861 0 0 1 2.169.74 3.47 3.47 0 0 1 1.429 1.8 5.58 5.58 0 0 0-3.228.318 6 6 0 0 0-2.487 1.852 6.568 6.568 0 0 0-1.27 2.8 5.9 5.9 0 0 0 .318 3.28 3.6 3.6 0 0 0 1.639 1.639 5.946 5.946 0 0 0 3.125.8z" class="cls-1" data-name="Path 83" transform="translate(-174.812 -197.78)"/>
                        <path id="Path_84" d="M244.564 197.756a19.773 19.773 0 0 1 7.2 1.27 17.93 17.93 0 0 1 5.662 3.439 14.849 14.849 0 0 1 3.651 5.08 15.313 15.313 0 0 1 1.27 6.191v45.082a14.557 14.557 0 0 1-1.376 6.3 15.514 15.514 0 0 1-3.757 5.027 18.447 18.447 0 0 1-5.662 3.387 19.488 19.488 0 0 1-7.091 1.27 20.213 20.213 0 0 1-7.249-1.27 18.972 18.972 0 0 1-5.767-3.387 15.148 15.148 0 0 1-3.81-5.027 14.532 14.532 0 0 1-1.376-6.3v-45.083a13.87 13.87 0 0 1 1.429-6.191 16.113 16.113 0 0 1 3.916-5.08 19.116 19.116 0 0 1 5.82-3.439 19.887 19.887 0 0 1 7.14-1.269zm6.562 15.662a6.211 6.211 0 0 1-3.6 1.27 10.085 10.085 0 0 1-3.651-.9 3.1 3.1 0 0 1-1.851-2.911 6.347 6.347 0 0 0 3.386.53 5.831 5.831 0 0 0 2.911-1.157 5.527 5.527 0 0 0 1.8-2.514 6.014 6.014 0 0 0 .158-3.459v-.208a8.353 8.353 0 0 0-2.01-2.566 5.5 5.5 0 0 0-3.7-1.1 6.308 6.308 0 0 0-3.439.844 7.286 7.286 0 0 0-2.169 2.113 7.909 7.909 0 0 0-1.165 2.749 13.182 13.182 0 0 0-.317 2.746v55.055a12.762 12.762 0 0 0 .317 2.641 8.506 8.506 0 0 0 1.104 2.749 7.233 7.233 0 0 0 2.116 2.166 6 6 0 0 0 3.439.9 6.072 6.072 0 0 0 3.334-.847 6.232 6.232 0 0 0 2.064-2.117 8.374 8.374 0 0 0 1.005-2.751 15.816 15.816 0 0 0 .264-2.751z" class="cls-1" data-name="Path 84" transform="translate(-180.964 -197.65)"/>
                        <path id="Path_85" d="M311.188 273.973h-35.769a10.373 10.373 0 0 0 1.165-2.751 32.941 32.941 0 0 0 .793-3.968 43.182 43.182 0 0 0 .37-6.192v-49.314a43.2 43.2 0 0 0-.37-6.191 33.048 33.048 0 0 0-.793-3.968 10.4 10.4 0 0 0-1.165-2.752h15.875a7.14 7.14 0 0 0-1.165 2.752 19.535 19.535 0 0 0-.846 3.968 50.118 50.118 0 0 0-.318 6.191v55.03a4.36 4.36 0 0 0 .264 1.323 4.231 4.231 0 0 0 .953 1.534 5.033 5.033 0 0 0 1.957 1.218 9.5 9.5 0 0 0 3.28.476h3.7a7.478 7.478 0 0 0 3.915-.9 7 7 0 0 0 2.382-2.381 13.664 13.664 0 0 0 1.428-3.333q.528-1.85 1.058-3.758h2.434z" class="cls-1" data-name="Path 85" transform="translate(-186.844 -197.78)"/>
                        <path id="Path_86" d="M335.6 261.062a50.27 50.27 0 0 0 .318 6.192 19.423 19.423 0 0 0 .847 3.968 7.117 7.117 0 0 0 1.164 2.751h-15.873a10.346 10.346 0 0 0 1.164-2.751 32.766 32.766 0 0 0 .793-3.968 43.166 43.166 0 0 0 .371-6.192v-49.314a43.186 43.186 0 0 0-.371-6.191 32.873 32.873 0 0 0-.793-3.968 10.367 10.367 0 0 0-1.164-2.752h15.874a7.128 7.128 0 0 0-1.164 2.752 19.463 19.463 0 0 0-.847 3.968 50.293 50.293 0 0 0-.318 6.191v49.314z" class="cls-1" data-name="Path 86" transform="translate(-192.422 -197.78)"/>
                        <path id="Path_87" d="M371.435 254.569a4.231 4.231 0 0 1 2.7-1 8.035 8.035 0 0 1 3.7.582 7.86 7.86 0 0 1 3.28 2.592 8.033 8.033 0 0 1 1.429 5.027 15.112 15.112 0 0 1-.635 4.127 11.82 11.82 0 0 1-2.276 4.233 12.237 12.237 0 0 1-4.6 3.334 18.821 18.821 0 0 1-7.619 1.322 24.641 24.641 0 0 1-8.307-1.27 17.966 17.966 0 0 1-5.979-3.44 13.894 13.894 0 0 1-3.651-5.08 15.871 15.871 0 0 1-1.217-6.19v-45.191a15.885 15.885 0 0 1 1.217-6.191 13.93 13.93 0 0 1 3.651-5.08 17.979 17.979 0 0 1 5.979-3.439 24.619 24.619 0 0 1 8.307-1.27 21.736 21.736 0 0 1 8.731 1.481 14.362 14.362 0 0 1 5.186 3.651 12.159 12.159 0 0 1 2.54 4.656 17.385 17.385 0 0 1 .688 4.6 13.877 13.877 0 0 1-1.058 5.662 11.892 11.892 0 0 1-2.7 3.916 11.021 11.021 0 0 1-3.545 2.275 9.7 9.7 0 0 1-3.493.741 13.53 13.53 0 0 1-3.757-.53 10.812 10.812 0 0 1-3.228-1.481 7.622 7.622 0 0 1-2.169-2.223 4.922 4.922 0 0 1-.794-2.646 9.4 9.4 0 0 0 6.985-.37 8.513 8.513 0 0 0 4.762-4.815 8.363 8.363 0 0 0 .635-3.493 9.669 9.669 0 0 0-.9-4.075 8.608 8.608 0 0 0-2.751-3.333 8.067 8.067 0 0 0-4.921-1.376 8.261 8.261 0 0 0-3.915.846 7.489 7.489 0 0 0-3.863 4.879 10.993 10.993 0 0 0-.371 2.646v55.135a10.963 10.963 0 0 0 .371 2.645 7.489 7.489 0 0 0 3.862 4.869 8.229 8.229 0 0 0 3.915.847 7.93 7.93 0 0 0 6.085-2.434 10.838 10.838 0 0 0 1.958-11.642 7.87 7.87 0 0 0-4.232-3.497z" class="cls-1" data-name="Path 87" transform="translate(-195.555 -197.636)"/>
                        <path id="Path_88" d="M430.183 273.973h-35.768a10.4 10.4 0 0 0 1.164-2.751 32.934 32.934 0 0 0 .793-3.968 43.166 43.166 0 0 0 .371-6.192v-49.314a43.186 43.186 0 0 0-.371-6.191 33.041 33.041 0 0 0-.793-3.968 10.425 10.425 0 0 0-1.164-2.752h34.711l-.953 10.477h-2.434q-.531-2.116-1.058-3.6a5.878 5.878 0 0 0-1.587-2.433 6.548 6.548 0 0 0-3.069-1.376 28.85 28.85 0 0 0-5.609-.423h-6.456v22.964a39.56 39.56 0 0 0 5.82 0q2.645-.211 4.551-.423a38.612 38.612 0 0 0 3.915-.741 8.518 8.518 0 0 1 .106 1.377 10.966 10.966 0 0 1-.528 2.963 3.1 3.1 0 0 1-2.329 2.064 6.561 6.561 0 0 1-3.6-.053l-7.937-2.222v39.379a4.3 4.3 0 0 0 .265 1.319 4.194 4.194 0 0 0 .953 1.532 5.048 5.048 0 0 0 1.957 1.214 9.5 9.5 0 0 0 3.28.475h3.7a7.478 7.478 0 0 0 3.915-.9 6.853 6.853 0 0 0 2.382-2.434 13.152 13.152 0 0 0 1.375-3.386q.477-1.852 1.005-3.758h2.434z" class="cls-1" data-name="Path 88" transform="translate(-201.075 -197.78)"/>
                        <path id="Path_89" d="M486.1 261.062a50.291 50.291 0 0 0 .317 6.192 19.483 19.483 0 0 0 .847 3.968 7.131 7.131 0 0 0 1.164 2.751h-15.87a5.518 5.518 0 0 0 1.217-2.381 25.15 25.15 0 0 0 .741-3.545 35.157 35.157 0 0 0 .317-3.81q.053-1.906.054-3.176v-47.514l-12.171 53.337h-3.28l-13.017-53.23v53.865a11.475 11.475 0 0 0 .264 2.54 8.83 8.83 0 0 0 .688 2.01 11.687 11.687 0 0 0 .953 1.905h-7.2a11.973 11.973 0 0 0 .953-1.905q.317-.844.635-2.01a10.081 10.081 0 0 0 .317-2.646v-56.83a52.593 52.593 0 0 0-.423-5.609 24.5 24.5 0 0 0-.741-3.6 8.628 8.628 0 0 0-1.057-2.539h13.334l10.794 43.812 9.949-43.812h13.545a7.142 7.142 0 0 0-1.164 2.752 19.524 19.524 0 0 0-.847 3.968 50.315 50.315 0 0 0-.317 6.191v49.314z" class="cls-1" data-name="Path 89" transform="translate(-206.624 -197.78)"/>
                        <path id="Path_90" d="M527.675 273.973a11.692 11.692 0 0 0 .953-2.433 20.277 20.277 0 0 0 .476-3.122 16.378 16.378 0 0 0-.371-4.5L523.76 238.1h-11.007l-6.984 30.266a10.173 10.173 0 0 0-.212 2.012v1.8a14.359 14.359 0 0 0 .106 1.8h-5.715a9.67 9.67 0 0 0 .953-1.692 15.417 15.417 0 0 0 .794-1.958q.368-1.112.793-2.487l14.71-63.708a35.618 35.618 0 0 0-1.375-4.022l-.636-1.27h12.171l6.561 33.653 6.561 33.654a18.568 18.568 0 0 0 .847 3.228 24.526 24.526 0 0 0 1.058 2.486 14.928 14.928 0 0 0 1.164 2.116zm-4.551-39.261l-4.444-22.753-5.186 22.753z" class="cls-1" data-name="Path 90" transform="translate(-213.696 -197.78)"/>
                        <path id="Path_91" d="M594.132 198.837a11.864 11.864 0 0 0-.953 1.905 8.916 8.916 0 0 0-.688 2.011 11.491 11.491 0 0 0-.264 2.54v68.68h-3.387l-29.207-62.014v55.559a11.423 11.423 0 0 0 .264 2.54 15.393 15.393 0 0 0 .583 2.01 11.681 11.681 0 0 0 .952 1.905h-7.09a11.9 11.9 0 0 0 .952-1.905 21.033 21.033 0 0 0 .636-2.063 10.689 10.689 0 0 0 .318-2.7v-56.827a42.379 42.379 0 0 0-.476-5.555 29.638 29.638 0 0 0-.794-3.546 7.171 7.171 0 0 0-1.058-2.433h11.641l23.281 48.892V205.5a10.7 10.7 0 0 0-.317-2.7q-.318-1.215-.635-2.064-.424-1.056-.847-1.905z" class="cls-1" data-name="Path 91" transform="translate(-220.151 -197.78)"/>
                    </g>
                </g>
            </g>
        </g>
        <g id="Group_109" data-name="Group 109" transform="translate(99.905 216.563)">
            <g id="Group_108" data-name="Group 108">
                <g id="Group_105" data-name="Group 105" transform="translate(1.445 8.52)">
                    <g id="Group_104" data-name="Group 104">
                        <path id="Path_92" d="M116.985 228.812l-.372 4.087h-.95q-.206-.783-.392-1.362a2.124 2.124 0 0 0-.6-.95 2.663 2.663 0 0 0-1.155-.556 8.924 8.924 0 0 0-2.065-.186v23.24a19.709 19.709 0 0 0 .123 2.414 7.634 7.634 0 0 0 .33 1.549 2.791 2.791 0 0 0 .454 1.073h-6.188a4.72 4.72 0 0 0 .453-1.073 12.864 12.864 0 0 0 .31-1.549 16.85 16.85 0 0 0 .144-2.414v-23.24a8.919 8.919 0 0 0-2.065.186 2.658 2.658 0 0 0-1.155.556 2.124 2.124 0 0 0-.6.95c-.123.386-.255.84-.392 1.362h-.95l-.372-4.087z" class="cls-1" data-name="Path 92" transform="translate(-101.546 -228.812)"/>
                        <path id="Path_93" d="M137.3 253.085a19.709 19.709 0 0 0 .123 2.414 7.634 7.634 0 0 0 .33 1.549 2.791 2.791 0 0 0 .454 1.073h-6.191a4.071 4.071 0 0 0 .453-1.073 12.858 12.858 0 0 0 .31-1.549 16.85 16.85 0 0 0 .144-2.414v-13.127H126.9v13.127a19.513 19.513 0 0 0 .124 2.414 7.634 7.634 0 0 0 .33 1.549 2.805 2.805 0 0 0 .453 1.073h-6.191a4.039 4.039 0 0 0 .454-1.073 12.887 12.887 0 0 0 .309-1.549 16.708 16.708 0 0 0 .145-2.414v-19.236a16.759 16.759 0 0 0-.145-2.416 12.921 12.921 0 0 0-.309-1.547 4.035 4.035 0 0 0-.454-1.074h6.184a3.259 3.259 0 0 0-.453 1.115 7.665 7.665 0 0 0-.33 1.548 19.158 19.158 0 0 0-.124 2.374v4.788h6.027v-4.788a16.9 16.9 0 0 0-.144-2.416 12.893 12.893 0 0 0-.31-1.547 4.067 4.067 0 0 0-.453-1.074h6.191a4.571 4.571 0 0 0-.454 1.094 13.769 13.769 0 0 0-.309 1.548 16.324 16.324 0 0 0-.144 2.395v19.236z" class="cls-1" data-name="Path 93" transform="translate(-103.946 -228.812)"/>
                        <path id="Path_94" d="M156.8 258.121h-13.947a4.071 4.071 0 0 0 .453-1.073 13.038 13.038 0 0 0 .31-1.549 16.85 16.85 0 0 0 .144-2.414v-19.236a16.9 16.9 0 0 0-.144-2.416 13.074 13.074 0 0 0-.31-1.547 4.067 4.067 0 0 0-.453-1.074h13.539l-.372 4.087h-.95q-.206-.825-.412-1.4a2.306 2.306 0 0 0-.619-.949 2.552 2.552 0 0 0-1.2-.537 11.207 11.207 0 0 0-2.187-.165h-2.519v8.952a15.489 15.489 0 0 0 2.271 0 52.891 52.891 0 0 0 1.774-.166 15.412 15.412 0 0 0 1.528-.289 3.4 3.4 0 0 1 .04.536 4.317 4.317 0 0 1-.206 1.157 1.21 1.21 0 0 1-.909.8 2.56 2.56 0 0 1-1.4-.021l-3.1-.866v15.36a1.691 1.691 0 0 0 .1.515 1.64 1.64 0 0 0 .372.6 1.97 1.97 0 0 0 .763.473 3.7 3.7 0 0 0 1.28.186h1.454a2.932 2.932 0 0 0 1.528-.35 2.676 2.676 0 0 0 .929-.95 5.155 5.155 0 0 0 .536-1.321q.186-.722.392-1.467h.95z" class="cls-1" data-name="Path 94" transform="translate(-106.486 -228.812)"/>
                    </g>
                </g>
                <g id="Group_106" data-name="Group 106">
                    <path id="Rectangle_16" d="M0 0h53.476v1.761H0z" class="cls-1" data-name="Rectangle 16"/>
                </g>
                <g id="Group_107" data-name="Group 107" transform="translate(0 43.496)">
                    <path id="Rectangle_17" d="M0 0h53.476v1.761H0z" class="cls-1" data-name="Rectangle 17"/>
                </g>
            </g>
        </g>
    </g>
</svg>
