<svg id="Layer_1" data-name="Layer 1" xmlns="http://www.w3.org/2000/svg" viewBox="0 0 313 80"><defs><style>.cls-1{fill:#f58f20;}.cls-2{fill:#fff;}</style></defs><title>pangolin-buttons</title><rect class="cls-1" x="12.89" y="11.5" width="287.19" height="58"/><path class="cls-1" d="M299.42,69.5c.08.36.28.16.24-.84l-.33-.71Z"/><path class="cls-1" d="M300,62.76c-.16-1.17-.44-2.53-.75-1.77.32,1.17.19,1.45.57,2.7,0,1-.11,1.75-.23,1.58a13.66,13.66,0,0,0,.14,2.1,15.74,15.74,0,0,0,.05-4.68C299.88,62.32,300,62.68,300,62.76Z"/><path class="cls-1" d="M253.44,11l.63,0A3.85,3.85,0,0,0,253.44,11Z"/><path class="cls-1" d="M192.78,10.85a1.67,1.67,0,0,0,.68-.07C193,10.81,192.68,10.83,192.78,10.85Z"/><path class="cls-1" d="M182.42,10.49l.61,0A2.15,2.15,0,0,0,182.42,10.49Z"/><path class="cls-1" d="M253.44,11l-1.62-.11C251.71,11,252.65,11,253.44,11Z"/><path class="cls-1" d="M299.23,49.26c0,.34,0,.62.09.88,0-.28,0-.55,0-.82Z"/><path class="cls-1" d="M280.18,10.77h.49a3.26,3.26,0,0,0,.41-.14Z"/><path class="cls-1" d="M300.87,11.64c0-.47-.12-.63-.24-.69l-.38.16a1.62,1.62,0,0,1,.29-.06,4.1,4.1,0,0,1,.13,1C300.72,12,300.78,11.92,300.87,11.64Z"/><path class="cls-1" d="M300.37,44.66l0,.58C300.4,45.09,300.38,44.84,300.37,44.66Z"/><path class="cls-1" d="M265.49,10.71a.34.34,0,0,0-.18-.1S265.38,10.68,265.49,10.71Z"/><path class="cls-1" d="M276.29,68.18s0,0,0,0S276.45,68.18,276.29,68.18Z"/><path class="cls-1" d="M300.08,69.57l-.33,0a.33.33,0,0,0-.07.16Z"/><path class="cls-1" d="M163.47,10.13h.08C164.05,10.1,163.77,10.11,163.47,10.13Z"/><path class="cls-1" d="M11.73,34.93c.25-2,.32,3.21.6.24C12.22,35.44,11.89,32.47,11.73,34.93Z"/><path class="cls-1" d="M299.27,48.73v-.84C299.26,48.27,299.26,48.53,299.27,48.73Z"/><path class="cls-1" d="M12.33,35.17h0l0-.31C12.35,35,12.34,35.06,12.33,35.17Z"/><path class="cls-1" d="M119.8,10.3a1.59,1.59,0,0,0,.44.12S120.13,10.36,119.8,10.3Z"/><path class="cls-1" d="M152.33,10.7l-.8,0C151.85,10.69,152.1,10.7,152.33,10.7Z"/><path class="cls-1" d="M102.9,10.7a7.15,7.15,0,0,0-1.18,0l.18,0A3.45,3.45,0,0,1,102.9,10.7Z"/><path class="cls-1" d="M85.32,10.7l.32.05h.56Z"/><path class="cls-1" d="M222.86,68.32a3.13,3.13,0,0,1,.81.25C223.4,68.37,226,68.3,222.86,68.32Z"/><path class="cls-1" d="M299.39,49.25a1,1,0,0,1-.12-.52c0,.2,0,.4,0,.59S299.37,49.38,299.39,49.25Z"/><path class="cls-1" d="M102.19,12.91l-2.8,0C100.18,12.9,101.19,12.91,102.19,12.91Z"/><path class="cls-1" d="M96.72,68.36l.64,0A3,3,0,0,0,96.72,68.36Z"/><path class="cls-1" d="M91.1,12.91a12.49,12.49,0,0,0-1.57-.19,1.94,1.94,0,0,0-.32.07Z"/><path class="cls-1" d="M223.68,68.57h0Z"/><path class="cls-1" d="M242.08,67.9c-2.66,0-1.25.37-1.82.58-3.18.1-1.47-.27-2.55-.46-2,.09-3.5.43-5,.42-.11-.06-.4-.08-.07-.16-2.09.29-6.22,0-8.66.38a.82.82,0,0,1-.32-.09c.39.19.45.37.37.51a9.34,9.34,0,0,1-2.66,0,2.81,2.81,0,0,0,1.13-.17l-1.25.11c-1.12-.35,1.71-.12,1.71-.38-2.44.12-5.28.4-7.15.3-.39-.34,4.37-.11,1.88-.41l2.89.13c-2.21-.54,1.75,0-.28-.54-3.8-.1-4.25.18-8,.08-.85.18.29.28-.57.46-5.39.34-4.24-.85-8.21-.4a8.77,8.77,0,0,1-4.25.43l1-.38c-3.69,0-2.11.55-6,.29.68-.15,2.89-.13,2.33-.17-2.5-.31-1.76.22-3.68.22l-.4-.34c-3.92,0-8.24.29-12.59.36.24-.1,1-.21,0-.31-5.48.17-11.69,0-17-.25l-2,.3c-.47,0-.87-.14-.37-.19-2.06-.12-.1.18-1.09.3-1.17,0-1.55-.17-.81-.26a117.09,117.09,0,0,1-14.18.22l.75-.08c-3-.12-3.36.6-6.13.32l.53,0c-6.47-.13-13.62.14-18.56-.3-.93.42-6.4-.19-6.82.4-3.69-.29-2.63-.4-7.84-.59-1.38,0-2.07.37-3.78.43l0-.31-2.33.32L99,68.24l-1.61.08c.64,0,1.36.14,1.26.23a27,27,0,0,1-6.19-.37l-6,.26a8.71,8.71,0,0,1,1.92-.25c-3.18.32-.58-.32-3.49,0,.39.07-.21.18-.28.24a60,60,0,0,0-7.2-.11l.47-.21c-4.42,0-9.31.1-14.27.1,1.78.1,1.37.46-.08.5L63,68.35c-.93.21,1.52.13-.4.37-1.86,0-1.25-.37-.19-.47l-2.25.11c-.13-.1.4-.15.54-.27-.93.2-3.89-.33-5.22,0L55.3,68c-5,0-7.2.1-11.24.12-.08.28-1.66.22-2.86.45-3-.09-6.26-.31-9.83-.29-2.52.14-.74.24-1.87.41-.18-.26-3.75-.24-1.9-.42-4.29,0-5.48,0-10.9.26.58.1,1.25.15.9.24-1,0-2.24-.11-2.1-.23l.26,0-1.32.06-.66,0,0-1.22c0-.72.06-1.44.08-2.16.07-1.44.14-2.88.21-4.28a52.76,52.76,0,0,0,0-7.48l0,.27-.28-5c0-2.31.2,1.39.36-.33-.43-5.42.06-8.57-.23-13,.76-3.46,0-12.27.43-16.94l-.18.27a8,8,0,0,1,.15-2.35c-.14.13-.16,1.31-.26.56,0-1.4,0-2.81-.05-4.25l5.35.06,6.57.13,13.11.29c3.84.05,2.18-.92,7-.5L44.71,13c7.73-.39,15.81,0,23.38-.32a3.69,3.69,0,0,1-1.2.17,23.32,23.32,0,0,0,5.94-.18c1.18,0,.27.18,1,.28,1.6.14,4-.31,4.88-.07.14,0-.46.08-.75.1,1.05-.12,4.87,0,3.87-.25,2.84.13,5.43-.13,7.7,0,1.48-.31,4.86.15,5.33-.29-.2.45,5,.36,6.78.15-.6.14,1.56.14.86.33,2,0,3.93-.09,3.57-.32,3.78.54,7.59-.44,9.72.26,6.09-.24,11.73-.41,17.2-.52-.19.46-6.05.05-5.82.52,5.2-.18,8.2-.57,13.35-.46,1.34.06-.76.19-1.21.27,5.2-.18,10,0,14.66-.2a4.36,4.36,0,0,1-1,.12c.91,0,2.12.07,2-.14l-.88.06c-1.46-.3,3.61-.63,3.78-.78-1.55.59,4.56.15,2.1.89.6,0,1.36-.14,1.22-.28.89,0,1.17.12.27.28,3.26-.11,2.1-.33,5-.32,0,.1-.6.13-.91.25a29.8,29.8,0,0,1,5.5-.3c-.15.06.14.13-.61.13,4.29,0,7.31-.51,12-.33-1.39.44,1.6.15,1.85.52l2.53-.11-1-.18c2.22,0,4.18-.27,6.08-.15l-1.65.16,4.16-.07-2.35-.14c2.24-.2-.24-.48,2.71-.37-.6,0,2.21,0,3.37.22h0a21.37,21.37,0,0,1,3.86-.15c.43.12-.34.41-.06.49,1.08-.31,5.19-.08,6.56-.42-.46.08-.48.28-.33.32l.9-.25c1,.08,1.18.12,1,.27,3.09.05-1-.47,2.69-.27-.29,0-.15.06-.75.1,3.68.11,7.11-.16,10.49,0,1,.38-3,.1-1.81.41,4.88-.07,10.1-.45,14.82-.36l-.88,0c.65-.53,3.51.26,5.9,0-.59,0-.77.3-.61.24,3.23.08,6.61-.13,11.5-.3l-.6.14c1.9.12,5,.07,7.07.13.61-.14,1.79-.12,1.07-.31,6.35.77,12.1-.42,17.73.23-.67,0-1.6.11-1.07.12l4.8-.13c-.38-.23-.63-.14-1.64-.32a17.82,17.82,0,0,1,3.15-.24c-2.16.15,0,.37.95.5-.16-.07.16-.15.08-.22,2.51.41.42-.47,3.84-.19l-.18.12c1.28-.06,2.46-.22,3.84-.19.57.27-1.36.13-1.45.35,1.94,0,3.82-.51,5.58-.24-.83.07-2,.07-2.83.15a19,19,0,0,0,3.55.28h-.14l3.25.14-.81-.08c.39-.11.82-.19,1.08-.25a10.07,10.07,0,0,1,1-.11c0,.34,0,.7,0,1.08v1.34a22.86,22.86,0,0,0,.2,3.1c-.43-3.18-.25-.53-.56-.77-.08.83-.17,2.1-.26,1.74.25,1.54-.19,2.58.17,4.76-.1.09,0,1.65-.26,1.3.08,2,.17-.47.29-.31.34,3.1-.4,7.28.06,11.73.18,3.84.51,4.55.68,8.11-.16,1.2-.36-1-.36-1a35,35,0,0,0,0,5.22c-.09-.37-.16,0-.27.57,0,1.47.35,1,.21,2.92a7.89,7.89,0,0,1-.39-1.47c.09,1.73.27,3.44.36,5.23-.17.47-.26-1.08-.37-1.71a38.19,38.19,0,0,0,.42,5.83l.1-1.29c0,.73-.23.37-.28-.17a4.22,4.22,0,0,1,.19-2.58l.06,1.28c.58-1.31-.09-5.12-.06-7.69l.42,1.07-.34-2.63c.1-.56.34-.94.4.32.2-1.83-.15-1.62.08-3.2,0-.18.05-.1.07.06l-.12-1.79c.08.35.29-.3.23.8.24-3.22-.31-5.2,0-6.41l0,.26c-.14-4.47-.31-.43-.66-3.78l.75-2.26-.31-.44c0-.47,0-1.38.16-1.21-.21-1.72-.13.29-.33-.7.28-2.23-.13-6.13.36-6.63-.24-.8-.18,2.12-.34-.25.52-.67-.09-2.74.15-4.77.27.62.12,2.55.36.51a7.49,7.49,0,0,1-.13-2.65l.12-1.58c0-.27,0-.47,0-.78s0-.65,0-.93c-.1,0-.16-.35-.19-.94-1.78.08-4.06,0-6.16.08.18-.12-5.41-.2-8.08-.33l.08-.06c-.52.36-3.28.29-5.29.37.08-.22.44-.31,1.53-.4h-1.89a10.28,10.28,0,0,1-2.25.22l.47-.28c-2.51,0-5.06.33-8.29.14-.18.26,2.57.72-.85.89-.12-.14-.25-.38.65-.43a10,10,0,0,1-1.64,0l1.37-.23c-1.48-.1-.77.19-1.95.17,0-.19-.87-.14-.7-.29A12,12,0,0,0,269,11a22,22,0,0,1-3.46-.3c.12.11,0,.26-1,.29-2.51,0-.86-.24-2.32-.34-.61.14-2.21,0-2.26.29a2.63,2.63,0,0,1-1.15-.22c-1.3.13-6.07,0-4.61.35l.34,0-.22,0h0c-4.26.29-8.85-.17-13.08,0V11c-2.52.11-5.62.06-7.42.28-.75,0-1.76-.19-1.44-.3a34.17,34.17,0,0,1-4.93,0c1.94-.17-.67-.15,2-.13a31.73,31.73,0,0,0-5.76,0c.91-.25-1.89-.32-3.08-.24l1.76.18c-1.34,0-2.51,0-3.7,0l.64-.33c-5.13-.41-9.25.69-13.16,0-1.35.23,2.79.16,1.58.44-2.36,0-4.82-.53-5.56-.53-3.23-.18-3,.49-6.4.36.43.12.84.44-1.69.55-2.36,0-2.9-.5-1.41-.59.57,0,.84,0,.82.06.76,0,1.76-.09.83-.22l-.31.12c-1.17-.12-4.42-.11-3.66-.3-1.78.11-.76.19.56.25-3-.17-4.73,0-7.85-.12.5.07,1,.21.46.21-4.57-.15-2,.22-5.11.27-1.76-.18.63-.43-2.49-.28-1.9-.12-.4-.31.36-.41a52.19,52.19,0,0,1-6.94-.19l1.5-.1c-.89.06-1.63.06-2.37.06l.85.24a5.36,5.36,0,0,1-1.6-.15c-.91.16.69.4-1.11.61-1.17-.12-3.57.13-4-.18,3.68.1-.41-.32,2.71-.37a20.69,20.69,0,0,1-2.22,0c-.13,0,.13-.06.37-.08-3.53-.28-1.62.36-5.28.35.47-.18-.84-.34-1.44-.3,1.47,0,.71.3-.65.43a28.86,28.86,0,0,0-3.77.09l1.4.06a16.42,16.42,0,0,1-3.28.21c-.14-.13,1.49-.09.9-.15-1.81.31-4.1-.33-6.62-.12-1.17-.12-.12-.33-1.15-.41-2.83.23-3.06-.24-6,0,.85.24,1,.18-1.09.41l4.89-.17-3.14.35c1.48,0,3.12-.15,4-.11-1.5.19-1.35.13-.64.33-2-.36-4,.21-6.35,0l.07-.59c-3.51-.26-6.24.3-10.8.15l1.46.11a36.55,36.55,0,0,1-4.29.12c.14-.19-.79-.27-1.42-.39.08.15-3.34,0-3.75.38l-2-.26c-3.69-.1-4.21.57-7.75.5,1.07-.22-.54-.36,1.83-.51a7.67,7.67,0,0,0-2.26.1c-.69-.12-3.28.26-4.37.08a5.85,5.85,0,0,1-2,.27c-.14,0,0-.09,0-.09s-2.08.13-.92.35c-3.64-.62-10.18,0-13.36-.49-2.58.07-5.69.13-8,.15.15-.06,0-.1.45-.08-3.23-.18-2,.57-5.66.36-1.88-.32,1.95-.17.78-.29-.51-.65-4.44.09-6.92-.29l.6,0c-1.89-.22-4.61.25-7.7.2,0,0,.15-.06,0-.1-2.11.33-6.11.44-9.08.53.92-.25,1.35-.13.78-.39-1.33,0,.39.42-2.27.49-.86-.14-2.78-.26-3-.54h2.51c-1.28-.36-3.25,0-4.57-.05l.17-.16c-3.85.05-3.9.44-8,.42l.42.11c-2.25.39-1.89-.21-4.14.08l-.68-.4c-1.5.1-5.23.38-7.9.46,1.52-.3,4.64-.45,6.58-.62a51.23,51.23,0,0,0-5.79.22,13.84,13.84,0,0,1,1.93-.07,44.14,44.14,0,0,1-7.14.46c.17-.25-.59-.36-1.77-.41-.59,0-1.28,0-2,0l-3.05,0c0,.59,0,1.16,0,1.72,0,.26,0,.52,0,.78l0,.51a9.34,9.34,0,0,1-.22,1.57c.28,5.21-.12,10.34-.07,16.4.59-2.15,0,1.78.62,1.4a13.07,13.07,0,0,1,0,2.08L12,39.45c-.18,1-.14-1.35-.27-1.22,0,3.1-.26,1.3-.42,3.35.21-.42.31,1.07.22,2.84l.29-2.49c.32,4.33-.52,3.74-.19,8.1l-.2-1.38c.12,2.24,0,8.25.49,10.45-.07.39-.24.92-.28-.07,0,1.66,0,3.43.08,5.21l.09,2.66c0,.52,0,1,.05,1.53,0,.71,0,1.41,0,2.09l4,0c.94,0,1.82,0,2.61.08l-.41.15a14.86,14.86,0,0,1,3-.13c-.07.06-.4.15.06.16a29.68,29.68,0,0,1,4-.17L24,70.73c5.21.2,8-.41,12.37-.51,0,.44,4.1.59,6.14.66l-.07.06c6.08,0,10.32-.37,15.94-.54,3.49.48,11.82.2,17.43.47-.85-.08.14-.34,1.14-.39,1.32.09,3.64-.3,3.43.1h-.47c1,.4,3.7.29,5.81.3l.35-.52c5.52.76,14.48-.29,17.49.4,1.33-.13,3-.13,4.31-.26l-.07.28c3.69.07,5.54.11,10.1,0l-.93.21c2.58,0,3.25-.82,5.63-.84l.71.42c4.5,0,9,.37,13.49,0-.08.06-.21.18-.94.2,2.12,0,8.19.28,7.42-.3,0,.38,4.63,0,7.06-.13l-.38.28a24.53,24.53,0,0,1,5-.55c.68,0,.59.22-.31.15,2.26.15,1.76-.26,4.5-.11l-1,.17a11.58,11.58,0,0,0,3.42-.28,16.51,16.51,0,0,1,4.75.33,8.34,8.34,0,0,1,3-.29c.18.09-.32.15-.57.18,3.89.19,5.78-.32,8.45,0a.68.68,0,0,0,.45.17c-3.08,0-5.57,0-5.34,0,0,.25,2.5.3.51.65a61.47,61.47,0,0,1,7.86-.49,1.35,1.35,0,0,1,.32.09l-.25,0a12.52,12.52,0,0,0,1.53,0c.78,0,1.27.07,2,.07a23.71,23.71,0,0,0,4.1.13c-.1-.28,1.53-.24,0-.47.2,0-.23,0-1.06,0l-.53,0,.08,0-3.09,0a11.85,11.85,0,0,1,3.39-.11c.63-.18,1.34-.37,1.73-.45,1.7.39,5,.6,5.44.84,3.8-.15,8.95-.1,11.33-.63a3.39,3.39,0,0,1,1.65.24c-.63,0-1.37,0-1.7.12,2.15-.14,6.39-.06,6.91-.43,2.72.17-1.53.34,2.2.28l-.5.12c7.35.59,12-1,20.11-.19a3.38,3.38,0,0,1-1-.13c9.29.34,19.15-.31,28.32.22a18.76,18.76,0,0,0,4.48-.31l.57.3,2.72-.35c3.86-.25,6.68.74,11.56.26l-.63-.2c1.76,0,5.56-.12,5.27.11a2.72,2.72,0,0,1,1.26-.1l.05.16,4.31-.28c3.34.12-.52.63,4.35.66,1.81-.06,5.16-.46,4.48-.56a4.93,4.93,0,0,1-1.92-.26l1.65-.08c.3-.47,1.58-.94-2.49-1.27l-2.83.28-.92-.22,2.39,0a9.48,9.48,0,0,0-3.17.11,3.51,3.51,0,0,0-1.19-.25l-2.78.45c-.34-.19,1.24-.37-.62-.47-1.31.21,1.25.41-.91.55a5.41,5.41,0,0,0-2.55-.21c-.23-.12.11-.19.74-.24-1.42.14-3.75.06-4.48.3-1.41-.26-4.78.07-4.64-.37a26.33,26.33,0,0,1-3.8.36c2.38-.52-4.87,0-4.24-.59-1.76.47-6.36.21-9.48.47a3,3,0,0,1,.8-.09c-1.76,0-2.27-.18-3.4-.27-.22.39-3,.48-4.43.72-2.15-.37,1.31-.46.64-.82.1.32-3.74.32-3,.58a6.65,6.65,0,0,1-2.26-.44c-.29.49-1.53.09-2.9.39-2.38-.24-.61-.46-3.22-.31C239.75,68.08,242.08,67.9,242.08,67.9Zm-62.17.85h0l1.28,0Zm-5.23,0H177c.18.09,0,.19-.54.19C176.69,68.89,175.46,68.84,174.68,68.76Zm11,1.94a3,3,0,0,1-1.22-.07l1.45,0,.1,0A.73.73,0,0,1,185.73,70.7Z"/><path class="cls-1" d="M187.22,70.33l.34,0-.49-.06-.3.09Z"/><path class="cls-1" d="M254.18,11.08h-.11a1.07,1.07,0,0,1,.23,0Z"/><polygon class="cls-1" points="102.54 68.22 102.54 68.29 103 68.23 102.54 68.22"/><path class="cls-1" d="M283,12.05a1.45,1.45,0,0,0,.38.07A1.35,1.35,0,0,0,283,12.05Z"/><path class="cls-1" d="M295.39,12.11l1.76.1C296.38,12.15,295.83,12.13,295.39,12.11Z"/><path class="cls-1" d="M299.33,16.36a.5.5,0,0,0,.12.19v0Z"/><path class="cls-1" d="M153,12.58h-.37C151.76,12.65,152.34,12.63,153,12.58Z"/><path class="cls-1" d="M198.21,11.92l-1.45.14C197.56,12.08,198.19,12.08,198.21,11.92Z"/><path class="cls-1" d="M102.49,12.92h0Z"/><path class="cls-1" d="M194.65,12.05a16.6,16.6,0,0,0,2.11,0C196.1,12,195.32,12,194.65,12.05Z"/><path class="cls-1" d="M299.21,57.78l0,.46s0,0,.05.06Z"/><path class="cls-1" d="M299.24,58.3l0,.51A2.05,2.05,0,0,0,299.24,58.3Z"/><path class="cls-1" d="M299.34,59.89l-.07-1.08A4.45,4.45,0,0,0,299.34,59.89Z"/><path class="cls-1" d="M299.34,45.13l-.11-.14C299.26,45.07,299.29,45.12,299.34,45.13Z"/><path class="cls-1" d="M299.31,41.29c0,.91-.22,2.3-.16,3.58l.08.12C299.08,44.39,299.48,42.16,299.31,41.29Z"/><path class="cls-1" d="M300.57,25.24l-.08,3.22c.1-.56.25-1.3.28.16C301.09,24.56,300.52,29.46,300.57,25.24Z"/><path class="cls-1" d="M300.72,15.25c0,1.73.16,0,.22.07C300.84,14.22,300.82,14,300.72,15.25Z"/><path class="cls-1" d="M231.64,10.86l.18-.26C230.48,10.64,231.8,10.7,231.64,10.86Z"/><polygon class="cls-1" points="217.84 12.18 219.14 12.34 219.76 12.1 217.84 12.18"/><polygon class="cls-1" points="209.69 10.36 210.27 10.32 208.05 10.41 209.69 10.36"/><path class="cls-1" d="M88.45,10.45l.4.31C89.75,10.71,89.94,10.35,88.45,10.45Z"/><path class="cls-1" d="M36.11,10.77a8.78,8.78,0,0,0-3-.1C34.33,10.69,35.51,10.81,36.11,10.77Z"/><polygon class="cls-1" points="88.65 70.74 87.6 70.85 89.58 70.76 88.65 70.74"/><path class="cls-1" d="M310.33,76.5c.09.4.29.17.25-.93l-.33-.79Z"/><path class="cls-1" d="M311,69.07c-.16-1.3-.44-2.8-.75-2,.32,1.29.19,1.6.57,3,0,1.11-.11,1.93-.23,1.75a15.07,15.07,0,0,0,.13,2.31,18.75,18.75,0,0,0,.06-5.17C310.8,68.58,310.89,69,311,69.07Z"/><path class="cls-1" d="M268.53,3l.69,0A4.58,4.58,0,0,0,268.53,3Z"/><path class="cls-1" d="M201.59,2.85a2,2,0,0,0,.75-.07C201.86,2.81,201.48,2.83,201.59,2.85Z"/><path class="cls-1" d="M190.16,2.49l.67,0A2.6,2.6,0,0,0,190.16,2.49Z"/><path class="cls-1" d="M268.53,3l-1.79-.11C266.61,3,267.66,3,268.53,3Z"/><path class="cls-1" d="M310.15,54.17c0,.37.05.68.09,1,0-.31,0-.61,0-.91Z"/><path class="cls-1" d="M298,2.77h.54l.45-.14Z"/><path class="cls-1" d="M311.78,13.18a1.21,1.21,0,0,0-.39-.88,3.31,3.31,0,0,1,.19,1.11C311.64,13.42,311.7,13.35,311.78,13.18Z"/><path class="cls-1" d="M311.29,49.09l0,.64C311.32,49.56,311.3,49.28,311.29,49.09Z"/><path class="cls-1" d="M281.83,2.71a.46.46,0,0,0-.21-.1S281.7,2.68,281.83,2.71Z"/><path class="cls-1" d="M284.75,75.18s0,0,0,0S284.92,75.18,284.75,75.18Z"/><path class="cls-1" d="M311,76.57l-.36,0a.27.27,0,0,0-.08.16Z"/><path class="cls-1" d="M169.24,2.13h.1C169.89,2.1,169.58,2.11,169.24,2.13Z"/><path class="cls-1" d="M1.92,29.35c.25-2.17.32,3.54.6.27C2.41,29.92,2.08,26.64,1.92,29.35Z"/><path class="cls-1" d="M310.19,53.58c0-.31,0-.62,0-.93C310.17,53.08,310.18,53.36,310.19,53.58Z"/><path class="cls-1" d="M2.52,29.62h0l0-.34C2.54,29.42,2.53,29.5,2.52,29.62Z"/><path class="cls-1" d="M121.05,2.3a1.93,1.93,0,0,0,.49.12S121.41,2.36,121.05,2.3Z"/><path class="cls-1" d="M157,2.7l-.88,0C156.42,2.69,156.7,2.7,157,2.7Z"/><path class="cls-1" d="M102.41,2.7a8.85,8.85,0,0,0-1.31,0l.2,0A4.25,4.25,0,0,1,102.41,2.7Z"/><path class="cls-1" d="M83,2.7l.36,0H84Z"/><path class="cls-1" d="M225.78,75.32a3.63,3.63,0,0,1,.9.25C226.38,75.37,229.23,75.3,225.78,75.32Z"/><path class="cls-1" d="M310.31,54.16a1.19,1.19,0,0,1-.12-.58c0,.22,0,.44,0,.65C310.24,54.28,310.28,54.29,310.31,54.16Z"/><path class="cls-1" d="M101.62,4.91l-3.08,0C99.4,4.9,100.52,4.91,101.62,4.91Z"/><path class="cls-1" d="M86.59,75.36l.7,0A3.61,3.61,0,0,0,86.59,75.36Z"/><path class="cls-1" d="M89.39,4.91a15.44,15.44,0,0,0-1.74-.19,2.39,2.39,0,0,0-.35.07Z"/><path class="cls-1" d="M226.69,75.57h0Z"/><path class="cls-1" d="M247,74.9c-2.94,0-1.38.37-2,.58-3.51.1-1.62-.27-2.82-.46-2.19.09-3.87.43-5.5.42-.12-.06-.44-.08-.07-.16-2.31.29-6.87,0-9.56.38a1.07,1.07,0,0,1-.35-.09c.43.19.5.37.41.51a11.4,11.4,0,0,1-2.94,0,3.42,3.42,0,0,0,1.25-.17L224,76c-1.24-.35,1.89-.12,1.89-.38-2.69.12-5.83.4-7.89.3-.43-.34,4.82-.11,2.07-.41l3.19.13c-2.44-.54,1.94,0-.3-.54-4.2-.1-4.7.18-8.89.08-.94.18.32.28-.63.46-5.95.34-4.68-.85-9.06-.4a10.6,10.6,0,0,1-4.69.43l1.07-.38c-4.07,0-2.32.55-6.58.29.76-.15,3.19-.13,2.58-.17-2.76-.31-1.95.22-4.07.22l-.44-.34c-4.33,0-9.09.29-13.89.36.27-.1,1.09-.21,0-.31-6.05.17-12.9,0-18.74-.25l-2.22.3c-.52,0-1-.14-.4-.19-2.27-.12-.12.18-1.21.3-1.3,0-1.71-.17-.89-.26a142.59,142.59,0,0,1-15.65.22l.83-.08c-3.29-.12-3.72.6-6.77.32l.59,0c-7.14-.13-15,.14-20.48-.3-1,.42-7.07-.19-7.53.4-4.07-.29-2.9-.4-8.65-.59-1.53,0-2.28.37-4.18.43l0-.31-2.58.32-1.37-.37-1.78.08c.71,0,1.51.14,1.4.23a32.86,32.86,0,0,1-6.84-.37l-6.57.26a10.66,10.66,0,0,1,2.12-.25c-3.51.32-.64-.32-3.85,0,.43.07-.24.18-.31.24a73.15,73.15,0,0,0-7.95-.11l.52-.21c-4.87,0-10.28.1-15.75.1,2,.1,1.52.46-.09.5l-.64-.33c-1,.21,1.68.13-.45.37-2,0-1.38-.37-.2-.47l-2.49.11c-.14-.1.44-.15.59-.27-1,.2-4.29-.33-5.76,0L40.88,75c-5.46,0-8,.1-12.4.12-.09.28-1.83.22-3.16.45-3.27-.09-6.9-.31-10.85-.29-2.77.14-.81.24-2.05.41-.21-.26-4.15-.24-2.1-.42l-3.75,0-1.67,0H4.5l-.3,0c0-.08,0-.16,0-.26l0-.17v-.12c0-.09,0-.19,0-.29,0-.8-.06-1.74-.09-2.85-.11.65-.15,1.38-.24,1,0-1.09.11-2.47.23-2.32l0,.29c-.39-6.72.74-15.51.21-20.86l0,.3L4,44.56c0-2.55.19,1.53.35-.36-.43-6,.06-9.46-.23-14.39.76-3.81,0-13.54.43-18.69l-.17.3a9.36,9.36,0,0,1,.14-2.59c-.14.14-.16,1.44-.26.62,0-1.58,0-3.18,0-4.81l6,.06,7.25.13L32,5.12c4.22,0,2.39-.92,7.73-.5L38.19,5c8.54-.39,17.45,0,25.8-.32a4.43,4.43,0,0,1-1.32.17,28.33,28.33,0,0,0,6.55-.18c1.3,0,.3.18,1.1.28,1.77.14,4.45-.31,5.39-.07.16,0-.5.08-.82.1,1.15-.12,5.37,0,4.27-.25,3.13.13,6-.13,8.49,0,1.63-.31,5.37.15,5.89-.29-.23.45,5.5.36,7.48.15-.67.14,1.72.14.94.33,2.27,0,4.34-.09,4-.32,4.16.54,8.37-.44,10.72.26,6.72-.24,12.94-.41,19-.52-.21.46-6.68,0-6.42.52,5.74-.18,9-.57,14.73-.46,1.47.06-.83.19-1.33.27,5.73-.18,11.08,0,16.17-.2a5.23,5.23,0,0,1-1.08.12c1,0,2.34.07,2.22-.14l-1,.06c-1.6-.3,4-.63,4.17-.78-1.7.59,5,.15,2.33.89.66,0,1.49-.14,1.34-.28,1,0,1.29.12.3.28,3.6-.11,2.32-.33,5.58-.32,0,.1-.67.13-1,.25a36.2,36.2,0,0,1,6.07-.3c-.17.06.15.13-.67.13,4.73,0,8.06-.51,13.26-.33-1.54.44,1.76.15,2,.52l2.79-.11L194,4.27c2.44,0,4.6-.27,6.71-.15l-1.82.16,4.58-.07-2.59-.14c2.47-.2-.27-.48,3-.37-.66,0,2.44,0,3.72.22h0a26,26,0,0,1,4.26-.15c.47.12-.37.41-.07.49C213,4,217.5,4.18,219,3.84c-.5.08-.53.28-.37.32l1-.25c1.13.08,1.3.12,1.11.27,3.41.05-1.08-.47,3-.27-.31,0-.16.06-.82.1,4.06.11,7.84-.16,11.58,0,1.1.38-3.27.1-2,.41,5.39-.07,11.15-.45,16.35-.36l-1,0c.73-.53,3.88.26,6.52,0-.65,0-.85.3-.68.24,3.57.08,7.3-.13,12.7-.3l-.67.14c2.1.12,5.53.07,7.81.13.67-.14,2-.12,1.18-.31,7,.77,13.35-.42,19.56.23-.74,0-1.77.11-1.18.12l5.29-.13c-.42-.23-.69-.14-1.8-.32a21.57,21.57,0,0,1,3.47-.24c-2.38.15,0,.37,1.05.5-.17-.07.18-.15.09-.22,2.77.41.47-.47,4.24-.19l-.2.12c1.41-.06,2.71-.22,4.23-.19.61.27-1.48.13-1.6.35.53,0,1.08,0,1.57-.08l1.38-.15a11.6,11.6,0,0,1,0,2.83c0-.43-.05-1-.07-1.49s0-.89-.07-1.21h0a13.83,13.83,0,0,0-.23,1.75c0,.51,0,1,0,1.73V7.16l-.14,3.62.08-.92c.7,2.68.13,5.45.58,9.06-.43-3.51-.25-.58-.55-.85-.08.92-.18,2.32-.26,1.92.24,1.7-.19,2.84.16,5.25-.09.11,0,1.82-.25,1.44.07,2.21.17-.53.29-.34.33,3.42-.4,8,.05,12.94.19,4.24.52,5,.68,8.95-.15,1.33-.35-1.09-.35-1.09a44.46,44.46,0,0,0,0,5.77c-.08-.41-.15,0-.26.63,0,1.62.35,1.08.21,3.22a9.35,9.35,0,0,1-.39-1.62c.09,1.91.27,3.79.36,5.76-.17.53-.26-1.19-.37-1.88a44.75,44.75,0,0,0,.42,6.43l.1-1.42c0,.81-.23.41-.28-.18a5.09,5.09,0,0,1,.19-2.85l.06,1.4c.57-1.44-.09-5.64-.06-8.48l.42,1.18-.35-2.9c.11-.62.34-1,.4.36.21-2-.14-1.8.09-3.54,0-.19,0-.11.07.07l-.13-2c.09.39.3-.33.24.89.24-3.56-.31-5.74,0-7.08l0,.3c-.14-4.94-.31-.48-.67-4.19l.76-2.49-.31-.48c0-.51,0-1.52.16-1.33-.21-1.9-.14.32-.33-.78.27-2.45-.13-6.76.35-7.32-.23-.88-.18,2.35-.34-.27.53-.74-.09-3,.15-5.26.27.68.13,2.81.37.56-.46-1.35.1-4.36,0-6.25-.36-.09-.15-4.11-.27-7.28,0,0,.05-.22.08-.69s0-1.43.07-2.4L307.73,3l-3-.1.09-.06c-.58.36-3.62.29-5.83.37.08-.22.48-.31,1.68-.4h-2.08a12.57,12.57,0,0,1-2.49.22l.52-.28c-2.77,0-5.58.33-9.15.14-.2.26,2.84.72-.93.89-.14-.14-.28-.38.71-.43a12.11,12.11,0,0,1-1.81,0l1.51-.23c-1.63-.1-.85.19-2.15.17,0-.19-1-.14-.77-.29a14.68,14.68,0,0,0,1.63,0,26.52,26.52,0,0,1-3.82-.3c.12.11,0,.26-1.08.29-2.77,0-.94-.24-2.56-.34-.67.14-2.44,0-2.49.29a3.15,3.15,0,0,1-1.27-.22c-1.44.13-6.7,0-5.08.35l.36,0-.23,0h0c-4.7.29-9.77-.17-14.43-.05V3c-2.78.11-6.19.06-8.18.28-.83,0-2-.19-1.6-.3a41.55,41.55,0,0,1-5.44,0c2.14-.17-.74-.15,2.2-.13a38.79,38.79,0,0,0-6.37,0c1-.25-2.08-.32-3.39-.24l1.93.18c-1.47,0-2.77,0-4.08,0l.71-.33c-5.66-.41-10.21.69-14.52,0-1.49.23,3.08.16,1.74.44-2.61-.05-5.32-.53-6.13-.53-3.57-.18-3.33.49-7.06.36.47.12.92.44-1.87.55-2.6,0-3.2-.5-1.55-.59.62,0,.92,0,.9.06.84,0,1.94-.09.91-.22l-.34.12c-1.29-.12-4.87-.11-4-.3-2,.11-.84.19.61.25-3.34-.17-5.22,0-8.66-.12.55.07,1,.21.51.21-5.05-.15-2.22.22-5.64.27-1.94-.18.7-.43-2.75-.28-2.1-.12-.44-.31.39-.41a63.16,63.16,0,0,1-7.64-.19l1.65-.1c-1,.06-1.8.06-2.62.06l.94.24a6.56,6.56,0,0,1-1.77-.15c-1,.16.76.4-1.22.61-1.29-.12-3.94.13-4.38-.18,4.06.1-.45-.32,3-.37-.67,0-1.48,0-2.45,0-.14,0,.14-.06.4-.08-3.89-.28-1.78.36-5.82.35.52-.18-.93-.34-1.59-.3,1.63,0,.78.3-.71.43A35.28,35.28,0,0,0,157,2.7l1.55.06a20.05,20.05,0,0,1-3.62.21c-.15-.13,1.64-.09,1-.15-2,.31-4.52-.33-7.31-.12-1.29-.12-.12-.33-1.26-.41-3.13.23-3.38-.24-6.67,0,.94.24,1.11.18-1.2.41l5.4-.17-3.47.35c1.63,0,3.44-.15,4.42-.11-1.65.19-1.48.13-.7.33-2.23-.36-4.43.21-7,0l.08-.59c-3.87-.26-6.89.3-11.92.15l1.62.11a44.7,44.7,0,0,1-4.74.12c.15-.19-.87-.27-1.57-.39.09.15-3.68,0-4.14.38l-2.25-.26c-4.07-.1-4.64.57-8.55.5,1.18-.22-.6-.36,2-.51a9.38,9.38,0,0,0-2.5.1c-.76-.12-3.62.26-4.82.08A7,7,0,0,1,99.11,3c-.16,0,0-.09,0-.09s-2.29.13-1,.35c-4-.62-11.23,0-14.73-.49-2.85.07-6.28.13-8.87.15.17-.06,0-.1.5-.08-3.57-.18-2.2.57-6.25.36-2.08-.32,2.15-.17.86-.29-.56-.65-4.9.09-7.63-.29l.66,0c-2.09-.22-5.09.25-8.5.2,0,0,.16-.06,0-.1-2.34.33-6.75.44-10,.53,1-.25,1.49-.13.86-.39-1.47,0,.43.42-2.5.49-1-.14-3.07-.26-3.35-.54H41.9c-1.41-.36-3.58,0-5-.05l.19-.16c-4.25.05-4.31.44-8.87.42l.47.11c-2.49.39-2.09-.21-4.57.08l-.76-.4c-1.64.1-5.76.38-8.71.46,1.67-.3,5.13-.45,7.26-.62a62.4,62.4,0,0,0-6.39.22,17.07,17.07,0,0,1,2.14-.07,53.9,53.9,0,0,1-7.89.46c.19-.25-.65-.36-1.95-.41-.65,0-1.41,0-2.22,0l-3.28,0c0,.65,0,1.29,0,1.9,0,.26,0,.52,0,.77s0,.39,0,.57A10.27,10.27,0,0,1,2,7.68c.29,5.74-.12,11.4-.07,18.09.59-2.37,0,2,.63,1.55a15.92,15.92,0,0,1,0,2.29l-.37,4.73C2,35.46,2,32.85,1.89,33c0,3.41-.26,1.43-.42,3.69.22-.46.31,1.19.23,3.13L2,37.08c.32,4.78-.51,4.13-.19,8.94l-.2-1.52c.12,2.47,0,9.1.49,11.52-.07.44-.24,1-.28-.07-.07,5.9.52,13.13.22,17.72l-.15-.45c0,.55.09,1,.14,1.54,0,.09,0,.35,0,.56s0,.44,0,.68c0,.47,0,1,0,1.58H2c-.05-.07-.12-.5-.14.15H2L5,77.6a21.45,21.45,0,0,1,2.52,0l-1.25.16c5.75.2,8.83-.41,13.66-.51,0,.44,4.51.59,6.77.66l-.08.06c6.7,0,11.38-.37,17.59-.54,3.85.48,13,.2,19.23.47-.94-.08.16-.34,1.26-.39,1.45.09,4-.3,3.78.1H68c1.09.4,4.08.29,6.41.3l.38-.52c6.1.76,16-.29,19.31.4,1.47-.13,3.29-.13,4.75-.26l-.08.28c4.08.07,6.11.11,11.15,0l-1,.21c2.84,0,3.59-.82,6.21-.84l.79.42c5,0,10,.37,14.88,0-.08.06-.23.18-1,.2,2.33,0,9,.28,8.18-.3.06.38,5.12,0,7.8-.13l-.42.28a29.63,29.63,0,0,1,5.49-.55c.75,0,.65.22-.34.15,2.49.15,1.94-.26,5-.11l-1.12.17a14,14,0,0,0,3.77-.28,20,20,0,0,1,5.24.33,10.14,10.14,0,0,1,3.27-.29c.2.09-.35.15-.63.18,4.29.19,6.38-.32,9.33,0,.06.09.25.14.5.17-3.41,0-6.15,0-5.9,0,0,.25,2.76.3.57.65a74.58,74.58,0,0,1,8.66-.49,1.72,1.72,0,0,1,.36.09l-.28,0a15.51,15.51,0,0,0,1.7,0c.85,0,1.4.07,2.22.07a28.86,28.86,0,0,0,4.53.13c-.12-.28,1.68-.24,0-.47.21,0-.26,0-1.18,0l-.58,0,.09,0-3.41,0a14.43,14.43,0,0,1,3.74-.11c.7-.18,1.48-.37,1.91-.45,1.88.39,5.5.6,6,.84,4.19-.15,9.87-.1,12.51-.63a4,4,0,0,1,1.81.24c-.69,0-1.5,0-1.88.12,2.39-.14,7.06-.06,7.63-.43,3,.17-1.69.34,2.44.28l-.56.12c8.12.59,13.19-1,22.19-.19a4.25,4.25,0,0,1-1.06-.13c10.25.34,21.14-.31,31.26.22a22.83,22.83,0,0,0,4.94-.31l.62.3,3-.35c4.25-.25,7.37.74,12.76.26l-.7-.2c1.94,0,6.13-.12,5.81.11a3.33,3.33,0,0,1,1.39-.1l.06.16,4.75-.28c3.69.12-.57.63,4.81.66,2-.06,5.69-.46,4.94-.56a6,6,0,0,1-2.12-.26l1.83-.08c.33-.47,1.73-.94-2.75-1.27l-3.13.28-1-.22,2.63,0a11.54,11.54,0,0,0-3.5.11,4.15,4.15,0,0,0-1.31-.25l-3.07.45c-.37-.19,1.38-.37-.68-.47-1.44.21,1.38.41-1,.55a6.54,6.54,0,0,0-2.81-.21c-.25-.12.12-.19.82-.24-1.56.14-4.14.06-4.94.3-1.56-.26-5.28.07-5.13-.37a31.7,31.7,0,0,1-4.19.36c2.62-.52-5.37,0-4.68-.59-1.94.47-7,.21-10.45.47a3.58,3.58,0,0,1,.87-.09c-1.94,0-2.5-.18-3.74-.27-.25.39-3.27.48-4.89.72-2.37-.37,1.44-.46.7-.82.12.32-4.13.32-3.32.58a8.14,8.14,0,0,1-2.5-.44c-.32.49-1.69.09-3.19.39-2.63-.24-.68-.46-3.56-.31C244.43,75.08,247,74.9,247,74.9Zm-68.61.85h0l1.42,0Zm-5.76,0h2.5c.2.09,0,.19-.6.19C174.84,75.89,173.48,75.84,172.62,75.76Zm12.19,1.94a3.51,3.51,0,0,1-1.34-.07l1.6,0,.1,0A.77.77,0,0,1,184.81,77.7Z"/><path class="cls-1" d="M186.45,77.33l.38,0-.54-.06-.33.09Z"/><path class="cls-1" d="M269.35,3.08h-.13a1.43,1.43,0,0,1,.26,0Z"/><polygon class="cls-1" points="93.01 75.22 93.02 75.29 93.52 75.23 93.01 75.22"/><path class="cls-1" d="M301.1,4.05a1.85,1.85,0,0,0,.42.07A1.62,1.62,0,0,0,301.1,4.05Z"/><path class="cls-1" d="M310.39,7.32l-.1,1.94C310.35,8.42,310.37,7.8,310.39,7.32Z"/><path class="cls-1" d="M310.25,17.86a.56.56,0,0,0,.12.21v0Z"/><path class="cls-1" d="M157.68,4.58h-.41C156.32,4.65,157,4.63,157.68,4.58Z"/><path class="cls-1" d="M207.58,3.92l-1.6.14C206.86,4.08,207.55,4.08,207.58,3.92Z"/><path class="cls-1" d="M102,4.92h0Z"/><path class="cls-1" d="M203.66,4.05a20.06,20.06,0,0,0,2.32,0C205.25,4,204.39,4,203.66,4.05Z"/><path class="cls-1" d="M310.12,63.57v.51s0,0,.05.06Z"/><path class="cls-1" d="M310.16,64.14l0,.56A2.51,2.51,0,0,0,310.16,64.14Z"/><path class="cls-1" d="M310.26,65.89l-.07-1.19A5.36,5.36,0,0,0,310.26,65.89Z"/><path class="cls-1" d="M310.25,49.61l-.1-.16A.22.22,0,0,0,310.25,49.61Z"/><path class="cls-1" d="M310.22,45.37c0,1-.21,2.54-.15,4l.08.13C310,48.79,310.4,46.33,310.22,45.37Z"/><path class="cls-1" d="M311.48,27.66l-.08,3.55c.11-.62.26-1.43.28.18C312,26.91,311.44,32.32,311.48,27.66Z"/><path class="cls-1" d="M311.64,16.64c.05,1.91.16,0,.22.07C311.76,15.5,311.74,15.21,311.64,16.64Z"/><path class="cls-1" d="M244.47,2.86l.2-.26C243.19,2.64,244.65,2.7,244.47,2.86Z"/><polygon class="cls-1" points="229.25 4.18 230.68 4.34 231.36 4.1 229.25 4.18"/><polygon class="cls-1" points="220.25 2.36 220.89 2.32 218.44 2.41 220.25 2.36"/><path class="cls-1" d="M86.46,2.45l.44.31C87.9,2.71,88.11,2.35,86.46,2.45Z"/><path class="cls-1" d="M28.7,2.77a10.63,10.63,0,0,0-3.25-.1C26.74,2.69,28,2.81,28.7,2.77Z"/><polygon class="cls-1" points="77.69 77.74 76.53 77.85 78.72 77.76 77.69 77.74"/><path class="cls-2" d="M49.41,29.12l-.3,3.26h-.77A11.69,11.69,0,0,0,48,31.25a1.74,1.74,0,0,0-.5-.75,2.14,2.14,0,0,0-1-.42A9,9,0,0,0,44.79,30h-2v7.18a14.14,14.14,0,0,0,1.83,0c.55,0,1-.07,1.43-.12a10.88,10.88,0,0,0,1.23-.23,3.46,3.46,0,0,1,0,.43,3.51,3.51,0,0,1-.17.9,1,1,0,0,1-.73.65,2.07,2.07,0,0,1-1.13,0l-2.49-.7V48.77a14.17,14.17,0,0,0,.1,1.91,7.86,7.86,0,0,0,.23,1.22,2.21,2.21,0,0,0,.37.83H38.53a2.59,2.59,0,0,0,.34-.83c.08-.31.17-.72.25-1.22a13.61,13.61,0,0,0,.11-1.87V33.14a14.58,14.58,0,0,0-.11-1.93C39,30.7,39,30.29,38.87,30a2.6,2.6,0,0,0-.34-.86Z"/><path class="cls-2" d="M57.29,28.82a6.14,6.14,0,0,1,2.26.4,5.41,5.41,0,0,1,1.78,1.08,4.67,4.67,0,0,1,1.15,1.6,4.84,4.84,0,0,1,.4,1.94V48a4.56,4.56,0,0,1-.44,2,4.82,4.82,0,0,1-1.18,1.58,5.92,5.92,0,0,1-1.78,1.06,6,6,0,0,1-2.22.4,6.28,6.28,0,0,1-2.28-.4,6.08,6.08,0,0,1-1.81-1.06A4.88,4.88,0,0,1,52,50a4.55,4.55,0,0,1-.43-2V33.84A4.29,4.29,0,0,1,52,31.9a5,5,0,0,1,1.23-1.6A5.82,5.82,0,0,1,55,29.22,6.2,6.2,0,0,1,57.29,28.82Zm2.06,4.92a1.92,1.92,0,0,1-1.13.4,3.29,3.29,0,0,1-1.15-.28,1,1,0,0,1-.58-.92,2,2,0,0,0,1.07.17,2,2,0,0,0,.91-.36A1.92,1.92,0,0,0,59,32a2,2,0,0,0,.05-1.09V30.8a2.72,2.72,0,0,0-.64-.8,1.71,1.71,0,0,0-1.16-.35,2,2,0,0,0-1.08.27,2,2,0,0,0-.68.66,2.52,2.52,0,0,0-.37.86,3.94,3.94,0,0,0-.1.87v17.3a3.8,3.8,0,0,0,.1.83,2.6,2.6,0,0,0,.35.86,2.28,2.28,0,0,0,.67.68,2.22,2.22,0,0,0,2.12,0,1.89,1.89,0,0,0,.65-.67,2.55,2.55,0,0,0,.32-.86,5.52,5.52,0,0,0,.08-.87Z"/><path class="cls-2" d="M76.38,52.73H65.14a3.35,3.35,0,0,0,.36-.87,8.61,8.61,0,0,0,.25-1.24,13.17,13.17,0,0,0,.12-1.95V33.18a13.17,13.17,0,0,0-.12-1.95A8.8,8.8,0,0,0,65.5,30a3.41,3.41,0,0,0-.36-.86h5a2.22,2.22,0,0,0-.37.86,6.46,6.46,0,0,0-.27,1.25,17.2,17.2,0,0,0-.1,1.95V50.47a1.5,1.5,0,0,0,.39.9,1.64,1.64,0,0,0,.61.38,3,3,0,0,0,1,.15h1.17a2.43,2.43,0,0,0,1.23-.28,2.24,2.24,0,0,0,.75-.75,4.54,4.54,0,0,0,.44-1c.12-.39.23-.78.34-1.18h.76Z"/><path class="cls-2" d="M89.21,52.73H78a3,3,0,0,0,.37-.87,10.25,10.25,0,0,0,.25-1.24,13.17,13.17,0,0,0,.12-1.95V33.18a13.17,13.17,0,0,0-.12-1.95A10.48,10.48,0,0,0,78.34,30a3.06,3.06,0,0,0-.37-.86h5a2.23,2.23,0,0,0-.36.86,6.46,6.46,0,0,0-.27,1.25,15.14,15.14,0,0,0-.1,1.95V50.47a1.46,1.46,0,0,0,.08.41,1.51,1.51,0,0,0,.3.49,1.68,1.68,0,0,0,.62.38,3,3,0,0,0,1,.15h1.16a2.43,2.43,0,0,0,1.23-.28,2.24,2.24,0,0,0,.75-.75,4.16,4.16,0,0,0,.45-1l.33-1.18H89Z"/><path class="cls-2" d="M97.06,28.82a6.1,6.1,0,0,1,2.26.4,5.41,5.41,0,0,1,1.78,1.08,4.74,4.74,0,0,1,1.55,3.54V48a4.7,4.7,0,0,1-.43,2A5,5,0,0,1,101,51.57,6.06,6.06,0,0,1,97,53a6.28,6.28,0,0,1-2.28-.4,6.08,6.08,0,0,1-1.81-1.06A4.88,4.88,0,0,1,91.74,50a4.55,4.55,0,0,1-.43-2V33.84a4.29,4.29,0,0,1,.45-1.94A5,5,0,0,1,93,30.3a5.75,5.75,0,0,1,1.83-1.08A6.14,6.14,0,0,1,97.06,28.82Zm2.06,4.92a1.9,1.9,0,0,1-1.13.4,3.18,3.18,0,0,1-1.14-.28,1,1,0,0,1-.59-.92,2,2,0,0,0,1.07.17,1.94,1.94,0,0,0,.91-.36,1.76,1.76,0,0,0,.57-.79,1.91,1.91,0,0,0,0-1.09V30.8a2.86,2.86,0,0,0-.63-.8,1.76,1.76,0,0,0-1.17-.35,2,2,0,0,0-1.08.27,2.14,2.14,0,0,0-.68.66,2.52,2.52,0,0,0-.37.86,4.65,4.65,0,0,0-.1.87v17.3a4.54,4.54,0,0,0,.1.83,2.83,2.83,0,0,0,.35.86A2.28,2.28,0,0,0,96,52a2.24,2.24,0,0,0,2.13,0,2.08,2.08,0,0,0,.65-.67,2.53,2.53,0,0,0,.31-.86,4.54,4.54,0,0,0,.08-.87Z"/><path class="cls-2" d="M126.56,29.62c-.09.17-.18.37-.28.6a3.1,3.1,0,0,0-.22.79l-4.12,20.36a4.11,4.11,0,0,0,.16.63l.17.43a3.2,3.2,0,0,0,.17.3h-5c0-.09.1-.19.16-.3a6,6,0,0,0,.3-1c-.11-.57-.24-1.3-.4-2.18s-.32-1.84-.49-2.89-.38-2.14-.59-3.27-.41-2.25-.61-3.36l-2.36,11.64a4.11,4.11,0,0,0,.16.63l.17.43a3.2,3.2,0,0,0,.17.3h-5c0-.09.1-.19.16-.3a6,6,0,0,0,.3-1c-.13-.75-.31-1.77-.55-3.06s-.47-2.66-.73-4.14-.52-3-.79-4.45-.53-2.86-.74-4.08-.46-2.6-.74-4.15a10.39,10.39,0,0,0-.29-1,6.47,6.47,0,0,0-.31-.77c-.11-.24-.24-.47-.37-.7h5a2.92,2.92,0,0,0-.33.77,5.86,5.86,0,0,0-.14,1,5.58,5.58,0,0,0,.14,1.39q.6,3.46,1.19,6.76c.16.93.32,1.89.5,2.89s.35,2,.52,2.92.33,1.88.48,2.76.3,1.68.43,2.37l2.63-13c-.27-1.55-.49-2.84-.68-3.86s-.28-1.54-.28-1.56a10.39,10.39,0,0,0-.29-1,6.47,6.47,0,0,0-.31-.77,5.16,5.16,0,0,0-.37-.66h5a3.78,3.78,0,0,0-.33.76,5.2,5.2,0,0,0-.14,1,5.58,5.58,0,0,0,.14,1.39c.4,2.31.79,4.56,1.19,6.76.16.93.33,1.89.5,2.89s.35,2,.52,2.92.32,1.88.48,2.76.3,1.68.43,2.37l3.93-19.29a3.15,3.15,0,0,0,0-.53c0-.18,0-.35,0-.5a4.77,4.77,0,0,1,0-.5h1.8A2.13,2.13,0,0,0,126.56,29.62Z"/><path class="cls-2" d="M144.82,29.12l-.3,3.29h-.77c-.11-.42-.21-.79-.31-1.1a1.71,1.71,0,0,0-.48-.76,2.23,2.23,0,0,0-.94-.45,7.16,7.16,0,0,0-1.66-.15V48.67a15.14,15.14,0,0,0,.1,1.95,6.34,6.34,0,0,0,.27,1.24,2.37,2.37,0,0,0,.36.87h-5a3.56,3.56,0,0,0,.37-.87,10.25,10.25,0,0,0,.25-1.24,13.17,13.17,0,0,0,.12-1.95V30a7.25,7.25,0,0,0-1.67.15,2.13,2.13,0,0,0-.93.45,1.71,1.71,0,0,0-.48.76c-.1.31-.21.68-.32,1.1h-.76l-.3-3.29Z"/><path class="cls-2" d="M159.25,48.67a15.14,15.14,0,0,0,.1,1.95,5.68,5.68,0,0,0,.27,1.24,2.21,2.21,0,0,0,.36.87h-5a3,3,0,0,0,.37-.87,10.25,10.25,0,0,0,.25-1.24,13.34,13.34,0,0,0,.11-1.95V38.1h-4.85V48.67a15.14,15.14,0,0,0,.1,1.95,6.43,6.43,0,0,0,.26,1.24,2.36,2.36,0,0,0,.37.87h-5a3,3,0,0,0,.37-.87,10.25,10.25,0,0,0,.25-1.24,14.91,14.91,0,0,0,.11-1.95V33.18a14.91,14.91,0,0,0-.11-1.95A10.48,10.48,0,0,0,147,30a3.06,3.06,0,0,0-.37-.86h5a2.71,2.71,0,0,0-.37.9,6.43,6.43,0,0,0-.26,1.24,14.84,14.84,0,0,0-.1,1.92V37h4.85V33.18a13.34,13.34,0,0,0-.11-1.95,10.48,10.48,0,0,0-.25-1.25,3.06,3.06,0,0,0-.37-.86h5a3.46,3.46,0,0,0-.36.88,9.43,9.43,0,0,0-.25,1.25,12.79,12.79,0,0,0-.12,1.93V48.67Z"/><path class="cls-2" d="M172.92,52.73H161.68a3.35,3.35,0,0,0,.36-.87,10.25,10.25,0,0,0,.25-1.24,13.17,13.17,0,0,0,.12-1.95V33.18a13.17,13.17,0,0,0-.12-1.95A10.48,10.48,0,0,0,162,30a3.41,3.41,0,0,0-.36-.86h10.9l-.29,3.29h-.77c-.11-.44-.22-.82-.33-1.13a1.87,1.87,0,0,0-.5-.77,2.14,2.14,0,0,0-1-.43A8.89,8.89,0,0,0,168,30h-2v7.22a13.94,13.94,0,0,0,1.83,0c.56-.05,1-.09,1.43-.14a10.09,10.09,0,0,0,1.23-.23,2.86,2.86,0,0,1,0,.43,3.41,3.41,0,0,1-.17.93,1,1,0,0,1-.73.65,2.07,2.07,0,0,1-1.13,0l-2.5-.7V50.47a1.32,1.32,0,0,0,.09.42,1.27,1.27,0,0,0,.3.48,1.64,1.64,0,0,0,.61.38,3,3,0,0,0,1,.15h1.17a2.43,2.43,0,0,0,1.23-.28,2.1,2.1,0,0,0,.74-.77,4.16,4.16,0,0,0,.44-1.06c.1-.39.2-.79.31-1.18h.77Z"/><path class="cls-2" d="M184.29,29.12a9,9,0,0,1,2.41.3,4.83,4.83,0,0,1,1.86.95,4.26,4.26,0,0,1,1.22,1.69,6.76,6.76,0,0,1,.43,2.51,6,6,0,0,1-1.48,4.26,5.48,5.48,0,0,1-4.17,1.56,3,3,0,0,1-1.05-.18,2.93,2.93,0,0,1-.85-.48v8.94a15.14,15.14,0,0,0,.1,1.95,5.68,5.68,0,0,0,.27,1.24,2.21,2.21,0,0,0,.36.87h-5a3,3,0,0,0,.37-.87,10.25,10.25,0,0,0,.25-1.24,13.34,13.34,0,0,0,.11-1.95V33.18a13.34,13.34,0,0,0-.11-1.95,10.48,10.48,0,0,0-.25-1.25,3.06,3.06,0,0,0-.37-.86Zm.23,10.44a1.54,1.54,0,0,0,1.1-.4,2.58,2.58,0,0,0,.67-1.06,7.25,7.25,0,0,0,.31-1.58c.06-.61.08-1.25.08-1.91a7.24,7.24,0,0,0-.28-2.17,4.15,4.15,0,0,0-.75-1.44A2.84,2.84,0,0,0,183.46,30h-.8v5.92a1.5,1.5,0,0,1,.6-.37,1.84,1.84,0,0,1,.73-.1,1.55,1.55,0,0,1,.68.24,1.09,1.09,0,0,1,.45.56,1.74,1.74,0,0,0-1,.1,1.84,1.84,0,0,0-.78.58,1.91,1.91,0,0,0-.4.88,1.79,1.79,0,0,0,.1,1,1.12,1.12,0,0,0,.51.51A1.83,1.83,0,0,0,184.52,39.56Z"/><path class="cls-2" d="M197.92,52.73a3.17,3.17,0,0,0,.3-.77,5.5,5.5,0,0,0,.15-1,4.87,4.87,0,0,0-.11-1.41l-1.57-8.11h-3.45L191,51a3.57,3.57,0,0,0-.07.63v.56a3.48,3.48,0,0,0,0,.57h-1.8a3.34,3.34,0,0,0,.3-.53,5.32,5.32,0,0,0,.25-.62c.08-.23.16-.49.25-.78l4.62-20a11.33,11.33,0,0,0-.43-1.26l-.2-.4h3.82l2.07,10.57L202,50.27a5.3,5.3,0,0,0,.26,1c.12.3.23.56.34.78a4.67,4.67,0,0,0,.36.67Zm-1.43-12.34-1.39-7.15-1.63,7.15Z"/><path class="cls-2" d="M216.78,29.12a4.2,4.2,0,0,0-.3.6,2.71,2.71,0,0,0-.22.63,3.94,3.94,0,0,0-.08.8V52.73h-1.06l-9.18-19.49V50.7a3.94,3.94,0,0,0,.08.8q.09.36.18.63a4.2,4.2,0,0,0,.3.6h-2.22a4.2,4.2,0,0,0,.3-.6,6.77,6.77,0,0,0,.19-.65,3.15,3.15,0,0,0,.1-.85V32.78a12.41,12.41,0,0,0-.15-1.75,9.31,9.31,0,0,0-.24-1.11,2.13,2.13,0,0,0-.34-.77h3.66l7.32,15.37V31.21a3.58,3.58,0,0,0-.1-.84c-.07-.26-.14-.48-.2-.65s-.18-.42-.27-.6Z"/><path class="cls-2" d="M230.55,52.73a4.48,4.48,0,0,1-1.53-.18,3.39,3.39,0,0,1-.77-.45,6.24,6.24,0,0,1-1.53.68,6.05,6.05,0,0,1-1.79.25,6.29,6.29,0,0,1-2.31-.4,5.75,5.75,0,0,1-1.8-1.08,5.15,5.15,0,0,1-1.18-1.6,4.47,4.47,0,0,1-.43-1.94V33.84a5,5,0,0,1,.38-2,4.29,4.29,0,0,1,1.13-1.6,5.59,5.59,0,0,1,1.88-1.06,7.78,7.78,0,0,1,2.63-.4,6.8,6.8,0,0,1,2.74.48,4.71,4.71,0,0,1,1.7,1.2,3.93,3.93,0,0,1,.84,1.53,5.23,5.23,0,0,1,.24,1.48,4.22,4.22,0,0,1-.34,1.78,3.7,3.7,0,0,1-.83,1.23,3.25,3.25,0,0,1-1.09.71,3.07,3.07,0,0,1-1.14.24,3.65,3.65,0,0,1-2.41-.74,2.09,2.09,0,0,1-.88-1.59,2.65,2.65,0,0,0,1.12.16,3.32,3.32,0,0,0,1.09-.24,3.18,3.18,0,0,0,.92-.6,2.51,2.51,0,0,0,.6-.88,3.27,3.27,0,0,0,.18-1.1,3.09,3.09,0,0,0-.25-1.31,2.58,2.58,0,0,0-.85-1.07,3,3,0,0,0-2.82-.18,2.24,2.24,0,0,0-.79.66,2.53,2.53,0,0,0-.41.86,3.39,3.39,0,0,0-.12.83V49.54a4.44,4.44,0,0,0,.1.83,2.74,2.74,0,0,0,.35.87,2.41,2.41,0,0,0,.67.68,1.92,1.92,0,0,0,1.08.28,1.88,1.88,0,0,0,1.69-.93,2.63,2.63,0,0,0,.32-.86,5.52,5.52,0,0,0,.08-.87V44.2a18.35,18.35,0,0,0-.13-1.93,9.21,9.21,0,0,0-.23-1.25,2.22,2.22,0,0,0-.37-.86h4.26Z"/><path class="cls-2" d="M239,28.82a6.1,6.1,0,0,1,2.26.4A5.41,5.41,0,0,1,243,30.3a4.74,4.74,0,0,1,1.55,3.54V48a4.7,4.7,0,0,1-.43,2,5,5,0,0,1-1.19,1.58,5.87,5.87,0,0,1-1.77,1.06,6.05,6.05,0,0,1-2.23.4,6.28,6.28,0,0,1-2.28-.4,6.08,6.08,0,0,1-1.81-1.06,4.88,4.88,0,0,1-1.2-1.58,4.55,4.55,0,0,1-.43-2V33.84a4.29,4.29,0,0,1,.45-1.94,5,5,0,0,1,1.23-1.6,5.75,5.75,0,0,1,1.83-1.08A6.1,6.1,0,0,1,239,28.82ZM241,33.74a1.9,1.9,0,0,1-1.13.4,3.29,3.29,0,0,1-1.15-.28,1,1,0,0,1-.58-.92,2,2,0,0,0,1.07.17,1.94,1.94,0,0,0,.91-.36,1.83,1.83,0,0,0,.57-.79,2,2,0,0,0,0-1.09V30.8a2.72,2.72,0,0,0-.64-.8,1.71,1.71,0,0,0-1.16-.35,2,2,0,0,0-1.08.27,2.14,2.14,0,0,0-.68.66,2.52,2.52,0,0,0-.37.86,4.65,4.65,0,0,0-.1.87v17.3a4.54,4.54,0,0,0,.1.83,2.83,2.83,0,0,0,.35.86,2.28,2.28,0,0,0,.67.68A2.22,2.22,0,0,0,240,52a1.89,1.89,0,0,0,.65-.67,2.55,2.55,0,0,0,.32-.86,5.52,5.52,0,0,0,.08-.87Z"/><path class="cls-2" d="M258.05,52.73H246.81a3.35,3.35,0,0,0,.36-.87,8.61,8.61,0,0,0,.25-1.24,13.17,13.17,0,0,0,.12-1.95V33.18a13.17,13.17,0,0,0-.12-1.95,8.8,8.8,0,0,0-.25-1.25,3.41,3.41,0,0,0-.36-.86h5a2.22,2.22,0,0,0-.37.86,5.86,5.86,0,0,0-.26,1.25,15.14,15.14,0,0,0-.1,1.95V50.47a1.18,1.18,0,0,0,.08.41,1.23,1.23,0,0,0,.3.49,1.64,1.64,0,0,0,.61.38,3,3,0,0,0,1,.15h1.17a2.43,2.43,0,0,0,1.23-.28,2.24,2.24,0,0,0,.75-.75,5,5,0,0,0,.45-1l.33-1.18h.76Z"/><path class="cls-2" d="M264,48.67a15.14,15.14,0,0,0,.1,1.95,5.75,5.75,0,0,0,.26,1.24,2.21,2.21,0,0,0,.37.87h-5a3.32,3.32,0,0,0,.37-.87,10.25,10.25,0,0,0,.25-1.24,14.91,14.91,0,0,0,.11-1.95V33.18a14.91,14.91,0,0,0-.11-1.95,10.48,10.48,0,0,0-.25-1.25,3.38,3.38,0,0,0-.37-.86h5a2.22,2.22,0,0,0-.37.86,5.86,5.86,0,0,0-.26,1.25,15.14,15.14,0,0,0-.1,1.95V48.67Z"/><path class="cls-2" d="M279.1,29.12a4.2,4.2,0,0,0-.3.6,2.71,2.71,0,0,0-.22.63,3.94,3.94,0,0,0-.08.8V52.73h-1.06l-9.18-19.49V50.7a3.94,3.94,0,0,0,.08.8q.09.36.18.63a4.2,4.2,0,0,0,.3.6H266.6a3.34,3.34,0,0,0,.29-.6,4.64,4.64,0,0,0,.2-.65,3.15,3.15,0,0,0,.1-.85V32.78A12.41,12.41,0,0,0,267,31a7.51,7.51,0,0,0-.25-1.11,2,2,0,0,0-.33-.77h3.66l7.32,15.37V31.21a3.58,3.58,0,0,0-.1-.84c-.07-.26-.14-.48-.2-.65s-.18-.42-.27-.6Z"/></svg>