<svg id="Layer_1" data-name="Layer 1" xmlns="http://www.w3.org/2000/svg" viewBox="0 0 271 80"><defs><style>.cls-1{fill:#362f2d;}.cls-2{fill:#fff;}</style></defs><title>pangolin-buttons</title><rect class="cls-1" x="11.96" y="10.5" width="249.56" height="58"/><path class="cls-1" d="M260.85,68.5c.09.32.28.14.24-.75l-.33-.63Z"/><path class="cls-1" d="M261.46,62.5c-.16-1-.44-2.26-.74-1.58.32,1,.18,1.29.56,2.41,0,.89-.11,1.56-.23,1.4a10.85,10.85,0,0,0,.14,1.87,12.51,12.51,0,0,0,.05-4.17C261.32,62.1,261.4,62.42,261.46,62.5Z"/><path class="cls-1" d="M226.28,10l.56,0A3,3,0,0,0,226.28,10Z"/><path class="cls-1" d="M172.23,9.85c.42,0,.59,0,.61-.07C172.46,9.81,172.14,9.83,172.23,9.85Z"/><path class="cls-1" d="M163,9.49l.54,0A1.7,1.7,0,0,0,163,9.49Z"/><path class="cls-1" d="M226.28,10l-1.44-.11C224.74,10,225.58,10,226.28,10Z"/><path class="cls-1" d="M260.67,50.47a5.53,5.53,0,0,0,.08.78l0-.73S260.68,50.49,260.67,50.47Z"/><path class="cls-1" d="M250.11,9.77h.44a3,3,0,0,0,.36-.14Z"/><path class="cls-1" d="M262.3,17.38c0-.42-.27-.56-.39-.72a2.46,2.46,0,0,1,.19.9S262.22,17.51,262.3,17.38Z"/><path class="cls-1" d="M261.8,46.37l0,.51C261.83,46.75,261.82,46.53,261.8,46.37Z"/><path class="cls-1" d="M237,9.71a.35.35,0,0,0-.17-.1S236.92,9.68,237,9.71Z"/><path class="cls-1" d="M240.32,67.18s0,0,0,0S240.46,67.18,240.32,67.18Z"/><path class="cls-1" d="M261.52,68.57l-.3,0a.31.31,0,0,0-.06.16Z"/><path class="cls-1" d="M146.12,9.13h.07C146.64,9.1,146.39,9.11,146.12,9.13Z"/><path class="cls-1" d="M10.8,31.37c.25-1.75.32,2.86.6.22C11.29,31.83,11,29.18,10.8,31.37Z"/><path class="cls-1" d="M260.7,50v-.74C260.69,49.59,260.69,49.82,260.7,50Z"/><path class="cls-1" d="M11.4,31.59h0l0-.27Z"/><path class="cls-1" d="M107.21,9.3a1.29,1.29,0,0,0,.39.12S107.5,9.36,107.21,9.3Z"/><path class="cls-1" d="M136.2,9.7l-.72,0A6.62,6.62,0,0,0,136.2,9.7Z"/><path class="cls-1" d="M92.16,9.7a5.82,5.82,0,0,0-1.06,0l.16,0A2.8,2.8,0,0,1,92.16,9.7Z"/><path class="cls-1" d="M76.49,9.7l.29.05h.5Z"/><path class="cls-1" d="M192.71,67.32a2.44,2.44,0,0,1,.72.25C193.19,67.37,195.49,67.3,192.71,67.32Z"/><path class="cls-1" d="M260.82,50.46a.9.9,0,0,1-.12-.47l0,.53S260.8,50.57,260.82,50.46Z"/><path class="cls-1" d="M91.52,11.91l-2.49,0C89.73,11.9,90.63,11.91,91.52,11.91Z"/><path class="cls-1" d="M80.32,67.36l.57,0A2.42,2.42,0,0,0,80.32,67.36Z"/><path class="cls-1" d="M81.64,11.91a10.06,10.06,0,0,0-1.4-.19,1.77,1.77,0,0,0-.29.07Z"/><path class="cls-1" d="M193.44,67.57h0Z"/><path class="cls-1" d="M209.83,66.9c-2.37,0-1.11.37-1.61.58-2.83.1-1.31-.27-2.28-.46-1.76.09-3.12.43-4.44.42-.1-.06-.35-.08-.05-.16-1.87.29-5.55,0-7.73.38a.73.73,0,0,1-.28-.09c.35.19.41.37.33.51-1.06,0-2,.23-2.37,0a2.27,2.27,0,0,0,1-.17L191.3,68c-1-.35,1.52-.12,1.52-.38-2.17.12-4.71.4-6.37.3-.35-.34,3.89-.11,1.67-.41l2.58.13c-2-.54,1.56,0-.25-.54-3.39-.1-3.79.18-7.17.08-.76.18.25.28-.51.46-4.8.34-3.78-.85-7.32-.4a7,7,0,0,1-3.78.43l.86-.38c-3.28,0-1.88.55-5.31.29.61-.15,2.58-.13,2.08-.17-2.23-.31-1.57.22-3.29.22l-.35-.34c-3.49,0-7.34.29-11.21.36.21-.1.87-.21,0-.31-4.88.17-10.42,0-15.13-.25l-1.8.3c-.41,0-.77-.14-.32-.19-1.83-.12-.09.18-1,.3s-1.37-.17-.71-.26a93.06,93.06,0,0,1-12.64.22l.67-.08c-2.66-.12-3,.6-5.46.32l.47,0c-5.76-.13-12.13.14-16.53-.3-.84.42-5.71-.19-6.08.4-3.29-.29-2.35-.4-7-.59-1.24,0-1.85.37-3.38.43l0-.31-2.08.32-1.1-.37-1.44.08c.57,0,1.22.14,1.13.23a21.49,21.49,0,0,1-5.52-.37l-5.31.26a7,7,0,0,1,1.71-.25c-2.83.32-.51-.32-3.11,0,.35.07-.19.18-.24.24a47.77,47.77,0,0,0-6.42-.11l.42-.21c-3.94,0-8.3.1-12.72.1,1.59.1,1.22.46-.07.5l-.52-.33c-.84.21,1.35.13-.36.37-1.65,0-1.11-.37-.17-.47l-2,.11c-.12-.1.35-.15.47-.27-.82.2-3.46-.33-4.65,0L43.42,67c-4.42,0-6.42.1-10,.12-.07.28-1.48.22-2.55.45-2.65-.09-5.58-.31-8.76-.29-2.24.14-.66.24-1.66.41-.17-.26-3.35-.24-1.7-.42l-3.41,0-1.56,0h-.4l-.33,0c0-.07,0-.19,0-.37l0-.14,0-.39c0-.3,0-.62,0-1-.1.53-.15,1.12-.24.81,0-.87.11-2,.23-1.87l0,.24c-.38-5.43.75-12.53.21-16.85l0,.24-.28-4.48c0-2.06.19,1.24.35-.29-.43-4.83.06-7.63-.22-11.61.75-3.08,0-10.94.43-15.1l-.18.24a6.39,6.39,0,0,1,.14-2.09c-.14.12-.16,1.17-.25.5q0-1.8-.06-3.66l4.65.06,5.85.13,11.69.29c3.41.05,1.93-.92,6.24-.5L40.31,12c6.89-.39,14.08,0,20.83-.32a3,3,0,0,1-1.07.17,18.52,18.52,0,0,0,5.29-.18c1,0,.24.18.89.28,1.43.14,3.59-.31,4.35-.07.13,0-.41.08-.67.1.93-.12,4.34,0,3.45-.25,2.53.13,4.84-.13,6.86,0,1.32-.31,4.34.15,4.75-.29-.18.45,4.44.36,6,.15-.53.14,1.39.14.77.33,1.82,0,3.5-.09,3.18-.32,3.36.54,6.76-.44,8.66.26,5.42-.24,10.45-.41,15.33-.52-.18.46-5.4.05-5.19.52,4.63-.18,7.3-.57,11.89-.46,1.19.06-.67.19-1.07.27,4.62-.18,8.94,0,13.06-.2a3.57,3.57,0,0,1-.88.12c.81,0,1.89.07,1.8-.14l-.79.06c-1.3-.3,3.22-.63,3.36-.78-1.37.59,4.07.15,1.88.89.54,0,1.21-.14,1.08-.28.8,0,1,.12.24.28,2.91-.11,1.88-.33,4.51-.32,0,.1-.54.13-.81.25a23.59,23.59,0,0,1,4.89-.3c-.13.06.13.13-.54.13,3.83,0,6.52-.51,10.71-.33-1.24.44,1.42.15,1.65.52l2.25-.11-.9-.18c2,0,3.72-.27,5.41-.15l-1.46.16,3.7-.07-2.1-.14c2-.2-.21-.48,2.41-.37-.53,0,2,0,3,.22h0a17,17,0,0,1,3.44-.15c.38.12-.3.41,0,.49,1-.31,4.62-.08,5.84-.42-.41.08-.43.28-.29.32l.8-.25c.92.08,1.05.12.9.27,2.76.05-.87-.47,2.4-.27-.26,0-.14.06-.67.1,3.28.11,6.33-.16,9.35,0,.89.38-2.64.1-1.62.41,4.35-.07,9-.45,13.2-.36l-.78,0c.58-.53,3.13.26,5.26,0-.52,0-.68.3-.54.24,2.88.08,5.88-.13,10.25-.3l-.54.14c1.69.12,4.46.07,6.3.13.54-.14,1.59-.12,1-.31,5.65.77,10.78-.42,15.8.23-.6,0-1.43.11-.95.12l4.27-.13c-.34-.23-.56-.14-1.46-.32a14.17,14.17,0,0,1,2.8-.24c-1.92.15,0,.37.85.5-.14-.07.15-.15.08-.22,2.23.41.37-.47,3.42-.19l-.17.12c1.14-.06,2.19-.22,3.42-.19.51.27-1.21.13-1.29.35a16.93,16.93,0,0,0,1.76-.14c.51-.07,1-.14,1.61-.17a6.54,6.54,0,0,1-.07,1.4c0-.38-.06-.84-.09-1.25-.33,0-.63,0-.88.07L261,11a5.33,5.33,0,0,0-.08.75c0,.25,0,.51,0,.9v-.12l-.14,2.92.09-.75c.69,2.17.12,4.4.58,7.32-.43-2.83-.25-.47-.55-.69-.09.74-.18,1.87-.27,1.55.25,1.38-.19,2.3.17,4.24-.1.09,0,1.47-.26,1.16.08,1.79.17-.42.3-.27.33,2.76-.41,6.48.05,10.45.19,3.42.52,4,.68,7.22-.16,1.08-.36-.87-.36-.87a28.87,28.87,0,0,0,0,4.65c-.09-.33-.16,0-.27.51,0,1.31.36.87.21,2.6a7.15,7.15,0,0,1-.39-1.31c.09,1.54.27,3.06.36,4.66-.17.42-.26-1-.37-1.53a30.13,30.13,0,0,0,.43,5.2l.09-1.15c0,.65-.23.34-.28-.15a3.48,3.48,0,0,1,.19-2.3l.07,1.14c.57-1.17-.1-4.56-.06-6.85l.41.95-.34-2.34c.11-.5.34-.84.4.29.21-1.64-.15-1.45.08-2.86,0-.15.06-.08.07.06l-.12-1.6c.09.31.29-.27.23.72.24-2.88-.31-4.64,0-5.72l0,.24c-.14-4-.3-.38-.66-3.38l.75-2-.3-.39c0-.41,0-1.22.15-1.07-.21-1.54-.13.26-.33-.63.28-2-.13-5.46.36-5.91-.23-.71-.18,1.9-.34-.22.52-.6-.09-2.44.15-4.25.27.56.13,2.27.37.46-.46-1.09.1-3.52,0-5.05-.18,0-.22-.86-.23-2V13.67c0-.33,0-.67,0-1l0-1.07a7.22,7.22,0,0,0,.1-1.52l-3.41-.1-3-.12.07-.06c-.46.36-2.91.29-4.7.37.07-.22.39-.31,1.36-.4h-1.68a8.32,8.32,0,0,1-2,.22l.43-.28c-2.24,0-4.51.33-7.39.14-.16.26,2.29.72-.75.89-.12-.14-.23-.38.57-.43a7.84,7.84,0,0,1-1.46,0l1.22-.23c-1.31-.1-.69.19-1.74.17,0-.19-.77-.14-.62-.29a9.49,9.49,0,0,0,1.31,0,17.43,17.43,0,0,1-3.08-.3c.1.11,0,.26-.87.29-2.23,0-.76-.24-2.07-.34-.54.14-2,0-2,.29a2.12,2.12,0,0,1-1-.22c-1.16.13-5.41,0-4.11.35l.3,0-.19,0h0c-3.8.29-7.89-.17-11.65,0V10c-2.25.11-5,.06-6.61.28-.66,0-1.57-.19-1.28-.3a27.21,27.21,0,0,1-4.4,0c1.73-.17-.59-.15,1.77-.13a25.18,25.18,0,0,0-5.13,0c.81-.25-1.68-.32-2.75-.24l1.57.18c-1.19,0-2.24,0-3.3,0l.57-.33c-4.57-.41-8.24.69-11.72,0-1.21.23,2.49.16,1.4.44-2.1,0-4.29-.53-5-.53-2.88-.18-2.68.49-5.7.36.39.12.75.44-1.5.55-2.1,0-2.59-.5-1.26-.59.51,0,.75,0,.73.06.68,0,1.57-.09.74-.22l-.28.12c-1-.12-3.93-.11-3.25-.3-1.59.11-.68.19.49.25-2.69-.17-4.21,0-7-.12.44.07.85.21.41.21-4.07-.15-1.79.22-4.55.27-1.57-.18.56-.43-2.22-.28-1.7-.12-.36-.31.31-.41a41.2,41.2,0,0,1-6.17-.19l1.33-.1c-.8.06-1.45.06-2.11.06l.76.24c-.79-.05-1.45-.05-1.43-.15-.81.16.61.4-1,.61-1-.12-3.18.13-3.54-.18,3.29.1-.36-.32,2.42-.37a16.46,16.46,0,0,1-2,0c-.11,0,.11-.06.33-.08-3.14-.28-1.44.36-4.7.35.41-.18-.76-.34-1.29-.3,1.32,0,.63.3-.57.43a22.87,22.87,0,0,0-3.36.09l1.24.06a13.06,13.06,0,0,1-2.92.21c-.12-.13,1.32-.09.8-.15-1.61.31-3.65-.33-5.9-.12-1-.12-.1-.33-1-.41-2.52.23-2.73-.24-5.39,0,.77.24.9.18-1,.41l4.37-.17-2.8.35c1.31,0,2.78-.15,3.56-.11-1.33.19-1.19.13-.56.33-1.8-.36-3.57.21-5.66,0l.07-.59c-3.14-.26-5.57.3-9.63.15l1.3.11a29,29,0,0,1-3.82.12c.12-.19-.7-.27-1.27-.39.07.15-3,0-3.34.38l-1.82-.26c-3.28-.1-3.74.57-6.9.5.95-.22-.48-.36,1.63-.51a6.17,6.17,0,0,0-2,.1c-.61-.12-2.92.26-3.89.08a4.67,4.67,0,0,1-1.77.27c-.13,0,0-.09,0-.09s-1.86.13-.82.35c-3.25-.62-9.07,0-11.9-.49-2.3.07-5.07.13-7.16.15.14-.06,0-.1.4-.08-2.88-.18-1.77.57-5,.36-1.68-.32,1.74-.17.69-.29-.45-.65-4,.09-6.16-.29l.54,0c-1.69-.22-4.12.25-6.87.2,0,0,.13-.06,0-.1a75.67,75.67,0,0,1-8.1.53c.82-.25,1.2-.13.7-.39-1.19,0,.35.42-2,.49-.77-.14-2.48-.26-2.7-.54H43.3c-1.14-.36-2.89,0-4.07-.05l.15-.16c-3.43.05-3.47.44-7.16.42l.38.11c-2,.39-1.68-.21-3.69.08l-.61-.4c-1.33.1-4.65.38-7,.46,1.35-.3,4.13-.45,5.86-.62A40.65,40.65,0,0,0,22,9.8a11.05,11.05,0,0,1,1.72-.07,35.07,35.07,0,0,1-6.36.46c.15-.25-.53-.36-1.58-.41-.52,0-1.14,0-1.79,0l-2.8,0c0,.52,0,1,0,1.53,0,.25,0,.49,0,.73s0,.34,0,.51a6.84,6.84,0,0,1-.21,1.4c.28,4.64-.12,9.21-.08,14.61.6-1.91,0,1.58.63,1.25a10.38,10.38,0,0,1,0,1.85L11,35.4c-.17.9-.13-1.2-.27-1.08,0,2.75-.26,1.15-.42,3,.22-.38.31,1,.23,2.53l.28-2.21c.33,3.85-.51,3.33-.19,7.21l-.19-1.23c.11,2,0,7.35.49,9.31-.07.35-.24.82-.28-.06,0,2.38.09,5,.19,7.55.05,1.26.1,2.48.11,3.63,0,.57,0,1.12,0,1.64l0,.76,0,.9L10.82,67l0-.16,0-.09q0,.36,0,.69c0,.23,0,.46.05.69,0,.45.08.88.09,1.37a13.71,13.71,0,0,1,1.54,0c-.11.06-.69.15,0,.16l1-.06.94-.08a13.93,13.93,0,0,1,2,0l-1,.16c4.64.2,7.13-.41,11-.51,0,.44,3.65.59,5.47.66l-.06.06c5.41,0,9.19-.37,14.2-.54,3.11.48,10.53.2,15.53.47-.76-.08.12-.34,1-.39,1.18.09,3.25-.3,3.06.1h-.42c.89.4,3.3.29,5.18.3l.31-.52c4.92.76,12.9-.29,15.58.4,1.19-.13,2.66-.13,3.84-.26l-.06.28c3.29.07,4.93.11,9,0l-.83.21c2.3,0,2.9-.82,5-.84l.63.42c4,0,8.06.37,12,0-.07.06-.19.18-.84.2,1.89,0,7.29.28,6.61-.3,0,.38,4.13,0,6.29-.13l-.33.28a19.45,19.45,0,0,1,4.43-.55c.6,0,.53.22-.27.15,2,.15,1.56-.26,4-.11l-.91.17A9.21,9.21,0,0,0,138,69a13.13,13.13,0,0,1,4.23.33,6.7,6.7,0,0,1,2.64-.29c.16.09-.28.15-.5.18,3.46.19,5.14-.32,7.52,0,.05.09.21.14.41.17-2.75,0-5,0-4.76,0,0,.25,2.22.3.45.65a49,49,0,0,1,7-.49,1.1,1.1,0,0,1,.29.09l-.23,0a10,10,0,0,0,1.37,0c.69,0,1.13.07,1.8.07a18.75,18.75,0,0,0,3.65.13c-.09-.28,1.36-.24,0-.47.18,0-.21,0-.94,0l-.48,0,.08,0-2.75,0a9.37,9.37,0,0,1,3-.11c.57-.18,1.19-.37,1.55-.45,1.51.39,4.44.6,4.84.84,3.39-.15,8-.1,10.1-.63a2.68,2.68,0,0,1,1.46.24c-.55,0-1.21,0-1.51.12,1.92-.14,5.7-.06,6.15-.43,2.43.17-1.36.34,2,.28l-.45.12c6.56.59,10.66-1,17.92-.19A2.83,2.83,0,0,1,202,69c8.28.34,17.07-.31,25.24.22a15,15,0,0,0,4-.31l.51.3,2.42-.35c3.44-.25,5.95.74,10.3.26l-.56-.2c1.56,0,5-.12,4.69.11a2.19,2.19,0,0,1,1.12-.1l.05.16,3.84-.28c3,.12-.46.63,3.88.66,1.61-.06,4.6-.46,4-.56s-1.67-.1-1.71-.26l1.47-.08c.27-.47,1.41-.94-2.22-1.27l-2.52.28-.82-.22,2.13,0a7.57,7.57,0,0,0-2.83.11,2.81,2.81,0,0,0-1.06-.25l-2.48.45c-.3-.19,1.12-.37-.55-.47-1.16.21,1.12.41-.81.55-1.21-.21-.85-.39-2.27-.21-.2-.12.1-.19.66-.24a36.25,36.25,0,0,0-4,.3c-1.26-.26-4.26.07-4.14-.37a20.72,20.72,0,0,1-3.38.36c2.12-.52-4.34,0-3.78-.59-1.57.47-5.66.21-8.44.47a2.33,2.33,0,0,1,.7-.09c-1.56,0-2-.18-3-.27-.2.39-2.63.48-3.94.72-1.92-.37,1.16-.46.56-.82.09.32-3.33.32-2.68.58a5.49,5.49,0,0,1-2-.44c-.25.49-1.36.09-2.57.39-2.13-.24-.55-.46-2.88-.31C207.76,67.08,209.83,66.9,209.83,66.9Zm-55.39.85h0l1.14,0Zm-4.66,0h2c.17.09,0,.19-.48.19C151.58,67.89,150.48,67.84,149.78,67.76Zm9.85,1.94a2.27,2.27,0,0,1-1.08-.07l1.29,0,.08,0A.6.6,0,0,1,159.63,69.7Z"/><path class="cls-1" d="M161,69.33l.3,0-.44-.06-.26.09Z"/><path class="cls-1" d="M226.94,10.08h-.1a.87.87,0,0,1,.21,0Z"/><polygon class="cls-1" points="85.51 67.22 85.51 67.29 85.92 67.23 85.51 67.22"/><path class="cls-1" d="M252.58,11.05a1.3,1.3,0,0,0,.34.07A1.11,1.11,0,0,0,252.58,11.05Z"/><path class="cls-1" d="M260.91,12.64l-.1,1.57C260.86,13.53,260.89,13,260.91,12.64Z"/><path class="cls-1" d="M260.77,21.15a.36.36,0,0,0,.12.17v0Z"/><path class="cls-1" d="M136.78,11.58h-.33C135.68,11.65,136.21,11.63,136.78,11.58Z"/><path class="cls-1" d="M177.07,10.92l-1.29.14C176.49,11.08,177.05,11.08,177.07,10.92Z"/><path class="cls-1" d="M91.79,11.92h0Z"/><path class="cls-1" d="M173.9,11.05a13.18,13.18,0,0,0,1.88,0C175.19,11,174.5,11,173.9,11.05Z"/><path class="cls-1" d="M260.64,58.06v.41s0,0,0,.05Z"/><path class="cls-1" d="M260.67,58.52l0,.46A1.57,1.57,0,0,0,260.67,58.52Z"/><path class="cls-1" d="M260.78,59.93l-.07-1A3.4,3.4,0,0,0,260.78,59.93Z"/><path class="cls-1" d="M260.77,46.79l-.1-.13A.17.17,0,0,0,260.77,46.79Z"/><path class="cls-1" d="M260.74,43.36c0,.82-.22,2-.15,3.19l.08.11C260.52,46.12,260.91,44.14,260.74,43.36Z"/><path class="cls-1" d="M262,29.06l-.08,2.88c.11-.51.25-1.17.28.14C262.52,28.46,262,32.83,262,29.06Z"/><path class="cls-1" d="M262.16,20.16c0,1.55.15,0,.22.07C262.28,19.25,262.25,19,262.16,20.16Z"/><path class="cls-1" d="M206.86,9.86,207,9.6C205.83,9.64,207,9.7,206.86,9.86Z"/><polygon class="cls-1" points="194.56 11.18 195.72 11.34 196.27 11.1 194.56 11.18"/><polygon class="cls-1" points="187.3 9.36 187.82 9.32 185.84 9.41 187.3 9.36"/><path class="cls-1" d="M79.28,9.45l.36.31C80.44,9.71,80.61,9.35,79.28,9.45Z"/><path class="cls-1" d="M32.64,9.77A7,7,0,0,0,30,9.67C31.06,9.69,32.11,9.81,32.64,9.77Z"/><polygon class="cls-1" points="73.14 69.74 72.2 69.85 73.97 69.76 73.14 69.74"/><path class="cls-1" d="M267.32,76.5c.09.35.28.15.24-.82l-.33-.7Z"/><path class="cls-1" d="M267.94,69.91c-.17-1.15-.45-2.48-.75-1.73.32,1.14.18,1.42.56,2.64,0,1-.1,1.71-.23,1.55a13.13,13.13,0,0,0,.14,2,14.46,14.46,0,0,0,0-4.58C267.79,69.48,267.87,69.83,267.94,69.91Z"/><path class="cls-1" d="M238.68,3l.61,0A3.67,3.67,0,0,0,238.68,3Z"/><path class="cls-1" d="M179.37,2.85a1.53,1.53,0,0,0,.66-.07C179.61,2.81,179.27,2.83,179.37,2.85Z"/><path class="cls-1" d="M169.24,2.49l.6,0A2.09,2.09,0,0,0,169.24,2.49Z"/><path class="cls-1" d="M238.68,3l-1.59-.11C237,3,237.9,3,238.68,3Z"/><path class="cls-1" d="M267.14,56.71a6.65,6.65,0,0,0,.08.86c0-.27,0-.53,0-.81Z"/><path class="cls-1" d="M264.82,2.77h.48a3.09,3.09,0,0,0,.4-.14Z"/><path class="cls-1" d="M268.77,20.4c0-.45-.27-.61-.39-.79a3,3,0,0,1,.19,1C268.62,20.61,268.69,20.55,268.77,20.4Z"/><path class="cls-1" d="M268.28,52.22l0,.56C268.3,52.63,268.29,52.39,268.28,52.22Z"/><path class="cls-1" d="M250.46,2.71a.39.39,0,0,0-.18-.1S250.35,2.68,250.46,2.71Z"/><path class="cls-1" d="M244.73,75.18s0,0,0,0S244.88,75.18,244.73,75.18Z"/><path class="cls-1" d="M268,76.57l-.32,0a.26.26,0,0,0-.07.16Z"/><path class="cls-1" d="M150.71,2.13h.08C151.28,2.1,151,2.11,150.71,2.13Z"/><path class="cls-1" d="M2.32,26.41c.26-1.93.33,3.13.61.23C2.82,26.91,2.49,24,2.32,26.41Z"/><path class="cls-1" d="M267.17,56.19v-.82C267.16,55.74,267.16,56,267.17,56.19Z"/><path class="cls-1" d="M2.93,26.64h0l0-.3C2.94,26.47,2.94,26.54,2.93,26.64Z"/><path class="cls-1" d="M108,2.3a1.61,1.61,0,0,0,.43.12S108.33,2.36,108,2.3Z"/><path class="cls-1" d="M139.82,2.7l-.79,0C139.34,2.69,139.6,2.7,139.82,2.7Z"/><path class="cls-1" d="M91.49,2.7a6.94,6.94,0,0,0-1.16,0l.18,0A3.31,3.31,0,0,1,91.49,2.7Z"/><path class="cls-1" d="M74.3,2.7l.32,0h.54Z"/><path class="cls-1" d="M192.48,75.32a3,3,0,0,1,.8.25C193,75.37,195.54,75.3,192.48,75.32Z"/><path class="cls-1" d="M267.29,56.7a1,1,0,0,1-.12-.51c0,.2,0,.39,0,.57S267.27,56.83,267.29,56.7Z"/><path class="cls-1" d="M90.79,4.91l-2.73,0C88.83,4.9,89.82,4.91,90.79,4.91Z"/><path class="cls-1" d="M69.15,75.36l.63,0A2.94,2.94,0,0,0,69.15,75.36Z"/><path class="cls-1" d="M80,4.91a12.46,12.46,0,0,0-1.54-.19,2.21,2.21,0,0,0-.32.07Z"/><path class="cls-1" d="M193.28,75.57Z"/><path class="cls-1" d="M211.27,74.9c-2.6,0-1.22.37-1.77.58-3.11.1-1.44-.27-2.5-.46-1.94.09-3.42.43-4.87.42-.11-.06-.39-.08-.06-.16-2,.29-6.09,0-8.48.38a1,1,0,0,1-.31-.09c.39.19.45.37.37.51a8.91,8.91,0,0,1-2.6,0,2.77,2.77,0,0,0,1.11-.17l-1.23.11c-1.1-.35,1.67-.12,1.67-.38-2.38.12-5.16.4-7,.3-.38-.34,4.27-.11,1.84-.41l2.82.13c-2.16-.54,1.72,0-.26-.54-3.72-.1-4.16.18-7.87.08-.84.18.27.28-.56.46-5.28.34-4.16-.85-8-.4a8.45,8.45,0,0,1-4.16.43l1-.38c-3.61,0-2.06.55-5.83.29.67-.15,2.83-.13,2.28-.17-2.44-.31-1.72.22-3.6.22l-.39-.34c-3.84,0-8.06.29-12.31.36.24-.1,1-.21,0-.31-5.35.17-11.43,0-16.59-.25l-2,.3c-.46,0-.85-.14-.35-.19-2-.12-.11.18-1.07.3-1.15,0-1.52-.17-.79-.26a111.89,111.89,0,0,1-13.86.22l.73-.08c-2.92-.12-3.29.6-6,.32l.52,0c-6.32-.13-13.32.14-18.14-.3-.92.42-6.26-.19-6.67.4-3.61-.29-2.58-.4-7.67-.59-1.35,0-2,.37-3.7.43l0-.31-2.28.32-1.22-.37-1.57.08c.63,0,1.33.14,1.24.23A25.86,25.86,0,0,1,65,75.18l-5.82.26A8.21,8.21,0,0,1,61,75.19c-3.11.32-.56-.32-3.41,0,.38.07-.21.18-.27.24a57.52,57.52,0,0,0-7-.11l.46-.21c-4.32,0-9.1.1-14,.1,1.74.1,1.34.46-.08.5l-.57-.33c-.92.21,1.49.13-.4.37-1.81,0-1.22-.37-.18-.47l-2.2.11c-.13-.1.39-.15.52-.27-.9.2-3.79-.33-5.1,0L28.66,75c-4.85,0-7,.1-11,.12-.08.28-1.62.22-2.8.45-2.9-.09-6.12-.31-9.61-.29-1,.14-.4.23-1,.39,0,0,0,0,0,0a1.24,1.24,0,0,0,.15-.4l.05-.23,0-.11s0-.06,0-.17c.05-.67.09-1.09.18-.18,0-4.2,0-5.36-.26-10.66-.11.57-.15,1.22-.24.88,0-1,.11-2.19.23-2.05l0,.26c-.39-6,.74-13.75.21-18.49l0,.27-.28-4.92c0-2.26.19,1.36.35-.32-.43-5.3.06-8.38-.22-12.74.75-3.39-.06-12,.43-16.57l-.18.27a7.4,7.4,0,0,1,.14-2.3c-.14.12-.16,1.28-.26.55,0-1.36,0-2.73,0-4.13l5.21.06,6.42.13,12.83.29c3.74,0,2.12-.92,6.84-.5L34.59,5c7.56-.39,15.46,0,22.87-.32a3.64,3.64,0,0,1-1.18.17,22.33,22.33,0,0,0,5.81-.18c1.15,0,.26.18,1,.28,1.57.14,3.94-.31,4.77-.07.15,0-.44.08-.72.1,1-.12,4.76,0,3.78-.25,2.78.13,5.31-.13,7.53,0,1.44-.31,4.75.15,5.21-.29-.2.45,4.87.36,6.63.15-.59.14,1.53.14.84.33,2,0,3.84-.09,3.49-.32,3.69.54,7.42-.44,9.5.26,6-.24,11.47-.41,16.82-.52-.19.46-5.92,0-5.69.52,5.08-.18,8-.57,13.05-.46,1.31.06-.74.19-1.18.27,5.08-.18,9.82,0,14.33-.2a4.2,4.2,0,0,1-1,.12c.89,0,2.07.07,2-.14l-.86.06c-1.43-.3,3.53-.63,3.69-.78-1.51.59,4.46.15,2.06.89.59,0,1.32-.14,1.19-.28.87,0,1.14.12.26.28,3.19-.11,2.06-.33,4.95-.32,0,.1-.6.13-.9.25a28.57,28.57,0,0,1,5.38-.3c-.15.06.13.13-.59.13,4.19,0,7.14-.51,11.74-.33-1.35.44,1.57.15,1.81.52l2.47-.11-1-.18c2.17,0,4.08-.27,6-.15L177,4.28,181,4.21l-2.3-.14c2.19-.2-.24-.48,2.65-.37-.59,0,2.16,0,3.29.22h0a20.37,20.37,0,0,1,3.77-.15c.42.12-.33.41-.06.49,1.06-.31,5.07-.08,6.41-.42-.44.08-.47.28-.32.32l.89-.25c1,.08,1.15.12,1,.27,3,.05-.95-.47,2.63-.27-.28,0-.15.06-.73.1,3.59.11,6.95-.16,10.26,0,1,.38-2.89.1-1.78.41,4.77-.07,9.88-.45,14.49-.36l-.86,0c.64-.53,3.44.26,5.77,0-.57,0-.75.3-.6.24,3.16.08,6.46-.13,11.25-.3l-.59.14c1.86.12,4.9.07,6.91.13.6-.14,1.75-.12,1.05-.31,6.2.77,11.83-.42,17.34.23-.66,0-1.57.11-1.05.12l4.69-.13c-.37-.23-.62-.14-1.6-.32a17,17,0,0,1,3.07-.24c-2.15.15.21.37.54.5-.06-.07.22-.15.23-.22l.23,0c-.25,1.57.51-.19.25,3l-.12-.17c.06,1.25.22,2.4.19,3.75-.27.56-.13-1.33-.35-1.42,0,1.9.51,3.74.24,5.46-.07-.81-.07-2-.15-2.77a18.15,18.15,0,0,0-.28,3.47v-.14l-.14,3.21.09-.81c.69,2.37.13,4.82.58,8-.43-3.11-.25-.51-.55-.75-.09.81-.18,2.05-.26,1.7.24,1.51-.2,2.52.16,4.65-.1.1,0,1.62-.25,1.28.07,2,.17-.47.29-.3.33,3-.41,7.11.05,11.46.19,3.76.52,4.45.68,7.93-.15,1.18-.35-1-.35-1a33.54,33.54,0,0,0,0,5.11c-.08-.36-.16,0-.27.56,0,1.43.36,1,.22,2.85a7.51,7.51,0,0,1-.4-1.44c.09,1.69.28,3.36.36,5.11-.17.47-.25-1-.37-1.67a36.23,36.23,0,0,0,.43,5.7l.09-1.26c0,.72-.23.37-.28-.16a4.16,4.16,0,0,1,.19-2.53l.07,1.25c.57-1.28-.09-5-.06-7.51l.41,1L267.72,55c.11-.55.34-.92.4.32.21-1.8-.15-1.59.08-3.14,0-.17.06-.09.08.07l-.13-1.76c.09.34.3-.29.24.79.24-3.16-.32-5.09,0-6.28l0,.27c-.14-4.38-.3-.43-.66-3.71l.75-2.21-.3-.43c0-.45,0-1.34.15-1.18-.2-1.68-.13.29-.33-.68.28-2.18-.13-6,.36-6.48-.23-.78-.18,2.07-.34-.25.52-.66-.09-2.68.15-4.66.27.61.13,2.49.37.5-.46-1.2.1-3.86,0-5.54-.36-.08-.15-3.64-.27-6.45.12.18.2-5.28.33-7.9l.06.08a2.52,2.52,0,0,1-.23-1c0-.55-.07-1.39-.09-2.17l-2.71,0c0-.11.14-.19.37-.25a3.78,3.78,0,0,1,.49-.08l1-.07h-2.2a9.85,9.85,0,0,1-2.2.22l.46-.28c-2.46,0-4.95.33-8.11.14-.17.26,2.52.72-.82.89-.13-.14-.25-.38.62-.43a9.39,9.39,0,0,1-1.6,0L255,3.13c-1.44-.1-.75.19-1.9.17,0-.19-.86-.14-.69-.29a11.46,11.46,0,0,0,1.44,0,21,21,0,0,1-3.38-.3c.11.11,0,.26-1,.29-2.46,0-.84-.24-2.27-.34-.6.14-2.16,0-2.21.29a2.5,2.5,0,0,1-1.12-.22c-1.28.13-5.94,0-4.51.35l.33,0-.21,0h0c-4.17.29-8.65-.17-12.79-.05V3c-2.47.11-5.49.06-7.26.28-.73,0-1.72-.19-1.41-.3a32.63,32.63,0,0,1-4.82,0c1.9-.17-.65-.15,1.95-.13a30.42,30.42,0,0,0-5.64,0c.89-.25-1.85-.32-3-.24l1.72.18c-1.31,0-2.46,0-3.62,0l.63-.33c-5-.41-9.05.69-12.87,0-1.32.23,2.73.16,1.54.44-2.31-.05-4.71-.53-5.43-.53-3.16-.18-3,.49-6.26.36.42.12.82.44-1.65.55-2.31,0-2.83-.5-1.38-.59.56,0,.82,0,.8.06.75,0,1.72-.09.81-.22l-.3.12c-1.14-.12-4.32-.11-3.57-.3-1.75.11-.75.19.54.25-3-.17-4.62,0-7.67-.12.48.07.93.21.45.21-4.47-.15-2,.22-5,.27-1.72-.18.62-.43-2.43-.28-1.87-.12-.4-.31.34-.41a49.77,49.77,0,0,1-6.78-.19l1.47-.1c-.88.06-1.59.06-2.32.06l.83.24a5.24,5.24,0,0,1-1.57-.15c-.88.16.68.4-1.08.61-1.14-.12-3.49.13-3.88-.18,3.6.1-.4-.32,2.65-.37a19.77,19.77,0,0,1-2.17,0c-.13,0,.12-.06.36-.08-3.45-.28-1.59.36-5.16.35.46-.18-.83-.34-1.41-.3,1.44,0,.69.3-.63.43a27.63,27.63,0,0,0-3.69.09l1.37.06A15.84,15.84,0,0,1,138,3c-.13-.13,1.45-.09.88-.15-1.77.31-4-.33-6.48-.12-1.14-.12-.11-.33-1.11-.41-2.77.23-3-.24-5.92,0,.84.24,1,.18-1.06.41l4.79-.17L126,2.83c1.45,0,3.05-.15,3.92-.11-1.46.19-1.31.13-.62.33-2-.36-3.92.21-6.21,0l.07-.59c-3.43-.26-6.1.3-10.56.15l1.43.11a35.13,35.13,0,0,1-4.2.12c.13-.19-.77-.27-1.39-.39.08.15-3.26,0-3.67.38l-2-.26c-3.6-.1-4.11.57-7.57.5,1-.22-.53-.36,1.79-.51a7.4,7.4,0,0,0-2.22.1c-.67-.12-3.2.26-4.27.08A5.56,5.56,0,0,1,88.57,3c-.14,0,0-.09,0-.09s-2,.13-.9.35c-3.56-.62-10,0-13-.49-2.53.07-5.57.13-7.86.15.15-.06,0-.1.44-.08-3.16-.18-1.94.57-5.53.36-1.84-.32,1.91-.17.76-.29-.5-.65-4.34.09-6.76-.29l.59,0c-1.85-.22-4.52.25-7.54.2,0,0,.15-.06,0-.1-2.07.33-6,.44-8.89.53.91-.25,1.32-.13.77-.39-1.3,0,.38.42-2.22.49-.84-.14-2.72-.26-3-.54h2.45c-1.25-.36-3.17,0-4.47-.05l.17-.16c-3.76.05-3.81.44-7.86.42l.42.11c-2.21.39-1.85-.21-4.05.08l-.67-.4c-1.46.1-5.1.38-7.72.46,1.48-.3,4.54-.45,6.43-.62a49,49,0,0,0-5.66.22,13.33,13.33,0,0,1,1.89-.07,42.16,42.16,0,0,1-7,.46c.17-.25-.58-.36-1.73-.41-.57,0-1.25,0-2,0l-3,0c0,.57,0,1.14,0,1.68,0,.26,0,.53,0,.78l0,.5A8.16,8.16,0,0,1,2.39,7.2c.28,5.09-.12,10.1-.08,16,.6-2.11,0,1.73.63,1.36a12.73,12.73,0,0,1,0,2l-.37,4.18c-.17,1-.13-1.31-.27-1.18,0,3-.26,1.27-.42,3.27.22-.41.31,1.05.23,2.77l.28-2.42c.33,4.22-.51,3.65-.19,7.91L2,39.82C2.11,42,2,47.89,2.49,50c-.08.38-.24.89-.29-.07-.07,5.23.53,11.64.22,15.7l-.15-.4a12.91,12.91,0,0,1,.13,2.92c-.06-.06-.14-.39-.15.06a28.37,28.37,0,0,1,.17,3.88L2.25,71c-.08,2.26,0,3.38.09,6.62l2.76-.12,1.6-.12c1.07-.09,2.18-.16,3.41-.19,0,.44,4,.59,6,.66l-.07.06c5.93,0,10.08-.37,15.58-.54,3.41.48,11.56.2,17,.47-.83-.08.14-.34,1.12-.39,1.28.09,3.55-.3,3.35.1h-.46c1,.4,3.62.29,5.68.3l.34-.52c5.4.76,14.16-.29,17.11.4,1.3-.13,2.91-.13,4.21-.26l-.07.28c3.61.07,5.41.11,9.88,0l-.91.21c2.51,0,3.18-.82,5.5-.84l.7.42c4.39,0,8.84.37,13.18,0-.07.06-.2.18-.91.2,2.07,0,8,.28,7.25-.3,0,.38,4.53,0,6.9-.13l-.37.28a23.5,23.5,0,0,1,4.87-.55c.66,0,.58.22-.3.15,2.21.15,1.72-.26,4.4-.11l-1,.17a11,11,0,0,0,3.34-.28,15.85,15.85,0,0,1,4.65.33,8,8,0,0,1,2.89-.29c.18.09-.31.15-.56.18,3.8.19,5.65-.32,8.27,0,.05.09.22.14.44.17-3,0-5.45,0-5.22,0,0,.25,2.43.3.49.65a58.87,58.87,0,0,1,7.69-.49,1.4,1.4,0,0,1,.31.09l-.25,0a12.24,12.24,0,0,0,1.51,0c.75,0,1.24.07,2,.07a22.8,22.8,0,0,0,4,.13c-.1-.28,1.49-.24,0-.47.19,0-.23,0-1,0l-.52,0,.08,0-3,0a11.3,11.3,0,0,1,3.31-.11c.62-.18,1.31-.37,1.7-.45,1.66.39,4.87.6,5.31.84,3.72-.15,8.75-.1,11.08-.63a3.2,3.2,0,0,1,1.61.24c-.61,0-1.33,0-1.66.12,2.11-.14,6.25-.06,6.75-.43,2.66.17-1.49.34,2.16.28l-.49.12c7.19.59,11.69-1,19.66-.19a3.33,3.33,0,0,1-.94-.13c9.09.34,18.73-.31,27.69.22a17.92,17.92,0,0,0,4.38-.31l.56.3,2.66-.35c3.77-.25,6.53.74,11.3.26l-.61-.2c1.71,0,5.43-.12,5.14.11A2.68,2.68,0,0,1,255,77l.05.16,4.21-.28c3.27.12-.51.63,4.26.66,1.77-.06,5-.46,4.38-.56a4.82,4.82,0,0,1-1.89-.26l1.63-.08c.29-.47,1.53-.94-2.44-1.27l-2.77.28-.9-.22,2.34,0a9.12,9.12,0,0,0-3.11.11,3.3,3.3,0,0,0-1.16-.25l-2.72.45c-.33-.19,1.22-.37-.6-.47-1.28.21,1.22.41-.89.55a5.2,5.2,0,0,0-2.5-.21c-.21-.12.11-.19.73-.24a43.83,43.83,0,0,0-4.38.3c-1.38-.26-4.68.07-4.54-.37a25.11,25.11,0,0,1-3.71.36c2.32-.52-4.76,0-4.15-.59-1.72.47-6.21.21-9.26.47a2.8,2.8,0,0,1,.77-.09c-1.71,0-2.21-.18-3.31-.27-.22.39-2.89.48-4.33.72-2.11-.37,1.27-.46.61-.82.11.32-3.65.32-2.93.58a6.47,6.47,0,0,1-2.22-.44c-.28.49-1.5.09-2.83.39-2.33-.24-.6-.46-3.15-.31C209,75.08,211.27,74.9,211.27,74.9Zm-60.78.85h0l1.25,0Zm-5.11,0h2.21c.18.09,0,.19-.52.19C147.34,75.89,146.14,75.84,145.38,75.76Zm10.8,1.94a2.79,2.79,0,0,1-1.19-.07l1.42,0,.09,0A.64.64,0,0,1,156.18,77.7Z"/><path class="cls-1" d="M157.64,77.33l.33,0-.48-.06-.29.09Z"/><path class="cls-1" d="M239.4,3.08h-.11l.23,0Z"/><polygon class="cls-1" points="74.84 75.22 74.85 75.29 75.3 75.23 74.84 75.22"/><path class="cls-1" d="M267.14,4.05a.35.35,0,0,0,.18.07S267.25,4.07,267.14,4.05Z"/><path class="cls-1" d="M267.38,15.2l-.1,1.72C267.33,16.18,267.36,15.63,267.38,15.2Z"/><path class="cls-1" d="M267.24,24.55a.41.41,0,0,0,.12.18v0Z"/><path class="cls-1" d="M140.46,4.58h-.36C139.26,4.65,139.83,4.63,140.46,4.58Z"/><path class="cls-1" d="M184.68,3.92l-1.43.14C184,4.08,184.65,4.08,184.68,3.92Z"/><path class="cls-1" d="M91.09,4.92h0Z"/><path class="cls-1" d="M181.2,4.05a15.67,15.67,0,0,0,2.05,0C182.61,4,181.85,4,181.2,4.05Z"/><path class="cls-1" d="M267.11,65v.45s0,0,0,.06Z"/><path class="cls-1" d="M267.14,65.55l0,.5A1.52,1.52,0,0,0,267.14,65.55Z"/><path class="cls-1" d="M267.25,67.1l-.07-1A4.19,4.19,0,0,0,267.25,67.1Z"/><path class="cls-1" d="M267.24,52.67l-.1-.14C267.16,52.61,267.19,52.66,267.24,52.67Z"/><path class="cls-1" d="M267.21,48.92c0,.89-.22,2.25-.15,3.5l.08.11C267,51.94,267.38,49.77,267.21,48.92Z"/><path class="cls-1" d="M268.47,33.23l-.08,3.15c.11-.56.25-1.28.28.15C269,32.56,268.43,37.35,268.47,33.23Z"/><path class="cls-1" d="M268.63,23.46c.05,1.69.16,0,.22.07C268.75,22.45,268.72,22.2,268.63,23.46Z"/><path class="cls-1" d="M217.36,2.86l.17-.26C216.23,2.64,217.52,2.7,217.36,2.86Z"/><polygon class="cls-1" points="203.87 4.18 205.14 4.34 205.75 4.1 203.87 4.18"/><polygon class="cls-1" points="195.9 2.36 196.47 2.32 194.29 2.41 195.9 2.36"/><path class="cls-1" d="M77.36,2.45l.39.31C78.63,2.71,78.82,2.35,77.36,2.45Z"/><path class="cls-1" d="M26.18,2.77a8.35,8.35,0,0,0-2.88-.1C24.45,2.69,25.6,2.81,26.18,2.77Z"/><polygon class="cls-1" points="61.27 77.74 60.24 77.85 62.18 77.76 61.27 77.74"/><path class="cls-2" d="M49.28,39a7.8,7.8,0,0,1,1.7.81A6,6,0,0,1,52.37,41a5.84,5.84,0,0,1,1,1.74A6.92,6.92,0,0,1,53.67,45a7.71,7.71,0,0,1-.55,3.1,5.73,5.73,0,0,1-1.46,2.06,5.67,5.67,0,0,1-2.15,1.16,8.94,8.94,0,0,1-2.63.37H40.73a2.58,2.58,0,0,0,.34-.87,10.55,10.55,0,0,0,.24-1.24,13.17,13.17,0,0,0,.12-1.95V32.18a13.17,13.17,0,0,0-.12-1.95A10.78,10.78,0,0,0,41.07,29a2.6,2.6,0,0,0-.34-.86h5.89a9,9,0,0,1,2.41.3,4.83,4.83,0,0,1,1.86.95A4.34,4.34,0,0,1,52.11,31a6.72,6.72,0,0,1,.43,2.53A6.55,6.55,0,0,1,51.71,37,4.63,4.63,0,0,1,49.28,39ZM45,38.56h1.86a1.55,1.55,0,0,0,1.1-.4,2.81,2.81,0,0,0,.68-1.06,6.19,6.19,0,0,0,.33-1.58c.06-.61.08-1.25.08-1.91a6.78,6.78,0,0,0-.3-2.18A4.28,4.28,0,0,0,48,30,2.88,2.88,0,0,0,45.75,29H45ZM46.82,50.9a2.11,2.11,0,0,0,1.28-.47,4,4,0,0,0,1.06-1.26,7.59,7.59,0,0,0,.72-1.85A9.29,9.29,0,0,0,50.14,45a6.74,6.74,0,0,0-.41-2.42,6,6,0,0,0-1-1.78,4.33,4.33,0,0,0-1.41-1.07,3.5,3.5,0,0,0-1.52-.37H45v7.85a2,2,0,0,1,.66-.37,2.46,2.46,0,0,1,1.08,0,1,1,0,0,1,.72.7,1.77,1.77,0,0,0-1,.1,2,2,0,0,0-.78.58,1.74,1.74,0,0,0-.4.87,1.83,1.83,0,0,0,.12,1,1.07,1.07,0,0,0,.49.51A1.77,1.77,0,0,0,46.82,50.9Z"/><path class="cls-2" d="M61.85,27.82a6.14,6.14,0,0,1,2.26.4,5.41,5.41,0,0,1,1.78,1.08A4.67,4.67,0,0,1,67,30.9a4.84,4.84,0,0,1,.4,1.94V47A4.56,4.56,0,0,1,67,49a4.82,4.82,0,0,1-1.18,1.58A5.8,5.8,0,0,1,64,51.63a6,6,0,0,1-2.22.4,6.28,6.28,0,0,1-2.28-.4,6.08,6.08,0,0,1-1.81-1.06A4.88,4.88,0,0,1,56.53,49a4.55,4.55,0,0,1-.43-2V32.84a4.29,4.29,0,0,1,.45-1.94,4.77,4.77,0,0,1,1.23-1.6,5.75,5.75,0,0,1,1.83-1.08A6.1,6.1,0,0,1,61.85,27.82Zm2.06,4.92a1.92,1.92,0,0,1-1.13.4,3.29,3.29,0,0,1-1.15-.28,1,1,0,0,1-.58-.92,2,2,0,0,0,1.07.17,1.94,1.94,0,0,0,.91-.36A1.83,1.83,0,0,0,63.6,31a2,2,0,0,0,0-1.09V29.8A2.72,2.72,0,0,0,63,29a1.71,1.71,0,0,0-1.16-.35,2,2,0,0,0-1.08.27,2,2,0,0,0-.68.66,2.52,2.52,0,0,0-.37.86,4.65,4.65,0,0,0-.1.87v17.3a4.54,4.54,0,0,0,.1.83,2.6,2.6,0,0,0,.35.86,2.28,2.28,0,0,0,.67.68,2.22,2.22,0,0,0,2.12,0,1.89,1.89,0,0,0,.65-.67,2.55,2.55,0,0,0,.32-.86,5.52,5.52,0,0,0,.08-.87Z"/><path class="cls-2" d="M76.52,27.82a6.17,6.17,0,0,1,2.26.4,5.51,5.51,0,0,1,1.78,1.08,4.78,4.78,0,0,1,1.54,3.54V47a4.55,4.55,0,0,1-.43,2,5,5,0,0,1-1.18,1.58,5.92,5.92,0,0,1-1.78,1.06,6.05,6.05,0,0,1-2.23.4,6.28,6.28,0,0,1-2.28-.4,6.21,6.21,0,0,1-1.81-1.06A4.88,4.88,0,0,1,71.19,49a4.7,4.7,0,0,1-.43-2V32.84a4.29,4.29,0,0,1,.45-1.94,5,5,0,0,1,1.23-1.6,5.75,5.75,0,0,1,1.83-1.08A6.2,6.2,0,0,1,76.52,27.82Zm2.06,4.92a2,2,0,0,1-1.13.4,3.29,3.29,0,0,1-1.15-.28,1,1,0,0,1-.58-.92,2,2,0,0,0,2-.19,1.81,1.81,0,0,0,.56-.79,1.91,1.91,0,0,0,0-1.09V29.8a2.54,2.54,0,0,0-.63-.8,1.73,1.73,0,0,0-1.16-.35,2,2,0,0,0-1.09.27,2.25,2.25,0,0,0-.68.66,2.5,2.5,0,0,0-.36.86,3.94,3.94,0,0,0-.1.87v17.3a3.8,3.8,0,0,0,.1.83,2.4,2.4,0,0,0,.35.86,2.14,2.14,0,0,0,.66.68,2.24,2.24,0,0,0,2.13,0,2,2,0,0,0,.65-.67,2.53,2.53,0,0,0,.31-.86,4.59,4.59,0,0,0,.09-.87Z"/><path class="cls-2" d="M88.19,31.88a4.7,4.7,0,0,0,.66,2.44A13.45,13.45,0,0,0,90.5,36.5a28.16,28.16,0,0,0,2.13,2.09,25.62,25.62,0,0,1,2.13,2.17A11.72,11.72,0,0,1,96.4,43.2a6.27,6.27,0,0,1,.67,2.91A7.19,7.19,0,0,1,95.52,51a5.86,5.86,0,0,1-4.64,1.76,8,8,0,0,1-2.24-.32,5.77,5.77,0,0,1-1.92-1,4.93,4.93,0,0,1-1.33-1.6,4.68,4.68,0,0,1-.49-2.21,4.73,4.73,0,0,1,.38-2,4.33,4.33,0,0,1,1-1.39,3.7,3.7,0,0,1,1.24-.83,3.3,3.3,0,0,1,1.25-.29,3.69,3.69,0,0,1,2.59.75,2.27,2.27,0,0,1,.8,1.71,3.23,3.23,0,0,0-1.24-.15,4,4,0,0,0-1.22.3,3.31,3.31,0,0,0-1,.69,3,3,0,0,0-.66,1A3.17,3.17,0,0,0,87.77,49a3.37,3.37,0,0,0,.47,1.41,3.07,3.07,0,0,0,1,1,2.79,2.79,0,0,0,1.51.4,3.79,3.79,0,0,0,1.61-.32,3.45,3.45,0,0,0,1.14-.81,3,3,0,0,0,.64-1.13,3.86,3.86,0,0,0,.2-1.23,5.85,5.85,0,0,0-.66-2.78,12.45,12.45,0,0,0-1.66-2.36c-.67-.74-1.4-1.47-2.18-2.18a25.18,25.18,0,0,1-2.18-2.21A12.1,12.1,0,0,1,86,36.37a6.59,6.59,0,0,1-.22-5.29,5.64,5.64,0,0,1,1.26-1.9,5.7,5.7,0,0,1,2-1.24,6.79,6.79,0,0,1,2.51-.45,5.88,5.88,0,0,1,2.51.48,5.12,5.12,0,0,1,1.64,1.18,4.53,4.53,0,0,1,1.2,3A4.51,4.51,0,0,1,96.55,34a3.82,3.82,0,0,1-.88,1.28,3.48,3.48,0,0,1-1.13.75,2.9,2.9,0,0,1-1.13.25,4,4,0,0,1-1.21-.18,4,4,0,0,1-1-.48,2.78,2.78,0,0,1-.71-.7,1.54,1.54,0,0,1-.27-.87,2.6,2.6,0,0,0,1.17.15,3.13,3.13,0,0,0,1.11-.28,3.06,3.06,0,0,0,.93-.63,2.49,2.49,0,0,0,.62-.93,2.6,2.6,0,0,0,.18-1.12,3.34,3.34,0,0,0-.3-1.31,3,3,0,0,0-.86-1.1,2.48,2.48,0,0,0-1.58-.46,3,3,0,0,0-1.4.31,3.25,3.25,0,0,0-1,.82,3.6,3.6,0,0,0-.64,1.13A4.07,4.07,0,0,0,88.19,31.88Z"/><path class="cls-2" d="M111.47,28.12l-.3,3.29h-.77c-.11-.42-.21-.79-.31-1.1a1.65,1.65,0,0,0-.49-.76,2.13,2.13,0,0,0-.93-.45A7.16,7.16,0,0,0,107,29V47.67a15.14,15.14,0,0,0,.1,1.95,6.34,6.34,0,0,0,.27,1.24,2.21,2.21,0,0,0,.36.87h-5a3.56,3.56,0,0,0,.37-.87,10.25,10.25,0,0,0,.25-1.24,13.17,13.17,0,0,0,.12-1.95V29a7.25,7.25,0,0,0-1.67.15,2.13,2.13,0,0,0-.93.45,1.71,1.71,0,0,0-.48.76c-.1.31-.21.68-.32,1.1h-.76L99,28.12Z"/><path class="cls-2" d="M129.06,51.73H117.82a3.35,3.35,0,0,0,.36-.87,8.61,8.61,0,0,0,.25-1.24,13.17,13.17,0,0,0,.12-1.95V32.18a13.17,13.17,0,0,0-.12-1.95,8.8,8.8,0,0,0-.25-1.25,3.41,3.41,0,0,0-.36-.86h5a2.22,2.22,0,0,0-.37.86,6.46,6.46,0,0,0-.27,1.25,17.2,17.2,0,0,0-.1,1.95V49.47a1.5,1.5,0,0,0,.39.9,1.64,1.64,0,0,0,.61.38,3,3,0,0,0,1,.15h1.17a2.43,2.43,0,0,0,1.23-.28,2.24,2.24,0,0,0,.75-.75,4.54,4.54,0,0,0,.44-1c.12-.39.23-.78.34-1.18h.76Z"/><path class="cls-2" d="M139,51.73a3.64,3.64,0,0,0,.3-.77,5.5,5.5,0,0,0,.15-1,5.31,5.31,0,0,0-.12-1.41l-1.56-8.11h-3.46L132.12,50a2.83,2.83,0,0,0-.07.63v.56a5.17,5.17,0,0,0,0,.57h-1.79a3.34,3.34,0,0,0,.3-.53,5.32,5.32,0,0,0,.25-.62c.07-.23.16-.49.25-.78l4.62-20a11.33,11.33,0,0,0-.43-1.26l-.2-.4h3.82L141,38.69,143,49.27a5.3,5.3,0,0,0,.26,1,7.64,7.64,0,0,0,.33.78,4.69,4.69,0,0,0,.37.67Zm-1.43-12.34-1.4-7.15-1.63,7.15Z"/><path class="cls-2" d="M152.44,45.68a1.28,1.28,0,0,1,.84-.32,2.66,2.66,0,0,1,1.17.18,2.49,2.49,0,0,1,1,.82,2.51,2.51,0,0,1,.45,1.58,4.9,4.9,0,0,1-.2,1.3,3.69,3.69,0,0,1-2.16,2.37,5.87,5.87,0,0,1-2.4.42,7.62,7.62,0,0,1-2.61-.4,5.83,5.83,0,0,1-1.88-1.08,4.36,4.36,0,0,1-1.14-1.6,4.91,4.91,0,0,1-.39-1.94V32.81a4.92,4.92,0,0,1,.39-2,4.25,4.25,0,0,1,1.14-1.59,5.67,5.67,0,0,1,1.88-1.09,7.88,7.88,0,0,1,2.61-.39,6.88,6.88,0,0,1,2.75.46,4.44,4.44,0,0,1,1.63,1.15,3.8,3.8,0,0,1,.79,1.46,5.27,5.27,0,0,1,.22,1.45,4.38,4.38,0,0,1-.33,1.78,3.74,3.74,0,0,1-.85,1.23,3.33,3.33,0,0,1-1.11.71,3,3,0,0,1-1.1.24A4.32,4.32,0,0,1,152,36.1a3.42,3.42,0,0,1-1-.47,2.47,2.47,0,0,1-.68-.69,1.55,1.55,0,0,1-.25-.84,3,3,0,0,0,2.2-.11,2.65,2.65,0,0,0,1.49-1.52,2.47,2.47,0,0,0,.2-1.09,3,3,0,0,0-.28-1.28,2.79,2.79,0,0,0-.86-1.05,2.54,2.54,0,0,0-1.55-.43,2.67,2.67,0,0,0-1.23.26,2.41,2.41,0,0,0-.8.67,2.38,2.38,0,0,0-.42.86,3.87,3.87,0,0,0-.11.83V48.57a3.87,3.87,0,0,0,.11.83A2.34,2.34,0,0,0,150,50.93a2.54,2.54,0,0,0,1.23.27,2.49,2.49,0,0,0,1.91-.77A3.08,3.08,0,0,0,154,48.7a3.17,3.17,0,0,0-.23-1.93A2.49,2.49,0,0,0,152.44,45.68Z"/><path class="cls-2" d="M171.16,28.12l-.3,3.29h-.77c-.11-.42-.21-.79-.31-1.1a1.71,1.71,0,0,0-.48-.76,2.25,2.25,0,0,0-.93-.45A7.25,7.25,0,0,0,166.7,29V47.67a17.2,17.2,0,0,0,.1,1.95,6.34,6.34,0,0,0,.27,1.24,2.37,2.37,0,0,0,.36.87h-5a4,4,0,0,0,.36-.87,10.25,10.25,0,0,0,.25-1.24,13.17,13.17,0,0,0,.12-1.95V29a7.25,7.25,0,0,0-1.67.15,2.19,2.19,0,0,0-.93.45,1.71,1.71,0,0,0-.48.76c-.1.31-.2.68-.31,1.1H159l-.3-3.29Z"/><path class="cls-2" d="M180.4,51.73a3.64,3.64,0,0,0,.3-.77,5.5,5.5,0,0,0,.15-1,4.87,4.87,0,0,0-.11-1.41l-1.57-8.11h-3.46L173.52,50a2.83,2.83,0,0,0-.07.63v.56a3.48,3.48,0,0,0,0,.57h-1.8a3.34,3.34,0,0,0,.3-.53,5.32,5.32,0,0,0,.25-.62c.08-.23.16-.49.25-.78l4.62-20a11.33,11.33,0,0,0-.43-1.26l-.2-.4h3.82l2.07,10.57,2.06,10.58a5.3,5.3,0,0,0,.26,1,7.52,7.52,0,0,0,.34.78,4.67,4.67,0,0,0,.36.67ZM179,39.39l-1.39-7.15L176,39.39Z"/><path class="cls-2" d="M197.4,28.12l-.3,3.29h-.77c-.11-.42-.21-.79-.31-1.1a1.71,1.71,0,0,0-.48-.76,2.23,2.23,0,0,0-.94-.45,7.1,7.1,0,0,0-1.66-.15V47.67a15.14,15.14,0,0,0,.1,1.95,6.34,6.34,0,0,0,.27,1.24,2.37,2.37,0,0,0,.36.87h-5a3.56,3.56,0,0,0,.37-.87,10.25,10.25,0,0,0,.25-1.24,13.17,13.17,0,0,0,.12-1.95V29a7.25,7.25,0,0,0-1.67.15,2.13,2.13,0,0,0-.93.45,1.71,1.71,0,0,0-.48.76c-.1.31-.21.68-.32,1.1h-.76l-.3-3.29Z"/><path class="cls-2" d="M203.85,47.67a15.14,15.14,0,0,0,.1,1.95,5.75,5.75,0,0,0,.26,1.24,2.21,2.21,0,0,0,.37.87h-5a3.32,3.32,0,0,0,.37-.87,10.25,10.25,0,0,0,.25-1.24,14.91,14.91,0,0,0,.11-1.95V32.18a14.91,14.91,0,0,0-.11-1.95A10.48,10.48,0,0,0,200,29a3.38,3.38,0,0,0-.37-.86h5a2.22,2.22,0,0,0-.37.86,5.86,5.86,0,0,0-.26,1.25,15.14,15.14,0,0,0-.1,1.95V47.67Z"/><path class="cls-2" d="M213.09,27.82a6.1,6.1,0,0,1,2.26.4,5.41,5.41,0,0,1,1.78,1.08,4.74,4.74,0,0,1,1.55,3.54V47a4.55,4.55,0,0,1-.43,2,5,5,0,0,1-1.18,1.58,6.06,6.06,0,0,1-4,1.46,6.28,6.28,0,0,1-2.28-.4A6.08,6.08,0,0,1,209,50.57a4.88,4.88,0,0,1-1.2-1.58,4.55,4.55,0,0,1-.43-2V32.84a4.29,4.29,0,0,1,.45-1.94A5,5,0,0,1,209,29.3a5.75,5.75,0,0,1,1.83-1.08A6.14,6.14,0,0,1,213.09,27.82Zm2.07,4.92a2,2,0,0,1-1.14.4,3.18,3.18,0,0,1-1.14-.28,1,1,0,0,1-.59-.92,2,2,0,0,0,1.07.17,1.94,1.94,0,0,0,.91-.36,1.76,1.76,0,0,0,.57-.79,1.91,1.91,0,0,0,0-1.09V29.8a2.86,2.86,0,0,0-.63-.8,1.76,1.76,0,0,0-1.17-.35,2,2,0,0,0-1.08.27,2.14,2.14,0,0,0-.68.66,2.52,2.52,0,0,0-.37.86,4.59,4.59,0,0,0-.09.87v17.3a4.45,4.45,0,0,0,.09.83,2.83,2.83,0,0,0,.35.86A2.28,2.28,0,0,0,212,51a2.24,2.24,0,0,0,2.13,0,2.08,2.08,0,0,0,.65-.67,2.53,2.53,0,0,0,.31-.86,4.59,4.59,0,0,0,.09-.87Z"/><path class="cls-2" d="M234,28.12a4.2,4.2,0,0,0-.3.6,2.71,2.71,0,0,0-.22.63,3.94,3.94,0,0,0-.08.8V51.73h-1.07l-9.17-19.49V49.7a3.34,3.34,0,0,0,.08.8,5.47,5.47,0,0,0,.18.63,4.2,4.2,0,0,0,.3.6h-2.23a4.2,4.2,0,0,0,.3-.6,4.64,4.64,0,0,0,.2-.65,3.15,3.15,0,0,0,.1-.85V31.78a12.41,12.41,0,0,0-.15-1.75,9.06,9.06,0,0,0-.25-1.11,2.33,2.33,0,0,0-.33-.77H225l7.31,15.37V30.21a3.12,3.12,0,0,0-.1-.84,6,6,0,0,0-.19-.65q-.14-.33-.27-.6Z"/></svg>