<svg xmlns="http://www.w3.org/2000/svg" width="163.979" height="119.429" viewBox="0 0 163.979 119.429">
    <defs>
        <style>
            .cls-1{fill:#fff}
        </style>
    </defs>
    <g id="m-aboutpangolin">
        <g id="Group_229" data-name="Group 229" transform="translate(24)">
            <path id="Path_1358" d="M1850.483-871.37a5.945 5.945 0 0 0 .488-1.246 10.309 10.309 0 0 0 .244-1.6 8.354 8.354 0 0 0-.189-2.3l-2.546-13.214h-5.634l-3.574 15.488a5.188 5.188 0 0 0-.108 1.029v.921a7.463 7.463 0 0 0 .056.921h-2.92a4.95 4.95 0 0 0 .487-.866 7.921 7.921 0 0 0 .406-1q.19-.569.406-1.273l7.527-32.6a18.053 18.053 0 0 0-.7-2.058l-.325-.65h6.228l3.358 17.222 3.358 17.221a9.5 9.5 0 0 0 .433 1.652 12.469 12.469 0 0 0 .542 1.273 7.687 7.687 0 0 0 .6 1.083zm-2.328-20.091l-2.275-11.639-2.653 11.644z" class="cls-1" data-name="Path 1358" transform="translate(-1836.295 910.306)"/>
            <path id="Path_1359" d="M1903.942-892.167a12.168 12.168 0 0 1 2.762 1.326 9.51 9.51 0 0 1 2.275 2.058 9.579 9.579 0 0 1 1.543 2.843 11.1 11.1 0 0 1 .569 3.682 12.641 12.641 0 0 1-.9 5.037 9.27 9.27 0 0 1-2.382 3.358 9.25 9.25 0 0 1-3.493 1.9 14.932 14.932 0 0 1-4.278.6h-10.017a4.4 4.4 0 0 0 .542-1.408 16.762 16.762 0 0 0 .406-2.031 22.17 22.17 0 0 0 .189-3.168v-25.236a22.169 22.169 0 0 0-.189-3.168 16.856 16.856 0 0 0-.406-2.03 4.412 4.412 0 0 0-.542-1.409h9.585a14.739 14.739 0 0 1 3.926.487 8.053 8.053 0 0 1 3.032 1.543 7.006 7.006 0 0 1 1.977 2.735 10.667 10.667 0 0 1 .7 4.116 10.62 10.62 0 0 1-1.354 5.523 7.516 7.516 0 0 1-3.945 3.242zm-7.04-.65h3.032a2.535 2.535 0 0 0 1.787-.65 4.419 4.419 0 0 0 1.11-1.735 9.916 9.916 0 0 0 .541-2.574q.135-1.489.135-3.114a11.145 11.145 0 0 0-.488-3.547 7.087 7.087 0 0 0-1.246-2.329 4.644 4.644 0 0 0-1.706-1.3 4.716 4.716 0 0 0-1.868-.406h-1.3zm3.032 20.091a3.414 3.414 0 0 0 2.085-.756 6.56 6.56 0 0 0 1.735-2.051 12.165 12.165 0 0 0 1.164-3.022 15.3 15.3 0 0 0 .433-3.726 10.749 10.749 0 0 0-.677-3.942 9.594 9.594 0 0 0-1.706-2.889 7.076 7.076 0 0 0-2.3-1.755 5.817 5.817 0 0 0-2.463-.594h-1.3v12.78a3.245 3.245 0 0 1 1.083-.6 3.65 3.65 0 0 1 1.761 0 1.531 1.531 0 0 1 1.164 1.138 2.758 2.758 0 0 0-1.623.16 3.326 3.326 0 0 0-1.273.939 2.931 2.931 0 0 0-.649 1.421 3.149 3.149 0 0 0 .188 1.663 1.848 1.848 0 0 0 .812.83 2.925 2.925 0 0 0 1.566.4z" class="cls-1" data-name="Path 1359" transform="translate(-1865.818 910.308)"/>
            <path id="Path_1360" d="M1953.722-910.9a10.119 10.119 0 0 1 3.682.65 9.149 9.149 0 0 1 2.9 1.759 7.6 7.6 0 0 1 1.869 2.6 7.837 7.837 0 0 1 .65 3.168v23.07a7.449 7.449 0 0 1-.7 3.222 7.956 7.956 0 0 1-1.922 2.574 9.446 9.446 0 0 1-2.9 1.735 9.969 9.969 0 0 1-3.629.65 10.342 10.342 0 0 1-3.71-.65 9.719 9.719 0 0 1-2.952-1.735 7.757 7.757 0 0 1-1.949-2.574 7.436 7.436 0 0 1-.7-3.222v-23.071a7.1 7.1 0 0 1 .732-3.169 8.226 8.226 0 0 1 2-2.6 9.76 9.76 0 0 1 2.978-1.759 10.178 10.178 0 0 1 3.656-.649zm3.358 8.014a3.18 3.18 0 0 1-1.841.65 5.161 5.161 0 0 1-1.869-.461 1.585 1.585 0 0 1-.948-1.489 3.245 3.245 0 0 0 1.735.271 2.984 2.984 0 0 0 1.489-.591 2.83 2.83 0 0 0 .921-1.287 3.085 3.085 0 0 0 .081-1.77v-.106a4.3 4.3 0 0 0-1.029-1.314 2.817 2.817 0 0 0-1.9-.564 3.223 3.223 0 0 0-1.76.433 3.731 3.731 0 0 0-1.111 1.081 4.036 4.036 0 0 0-.6 1.406 6.767 6.767 0 0 0-.163 1.406v28.174a6.549 6.549 0 0 0 .163 1.351 4.331 4.331 0 0 0 .569 1.406 3.7 3.7 0 0 0 1.083 1.108 3.073 3.073 0 0 0 1.76.459 3.1 3.1 0 0 0 1.706-.433 3.186 3.186 0 0 0 1.056-1.083 4.266 4.266 0 0 0 .514-1.408 8.059 8.059 0 0 0 .135-1.408z" class="cls-1" data-name="Path 1360" transform="translate(-1895.669 910.901)"/>
            <path id="Path_1361" d="M2014.043-908.791a4.5 4.5 0 0 0-.352 1.056 5.955 5.955 0 0 0-.135 1.273q0 2.384-.027 4.305t-.027 4.386v18.656a9.546 9.546 0 0 1-.543 3.249 8.342 8.342 0 0 1-1.521 2.654 6.925 6.925 0 0 1-2.39 1.787 7.45 7.45 0 0 1-3.151.65h-.543q-5 0-7.821-2.139a7.48 7.48 0 0 1-2.824-6.363v-23.936a21.529 21.529 0 0 0-.19-3.141 17.15 17.15 0 0 0-.406-2 6.471 6.471 0 0 0-.6-1.462h8.143a4.19 4.19 0 0 0-.606 1.462 9.808 9.808 0 0 0-.44 2 24.546 24.546 0 0 0-.168 3.141v23.72a15.318 15.318 0 0 0 .244 2.816 6.459 6.459 0 0 0 .812 2.22 4.2 4.2 0 0 0 1.517 1.462 4.563 4.563 0 0 0 2.3.542h.542a5.6 5.6 0 0 0 2.437-.514 5.573 5.573 0 0 0 1.869-1.435 6.4 6.4 0 0 0 1.192-2.112 8.012 8.012 0 0 0 .406-2.6v-27.294a5.764 5.764 0 0 0-.154-1.381q-.155-.622-.309-1.056a6.407 6.407 0 0 0-.464-.975h3.69a8.875 8.875 0 0 0-.486 1.028z" class="cls-1" data-name="Path 1361" transform="translate(-1922.685 910.307)"/>
            <path id="Path_1362" d="M2068.583-909.821l-.488 5.362h-1.245q-.272-1.029-.514-1.787a2.8 2.8 0 0 0-.784-1.246 3.5 3.5 0 0 0-1.517-.731 11.735 11.735 0 0 0-2.708-.243v30.489a25.865 25.865 0 0 0 .163 3.168 9.923 9.923 0 0 0 .433 2.031 3.668 3.668 0 0 0 .6 1.408h-8.123a6.124 6.124 0 0 0 .595-1.408 16.666 16.666 0 0 0 .406-2.031 22.064 22.064 0 0 0 .19-3.168v-30.488a11.73 11.73 0 0 0-2.708.243 3.5 3.5 0 0 0-1.517.732 2.788 2.788 0 0 0-.784 1.246q-.244.759-.514 1.787h-1.249l-.487-5.362z" class="cls-1" data-name="Path 1362" transform="translate(-1952.801 910.307)"/>
        </g>
        <g id="Group_989" data-name="Group 989" transform="translate(-345.65 -88.089)">
            <path id="Path_1363" d="M2210.667-909.822a14.73 14.73 0 0 1 3.927.487 8.062 8.062 0 0 1 3.033 1.543 6.979 6.979 0 0 1 1.976 2.763 10.719 10.719 0 0 1 .7 4.089 9.672 9.672 0 0 1-2.41 6.932 8.9 8.9 0 0 1-6.8 2.545 4.76 4.76 0 0 1-1.706-.3 4.878 4.878 0 0 1-1.381-.783v14.567a25.72 25.72 0 0 0 .162 3.168 9.971 9.971 0 0 0 .434 2.031 3.642 3.642 0 0 0 .6 1.408h-8.124a5.339 5.339 0 0 0 .6-1.408 16.8 16.8 0 0 0 .407-2.031 22.136 22.136 0 0 0 .189-3.168v-25.236a22.242 22.242 0 0 0-.189-3.168 16.8 16.8 0 0 0-.407-2.03 5.327 5.327 0 0 0-.595-1.409zm.379 17.005a2.535 2.535 0 0 0 1.788-.65 4.185 4.185 0 0 0 1.083-1.735 10.8 10.8 0 0 0 .515-2.574q.135-1.489.135-3.114a11.81 11.81 0 0 0-.461-3.52 6.717 6.717 0 0 0-1.218-2.356 4.647 4.647 0 0 0-1.706-1.3 4.717 4.717 0 0 0-1.868-.406h-1.3v9.64a2.622 2.622 0 0 1 .975-.6 2.742 2.742 0 0 1 1.191-.162 2.478 2.478 0 0 1 1.111.379 1.777 1.777 0 0 1 .731.921 2.855 2.855 0 0 0-1.652.162 3.077 3.077 0 0 0-1.272.948 3.354 3.354 0 0 0-.65 1.435 3.018 3.018 0 0 0 .163 1.679 1.846 1.846 0 0 0 .839.84 3.041 3.041 0 0 0 1.597.413z" class="cls-1" data-name="Path 1363" transform="translate(-1855.432 1078.397)"/>
            <path id="Path_1364" d="M2254.337-871.37a6.024 6.024 0 0 0 .488-1.246 10.357 10.357 0 0 0 .244-1.6 8.378 8.378 0 0 0-.19-2.3l-2.545-13.214h-5.634l-3.574 15.488a5.225 5.225 0 0 0-.108 1.029v.921a7.438 7.438 0 0 0 .056.921h-2.925a4.9 4.9 0 0 0 .488-.866 7.834 7.834 0 0 0 .407-1q.188-.569.405-1.273l7.528-32.6a18.262 18.262 0 0 0-.7-2.058l-.325-.65h6.228l3.358 17.222 3.358 17.221a9.507 9.507 0 0 0 .433 1.652 12.535 12.535 0 0 0 .542 1.273 7.642 7.642 0 0 0 .6 1.083zm-2.328-20.091l-2.275-11.644-2.654 11.644z" class="cls-1" data-name="Path 1364" transform="translate(-1876.898 1078.395)"/>
            <path id="Path_1365" d="M2314.7-909.823a6.112 6.112 0 0 0-.488.975 4.591 4.591 0 0 0-.352 1.029 5.877 5.877 0 0 0-.135 1.3v35.145h-1.735l-14.947-31.735v28.429a5.847 5.847 0 0 0 .135 1.3 7.878 7.878 0 0 0 .3 1.029 6.035 6.035 0 0 0 .487.975h-3.628a6.174 6.174 0 0 0 .487-.975 10.782 10.782 0 0 0 .325-1.056 5.436 5.436 0 0 0 .163-1.381v-29.081a21.579 21.579 0 0 0-.244-2.844 15.066 15.066 0 0 0-.406-1.814 3.667 3.667 0 0 0-.542-1.245h5.958l11.914 25.02v-21.662a5.483 5.483 0 0 0-.162-1.381q-.163-.622-.325-1.056-.217-.541-.433-.975z" class="cls-1" data-name="Path 1365" transform="translate(-1906.551 1078.398)"/>
            <path id="Path_1366" d="M2367.037-871.972a7.156 7.156 0 0 1-2.492-.3 5.216 5.216 0 0 1-1.245-.728 10.386 10.386 0 0 1-2.491 1.11 10.152 10.152 0 0 1-2.924.406 10.5 10.5 0 0 1-3.764-.65 9.089 9.089 0 0 1-2.925-1.761 8.238 8.238 0 0 1-1.922-2.6 7.317 7.317 0 0 1-.7-3.167v-23.07a8.326 8.326 0 0 1 .623-3.2 6.994 6.994 0 0 1 1.841-2.6 9.107 9.107 0 0 1 3.06-1.735 12.839 12.839 0 0 1 4.278-.65 11.025 11.025 0 0 1 4.468.784 7.734 7.734 0 0 1 2.762 1.95 6.606 6.606 0 0 1 1.381 2.492 8.9 8.9 0 0 1 .379 2.409 7.1 7.1 0 0 1-.542 2.9 6.3 6.3 0 0 1-1.354 2 5.344 5.344 0 0 1-1.788 1.165 5.075 5.075 0 0 1-1.84.379 5.962 5.962 0 0 1-3.927-1.192 3.386 3.386 0 0 1-1.436-2.6 4.4 4.4 0 0 0 1.814.271 5.406 5.406 0 0 0 1.788-.405 4.842 4.842 0 0 0 1.489-.97 4.022 4.022 0 0 0 .975-1.427 5.476 5.476 0 0 0 .3-1.8 5.08 5.08 0 0 0-.406-2.127 4.315 4.315 0 0 0-1.381-1.75 4.133 4.133 0 0 0-2.574-.728 4.189 4.189 0 0 0-2.03.433 3.931 3.931 0 0 0-1.273 1.08 3.889 3.889 0 0 0-.676 1.4 5.6 5.6 0 0 0-.189 1.35v28.132a6.482 6.482 0 0 0 .162 1.35 4.321 4.321 0 0 0 .569 1.4 3.718 3.718 0 0 0 1.083 1.107 3.077 3.077 0 0 0 1.761.458 3.119 3.119 0 0 0 1.706-.431 3.184 3.184 0 0 0 1.056-1.081 4.239 4.239 0 0 0 .515-1.4 7.97 7.97 0 0 0 .135-1.4v-8.7q-.056-1.888-.216-3.158a14.412 14.412 0 0 0-.379-2.026 3.686 3.686 0 0 0-.6-1.4h6.932z" class="cls-1" data-name="Path 1366" transform="translate(-1936.472 1078.997)"/>
            <path id="Path_1367" d="M2408.543-910.9a10.12 10.12 0 0 1 3.683.65 9.159 9.159 0 0 1 2.9 1.759 7.592 7.592 0 0 1 1.869 2.6 7.85 7.85 0 0 1 .65 3.169v23.07a7.456 7.456 0 0 1-.7 3.222 7.934 7.934 0 0 1-1.922 2.574 9.452 9.452 0 0 1-2.9 1.735 9.971 9.971 0 0 1-3.628.65 10.336 10.336 0 0 1-3.709-.65 9.716 9.716 0 0 1-2.952-1.735 7.762 7.762 0 0 1-1.949-2.574 7.438 7.438 0 0 1-.7-3.222v-23.071a7.094 7.094 0 0 1 .731-3.169 8.242 8.242 0 0 1 2-2.6 9.758 9.758 0 0 1 2.979-1.759 10.176 10.176 0 0 1 3.655-.649zm3.358 8.014a3.181 3.181 0 0 1-1.842.65 5.162 5.162 0 0 1-1.868-.461 1.584 1.584 0 0 1-.948-1.489 3.245 3.245 0 0 0 1.735.271 2.982 2.982 0 0 0 1.489-.592 2.832 2.832 0 0 0 .921-1.287 3.077 3.077 0 0 0 .082-1.77v-.106a4.284 4.284 0 0 0-1.029-1.314 2.815 2.815 0 0 0-1.9-.564 3.223 3.223 0 0 0-1.76.433 3.729 3.729 0 0 0-1.11 1.081 4.057 4.057 0 0 0-.6 1.406 6.741 6.741 0 0 0-.162 1.406v28.174a6.525 6.525 0 0 0 .162 1.352 4.363 4.363 0 0 0 .569 1.406 3.705 3.705 0 0 0 1.083 1.108 3.072 3.072 0 0 0 1.761.459 3.1 3.1 0 0 0 1.706-.433 3.181 3.181 0 0 0 1.056-1.083 4.266 4.266 0 0 0 .514-1.408 8.083 8.083 0 0 0 .135-1.408z" class="cls-1" data-name="Path 1367" transform="translate(-1964.278 1078.99)"/>
            <path id="Path_1368" d="M2466.64-871.371h-18.3a5.32 5.32 0 0 0 .6-1.408 16.712 16.712 0 0 0 .406-2.031 22.134 22.134 0 0 0 .189-3.168v-25.236a22.168 22.168 0 0 0-.188-3.168 16.753 16.753 0 0 0-.406-2.03 5.344 5.344 0 0 0-.6-1.409h8.123a3.658 3.658 0 0 0-.595 1.409 10 10 0 0 0-.433 2.03 25.767 25.767 0 0 0-.163 3.168v28.161a2.237 2.237 0 0 0 .135.677 2.162 2.162 0 0 0 .488.784 2.562 2.562 0 0 0 1 .623 4.864 4.864 0 0 0 1.679.244h1.9a3.832 3.832 0 0 0 2-.46 3.582 3.582 0 0 0 1.219-1.219 6.982 6.982 0 0 0 .731-1.706q.271-.947.542-1.922h1.246z" class="cls-1" data-name="Path 1368" transform="translate(-1991.29 1078.396)"/>
            <path id="Path_1369" d="M2501.9-877.978a25.721 25.721 0 0 0 .163 3.168 9.924 9.924 0 0 0 .433 2.031 3.637 3.637 0 0 0 .6 1.408h-8.124a5.293 5.293 0 0 0 .6-1.408 16.7 16.7 0 0 0 .406-2.031 22.064 22.064 0 0 0 .189-3.168v-25.236a22.134 22.134 0 0 0-.189-3.168 16.749 16.749 0 0 0-.406-2.03 5.291 5.291 0 0 0-.6-1.409h8.124a3.643 3.643 0 0 0-.6 1.409 9.949 9.949 0 0 0-.433 2.03 25.719 25.719 0 0 0-.163 3.168z" class="cls-1" data-name="Path 1369" transform="translate(-2016.915 1078.396)"/>
            <path id="Path_1370" d="M2539.953-909.822a6.1 6.1 0 0 0-.488.975 4.533 4.533 0 0 0-.352 1.029 5.878 5.878 0 0 0-.135 1.3v35.145h-1.735l-14.943-31.734v28.429a5.863 5.863 0 0 0 .135 1.3 7.888 7.888 0 0 0 .3 1.029 6.079 6.079 0 0 0 .487.975h-3.628a6.219 6.219 0 0 0 .488-.975 10.914 10.914 0 0 0 .324-1.056 5.459 5.459 0 0 0 .164-1.381v-29.081a21.622 21.622 0 0 0-.244-2.844 15.066 15.066 0 0 0-.406-1.814 3.679 3.679 0 0 0-.542-1.245h5.958l11.914 25.02v-21.662a5.481 5.481 0 0 0-.162-1.381q-.163-.622-.325-1.056-.218-.541-.433-.975z" class="cls-1" data-name="Path 1370" transform="translate(-2030.324 1078.397)"/>
        </g>
        <g id="Group_237" data-name="Group 237" transform="translate(68 48.259)">
            <g id="Group_236" data-name="Group 236">
                <g id="Group_233" data-name="Group 233" transform="translate(.74 4.358)">
                    <g id="Group_232" data-name="Group 232">
                        <path id="Path_1371" d="M2125.56-882.894l-.19 2.092h-.486q-.107-.4-.2-.7a1.087 1.087 0 0 0-.306-.486 1.369 1.369 0 0 0-.591-.285 4.593 4.593 0 0 0-1.057-.1v11.891a9.94 9.94 0 0 0 .064 1.235 3.923 3.923 0 0 0 .168.792 1.426 1.426 0 0 0 .233.549h-3.169a2.426 2.426 0 0 0 .233-.549 6.732 6.732 0 0 0 .158-.792 8.634 8.634 0 0 0 .074-1.235v-11.893a4.585 4.585 0 0 0-1.057.1 1.368 1.368 0 0 0-.592.285 1.085 1.085 0 0 0-.306.486q-.1.3-.2.7h-.484l-.19-2.092z" class="cls-1" data-name="Path 1371" transform="translate(-2117.66 882.896)"/>
                        <path id="Path_1372" d="M2145.752-870.474a10.035 10.035 0 0 0 .064 1.235 3.939 3.939 0 0 0 .168.792 1.425 1.425 0 0 0 .232.549h-3.168a2.069 2.069 0 0 0 .232-.549 6.581 6.581 0 0 0 .158-.792 8.5 8.5 0 0 0 .074-1.235v-6.715h-3.084v6.716a10.038 10.038 0 0 0 .063 1.235 3.94 3.94 0 0 0 .168.792 1.43 1.43 0 0 0 .233.549h-3.168a2.081 2.081 0 0 0 .232-.549 6.628 6.628 0 0 0 .158-.792 8.634 8.634 0 0 0 .074-1.235v-9.844a8.6 8.6 0 0 0-.074-1.236 6.571 6.571 0 0 0-.158-.792 2.1 2.1 0 0 0-.232-.55h3.168a1.666 1.666 0 0 0-.233.571 3.935 3.935 0 0 0-.168.792 9.8 9.8 0 0 0-.063 1.214v2.451h3.084v-2.451a8.536 8.536 0 0 0-.074-1.236 6.669 6.669 0 0 0-.159-.792 2.075 2.075 0 0 0-.232-.55h3.168a2.359 2.359 0 0 0-.232.56 7.091 7.091 0 0 0-.159.791 8.4 8.4 0 0 0-.074 1.226v9.844z" class="cls-1" data-name="Path 1372" transform="translate(-2128.686 882.896)"/>
                        <path id="Path_1373" d="M2166.1-867.893h-7.14a2.07 2.07 0 0 0 .232-.549 6.585 6.585 0 0 0 .158-.793 8.561 8.561 0 0 0 .074-1.235v-9.844a8.606 8.606 0 0 0-.074-1.236 6.574 6.574 0 0 0-.158-.792 2.1 2.1 0 0 0-.232-.549h6.928l-.19 2.092h-.486q-.105-.423-.212-.719a1.172 1.172 0 0 0-.317-.486 1.306 1.306 0 0 0-.613-.274 5.722 5.722 0 0 0-1.119-.085h-1.288v4.584a7.821 7.821 0 0 0 1.162 0q.527-.042.908-.085a7.886 7.886 0 0 0 .783-.148 1.727 1.727 0 0 1 .021.275 2.2 2.2 0 0 1-.1.592.62.62 0 0 1-.466.412 1.31 1.31 0 0 1-.718-.01l-1.584-.443v7.86a.861.861 0 0 0 .053.264.848.848 0 0 0 .19.306 1.02 1.02 0 0 0 .392.242 1.9 1.9 0 0 0 .655.1h.74a1.492 1.492 0 0 0 .783-.18 1.363 1.363 0 0 0 .476-.486 2.6 2.6 0 0 0 .274-.676q.1-.37.2-.75h.486z" class="cls-1" data-name="Path 1373" transform="translate(-2140.356 882.894)"/>
                    </g>
                </g>
                <g id="Group_234" data-name="Group 234">
                    <path id="Rectangle_156" d="M0 0h27.365v.9H0z" class="cls-1" data-name="Rectangle 156"/>
                </g>
                <g id="Group_235" data-name="Group 235" transform="translate(0 22.258)">
                    <path id="Rectangle_157" d="M0 0h27.365v.9H0z" class="cls-1" data-name="Rectangle 157"/>
                </g>
            </g>
        </g>
    </g>
</svg>
