<svg xmlns="http://www.w3.org/2000/svg" width="251.385" height="163.43" viewBox="0 0 251.385 163.43">
    <defs>
        <style>
            .cls-1,.cls-3{fill:#fff}.cls-2{fill:#efe4db}.cls-3{font-size:10px;font-family:AveriaSerifLibre-Regular,Averia Serif Libre;opacity:.6}
        </style>
    </defs>
    <g id="m-globalmap">
        <g id="map-title" transform="translate(0 16.834)">
            <g id="Group_1" data-name="Group 1" transform="translate(47.833 97.734)">
                <path id="Path_1" d="M347.042 543.784q-.269.538-.57 1.208a6 6 0 0 0-.436 1.611l-8.323 41.077a7.4 7.4 0 0 0 .336 1.276c.134.358.245.649.335.872a5.877 5.877 0 0 0 .336.6h-10.068q.134-.267.335-.6a12.933 12.933 0 0 0 .6-2.014q-.337-1.745-.806-4.4t-1.007-5.839q-.538-3.187-1.175-6.611t-1.242-6.779L320.6 587.68a7.436 7.436 0 0 0 .336 1.276q.2.538.335.872a5.8 5.8 0 0 0 .336.6h-10.071q.133-.267.336-.6a12.945 12.945 0 0 0 .6-2.014q-.4-2.281-1.107-6.175t-1.477-8.356q-.773-4.463-1.611-8.994t-1.476-8.222q-.639-3.69-1.51-8.39a20.9 20.9 0 0 0-.571-2.014 12.985 12.985 0 0 0-.637-1.544 14.26 14.26 0 0 0-.738-1.41h10.068a5.5 5.5 0 0 0-.671 1.544 10.7 10.7 0 0 0 0 4.832q1.208 6.981 2.416 13.625.469 2.819 1.007 5.839t1.04 5.906q.5 2.887.973 5.571t.873 4.765l5.3-26.176q-.806-4.7-1.376-7.785t-.57-3.155q-.269-1.14-.57-2.014a13.039 13.039 0 0 0-.638-1.544 9.609 9.609 0 0 0-.738-1.342h10.068a6.969 6.969 0 0 0-.671 1.543 9.675 9.675 0 0 0-.268 1.947 10.983 10.983 0 0 0 .268 2.819q1.208 6.981 2.417 13.625.468 2.819 1.007 5.839t1.04 5.906q.5 2.887.973 5.571t.873 4.765l7.92-38.929a5.828 5.828 0 0 0 .034-1.074 15.725 15.725 0 0 1-.034-1.007 8.085 8.085 0 0 1-.067-1.007h3.625a4.235 4.235 0 0 0-.602 1.011z" class="cls-1" data-name="Path 1" transform="translate(-303.348 -542.173)"/>
                <path id="Path_2" d="M446.563 541.242a12.539 12.539 0 0 1 4.564.806 11.368 11.368 0 0 1 3.591 2.181 9.414 9.414 0 0 1 2.316 3.222 9.716 9.716 0 0 1 .805 3.927v28.592a9.231 9.231 0 0 1-.872 3.994 9.85 9.85 0 0 1-2.383 3.188 11.7 11.7 0 0 1-3.591 2.148 12.355 12.355 0 0 1-4.5.805 12.815 12.815 0 0 1-4.6-.805 12.04 12.04 0 0 1-3.658-2.148 9.612 9.612 0 0 1-2.416-3.188 9.216 9.216 0 0 1-.873-3.994v-28.593a8.8 8.8 0 0 1 .906-3.927 10.215 10.215 0 0 1 2.483-3.222 12.119 12.119 0 0 1 3.691-2.181 12.613 12.613 0 0 1 4.537-.805zm4.161 9.934a3.941 3.941 0 0 1-2.282.805 6.393 6.393 0 0 1-2.315-.57 1.965 1.965 0 0 1-1.175-1.846 4.022 4.022 0 0 0 2.148.336 3.7 3.7 0 0 0 1.846-.733 3.512 3.512 0 0 0 1.141-1.6 3.819 3.819 0 0 0 .1-2.194v-.132a5.307 5.307 0 0 0-1.275-1.628 3.488 3.488 0 0 0-2.349-.7 4 4 0 0 0-2.181.536 4.623 4.623 0 0 0-1.376 1.34 5.01 5.01 0 0 0-.739 1.743 8.372 8.372 0 0 0-.2 1.742V583.2a8.1 8.1 0 0 0 .2 1.675 5.394 5.394 0 0 0 .705 1.743 4.6 4.6 0 0 0 1.342 1.374 3.809 3.809 0 0 0 2.181.57 3.851 3.851 0 0 0 2.114-.537 3.951 3.951 0 0 0 1.309-1.343 5.288 5.288 0 0 0 .638-1.745 10.036 10.036 0 0 0 .168-1.745z" class="cls-1" data-name="Path 2" transform="translate(-386.827 -541.242)"/>
                <path id="Path_3" d="M533.044 583.031a27.183 27.183 0 0 0 1.678 4.6 6.193 6.193 0 0 0 2.349 2.517 5.724 5.724 0 0 1-2.249.806 14.363 14.363 0 0 1-2.047.2 7.626 7.626 0 0 1-4.195-1.443 6.859 6.859 0 0 1-2.45-4.128l-4.094-20a5.911 5.911 0 0 1-3.423-1.275v18.052a31.858 31.858 0 0 0 .2 3.927 12.326 12.326 0 0 0 .537 2.517 4.516 4.516 0 0 0 .738 1.745h-10.066a6.569 6.569 0 0 0 .738-1.745 20.757 20.757 0 0 0 .5-2.517 27.421 27.421 0 0 0 .235-3.927v-31.277a27.443 27.443 0 0 0-.235-3.927 20.846 20.846 0 0 0-.5-2.517 6.591 6.591 0 0 0-.738-1.745H521.9a18.233 18.233 0 0 1 4.866.6 9.973 9.973 0 0 1 3.759 1.913 8.687 8.687 0 0 1 2.45 3.389 13.215 13.215 0 0 1 .872 5.1 12.315 12.315 0 0 1-2.349 7.786 10.254 10.254 0 0 1-6.645 3.758 10.7 10.7 0 0 1 1.611.94 9.835 9.835 0 0 1 1.711 1.544 11.668 11.668 0 0 1 1.544 2.248 12.214 12.214 0 0 1 1.107 3.054zm-13.692-20.605a2.287 2.287 0 0 0 1.04 1.04 3.644 3.644 0 0 0 1.913.5 3.139 3.139 0 0 0 2.215-.806 5.48 5.48 0 0 0 1.376-2.148 12.3 12.3 0 0 0 .671-3.188q.167-1.846.168-3.86a14.59 14.59 0 0 0-.57-4.4 8.378 8.378 0 0 0-1.51-2.886 5.758 5.758 0 0 0-2.114-1.611 5.848 5.848 0 0 0-2.315-.5h-1.611v11.947a3.247 3.247 0 0 1 1.208-.738 3.4 3.4 0 0 1 1.477-.2 3.081 3.081 0 0 1 1.342.436 2.4 2.4 0 0 1 .94 1.175 3.535 3.535 0 0 0-2.047.2 3.808 3.808 0 0 0-1.577 1.175 4.168 4.168 0 0 0-.805 1.778 3.742 3.742 0 0 0 .199 2.086z" class="cls-1" data-name="Path 3" transform="translate(-434.447 -542.29)"/>
                <path id="Path_4" d="M610.347 590.548h-22.686a6.554 6.554 0 0 0 .739-1.745 20.853 20.853 0 0 0 .5-2.517 27.353 27.353 0 0 0 .235-3.927v-31.276a27.374 27.374 0 0 0-.235-3.927 20.942 20.942 0 0 0-.5-2.517 6.576 6.576 0 0 0-.739-1.745h10.068a4.531 4.531 0 0 0-.738 1.745 12.355 12.355 0 0 0-.537 2.517 31.93 31.93 0 0 0-.2 3.927v34.9a2.745 2.745 0 0 0 .168.839 2.666 2.666 0 0 0 .6.973 3.187 3.187 0 0 0 1.241.772 6.015 6.015 0 0 0 2.081.3h2.356a4.747 4.747 0 0 0 2.484-.57 4.429 4.429 0 0 0 1.51-1.51 8.658 8.658 0 0 0 .906-2.114q.335-1.174.671-2.383h1.543z" class="cls-1" data-name="Path 4" transform="translate(-483.696 -542.29)"/>
                <path id="Path_5" d="M672.537 542.894a11.169 11.169 0 0 1 8.255 3.524 12.119 12.119 0 0 1 2.417 3.826 12.469 12.469 0 0 1 .872 4.665v23.626a12.461 12.461 0 0 1-.872 4.665 12.1 12.1 0 0 1-2.417 3.826 11.169 11.169 0 0 1-8.255 3.524H658.51a6.579 6.579 0 0 0 .738-1.745 20.853 20.853 0 0 0 .5-2.517 27.413 27.413 0 0 0 .235-3.927v-31.278a27.434 27.434 0 0 0-.235-3.927 20.942 20.942 0 0 0-.5-2.517 6.6 6.6 0 0 0-.738-1.745zm4.43 12.014a18.374 18.374 0 0 0-.3-2.987 10.814 10.814 0 0 0-1.208-3.423 8.451 8.451 0 0 0-2.484-2.785 6.763 6.763 0 0 0-4.061-1.141H667.1v36.848a6.242 6.242 0 0 1 1.342-.671 4.519 4.519 0 0 1 2.182 0 1.9 1.9 0 0 1 1.443 1.41 3.538 3.538 0 0 0-2.047.2 3.817 3.817 0 0 0-1.577 1.174 4.173 4.173 0 0 0-.805 1.779 3.423 3.423 0 0 0 .268 2.081 2.163 2.163 0 0 0 .973 1.007 3.478 3.478 0 0 0 1.846.47h.537a3.384 3.384 0 0 0 2.551-1.141 9.444 9.444 0 0 0 1.779-2.785 16.4 16.4 0 0 0 1.04-3.423 16.632 16.632 0 0 0 .336-2.987z" class="cls-1" data-name="Path 5" transform="translate(-528.637 -542.29)"/>
            </g>
            <g id="Group_2" data-name="Group 2" transform="translate(0 37.946)">
                <path id="Path_6" d="M180.321 406.006a12.559 12.559 0 0 1 3.256-.187 6.707 6.707 0 0 1 2.667.764 5.415 5.415 0 0 1 1.96 1.856 7.982 7.982 0 0 1 1.094 3.053 6.875 6.875 0 0 1-6.113 8.558 4.03 4.03 0 0 1-2.606-.39l2.035 11.186a19.7 19.7 0 0 0 .569 2.41 7.728 7.728 0 0 0 .62 1.5 2.847 2.847 0 0 0 .658 1q-3.152.569-6.3 1.169a4.152 4.152 0 0 0 .256-1.167 13.062 13.062 0 0 0 .02-1.617 17.088 17.088 0 0 0-.312-2.457l-3.663-19.352a16.348 16.348 0 0 0-.613-2.4 12.5 12.5 0 0 0-.624-1.494 4.033 4.033 0 0 0-.689-.988q3.891-.75 7.785-1.444zm2.636 13.011a2.1 2.1 0 0 0 1.336-.751 3.276 3.276 0 0 0 .632-1.484 8.2 8.2 0 0 0 .067-2.05q-.091-1.163-.307-2.413a8.8 8.8 0 0 0-.842-2.642 5.134 5.134 0 0 0-1.3-1.639 3.788 3.788 0 0 0-1.559-.754 4.042 4.042 0 0 0-1.571-.041l-1.054.191 1.347 7.4a2.153 2.153 0 0 1 .7-.6 2.319 2.319 0 0 1 .934-.3 2.073 2.073 0 0 1 .943.132 1.4 1.4 0 0 1 .712.6 2.414 2.414 0 0 0-1.3.36 2.492 2.492 0 0 0-.888.911 2.573 2.573 0 0 0-.32 1.2 2.277 2.277 0 0 0 .363 1.266 1.469 1.469 0 0 0 .785.524 2.547 2.547 0 0 0 1.322.09z" class="cls-1" data-name="Path 6" transform="translate(-172.539 -395.529)"/>
                <path id="Path_7" d="M236.317 427.967a4.662 4.662 0 0 0 .235-1.018 8.027 8.027 0 0 0 .005-1.262 6.442 6.442 0 0 0-.415-1.754q-1.762-4.949-3.557-9.891-2.242.343-4.482.7-.465 6.2-.877 12.389a4.061 4.061 0 0 0 .046.806l.117.709a5.667 5.667 0 0 0 .159.7q-1.137.187-2.274.379a3.859 3.859 0 0 0 .267-.731 6.134 6.134 0 0 0 .187-.824q.074-.462.153-1.033.844-13.039 1.922-26.088a13.508 13.508 0 0 0-.823-1.5l-.344-.459q2.536-.4 5.075-.785 2.371 6.438 4.689 12.891t4.58 12.918a7.4 7.4 0 0 0 .521 1.228 9.876 9.876 0 0 0 .562.923 6.013 6.013 0 0 0 .583.772q-3.166.453-6.329.93zm-4.194-15.223q-1.6-4.351-3.219-8.7-.37 4.657-.711 9.313 1.964-.311 3.929-.613z" class="cls-1" data-name="Path 7" transform="translate(-205.992 -390.791)"/>
                <path id="Path_8" d="M282.665 389.236a4.648 4.648 0 0 0-.314.8 3.413 3.413 0 0 0-.2.83 4.336 4.336 0 0 0 0 1.021q1.549 13.628 3.1 27.255l-1.354.155q-7.267-11.625-14.972-23.087l2.956 21.992a4.52 4.52 0 0 0 .241.991 6.092 6.092 0 0 0 .34.765 4.7 4.7 0 0 0 .481.7q-1.416.189-2.831.384a4.818 4.818 0 0 0 .277-.806 8.3 8.3 0 0 0 .142-.851 4.184 4.184 0 0 0-.019-1.085l-3.071-22.489a16 16 0 0 0-.5-2.171 11.231 11.231 0 0 0-.523-1.358 2.787 2.787 0 0 0-.574-.9q2.431-.336 4.865-.653 6.131 9.045 11.986 18.2l-1.945-16.794a4.062 4.062 0 0 0-.257-1.056 8.194 8.194 0 0 0-.361-.788q-.226-.4-.442-.715 1.49-.176 2.975-.34z" class="cls-1" data-name="Path 8" transform="translate(-231.729 -385.033)"/>
                <path id="Path_9" d="M339.4 414.527a5.736 5.736 0 0 1-1.972-.063 4.129 4.129 0 0 1-1.026-.482 8.315 8.315 0 0 1-1.874 1.041 8.124 8.124 0 0 1-2.259.531 8.423 8.423 0 0 1-3-.215 7.254 7.254 0 0 1-2.431-1.132 6.491 6.491 0 0 1-1.723-1.858 5.653 5.653 0 0 1-.818-2.4l-1.926-17.9a6.223 6.223 0 0 1 .241-2.534 5.416 5.416 0 0 1 1.289-2.177 7.5 7.5 0 0 1 2.364-1.6 10.923 10.923 0 0 1 3.456-.849 9.4 9.4 0 0 1 3.719.271 6.3 6.3 0 0 1 2.395 1.316 5.046 5.046 0 0 1 1.294 1.84 6.622 6.622 0 0 1 .467 1.848 5.356 5.356 0 0 1-.249 2.291 4.956 4.956 0 0 1-.962 1.652 4.388 4.388 0 0 1-1.364 1.032 4.287 4.287 0 0 1-1.459.428 5 5 0 0 1-3.256-.629 2.624 2.624 0 0 1-1.357-1.907 3.74 3.74 0 0 0 1.49.069 4.572 4.572 0 0 0 1.418-.452 3.975 3.975 0 0 0 1.138-.865 3.158 3.158 0 0 0 .691-1.181 4.094 4.094 0 0 0 .116-1.423 3.8 3.8 0 0 0-.48-1.622 3.38 3.38 0 0 0-1.253-1.257 3.509 3.509 0 0 0-2.158-.367 3.574 3.574 0 0 0-1.629.5 3.177 3.177 0 0 0-.958.941 2.957 2.957 0 0 0-.444 1.145 4.185 4.185 0 0 0-.049 1.064l2.2 21.846a5.044 5.044 0 0 0 .233 1.036 3.376 3.376 0 0 0 .555 1.046 2.935 2.935 0 0 0 .935.775 2.446 2.446 0 0 0 1.414.223 2.39 2.39 0 0 0 2.056-1.38 3.306 3.306 0 0 0 .3-1.128 6.214 6.214 0 0 0 .006-1.1l-.621-6.758q-.178-1.464-.4-2.439a10.8 10.8 0 0 0-.449-1.546 2.808 2.808 0 0 0-.579-1.047q2.781-.26 5.564-.5z" class="cls-1" data-name="Path 9" transform="translate(-267.557 -382.234)"/>
                <path id="Path_10" d="M380.227 380.856a8.615 8.615 0 0 1 3.057.307 7.531 7.531 0 0 1 2.461 1.225 5.852 5.852 0 0 1 2.318 4.373l1.022 17.976a5.766 5.766 0 0 1-.412 2.542 6.271 6.271 0 0 1-1.4 2.094 7.538 7.538 0 0 1-2.192 1.491 7.991 7.991 0 0 1-2.812.693 8.284 8.284 0 0 1-2.944-.3 7.76 7.76 0 0 1-2.417-1.176 6.115 6.115 0 0 1-1.689-1.883 5.757 5.757 0 0 1-.754-2.463l-1.427-17.949a5.323 5.323 0 0 1 .4-2.512 6.42 6.42 0 0 1 1.481-2.149 8.03 8.03 0 0 1 2.339-1.551 8.663 8.663 0 0 1 2.969-.718zm3.156 6.061a2.677 2.677 0 0 1-1.465.6 4.384 4.384 0 0 1-1.544-.257 1.237 1.237 0 0 1-.852-1.106 2.775 2.775 0 0 0 1.426.115 2.515 2.515 0 0 0 1.183-.542 2.222 2.222 0 0 0 .686-1.051 2.3 2.3 0 0 0-.023-1.383l-.005-.083a3.348 3.348 0 0 0-.909-.968 2.388 2.388 0 0 0-1.583-.335 2.749 2.749 0 0 0-1.419.436 2.988 2.988 0 0 0-.85.906 3.063 3.063 0 0 0-.408 1.13 4.98 4.98 0 0 0-.053 1.1l1.588 21.931a5.049 5.049 0 0 0 .2 1.043 3.4 3.4 0 0 0 .526 1.063 2.917 2.917 0 0 0 .912.8 2.441 2.441 0 0 0 1.406.263 2.467 2.467 0 0 0 1.317-.427 2.507 2.507 0 0 0 .774-.9 3.319 3.319 0 0 0 .335-1.123 6.26 6.26 0 0 0 .037-1.1q-.636-10.053-1.279-20.112z" class="cls-1" data-name="Path 10" transform="translate(-299.712 -379.702)"/>
                <path id="Path_11" d="M437.428 409.036q-7.187.215-14.37.591a4.158 4.158 0 0 0 .411-1.122 13.162 13.162 0 0 0 .238-1.6 17.048 17.048 0 0 0 .024-2.477l-1-19.671a16.417 16.417 0 0 0-.281-2.462 12.5 12.5 0 0 0-.414-1.565 4.011 4.011 0 0 0-.546-1.072q3.336-.174 6.673-.316a2.782 2.782 0 0 0-.442 1.119 7.454 7.454 0 0 0-.286 1.6 19.143 19.143 0 0 0-.025 2.476l.963 21.958a1.712 1.712 0 0 0 .13.523 1.683 1.683 0 0 0 .41.6 2.036 2.036 0 0 0 .809.452 3.876 3.876 0 0 0 1.328.136l1.49-.057a3.057 3.057 0 0 0 1.563-.416 2.819 2.819 0 0 0 .927-.984 5.438 5.438 0 0 0 .533-1.35q.189-.745.38-1.513l.986-.031q.251 2.588.499 5.181z" class="cls-1" data-name="Path 11" transform="translate(-330.455 -378.758)"/>
                <path id="Path_12" d="M474.853 402.813a19.79 19.79 0 0 0 .173 2.47 7.727 7.727 0 0 0 .369 1.579 2.844 2.844 0 0 0 .487 1.09q-3.191.053-6.38.138a4.142 4.142 0 0 0 .44-1.111 13.2 13.2 0 0 0 .279-1.593 17.089 17.089 0 0 0 .087-2.476v-.042l-.495-19.647a16.463 16.463 0 0 0-.218-2.468 12.558 12.558 0 0 0-.373-1.576 4.038 4.038 0 0 0-.518-1.086q3.338-.089 6.678-.145a2.774 2.774 0 0 0-.471 1.107 7.427 7.427 0 0 0-.327 1.591 19.034 19.034 0 0 0-.089 2.474l.357 19.651z" class="cls-1" data-name="Path 12" transform="translate(-360.405 -377.873)"/>
                <path id="Path_13" d="M510.336 377.771a4.651 4.651 0 0 0-.409.756 3.4 3.4 0 0 0-.3.8 4.341 4.341 0 0 0-.122 1.013l-.294 27.429-1.361-.013q-5.764-12.434-11.98-24.761l.214 22.189a4.529 4.529 0 0 0 .117 1.013 6.164 6.164 0 0 0 .242.8 4.736 4.736 0 0 0 .39.757q-1.425.012-2.85.031a4.837 4.837 0 0 0 .373-.766 8.354 8.354 0 0 0 .246-.827 4.218 4.218 0 0 0 .115-1.079l-.267-22.7a16 16 0 0 0-.226-2.216 11.226 11.226 0 0 0-.351-1.412 2.786 2.786 0 0 0-.457-.966q2.448-.032 4.9-.047 4.955 9.734 9.627 19.539l.145-16.906a4.084 4.084 0 0 0-.124-1.079 8.2 8.2 0 0 0-.26-.826q-.175-.423-.35-.764l2.982.035z" class="cls-1" data-name="Path 13" transform="translate(-376.081 -377.742)"/>
                <path id="Path_14" d="M573.516 403.966a17.279 17.279 0 0 0 .932 2.942 3.933 3.933 0 0 0 1.413 1.655 3.654 3.654 0 0 1-1.448.437 9.221 9.221 0 0 1-1.3.066 4.894 4.894 0 0 1-2.617-1.024 4.337 4.337 0 0 1-1.452-2.66q-1.057-6.344-2.164-12.684a3.939 3.939 0 0 1-2.2-.877l-.361 11.364a19.872 19.872 0 0 0 .05 2.476 7.737 7.737 0 0 0 .29 1.6 2.853 2.853 0 0 0 .432 1.113q-3.189-.106-6.379-.18a4.158 4.158 0 0 0 .494-1.087 13.126 13.126 0 0 0 .358-1.577 17.067 17.067 0 0 0 .211-2.468l.487-19.69a16.429 16.429 0 0 0-.094-2.476 12.489 12.489 0 0 0-.294-1.592 4.015 4.015 0 0 0-.463-1.111q3.939.092 7.878.23a12.456 12.456 0 0 1 3.211.5 6.671 6.671 0 0 1 2.438 1.307 5.448 5.448 0 0 1 1.522 2.2 7.97 7.97 0 0 1 .425 3.236 7.6 7.6 0 0 1-1.759 4.828 6.791 6.791 0 0 1-4.417 2.187 6.881 6.881 0 0 1 1.022.632 6.258 6.258 0 0 1 1.07 1.016 7.289 7.289 0 0 1 .939 1.456 7.516 7.516 0 0 1 .631 1.952q.581 3.114 1.145 6.229zm-8.316-13.311a1.466 1.466 0 0 0 .655.677 2.443 2.443 0 0 0 1.233.36 2.092 2.092 0 0 0 1.459-.454 3.458 3.458 0 0 0 .947-1.317 7.529 7.529 0 0 0 .517-1.989q.155-1.157.206-2.424a8.777 8.777 0 0 0-.266-2.781 5.161 5.161 0 0 0-.927-1.855 3.777 3.777 0 0 0-1.361-1.065 4.014 4.014 0 0 0-1.522-.37l-1.067-.035-.238 7.52a2.132 2.132 0 0 1 .806-.439 2.3 2.3 0 0 1 .972-.094 2.068 2.068 0 0 1 .87.305 1.521 1.521 0 0 1 .588.761 2.4 2.4 0 0 0-1.344.079 2.483 2.483 0 0 0-1.056.7 2.577 2.577 0 0 0-.562 1.1 2.284 2.284 0 0 0 .09 1.321z" class="cls-1" data-name="Path 14" transform="translate(-417.5 -378.025)"/>
                <path id="Path_15" d="M620.283 380.4a8.612 8.612 0 0 1 2.99.707 7.526 7.526 0 0 1 2.278 1.538 5.854 5.854 0 0 1 1.723 4.641l-1.353 17.955a5.761 5.761 0 0 1-.744 2.466 6.261 6.261 0 0 1-1.66 1.891 7.534 7.534 0 0 1-2.369 1.189 7.982 7.982 0 0 1-2.879.317 8.273 8.273 0 0 1-2.878-.686 7.756 7.756 0 0 1-2.24-1.484 6.111 6.111 0 0 1-1.426-2.089 5.748 5.748 0 0 1-.423-2.541l.948-17.98a5.319 5.319 0 0 1 .728-2.438 6.412 6.412 0 0 1 1.75-1.936 8.021 8.021 0 0 1 2.522-1.23 8.667 8.667 0 0 1 3.033-.32zm2.331 6.423a2.675 2.675 0 0 1-1.531.406 4.37 4.37 0 0 1-1.5-.457 1.237 1.237 0 0 1-.7-1.209 2.771 2.771 0 0 0 1.4.3 2.511 2.511 0 0 0 1.244-.381 2.225 2.225 0 0 0 .818-.951 2.3 2.3 0 0 0 .159-1.374l.006-.083a3.366 3.366 0 0 0-.774-1.079 2.391 2.391 0 0 0-1.525-.54 2.751 2.751 0 0 0-1.464.246 2.978 2.978 0 0 0-.961.787 3.065 3.065 0 0 0-.554 1.066 5.039 5.039 0 0 0-.2 1.087l-1.312 21.95a5.049 5.049 0 0 0 .065 1.061 3.383 3.383 0 0 0 .382 1.123 2.917 2.917 0 0 0 .8.915 2.438 2.438 0 0 0 1.359.445 2.466 2.466 0 0 0 1.362-.25 2.514 2.514 0 0 0 .886-.788 3.328 3.328 0 0 0 .479-1.069 6.282 6.282 0 0 0 .181-1.089z" class="cls-1" data-name="Path 15" transform="translate(-450.853 -379.418)"/>
                <path id="Path_16" d="M679.518 385.9a3.391 3.391 0 0 0-.374.789 4.457 4.457 0 0 0-.214.977q-.194 1.85-.371 3.339t-.378 3.4l-.406 3.889-1.107 10.593a7.379 7.379 0 0 1-.691 2.478 6.544 6.544 0 0 1-1.406 1.937 5.5 5.5 0 0 1-2.012 1.2 5.944 5.944 0 0 1-2.514.265l-.425-.04a10.192 10.192 0 0 1-5.98-2.212 5.842 5.842 0 0 1-1.814-5.134l1.515-18.62a16 16 0 0 0 .044-2.456 12.659 12.659 0 0 0-.206-1.586 4.88 4.88 0 0 0-.4-1.177q3.34.267 6.677.567a3.187 3.187 0 0 0-.6 1.092 7.3 7.3 0 0 0-.5 1.526 18.34 18.34 0 0 0-.351 2.43l-1.63 18.441a11.783 11.783 0 0 0 0 2.206 5.023 5.023 0 0 0 .486 1.783 3.3 3.3 0 0 0 1.088 1.244 3.638 3.638 0 0 0 1.766.589l.425.04a4.484 4.484 0 0 0 1.949-.215 4.421 4.421 0 0 0 1.577-.969 5.025 5.025 0 0 0 1.1-1.545 6.187 6.187 0 0 0 .526-1.986l2.17-21.191a4.268 4.268 0 0 0-.017-1.085q-.077-.5-.169-.845a4.837 4.837 0 0 0-.3-.8q1.511.153 3.021.313a6.747 6.747 0 0 0-.479.763z" class="cls-1" data-name="Path 16" transform="translate(-482.888 -381.421)"/>
                <path id="Path_17" d="M736.274 390.839q-.48 2.046-.957 4.093l-1.011-.136q-.114-.824-.234-1.438a2.158 2.158 0 0 0-.512-1.048 2.931 2.931 0 0 0-1.162-.728 9.994 9.994 0 0 0-2.185-.471l-2.985 23.607a19.8 19.8 0 0 0-.183 2.469 7.723 7.723 0 0 0 .14 1.616 2.844 2.844 0 0 0 .327 1.149q-3.171-.405-6.345-.78a4.8 4.8 0 0 0 .595-1.036 13.063 13.063 0 0 0 .506-1.536 17.091 17.091 0 0 0 .441-2.438l2.819-23.628a10 10 0 0 0-2.233-.071 2.931 2.931 0 0 0-1.3.425 2.154 2.154 0 0 0-.75.893q-.265.566-.575 1.339l-1.013-.113q.033-2.1.063-4.2 8.28.911 16.554 2.032z" class="cls-1" data-name="Path 17" transform="translate(-519.589 -384.759)"/>
                <path id="Path_18" d="M774.583 427.134q-7.12-1.154-14.258-2.147a4.153 4.153 0 0 0 .617-1.023 13.086 13.086 0 0 0 .537-1.525 16.989 16.989 0 0 0 .493-2.428l2.742-19.5a16.353 16.353 0 0 0 .19-2.47 12.585 12.585 0 0 0-.11-1.616 4.042 4.042 0 0 0-.334-1.156q7.249 1.009 14.482 2.175l-1.061 4.067-1.008-.161q-.087-.869-.214-1.489a2.335 2.335 0 0 0-.508-1.064 2.816 2.816 0 0 0-1.192-.743 12.546 12.546 0 0 0-2.31-.526l-2.689-.4-1.341 9.073a17.5 17.5 0 0 0 2.391.358q1.1.082 1.895.119.932.016 1.654-.042a3.258 3.258 0 0 1-.042.55 4.254 4.254 0 0 1-.4 1.135 1.271 1.271 0 0 1-1.081.665 2.822 2.822 0 0 1-1.47-.248q-1.558-.687-3.121-1.367l-2.3 15.559a1.709 1.709 0 0 0 .029.537 1.674 1.674 0 0 0 .291.661 2.044 2.044 0 0 0 .71.6 3.9 3.9 0 0 0 1.282.385l1.478.226a3.065 3.065 0 0 0 1.619-.112 2.763 2.763 0 0 0 1.1-.81 5.249 5.249 0 0 0 .762-1.248q.307-.7.64-1.418l.977.157q-.22 2.609-.45 5.226z" class="cls-1" data-name="Path 18" transform="translate(-545.388 -388.857)"/>
                <path id="Path_19" d="M815.283 408.892a5.763 5.763 0 0 0 .342 3.212 17.3 17.3 0 0 0 1.67 3.1q1.041 1.558 2.3 3.117a30.193 30.193 0 0 1 2.256 3.208 14.925 14.925 0 0 1 1.546 3.451 7.873 7.873 0 0 1 .161 3.795 9.072 9.072 0 0 1-3.119 5.733c-1.58 1.223-3.662 1.6-6.263 1.133a10.469 10.469 0 0 1-2.765-.893 7.381 7.381 0 0 1-2.212-1.622 6.3 6.3 0 0 1-1.351-2.284 6.54 6.54 0 0 1 .727-5.278 5.632 5.632 0 0 1 1.509-1.547 5.134 5.134 0 0 1 1.779-.77 4.369 4.369 0 0 1 1.665-.077 4.908 4.908 0 0 1 3.168 1.524 2.874 2.874 0 0 1 .638 2.326 4.148 4.148 0 0 0-1.562-.473 4.842 4.842 0 0 0-1.62.1 4.2 4.2 0 0 0-1.425.631 3.867 3.867 0 0 0-1.666 2.951 4.264 4.264 0 0 0 .287 1.872 3.926 3.926 0 0 0 1.082 1.518 3.685 3.685 0 0 0 1.826.837 4.963 4.963 0 0 0 2.11-.029 4.461 4.461 0 0 0 1.616-.758 3.877 3.877 0 0 0 1.082-1.262 5.14 5.14 0 0 0 .538-1.491 7.238 7.238 0 0 0-.208-3.627 14.944 14.944 0 0 0-1.594-3.34 35.213 35.213 0 0 0-2.32-3.226 34.667 34.667 0 0 1-2.339-3.259 15.823 15.823 0 0 1-1.643-3.43 7.7 7.7 0 0 1-.263-3.772 7.6 7.6 0 0 1 1.092-2.9 7.008 7.008 0 0 1 2.069-2.094 7.72 7.72 0 0 1 2.865-1.115 9.539 9.539 0 0 1 3.425.026 8.147 8.147 0 0 1 3.213 1.207 6.9 6.9 0 0 1 1.9 1.88 5.563 5.563 0 0 1 .851 2.1 5.365 5.365 0 0 1 .024 1.9 5.5 5.5 0 0 1-.9 2.217 5.015 5.015 0 0 1-1.452 1.382 5.075 5.075 0 0 1-1.648.66 4.072 4.072 0 0 1-1.53.041 5.574 5.574 0 0 1-1.539-.516 5.465 5.465 0 0 1-1.236-.845 3.31 3.31 0 0 1-.778-1.04 1.885 1.885 0 0 1-.156-1.144 3.866 3.866 0 0 0 1.489.458 4.667 4.667 0 0 0 1.521-.091 4.43 4.43 0 0 0 1.363-.568 3.167 3.167 0 0 0 1.02-1.016 3.072 3.072 0 0 0 .5-1.348 4.139 4.139 0 0 0-.091-1.715 3.755 3.755 0 0 0-.89-1.581 3.421 3.421 0 0 0-1.982-.96 4.134 4.134 0 0 0-1.917.067 4.36 4.36 0 0 0-2.6 2.057 4.814 4.814 0 0 0-.565 1.568z" class="cls-1" data-name="Path 19" transform="translate(-575.358 -394.404)"/>
            </g>
            <g id="Group_4" data-name="Group 4" transform="translate(89.275 75.715)">
                <g id="Group_3" data-name="Group 3">
                    <path id="Path_20" d="M421.507 494.564a2.042 2.042 0 0 0 .166-.424 3.548 3.548 0 0 0 .083-.543 2.85 2.85 0 0 0-.064-.783l-.866-4.5h-1.916l-1.216 5.27a1.767 1.767 0 0 0-.037.35v.313a2.489 2.489 0 0 0 .018.313h-1a1.662 1.662 0 0 0 .166-.3 2.662 2.662 0 0 0 .138-.341q.065-.194.138-.433l2.562-11.093a6.215 6.215 0 0 0-.24-.7l-.111-.221h2.12l1.142 5.86 1.143 5.86a3.169 3.169 0 0 0 .147.562 4.224 4.224 0 0 0 .184.433 2.579 2.579 0 0 0 .2.369zm-.792-6.837l-.774-3.962-.9 3.962z" class="cls-1" data-name="Path 20" transform="translate(-416.679 -481.314)"/>
                    <path id="Path_21" d="M445.525 492.5a7.443 7.443 0 0 0 .461 1.262 1.7 1.7 0 0 0 .645.691 1.568 1.568 0 0 1-.617.221 3.929 3.929 0 0 1-.562.055 2.093 2.093 0 0 1-1.152-.4 1.881 1.881 0 0 1-.672-1.133l-1.124-5.492a1.622 1.622 0 0 1-.94-.35v4.957a8.733 8.733 0 0 0 .055 1.078 3.379 3.379 0 0 0 .147.691 1.246 1.246 0 0 0 .2.479H439.2a1.794 1.794 0 0 0 .2-.479 5.57 5.57 0 0 0 .138-.691 7.485 7.485 0 0 0 .065-1.078v-8.587a7.479 7.479 0 0 0-.065-1.078 5.576 5.576 0 0 0-.138-.691 1.8 1.8 0 0 0-.2-.479h3.262a5 5 0 0 1 1.336.166 2.741 2.741 0 0 1 1.032.525 2.387 2.387 0 0 1 .672.931 3.631 3.631 0 0 1 .24 1.4 3.378 3.378 0 0 1-.645 2.137 2.814 2.814 0 0 1-1.824 1.032 2.956 2.956 0 0 1 .442.258 2.71 2.71 0 0 1 .47.424 3.226 3.226 0 0 1 .424.617 3.343 3.343 0 0 1 .3.838zm-3.759-5.657a.63.63 0 0 0 .286.286 1 1 0 0 0 .525.138.862.862 0 0 0 .608-.221 1.5 1.5 0 0 0 .378-.589 3.355 3.355 0 0 0 .184-.875q.046-.507.046-1.06a4.007 4.007 0 0 0-.156-1.207 2.307 2.307 0 0 0-.415-.792 1.581 1.581 0 0 0-.58-.442 1.607 1.607 0 0 0-.636-.138h-.442v3.28a.9.9 0 0 1 .332-.2.931.931 0 0 1 .405-.055.845.845 0 0 1 .369.12.663.663 0 0 1 .258.323.972.972 0 0 0-.562.055 1.054 1.054 0 0 0-.433.322 1.149 1.149 0 0 0-.221.488 1.026 1.026 0 0 0 .053.567z" class="cls-1" data-name="Path 21" transform="translate(-430.967 -481.314)"/>
                    <path id="Path_22" d="M464.817 481.027a3.456 3.456 0 0 1 1.253.221 3.13 3.13 0 0 1 .986.6 2.582 2.582 0 0 1 .635.885 2.662 2.662 0 0 1 .221 1.078v7.85a2.537 2.537 0 0 1-.24 1.1 2.707 2.707 0 0 1-.654.875 3.212 3.212 0 0 1-.986.589 3.385 3.385 0 0 1-1.235.221 3.507 3.507 0 0 1-1.262-.221 3.308 3.308 0 0 1-1-.589 2.642 2.642 0 0 1-.663-.875 2.532 2.532 0 0 1-.24-1.1v-7.85a2.419 2.419 0 0 1 .249-1.078 2.808 2.808 0 0 1 .682-.885 3.336 3.336 0 0 1 1.013-.6 3.477 3.477 0 0 1 1.241-.221zm1.142 2.727a1.081 1.081 0 0 1-.626.221 1.756 1.756 0 0 1-.636-.157.538.538 0 0 1-.322-.506 1.107 1.107 0 0 0 .589.092 1.013 1.013 0 0 0 .507-.2.966.966 0 0 0 .313-.438 1.05 1.05 0 0 0 .027-.6v-.036a1.46 1.46 0 0 0-.35-.447.959.959 0 0 0-.645-.192 1.1 1.1 0 0 0-.6.147 1.271 1.271 0 0 0-.378.368 1.37 1.37 0 0 0-.2.479 2.282 2.282 0 0 0-.055.478v9.587a2.208 2.208 0 0 0 .055.46 1.471 1.471 0 0 0 .193.479 1.262 1.262 0 0 0 .369.377 1.044 1.044 0 0 0 .6.156 1.058 1.058 0 0 0 .581-.147 1.088 1.088 0 0 0 .359-.369 1.465 1.465 0 0 0 .175-.479 2.776 2.776 0 0 0 .046-.479z" class="cls-1" data-name="Path 22" transform="translate(-445.192 -481.027)"/>
                    <path id="Path_23" d="M489.224 481.83a1.518 1.518 0 0 0-.12.359 2.035 2.035 0 0 0-.046.433q0 .811-.009 1.465t-.009 1.493v6.348a3.254 3.254 0 0 1-.185 1.106 2.832 2.832 0 0 1-.518.9 2.357 2.357 0 0 1-.813.608 2.537 2.537 0 0 1-1.072.221h-.185a4.317 4.317 0 0 1-2.661-.728 2.545 2.545 0 0 1-.961-2.165v-8.145a7.345 7.345 0 0 0-.064-1.069 5.767 5.767 0 0 0-.138-.682 2.192 2.192 0 0 0-.2-.5h2.771a1.43 1.43 0 0 0-.206.5 3.329 3.329 0 0 0-.15.682 8.347 8.347 0 0 0-.056 1.069v8.075a5.2 5.2 0 0 0 .083.958 2.193 2.193 0 0 0 .276.755 1.425 1.425 0 0 0 .516.5 1.553 1.553 0 0 0 .783.184h.184a1.859 1.859 0 0 0 1.465-.663 2.177 2.177 0 0 0 .405-.719 2.721 2.721 0 0 0 .138-.885v-9.287a1.949 1.949 0 0 0-.053-.47q-.053-.212-.1-.359a2.239 2.239 0 0 0-.158-.332h1.255a2.986 2.986 0 0 0-.172.348z" class="cls-1" data-name="Path 23" transform="translate(-458.266 -481.314)"/>
                    <path id="Path_24" d="M511.616 481.48a2.075 2.075 0 0 0-.166.332 1.541 1.541 0 0 0-.12.35 1.972 1.972 0 0 0-.046.442v11.96h-.59l-5.086-10.8v9.675a1.971 1.971 0 0 0 .046.442 2.65 2.65 0 0 0 .1.35 2.061 2.061 0 0 0 .166.332h-1.234a2.107 2.107 0 0 0 .166-.332q.055-.147.11-.359a1.872 1.872 0 0 0 .055-.47v-9.9a7.273 7.273 0 0 0-.083-.967 5.111 5.111 0 0 0-.138-.617 1.25 1.25 0 0 0-.184-.424h2.027l4.054 8.513v-7.371a1.857 1.857 0 0 0-.055-.47q-.055-.212-.11-.359-.074-.184-.148-.332z" class="cls-1" data-name="Path 24" transform="translate(-472.459 -481.314)"/>
                    <path id="Path_25" d="M530.385 481.48a3.069 3.069 0 0 1 2.267.968 3.33 3.33 0 0 1 .663 1.051 3.422 3.422 0 0 1 .24 1.281v6.486a3.423 3.423 0 0 1-.24 1.281 3.324 3.324 0 0 1-.663 1.05 3.069 3.069 0 0 1-2.267.968h-3.851a1.8 1.8 0 0 0 .2-.479 5.629 5.629 0 0 0 .138-.691 7.485 7.485 0 0 0 .065-1.078v-8.587a7.479 7.479 0 0 0-.065-1.078 5.635 5.635 0 0 0-.138-.691 1.8 1.8 0 0 0-.2-.479zm1.216 3.3a5.052 5.052 0 0 0-.083-.82 2.977 2.977 0 0 0-.332-.94 2.322 2.322 0 0 0-.682-.765 1.857 1.857 0 0 0-1.115-.313h-.5v10.117a1.73 1.73 0 0 1 .368-.184 1.238 1.238 0 0 1 .6 0 .521.521 0 0 1 .4.387.969.969 0 0 0-.562.056 1.05 1.05 0 0 0-.433.322 1.144 1.144 0 0 0-.221.489.94.94 0 0 0 .074.571.6.6 0 0 0 .267.276.956.956 0 0 0 .507.129h.147a.93.93 0 0 0 .7-.313 2.59 2.59 0 0 0 .488-.765 4.485 4.485 0 0 0 .286-.94 4.549 4.549 0 0 0 .092-.82z" class="cls-1" data-name="Path 25" transform="translate(-486.363 -481.314)"/>
                    <path id="Path_26" d="M562.15 481.48l-.166 1.824h-.424q-.092-.35-.175-.608a.953.953 0 0 0-.267-.424 1.194 1.194 0 0 0-.516-.249 3.991 3.991 0 0 0-.922-.083v10.375a8.721 8.721 0 0 0 .055 1.078 3.379 3.379 0 0 0 .148.691 1.234 1.234 0 0 0 .2.479h-2.764a2.114 2.114 0 0 0 .2-.479 5.7 5.7 0 0 0 .138-.691 7.481 7.481 0 0 0 .064-1.078v-10.374a3.988 3.988 0 0 0-.921.083 1.189 1.189 0 0 0-.516.249.947.947 0 0 0-.267.424q-.083.258-.175.608h-.424l-.166-1.824z" class="cls-1" data-name="Path 26" transform="translate(-504.583 -481.314)"/>
                    <path id="Path_27" d="M583.827 492.316a8.724 8.724 0 0 0 .056 1.078 3.354 3.354 0 0 0 .147.691 1.246 1.246 0 0 0 .2.479h-2.764a1.809 1.809 0 0 0 .2-.479 5.722 5.722 0 0 0 .138-.691 7.494 7.494 0 0 0 .065-1.078v-5.86h-2.69v5.86a8.733 8.733 0 0 0 .055 1.078 3.387 3.387 0 0 0 .147.691 1.247 1.247 0 0 0 .2.479h-2.764a1.8 1.8 0 0 0 .2-.479 5.641 5.641 0 0 0 .138-.691 7.475 7.475 0 0 0 .065-1.078v-8.587a7.469 7.469 0 0 0-.065-1.078 5.647 5.647 0 0 0-.138-.691 1.8 1.8 0 0 0-.2-.479h2.764a1.446 1.446 0 0 0-.2.5 3.4 3.4 0 0 0-.147.691 8.55 8.55 0 0 0-.055 1.059v2.138h2.69v-2.138a7.488 7.488 0 0 0-.065-1.078 5.728 5.728 0 0 0-.138-.691 1.815 1.815 0 0 0-.2-.479h2.764a2.043 2.043 0 0 0-.2.489 6.063 6.063 0 0 0-.138.691 7.3 7.3 0 0 0-.065 1.069v8.587z" class="cls-1" data-name="Path 27" transform="translate(-518.264 -481.314)"/>
                    <path id="Path_28" d="M605.881 494.564h-6.228a1.808 1.808 0 0 0 .2-.479 5.7 5.7 0 0 0 .138-.691 7.545 7.545 0 0 0 .064-1.078v-8.587a7.539 7.539 0 0 0-.064-1.078 5.7 5.7 0 0 0-.138-.691 1.814 1.814 0 0 0-.2-.479h6.047l-.166 1.824h-.424q-.093-.368-.184-.626a1.021 1.021 0 0 0-.276-.424 1.137 1.137 0 0 0-.534-.24 5.02 5.02 0 0 0-.977-.074h-1.124v4a6.973 6.973 0 0 0 1.014 0q.46-.037.792-.074a6.749 6.749 0 0 0 .682-.129 1.48 1.48 0 0 1 .018.24 1.916 1.916 0 0 1-.092.516.541.541 0 0 1-.406.359 1.141 1.141 0 0 1-.627-.009l-1.382-.387v6.857a.754.754 0 0 0 .046.23.735.735 0 0 0 .166.267.883.883 0 0 0 .341.211 1.654 1.654 0 0 0 .571.083h.645a1.3 1.3 0 0 0 .682-.157 1.194 1.194 0 0 0 .415-.424 2.28 2.28 0 0 0 .24-.59c.056-.215.113-.433.175-.654h.424z" class="cls-1" data-name="Path 28" transform="translate(-532.745 -481.314)"/>
                </g>
            </g>
            <g id="Group_12" data-name="Group 12" transform="translate(45.3)">
                <g id="Group_5" data-name="Group 5" transform="translate(27.356)">
                    <path id="Path_29" d="M374.872 285.953a5.678 5.678 0 0 0 1.3 2.965 17.717 17.717 0 0 0 2.557 2.47q1.478 1.183 3.156 2.308a29.283 29.283 0 0 1 3.127 2.419 14.662 14.662 0 0 1 2.489 2.865 7.8 7.8 0 0 1 1.235 3.594 9.12 9.12 0 0 1-1.368 6.383c-1.163 1.622-3.04 2.574-5.652 2.888a10.527 10.527 0 0 1-2.9-.044 7.414 7.414 0 0 1-2.588-.894 6.339 6.339 0 0 1-1.973-1.776 6.508 6.508 0 0 1-.892-5.253 5.605 5.605 0 0 1 .987-1.93 5.161 5.161 0 0 1 1.486-1.267 4.44 4.44 0 0 1 1.586-.569 4.964 4.964 0 0 1 3.51.524 2.857 2.857 0 0 1 1.295 2.039 4.177 4.177 0 0 0-1.643 0 4.871 4.871 0 0 0-1.531.572 4.218 4.218 0 0 0-1.184 1.024 3.849 3.849 0 0 0-.723 3.312 4.271 4.271 0 0 0 .829 1.7 3.948 3.948 0 0 0 1.481 1.131 3.685 3.685 0 0 0 1.987.265 4.968 4.968 0 0 0 2.005-.641 4.481 4.481 0 0 0 1.326-1.192 3.891 3.891 0 0 0 .674-1.52 5.134 5.134 0 0 0 .088-1.583 7.184 7.184 0 0 0-1.244-3.414 14.7 14.7 0 0 0-2.51-2.736 33.936 33.936 0 0 0-3.2-2.4 36.754 36.754 0 0 1-3.242-2.418 16.142 16.142 0 0 1-2.625-2.775 7.589 7.589 0 0 1-1.4-3.517 7.407 7.407 0 0 1 .188-3.1 6.953 6.953 0 0 1 1.4-2.623 7.941 7.941 0 0 1 2.492-1.925 10.022 10.022 0 0 1 3.395-.991 8.579 8.579 0 0 1 3.536.215 7.077 7.077 0 0 1 2.427 1.251 5.512 5.512 0 0 1 1.447 1.765 5.231 5.231 0 0 1 .57 1.812 5.393 5.393 0 0 1-.242 2.381 5.054 5.054 0 0 1-1.026 1.74 5.242 5.242 0 0 1-1.422 1.106 4.239 4.239 0 0 1-1.485.481 5.838 5.838 0 0 1-1.656-.046 5.7 5.7 0 0 1-1.457-.445 3.377 3.377 0 0 1-1.069-.765 1.858 1.858 0 0 1-.493-1.047 4.071 4.071 0 0 0 1.6 0 4.9 4.9 0 0 0 1.465-.533 4.577 4.577 0 0 0 1.171-.941 3.179 3.179 0 0 0 .706-1.269 3.008 3.008 0 0 0 .1-1.435 4.032 4.032 0 0 0-.591-1.615 3.763 3.763 0 0 0-1.342-1.254 3.6 3.6 0 0 0-2.243-.336 4.361 4.361 0 0 0-1.874.631 4.5 4.5 0 0 0-1.264 1.2 4.354 4.354 0 0 0-.682 1.537 4.679 4.679 0 0 0-.094 1.676z" class="cls-1" data-name="Path 29" transform="translate(-371.231 -277.643)"/>
                    <path id="Path_30" d="M434.534 306.363q-7.179.386-14.344 1.06a4.152 4.152 0 0 0 .365-1.138 13.174 13.174 0 0 0 .174-1.608 16.991 16.991 0 0 0-.076-2.476q-.9-9.807-1.793-19.614a15.934 15.934 0 0 0-.385-2.448 12.129 12.129 0 0 0-.489-1.547 3.955 3.955 0 0 0-.607-1.047q7.532-.709 15.083-1.123-.092 2.1-.18 4.2l-1.047.06a14.576 14.576 0 0 0-.542-1.407 2.324 2.324 0 0 0-.745-.928 2.937 2.937 0 0 0-1.364-.464 13.091 13.091 0 0 0-2.442 0q-1.4.1-2.8.21l.72 9.143a18.794 18.794 0 0 0 2.462-.186q1.113-.165 1.915-.3c.622-.127 1.168-.26 1.64-.4a3.188 3.188 0 0 1 .079.546 4.187 4.187 0 0 1-.15 1.2 1.29 1.29 0 0 1-.928.886 2.93 2.93 0 0 1-1.516.082q-1.7-.326-3.409-.636l1.235 15.679a1.705 1.705 0 0 0 .148.517 1.684 1.684 0 0 0 .432.58 2.054 2.054 0 0 0 .825.423 3.928 3.928 0 0 0 1.334.092q.745-.053 1.49-.1a3.064 3.064 0 0 0 1.553-.461 2.762 2.762 0 0 0 .9-1.029 5.24 5.24 0 0 0 .476-1.383q.15-.749.322-1.522l.991-.056q.339 2.589.673 5.195z" class="cls-1" data-name="Path 30" transform="translate(-400.504 -275.526)"/>
                    <path id="Path_31" d="M479.066 296.671a1.758 1.758 0 0 1 1.1-.422 3.354 3.354 0 0 1 1.525.21 3.182 3.182 0 0 1 1.357 1.02 3.144 3.144 0 0 1 .6 2 5.966 5.966 0 0 1-.245 1.65 4.754 4.754 0 0 1-.9 1.7 5 5 0 0 1-1.836 1.356 7.756 7.756 0 0 1-3.05.591 10.22 10.22 0 0 1-3.351-.41 7.408 7.408 0 0 1-2.458-1.283 5.636 5.636 0 0 1-1.563-1.964 6.269 6.269 0 0 1-.607-2.448l-.83-18.028a5.912 5.912 0 0 1 .411-2.494 5.518 5.518 0 0 1 1.492-2.094 7.837 7.837 0 0 1 2.546-1.469 11.3 11.3 0 0 1 3.6-.613 9.967 9.967 0 0 1 3.814.517 6.152 6.152 0 0 1 2.27 1.431 4.712 4.712 0 0 1 1.113 1.851 6.45 6.45 0 0 1 .306 1.837 5.238 5.238 0 0 1-.44 2.264 4.769 4.769 0 0 1-2.632 2.5 4.389 4.389 0 0 1-1.476.319 6.183 6.183 0 0 1-1.6-.18 4.812 4.812 0 0 1-1.384-.56 3.171 3.171 0 0 1-.946-.863 1.884 1.884 0 0 1-.368-1.047 4.315 4.315 0 0 0 2.978-.222 3.555 3.555 0 0 0 2-1.959 3.138 3.138 0 0 0 .252-1.4 3.606 3.606 0 0 0-.413-1.621 3.482 3.482 0 0 0-1.216-1.311 3.693 3.693 0 0 0-2.149-.5 3.8 3.8 0 0 0-1.692.383 3.2 3.2 0 0 0-1.076.878 2.933 2.933 0 0 0-.537 1.117 4.072 4.072 0 0 0-.125 1.062l.737 22.008a4.313 4.313 0 0 0 .185 1.051 3.02 3.02 0 0 0 1.62 1.9 3.365 3.365 0 0 0 1.586.3 3.24 3.24 0 0 0 2.432-1.024 3.969 3.969 0 0 0 1.057-2.215 3.87 3.87 0 0 0-.338-2.447 3.176 3.176 0 0 0-1.749-1.371z" class="cls-1" data-name="Path 31" transform="translate(-433.12 -273.971)"/>
                    <path id="Path_32" d="M531.234 300.387a17.467 17.467 0 0 0 .952 2.937 3.957 3.957 0 0 0 1.42 1.651 3.679 3.679 0 0 1-1.447.442 9.407 9.407 0 0 1-1.3.073 4.923 4.923 0 0 1-2.625-1 4.354 4.354 0 0 1-1.482-2.645q-1.132-6.332-2.356-12.656a4.073 4.073 0 0 1-2.252-.843l-.166 11.368a19.873 19.873 0 0 0 .092 2.474 7.766 7.766 0 0 0 .318 1.59 2.858 2.858 0 0 0 .45 1.107q-3.189-.055-6.379-.053a4.161 4.161 0 0 0 .469-1.1 13.269 13.269 0 0 0 .323-1.585 17.069 17.069 0 0 0 .155-2.472l.041-19.7a15.887 15.887 0 0 0-.155-2.473 12.074 12.074 0 0 0-.342-1.586 3.954 3.954 0 0 0-.506-1.1q4.078 0 8.156.081a13.117 13.117 0 0 1 3.329.463 6.937 6.937 0 0 1 2.534 1.287 5.443 5.443 0 0 1 1.589 2.2 7.754 7.754 0 0 1 .46 3.234 7.514 7.514 0 0 1-1.767 4.837 7.021 7.021 0 0 1-4.482 2.227 6.978 6.978 0 0 1 1.048.621 6.26 6.26 0 0 1 1.1 1.006 7.212 7.212 0 0 1 .968 1.448 7.4 7.4 0 0 1 .657 1.948q.611 3.108 1.198 6.219zm-8.58-13.221a1.483 1.483 0 0 0 .68.667 2.539 2.539 0 0 0 1.263.342 2.161 2.161 0 0 0 1.481-.473 3.471 3.471 0 0 0 .951-1.328 7.425 7.425 0 0 0 .5-1.994q.145-1.158.183-2.426a8.528 8.528 0 0 0-.308-2.778 5.093 5.093 0 0 0-.979-1.844 3.878 3.878 0 0 0-1.421-1.048 4.255 4.255 0 0 0-1.578-.348l-1.1-.018-.11 7.523a2.2 2.2 0 0 1 .819-.452 2.409 2.409 0 0 1 .995-.109 2.158 2.158 0 0 1 .9.293 1.533 1.533 0 0 1 .614.754 2.5 2.5 0 0 0-1.376.1 2.489 2.489 0 0 0-1.626 1.831 2.237 2.237 0 0 0 .111 1.309z" class="cls-1" data-name="Path 32" transform="translate(-463.343 -274.509)"/>
                    <path id="Path_33" d="M580.013 307.1q-7.165-.645-14.347-1a4.167 4.167 0 0 0 .523-1.074 13.174 13.174 0 0 0 .4-1.567 17.027 17.027 0 0 0 .279-2.461l1.027-19.669a15.923 15.923 0 0 0-.031-2.477 12.189 12.189 0 0 0-.262-1.6 3.963 3.963 0 0 0-.451-1.123q7.55.375 15.087 1.043-.392 2.066-.779 4.132l-1.046-.09a14.558 14.558 0 0 0-.335-1.471 2.333 2.333 0 0 0-.6-1.025 2.944 2.944 0 0 0-1.284-.654 13.154 13.154 0 0 0-2.417-.351q-1.4-.1-2.8-.192l-.593 9.152a18.7 18.7 0 0 0 2.464.168q1.125 0 1.938-.026.951-.054 1.681-.165a3.178 3.178 0 0 1 0 .551 4.169 4.169 0 0 1-.318 1.162 1.291 1.291 0 0 1-1.045.744 2.937 2.937 0 0 1-1.512-.136q-1.637-.565-3.283-1.117l-1.018 15.695a1.711 1.711 0 0 0 .073.533 1.682 1.682 0 0 0 .344.636 2.056 2.056 0 0 0 .756.537 3.909 3.909 0 0 0 1.307.282l1.49.11a3.073 3.073 0 0 0 1.6-.235 2.767 2.767 0 0 0 1.039-.89 5.252 5.252 0 0 0 .67-1.3q.256-.72.536-1.46l.99.087q-.039 2.623-.083 5.251z" class="cls-1" data-name="Path 33" transform="translate(-494.566 -275.339)"/>
                    <path id="Path_34" d="M637.176 281.872l-1 4.085-1.041-.146q-.117-.827-.24-1.441a2.157 2.157 0 0 0-.528-1.053 3.061 3.061 0 0 0-1.2-.736 10.561 10.561 0 0 0-2.258-.484l-2.978 23.609a19.773 19.773 0 0 0-.182 2.469 7.744 7.744 0 0 0 .141 1.616 2.851 2.851 0 0 0 .326 1.15q-3.17-.408-6.345-.76a4.81 4.81 0 0 0 .588-1.04 13.088 13.088 0 0 0 .5-1.539 17.007 17.007 0 0 0 .427-2.44l2.681-23.644a10.516 10.516 0 0 0-2.308-.063 3.059 3.059 0 0 0-1.34.432 2.15 2.15 0 0 0-.761.9q-.266.568-.573 1.344l-1.044-.1v-4.2q8.58.824 17.135 2.041z" class="cls-1" data-name="Path 34" transform="translate(-529.053 -277.68)"/>
                </g>
                <g id="Group_11" data-name="Group 11" transform="translate(0 10.671)">
                    <g id="Group_10" data-name="Group 10">
                        <g id="Group_7" data-name="Group 7" transform="translate(1.069 3.491)">
                            <g id="Group_6" data-name="Group 6">
                                <path id="Path_35" d="M305.444 318.214l.092 1.636-.376.056q-.127-.3-.234-.515a.846.846 0 0 0-.292-.34 1.06 1.06 0 0 0-.489-.153 3.578 3.578 0 0 0-.826.047l1.36 9.182a7.853 7.853 0 0 0 .19.947 3.026 3.026 0 0 0 .221.592 1.112 1.112 0 0 0 .242.4l-2.446.362a1.872 1.872 0 0 0 .117-.451 5.092 5.092 0 0 0 .032-.63 6.7 6.7 0 0 0-.084-.962l-1.36-9.182a3.568 3.568 0 0 0-.8.194 1.065 1.065 0 0 0-.424.288.851.851 0 0 0-.181.41c-.026.159-.052.347-.075.561l-.375.056-.386-1.593z" class="cls-1" data-name="Path 35" transform="translate(-299.344 -316.197)"/>
                                <path id="Path_36" d="M326.05 324.845a7.767 7.767 0 0 0 .19.946 3.039 3.039 0 0 0 .221.593 1.12 1.12 0 0 0 .242.4l-2.446.362a1.624 1.624 0 0 0 .117-.451 5.262 5.262 0 0 0 .032-.63 6.763 6.763 0 0 0-.084-.962v-.017l-.766-5.169-2.381.352.768 5.186a7.775 7.775 0 0 0 .19.947 3.032 3.032 0 0 0 .221.592 1.122 1.122 0 0 0 .242.4l-2.446.362a1.623 1.623 0 0 0 .117-.451 5.25 5.25 0 0 0 .032-.63 6.763 6.763 0 0 0-.084-.962l-1.125-7.6a6.692 6.692 0 0 0-.2-.946 5.1 5.1 0 0 0-.213-.593 1.623 1.623 0 0 0-.242-.4l2.446-.362a1.294 1.294 0 0 0-.114.467 3.051 3.051 0 0 0-.04.631 7.6 7.6 0 0 0 .09.945l.28 1.892 2.381-.353-.28-1.892a6.7 6.7 0 0 0-.2-.946 5.143 5.143 0 0 0-.213-.594 1.617 1.617 0 0 0-.242-.4l2.446-.362a1.835 1.835 0 0 0-.115.459 5.561 5.561 0 0 0-.032.63 6.537 6.537 0 0 0 .083.954l1.123 7.583z" class="cls-1" data-name="Path 36" transform="translate(-311.453 -314.287)"/>
                                <path id="Path_37" d="M345.863 324.254l-5.513.816a1.62 1.62 0 0 0 .117-.451 5.23 5.23 0 0 0 .032-.63 6.756 6.756 0 0 0-.084-.962l-1.125-7.6a6.715 6.715 0 0 0-.2-.946 5.139 5.139 0 0 0-.213-.593 1.621 1.621 0 0 0-.242-.4l5.349-.792.092 1.637-.375.056q-.13-.314-.245-.531a.919.919 0 0 0-.3-.339 1.021 1.021 0 0 0-.5-.142 4.476 4.476 0 0 0-.874.063l-.995.147.524 3.539a6.125 6.125 0 0 0 .9-.133c.268-.062.5-.118.691-.169a6.082 6.082 0 0 0 .587-.2 1.369 1.369 0 0 1 .048.21 1.74 1.74 0 0 1-.014.469.483.483 0 0 1-.312.371 1.025 1.025 0 0 1-.556.074l-1.274-.161.9 6.068a.679.679 0 0 0 .071.2.661.661 0 0 0 .182.214.791.791 0 0 0 .329.142 1.487 1.487 0 0 0 .517 0l.571-.084a1.167 1.167 0 0 0 .583-.228 1.065 1.065 0 0 0 .312-.43 2.043 2.043 0 0 0 .135-.553q.031-.3.069-.6l.375-.056z" class="cls-1" data-name="Path 37" transform="translate(-324.268 -312.699)"/>
                            </g>
                        </g>
                        <g id="Group_8" data-name="Group 8">
                            <path id="Rectangle_2" d="M0 0h21.358v.703H0z" class="cls-1" data-name="Rectangle 2" transform="rotate(-8.424 21.244 1.565)"/>
                        </g>
                        <g id="Group_9" data-name="Group 9" transform="translate(2.545 17.184)">
                            <path id="Rectangle_3" d="M0 0h21.358v.703H0z" class="cls-1" data-name="Rectangle 3" transform="rotate(-8.424 21.244 1.565)"/>
                        </g>
                    </g>
                </g>
            </g>
            <path id="Path_38" d="M674.588 501a13.366 13.366 0 0 0-3.129-.3 1.462 1.462 0 0 0 .446.267c-.154.282-.551 0-.566-.273l-.571-.026a.316.316 0 0 1 .013.189h-.452a.308.308 0 0 1 .021-.207l-.246-.01c.014.268-.765.381-.7-.028-3-.116-6.924-.219-10.758-.3a.515.515 0 0 0-.007.1h-.224a.985.985 0 0 1-.06-.1c-6.843-.15-13.306-.242-13.548-.242a.943.943 0 1 0 0 1.885c.13 0 2.06-.026 4.88-.074-.091-.072-.026-.3-.041-.447.2.026.253.191.223.444 1.805-.031 3.957-.07 6.23-.117a.343.343 0 0 0-.384-.1c.114-.279.651-.229.764.095l1.928-.041a.665.665 0 0 1 .344-.054.453.453 0 0 1-.009.046c7.749-.189 15.846-.435 15.846-.707zm-30.456.08c.391-.088.474.125.676.227-.114.249-.755.085-.676-.23zm1.015.227c.161-.429-.312-.216-.224-.566.237.459.734.037.786.566zm.9-.341c.431-.049.395-.123.672.115-.005.338-.795.325-.672-.118zm2.02-.225c.15-.163.5-.3.677-.114-.014.248-.475.044-.678.111zm2.588.566a.632.632 0 0 0 .453.114c-.024.325-.538.269-.454-.121zm12.029-.227a.485.485 0 0 1 .452-.225c-.036.196-.194.254-.453.222zm5.4 0c.031-.2.193-.26.452-.225a.5.5 0 0 1-.455.222z" class="cls-2" data-name="Path 38" transform="translate(-471.513 -417.382)"/>
            <path id="Path_39" d="M306.345 501a13.39 13.39 0 0 0 3.129.3 1.466 1.466 0 0 0-.446-.267c.154-.281.551 0 .566.273l.572.027a.317.317 0 0 1-.014-.189h.452a.305.305 0 0 1-.021.207l.247.011c-.013-.268.765-.381.7.028 3 .116 6.924.219 10.758.3a.515.515 0 0 0 .007-.1h.223a.932.932 0 0 1 .061.1c6.843.15 13.306.241 13.548.241a.943.943 0 1 0 0-1.885c-.13 0-2.06.027-4.88.074.091.073.026.3.041.448-.2-.026-.253-.191-.223-.444-1.806.031-3.958.07-6.23.116a.344.344 0 0 0 .385.1c-.114.279-.651.229-.764-.1l-1.928.041a.668.668 0 0 1-.344.054c0-.017.007-.031.009-.046-7.751.188-15.848.435-15.848.711zm30.456-.08c-.391.088-.474-.125-.677-.227.115-.254.756-.093.676.225zm-1.015-.227c-.161.429.312.216.225.566-.238-.459-.734-.037-.786-.566zm-.9.341c-.431.049-.395.123-.671-.114.004-.343.794-.331.671.112zm-2.02.225c-.15.163-.5.3-.677.114.011-.253.476-.049.678-.116zm-2.587-.566a.635.635 0 0 0-.453-.114c.024-.329.538-.273.454.112zm-12.029.227a.485.485 0 0 1-.452.225c.031-.201.193-.259.453-.227zm-5.4 0c-.031.2-.193.26-.452.225a.5.5 0 0 1 .455-.227z" class="cls-2" data-name="Path 39" transform="translate(-257.416 -417.382)"/>
        </g>
        <g id="Component_10_1" data-name="Component 10 – 1" transform="translate(98)">
            <text id="CHAPTER_7" class="cls-3" data-name="CHAPTER 7" transform="translate(0 9)">
                <tspan x="0" y="0">CHAPTER 7</tspan>
            </text>
        </g>
    </g>
</svg>
