<svg xmlns="http://www.w3.org/2000/svg" id="forest-title" width="305.583" height="76.726" viewBox="0 0 305.583 76.726">
    <defs>
        <style>
            .cls-1{fill:#fff}
        </style>
    </defs>
    <path id="Path_181" d="M232.323 377.438l-.915 9.893h-2.318a34.5 34.5 0 0 0-1.008-3.435 5.215 5.215 0 0 0-1.52-2.276 6.559 6.559 0 0 0-2.923-1.26 27.458 27.458 0 0 0-5.35-.4h-6.156v21.835a42.664 42.664 0 0 0 5.551.05 86.94 86.94 0 0 0 4.342-.353 37.249 37.249 0 0 0 3.729-.705 9.326 9.326 0 0 1 .1 1.318 10.27 10.27 0 0 1-.5 2.721 2.948 2.948 0 0 1-2.217 1.965 6.206 6.206 0 0 1-3.435-.05l-7.558-2.116v32.509a45.561 45.561 0 0 0 .3 5.8 26.658 26.658 0 0 0 .705 3.678 6.719 6.719 0 0 0 1.109 2.519H199.31a8.13 8.13 0 0 0 1.008-2.519 31.428 31.428 0 0 0 .756-3.678 38.273 38.273 0 0 0 .353-5.7v-47.568a40.107 40.107 0 0 0-.353-5.879 31.324 31.324 0 0 0-.756-3.737 8.188 8.188 0 0 0-1.008-2.62z" class="cls-1" data-name="Path 181" transform="translate(-136.399 -375.557)"/>
    <path id="Path_182" d="M263.77 376.35a18.744 18.744 0 0 1 6.87 1.218 17.089 17.089 0 0 1 5.4 3.275 14.369 14.369 0 0 1 3.485 4.846 14.646 14.646 0 0 1 1.209 5.879v43.007a13.866 13.866 0 0 1-1.31 6 14.881 14.881 0 0 1-3.586 4.8 17.468 17.468 0 0 1-5.4 3.233 18.637 18.637 0 0 1-6.769 1.209 19.316 19.316 0 0 1-6.912-1.209 17.99 17.99 0 0 1-5.5-3.233 14.445 14.445 0 0 1-3.636-4.8 13.866 13.866 0 0 1-1.31-6v-42.983a13.269 13.269 0 0 1 1.36-5.879 15.486 15.486 0 0 1 3.737-4.846 18.24 18.24 0 0 1 5.551-3.275 18.811 18.811 0 0 1 6.811-1.242zm6.265 14.94a5.879 5.879 0 0 1-3.435 1.218 9.55 9.55 0 0 1-3.485-.84 2.956 2.956 0 0 1-1.764-2.771 6.071 6.071 0 0 0 3.233.5 5.576 5.576 0 0 0 2.771-1.1 5.307 5.307 0 0 0 1.68-2.4 5.811 5.811 0 0 0 .16-3.3v-.197a8.012 8.012 0 0 0-1.923-2.452 5.257 5.257 0 0 0-3.536-1.05 5.988 5.988 0 0 0-3.275.84 6.988 6.988 0 0 0-2.074 2.016 7.558 7.558 0 0 0-1.109 2.62 12.6 12.6 0 0 0-.3 2.62v52.514a12.166 12.166 0 0 0 .3 2.519 8.078 8.078 0 0 0 1.058 2.629 6.871 6.871 0 0 0 2.024 2.066 6.66 6.66 0 0 0 6.458.042 5.921 5.921 0 0 0 1.965-2.016 7.937 7.937 0 0 0 .966-2.62A15.117 15.117 0 0 0 270 439.5z" class="cls-1" data-name="Path 182" transform="translate(-143.928 -375.384)"/>
    <path id="Path_183" d="M330.108 437.812a40.23 40.23 0 0 0 2.52 6.912 9.33 9.33 0 0 0 3.527 3.788 8.582 8.582 0 0 1-3.359 1.209 21.762 21.762 0 0 1-3.082.3 11.48 11.48 0 0 1-6.307-2.167 10.245 10.245 0 0 1-3.687-6.215l-6.156-30.082a8.894 8.894 0 0 1-5.148-1.915V436.8a48.122 48.122 0 0 0 .3 5.879 18.609 18.609 0 0 0 .84 3.779 6.811 6.811 0 0 0 1.109 2.629H295.55a9.8 9.8 0 0 0 1.109-2.629 32.326 32.326 0 0 0 .764-3.779 41.318 41.318 0 0 0 .353-5.879v-47.03a41.2 41.2 0 0 0-.353-5.879 32.527 32.527 0 0 0-.764-3.788 9.843 9.843 0 0 0-1.109-2.62h17.871a27.429 27.429 0 0 1 7.315.907 14.94 14.94 0 0 1 5.652 2.872 13.042 13.042 0 0 1 3.687 5.1 19.912 19.912 0 0 1 1.31 7.676q0 7.164-3.527 11.707a15.428 15.428 0 0 1-9.994 5.652 15.956 15.956 0 0 1 2.419 1.419 15.051 15.051 0 0 1 2.578 2.318 17.576 17.576 0 0 1 2.318 3.359 18.63 18.63 0 0 1 1.68 4.594zm-20.592-31a3.418 3.418 0 0 0 1.562 1.57 5.5 5.5 0 0 0 2.881.756 4.745 4.745 0 0 0 3.359-1.209 8.264 8.264 0 0 0 2.066-3.233 18.477 18.477 0 0 0 1.008-4.8c.168-1.848.252-3.788.252-5.8a21.886 21.886 0 0 0-.84-6.609 12.512 12.512 0 0 0-2.268-4.342 8.709 8.709 0 0 0-6.668-3.183h-2.418v17.972a5.039 5.039 0 0 1 1.814-1.117 5.224 5.224 0 0 1 2.226-.3 4.729 4.729 0 0 1 2.016.663 3.6 3.6 0 0 1 1.411 1.764 5.316 5.316 0 0 0-3.074.3 5.685 5.685 0 0 0-2.377 1.764 6.29 6.29 0 0 0-1.209 2.679 5.618 5.618 0 0 0 .26 3.124z" class="cls-1" data-name="Path 183" transform="translate(-151.816 -375.564)"/>
    <path id="Path_184" d="M380.433 449.123H346.32a9.8 9.8 0 0 0 1.109-2.629 30.9 30.9 0 0 0 .756-3.779 41.323 41.323 0 0 0 .353-5.879v-47.03a41.192 41.192 0 0 0-.353-5.879 31.069 31.069 0 0 0-.756-3.788 9.843 9.843 0 0 0-1.109-2.62h33.105l-.907 9.994H376.2c-.344-1.352-.68-2.519-1.016-3.435a5.66 5.66 0 0 0-1.512-2.326 6.223 6.223 0 0 0-2.923-1.31 27.544 27.544 0 0 0-5.358-.4h-6.156v21.9a35.952 35.952 0 0 0 5.551 0 130.68 130.68 0 0 0 4.342-.4 37.46 37.46 0 0 0 3.737-.705 8.012 8.012 0 0 1 .1 1.319 10.441 10.441 0 0 1-.5 2.822 2.965 2.965 0 0 1-2.225 1.965 6.173 6.173 0 0 1-3.426-.05l-7.558-2.116v37.565a4.149 4.149 0 0 0 .252 1.26 4.048 4.048 0 0 0 .907 1.461 4.93 4.93 0 0 0 1.873 1.159 9.054 9.054 0 0 0 3.124.445h3.536a7.155 7.155 0 0 0 3.737-.84 6.517 6.517 0 0 0 2.267-2.318 12.6 12.6 0 0 0 1.319-3.233c.3-1.176.621-2.368.957-3.586h2.318z" class="cls-1" data-name="Path 184" transform="translate(-159.948 -375.571)"/>
    <path id="Path_185" d="M403.42 388.469a14.143 14.143 0 0 0 2.024 7.416 39.817 39.817 0 0 0 5 6.618q2.973 3.225 6.458 6.357a73.065 73.065 0 0 1 6.458 6.559 36.114 36.114 0 0 1 4.98 7.483 19.173 19.173 0 0 1 2.024 8.826q0 9.5-4.695 14.84t-14.084 5.358a24.142 24.142 0 0 1-6.811-.966 17.216 17.216 0 0 1-5.812-2.923 14.832 14.832 0 0 1-4.031-4.846 14.159 14.159 0 0 1-1.52-6.719 14.4 14.4 0 0 1 1.167-6 13.755 13.755 0 0 1 2.872-4.2 12.043 12.043 0 0 1 3.788-2.519 9.969 9.969 0 0 1 3.788-.84q5.442 0 7.869 2.268a6.937 6.937 0 0 1 2.427 5.2 9.582 9.582 0 0 0-3.788-.453 11.21 11.21 0 0 0-3.687.907 9.893 9.893 0 0 0-3.023 2.074 9.071 9.071 0 0 0-2.024 3.023 9.373 9.373 0 0 0-.655 4.594 10.254 10.254 0 0 0 1.411 4.291 9.313 9.313 0 0 0 3.133 3.133 8.583 8.583 0 0 0 4.594 1.209 11.572 11.572 0 0 0 4.9-.957 10.588 10.588 0 0 0 3.435-2.477 9.238 9.238 0 0 0 2.007-3.5 12.405 12.405 0 0 0 .6-3.737 17.636 17.636 0 0 0-2.016-8.4 36.845 36.845 0 0 0-5.039-7.164 87.828 87.828 0 0 0-6.618-6.618 76.459 76.459 0 0 1-6.609-6.719 37.1 37.1 0 0 1-5.039-7.416 20.156 20.156 0 0 1-.655-16.057 16.914 16.914 0 0 1 3.838-5.753 17.586 17.586 0 0 1 5.954-3.788 20.751 20.751 0 0 1 7.617-1.361 17.636 17.636 0 0 1 7.626 1.47 15.764 15.764 0 0 1 5 3.578 13.757 13.757 0 0 1 2.57 14.621 11.909 11.909 0 0 1-2.671 3.888 11.4 11.4 0 0 1-3.435 2.268 8.944 8.944 0 0 1-3.426.764 11.961 11.961 0 0 1-3.687-.563 12.11 12.11 0 0 1-3.133-1.461 7.667 7.667 0 0 1-2.167-2.116 4.611 4.611 0 0 1-.84-2.629 8.4 8.4 0 0 0 3.527.454 10.011 10.011 0 0 0 6.215-2.771 7.558 7.558 0 0 0 1.864-2.83 7.66 7.66 0 0 0 .554-3.359 10.27 10.27 0 0 0-.907-3.981 8.86 8.86 0 0 0-2.629-3.359 7.466 7.466 0 0 0-4.8-1.411 8.944 8.944 0 0 0-4.2.957 10 10 0 0 0-3.082 2.469 11.044 11.044 0 0 0-1.923 3.435 12.111 12.111 0 0 0-.694 3.833z" class="cls-1" data-name="Path 185" transform="translate(-167.491 -375.199)"/>
    <path id="Path_186" d="M481.07 377.44l-.907 9.994h-2.318a71.812 71.812 0 0 0-.966-3.359 5.258 5.258 0 0 0-1.461-2.326 6.517 6.517 0 0 0-2.822-1.36 21.938 21.938 0 0 0-5.039-.454v56.83a48.121 48.121 0 0 0 .3 5.879 18.611 18.611 0 0 0 .84 3.779 6.811 6.811 0 0 0 1.109 2.629h-15.115a11.285 11.285 0 0 0 1.109-2.629 30.885 30.885 0 0 0 .756-3.779 41.313 41.313 0 0 0 .353-5.879v-56.806a21.937 21.937 0 0 0-5.039.453 6.517 6.517 0 0 0-2.822 1.361 5.257 5.257 0 0 0-1.461 2.326c-.3.941-.63 2.049-.966 3.359h-2.394l-.907-9.994z" class="cls-1" data-name="Path 186" transform="translate(-175.486 -375.558)"/>
    <path id="Path_187" d="M140.775 407.41l-.353 3.9h-.907c-.134-.5-.252-.932-.378-1.3a1.974 1.974 0 0 0-.571-.9 2.519 2.519 0 0 0-1.1-.537 8.516 8.516 0 0 0-1.965-.176v22.188a17.639 17.639 0 0 0 .118 2.3 7.433 7.433 0 0 0 .311 1.478 2.721 2.721 0 0 0 .437 1.025h-5.879a4.469 4.469 0 0 0 .428-1.025 11.382 11.382 0 0 0 .294-1.478 15.847 15.847 0 0 0 .143-2.3v-22.176a8.64 8.64 0 0 0-1.974.176 2.52 2.52 0 0 0-1.1.538 2.041 2.041 0 0 0-.571.9c-.118.37-.244.84-.37 1.3h-.907l-.361-3.9z" class="cls-1" data-name="Path 187" transform="translate(-124.668 -380.359)"/>
    <path id="Path_188" d="M161.087 430.581a19.321 19.321 0 0 0 .118 2.3 7.434 7.434 0 0 0 .311 1.478 2.721 2.721 0 0 0 .437 1.025h-5.879a3.905 3.905 0 0 0 .428-1.025 11.386 11.386 0 0 0 .294-1.478 15.851 15.851 0 0 0 .151-2.3v-12.539h-5.753v12.538a19.315 19.315 0 0 0 .118 2.3 7.356 7.356 0 0 0 .319 1.478 2.721 2.721 0 0 0 .428 1.025h-5.879a3.881 3.881 0 0 0 .437-1.025 13.01 13.01 0 0 0 .294-1.478 15.956 15.956 0 0 0 .134-2.3v-18.366a15.954 15.954 0 0 0-.134-2.3 13.012 13.012 0 0 0-.294-1.478 3.88 3.88 0 0 0-.437-1.025h5.879a3.166 3.166 0 0 0-.428 1.067 7.258 7.258 0 0 0-.319 1.47 19.089 19.089 0 0 0-.118 2.267v4.569h5.753v-4.569a15.849 15.849 0 0 0-.143-2.3 11.384 11.384 0 0 0-.294-1.478 3.905 3.905 0 0 0-.428-1.025h5.879a4.611 4.611 0 0 0-.437 1.041 14.734 14.734 0 0 0-.294 1.478 15.663 15.663 0 0 0-.134 2.284v18.367z" class="cls-1" data-name="Path 188" transform="translate(-127.889 -380.359)"/>
    <path id="Path_189" d="M180.661 435.367H167.35a3.881 3.881 0 0 0 .437-1.025 13 13 0 0 0 .294-1.478 15.957 15.957 0 0 0 .134-2.3v-18.35a15.954 15.954 0 0 0-.134-2.3 13.009 13.009 0 0 0-.294-1.478 3.881 3.881 0 0 0-.437-1.025h12.916l-.353 3.9h-.907c-.134-.521-.26-.966-.395-1.335a2.209 2.209 0 0 0-.588-.907 2.519 2.519 0 0 0-1.142-.512 11.045 11.045 0 0 0-2.091-.16h-2.4v8.549a15.511 15.511 0 0 0 2.167 0 48.85 48.85 0 0 0 1.68-.16 12.851 12.851 0 0 0 1.453-.277 3.241 3.241 0 0 1 0 .512 3.939 3.939 0 0 1-.2 1.1 1.151 1.151 0 0 1-.84.773 2.411 2.411 0 0 1-1.335 0l-2.956-.84v14.655a1.57 1.57 0 0 0 .1.487 1.6 1.6 0 0 0 .353.571 1.814 1.814 0 0 0 .731.454 3.528 3.528 0 0 0 1.218.176h1.377a2.772 2.772 0 0 0 1.461-.336 2.519 2.519 0 0 0 .84-.907 4.669 4.669 0 0 0 .512-1.26c.118-.462.244-.924.378-1.394h.907z" class="cls-1" data-name="Path 189" transform="translate(-131.28 -380.359)"/>
    <path id="Rectangle_34" d="M0 0h51.01v1.68H0z" class="cls-1" data-name="Rectangle 34" transform="translate(0 18.921)"/>
    <path id="Rectangle_35" d="M0 0h51.01v1.68H0z" class="cls-1" data-name="Rectangle 35" transform="translate(0 60.417)"/>
</svg>
