<svg xmlns="http://www.w3.org/2000/svg" width="451.719" height="86.213" viewBox="0 0 451.719 86.213">
    <defs>
        <style>
            .cls-1{fill:#fff}
        </style>
    </defs>
    <g id="smuggler-title" transform="translate(-76.913 -599.896)">
        <g id="Group_92" data-name="Group 92" transform="translate(148.285 599.896)">
            <g id="Group_91" data-name="Group 91">
                <g id="Group_90" data-name="Group 90">
                    <g id="Group_89" data-name="Group 89">
                        <path id="Path_72" d="M163.77 614.87a15.951 15.951 0 0 0 2.269 8.338 45.081 45.081 0 0 0 5.615 7.43q3.345 3.631 7.26 7.147a83.729 83.729 0 0 1 7.26 7.372 40.978 40.978 0 0 1 5.615 8.338 21.67 21.67 0 0 1 2.269 9.926q0 10.664-5.274 16.676t-15.824 6.012a27.149 27.149 0 0 1-7.657-1.079 19.264 19.264 0 0 1-6.523-3.289 16.653 16.653 0 0 1-4.537-5.444 15.986 15.986 0 0 1-1.7-7.545 16.264 16.264 0 0 1 1.3-6.749 15.264 15.264 0 0 1 3.233-4.765 13.506 13.506 0 0 1 4.253-2.836 11.241 11.241 0 0 1 4.254-.964q6.125 0 8.847 2.552a7.81 7.81 0 0 1 2.723 5.842 10.734 10.734 0 0 0-4.253-.511 12.585 12.585 0 0 0-4.141 1.021 11.123 11.123 0 0 0-3.4 2.325 10.328 10.328 0 0 0-2.269 3.4 10.491 10.491 0 0 0-.737 5.16 11.521 11.521 0 0 0 1.588 4.822 10.407 10.407 0 0 0 3.516 3.515 9.642 9.642 0 0 0 5.161 1.362 12.966 12.966 0 0 0 5.5-1.078 11.762 11.762 0 0 0 3.857-2.779 10.387 10.387 0 0 0 2.212-3.857 13.887 13.887 0 0 0 .68-4.2 19.819 19.819 0 0 0-2.269-9.472 41.057 41.057 0 0 0-5.672-8.055 99.228 99.228 0 0 0-7.43-7.43 86.925 86.925 0 0 1-7.431-7.543 41.616 41.616 0 0 1-5.672-8.338 22.574 22.574 0 0 1-.737-18.036 19 19 0 0 1 4.311-6.466 19.69 19.69 0 0 1 6.692-4.253 23.322 23.322 0 0 1 8.565-1.532 19.9 19.9 0 0 1 8.564 1.646 17.711 17.711 0 0 1 5.615 4.026 15.391 15.391 0 0 1 2.893 16.392 13.365 13.365 0 0 1-3.006 4.368 12.9 12.9 0 0 1-3.857 2.552 10.036 10.036 0 0 1-3.857.852 14.054 14.054 0 0 1-7.657-2.27 8.618 8.618 0 0 1-2.439-2.382 5.2 5.2 0 0 1-.908-2.949 9.443 9.443 0 0 0 3.97.511 11.472 11.472 0 0 0 3.8-.965 11.25 11.25 0 0 0 3.177-2.155 8.49 8.49 0 0 0 2.1-3.177 8.607 8.607 0 0 0 .624-3.8 11.6 11.6 0 0 0-1.021-4.481 10.023 10.023 0 0 0-2.949-3.744 8.4 8.4 0 0 0-5.389-1.588 10.064 10.064 0 0 0-4.764 1.078 11.349 11.349 0 0 0-3.461 2.779 12.045 12.045 0 0 0-2.155 3.857 13.558 13.558 0 0 0-.734 4.433z" class="cls-1" data-name="Path 72" transform="translate(-152.541 -599.896)"/>
                        <path id="Path_73" d="M249.292 668.88a53.878 53.878 0 0 0 .341 6.637 20.884 20.884 0 0 0 .908 4.253 7.644 7.644 0 0 0 1.248 2.949h-17.016a5.936 5.936 0 0 0 1.3-2.552 27.1 27.1 0 0 0 .794-3.8 37.455 37.455 0 0 0 .341-4.083q.055-2.043.057-3.4v-50.936l-13.042 57.172h-3.517l-13.952-57.059V675.8a12.243 12.243 0 0 0 .283 2.723 9.468 9.468 0 0 0 .737 2.155 12.682 12.682 0 0 0 1.021 2.042h-7.713a13 13 0 0 0 1.021-2.042q.34-.9.68-2.155a10.806 10.806 0 0 0 .34-2.836v-60.916a56.378 56.378 0 0 0-.453-6.012 26.387 26.387 0 0 0-.795-3.857 9.222 9.222 0 0 0-1.134-2.722h14.294l11.57 46.963 10.663-46.963h14.52a7.655 7.655 0 0 0-1.248 2.95 20.926 20.926 0 0 0-.908 4.253 53.9 53.9 0 0 0-.341 6.636v52.861z" class="cls-1" data-name="Path 73" transform="translate(-155.253 -600.025)"/>
                        <path id="Path_74" d="M303.954 604.335a9.466 9.466 0 0 0-.738 2.212 12.537 12.537 0 0 0-.283 2.666q0 4.993-.057 9.017t-.057 9.189V666.5a20.021 20.021 0 0 1-1.138 6.806 17.482 17.482 0 0 1-3.185 5.559 14.517 14.517 0 0 1-5.006 3.743 15.6 15.6 0 0 1-6.6 1.362h-1.137q-10.468 0-16.383-4.481t-5.915-13.329v-50.14a45.117 45.117 0 0 0-.4-6.58 35.68 35.68 0 0 0-.85-4.2 13.512 13.512 0 0 0-1.249-3.063h17.064a8.794 8.794 0 0 0-1.269 3.063 20.578 20.578 0 0 0-.924 4.2 51.677 51.677 0 0 0-.345 6.58v49.68a31.991 31.991 0 0 0 .511 5.9 13.529 13.529 0 0 0 1.7 4.652 8.786 8.786 0 0 0 3.177 3.062 9.551 9.551 0 0 0 4.821 1.134h1.134a11.446 11.446 0 0 0 9.018-4.083 13.41 13.41 0 0 0 2.5-4.424 16.763 16.763 0 0 0 .85-5.444v-57.17a12 12 0 0 0-.325-2.893q-.324-1.3-.646-2.212a13.332 13.332 0 0 0-.973-2.042h7.73a18.481 18.481 0 0 0-1.025 2.155z" class="cls-1" data-name="Path 74" transform="translate(-158.642 -600.025)"/>
                        <path id="Path_75" d="M354.934 682.659a14.953 14.953 0 0 1-5.218-.624 10.882 10.882 0 0 1-2.609-1.532 21.678 21.678 0 0 1-5.218 2.326 21.234 21.234 0 0 1-6.126.85 21.99 21.99 0 0 1-7.884-1.361 19.058 19.058 0 0 1-6.126-3.687 17.243 17.243 0 0 1-4.027-5.445 15.314 15.314 0 0 1-1.475-6.635v-48.323a17.425 17.425 0 0 1 1.305-6.693 14.612 14.612 0 0 1 3.857-5.445 19.059 19.059 0 0 1 6.409-3.63 26.885 26.885 0 0 1 8.962-1.361 23.1 23.1 0 0 1 9.358 1.644 16.2 16.2 0 0 1 5.786 4.084 13.8 13.8 0 0 1 2.893 5.217 18.583 18.583 0 0 1 .794 5.049 14.866 14.866 0 0 1-1.134 6.069 13.2 13.2 0 0 1-2.836 4.2 11.2 11.2 0 0 1-3.743 2.44 10.664 10.664 0 0 1-3.857.794q-5.219 0-8.225-2.5t-3.006-5.444a9.22 9.22 0 0 0 3.8.567 11.319 11.319 0 0 0 3.743-.847 10.155 10.155 0 0 0 3.12-2.032 8.453 8.453 0 0 0 2.042-2.988 11.434 11.434 0 0 0 .623-3.778 10.62 10.62 0 0 0-.85-4.451 9.031 9.031 0 0 0-2.893-3.665 8.654 8.654 0 0 0-5.388-1.522 8.788 8.788 0 0 0-4.254.905 8.235 8.235 0 0 0-2.666 2.262 8.111 8.111 0 0 0-1.417 2.94 11.7 11.7 0 0 0-.4 2.827v58.93a13.648 13.648 0 0 0 .34 2.828 9.111 9.111 0 0 0 1.191 2.941 7.809 7.809 0 0 0 2.27 2.318 6.432 6.432 0 0 0 3.686.962 6.54 6.54 0 0 0 3.573-.9 6.659 6.659 0 0 0 2.212-2.264 8.877 8.877 0 0 0 1.078-2.941 16.886 16.886 0 0 0 .284-2.942V653.58q-.115-3.955-.454-6.617a30.043 30.043 0 0 0-.794-4.243 7.689 7.689 0 0 0-1.249-2.941h14.52z" class="cls-1" data-name="Path 75" transform="translate(-161.754 -599.964)"/>
                        <path id="Path_76" d="M405.058 682.659a14.959 14.959 0 0 1-5.219-.624 10.876 10.876 0 0 1-2.608-1.532 21.712 21.712 0 0 1-5.218 2.326 21.234 21.234 0 0 1-6.126.85A21.986 21.986 0 0 1 378 682.32a19.048 19.048 0 0 1-6.126-3.687 17.26 17.26 0 0 1-4.028-5.445 15.327 15.327 0 0 1-1.474-6.635v-48.325a17.442 17.442 0 0 1 1.3-6.693 14.634 14.634 0 0 1 3.857-5.445 19.069 19.069 0 0 1 6.409-3.63 26.89 26.89 0 0 1 8.962-1.361 23.1 23.1 0 0 1 9.359 1.644 16.193 16.193 0 0 1 5.785 4.084 13.815 13.815 0 0 1 2.893 5.217 18.619 18.619 0 0 1 .794 5.049 14.882 14.882 0 0 1-1.134 6.069 13.214 13.214 0 0 1-2.836 4.2 11.208 11.208 0 0 1-3.744 2.44 10.66 10.66 0 0 1-3.857.794q-5.218 0-8.224-2.5t-3.007-5.444a9.22 9.22 0 0 0 3.8.567 11.325 11.325 0 0 0 3.744-.847 10.149 10.149 0 0 0 3.119-2.032 8.44 8.44 0 0 0 2.042-2.988 11.432 11.432 0 0 0 .624-3.778 10.636 10.636 0 0 0-.851-4.451 9.036 9.036 0 0 0-2.892-3.665 8.657 8.657 0 0 0-5.389-1.522 8.79 8.79 0 0 0-4.254.905 8.241 8.241 0 0 0-2.665 2.262 8.114 8.114 0 0 0-1.418 2.94 11.7 11.7 0 0 0-.4 2.827v58.93a13.59 13.59 0 0 0 .341 2.828 9.069 9.069 0 0 0 1.191 2.941 7.806 7.806 0 0 0 2.269 2.318 6.438 6.438 0 0 0 3.687.962 6.54 6.54 0 0 0 3.573-.9 6.667 6.667 0 0 0 2.212-2.264 8.9 8.9 0 0 0 1.078-2.941 16.886 16.886 0 0 0 .284-2.942V653.58q-.116-3.955-.454-6.617a29.888 29.888 0 0 0-.795-4.243 7.674 7.674 0 0 0-1.248-2.941h14.52z" class="cls-1" data-name="Path 76" transform="translate(-164.575 -599.964)"/>
                        <path id="Path_77" d="M452.677 682.72h-38.342a11.119 11.119 0 0 0 1.249-2.949 35.3 35.3 0 0 0 .85-4.253 46.292 46.292 0 0 0 .4-6.637V616.02a46.314 46.314 0 0 0-.4-6.636 35.414 35.414 0 0 0-.85-4.253 11.139 11.139 0 0 0-1.249-2.95h17.016a7.654 7.654 0 0 0-1.249 2.95 20.93 20.93 0 0 0-.907 4.253 53.716 53.716 0 0 0-.341 6.636v58.987a4.674 4.674 0 0 0 .283 1.419 4.534 4.534 0 0 0 1.022 1.644 5.393 5.393 0 0 0 2.1 1.305 10.184 10.184 0 0 0 3.516.51h3.971a8.016 8.016 0 0 0 4.2-.964 7.5 7.5 0 0 0 2.553-2.553 14.647 14.647 0 0 0 1.531-3.573q.566-1.985 1.134-4.028h2.609z" class="cls-1" data-name="Path 77" transform="translate(-167.274 -600.025)"/>
                        <path id="Path_78" d="M499.074 682.72h-38.342a11.122 11.122 0 0 0 1.248-2.949 35.283 35.283 0 0 0 .851-4.253 46.425 46.425 0 0 0 .4-6.637V616.02a46.447 46.447 0 0 0-.4-6.636 35.394 35.394 0 0 0-.851-4.253 11.142 11.142 0 0 0-1.248-2.95h37.207l-1.021 11.23h-2.608q-.569-2.268-1.135-3.857a6.3 6.3 0 0 0-1.7-2.608 7.023 7.023 0 0 0-3.29-1.475 30.936 30.936 0 0 0-6.012-.453h-6.919v24.615a42.385 42.385 0 0 0 6.239 0q2.834-.226 4.877-.454a41.482 41.482 0 0 0 4.2-.795 9.134 9.134 0 0 1 .113 1.476 11.764 11.764 0 0 1-.567 3.176 3.324 3.324 0 0 1-2.5 2.212 7.032 7.032 0 0 1-3.857-.057l-8.508-2.382v42.211a4.608 4.608 0 0 0 .283 1.414 4.5 4.5 0 0 0 1.021 1.642 5.4 5.4 0 0 0 2.1 1.3 10.159 10.159 0 0 0 3.516.51h3.97a8.014 8.014 0 0 0 4.2-.964 7.338 7.338 0 0 0 2.553-2.609 14.1 14.1 0 0 0 1.475-3.63q.51-1.985 1.078-4.028h2.608z" class="cls-1" data-name="Path 78" transform="translate(-169.885 -600.025)"/>
                        <path id="Path_79" d="M546.037 670.016a45.846 45.846 0 0 0 2.836 7.771 10.466 10.466 0 0 0 3.97 4.253 9.676 9.676 0 0 1-3.8 1.362 24.311 24.311 0 0 1-3.46.34 12.892 12.892 0 0 1-7.089-2.439 11.592 11.592 0 0 1-4.141-6.976l-6.919-33.8a10 10 0 0 1-5.785-2.156v30.509a53.889 53.889 0 0 0 .34 6.637 20.877 20.877 0 0 0 .908 4.253 7.644 7.644 0 0 0 1.248 2.949h-17.017a11.121 11.121 0 0 0 1.248-2.949 35.276 35.276 0 0 0 .851-4.253 46.421 46.421 0 0 0 .4-6.637v-52.86a46.443 46.443 0 0 0-.4-6.636 35.387 35.387 0 0 0-.851-4.253 11.141 11.141 0 0 0-1.248-2.95h20.078a30.819 30.819 0 0 1 8.224 1.021 16.854 16.854 0 0 1 6.353 3.233 14.686 14.686 0 0 1 4.14 5.728 22.344 22.344 0 0 1 1.474 8.622q0 8.055-3.97 13.158A17.325 17.325 0 0 1 532.2 640.3a17.93 17.93 0 0 1 2.723 1.588 16.658 16.658 0 0 1 2.893 2.609 19.771 19.771 0 0 1 2.608 3.8 20.61 20.61 0 0 1 1.871 5.162zM522.9 635.19a3.858 3.858 0 0 0 1.758 1.757 6.15 6.15 0 0 0 3.233.852 5.307 5.307 0 0 0 3.743-1.362 9.262 9.262 0 0 0 2.326-3.63 20.751 20.751 0 0 0 1.133-5.389q.283-3.118.284-6.522a24.645 24.645 0 0 0-.964-7.43 14.155 14.155 0 0 0-2.552-4.878 9.726 9.726 0 0 0-3.574-2.723 9.866 9.866 0 0 0-3.914-.85h-2.722v20.191a5.477 5.477 0 0 1 2.041-1.248 5.736 5.736 0 0 1 2.5-.341 5.216 5.216 0 0 1 2.269.738 4.061 4.061 0 0 1 1.588 1.985 5.984 5.984 0 0 0-3.461.341 6.445 6.445 0 0 0-2.666 1.985 7.052 7.052 0 0 0-1.361 3.007 6.328 6.328 0 0 0 .339 3.517z" class="cls-1" data-name="Path 79" transform="translate(-172.496 -600.025)"/>
                    </g>
                </g>
            </g>
        </g>
        <g id="Group_98" data-name="Group 98" transform="translate(76.913 621.206)">
            <g id="Group_97" data-name="Group 97">
                <g id="Group_94" data-name="Group 94" transform="translate(1.549 9.134)">
                    <g id="Group_93" data-name="Group 93">
                        <path id="Path_80" d="M95.1 632.155l-.4 4.381h-1.013q-.221-.841-.42-1.461a2.282 2.282 0 0 0-.642-1.017 2.87 2.87 0 0 0-1.239-.6 9.6 9.6 0 0 0-2.212-.2v24.912a21.127 21.127 0 0 0 .132 2.588 8.213 8.213 0 0 0 .354 1.66 3 3 0 0 0 .487 1.15H83.51a5.12 5.12 0 0 0 .486-1.15 13.865 13.865 0 0 0 .332-1.66 18.062 18.062 0 0 0 .155-2.588v-24.909a9.613 9.613 0 0 0-2.213.2 2.861 2.861 0 0 0-1.238.6 2.274 2.274 0 0 0-.642 1.017q-.2.621-.42 1.461h-1.018l-.4-4.381z" class="cls-1" data-name="Path 80" transform="translate(-78.554 -632.155)"/>
                        <path id="Path_81" d="M115.434 658.173a20.915 20.915 0 0 0 .133 2.588 8.211 8.211 0 0 0 .354 1.66 3 3 0 0 0 .487 1.15h-6.636a4.379 4.379 0 0 0 .486-1.15 14.056 14.056 0 0 0 .332-1.66 18.062 18.062 0 0 0 .155-2.588V644.1h-6.461v14.071a20.917 20.917 0 0 0 .133 2.588 8.085 8.085 0 0 0 .354 1.66 3.014 3.014 0 0 0 .486 1.15h-6.636a4.377 4.377 0 0 0 .487-1.15 13.894 13.894 0 0 0 .331-1.66 17.926 17.926 0 0 0 .155-2.588v-20.62a17.958 17.958 0 0 0-.155-2.589 13.912 13.912 0 0 0-.331-1.659 4.362 4.362 0 0 0-.487-1.15h6.636a3.493 3.493 0 0 0-.486 1.195 8.089 8.089 0 0 0-.354 1.659 20.519 20.519 0 0 0-.133 2.544v5.133h6.461v-5.133a18.1 18.1 0 0 0-.155-2.589 14.075 14.075 0 0 0-.332-1.659 4.364 4.364 0 0 0-.486-1.15h6.636a4.9 4.9 0 0 0-.487 1.173 14.759 14.759 0 0 0-.331 1.659 17.458 17.458 0 0 0-.156 2.566v20.62z" class="cls-1" data-name="Path 81" transform="translate(-79.683 -632.155)"/>
                        <path id="Path_82" d="M134.816 663.572H119.86a4.345 4.345 0 0 0 .487-1.15 14.058 14.058 0 0 0 .332-1.66 18.062 18.062 0 0 0 .155-2.588v-20.62a18.1 18.1 0 0 0-.155-2.589 14.077 14.077 0 0 0-.332-1.659 4.33 4.33 0 0 0-.487-1.15h14.514l-.4 4.381h-1.017q-.221-.885-.442-1.505a2.476 2.476 0 0 0-.664-1.017 2.736 2.736 0 0 0-1.283-.575 12.006 12.006 0 0 0-2.344-.177h-2.7v9.6a16.328 16.328 0 0 0 2.434 0q1.106-.086 1.9-.176a16.5 16.5 0 0 0 1.637-.31 3.524 3.524 0 0 1 .044.575 4.622 4.622 0 0 1-.221 1.239 1.3 1.3 0 0 1-.974.863 2.753 2.753 0 0 1-1.5-.023l-3.319-.929v16.464a1.86 1.86 0 0 0 .509 1.193 2.135 2.135 0 0 0 .819.507 3.984 3.984 0 0 0 1.372.2h1.548a3.134 3.134 0 0 0 1.638-.377 2.851 2.851 0 0 0 .995-1.018 5.466 5.466 0 0 0 .576-1.416q.2-.774.42-1.571h1.018z" class="cls-1" data-name="Path 82" transform="translate(-80.879 -632.155)"/>
                    </g>
                </g>
                <g id="Group_95" data-name="Group 95">
                    <path id="Rectangle_14" d="M0 0h57.322v1.887H0z" class="cls-1" data-name="Rectangle 14"/>
                </g>
                <g id="Group_96" data-name="Group 96" transform="translate(0 46.624)">
                    <path id="Rectangle_15" d="M0 0h57.322v1.887H0z" class="cls-1" data-name="Rectangle 15"/>
                </g>
            </g>
        </g>
    </g>
</svg>
