<svg xmlns="http://www.w3.org/2000/svg" width="375.764" height="162.107" viewBox="0 0 375.764 162.107">
    <defs>
        <style>
            .cls-1{fill:#231f20}
        </style>
    </defs>
    <g id="social-title" transform="translate(-176.828 -133.234)">
        <path id="Path_129" d="M182.186 276.68a46 46 0 0 0 .336 5.879 20.357 20.357 0 0 0 .84 3.779 7.159 7.159 0 0 0 1.092 2.6h-15.118a4.915 4.915 0 0 0 1.176-2.268 14.9 14.9 0 0 0 .672-3.359c.168-1.176.252-2.436.336-3.612 0-1.176.084-2.184.084-3.024v-45.349l-11.674 50.9h-3.108l-12.43-50.813v51.4a11.993 11.993 0 0 0 .252 2.436 7.52 7.52 0 0 0 .672 1.932 12.642 12.642 0 0 0 .924 1.848h-6.887a12.641 12.641 0 0 0 .924-1.848 18.394 18.394 0 0 0 .588-1.932 8.67 8.67 0 0 0 .336-2.52v-54.175a38.621 38.621 0 0 0-.42-5.375c-.168-1.176-.42-2.268-.672-3.444a8.791 8.791 0 0 0-1.009-2.435h12.682l10.331 41.826L171.6 217.3h12.934a5.961 5.961 0 0 0-1.092 2.6 20.36 20.36 0 0 0-.84 3.779 46 46 0 0 0-.336 5.879l-.084 47.117z" class="cls-1" data-name="Path 129" transform="translate(37.728 3.207)"/>
        <path id="Path_130" d="M233.3 288.958h-34.1a10.081 10.081 0 0 0 1.092-2.6 30.1 30.1 0 0 0 .756-3.779 46 46 0 0 0 .336-5.879v-47.038a46 46 0 0 0-.336-5.879 30.1 30.1 0 0 0-.756-3.779 10.082 10.082 0 0 0-1.092-2.6h33.091l-.924 9.995h-2.352c-.336-1.344-.672-2.52-1.008-3.444a5.355 5.355 0 0 0-4.451-3.7 28.439 28.439 0 0 0-5.375-.42h-6.131v21.921a30.55 30.55 0 0 0 5.543 0c1.68-.168 3.108-.252 4.367-.42a26.179 26.179 0 0 0 3.7-.756 6.788 6.788 0 0 1 .084 1.344 8.532 8.532 0 0 1-.5 2.856 3.1 3.1 0 0 1-2.184 2.016 6.014 6.014 0 0 1-3.444-.084l-7.559-2.1v37.543a3.37 3.37 0 0 0 .252 1.26 3.241 3.241 0 0 0 .924 1.428 5.338 5.338 0 0 0 1.848 1.176 7.953 7.953 0 0 0 3.108.42h3.527a7.044 7.044 0 0 0 3.7-.84 6.769 6.769 0 0 0 2.268-2.352 14.129 14.129 0 0 0 1.344-3.276c.336-1.176.588-2.352.924-3.611h2.352z" class="cls-1" data-name="Path 130" transform="translate(28.105 3.191)"/>
        <path id="Path_131" d="M266.681 217.3a16.571 16.571 0 0 1 12.43 5.291 17.287 17.287 0 0 1 3.612 5.8 18.487 18.487 0 0 1 1.344 7.055v35.527a18.486 18.486 0 0 1-1.344 7.055 19.764 19.764 0 0 1-3.612 5.8 16.571 16.571 0 0 1-12.43 5.291H245.6a10.081 10.081 0 0 0 1.092-2.6 30.093 30.093 0 0 0 .756-3.779 46 46 0 0 0 .336-5.879v-47.047a46 46 0 0 0-.336-5.879 30.1 30.1 0 0 0-.756-3.779 10.082 10.082 0 0 0-1.092-2.6zm6.719 18.058a25.8 25.8 0 0 0-.42-4.451 19.068 19.068 0 0 0-1.764-5.207 12.086 12.086 0 0 0-3.779-4.2 10.474 10.474 0 0 0-6.131-1.764h-2.772v55.432a9.052 9.052 0 0 1 2.016-1.008 7.192 7.192 0 0 1 3.276 0 2.925 2.925 0 0 1 2.184 2.1 5.68 5.68 0 0 0-3.108.336 5.459 5.459 0 0 0-2.352 1.764 6 6 0 0 0-1.176 2.688 4.889 4.889 0 0 0 .42 3.108 3.558 3.558 0 0 0 1.428 1.512 5.286 5.286 0 0 0 2.772.756h.84a5.281 5.281 0 0 0 3.863-1.68 17.018 17.018 0 0 0 2.688-4.2 27.824 27.824 0 0 0 1.6-5.123 20.849 20.849 0 0 0 .5-4.535z" class="cls-1" data-name="Path 131" transform="translate(20.675 3.207)"/>
        <path id="Path_132" d="M311.55 276.7a45.994 45.994 0 0 0 .336 5.879 20.357 20.357 0 0 0 .84 3.779 7.16 7.16 0 0 0 1.092 2.6H298.7a10.08 10.08 0 0 0 1.092-2.6 30.1 30.1 0 0 0 .756-3.779 46.005 46.005 0 0 0 .336-5.879v-47.038a46.006 46.006 0 0 0-.336-5.879 30.1 30.1 0 0 0-.756-3.779 10.082 10.082 0 0 0-1.092-2.6h15.118a5.959 5.959 0 0 0-1.092 2.6 20.357 20.357 0 0 0-.84 3.779 46 46 0 0 0-.336 5.879z" class="cls-1" data-name="Path 132" transform="translate(12.173 3.191)"/>
        <path id="Path_133" d="M346.772 288.942a11.413 11.413 0 0 0 .924-2.352 12.409 12.409 0 0 0 .42-2.94 14.778 14.778 0 0 0-.336-4.283l-4.7-24.609h-10.5l-6.635 28.892a7.518 7.518 0 0 0-.168 1.932v1.68a11.249 11.249 0 0 0 .084 1.68H320.4a9.892 9.892 0 0 0 .924-1.6c.252-.588.5-1.26.756-1.848.252-.672.5-1.512.756-2.352l14.026-60.808a29.982 29.982 0 0 0-1.344-3.863l-.588-1.176h11.59l6.3 32.084 6.3 32.084a21.334 21.334 0 0 0 .84 3.108 11.674 11.674 0 0 0 1.008 2.352c.336.672.672 1.344 1.092 2.016zm-4.372-37.459l-4.2-21.753-4.955 21.753z" class="cls-1" data-name="Path 133" transform="translate(8.699 3.207)"/>
        <path id="Path_134" d="M398.809 228.368a14.168 14.168 0 0 0 2.016 7.391 38.393 38.393 0 0 0 5.039 6.635 93.072 93.072 0 0 0 6.467 6.383 79.336 79.336 0 0 1 6.467 6.551 44.16 44.16 0 0 1 5.039 7.391 20.222 20.222 0 0 1 2.016 8.819c0 6.3-1.6 11.254-4.7 14.866s-7.811 5.375-14.11 5.375a26.568 26.568 0 0 1-6.8-.924 17.192 17.192 0 0 1-5.8-2.94 15.1 15.1 0 0 1-4.031-4.871 14.319 14.319 0 0 1-1.512-6.719 13.648 13.648 0 0 1 1.176-6.047 13.289 13.289 0 0 1 2.856-4.2 11.47 11.47 0 0 1 3.779-2.52 9.89 9.89 0 0 1 3.779-.84c3.611 0 6.3.756 7.895 2.268a6.97 6.97 0 0 1 2.436 5.207 8.358 8.358 0 0 0-3.78-.42 11.386 11.386 0 0 0-3.7.924 9.334 9.334 0 0 0-3.024 2.1 9.089 9.089 0 0 0-2.016 3.024 9.939 9.939 0 0 0 .756 8.9 9.168 9.168 0 0 0 3.108 3.108 8.089 8.089 0 0 0 4.619 1.176 11.981 11.981 0 0 0 4.871-.924 10.145 10.145 0 0 0 3.444-2.52 8.288 8.288 0 0 0 1.932-3.444 11.142 11.142 0 0 0 .588-3.779 18.214 18.214 0 0 0-2.016-8.4 39.049 39.049 0 0 0-5.039-7.139 82.436 82.436 0 0 0-6.635-6.635 83.49 83.49 0 0 1-6.635-6.719 39.641 39.641 0 0 1-5.039-7.391 20.126 20.126 0 0 1-.672-16.042 16.711 16.711 0 0 1 3.863-5.8 16.415 16.415 0 0 1 5.963-3.779 19.838 19.838 0 0 1 7.643-1.344 17.281 17.281 0 0 1 7.643 1.512 16.35 16.35 0 0 1 5.039 3.612 13.92 13.92 0 0 1 2.6 14.614 11.072 11.072 0 0 1-2.688 3.863 11.673 11.673 0 0 1-3.444 2.268 8.216 8.216 0 0 1-3.444.756 10.987 10.987 0 0 1-3.7-.588 10.67 10.67 0 0 1-3.108-1.512 8.653 8.653 0 0 1-2.184-2.1 4.8 4.8 0 0 1-.84-2.6 7.2 7.2 0 0 0 3.528.42 9.424 9.424 0 0 0 3.36-.84 10.709 10.709 0 0 0 2.856-1.932 7.307 7.307 0 0 0 1.848-2.856 9.137 9.137 0 0 0 .588-3.36 9.745 9.745 0 0 0-.924-4.031 9.308 9.308 0 0 0-2.6-3.36 7.648 7.648 0 0 0-4.787-1.428 9.922 9.922 0 0 0-4.2.924 9.764 9.764 0 0 0-3.108 2.436 10.708 10.708 0 0 0-1.932 3.444 9.808 9.808 0 0 0-.746 4.037z" class="cls-1" data-name="Path 134" transform="translate(-2.267 3.561)"/>
        <path id="Path_135" d="M476.395 217.3l-.924 9.995h-2.352c-.336-1.26-.672-2.436-.924-3.36a4.755 4.755 0 0 0-1.512-2.352 6 6 0 0 0-2.856-1.344 20.445 20.445 0 0 0-5.039-.42v56.86a46 46 0 0 0 .336 5.879 20.357 20.357 0 0 0 .84 3.779 7.161 7.161 0 0 0 1.092 2.6h-15.118a10.082 10.082 0 0 0 1.092-2.6 30.08 30.08 0 0 0 .756-3.779 46 46 0 0 0 .336-5.879V219.9a20.446 20.446 0 0 0-5.039.42 7.438 7.438 0 0 0-2.856 1.344 4.83 4.83 0 0 0-1.428 2.352c-.336.924-.588 2.016-.924 3.36h-2.352l-.924-9.995z" class="cls-1" data-name="Path 135" transform="translate(-10.227 3.207)"/>
        <path id="Path_136" d="M510.756 288.942a11.411 11.411 0 0 0 .924-2.352 12.407 12.407 0 0 0 .42-2.94 14.774 14.774 0 0 0-.336-4.283l-4.787-24.609h-10.5l-6.635 28.892a7.521 7.521 0 0 0-.168 1.932v1.68a11.261 11.261 0 0 0 .084 1.68H484.3a9.9 9.9 0 0 0 .924-1.6 8.569 8.569 0 0 0 .756-1.848c.252-.672.5-1.512.756-2.352l14.026-60.808a21.059 21.059 0 0 0-1.344-3.863l-.588-1.176h11.59l6.3 32.084 6.3 32.084a21.322 21.322 0 0 0 .84 3.108 19.772 19.772 0 0 0 1.008 2.352c.336.672.672 1.344 1.092 2.016zm-4.367-37.459l-4.2-21.753-4.955 21.753z" class="cls-1" data-name="Path 136" transform="translate(-17.544 3.207)"/>
        <path id="Path_137" d="M572.719 277.7a48.108 48.108 0 0 0 2.52 6.887 9 9 0 0 0 3.528 3.779 8.051 8.051 0 0 1-3.36 1.176c-1.008.168-2.016.252-3.108.336A11.406 11.406 0 0 1 566 287.7a10.405 10.405 0 0 1-3.7-6.215l-6.131-30.068a8.762 8.762 0 0 1-5.123-1.932V276.7a46 46 0 0 0 .336 5.879 20.359 20.359 0 0 0 .84 3.779 7.159 7.159 0 0 0 1.092 2.6H538.2a10.079 10.079 0 0 0 1.092-2.6 30.084 30.084 0 0 0 .756-3.779 46 46 0 0 0 .336-5.879v-47.038a45.989 45.989 0 0 0-.336-5.879 30.085 30.085 0 0 0-.756-3.779 10.08 10.08 0 0 0-1.092-2.6h17.89a26.831 26.831 0 0 1 7.307.924 13.768 13.768 0 0 1 5.627 2.856 13.408 13.408 0 0 1 3.7 5.123 19.837 19.837 0 0 1 1.344 7.643c0 4.787-1.176 8.651-3.528 11.674a15.326 15.326 0 0 1-9.995 5.627 14.215 14.215 0 0 1 2.436 1.428 13.751 13.751 0 0 1 2.6 2.352 18.581 18.581 0 0 1 2.352 3.36 17.9 17.9 0 0 1 1.68 4.619zm-20.577-30.992a3.662 3.662 0 0 0 1.6 1.6 5.586 5.586 0 0 0 2.856.756 4.842 4.842 0 0 0 3.359-1.176 8.447 8.447 0 0 0 2.1-3.276 15.728 15.728 0 0 0 1.008-4.787q.252-2.772.252-5.8a22.145 22.145 0 0 0-.84-6.635 14.434 14.434 0 0 0-2.268-4.367 8.7 8.7 0 0 0-6.635-3.192h-2.436v17.973a5.134 5.134 0 0 1 1.848-1.092 6.579 6.579 0 0 1 2.184-.336 4.424 4.424 0 0 1 2.016.672 3.293 3.293 0 0 1 1.428 1.764 5.68 5.68 0 0 0-3.108.336 5.458 5.458 0 0 0-2.352 1.764 7.216 7.216 0 0 0-1.26 2.688 4.963 4.963 0 0 0 .252 3.108z" class="cls-1" data-name="Path 137" transform="translate(-26.175 3.191)"/>
        <g id="Group_140" data-name="Group 140" transform="translate(31)">
            <g id="Group_139" data-name="Group 139">
                <path id="Path_123" d="M224.793 126.5a14.168 14.168 0 0 0 2.016 7.391 42.632 42.632 0 0 0 4.955 6.635 93.072 93.072 0 0 0 6.467 6.383 79.338 79.338 0 0 1 6.467 6.551 35.968 35.968 0 0 1 5.039 7.391 20.222 20.222 0 0 1 2.016 8.819c0 6.3-1.6 11.254-4.7 14.866-3.108 3.528-7.811 5.375-14.11 5.375a26.567 26.567 0 0 1-6.8-.924 17.192 17.192 0 0 1-5.8-2.94 15.1 15.1 0 0 1-4.031-4.871 14.32 14.32 0 0 1-1.512-6.719 13.07 13.07 0 0 1 1.176-5.963 14.7 14.7 0 0 1 2.856-4.283 11.469 11.469 0 0 1 3.779-2.52 9.889 9.889 0 0 1 3.779-.84c3.612 0 6.3.756 7.895 2.268a6.97 6.97 0 0 1 2.436 5.207 8.357 8.357 0 0 0-3.779-.42 11.387 11.387 0 0 0-3.7.924 9.335 9.335 0 0 0-3.024 2.1 10.576 10.576 0 0 0-2.016 3.024 9.939 9.939 0 0 0 .756 8.9 9.167 9.167 0 0 0 3.108 3.108 8.09 8.09 0 0 0 4.619 1.176 11.981 11.981 0 0 0 4.871-.924 11.147 11.147 0 0 0 3.444-2.433 8.288 8.288 0 0 0 1.932-3.444 10.988 10.988 0 0 0 .588-3.7 18.214 18.214 0 0 0-2.016-8.4 35.365 35.365 0 0 0-5.039-7.139 82.431 82.431 0 0 0-6.635-6.635 83.485 83.485 0 0 1-6.635-6.719 35.97 35.97 0 0 1-5.039-7.391 20.126 20.126 0 0 1-.672-16.042 16.712 16.712 0 0 1 3.863-5.8 16.415 16.415 0 0 1 5.963-3.779 19.838 19.838 0 0 1 7.643-1.344 17.281 17.281 0 0 1 7.643 1.512 15.415 15.415 0 0 1 5.039 3.612 13.634 13.634 0 0 1 3.612 8.987 12.948 12.948 0 0 1-1.092 5.627 11.072 11.072 0 0 1-2.686 3.874 11.673 11.673 0 0 1-3.444 2.268 8.215 8.215 0 0 1-3.443.756 10.987 10.987 0 0 1-3.7-.588 13.09 13.09 0 0 1-3.108-1.428 8.653 8.653 0 0 1-2.184-2.1 4.8 4.8 0 0 1-.84-2.6 7.2 7.2 0 0 0 3.528.42 9.424 9.424 0 0 0 3.36-.84 10.709 10.709 0 0 0 2.856-1.932 7.306 7.306 0 0 0 1.848-2.856 9.137 9.137 0 0 0 .588-3.36 9.745 9.745 0 0 0-3.528-7.307 7.648 7.648 0 0 0-4.783-1.433 10.6 10.6 0 0 0-4.283.924 9.763 9.763 0 0 0-3.108 2.436 10.707 10.707 0 0 0-1.928 3.44 16.369 16.369 0 0 0-.507 3.7z" class="cls-1" data-name="Path 123" transform="translate(25.609 19.845)"/>
                <path id="Path_124" d="M283.954 114.3a21.184 21.184 0 0 1 6.887 1.176 16.818 16.818 0 0 1 5.375 3.276 13.233 13.233 0 0 1 3.444 4.871 14.151 14.151 0 0 1 1.176 5.879v43a13.2 13.2 0 0 1-1.344 5.963 14.43 14.43 0 0 1-3.612 4.787 17.783 17.783 0 0 1-5.375 3.276 17.1 17.1 0 0 1-6.8 1.176 21.185 21.185 0 0 1-6.887-1.176 17.2 17.2 0 0 1-5.459-3.276 14.43 14.43 0 0 1-3.612-4.787 13.452 13.452 0 0 1-1.347-5.965v-43a14.32 14.32 0 0 1 1.344-5.879 16.269 16.269 0 0 1 3.7-4.871 18.581 18.581 0 0 1 5.543-3.276 22.082 22.082 0 0 1 6.967-1.174zm6.215 14.95a5.689 5.689 0 0 1-3.444 1.176 9.867 9.867 0 0 1-3.444-.84 3.047 3.047 0 0 1-1.764-2.772 6.147 6.147 0 0 0 3.276.5 5.676 5.676 0 0 0 2.772-1.092 5.1 5.1 0 0 0 1.68-2.436 6.217 6.217 0 0 0 .168-3.276v-.168a7.752 7.752 0 0 0-1.932-2.436 4.865 4.865 0 0 0-3.528-1.008 6.35 6.35 0 0 0-3.276.84 6.851 6.851 0 0 0-2.1 2.016 7.158 7.158 0 0 0-1.092 2.6c-.168.84-.252 1.764-.336 2.6v52.493a8.669 8.669 0 0 0 .336 2.52 7.159 7.159 0 0 0 1.092 2.6 6.057 6.057 0 0 0 8.483 2.1 5.791 5.791 0 0 0 2.016-2.016 7.446 7.446 0 0 0 .924-2.6 13.673 13.673 0 0 0 .252-2.6z" class="cls-1" data-name="Path 124" transform="translate(17.345 19.699)"/>
                <path id="Path_125" d="M339.8 168.554a4.105 4.105 0 0 1 2.6-.924 7.292 7.292 0 0 1 3.528.588 6.863 6.863 0 0 1 3.108 2.436 7.572 7.572 0 0 1 1.344 4.787 15.468 15.468 0 0 1-.588 3.947 10.477 10.477 0 0 1-2.184 4.031 10.916 10.916 0 0 1-4.367 3.192 17.73 17.73 0 0 1-7.223 1.26 22.8 22.8 0 0 1-7.895-1.176 18.4 18.4 0 0 1-5.711-3.276 13.232 13.232 0 0 1-3.444-4.871 15.623 15.623 0 0 1-1.176-5.879V129.5a15.623 15.623 0 0 1 1.176-5.879 13.232 13.232 0 0 1 3.444-4.871 16.873 16.873 0 0 1 5.711-3.276 22.8 22.8 0 0 1 7.895-1.176 21.416 21.416 0 0 1 8.315 1.428 13.533 13.533 0 0 1 4.955 3.444 12.1 12.1 0 0 1 2.436 4.451 15.757 15.757 0 0 1 .672 4.367 13.026 13.026 0 0 1-1.008 5.375 10.54 10.54 0 0 1-2.6 3.7 11.027 11.027 0 0 1-3.36 2.184 11.482 11.482 0 0 1-3.36.756 13.381 13.381 0 0 1-3.611-.5 11.517 11.517 0 0 1-3.108-1.428 8.315 8.315 0 0 1-2.1-2.1 4.443 4.443 0 0 1-.756-2.52 9.063 9.063 0 0 0 6.635-.336 8.175 8.175 0 0 0 4.535-4.619 7.687 7.687 0 0 0 .588-3.36 8.653 8.653 0 0 0-.84-3.863 8.744 8.744 0 0 0-2.6-3.192 7.713 7.713 0 0 0-4.7-1.344 8.549 8.549 0 0 0-3.779.84 7.062 7.062 0 0 0-3.7 4.619 8.671 8.671 0 0 0-.336 2.52v52.577a12.967 12.967 0 0 0 .336 2.52 7.062 7.062 0 0 0 3.7 4.619 8.3 8.3 0 0 0 3.779.84 7.546 7.546 0 0 0 5.8-2.352 10.311 10.311 0 0 0 1.848-11.17 7.491 7.491 0 0 0-3.959-3.2z" class="cls-1" data-name="Path 125" transform="translate(9.115 19.701)"/>
                <path id="Path_126" d="M377.05 174.8a45.989 45.989 0 0 0 .336 5.879 20.354 20.354 0 0 0 .84 3.779 7.161 7.161 0 0 0 1.092 2.6H364.2a10.08 10.08 0 0 0 1.092-2.6 30.094 30.094 0 0 0 .756-3.779 46 46 0 0 0 .336-5.879v-47.038a46 46 0 0 0-.336-5.879 30.1 30.1 0 0 0-.756-3.779 10.082 10.082 0 0 0-1.092-2.6h15.118a5.96 5.96 0 0 0-1.092 2.6 20.354 20.354 0 0 0-.84 3.779 45.989 45.989 0 0 0-.336 5.879z" class="cls-1" data-name="Path 126" transform="translate(1.686 19.507)"/>
                <path id="Path_127" d="M412.172 187.158a11.413 11.413 0 0 0 .924-2.352 11.831 11.831 0 0 0 .42-2.94 14.776 14.776 0 0 0-.336-4.283l-4.7-24.609h-10.5l-6.635 28.892a7.521 7.521 0 0 0-.168 1.932v1.764a11.261 11.261 0 0 0 .084 1.68H385.8a9.9 9.9 0 0 0 .924-1.6 8.569 8.569 0 0 0 .756-1.848c.252-.672.5-1.512.756-2.352l14.026-60.808a21.05 21.05 0 0 0-1.344-3.863l-.588-1.176h11.59l6.3 32.084 6.3 32.084a18.8 18.8 0 0 0 .84 3.108 11.675 11.675 0 0 0 1.008 2.352c.336.672.672 1.344 1.092 2.016zM407.8 149.7l-4.2-21.669-4.95 21.669z" class="cls-1" data-name="Path 127" transform="translate(-1.773 19.491)"/>
                <path id="Path_128" d="M473.6 187.158h-34.1a10.08 10.08 0 0 0 1.092-2.6 30.094 30.094 0 0 0 .756-3.779 46 46 0 0 0 .336-5.879v-47.038a46 46 0 0 0-.336-5.879 30.1 30.1 0 0 0-.756-3.779 10.081 10.081 0 0 0-1.092-2.6h15.118a5.96 5.96 0 0 0-1.092 2.6 20.357 20.357 0 0 0-.84 3.779 46 46 0 0 0-.336 5.879v52.493a3.37 3.37 0 0 0 .252 1.26 5.517 5.517 0 0 0 1.008 1.428 5.338 5.338 0 0 0 1.848 1.176 7.953 7.953 0 0 0 3.108.42h3.528a7.043 7.043 0 0 0 3.7-.84 7.3 7.3 0 0 0 2.268-2.268 11.744 11.744 0 0 0 1.344-3.192c.336-1.176.672-2.352 1.008-3.611h2.352z" class="cls-1" data-name="Path 128" transform="translate(-10.371 19.491)"/>
                <path id="Path_138" d="M152.83 146l-.336 3.863h-.924c-.168-.5-.252-.924-.336-1.26a2.175 2.175 0 0 0-.588-.924 2.6 2.6 0 0 0-1.092-.5 7.849 7.849 0 0 0-1.932-.168v22.173a20.464 20.464 0 0 0 .084 2.268 9.766 9.766 0 0 0 .336 1.512 3.635 3.635 0 0 0 .42 1.008h-5.879a5.137 5.137 0 0 0 .42-1.008 9.762 9.762 0 0 0 .336-1.512 20.59 20.59 0 0 0 .168-2.268v-22.176a7.205 7.205 0 0 0-1.932.168 2.6 2.6 0 0 0-1.092.5 2.174 2.174 0 0 0-.588.924c-.084.336-.252.84-.336 1.26h-.924L138.3 146z" class="cls-1" data-name="Path 138" transform="translate(37.856 14.623)"/>
                <path id="Path_139" d="M173.134 169.2a20.468 20.468 0 0 0 .084 2.268 9.764 9.764 0 0 0 .336 1.512 3.636 3.636 0 0 0 .42 1.008h-5.879a5.138 5.138 0 0 0 .42-1.008 9.764 9.764 0 0 0 .336-1.512 20.59 20.59 0 0 0 .168-2.268v-12.517h-5.8V169.2a20.468 20.468 0 0 0 .084 2.268 9.766 9.766 0 0 0 .336 1.512 3.636 3.636 0 0 0 .42 1.008h-5.879a5.138 5.138 0 0 0 .42-1.008l.252-1.512a20.59 20.59 0 0 0 .168-2.268v-18.313a10.319 10.319 0 0 0-.168-2.268 9.764 9.764 0 0 0-.336-1.512 5.139 5.139 0 0 0-.42-1.008h5.879a4.219 4.219 0 0 0-.42 1.092 9.761 9.761 0 0 0-.336 1.512 20.464 20.464 0 0 0-.084 2.268v4.535h5.8v-4.535a10.32 10.32 0 0 0-.168-2.268 9.766 9.766 0 0 0-.336-1.512 5.139 5.139 0 0 0-.42-1.008h5.879a5.137 5.137 0 0 0-.42 1.008 4.755 4.755 0 0 0-.252 1.512 20.594 20.594 0 0 0-.168 2.268l.084 18.225z" class="cls-1" data-name="Path 139" transform="translate(34.686 14.607)"/>
                <path id="Path_140" d="M192.77 173.984H179.5a5.14 5.14 0 0 0 .42-1.008 9.766 9.766 0 0 0 .336-1.512 20.594 20.594 0 0 0 .168-2.268v-18.309a10.32 10.32 0 0 0-.168-2.268 9.766 9.766 0 0 0-.336-1.512 5.14 5.14 0 0 0-.42-1.008h12.934l-.336 3.863h-.924a6.294 6.294 0 0 0-.42-1.344 2.174 2.174 0 0 0-.588-.924 2.945 2.945 0 0 0-1.176-.5 16.363 16.363 0 0 0-2.1-.168h-2.436v8.567a9.493 9.493 0 0 0 2.184 0c.672-.084 1.26-.084 1.68-.168.5-.084 1.008-.168 1.428-.252v.5a4.915 4.915 0 0 1-.168 1.092.986.986 0 0 1-.84.756 3.615 3.615 0 0 1-1.344 0l-2.94-.84V171.3a1.065 1.065 0 0 0 .084.5 1.354 1.354 0 0 0 .336.588 1.624 1.624 0 0 0 .756.42 3.265 3.265 0 0 0 1.26.168h1.344a2.76 2.76 0 0 0 1.428-.336 3.223 3.223 0 0 0 .924-.924 3.959 3.959 0 0 0 .5-1.26c.084-.5.252-.924.336-1.428h.924z" class="cls-1" data-name="Path 140" transform="translate(31.259 14.607)"/>
                <path id="Rectangle_26" d="M0 0h50.981v1.68H0z" class="cls-1" data-name="Rectangle 26" transform="translate(174.644 152.476)"/>
            </g>
            <path id="Rectangle_27" d="M0 0h50.981v1.68H0z" class="cls-1" data-name="Rectangle 27" transform="translate(174.644 193.966)"/>
        </g>
    </g>
</svg>
