<svg xmlns="http://www.w3.org/2000/svg" width="524.789" height="95.488" viewBox="0 0 524.789 95.488">
    <defs>
        <style>
            .cls-1{fill:#231f20}
        </style>
    </defs>
    <g id="song-title" transform="translate(-1945.819 1117.238)">
        <g id="Group_241" data-name="Group 241">
            <g id="Group_240" data-name="Group 240">
                <g id="Group_239" data-name="Group 239">
                    <g id="Group_238" data-name="Group 238">
                        <path id="Path_1374" d="M1987.049-1038.94a48.623 48.623 0 0 0 3 8.234 11.093 11.093 0 0 0 4.208 4.507 10.261 10.261 0 0 1-4.027 1.444 25.776 25.776 0 0 1-3.667.36 13.666 13.666 0 0 1-7.512-2.585q-3.186-2.343-4.387-7.392l-7.332-35.82a10.6 10.6 0 0 1-6.131-2.284v32.334a57.1 57.1 0 0 0 .36 7.032 22.2 22.2 0 0 0 .962 4.508 8.113 8.113 0 0 0 1.323 3.125h-18.031a11.805 11.805 0 0 0 1.323-3.125 37.176 37.176 0 0 0 .9-4.508 49.17 49.17 0 0 0 .42-7.032v-56.014a49.23 49.23 0 0 0-.42-7.032 37.317 37.317 0 0 0-.9-4.507 11.831 11.831 0 0 0-1.323-3.126h21.276a32.7 32.7 0 0 1 8.715 1.082 17.891 17.891 0 0 1 6.731 3.426 15.556 15.556 0 0 1 4.387 6.07 23.664 23.664 0 0 1 1.562 9.136q0 8.535-4.207 13.943a18.355 18.355 0 0 1-11.9 6.732 18.985 18.985 0 0 1 2.885 1.682 17.677 17.677 0 0 1 3.065 2.765 20.96 20.96 0 0 1 2.765 4.027 21.909 21.909 0 0 1 1.983 5.469zm-24.522-36.9a4.1 4.1 0 0 0 1.864 1.862 6.512 6.512 0 0 0 3.425.9 5.626 5.626 0 0 0 3.967-1.442 9.826 9.826 0 0 0 2.464-3.847 22.009 22.009 0 0 0 1.2-5.71q.3-3.3.3-6.911a26.116 26.116 0 0 0-1.022-7.873 14.984 14.984 0 0 0-2.705-5.169 10.3 10.3 0 0 0-3.787-2.885 10.469 10.469 0 0 0-4.146-.9h-2.887v21.4a5.828 5.828 0 0 1 2.164-1.323 6.09 6.09 0 0 1 2.645-.36 5.536 5.536 0 0 1 2.4.781 4.305 4.305 0 0 1 1.683 2.1 6.337 6.337 0 0 0-3.666.36 6.835 6.835 0 0 0-2.825 2.1 7.469 7.469 0 0 0-1.443 3.185 6.72 6.72 0 0 0 .369 3.731z" class="cls-1" data-name="Path 1374"/>
                        <path id="Path_1375" d="M2025.632-1025.477a13.316 13.316 0 0 0 1.082-2.765 23.008 23.008 0 0 0 .541-3.546 18.6 18.6 0 0 0-.421-5.108l-5.649-29.329h-12.5l-7.934 34.377a11.616 11.616 0 0 0-.24 2.284v2.044a16.311 16.311 0 0 0 .12 2.043h-6.491a10.991 10.991 0 0 0 1.082-1.923 17.508 17.508 0 0 0 .9-2.224q.418-1.261.9-2.825l16.709-72.361a40.413 40.413 0 0 0-1.562-4.568l-.722-1.443h13.823l7.454 38.225 7.451 38.224a20.962 20.962 0 0 0 .963 3.666 27.677 27.677 0 0 0 1.2 2.825 17.061 17.061 0 0 0 1.322 2.4zm-5.169-44.595l-5.048-25.844-5.89 25.844z" class="cls-1" data-name="Path 1375"/>
                        <path id="Path_1376" d="M2063.494-1040.142a57.073 57.073 0 0 0 .361 7.032 22.206 22.206 0 0 0 .961 4.508 8.143 8.143 0 0 0 1.323 3.125h-18.03a11.8 11.8 0 0 0 1.323-3.125 37.391 37.391 0 0 0 .9-4.508 49 49 0 0 0 .422-7.032v-56.014a49.054 49.054 0 0 0-.422-7.032 37.534 37.534 0 0 0-.9-4.507 11.823 11.823 0 0 0-1.323-3.126h18.03a8.157 8.157 0 0 0-1.323 3.126 22.256 22.256 0 0 0-.961 4.507 57.142 57.142 0 0 0-.361 7.032v56.014z" class="cls-1" data-name="Path 1376"/>
                        <path id="Path_1377" d="M2118.186-1110.821a13.361 13.361 0 0 0-1.082 2.164 10.058 10.058 0 0 0-.782 2.284 13 13 0 0 0-.3 2.885v78.011h-3.846L2079-1095.916v63.107a12.976 12.976 0 0 0 .3 2.885 17.585 17.585 0 0 0 .661 2.283 13.334 13.334 0 0 0 1.082 2.164h-8.054a13.574 13.574 0 0 0 1.081-2.164 23.4 23.4 0 0 0 .722-2.344 12.091 12.091 0 0 0 .36-3.064v-64.551a47.485 47.485 0 0 0-.541-6.311 33.717 33.717 0 0 0-.9-4.027 8.181 8.181 0 0 0-1.2-2.764h13.222l26.445 55.533v-48.081a12.119 12.119 0 0 0-.361-3.065 24.487 24.487 0 0 0-.72-2.344q-.484-1.2-.963-2.164z" class="cls-1" data-name="Path 1377"/>
                        <path id="Path_1378" d="M2140.422-1040.142a56.886 56.886 0 0 0 .361 7.032 22.073 22.073 0 0 0 .961 4.508 8.113 8.113 0 0 0 1.322 3.125h-18.03a11.7 11.7 0 0 0 1.322-3.125 36.957 36.957 0 0 0 .9-4.508 49.155 49.155 0 0 0 .421-7.032v-56.014a49.215 49.215 0 0 0-.421-7.032 37.1 37.1 0 0 0-.9-4.507 11.729 11.729 0 0 0-1.322-3.126h18.03a8.127 8.127 0 0 0-1.322 3.126 22.123 22.123 0 0 0-.961 4.507 56.955 56.955 0 0 0-.361 7.032v56.014z" class="cls-1" data-name="Path 1378"/>
                        <path id="Path_1379" d="M2189.824-1025.477H2149.2a11.813 11.813 0 0 0 1.323-3.125 37.39 37.39 0 0 0 .9-4.508 49.168 49.168 0 0 0 .42-7.032v-56.014a49.228 49.228 0 0 0-.42-7.032 37.534 37.534 0 0 0-.9-4.507 11.839 11.839 0 0 0-1.323-3.126h39.427l-1.082 11.9h-2.765q-.6-2.4-1.2-4.087a6.682 6.682 0 0 0-1.8-2.765 7.437 7.437 0 0 0-3.486-1.562 32.678 32.678 0 0 0-6.371-.481h-7.332v26.083a44.887 44.887 0 0 0 6.61 0q3-.238 5.169-.48a44.588 44.588 0 0 0 4.448-.842 9.678 9.678 0 0 1 .12 1.563 12.427 12.427 0 0 1-.6 3.366 3.519 3.519 0 0 1-2.644 2.343 7.453 7.453 0 0 1-4.087-.059l-9.015-2.525v44.729a4.919 4.919 0 0 0 .3 1.5 4.744 4.744 0 0 0 1.082 1.739 5.713 5.713 0 0 0 2.224 1.379 10.789 10.789 0 0 0 3.726.539h4.207a8.5 8.5 0 0 0 4.447-1.021 7.783 7.783 0 0 0 2.7-2.765 14.931 14.931 0 0 0 1.563-3.847q.54-2.1 1.142-4.267h2.764z" class="cls-1" data-name="Path 1379"/>
                        <path id="Path_1380" d="M2222.275-1097.238a16.892 16.892 0 0 0 2.405 8.835 47.628 47.628 0 0 0 5.949 7.873q3.545 3.849 7.693 7.573a88.95 88.95 0 0 1 7.694 7.813 43.47 43.47 0 0 1 5.949 8.835 22.964 22.964 0 0 1 2.4 10.517q0 11.3-5.59 17.67t-16.767 6.372a28.766 28.766 0 0 1-8.114-1.143 20.439 20.439 0 0 1-6.912-3.485 17.672 17.672 0 0 1-4.808-5.77 16.933 16.933 0 0 1-1.8-7.994 17.245 17.245 0 0 1 1.383-7.151 16.173 16.173 0 0 1 3.426-5.049 14.278 14.278 0 0 1 4.507-3.005 11.893 11.893 0 0 1 4.508-1.022q6.489 0 9.375 2.7a8.277 8.277 0 0 1 2.885 6.191 11.359 11.359 0 0 0-4.508-.541 13.31 13.31 0 0 0-4.387 1.082 11.756 11.756 0 0 0-3.606 2.464 10.919 10.919 0 0 0-2.4 3.606 11.111 11.111 0 0 0-.782 5.469 12.2 12.2 0 0 0 1.682 5.109 11.032 11.032 0 0 0 3.727 3.726 10.214 10.214 0 0 0 5.468 1.442 13.743 13.743 0 0 0 5.83-1.141 12.445 12.445 0 0 0 4.088-2.946 11 11 0 0 0 2.344-4.087 14.707 14.707 0 0 0 .721-4.447 21.006 21.006 0 0 0-2.4-10.037 43.464 43.464 0 0 0-6.01-8.534 104.967 104.967 0 0 0-7.873-7.873 92.244 92.244 0 0 1-7.873-7.993 44.051 44.051 0 0 1-6.01-8.835 22.553 22.553 0 0 1-2.4-10.458 22.665 22.665 0 0 1 1.622-8.655 20.151 20.151 0 0 1 4.567-6.851 20.863 20.863 0 0 1 7.092-4.508 24.712 24.712 0 0 1 9.076-1.622 21.082 21.082 0 0 1 9.074 1.743 18.746 18.746 0 0 1 5.951 4.267 16.048 16.048 0 0 1 3.305 5.409 15.993 15.993 0 0 1 1.022 5.289 16.233 16.233 0 0 1-1.262 6.671 14.162 14.162 0 0 1-3.186 4.628 13.673 13.673 0 0 1-4.086 2.7 10.655 10.655 0 0 1-4.088.9 14.489 14.489 0 0 1-4.386-.661 14.456 14.456 0 0 1-3.727-1.743 9.159 9.159 0 0 1-2.584-2.524 5.515 5.515 0 0 1-.962-3.125 10.024 10.024 0 0 0 4.207.541 12.151 12.151 0 0 0 4.027-1.023 11.9 11.9 0 0 0 3.366-2.283 9 9 0 0 0 2.224-3.366 9.122 9.122 0 0 0 .661-4.027 12.318 12.318 0 0 0-1.081-4.748 10.651 10.651 0 0 0-3.126-3.967 8.9 8.9 0 0 0-5.71-1.682 10.675 10.675 0 0 0-5.048 1.141 12.039 12.039 0 0 0-3.667 2.946 12.749 12.749 0 0 0-2.283 4.087 14.363 14.363 0 0 0-.792 4.697z" class="cls-1" data-name="Path 1380"/>
                        <path id="Path_1381" d="M2285.26-1097.238a16.9 16.9 0 0 0 2.4 8.835 47.69 47.69 0 0 0 5.95 7.873q3.546 3.849 7.694 7.573a88.857 88.857 0 0 1 7.692 7.813 43.424 43.424 0 0 1 5.95 8.835 22.962 22.962 0 0 1 2.405 10.517q0 11.3-5.59 17.67T2295-1021.75a28.758 28.758 0 0 1-8.114-1.143 20.436 20.436 0 0 1-6.911-3.485 17.662 17.662 0 0 1-4.809-5.77 16.93 16.93 0 0 1-1.8-7.994 17.233 17.233 0 0 1 1.383-7.151 16.177 16.177 0 0 1 3.426-5.049 14.279 14.279 0 0 1 4.507-3.005 11.888 11.888 0 0 1 4.508-1.022q6.49 0 9.376 2.7a8.284 8.284 0 0 1 2.884 6.191 11.359 11.359 0 0 0-4.507-.541 13.308 13.308 0 0 0-4.388 1.082 11.773 11.773 0 0 0-3.607 2.464 10.96 10.96 0 0 0-2.4 3.606 11.1 11.1 0 0 0-.781 5.469 12.2 12.2 0 0 0 1.682 5.109 11.033 11.033 0 0 0 3.727 3.726 10.22 10.22 0 0 0 5.469 1.442 13.756 13.756 0 0 0 5.83-1.141 12.463 12.463 0 0 0 4.087-2.946 11.01 11.01 0 0 0 2.344-4.087 14.707 14.707 0 0 0 .721-4.447 21.017 21.017 0 0 0-2.4-10.037 43.505 43.505 0 0 0-6.01-8.534 104.734 104.734 0 0 0-7.873-7.873 92.222 92.222 0 0 1-7.874-7.993 44.2 44.2 0 0 1-6.01-8.835 22.565 22.565 0 0 1-2.4-10.458 22.661 22.661 0 0 1 1.622-8.655 20.156 20.156 0 0 1 4.568-6.851 20.868 20.868 0 0 1 7.092-4.508 24.712 24.712 0 0 1 9.075-1.622 21.089 21.089 0 0 1 9.076 1.743 18.766 18.766 0 0 1 5.95 4.267 16.043 16.043 0 0 1 3.3 5.409 15.993 15.993 0 0 1 1.022 5.289 16.229 16.229 0 0 1-1.262 6.671 14.175 14.175 0 0 1-3.185 4.628 13.7 13.7 0 0 1-4.087 2.7 10.655 10.655 0 0 1-4.087.9 14.492 14.492 0 0 1-4.387-.661 14.452 14.452 0 0 1-3.726-1.743 9.131 9.131 0 0 1-2.584-2.524 5.509 5.509 0 0 1-.963-3.125 10.022 10.022 0 0 0 4.207.541 12.159 12.159 0 0 0 4.027-1.023 11.88 11.88 0 0 0 3.365-2.283 8.987 8.987 0 0 0 2.225-3.366 9.122 9.122 0 0 0 .66-4.027 12.3 12.3 0 0 0-1.081-4.748 10.642 10.642 0 0 0-3.126-3.967 8.892 8.892 0 0 0-5.709-1.682 10.683 10.683 0 0 0-5.049 1.141 12.038 12.038 0 0 0-3.666 2.946 12.753 12.753 0 0 0-2.283 4.087 14.362 14.362 0 0 0-.794 4.697z" class="cls-1" data-name="Path 1381"/>
                        <path id="Path_1382" d="M2345.84-1111.9a22.466 22.466 0 0 1 8.174 1.443 20.334 20.334 0 0 1 6.43 3.906 16.87 16.87 0 0 1 4.148 5.769 17.411 17.411 0 0 1 1.441 7.033v51.206a16.522 16.522 0 0 1-1.562 7.151 17.629 17.629 0 0 1-4.268 5.71 20.966 20.966 0 0 1-6.43 3.847 22.134 22.134 0 0 1-8.054 1.442 22.956 22.956 0 0 1-8.234-1.442 21.569 21.569 0 0 1-6.55-3.847 17.226 17.226 0 0 1-4.328-5.71 16.494 16.494 0 0 1-1.562-7.151v-51.206a15.756 15.756 0 0 1 1.623-7.033 18.254 18.254 0 0 1 4.447-5.769 21.641 21.641 0 0 1 6.612-3.906 22.581 22.581 0 0 1 8.113-1.443zm7.452 17.789a7.059 7.059 0 0 1-4.087 1.444 11.451 11.451 0 0 1-4.146-1.023 3.514 3.514 0 0 1-2.1-3.306 7.2 7.2 0 0 0 3.846.6 6.623 6.623 0 0 0 3.306-1.313 6.279 6.279 0 0 0 2.043-2.857 6.83 6.83 0 0 0 .18-3.929v-.236a9.5 9.5 0 0 0-2.283-2.915 6.251 6.251 0 0 0-4.207-1.251 7.151 7.151 0 0 0-3.906.96 8.262 8.262 0 0 0-2.465 2.4 8.962 8.962 0 0 0-1.323 3.122 14.991 14.991 0 0 0-.36 3.12v62.535a14.5 14.5 0 0 0 .36 3 9.684 9.684 0 0 0 1.262 3.121 8.254 8.254 0 0 0 2.405 2.46 6.818 6.818 0 0 0 3.906 1.02 6.892 6.892 0 0 0 3.787-.962 7.07 7.07 0 0 0 2.344-2.4 9.491 9.491 0 0 0 1.142-3.125 17.967 17.967 0 0 0 .3-3.125z" class="cls-1" data-name="Path 1382"/>
                        <path id="Path_1383" d="M2420.125-1110.821a13.441 13.441 0 0 0-1.082 2.164 10.107 10.107 0 0 0-.781 2.284 13 13 0 0 0-.3 2.885v78.011h-3.847l-33.176-70.439v63.107a12.976 12.976 0 0 0 .3 2.885 17.585 17.585 0 0 0 .661 2.283 13.413 13.413 0 0 0 1.082 2.164h-8.053a13.74 13.74 0 0 0 1.081-2.164 23.685 23.685 0 0 0 .721-2.344 12.045 12.045 0 0 0 .361-3.064v-64.551a47.651 47.651 0 0 0-.541-6.311 33.5 33.5 0 0 0-.9-4.027 8.162 8.162 0 0 0-1.2-2.764h13.223l26.444 55.533v-48.081a12.165 12.165 0 0 0-.36-3.065 24.463 24.463 0 0 0-.721-2.344q-.483-1.2-.963-2.164z" class="cls-1" data-name="Path 1383"/>
                        <path id="Path_1384" d="M2469.887-1025.477a15.88 15.88 0 0 1-5.53-.661 11.587 11.587 0 0 1-2.763-1.623 23.053 23.053 0 0 1-5.53 2.465 22.531 22.531 0 0 1-6.491.9 23.3 23.3 0 0 1-8.354-1.442 20.161 20.161 0 0 1-6.49-3.908 18.274 18.274 0 0 1-4.268-5.769 16.227 16.227 0 0 1-1.563-7.031v-51.206a18.459 18.459 0 0 1 1.383-7.092 15.5 15.5 0 0 1 4.086-5.771 20.216 20.216 0 0 1 6.791-3.845 28.5 28.5 0 0 1 9.5-1.443 24.473 24.473 0 0 1 9.917 1.742 17.154 17.154 0 0 1 6.13 4.328 14.64 14.64 0 0 1 3.067 5.53 19.756 19.756 0 0 1 .84 5.348 15.749 15.749 0 0 1-1.2 6.431 13.972 13.972 0 0 1-3.005 4.447 11.856 11.856 0 0 1-3.966 2.585 11.28 11.28 0 0 1-4.087.841q-5.531 0-8.715-2.644t-3.186-5.77a9.76 9.76 0 0 0 4.028.6 12 12 0 0 0 3.966-.9 10.724 10.724 0 0 0 3.305-2.152 8.927 8.927 0 0 0 2.164-3.166 12.085 12.085 0 0 0 .661-4 11.256 11.256 0 0 0-.9-4.718 9.576 9.576 0 0 0-3.065-3.884 9.172 9.172 0 0 0-5.709-1.613 9.3 9.3 0 0 0-4.508.96 8.726 8.726 0 0 0-2.825 2.4 8.61 8.61 0 0 0-1.5 3.116 12.407 12.407 0 0 0-.421 3v62.441a14.464 14.464 0 0 0 .36 3 9.636 9.636 0 0 0 1.262 3.116 8.278 8.278 0 0 0 2.4 2.457 6.832 6.832 0 0 0 3.907 1.018 6.92 6.92 0 0 0 3.786-.958 7.048 7.048 0 0 0 2.344-2.4 9.4 9.4 0 0 0 1.143-3.117 17.888 17.888 0 0 0 .3-3.117v-19.3q-.123-4.189-.481-7.01a31.813 31.813 0 0 0-.841-4.5 8.16 8.16 0 0 0-1.322-3.117h15.385z" class="cls-1" data-name="Path 1384"/>
                    </g>
                </g>
            </g>
        </g>
        <path id="Path_1385" d="M2207-1110.147q0 5.508-4.376 8a10.744 10.744 0 0 1-5.055 1.735c-.554 0-.83-.2-.83-.6 0-.352.3-.6.906-.754a11.29 11.29 0 0 0 4.828-2.339 5.31 5.31 0 0 0 1.359-3.924 6.007 6.007 0 0 0-.982-3.47q0 2.567-3.244 2.565a3.73 3.73 0 0 1-2.753-1.093 3.641 3.641 0 0 1-1.094-2.679 4.249 4.249 0 0 1 1.4-3.206 4.808 4.808 0 0 1 3.433-1.32 5.937 5.937 0 0 1 4.6 2 7.3 7.3 0 0 1 1.808 5.085z" class="cls-1" data-name="Path 1385"/>
    </g>
</svg>
