<svg xmlns="http://www.w3.org/2000/svg" id="waitingwife-title" width="313.466" height="202.522" viewBox="0 0 313.466 202.522">
    <defs>
        <style>
            .cls-1{fill:#fff}
        </style>
    </defs>
    <path id="Path_108" d="M437.461 283.765q-.38.791-.791 1.709a8.556 8.556 0 0 0-.617 2.287l-11.8 58.216a10.564 10.564 0 0 0 .475 1.8c.2.514.348.926.483 1.243a7.122 7.122 0 0 0 .475.855h-14.247q.19-.38.475-.855a18.2 18.2 0 0 0 .855-2.857c-.317-1.646-.7-3.728-1.14-6.228s-.926-5.263-1.432-8.278-1.06-6.133-1.662-9.37-1.187-6.434-1.757-9.608l-6.759 33.295a10.563 10.563 0 0 0 .475 1.8c.19.514.348.926.475 1.243a6.963 6.963 0 0 0 .483.855h-14.246c.127-.253.293-.538.483-.855a18.2 18.2 0 0 0 .855-2.857q-.57-3.229-1.583-8.753t-2.089-11.871q-1.092-6.331-2.287-12.75t-2.089-11.65q-.9-5.239-2.137-11.871a39.957 39.957 0 0 0-.791-2.857 18.28 18.28 0 0 0-.9-2.184 20.812 20.812 0 0 0-1.045-2h14.245a7.971 7.971 0 0 0-.95 2.192 15.2 15.2 0 0 0 0 6.846q1.709 9.9 3.427 19.31.665 4 1.424 8.278t1.472 8.373l1.377 7.914c.443 2.533.863 4.788 1.243 6.751l7.51-37.1q-1.14-6.664-1.947-11.032t-.791-4.471a36.149 36.149 0 0 0-.791-2.857 18.2 18.2 0 0 0-.91-2.184 14.02 14.02 0 0 0-1.045-1.907h14.243a10.117 10.117 0 0 0-.95 2.192 13.716 13.716 0 0 0-.38 2.762 15.615 15.615 0 0 0 .38 3.957q1.709 9.9 3.427 19.31.665 4 1.425 8.278t1.417 8.4c.475 2.73.934 5.358 1.385 7.914s.855 4.788 1.235 6.751l11.222-55.177a8.134 8.134 0 0 0 .048-1.52q-.048-.791-.048-1.424a11.553 11.553 0 0 1-.095-1.432h5.136a6.332 6.332 0 0 0-.871 1.417z" class="cls-1" data-name="Path 108" transform="translate(-319.96 -230.416)"/>
    <path id="Path_109" d="M474.239 349.907a10.385 10.385 0 0 0 .855-2.192 18.2 18.2 0 0 0 .427-2.8 14.727 14.727 0 0 0-.332-4.044l-4.471-23.18h-9.893l-6.284 27.209a9.211 9.211 0 0 0-.19 1.8v1.622a13.043 13.043 0 0 0 .095 1.583h-5.136a9.208 9.208 0 0 0 .863-1.52 14.838 14.838 0 0 0 .712-1.765q.332-1 .712-2.232l13.224-57.267a32.36 32.36 0 0 0-1.242-3.617l-.57-1.148h10.945l5.9 30.256 5.9 30.248a16.618 16.618 0 0 0 .791 2.9 22.543 22.543 0 0 0 .95 2.232 13.148 13.148 0 0 0 1.053 1.907zm-4.092-35.3l-4-20.45-4.661 20.45z" class="cls-1" data-name="Path 109" transform="translate(-335.331 -230.443)"/>
    <path id="Path_110" d="M515.474 338.265a45.352 45.352 0 0 0 .285 5.54 17.529 17.529 0 0 0 .791 3.561 6.417 6.417 0 0 0 1.045 2.477H503.35a9.5 9.5 0 0 0 1.053-2.477 30.7 30.7 0 0 0 .712-3.561 38.944 38.944 0 0 0 .332-5.54v-44.319a38.837 38.837 0 0 0-.332-5.54 30.893 30.893 0 0 0-.712-3.569 9.723 9.723 0 0 0-1.053-2.477h14.25a6.53 6.53 0 0 0-1.045 2.477 17.639 17.639 0 0 0-.791 3.569 45.2 45.2 0 0 0-.285 5.54z" class="cls-1" data-name="Path 110" transform="translate(-346.603 -230.443)"/>
    <path id="Path_111" d="M564.721 282.36l-.855 9.426h-2.192a72.478 72.478 0 0 0-.9-3.166 4.955 4.955 0 0 0-1.377-2.192 6.134 6.134 0 0 0-2.667-1.282 20.575 20.575 0 0 0-4.748-.427v53.547a45.328 45.328 0 0 0 .285 5.54 17.473 17.473 0 0 0 .791 3.561 6.417 6.417 0 0 0 1.045 2.477h-14.248a10.64 10.64 0 0 0 1.045-2.477 29.144 29.144 0 0 0 .712-3.561 38.945 38.945 0 0 0 .332-5.54v-53.524a20.674 20.674 0 0 0-4.748.427 6.141 6.141 0 0 0-2.659 1.282 4.9 4.9 0 0 0-1.385 2.192 53.157 53.157 0 0 0-.9 3.166h-2.184l-.855-9.426z" class="cls-1" data-name="Path 111" transform="translate(-351.997 -230.443)"/>
    <path id="Path_112" d="M593 338.265a45.34 45.34 0 0 0 .285 5.54 17.533 17.533 0 0 0 .792 3.561 6.416 6.416 0 0 0 1.045 2.477H580.88a9.24 9.24 0 0 0 1.045-2.477 29.122 29.122 0 0 0 .712-3.561 38.769 38.769 0 0 0 .34-5.54v-44.319a38.671 38.671 0 0 0-.34-5.54 29.284 29.284 0 0 0-.712-3.569 9.5 9.5 0 0 0-1.045-2.477h14.245a6.529 6.529 0 0 0-1.045 2.477 17.631 17.631 0 0 0-.791 3.569 45.206 45.206 0 0 0-.285 5.54z" class="cls-1" data-name="Path 112" transform="translate(-362.775 -230.443)"/>
    <path id="Path_113" d="M641.372 282.36a11.217 11.217 0 0 0-.863 1.717 8.012 8.012 0 0 0-.617 1.8 10.413 10.413 0 0 0-.237 2.287V349.9h-3.039l-26.259-55.74v49.946a10.285 10.285 0 0 0 .237 2.279 14.093 14.093 0 0 0 .522 1.8 10.532 10.532 0 0 0 .855 1.717h-6.331a10.527 10.527 0 0 0 .855-1.717 19.1 19.1 0 0 0 .57-1.852 9.592 9.592 0 0 0 .285-2.422V292.83a37.584 37.584 0 0 0-.427-4.994 26.25 26.25 0 0 0-.712-3.166 6.435 6.435 0 0 0-.95-2.184h10.462l20.893 43.908v-38.035a9.656 9.656 0 0 0-.285-2.43 19.075 19.075 0 0 0-.57-1.852 18.588 18.588 0 0 0-.791-1.717z" class="cls-1" data-name="Path 113" transform="translate(-367.861 -230.443)"/>
    <path id="Path_114" d="M692.1 349.679a12.6 12.6 0 0 1-4.376-.522 8.992 8.992 0 0 1-2.184-1.29 18.086 18.086 0 0 1-4.377 1.955 17.866 17.866 0 0 1-5.136.712 18.487 18.487 0 0 1-6.616-1.14 16 16 0 0 1-5.136-3.094 14.453 14.453 0 0 1-3.379-4.566 12.877 12.877 0 0 1-1.235-5.54v-40.553a14.674 14.674 0 0 1 1.092-5.611 12.355 12.355 0 0 1 3.237-4.566 16.009 16.009 0 0 1 5.374-3.039 22.413 22.413 0 0 1 7.518-1.148 19.343 19.343 0 0 1 7.843 1.385 13.5 13.5 0 0 1 4.851 3.419 11.538 11.538 0 0 1 2.43 4.376 15.617 15.617 0 0 1 .665 4.234 12.451 12.451 0 0 1-.95 5.089 10.9 10.9 0 0 1-2.374 3.522 9.385 9.385 0 0 1-3.166 2.042 8.815 8.815 0 0 1-3.237.673 10.468 10.468 0 0 1-6.893-2.1 5.954 5.954 0 0 1-2.525-4.566 7.722 7.722 0 0 0 3.166.475 9.434 9.434 0 0 0 3.166-.712 8.264 8.264 0 0 0 2.62-1.7 7.052 7.052 0 0 0 1.709-2.5 9.6 9.6 0 0 0 .522-3.166 8.886 8.886 0 0 0-.709-3.728 7.557 7.557 0 0 0-2.422-3.079 8.706 8.706 0 0 0-8.088-.514 6.918 6.918 0 0 0-2.232 1.9 6.654 6.654 0 0 0-1.2 2.461 9.9 9.9 0 0 0-.332 2.374v49.408a11.331 11.331 0 0 0 .285 2.374 7.488 7.488 0 0 0 1.005 2.469 6.536 6.536 0 0 0 1.9 1.947 5.4 5.4 0 0 0 3.094.791 5.453 5.453 0 0 0 2.99-.791 5.682 5.682 0 0 0 1.86-1.9 7.464 7.464 0 0 0 .9-2.469 14.094 14.094 0 0 0 .24-2.461V325.3q-.1-3.324-.38-5.54a25.1 25.1 0 0 0-.665-3.553 6.428 6.428 0 0 0-1.053-2.469h12.18z" class="cls-1" data-name="Path 114" transform="translate(-379.208 -230.215)"/>
    <path id="Path_115" d="M460.79 226.438l-.332 3.672h-.858a22.033 22.033 0 0 0-.348-1.227 2 2 0 0 0-.538-.855 2.375 2.375 0 0 0-1.037-.5 8.145 8.145 0 0 0-1.86-.166v20.885a18.214 18.214 0 0 0 .111 2.168 6.932 6.932 0 0 0 .3 1.393 2.446 2.446 0 0 0 .4.965h-5.54a4.376 4.376 0 0 0 .412-.966 12.258 12.258 0 0 0 .277-1.393 15.028 15.028 0 0 0 .127-2.168v-20.89a8.025 8.025 0 0 0-1.852.166 2.43 2.43 0 0 0-1.045.5 2.073 2.073 0 0 0-.538.855c-.111.348-.23.791-.348 1.227h-.855l-.332-3.672z" class="cls-1" data-name="Path 115" transform="translate(-334.837 -218.777)"/>
    <path id="Path_116" d="M481.073 248.251a18.2 18.2 0 0 0 .111 2.168 6.935 6.935 0 0 0 .3 1.393 2.447 2.447 0 0 0 .4.965h-5.54a3.656 3.656 0 0 0 .411-.965 12.245 12.245 0 0 0 .277-1.393 15.04 15.04 0 0 0 .127-2.168v-11.792h-5.421v11.792a16.612 16.612 0 0 0 .111 2.168 7.006 7.006 0 0 0 .293 1.393 2.565 2.565 0 0 0 .412.965h-5.54a3.956 3.956 0 0 0 .4-.965 10.73 10.73 0 0 0 .277-1.393 14.936 14.936 0 0 0 .087-2.168v-17.284a14.936 14.936 0 0 0-.135-2.168 10.729 10.729 0 0 0-.277-1.393 3.957 3.957 0 0 0-.4-.966h5.54a2.935 2.935 0 0 0-.412 1 7.124 7.124 0 0 0-.293 1.393 16.461 16.461 0 0 0-.111 2.137v4.305h5.413v-4.305a15.028 15.028 0 0 0-.127-2.168 12.259 12.259 0 0 0-.277-1.393 3.658 3.658 0 0 0-.412-.966h5.54a3.879 3.879 0 0 0-.4.981 11.627 11.627 0 0 0-.277 1.393 14.622 14.622 0 0 0-.134 2.153v17.284z" class="cls-1" data-name="Path 116" transform="translate(-339.015 -218.779)"/>
    <path id="Path_117" d="M500.756 252.786H488.22a3.955 3.955 0 0 0 .4-.965 12.245 12.245 0 0 0 .277-1.393 14.931 14.931 0 0 0 .135-2.168v-17.293a14.931 14.931 0 0 0-.135-2.168 12.259 12.259 0 0 0-.277-1.393 3.959 3.959 0 0 0-.4-.966h12.164l-.332 3.672h-.852a11.372 11.372 0 0 0-.372-1.258 2 2 0 0 0-.554-.855 2.271 2.271 0 0 0-1.076-.483 9.694 9.694 0 0 0-1.963-.15h-2.263v8.049a12.541 12.541 0 0 0 2.042 0l1.583-.142q.791-.119 1.377-.261a3.109 3.109 0 0 1 0 .483 4.025 4.025 0 0 1-.182 1.037 1.092 1.092 0 0 1-.791.728 2.3 2.3 0 0 1-1.266 0l-2.778-.791v13.8a1.687 1.687 0 0 0 .087.467 1.5 1.5 0 0 0 .34.538 1.827 1.827 0 0 0 .681.427 3.371 3.371 0 0 0 1.155.166h1.3a2.651 2.651 0 0 0 1.369-.317 2.477 2.477 0 0 0 .839-.855 4.667 4.667 0 0 0 .483-1.187c.111-.435.229-.871.348-1.322h.855z" class="cls-1" data-name="Path 117" transform="translate(-343.447 -218.779)"/>
    <path id="Rectangle_23" d="M0 0h48.07v1.583H0z" class="cls-1" data-name="Rectangle 23" transform="translate(110.782)"/>
    <path id="Rectangle_24" d="M0 0h48.07v1.583H0z" class="cls-1" data-name="Rectangle 24" transform="translate(110.782 39.096)"/>
    <path id="Path_118" d="M367.147 388.677a33.722 33.722 0 0 0-.791 1.717 8.491 8.491 0 0 0-.617 2.279l-11.8 58.216a10.465 10.465 0 0 0 .475 1.812q.285.791.475 1.235a8.447 8.447 0 0 0 .475.855h-14.247c.127-.253.293-.538.483-.855a19.982 19.982 0 0 0 .855-2.849c-.325-1.654-.7-3.728-1.148-6.236s-.918-5.263-1.425-8.278-1.06-6.133-1.662-9.362-1.187-6.442-1.765-9.616L329.7 450.89a10.471 10.471 0 0 0 .475 1.812q.285.792.475 1.235a8.441 8.441 0 0 0 .475.855h-14.241q.19-.38.475-.855a18.765 18.765 0 0 0 .863-2.849l-1.583-8.753q-.997-5.508-2.089-11.871-1.092-6.331-2.287-12.742t-2.089-11.657q-.9-5.231-2.145-11.871a28.858 28.858 0 0 0-.791-2.857 18.991 18.991 0 0 0-.9-2.192 19.77 19.77 0 0 0-1.045-1.994h14.245a7.8 7.8 0 0 0-.95 2.184 15.226 15.226 0 0 0 0 6.854q1.71 9.893 3.419 19.31.665 4 1.432 8.278t1.409 8.365l1.377 7.914c.443 2.54.855 4.788 1.243 6.759l7.51-37.1q-1.14-6.656-1.947-11.04t-.791-4.464a41.906 41.906 0 0 0-.791-2.857 18.994 18.994 0 0 0-.9-2.192 13.457 13.457 0 0 0-1.045-1.9h14.245a9.877 9.877 0 0 0-.95 2.184 13.89 13.89 0 0 0-.38 2.762 15.672 15.672 0 0 0 .38 4q1.709 9.893 3.419 19.31.665 4 1.432 8.278t1.472 8.349l1.377 7.914c.443 2.54.863 4.788 1.243 6.759l11.222-55.177a8.136 8.136 0 0 0 .047-1.52c0-.507-.047-.989-.047-1.432a11.527 11.527 0 0 1-.1-1.425H368a6.063 6.063 0 0 0-.853 1.413z" class="cls-1" data-name="Path 118" transform="translate(-305.29 -252.302)"/>
    <path id="Path_119" d="M401.156 443.267a45.115 45.115 0 0 0 .285 5.54 17.039 17.039 0 0 0 .791 3.569 6.427 6.427 0 0 0 1.045 2.469H389a9.275 9.275 0 0 0 1.045-2.469 29.287 29.287 0 0 0 .712-3.569 38.783 38.783 0 0 0 .332-5.54v-44.319a38.9 38.9 0 0 0-.332-5.54 29.1 29.1 0 0 0-.712-3.561A9.234 9.234 0 0 0 389 387.37h14.245a6.418 6.418 0 0 0-1.045 2.477 16.954 16.954 0 0 0-.791 3.561 45.3 45.3 0 0 0-.285 5.54v44.319z" class="cls-1" data-name="Path 119" transform="translate(-322.751 -252.347)"/>
    <path id="Path_120" d="M444.242 387.274l-.855 9.323H441.2c-.324-1.266-.641-2.374-.958-3.237a4.9 4.9 0 0 0-1.425-2.137 6.181 6.181 0 0 0-2.754-1.187 25.96 25.96 0 0 0-5.049-.38h-5.8v20.577a41.684 41.684 0 0 0 5.231.047 83.673 83.673 0 0 0 4.092-.332 34.817 34.817 0 0 0 3.522-.665 8.766 8.766 0 0 1 .095 1.235 9.677 9.677 0 0 1-.475 2.564 2.77 2.77 0 0 1-2.1 1.86 5.9 5.9 0 0 1-3.229-.047l-7.123-2v30.636a42.74 42.74 0 0 0 .285 5.469 25.268 25.268 0 0 0 .665 3.474 6.372 6.372 0 0 0 1.053 2.374h-14.1a7.691 7.691 0 0 0 .95-2.374 29.819 29.819 0 0 0 .72-3.474 36 36 0 0 0 .332-5.374v-44.845a37.877 37.877 0 0 0-.332-5.54 29.324 29.324 0 0 0-.712-3.514 7.7 7.7 0 0 0-.95-2.477z" class="cls-1" data-name="Path 120" transform="translate(-327.786 -252.322)"/>
    <path id="Path_121" d="M491.325 454.836H459.17a9.5 9.5 0 0 0 1.053-2.469 30.86 30.86 0 0 0 .712-3.569 38.784 38.784 0 0 0 .332-5.54v-44.32a38.9 38.9 0 0 0-.332-5.54 30.691 30.691 0 0 0-.712-3.561 9.5 9.5 0 0 0-1.053-2.477h31.205l-.855 9.418h-2.192a33.122 33.122 0 0 0-.95-3.237 5.255 5.255 0 0 0-1.425-2.184 5.9 5.9 0 0 0-2.762-1.235 25.819 25.819 0 0 0-5.041-.38h-5.8v20.64a35.991 35.991 0 0 0 5.231 0 136.55 136.55 0 0 0 4.092-.38 35.732 35.732 0 0 0 3.522-.665 7.52 7.52 0 0 1 .095 1.235 9.941 9.941 0 0 1-.475 2.667 2.8 2.8 0 0 1-2.1 1.852 5.919 5.919 0 0 1-3.237-.048l-7.123-2v35.4a3.909 3.909 0 0 0 .237 1.187 3.814 3.814 0 0 0 .855 1.377 4.5 4.5 0 0 0 1.765 1.092 8.516 8.516 0 0 0 2.944.427h3.332a6.766 6.766 0 0 0 3.522-.791 6.165 6.165 0 0 0 2.137-2.192 11.771 11.771 0 0 0 1.235-3.039c.285-1.116.586-2.24.91-3.379h2.184z" class="cls-1" data-name="Path 121" transform="translate(-337.388 -252.345)"/>
</svg>
