<svg xmlns="http://www.w3.org/2000/svg" id="m-follow" width="251.177" height="158.315" viewBox="0 0 251.177 158.315">
    <defs>
        <style>
            .cls-1,.cls-2{fill:#fff}.cls-2{font-size:10px;font-family:AveriaSerifLibre-Regular,Averia Serif Libre;opacity:.521}
        </style>
    </defs>
    <g id="follow-title" transform="translate(0 15.402)">
        <g id="Group_166" data-name="Group 166">
            <g id="Group_163" data-name="Group 163">
                <path id="Path_1272" d="M316.473 324.923q.262 1.858.527 3.714l-.911.224a13.3 13.3 0 0 0-.707-1.16 1.959 1.959 0 0 0-.8-.684 2.762 2.762 0 0 0-1.268-.174 11.732 11.732 0 0 0-2.145.387q-1.212.311-2.423.628l2.084 7.961a19.372 19.372 0 0 0 2.152-.538q.962-.306 1.647-.557.793-.319 1.382-.622a3.4 3.4 0 0 1 .159.471 3.72 3.72 0 0 1 .054 1.047 1.158 1.158 0 0 1-.677.935 2.621 2.621 0 0 1-1.328.317q-1.558-.016-3.119-.02l3.107 11.868a16.788 16.788 0 0 0 .668 2.089 9.938 9.938 0 0 0 .615 1.277 2.537 2.537 0 0 0 .653.814q-2.778.722-5.548 1.48a3.06 3.06 0 0 0 .124-1.021 11.818 11.818 0 0 0-.083-1.418 14.111 14.111 0 0 0-.432-2.113q-2.352-8.658-4.7-17.317a14.06 14.06 0 0 0-.718-2.1 11.158 11.158 0 0 0-.667-1.279 2.96 2.96 0 0 0-.657-.847q6.484-1.773 13.011-3.362z" class="cls-1" data-name="Path 1272" transform="translate(-303.456 -311.652)"/>
                <path id="Path_1273" d="M349.694 318.456a8.065 8.065 0 0 1 2.824-.15 6.947 6.947 0 0 1 2.4.754 5.316 5.316 0 0 1 1.753 1.5 5.19 5.19 0 0 1 .93 2.083l3.286 15.894a5.155 5.155 0 0 1-.037 2.323 5.67 5.67 0 0 1-.979 2.054 6.881 6.881 0 0 1-1.773 1.625 7.332 7.332 0 0 1-2.434 1 7.619 7.619 0 0 1-2.687.136 7.093 7.093 0 0 1-2.333-.713 5.537 5.537 0 0 1-1.778-1.442 5.141 5.141 0 0 1-1.017-2.089l-3.751-15.79a4.71 4.71 0 0 1 .021-2.3 5.8 5.8 0 0 1 1.054-2.126 7.429 7.429 0 0 1 1.919-1.713 8.112 8.112 0 0 1 2.602-1.046zm3.678 4.966a2.494 2.494 0 0 1-1.249.74 4.1 4.1 0 0 1-1.436-.014 1.116 1.116 0 0 1-.922-.868 2.591 2.591 0 0 0 1.311-.1 2.328 2.328 0 0 0 1-.646 2.013 2.013 0 0 0 .483-1.032 2.036 2.036 0 0 0-.2-1.23l-.016-.073a3.034 3.034 0 0 0-.956-.737 2.228 2.228 0 0 0-1.485-.079 2.568 2.568 0 0 0-1.233.587 2.727 2.727 0 0 0-.87 1.991 4.389 4.389 0 0 0 .1.991l4.405 19.325a4.471 4.471 0 0 0 .325.9 3.032 3.032 0 0 0 .617.874 2.652 2.652 0 0 0 .929.59 2.241 2.241 0 0 0 1.3.041 2.18 2.18 0 0 0 1.7-1.466 2.992 2.992 0 0 0 .151-1.046 5.616 5.616 0 0 0-.115-.989z" class="cls-1" data-name="Path 1273" transform="translate(-327.275 -307.725)"/>
                <path id="Path_1274" d="M399.189 337.187q-6.431 1.1-12.838 2.382a3.735 3.735 0 0 0 .223-1.055 11.744 11.744 0 0 0 .006-1.458 15.232 15.232 0 0 0-.3-2.213l-3.459-17.414a14.486 14.486 0 0 0-.574-2.158 11.019 11.019 0 0 0-.579-1.341 3.593 3.593 0 0 0-.636-.883q3.014-.605 6.034-1.17a2.469 2.469 0 0 0-.26 1.056 6.543 6.543 0 0 0-.056 1.464 16.832 16.832 0 0 0 .294 2.213l3.683 19.466a1.546 1.546 0 0 0 .184.45 1.515 1.515 0 0 0 .445.478 1.856 1.856 0 0 0 .785.3 3.55 3.55 0 0 0 1.211-.05l1.333-.243a2.789 2.789 0 0 0 1.353-.571 2.552 2.552 0 0 0 .71-1 4.895 4.895 0 0 0 .31-1.272q.077-.69.152-1.4l.885-.152q.548 2.284 1.094 4.571z" class="cls-1" data-name="Path 1274" transform="translate(-349.067 -303.982)"/>
                <path id="Path_1275" d="M436.1 331.146q-6.457.882-12.892 1.952a3.718 3.718 0 0 0 .257-1.047 11.75 11.75 0 0 0 .054-1.457 15.254 15.254 0 0 0-.227-2.221l-2.879-17.519a14.535 14.535 0 0 0-.5-2.176 11.1 11.1 0 0 0-.534-1.36 3.591 3.591 0 0 0-.606-.9q3.028-.5 6.061-.968a2.478 2.478 0 0 0-.294 1.047 6.592 6.592 0 0 0-.1 1.462 16.926 16.926 0 0 0 .221 2.221l3.035 19.577a1.533 1.533 0 0 0 .169.456 1.515 1.515 0 0 0 .429.493 1.852 1.852 0 0 0 .774.325 3.554 3.554 0 0 0 1.211-.009l1.338-.2a2.78 2.78 0 0 0 1.37-.526 2.546 2.546 0 0 0 .741-.971 4.9 4.9 0 0 0 .351-1.262q.1-.686.2-1.393l.888-.123q.459 2.299.933 4.599z" class="cls-1" data-name="Path 1275" transform="translate(-371.255 -300.201)"/>
                <path id="Path_1276" d="M466.056 298.926a8 8 0 0 1 2.812.142 6.9 6.9 0 0 1 2.3 1 5.315 5.315 0 0 1 1.584 1.674 5.22 5.22 0 0 1 .709 2.168l1.637 16.147a5.176 5.176 0 0 1-.273 2.307 5.666 5.666 0 0 1-1.18 1.942 6.839 6.839 0 0 1-1.922 1.433 7.261 7.261 0 0 1-2.513.745 7.552 7.552 0 0 1-2.674-.142 7.061 7.061 0 0 1-2.239-.95 5.531 5.531 0 0 1-1.613-1.617 5.165 5.165 0 0 1-.8-2.183l-2.109-16.092a4.732 4.732 0 0 1 .254-2.281 5.8 5.8 0 0 1 1.26-2.005 7.384 7.384 0 0 1 2.074-1.505 8.057 8.057 0 0 1 2.693-.783zm3.138 5.319a2.474 2.474 0 0 1-1.313.607 4.067 4.067 0 0 1-1.421-.162 1.117 1.117 0 0 1-.825-.958 2.573 2.573 0 0 0 1.309.039 2.317 2.317 0 0 0 1.059-.539 2.01 2.01 0 0 0 .584-.977 2.041 2.041 0 0 0-.077-1.245l-.008-.075a3.043 3.043 0 0 0-.872-.832 2.214 2.214 0 0 0-1.464-.232 2.554 2.554 0 0 0-1.281.457 2.711 2.711 0 0 0-.739.855 2.74 2.74 0 0 0-.325 1.036 4.443 4.443 0 0 0 0 1l2.4 19.675a4.53 4.53 0 0 0 .23.93 3.042 3.042 0 0 0 .523.933 2.638 2.638 0 0 0 .86.682 2.222 2.222 0 0 0 1.283.175 2.167 2.167 0 0 0 1.836-1.283 2.989 2.989 0 0 0 .256-1.025 5.657 5.657 0 0 0-.013-1q-1.003-9.03-2.002-18.061z" class="cls-1" data-name="Path 1276" transform="translate(-395.346 -296.33)"/>
                <path id="Path_1277" d="M524.952 293.595q-.152.312-.319.7a3.224 3.224 0 0 0-.227.924q-2.042 11.751-3.835 23.517a4.222 4.222 0 0 0 .23.713c.087.2.159.361.218.485a3.289 3.289 0 0 0 .209.333q-2.883.145-5.763.326.067-.156.171-.354a7.362 7.362 0 0 0 .275-1.162q-.254-.977-.619-2.462t-.793-3.271q-.429-1.786-.929-3.7t-.986-3.791q-.962 6.747-1.842 13.5a4.174 4.174 0 0 0 .245.708c.092.2.167.357.228.48a3.348 3.348 0 0 0 .216.328q-2.88.208-5.757.452c.042-.105.1-.225.163-.358a7.305 7.305 0 0 0 .25-1.168q-.339-1.271-.933-3.439t-1.264-4.656q-.671-2.484-1.393-5t-1.295-4.569q-.571-2.051-1.342-4.659a11.145 11.145 0 0 0-.45-1.106 7.036 7.036 0 0 0-.468-.836 7.675 7.675 0 0 0-.522-.754q3.049-.292 6.1-.543a3.005 3.005 0 0 0-.334.907 5.813 5.813 0 0 0-.067 1.152 5.886 5.886 0 0 0 .295 1.581q1.056 3.889 2.073 7.59.406 1.572.857 3.257t.871 3.295q.42 1.611.808 3.109t.709 2.659q.97-7.523 2.04-15.043-.661-2.627-1.129-4.352t-.47-1.762a11.176 11.176 0 0 0-.426-1.116 7.136 7.136 0 0 0-.449-.846 5.325 5.325 0 0 0-.5-.728q3.053-.224 6.108-.409a3.813 3.813 0 0 0-.354.9 5.179 5.179 0 0 0-.095 1.113 5.9 5.9 0 0 0 .261 1.587q.97 3.91 1.906 7.634.371 1.582.785 3.275t.8 3.313q.385 1.619.74 3.126t.65 2.674q1.695-11.154 3.614-22.3a3.112 3.112 0 0 0-.006-.61 8.237 8.237 0 0 1-.045-.57 4.372 4.372 0 0 1-.065-.569q1.1-.048 2.2-.09a2.367 2.367 0 0 0-.345.585z" class="cls-1" data-name="Path 1277" transform="translate(-418.089 -292.888)"/>
                <path id="Path_1278" d="M659.708 293.438l-.6 3.741-.93-.057q-.159-.734-.309-1.278a1.942 1.942 0 0 0-.536-.91 2.692 2.692 0 0 0-1.108-.579 9.21 9.21 0 0 0-2.023-.281l-1.113 21.421a17.889 17.889 0 0 0 0 2.232 6.951 6.951 0 0 0 .234 1.443 2.564 2.564 0 0 0 .37 1.012q-2.882-.155-5.766-.274a4.319 4.319 0 0 0 .464-.972 11.886 11.886 0 0 0 .35-1.415 15.409 15.409 0 0 0 .231-2.221l.918-21.43a9.224 9.224 0 0 0-2.041.089 2.69 2.69 0 0 0-1.157.471 1.937 1.937 0 0 0-.62.855q-.2.527-.428 1.243l-.93-.031-.246-3.782q7.623.239 15.24.723z" class="cls-1" data-name="Path 1278" transform="translate(-503.96 -292.715)"/>
                <path id="Path_1279" d="M695.907 318.652a15.607 15.607 0 0 0 .708 2.693 3.562 3.562 0 0 0 1.2 1.557 3.345 3.345 0 0 1-1.33.325 8.506 8.506 0 0 1-1.179 0 4.454 4.454 0 0 1-2.32-1.042 3.915 3.915 0 0 1-1.194-2.461q-.675-5.759-1.409-11.517a3.617 3.617 0 0 1-1.962-.886q-.4 5.108-.809 10.217a17.727 17.727 0 0 0-.06 2.231 6.955 6.955 0 0 0 .194 1.449 2.562 2.562 0 0 0 .343 1.021q-2.878-.233-5.758-.429a3.735 3.735 0 0 0 .491-.959 11.8 11.8 0 0 0 .388-1.405 15.339 15.339 0 0 0 .291-2.214l1.24-17.711a14.572 14.572 0 0 0 .014-2.233 11.078 11.078 0 0 0-.205-1.446 3.6 3.6 0 0 0-.38-1.019q3.6.245 7.2.546a11.54 11.54 0 0 1 2.918.6 6.137 6.137 0 0 1 2.173 1.29 4.909 4.909 0 0 1 1.292 2.057 7.078 7.078 0 0 1 .24 2.933 6.8 6.8 0 0 1-1.825 4.263 6.231 6.231 0 0 1-4.121 1.765 6.275 6.275 0 0 1 .9.615 5.693 5.693 0 0 1 .928.964 6.532 6.532 0 0 1 .788 1.355 6.709 6.709 0 0 1 .485 1.787q.392 2.824.759 5.654zm-6.965-12.362a1.329 1.329 0 0 0 .568.639 2.251 2.251 0 0 0 1.107.378 1.918 1.918 0 0 0 1.348-.344 3.111 3.111 0 0 0 .921-1.143 6.715 6.715 0 0 0 .559-1.767q.193-1.034.3-2.173a7.8 7.8 0 0 0-.12-2.516 4.63 4.63 0 0 0-.766-1.712 3.446 3.446 0 0 0-1.2-1.02 3.728 3.728 0 0 0-1.377-.4l-.974-.078-.535 6.76a1.959 1.959 0 0 1 .754-.36 2.129 2.129 0 0 1 .891-.042 1.915 1.915 0 0 1 .781.314 1.379 1.379 0 0 1 .5.712 2.209 2.209 0 0 0-1.229.011 2.256 2.256 0 0 0-.993.588 2.3 2.3 0 0 0-.56.968 2.036 2.036 0 0 0 .025 1.185z" class="cls-1" data-name="Path 1279" transform="translate(-526.224 -293.953)"/>
                <path id="Path_1280" d="M729.79 327.177a4.2 4.2 0 0 0 .454-.826 7.213 7.213 0 0 0 .313-1.093 5.77 5.77 0 0 0 .069-1.623q-.322-4.726-.682-9.453-2.046-.25-4.095-.483-1.913 5.266-3.766 10.546a3.62 3.62 0 0 0-.155.712l-.069.644a5.2 5.2 0 0 0-.031.648q-1.034-.111-2.069-.218a3.476 3.476 0 0 0 .408-.571 5.517 5.517 0 0 0 .361-.671q.176-.384.382-.86 3.873-11.124 8.015-22.186a11.97 11.97 0 0 0-.359-1.5l-.191-.482q2.334.269 4.665.562.5 6.169.942 12.335t.813 12.332a6.563 6.563 0 0 0 .15 1.193 8.836 8.836 0 0 0 .261.939 5.365 5.365 0 0 0 .316.813q-2.863-.398-5.732-.758zm.066-14.234q-.333-4.166-.7-8.334-1.465 3.951-2.9 7.91 1.805.205 3.6.424z" class="cls-1" data-name="Path 1280" transform="translate(-548.231 -296.858)"/>
                <path id="Path_1281" d="M767.035 326.53a17.731 17.731 0 0 0-.222 2.221 6.939 6.939 0 0 0 .089 1.459 2.566 2.566 0 0 0 .269 1.044q-2.86-.444-5.724-.85a3.727 3.727 0 0 0 .56-.921 11.79 11.79 0 0 0 .49-1.373 15.378 15.378 0 0 0 .452-2.187l.005-.037 2.524-17.535a14.585 14.585 0 0 0 .176-2.226 11.085 11.085 0 0 0-.1-1.458 3.582 3.582 0 0 0-.305-1.044q3.037.431 6.068.9a2.473 2.473 0 0 0-.6.91 6.6 6.6 0 0 0-.54 1.363 16.971 16.971 0 0 0-.458 2.184l-2.684 17.512z" class="cls-1" data-name="Path 1281" transform="translate(-572.741 -299.128)"/>
                <path id="Path_1282" d="M792.91 335.555q-6.416-1.217-12.856-2.245a3.739 3.739 0 0 0 .576-.911 11.861 11.861 0 0 0 .514-1.365 15.276 15.276 0 0 0 .489-2.178l2.833-17.526a14.575 14.575 0 0 0 .215-2.223 11.039 11.039 0 0 0-.075-1.459 3.587 3.587 0 0 0-.287-1.049q3.03.484 6.056 1.007a2.476 2.476 0 0 0-.611.9 6.581 6.581 0 0 0-.563 1.353 16.909 16.909 0 0 0-.5 2.176l-3.339 19.528a1.541 1.541 0 0 0 .015.486 1.515 1.515 0 0 0 .251.6 1.849 1.849 0 0 0 .631.554 3.54 3.54 0 0 0 1.152.376l1.334.237a2.792 2.792 0 0 0 1.468-.063 2.549 2.549 0 0 0 1.013-.685 4.884 4.884 0 0 0 .735-1.084q.313-.619.631-1.258l.883.166q-.28 2.332-.565 4.663z" class="cls-1" data-name="Path 1282" transform="translate(-583.682 -300.878)"/>
                <path id="Path_1283" d="M842.339 318.485a8.073 8.073 0 0 1 2.623 1.059 6.949 6.949 0 0 1 1.859 1.7 5.312 5.312 0 0 1 .955 2.1 5.187 5.187 0 0 1-.038 2.281l-3.746 15.792a5.153 5.153 0 0 1-1.016 2.089 5.674 5.674 0 0 1-1.758 1.447 6.9 6.9 0 0 1-2.3.722 7.34 7.34 0 0 1-2.63-.123 7.6 7.6 0 0 1-2.491-1.013 7.075 7.075 0 0 1-1.811-1.633 5.536 5.536 0 0 1-1-2.058 5.149 5.149 0 0 1-.037-2.323l3.281-15.9a4.72 4.72 0 0 1 .989-2.071 5.792 5.792 0 0 1 1.852-1.48 7.4 7.4 0 0 1 2.461-.741 8.1 8.1 0 0 1 2.807.152zm1.233 6.056a2.5 2.5 0 0 1-1.446.142 4.1 4.1 0 0 1-1.3-.621 1.116 1.116 0 0 1-.469-1.176 2.59 2.59 0 0 0 1.229.467 2.332 2.332 0 0 0 1.182-.162 2.01 2.01 0 0 0 .875-.73 2.037 2.037 0 0 0 .335-1.2l.016-.073a3.034 3.034 0 0 0-.555-1.072 2.23 2.23 0 0 0-1.313-.7 2.572 2.572 0 0 0-1.365.01 2.73 2.73 0 0 0-1.63 1.436 4.456 4.456 0 0 0-.328.941l-4.183 19.374a4.538 4.538 0 0 0-.087.954 3.033 3.033 0 0 0 .19 1.054 2.644 2.644 0 0 0 .592.927 2.234 2.234 0 0 0 1.16.587 2.179 2.179 0 0 0 2.164-.608 2.984 2.984 0 0 0 .58-.884 5.581 5.581 0 0 0 .315-.944z" class="cls-1" data-name="Path 1283" transform="translate(-613.542 -307.745)"/>
                <path id="Path_1284" d="M885.361 328.287l-1.34 3.5-.906-.246a13.269 13.269 0 0 0-.057-1.357 1.962 1.962 0 0 0-.37-.987 2.774 2.774 0 0 0-1.027-.767 11.721 11.721 0 0 0-2.065-.7q-1.211-.316-2.424-.625l-2.034 7.974a19.321 19.321 0 0 0 2.143.571q.99.2 1.712.311.849.106 1.512.126a3.424 3.424 0 0 1-.089.489 3.728 3.728 0 0 1-.46.942 1.162 1.162 0 0 1-1.046.49 2.633 2.633 0 0 1-1.316-.367q-1.356-.769-2.719-1.529L871.843 348a16.827 16.827 0 0 0-.428 2.152 9.993 9.993 0 0 0-.08 1.415 2.525 2.525 0 0 0 .177 1.028q-2.779-.714-5.565-1.392a3.069 3.069 0 0 0 .6-.833 11.908 11.908 0 0 0 .614-1.281 14.148 14.148 0 0 0 .646-2.058l4.276-17.428a14.129 14.129 0 0 0 .388-2.18 11.121 11.121 0 0 0 .037-1.442 2.971 2.971 0 0 0-.164-1.06q6.526 1.59 13.017 3.366z" class="cls-1" data-name="Path 1284" transform="translate(-634.184 -311.652)"/>
                <g id="Group_162" data-name="Group 162" transform="translate(114.93 4.458)">
                    <g id="Group_159" data-name="Group 159" transform="translate(0 3.484)">
                        <g id="Group_156" data-name="Group 156" transform="translate(0 .028)">
                            <path id="Path_1285" d="M587.784 312.058l-.126 1.427h-.331q-.073-.274-.138-.475a.747.747 0 0 0-.21-.331.93.93 0 0 0-.4-.193 3.089 3.089 0 0 0-.721-.063l.018 8.115a6.869 6.869 0 0 0 .045.843 2.707 2.707 0 0 0 .117.541.974.974 0 0 0 .159.374h-2.162a1.647 1.647 0 0 0 .158-.375 4.493 4.493 0 0 0 .107-.541 5.926 5.926 0 0 0 .049-.843l-.019-8.115a3.071 3.071 0 0 0-.72.067.926.926 0 0 0-.4.2.737.737 0 0 0-.208.332q-.064.2-.136.476h-.331l-.133-1.426z" class="cls-1" data-name="Path 1285" transform="translate(-582.393 -312.058)"/>
                        </g>
                        <g id="Group_157" data-name="Group 157" transform="translate(6.169 .012)">
                            <path id="Path_1286" d="M602.861 320.5a6.78 6.78 0 0 0 .045.843 2.662 2.662 0 0 0 .116.54.97.97 0 0 0 .16.375h-2.162a1.4 1.4 0 0 0 .158-.375 4.42 4.42 0 0 0 .107-.541 5.947 5.947 0 0 0 .049-.843v-.014l-.011-4.569h-2.1l.01 4.583a6.865 6.865 0 0 0 .045.843 2.635 2.635 0 0 0 .117.54.971.971 0 0 0 .159.374h-2.162a1.425 1.425 0 0 0 .158-.375 4.5 4.5 0 0 0 .107-.541 5.933 5.933 0 0 0 .049-.843l-.016-6.716a5.882 5.882 0 0 0-.052-.843 4.555 4.555 0 0 0-.109-.541 1.444 1.444 0 0 0-.16-.375h2.162a1.125 1.125 0 0 0-.158.39 2.67 2.67 0 0 0-.114.541 6.734 6.734 0 0 0-.041.829v1.672h2.1v-1.672a5.8 5.8 0 0 0-.052-.843 4.489 4.489 0 0 0-.109-.54 1.425 1.425 0 0 0-.159-.375h2.162a1.615 1.615 0 0 0-.158.382 4.9 4.9 0 0 0-.107.541 5.8 5.8 0 0 0-.049.836l.016 6.7z" class="cls-1" data-name="Path 1286" transform="translate(-597.365 -312.021)"/>
                        </g>
                        <g id="Group_158" data-name="Group 158" transform="translate(12.698)">
                            <path id="Path_1287" d="M618.106 322.224l-4.872.011a1.417 1.417 0 0 0 .158-.375 4.5 4.5 0 0 0 .107-.541 5.886 5.886 0 0 0 .049-.843l-.016-6.716a5.81 5.81 0 0 0-.052-.843 4.5 4.5 0 0 0-.109-.54 1.42 1.42 0 0 0-.16-.375l4.728-.011-.126 1.427h-.332q-.073-.289-.145-.49a.8.8 0 0 0-.217-.331.891.891 0 0 0-.418-.187 3.95 3.95 0 0 0-.764-.056h-.879l.007 3.128a5.393 5.393 0 0 0 .793 0q.36-.029.62-.059a5.347 5.347 0 0 0 .533-.1 1.155 1.155 0 0 1 .015.187 1.513 1.513 0 0 1-.071.4.422.422 0 0 1-.316.282.9.9 0 0 1-.49-.006l-1.082-.3.012 5.363a.582.582 0 0 0 .037.179.562.562 0 0 0 .13.208.676.676 0 0 0 .267.165 1.282 1.282 0 0 0 .447.063h.5a1.017 1.017 0 0 0 .533-.124.932.932 0 0 0 .324-.332 1.8 1.8 0 0 0 .186-.462q.064-.253.135-.513h.332z" class="cls-1" data-name="Path 1287" transform="translate(-613.211 -311.991)"/>
                        </g>
                    </g>
                    <g id="Group_160" data-name="Group 160" transform="translate(.178)">
                        <path id="Rectangle_145" d="M0 0h17.386v1.236H0z" class="cls-1" data-name="Rectangle 145" transform="translate(0 .04)"/>
                    </g>
                    <g id="Group_161" data-name="Group 161" transform="translate(.215 16.284)">
                        <path id="Rectangle_146" d="M0 0h17.386v1.236H0z" class="cls-1" data-name="Rectangle 146" transform="translate(0 .04)"/>
                    </g>
                </g>
            </g>
            <g id="Group_165" data-name="Group 165" transform="translate(22.188 43.063)">
                <g id="Group_164" data-name="Group 164">
                    <path id="Path_1288" d="M370.367 434.921a5.512 5.512 0 0 0 .448-1.147 9.488 9.488 0 0 0 .225-1.471 7.723 7.723 0 0 0-.174-2.119l-2.343-12.164h-5.185l-3.29 14.257a4.784 4.784 0 0 0-.1.947v.847a6.733 6.733 0 0 0 .05.848h-2.692a4.566 4.566 0 0 0 .449-.8 7.232 7.232 0 0 0 .374-.923q.174-.524.374-1.171l6.929-30.01a16.717 16.717 0 0 0-.648-1.894l-.3-.6h5.732l3.091 15.852 3.091 15.852a8.7 8.7 0 0 0 .4 1.52 11.552 11.552 0 0 0 .5 1.171 7.007 7.007 0 0 0 .548 1zm-2.144-18.494l-2.094-10.718-2.443 10.718z" class="cls-1" data-name="Path 1288" transform="translate(-357.306 -398.58)"/>
                    <path id="Path_1289" d="M431.2 403.809a7.006 7.006 0 0 0 1 3.664 19.753 19.753 0 0 0 2.468 3.265q1.47 1.6 3.19 3.141a36.7 36.7 0 0 1 3.19 3.24 17.969 17.969 0 0 1 2.468 3.664 9.524 9.524 0 0 1 1 4.362 10.74 10.74 0 0 1-2.318 7.328q-2.318 2.641-6.954 2.642a11.934 11.934 0 0 1-3.365-.474 8.47 8.47 0 0 1-2.866-1.446 7.309 7.309 0 0 1-1.994-2.393 7.009 7.009 0 0 1-.748-3.315 7.154 7.154 0 0 1 .574-2.966 6.7 6.7 0 0 1 1.421-2.094 5.939 5.939 0 0 1 1.869-1.246 4.939 4.939 0 0 1 1.869-.424 5.574 5.574 0 0 1 3.888 1.122 3.432 3.432 0 0 1 1.2 2.567 4.71 4.71 0 0 0-1.869-.225 5.52 5.52 0 0 0-1.82.449 4.884 4.884 0 0 0-1.5 1.022 4.533 4.533 0 0 0-1 1.5 4.613 4.613 0 0 0-.324 2.268 5.059 5.059 0 0 0 .7 2.119 4.573 4.573 0 0 0 1.545 1.545 4.239 4.239 0 0 0 2.268.6 5.7 5.7 0 0 0 2.418-.474 5.156 5.156 0 0 0 1.7-1.221 4.554 4.554 0 0 0 .972-1.695 6.107 6.107 0 0 0 .3-1.845 8.707 8.707 0 0 0-1-4.162 18.03 18.03 0 0 0-2.492-3.539 43.575 43.575 0 0 0-3.265-3.265 38.277 38.277 0 0 1-3.265-3.315 18.316 18.316 0 0 1-2.492-3.664 9.923 9.923 0 0 1-.324-7.926 8.355 8.355 0 0 1 1.894-2.841 8.65 8.65 0 0 1 2.941-1.869 10.242 10.242 0 0 1 3.764-.673 8.751 8.751 0 0 1 3.764.723 7.784 7.784 0 0 1 2.467 1.77 6.763 6.763 0 0 1 1.271 7.2 5.881 5.881 0 0 1-1.321 1.919 5.685 5.685 0 0 1-1.7 1.122 4.418 4.418 0 0 1-1.7.374 6.178 6.178 0 0 1-3.365-1 3.8 3.8 0 0 1-1.072-1.047 2.289 2.289 0 0 1-.4-1.3 4.149 4.149 0 0 0 1.745.225 5.05 5.05 0 0 0 1.67-.424 4.931 4.931 0 0 0 1.4-.947 3.728 3.728 0 0 0 .922-1.4 3.78 3.78 0 0 0 .274-1.67 5.1 5.1 0 0 0-.448-1.969 4.411 4.411 0 0 0-1.3-1.645 3.69 3.69 0 0 0-2.368-.7 4.423 4.423 0 0 0-2.094.474 4.985 4.985 0 0 0-1.521 1.221 5.294 5.294 0 0 0-.947 1.695 5.952 5.952 0 0 0-.32 1.953z" class="cls-1" data-name="Path 1289" transform="translate(-397.852 -397.229)"/>
                    <path id="Path_1290" d="M496.118 428.839a23.631 23.631 0 0 0 .15 2.916 9.166 9.166 0 0 0 .4 1.869 3.359 3.359 0 0 0 .548 1.3h-7.478a2.6 2.6 0 0 0 .573-1.122 11.84 11.84 0 0 0 .349-1.67 16.6 16.6 0 0 0 .149-1.794q.025-.9.025-1.5v-22.381l-5.734 25.124h-1.545l-6.131-25.074v25.373a5.382 5.382 0 0 0 .124 1.2 4.146 4.146 0 0 0 .324.947 5.527 5.527 0 0 0 .449.9h-3.39a5.653 5.653 0 0 0 .449-.9q.15-.4.3-.947a4.737 4.737 0 0 0 .15-1.246v-26.77a24.732 24.732 0 0 0-.2-2.642 11.5 11.5 0 0 0-.349-1.7 4.064 4.064 0 0 0-.5-1.2h6.281l5.085 20.638 4.686-20.638h6.381a3.364 3.364 0 0 0-.548 1.3 9.2 9.2 0 0 0-.4 1.869 23.645 23.645 0 0 0-.15 2.916v23.23z" class="cls-1" data-name="Path 1290" transform="translate(-426.379 -398.58)"/>
                    <path id="Path_1291" d="M554.289 400.474a4.116 4.116 0 0 0-.324.972 5.475 5.475 0 0 0-.124 1.172q0 2.194-.025 3.963t-.025 4.038v17.173a8.8 8.8 0 0 1-.5 2.991 7.683 7.683 0 0 1-1.4 2.443 6.381 6.381 0 0 1-2.2 1.645 6.86 6.86 0 0 1-2.9.6h-.5a11.682 11.682 0 0 1-7.2-1.969 6.887 6.887 0 0 1-2.6-5.857v-22.036a19.8 19.8 0 0 0-.175-2.891 15.655 15.655 0 0 0-.373-1.845 5.93 5.93 0 0 0-.549-1.346h7.5a3.87 3.87 0 0 0-.558 1.346 9.026 9.026 0 0 0-.405 1.845 22.6 22.6 0 0 0-.152 2.891v21.834a14.116 14.116 0 0 0 .224 2.592 5.951 5.951 0 0 0 .748 2.044 3.858 3.858 0 0 0 1.4 1.346 4.2 4.2 0 0 0 2.119.5h.5a5.032 5.032 0 0 0 3.963-1.794 5.906 5.906 0 0 0 1.1-1.944 7.367 7.367 0 0 0 .374-2.393v-25.126a5.289 5.289 0 0 0-.143-1.272q-.142-.572-.284-.972a5.876 5.876 0 0 0-.428-.9h3.4a8.162 8.162 0 0 0-.463.95z" class="cls-1" data-name="Path 1291" transform="translate(-462.017 -398.58)"/>
                    <path id="Path_1292" d="M608.046 434.281a6.582 6.582 0 0 1-2.293-.274 4.8 4.8 0 0 1-1.147-.673 9.545 9.545 0 0 1-2.293 1.022 9.326 9.326 0 0 1-2.692.374 9.657 9.657 0 0 1-3.464-.6 8.376 8.376 0 0 1-2.692-1.62 7.6 7.6 0 0 1-1.77-2.393 6.735 6.735 0 0 1-.648-2.916v-21.235a7.667 7.667 0 0 1 .574-2.941 6.428 6.428 0 0 1 1.7-2.393 8.384 8.384 0 0 1 2.816-1.6 11.831 11.831 0 0 1 3.938-.6 10.146 10.146 0 0 1 4.113.723 7.123 7.123 0 0 1 2.542 1.794 6.065 6.065 0 0 1 1.27 2.3 8.173 8.173 0 0 1 .349 2.218 6.54 6.54 0 0 1-.5 2.667 5.811 5.811 0 0 1-1.246 1.844 4.92 4.92 0 0 1-1.645 1.072 4.684 4.684 0 0 1-1.7.349 5.484 5.484 0 0 1-3.614-1.1 3.116 3.116 0 0 1-1.321-2.393 4.042 4.042 0 0 0 1.67.249 4.961 4.961 0 0 0 1.645-.372 4.47 4.47 0 0 0 1.371-.892 3.722 3.722 0 0 0 .9-1.313 5.03 5.03 0 0 0 .274-1.66 4.681 4.681 0 0 0-.374-1.957 3.971 3.971 0 0 0-1.271-1.611 3.8 3.8 0 0 0-2.368-.669 3.864 3.864 0 0 0-1.869.4 3.627 3.627 0 0 0-1.171.994 3.571 3.571 0 0 0-.623 1.293 5.14 5.14 0 0 0-.175 1.242v25.9a6 6 0 0 0 .15 1.243 4.005 4.005 0 0 0 .523 1.292 3.429 3.429 0 0 0 1 1.019 2.828 2.828 0 0 0 1.62.423 2.871 2.871 0 0 0 1.57-.4 2.929 2.929 0 0 0 .972-.995 3.912 3.912 0 0 0 .473-1.292 7.4 7.4 0 0 0 .125-1.293v-8q-.051-1.739-.2-2.908a13.12 13.12 0 0 0-.349-1.865 3.371 3.371 0 0 0-.548-1.292h6.381z" class="cls-1" data-name="Path 1292" transform="translate(-494.739 -397.94)"/>
                    <path id="Path_1293" d="M658.5 434.281a6.584 6.584 0 0 1-2.293-.274 4.8 4.8 0 0 1-1.147-.673 9.545 9.545 0 0 1-2.293 1.022 9.331 9.331 0 0 1-2.692.374 9.658 9.658 0 0 1-3.465-.6 8.373 8.373 0 0 1-2.692-1.62 7.6 7.6 0 0 1-1.77-2.393 6.736 6.736 0 0 1-.648-2.916v-21.235a7.667 7.667 0 0 1 .573-2.941 6.433 6.433 0 0 1 1.7-2.393 8.386 8.386 0 0 1 2.817-1.6 11.829 11.829 0 0 1 3.938-.6 10.145 10.145 0 0 1 4.112.723 7.12 7.12 0 0 1 2.542 1.794 6.074 6.074 0 0 1 1.272 2.293 8.175 8.175 0 0 1 .349 2.218 6.534 6.534 0 0 1-.5 2.667 5.805 5.805 0 0 1-1.246 1.844 4.914 4.914 0 0 1-1.645 1.072 4.682 4.682 0 0 1-1.695.349 5.485 5.485 0 0 1-3.614-1.1 3.117 3.117 0 0 1-1.321-2.393 4.04 4.04 0 0 0 1.67.249 4.965 4.965 0 0 0 1.645-.372 4.47 4.47 0 0 0 1.371-.892 3.717 3.717 0 0 0 .9-1.313 5.015 5.015 0 0 0 .274-1.66 4.672 4.672 0 0 0-.374-1.957 3.972 3.972 0 0 0-1.272-1.611 3.8 3.8 0 0 0-2.368-.669 3.862 3.862 0 0 0-1.869.4 3.628 3.628 0 0 0-1.171.994 3.579 3.579 0 0 0-.623 1.293 5.137 5.137 0 0 0-.175 1.242v25.9a5.966 5.966 0 0 0 .15 1.243 3.983 3.983 0 0 0 .523 1.292 3.423 3.423 0 0 0 1 1.019 2.826 2.826 0 0 0 1.62.423 2.872 2.872 0 0 0 1.57-.4 2.928 2.928 0 0 0 .972-.995 3.9 3.9 0 0 0 .473-1.292 7.4 7.4 0 0 0 .125-1.293v-8q-.051-1.739-.2-2.908a13.171 13.171 0 0 0-.349-1.865 3.366 3.366 0 0 0-.548-1.292h6.374z" class="cls-1" data-name="Path 1293" transform="translate(-524.403 -397.94)"/>
                    <path id="Path_1294" d="M706.62 434.921h-16.849a4.869 4.869 0 0 0 .548-1.3 15.342 15.342 0 0 0 .374-1.869 20.393 20.393 0 0 0 .175-2.916v-23.23a20.405 20.405 0 0 0-.175-2.916 15.418 15.418 0 0 0-.374-1.869 4.881 4.881 0 0 0-.548-1.3h7.477a3.357 3.357 0 0 0-.548 1.3 9.174 9.174 0 0 0-.4 1.869 23.657 23.657 0 0 0-.15 2.916v25.922a2.041 2.041 0 0 0 .124.623 1.984 1.984 0 0 0 .449.723 2.364 2.364 0 0 0 .922.573 4.466 4.466 0 0 0 1.545.224h1.745a3.524 3.524 0 0 0 1.844-.424 3.286 3.286 0 0 0 1.122-1.122 6.405 6.405 0 0 0 .673-1.57q.248-.871.5-1.77h1.147z" class="cls-1" data-name="Path 1294" transform="translate(-552.786 -398.58)"/>
                    <path id="Path_1295" d="M753.319 434.921H736.47a4.884 4.884 0 0 0 .548-1.3 15.437 15.437 0 0 0 .374-1.869 20.321 20.321 0 0 0 .175-2.916v-23.23a20.334 20.334 0 0 0-.175-2.916 15.514 15.514 0 0 0-.374-1.869 4.9 4.9 0 0 0-.548-1.3h16.35l-.448 4.935h-1.146q-.251-1-.5-1.695a2.768 2.768 0 0 0-.747-1.147 3.085 3.085 0 0 0-1.446-.648 13.587 13.587 0 0 0-2.642-.2h-3.041v10.817a18.661 18.661 0 0 0 2.742 0q1.245-.1 2.143-.2a18.217 18.217 0 0 0 1.844-.349 3.977 3.977 0 0 1 .05.648 5.181 5.181 0 0 1-.249 1.4 1.461 1.461 0 0 1-1.1.972 3.091 3.091 0 0 1-1.7-.025l-3.739-1.047v18.55a2.023 2.023 0 0 0 .125.622 1.969 1.969 0 0 0 .449.721 2.37 2.37 0 0 0 .922.572 4.471 4.471 0 0 0 1.546.223h1.744a3.525 3.525 0 0 0 1.845-.424 3.23 3.23 0 0 0 1.128-1.146 6.2 6.2 0 0 0 .648-1.6q.224-.871.473-1.77h1.147z" class="cls-1" data-name="Path 1295" transform="translate(-580.243 -398.58)"/>
                    <path id="Path_1296" d="M793.589 399.527a8.3 8.3 0 0 1 6.131 2.617 9 9 0 0 1 1.795 2.841 9.268 9.268 0 0 1 .648 3.465V426a9.258 9.258 0 0 1-.648 3.465 8.975 8.975 0 0 1-1.795 2.841 8.3 8.3 0 0 1-6.131 2.617H783.17a4.884 4.884 0 0 0 .548-1.3 15.435 15.435 0 0 0 .374-1.869 20.4 20.4 0 0 0 .174-2.916v-23.23a20.414 20.414 0 0 0-.174-2.916 15.512 15.512 0 0 0-.374-1.869 4.895 4.895 0 0 0-.548-1.3zm3.29 8.923a13.612 13.612 0 0 0-.224-2.218 8.008 8.008 0 0 0-.9-2.542 6.269 6.269 0 0 0-1.844-2.069 5.023 5.023 0 0 0-3.016-.848h-1.345v27.368a4.671 4.671 0 0 1 1-.5 3.345 3.345 0 0 1 1.62 0 1.408 1.408 0 0 1 1.072 1.047 2.624 2.624 0 0 0-1.52.15 2.826 2.826 0 0 0-1.171.872 3.1 3.1 0 0 0-.6 1.321 2.544 2.544 0 0 0 .2 1.546 1.61 1.61 0 0 0 .723.747 2.579 2.579 0 0 0 1.371.349h.4a2.514 2.514 0 0 0 1.894-.848 7.016 7.016 0 0 0 1.321-2.068 12.172 12.172 0 0 0 .772-2.542 12.356 12.356 0 0 0 .25-2.219z" class="cls-1" data-name="Path 1296" transform="translate(-607.702 -398.58)"/>
                    <path id="Path_1297" d="M420.39 506.305a13.539 13.539 0 0 1 3.614.449 7.4 7.4 0 0 1 2.791 1.421 6.414 6.414 0 0 1 1.82 2.542 9.861 9.861 0 0 1 .648 3.764 8.9 8.9 0 0 1-2.218 6.381 8.2 8.2 0 0 1-6.256 2.343 4.385 4.385 0 0 1-1.57-.274 4.505 4.505 0 0 1-1.272-.723v13.41a23.634 23.634 0 0 0 .15 2.916 9.158 9.158 0 0 0 .4 1.869 3.356 3.356 0 0 0 .549 1.3h-7.478a4.88 4.88 0 0 0 .548-1.3 15.461 15.461 0 0 0 .374-1.869 20.381 20.381 0 0 0 .174-2.916v-23.23a20.391 20.391 0 0 0-.174-2.916 15.5 15.5 0 0 0-.374-1.869 4.9 4.9 0 0 0-.548-1.3zm.349 15.653a2.331 2.331 0 0 0 1.645-.6 3.859 3.859 0 0 0 1-1.6 9.968 9.968 0 0 0 .473-2.368q.124-1.371.125-2.867a10.879 10.879 0 0 0-.424-3.24 6.184 6.184 0 0 0-1.122-2.168 4.274 4.274 0 0 0-1.57-1.2 4.344 4.344 0 0 0-1.72-.374h-1.2v8.873a2.416 2.416 0 0 1 .9-.548 2.523 2.523 0 0 1 1.1-.15 2.287 2.287 0 0 1 1.022.349 1.632 1.632 0 0 1 .673.848 2.626 2.626 0 0 0-1.52.149 2.826 2.826 0 0 0-1.171.872 3.1 3.1 0 0 0-.6 1.321 2.777 2.777 0 0 0 .149 1.546 1.7 1.7 0 0 0 .773.773 2.8 2.8 0 0 0 1.467.384z" class="cls-1" data-name="Path 1297" transform="translate(-389.21 -461.363)"/>
                    <path id="Path_1298" d="M463.946 541.7a5.51 5.51 0 0 0 .449-1.147 9.581 9.581 0 0 0 .224-1.471 7.71 7.71 0 0 0-.175-2.118L462.1 524.8h-5.184l-3.29 14.257a4.788 4.788 0 0 0-.1.947v.847a6.818 6.818 0 0 0 .05.848h-2.692a4.57 4.57 0 0 0 .449-.8 7.216 7.216 0 0 0 .374-.923q.174-.523.374-1.171l6.93-30.01a16.623 16.623 0 0 0-.648-1.894l-.3-.6h5.737l3.091 15.852 3.091 15.852a8.711 8.711 0 0 0 .4 1.521 11.542 11.542 0 0 0 .5 1.171 6.981 6.981 0 0 0 .548 1zm-2.146-18.5l-2.094-10.718-2.439 10.718z" class="cls-1" data-name="Path 1298" transform="translate(-412.328 -461.363)"/>
                    <path id="Path_1299" d="M524.152 506.305a5.607 5.607 0 0 0-.449.9 4.205 4.205 0 0 0-.324.947 5.4 5.4 0 0 0-.124 1.2V541.7h-1.6L507.9 512.486v26.172a5.383 5.383 0 0 0 .124 1.2 7.4 7.4 0 0 0 .274.947 5.536 5.536 0 0 0 .449.9h-3.34a5.668 5.668 0 0 0 .449-.9 10.094 10.094 0 0 0 .3-.972 5.028 5.028 0 0 0 .15-1.272v-26.772a19.776 19.776 0 0 0-.224-2.617 13.9 13.9 0 0 0-.374-1.67 3.393 3.393 0 0 0-.5-1.146h5.483l10.967 23.031v-19.94a5.059 5.059 0 0 0-.149-1.271q-.15-.573-.3-.972-.2-.5-.4-.9z" class="cls-1" data-name="Path 1299" transform="translate(-444.269 -461.363)"/>
                    <path id="Path_1300" d="M577.014 541.058a6.575 6.575 0 0 1-2.293-.274 4.79 4.79 0 0 1-1.147-.673 9.553 9.553 0 0 1-2.293 1.022 9.323 9.323 0 0 1-2.692.374 9.66 9.66 0 0 1-3.465-.6 8.376 8.376 0 0 1-2.692-1.62 7.59 7.59 0 0 1-1.77-2.393 6.735 6.735 0 0 1-.648-2.916v-21.235a7.666 7.666 0 0 1 .573-2.941 6.432 6.432 0 0 1 1.7-2.393 8.383 8.383 0 0 1 2.817-1.595 11.818 11.818 0 0 1 3.938-.6 10.146 10.146 0 0 1 4.112.723 7.116 7.116 0 0 1 2.542 1.795 6.071 6.071 0 0 1 1.271 2.293 8.176 8.176 0 0 1 .349 2.218 6.54 6.54 0 0 1-.5 2.667 5.818 5.818 0 0 1-1.246 1.845 4.922 4.922 0 0 1-1.645 1.072 4.682 4.682 0 0 1-1.695.349 5.487 5.487 0 0 1-3.614-1.1 3.117 3.117 0 0 1-1.321-2.393 4.054 4.054 0 0 0 1.67.249 4.988 4.988 0 0 0 1.645-.372 4.46 4.46 0 0 0 1.371-.893 3.708 3.708 0 0 0 .9-1.313 5.014 5.014 0 0 0 .274-1.66 4.671 4.671 0 0 0-.374-1.957 3.971 3.971 0 0 0-1.271-1.611 3.8 3.8 0 0 0-2.368-.669 3.857 3.857 0 0 0-1.869.4 3.627 3.627 0 0 0-1.171.994 3.573 3.573 0 0 0-.623 1.292 5.143 5.143 0 0 0-.174 1.243v25.9a5.968 5.968 0 0 0 .15 1.243 3.986 3.986 0 0 0 .523 1.292 3.42 3.42 0 0 0 1 1.019 2.827 2.827 0 0 0 1.62.422 2.871 2.871 0 0 0 1.57-.4 2.926 2.926 0 0 0 .972-1 3.9 3.9 0 0 0 .473-1.292 7.39 7.39 0 0 0 .125-1.293v-8q-.051-1.738-.2-2.908a13.268 13.268 0 0 0-.349-1.865 3.377 3.377 0 0 0-.549-1.292h6.381z" class="cls-1" data-name="Path 1300" transform="translate(-476.493 -460.722)"/>
                    <path id="Path_1301" d="M619.574 505.216a9.317 9.317 0 0 1 3.39.6 8.434 8.434 0 0 1 2.667 1.62 6.986 6.986 0 0 1 1.72 2.393 7.218 7.218 0 0 1 .6 2.916v21.236a6.851 6.851 0 0 1-.648 2.966 7.316 7.316 0 0 1-1.77 2.368 8.691 8.691 0 0 1-2.667 1.6 9.171 9.171 0 0 1-3.339.6 9.514 9.514 0 0 1-3.415-.6 8.945 8.945 0 0 1-2.717-1.6 7.149 7.149 0 0 1-1.795-2.368 6.845 6.845 0 0 1-.648-2.966v-21.238a6.535 6.535 0 0 1 .673-2.916 7.589 7.589 0 0 1 1.844-2.393 9 9 0 0 1 2.742-1.62 9.371 9.371 0 0 1 3.363-.598zm3.091 7.378a2.926 2.926 0 0 1-1.695.6 4.744 4.744 0 0 1-1.72-.424 1.458 1.458 0 0 1-.872-1.37 2.984 2.984 0 0 0 1.595.249 2.741 2.741 0 0 0 1.371-.544 2.611 2.611 0 0 0 .848-1.185 2.838 2.838 0 0 0 .075-1.63v-.1a3.942 3.942 0 0 0-.947-1.209 2.59 2.59 0 0 0-1.745-.519 2.969 2.969 0 0 0-1.62.4 3.429 3.429 0 0 0-1.022 1 3.718 3.718 0 0 0-.548 1.295 6.223 6.223 0 0 0-.15 1.293v25.935a6.03 6.03 0 0 0 .15 1.244 3.984 3.984 0 0 0 .524 1.294 3.41 3.41 0 0 0 1 1.021 2.828 2.828 0 0 0 1.621.423 2.86 2.86 0 0 0 1.57-.4 2.936 2.936 0 0 0 .972-1 3.932 3.932 0 0 0 .474-1.3 7.457 7.457 0 0 0 .124-1.3z" class="cls-1" data-name="Path 1301" transform="translate(-506.441 -460.722)"/>
                    <path id="Path_1302" d="M677.283 541.7h-16.849a4.892 4.892 0 0 0 .548-1.3 15.516 15.516 0 0 0 .374-1.869 20.377 20.377 0 0 0 .174-2.916v-23.23a20.386 20.386 0 0 0-.174-2.916 15.55 15.55 0 0 0-.374-1.869 4.907 4.907 0 0 0-.548-1.3h7.477a3.37 3.37 0 0 0-.548 1.3 9.169 9.169 0 0 0-.4 1.869 23.639 23.639 0 0 0-.15 2.916v25.922a2.046 2.046 0 0 0 .125.623 1.978 1.978 0 0 0 .449.723 2.365 2.365 0 0 0 .922.573 4.466 4.466 0 0 0 1.545.225h1.746a3.521 3.521 0 0 0 1.845-.424 3.289 3.289 0 0 0 1.122-1.122 6.427 6.427 0 0 0 .673-1.57q.248-.871.5-1.77h1.147z" class="cls-1" data-name="Path 1302" transform="translate(-535.536 -461.363)"/>
                    <path id="Path_1303" d="M713.756 535.617a23.641 23.641 0 0 0 .149 2.916 9.156 9.156 0 0 0 .4 1.869 3.367 3.367 0 0 0 .548 1.3h-7.477a4.911 4.911 0 0 0 .549-1.3 15.629 15.629 0 0 0 .374-1.869 20.3 20.3 0 0 0 .174-2.916v-23.23a20.313 20.313 0 0 0-.174-2.916 15.663 15.663 0 0 0-.374-1.869 4.926 4.926 0 0 0-.549-1.3h7.477a3.375 3.375 0 0 0-.548 1.3 9.168 9.168 0 0 0-.4 1.869 23.651 23.651 0 0 0-.149 2.916v23.23z" class="cls-1" data-name="Path 1303" transform="translate(-563.136 -461.363)"/>
                    <path id="Path_1304" d="M750.876 506.305a5.6 5.6 0 0 0-.449.9 4.184 4.184 0 0 0-.324.947 5.373 5.373 0 0 0-.124 1.2V541.7h-1.6l-13.758-29.212v26.172a5.387 5.387 0 0 0 .124 1.2 7.353 7.353 0 0 0 .274.947 5.56 5.56 0 0 0 .449.9h-3.34a5.636 5.636 0 0 0 .449-.9 9.979 9.979 0 0 0 .3-.972 5.034 5.034 0 0 0 .15-1.272v-26.774a19.849 19.849 0 0 0-.224-2.617 13.92 13.92 0 0 0-.374-1.67 3.386 3.386 0 0 0-.5-1.146h5.483l10.967 23.031v-19.94a5.036 5.036 0 0 0-.15-1.271 10.109 10.109 0 0 0-.3-.972q-.2-.5-.4-.9z" class="cls-1" data-name="Path 1304" transform="translate(-577.576 -461.363)"/>
                </g>
            </g>
        </g>
        <g id="Group_178" data-name="Group 178" transform="translate(90.101 130.739)">
            <g id="Group_177" data-name="Group 177">
                <g id="Group_167" data-name="Group 167" transform="translate(0 .304)">
                    <path id="Path_1305" d="M524.183 620.179a7.588 7.588 0 0 0 .048.937 2.948 2.948 0 0 0 .128.6 1.078 1.078 0 0 0 .176.416h-2.4a1.56 1.56 0 0 0 .176-.416 4.992 4.992 0 0 0 .12-.6 6.516 6.516 0 0 0 .056-.937v-7.464a6.513 6.513 0 0 0-.056-.937 5 5 0 0 0-.12-.6 1.564 1.564 0 0 0-.176-.417h2.4a1.081 1.081 0 0 0-.176.417 2.951 2.951 0 0 0-.128.6 7.585 7.585 0 0 0-.048.937v7.464z" class="cls-1" data-name="Path 1305" transform="translate(-522.133 -610.76)"/>
                </g>
                <g id="Group_168" data-name="Group 168" transform="translate(3.251 .304)">
                    <path id="Path_1306" d="M536.111 610.76a1.794 1.794 0 0 0-.144.288 1.355 1.355 0 0 0-.1.3 1.731 1.731 0 0 0-.04.384v10.4h-.513l-4.421-9.387v8.41a1.728 1.728 0 0 0 .04.384 2.348 2.348 0 0 0 .088.3 1.759 1.759 0 0 0 .144.288h-1.073a1.789 1.789 0 0 0 .144-.288 3.1 3.1 0 0 0 .1-.312 1.613 1.613 0 0 0 .048-.408v-8.6a6.381 6.381 0 0 0-.072-.841 4.4 4.4 0 0 0-.12-.537 1.073 1.073 0 0 0-.16-.368h1.762l3.524 7.4v-6.408a1.614 1.614 0 0 0-.048-.408 3.166 3.166 0 0 0-.1-.313 4.86 4.86 0 0 0-.128-.288z" class="cls-1" data-name="Path 1306" transform="translate(-530.024 -610.76)"/>
                </g>
                <g id="Group_169" data-name="Group 169" transform="translate(12.093 .304)">
                    <path id="Path_1307" d="M558.34 620.179a7.589 7.589 0 0 0 .048.937 2.961 2.961 0 0 0 .128.6 1.072 1.072 0 0 0 .176.416h-2.4a.83.83 0 0 0 .184-.361 3.78 3.78 0 0 0 .112-.536 5.226 5.226 0 0 0 .048-.577c.005-.192.008-.352.008-.48v-7.192l-1.844 8.074h-.5l-1.967-8.06v8.154a1.728 1.728 0 0 0 .04.384 1.348 1.348 0 0 0 .1.3 1.784 1.784 0 0 0 .144.288h-1.089a1.793 1.793 0 0 0 .144-.288q.048-.128.1-.3a1.538 1.538 0 0 0 .048-.4v-8.6a7.929 7.929 0 0 0-.064-.849 3.736 3.736 0 0 0-.112-.545 1.3 1.3 0 0 0-.16-.384h2.016l1.634 6.631 1.506-6.631h2.05a1.075 1.075 0 0 0-.176.417 2.964 2.964 0 0 0-.128.6 7.586 7.586 0 0 0-.048.937v7.464z" class="cls-1" data-name="Path 1307" transform="translate(-551.484 -610.76)"/>
                </g>
                <g id="Group_170" data-name="Group 170" transform="translate(19.974 .304)">
                    <path id="Path_1308" d="M574.807 622.133a1.752 1.752 0 0 0 .145-.368 3.053 3.053 0 0 0 .072-.473 2.48 2.48 0 0 0-.056-.681l-.753-3.909h-1.666l-1.057 4.581a1.553 1.553 0 0 0-.032.3v.272a2.181 2.181 0 0 0 .016.272h-.865a1.452 1.452 0 0 0 .144-.256 2.385 2.385 0 0 0 .12-.3q.056-.168.12-.377l2.227-9.643a5.33 5.33 0 0 0-.209-.608l-.1-.192h1.842l.993 5.093.993 5.094a2.8 2.8 0 0 0 .128.489 3.626 3.626 0 0 0 .16.377 2.252 2.252 0 0 0 .176.32zm-.689-5.943l-.673-3.444-.785 3.444z" class="cls-1" data-name="Path 1308" transform="translate(-570.611 -610.76)"/>
                </g>
                <g id="Group_171" data-name="Group 171" transform="translate(27.135 .304)">
                    <path id="Path_1309" d="M593.4 622.133h-5.414a1.553 1.553 0 0 0 .176-.416 4.994 4.994 0 0 0 .12-.6 6.577 6.577 0 0 0 .056-.937v-7.464a6.575 6.575 0 0 0-.056-.937 5 5 0 0 0-.12-.6 1.558 1.558 0 0 0-.176-.417h2.4a1.08 1.08 0 0 0-.176.417 2.931 2.931 0 0 0-.128.6 7.6 7.6 0 0 0-.048.937v8.33a.657.657 0 0 0 .04.2.646.646 0 0 0 .144.232.768.768 0 0 0 .3.184 1.445 1.445 0 0 0 .5.072h.561a1.135 1.135 0 0 0 .593-.136 1.053 1.053 0 0 0 .36-.36 2.06 2.06 0 0 0 .216-.5q.08-.28.16-.569h.368z" class="cls-1" data-name="Path 1309" transform="translate(-587.989 -610.76)"/>
                </g>
                <g id="Group_172" data-name="Group 172" transform="translate(32.981 .304)">
                    <path id="Path_1310" d="M606.375 622.133a1.784 1.784 0 0 0 .144-.368 3.056 3.056 0 0 0 .072-.473 2.482 2.482 0 0 0-.056-.681l-.753-3.909h-1.666l-1.057 4.581a1.551 1.551 0 0 0-.032.3v.272a2.268 2.268 0 0 0 .016.272h-.865a1.426 1.426 0 0 0 .144-.256 2.312 2.312 0 0 0 .12-.3q.056-.168.12-.377l2.227-9.643a5.354 5.354 0 0 0-.208-.608l-.1-.192h1.843l.993 5.093.993 5.094a2.807 2.807 0 0 0 .128.489 3.721 3.721 0 0 0 .16.377 2.3 2.3 0 0 0 .176.32zm-.689-5.943l-.672-3.444-.785 3.444z" class="cls-1" data-name="Path 1310" transform="translate(-602.178 -610.76)"/>
                </g>
                <g id="Group_173" data-name="Group 173" transform="translate(38.86 .304)">
                    <path id="Path_1311" d="M620.579 620.195a7.463 7.463 0 0 0 .048.929 2.939 2.939 0 0 0 .128.593 1.073 1.073 0 0 0 .176.416h-2.4a1.571 1.571 0 0 0 .176-.416 5.1 5.1 0 0 0 .12-.593 6.393 6.393 0 0 0 .056-.929v-3.2l-1.618-4.678a8.181 8.181 0 0 0-.561-1.169q-.144-.224-.256-.384h2.4a.6.6 0 0 0-.152.384 1.092 1.092 0 0 0 .04.449l1.489 4.245 1.666-4.373a2.167 2.167 0 0 0 .048-.264 2.039 2.039 0 0 0 .016-.232 1.265 1.265 0 0 0-.016-.208h.913a1.269 1.269 0 0 0-.176.224 3.568 3.568 0 0 0-.16.248 1.457 1.457 0 0 0-.128.281l-1.81 4.838v3.844z" class="cls-1" data-name="Path 1311" transform="translate(-616.446 -610.76)"/>
                </g>
                <g id="Group_174" data-name="Group 174" transform="translate(45.972)">
                    <path id="Path_1312" d="M635.294 612.135a2.252 2.252 0 0 0 .32 1.178 6.346 6.346 0 0 0 .793 1.049q.473.513 1.025 1.009a11.733 11.733 0 0 1 1.025 1.041 5.766 5.766 0 0 1 .793 1.177 3.057 3.057 0 0 1 .321 1.4 3.449 3.449 0 0 1-.745 2.355 2.815 2.815 0 0 1-2.234.849 3.841 3.841 0 0 1-1.081-.152 2.72 2.72 0 0 1-.921-.465 2.344 2.344 0 0 1-.641-.768 2.256 2.256 0 0 1-.24-1.066 2.307 2.307 0 0 1 .184-.953 2.159 2.159 0 0 1 .457-.673 1.917 1.917 0 0 1 .6-.4 1.587 1.587 0 0 1 .6-.136 1.79 1.79 0 0 1 1.25.361 1.1 1.1 0 0 1 .384.825 1.519 1.519 0 0 0-.6-.072 1.765 1.765 0 0 0-.585.144 1.555 1.555 0 0 0-.48.328 1.448 1.448 0 0 0-.321.48 1.483 1.483 0 0 0-.1.729 1.626 1.626 0 0 0 .224.681 1.476 1.476 0 0 0 .5.5 1.366 1.366 0 0 0 .729.192 1.828 1.828 0 0 0 .777-.152 1.661 1.661 0 0 0 .545-.392 1.466 1.466 0 0 0 .312-.545 1.954 1.954 0 0 0 .1-.593 2.8 2.8 0 0 0-.32-1.337 5.808 5.808 0 0 0-.8-1.137 13.93 13.93 0 0 0-1.049-1.049 12.336 12.336 0 0 1-1.049-1.065 5.877 5.877 0 0 1-.8-1.178 3.19 3.19 0 0 1-.1-2.547 2.688 2.688 0 0 1 .609-.913 2.777 2.777 0 0 1 .945-.6 3.292 3.292 0 0 1 1.21-.216 2.807 2.807 0 0 1 1.209.232 2.494 2.494 0 0 1 .793.569 2.192 2.192 0 0 1 .577 1.426 2.164 2.164 0 0 1-.168.889 1.9 1.9 0 0 1-.424.616 1.822 1.822 0 0 1-.545.36 1.422 1.422 0 0 1-.545.12 1.983 1.983 0 0 1-1.081-.32 1.217 1.217 0 0 1-.345-.337.732.732 0 0 1-.128-.416 1.336 1.336 0 0 0 .561.072 1.607 1.607 0 0 0 .536-.136 1.581 1.581 0 0 0 .449-.3 1.206 1.206 0 0 0 .3-.449 1.221 1.221 0 0 0 .088-.537 1.65 1.65 0 0 0-.144-.633 1.418 1.418 0 0 0-.417-.529 1.188 1.188 0 0 0-.761-.224 1.423 1.423 0 0 0-.673.152 1.61 1.61 0 0 0-.489.392 1.705 1.705 0 0 0-.3.545 1.909 1.909 0 0 0-.13.619z" class="cls-1" data-name="Path 1312" transform="translate(-633.708 -610.021)"/>
                </g>
                <g id="Group_175" data-name="Group 175" transform="translate(52.427 .304)">
                    <path id="Path_1313" d="M651.425 620.179a7.668 7.668 0 0 0 .048.937 2.954 2.954 0 0 0 .128.6 1.078 1.078 0 0 0 .176.416h-2.4a1.567 1.567 0 0 0 .176-.416 4.9 4.9 0 0 0 .12-.6 6.516 6.516 0 0 0 .056-.937v-7.464a6.513 6.513 0 0 0-.056-.937 4.9 4.9 0 0 0-.12-.6 1.571 1.571 0 0 0-.176-.417h2.4a1.08 1.08 0 0 0-.176.417 2.956 2.956 0 0 0-.128.6 7.665 7.665 0 0 0-.048.937v7.464z" class="cls-1" data-name="Path 1313" transform="translate(-649.375 -610.76)"/>
                </g>
                <g id="Group_176" data-name="Group 176" transform="translate(55.31 .304)">
                    <path id="Path_1314" d="M660.569 622.133a1.78 1.78 0 0 0 .144-.368 3.108 3.108 0 0 0 .072-.473 2.484 2.484 0 0 0-.056-.681l-.753-3.909h-1.666l-1.057 4.581a1.551 1.551 0 0 0-.032.3v.272a2.2 2.2 0 0 0 .016.272h-.865a1.426 1.426 0 0 0 .144-.256 2.385 2.385 0 0 0 .12-.3q.056-.168.12-.377l2.227-9.643a5.341 5.341 0 0 0-.208-.608l-.1-.192h1.842l.993 5.093.993 5.094a2.791 2.791 0 0 0 .128.489 3.708 3.708 0 0 0 .16.377 2.252 2.252 0 0 0 .176.32zm-.689-5.943l-.673-3.444-.785 3.444z" class="cls-1" data-name="Path 1314" transform="translate(-656.372 -610.76)"/>
                </g>
            </g>
        </g>
        <path id="Path_1315" d="M451.379 623.385a1.482 1.482 0 0 1-1.482 1.482c-.818 0-38.9-.664-38.9-1.482s38.078-1.482 38.9-1.482a1.482 1.482 0 0 1 1.482 1.482z" class="cls-1" data-name="Path 1315" transform="translate(-366.689 -486.268)"/>
        <path id="Path_1316" d="M680.565 623.493a1.459 1.459 0 0 1 1.458-1.459c.806 0 38.276.653 38.276 1.459s-37.47 1.458-38.276 1.458a1.458 1.458 0 0 1-1.458-1.458z" class="cls-1" data-name="Path 1316" transform="translate(-525.185 -486.345)"/>
    </g>
    <text id="CHAPTER_4" class="cls-2" data-name="CHAPTER 4" transform="translate(94 9)">
        <tspan x="0" y="0">CHAPTER 4</tspan>
    </text>
    <text id="CHAPTER_4-2" class="cls-2" data-name="CHAPTER 4" transform="translate(94 9)">
        <tspan x="0" y="0">CHAPTER 4</tspan>
    </text>
</svg>
